<?xml version="1.0" encoding="utf-8"?>
<!-- Generator: Adobe Illustrator 19.0.0, SVG Export Plug-In . SVG Version: 6.00 Build 0)  -->
<svg version="1.1" id="Layer_1" xmlns="http://www.w3.org/2000/svg" xmlns:xlink="http://www.w3.org/1999/xlink" x="0px" y="0px"
	 viewBox="72 -47.5 743 395.5" style="enable-background:new 72 -47.5 743 395.5;" xml:space="preserve">
<style type="text/css">
	.st0{fill:none;stroke:#E7E3E4;stroke-width:3;stroke-linecap:round;stroke-linejoin:round;stroke-miterlimit:10;}
	.st1{fill:none;stroke:#E7E3E4;stroke-width:5;stroke-linecap:round;stroke-linejoin:round;stroke-miterlimit:10;}
	.st2{fill:#DADDEA;}
	.st3{fill:#CDD0E0;}
	.st4{enable-background:new    ;}
	.st5{fill:#EDEDEF;}
	.st6{fill:#BCBCBC;}
	.st7{fill:#EAEAEA;}
	.st8{fill:#FAFAFA;stroke:#87747E;stroke-width:3;stroke-linecap:round;stroke-linejoin:round;stroke-miterlimit:10;}
	.st9{fill:none;stroke:#87747E;stroke-width:3;stroke-linecap:round;stroke-linejoin:round;stroke-miterlimit:10;}
	.st10{fill:#A01503;}
	.st11{fill:#665760;stroke:#87747E;stroke-width:3;stroke-linecap:round;stroke-linejoin:round;stroke-miterlimit:10;}
	.st12{fill:#FFFFFF;}
	.st13{fill:#00064B;}
	.st14{fill:url(#SVGID_1_);}
	.st15{fill:url(#SVGID_2_);}
	.st16{fill:url(#SVGID_3_);}
	.st17{fill:#7D93FF;}
	.st18{fill:#00053E;}
	.st19{fill:#684D99;}
	.st20{fill:#866EAE;}
	.st21{fill:#A692C5;}
	.st22{fill:#1D1D1B;}
</style>
<g>
	<g id="XMLID_11_">
		<line id="XMLID_92_" class="st0" x1="122.2" y1="149.9" x2="41.2" y2="149.9"/>
		<line id="XMLID_95_" class="st0" x1="22.1" y1="162.7" x2="1.2" y2="162.7"/>
		<line id="XMLID_99_" class="st0" x1="716.4" y1="25.9" x2="682.7" y2="25.9"/>
		<line id="XMLID_102_" class="st0" x1="613.8" y1="75" x2="580.1" y2="75"/>
		<line id="XMLID_107_" class="st0" x1="641.4" y1="85.8" x2="630.4" y2="85.8"/>
		<line id="XMLID_108_" class="st0" x1="675.9" y1="85.8" x2="664.9" y2="85.8"/>
		<line id="XMLID_111_" class="st0" x1="281.4" y1="34" x2="270.4" y2="34"/>
		<line id="XMLID_114_" class="st0" x1="314.9" y1="34" x2="303.9" y2="34"/>
		<g id="XMLID_55_">
			<line id="XMLID_75_" class="st0" x1="18.8" y1="123.7" x2="43.8" y2="123.7"/>
			<path id="XMLID_76_" class="st0" d="M43.8,123.7c0-5.1,5.1-9.2,11.3-9.2c1.8,0,3.5,0.4,5.1,1c1.6-6.8,9-12,17.9-12
				c1.1,0,2.2,0.1,3.3,0.3c-0.1-0.9-0.2-1.8-0.2-2.8c0-12.4,10.2-22.9,24.1-26.4c0-0.3,0-0.6,0-0.9c0-10.5,10.5-19,23.5-19
				c2.2,0,4.3,0.2,6.3,0.7c0-0.2,0-0.5,0-0.7c0-10.5,10.5-19,23.5-19s23.5,8.5,23.5,19c0,0.3,0,0.6,0,0.9c9.4,2.5,16.3,9.6,16.3,18
				c0,0.3,0,0.6,0,0.9c12.2,3,21.4,11.3,23.6,21.6c0.2,0,0.3,0,0.5,0c6.1,0,11.1,3.9,11.3,8.9c4.9,2,8.4,5.7,9.6,10.1l0.5,0.2
				c1.4-0.5,3-0.8,4.7-0.8c6.3,0,11.3,4.1,11.3,9.2h93.7"/>
		</g>
		<g id="XMLID_87_">
			<line id="XMLID_91_" class="st0" x1="627.7" y1="162.1" x2="652.8" y2="162.1"/>
			<path id="XMLID_90_" class="st0" d="M652.8,162.1c0-5.1,5.1-9.2,11.3-9.2c1.8,0,3.5,0.4,5.1,1c1.6-6.8,9-12,17.9-12
				c1.1,0,2.2,0.1,3.3,0.3c-0.1-0.9-0.2-1.8-0.2-2.8c0-12.4,10.2-22.9,24.1-26.4c0-0.3,0-0.6,0-0.9c0-10.5,10.5-19,23.5-19
				c2.2,0,4.3,0.2,6.3,0.7c0-0.2,0-0.5,0-0.7c0-10.5,10.5-19,23.5-19s23.5,8.5,23.5,19c0,0.3,0,0.6,0,0.9c9.4,2.5,16.3,9.6,16.3,18
				c0,0.3,0,0.6,0,0.9c12.2,3,21.4,11.3,23.6,21.6c0.2,0,0.3,0,0.5,0c6.1,0,11.1,3.9,11.3,8.9c4.9,2,8.4,5.7,9.6,10.1l0.5,0.2
				c1.4-0.5,3-0.8,4.7-0.8c6.3,0,11.3,4.1,11.3,9.2h93.7"/>
		</g>
		<path id="XMLID_96_" class="st0" d="M580.1,75c0-4.4-4.4-8-9.9-8c-3.3,0-6.2,1.3-8,3.3c-2-3.1-6-5.2-10.6-5.2
			c-0.8,0-1.6,0.1-2.4,0.2c-0.5-6.7-5.5-12.3-12.6-15.1c-0.2-4.3-4.6-7.7-9.9-7.7c-1.6,0-3,0.3-4.3,0.8c-1.9-1.9-4.8-3.2-8-3.2
			c-1.6,0-3.1,0.3-4.5,0.8c0.5-1,0.8-2.1,0.8-3.2c0-4.5-4.6-8.2-10.2-8.2c-1.2,0-2.3,0.2-3.3,0.4c-1.6-4.6-6.4-8.1-12.4-8.9
			c-0.8-3.8-4.9-6.7-9.8-6.7c-5.5,0-9.9,3.6-9.9,8c0,0.1,0,0.1,0,0.2c-3.5,1.6-6.1,4.3-7.2,7.4c-1-0.3-2.1-0.4-3.3-0.4
			c-5.6,0-10.2,3.7-10.2,8.2c0,1.1,0.3,2.2,0.8,3.2c-1.3-0.5-2.9-0.8-4.5-0.8c-5.6,0-10.2,3.7-10.2,8.2c0,0,0,0.1,0,0.1
			c-0.7-0.1-1.4-0.1-2.2-0.1c-11.9,0-21.7,7.5-22.5,17c-0.8-0.1-1.6-0.2-2.4-0.2c-6.6,0-11.9,4.3-11.9,9.6"/>
		<path id="XMLID_97_" class="st0" d="M51,46.3c0-3-3-5.4-6.7-5.4c-2.2,0-4.2,0.9-5.4,2.2c-1.3-2.1-4-3.5-7.1-3.5
			c-0.6,0-1.1,0-1.6,0.1c-0.4-4.5-3.7-8.3-8.5-10.2c-0.1-2.9-3.1-5.2-6.7-5.2c-1,0-2,0.2-2.9,0.5c-1.3-1.3-3.2-2.1-5.4-2.1
			c-1.1,0-2.1,0.2-3,0.6C4,22.7,4.2,22,4.2,21.2c0-3.1-3.1-5.5-6.9-5.5c-0.8,0-1.5,0.1-2.2,0.3c-1.1-3.1-4.3-5.5-8.4-6
			c-0.5-2.6-3.3-4.5-6.6-4.5c-3.7,0-6.7,2.4-6.7,5.4c0,0.1,0,0.1,0,0.2c-2.3,1.1-4.1,2.9-4.9,5c-0.7-0.2-1.4-0.3-2.2-0.3
			c-3.8,0-6.9,2.5-6.9,5.5c0,0.8,0.2,1.5,0.5,2.1c-0.9-0.4-1.9-0.6-3-0.6c-3.8,0-6.9,2.5-6.9,5.5c0,0,0,0,0,0.1
			c-0.5,0-1-0.1-1.5-0.1c-8,0-14.6,5.1-15.2,11.4c-0.5-0.1-1.1-0.1-1.6-0.1c-4.4,0-8,2.9-8,6.5"/>
		<path id="XMLID_98_" class="st0" d="M843.5,25.9c0-3-3-5.4-6.7-5.4c-2.2,0-4.2,0.9-5.4,2.2c-1.3-2.1-4-3.5-7.1-3.5
			c-0.6,0-1.1,0-1.6,0.1c-0.4-4.5-3.7-8.3-8.5-10.2c-0.1-2.9-3.1-5.2-6.7-5.2c-1,0-2,0.2-2.9,0.5c-1.3-1.3-3.2-2.1-5.4-2.1
			c-1.1,0-2.1,0.2-3,0.6c0.3-0.7,0.5-1.4,0.5-2.1c0-3.1-3.1-5.5-6.9-5.5c-0.8,0-1.5,0.1-2.2,0.3c-1.1-3.1-4.3-5.5-8.4-6
			c-0.5-2.6-3.3-4.5-6.6-4.5c-3.7,0-6.7,2.4-6.7,5.4c0,0.1,0,0.1,0,0.2c-2.3,1.1-4.1,2.9-4.9,5c-0.7-0.2-1.4-0.3-2.2-0.3
			c-3.8,0-6.9,2.5-6.9,5.5c0,0.8,0.2,1.5,0.5,2.1c-0.9-0.4-1.9-0.6-3-0.6c-3.8,0-6.9,2.5-6.9,5.5c0,0,0,0,0,0.1
			c-0.5,0-1-0.1-1.5-0.1c-8,0-14.6,5.1-15.2,11.4c-0.5-0.1-1.1-0.1-1.6-0.1c-4.4,0-8,2.9-8,6.5"/>
		<line id="XMLID_1_" class="st1" x1="307.1" y1="9.7" x2="290.1" y2="9.7"/>
	</g>
	<g id="Workspace4">
		<g>
			<g>
				<g>
					<g>
						<rect x="236.1" y="47.5" class="st2" width="105.4" height="99.7"/>
						<path class="st3" d="M342.8,148.4h-108V46.3h107.9L342.8,148.4L342.8,148.4z M237.3,146h102.9V48.8H237.3V146z"/>
					</g>
					<g>
						<path class="st2" d="M342.4,148.4H235.2V46.3h107.1v102.1H342.4z M236.9,146h103.7V48.8H236.9V146z"/>
						<path class="st3" d="M343.6,149.7H234V45h109.6V149.7z M238.1,144.7h101.2V50H238.1V144.7z M236.5,47.5h104.7H236.5z"/>
					</g>
				</g>
				<g class="st4">
					<path class="st5" d="M276.6,99.6h-9.5v13.9c0,0.7-0.2,1.2-0.7,1.7s-1.1,0.7-1.7,0.7s-1.2-0.2-1.7-0.7s-0.7-1.1-0.7-1.7V80.8
						c0-0.7,0.2-1.2,0.7-1.7s1.1-0.7,1.7-0.7h12c3,0,5.5,1.1,7.6,3.2s3.2,4.6,3.2,7.6s-1.1,5.5-3.2,7.6
						C282.1,98.6,279.5,99.6,276.6,99.6z M276.6,83.2h-9.5v11.3h9.5c1.6,0,2.9-0.6,4-1.7s1.7-2.4,1.7-4s-0.6-2.9-1.7-4
						C279.5,83.8,278.1,83.2,276.6,83.2z"/>
					<path class="st5" d="M297.3,113.5c0,0.7-0.2,1.2-0.7,1.7s-1.1,0.7-1.7,0.7s-1.2-0.2-1.7-0.7s-0.7-1.1-0.7-1.7V80.8
						c0-0.7,0.2-1.2,0.7-1.7s1.1-0.7,1.7-0.7H315c0.7,0,1.2,0.2,1.7,0.7s0.7,1.1,0.7,1.7s-0.2,1.2-0.7,1.7s-1.1,0.7-1.7,0.7h-17.6
						v11.3h15.1c0.7,0,1.2,0.2,1.7,0.7s0.7,1.1,0.7,1.7c0,0.7-0.2,1.2-0.7,1.7s-1.1,0.7-1.7,0.7h-15.1L297.3,113.5L297.3,113.5z"/>
				</g>
			</g>
			<circle class="st3" cx="288.8" cy="9.7" r="4.2"/>
			<g>
				
					<rect x="274.7" y="5.5" transform="matrix(0.8118 0.5839 -0.5839 0.8118 68.0038 -155.9701)" class="st3" width="2.5" height="44"/>
			</g>
			<g>
				
					<rect x="278.9" y="26.2" transform="matrix(0.5837 0.812 -0.812 0.5837 147.5248 -232.8927)" class="st3" width="44" height="2.5"/>
			</g>
		</g>
		<g>
			<ellipse class="st6" cx="446.1" cy="331.5" rx="249" ry="19"/>
			<ellipse class="st7" cx="446.8" cy="329" rx="249" ry="19"/>
		</g>
		<g>
			<g id="XMLID_213_">
				<rect id="XMLID_152_" x="642.4" y="215.8" class="st8" width="84" height="50.2"/>
				<g id="XMLID_199_">
					<line id="XMLID_203_" class="st9" x1="651.1" y1="213.2" x2="651.1" y2="218.3"/>
					<line id="XMLID_204_" class="st9" x1="659.4" y1="213.2" x2="659.4" y2="218.3"/>
					<line id="XMLID_205_" class="st9" x1="667.8" y1="213.2" x2="667.8" y2="218.3"/>
					<line id="XMLID_206_" class="st9" x1="676.1" y1="213.2" x2="676.1" y2="218.3"/>
					<line id="XMLID_207_" class="st9" x1="684.5" y1="213.2" x2="684.5" y2="218.3"/>
					<line id="XMLID_208_" class="st9" x1="692.8" y1="213.2" x2="692.8" y2="218.3"/>
					<line id="XMLID_209_" class="st9" x1="701.2" y1="213.2" x2="701.2" y2="218.3"/>
					<line id="XMLID_210_" class="st9" x1="709.5" y1="213.2" x2="709.5" y2="218.3"/>
					<line id="XMLID_211_" class="st9" x1="717.8" y1="213.2" x2="717.8" y2="218.3"/>
				</g>
				<g>
					<path class="st10" d="M648.7,245.9l1.6-1.9c0.6,0.7,1.1,1.1,1.8,1.1c0.9,0,1.3-0.5,1.3-1.5V239h-3.6v-2.3h6.6v6.6
						c0,2.7-1.4,4.1-4,4.1C650.9,247.5,649.6,246.9,648.7,245.9z"/>
					<path class="st10" d="M665.3,245.2h-4.4l-0.8,2h-3l4.6-10.5h2.9l4.6,10.5h-3.1L665.3,245.2z M664.4,243l-1.3-3.4l-1.4,3.4
						H664.4z"/>
					<path class="st10" d="M680,236.7v10.5h-2.4l-4.6-5.6v5.6H670v-10.5h2.4l4.6,5.6v-5.6H680z"/>
					<path class="st10" d="M690.5,244.9v2.3h-8.4v-10.5h8.2v2.3H685v1.8h4.7v2.2H685v1.9H690.5z"/>
					<path class="st10" d="M692.2,236.7h3v10.5h-3V236.7z"/>
					<path class="st10" d="M701.9,244.5h-1.6v2.8h-3v-10.5h4.8c2.9,0,4.7,1.5,4.7,3.9c0,1.5-0.8,2.7-2.1,3.3l2.3,3.3h-3.2
						L701.9,244.5z M701.9,239.1h-1.7v3.1h1.7c1.2,0,1.8-0.6,1.8-1.5C703.7,239.7,703.1,239.1,701.9,239.1z"/>
					<path class="st10" d="M707.8,242c0-3.1,2.5-5.5,5.8-5.5c3.4,0,5.8,2.3,5.8,5.5c0,3.2-2.5,5.5-5.8,5.5
						C710.3,247.5,707.8,245.1,707.8,242z M716.5,242c0-1.8-1.2-3-2.8-3s-2.8,1.2-2.8,3c0,1.8,1.2,3,2.8,3S716.5,243.8,716.5,242z"
						/>
				</g>
				<polygon id="XMLID_214_" class="st11" points="726.5,221.5 738.3,266 726.5,266 				"/>
			</g>
		</g>
		<g>
			<g>
				<g>
					<polygon class="st12" points="237.7,332.8 222.8,332.8 220.3,277.9 240.2,277.9 					"/>
					<path class="st3" d="M239,334h-17.4l-2.6-57.3h22.5L239,334z M224,331.5h12.5l2.4-52.3h-17.4L224,331.5z"/>
				</g>
				<polygon class="st3" points="220.3,280.4 221.3,302 239.2,302 240.2,280.4 				"/>
			</g>
			<g>
				<g>
					<polygon class="st12" points="675.4,332.8 660.5,332.8 658,277.9 677.9,277.9 					"/>
					<path class="st3" d="M676.7,334h-17.4l-2.6-57.3h22.5L676.7,334z M661.7,331.5h12.5l2.4-52.3h-17.4L661.7,331.5z"/>
				</g>
				<polygon class="st3" points="658,280.4 659,302 676.9,302 677.9,280.4 				"/>
			</g>
			<g>
				<rect x="141.8" y="267.1" class="st12" width="614.6" height="21.6"/>
				<path class="st3" d="M757.7,290H140.5v-24.1h617.1V290H757.7z M143,287.5h612.1v-19.1H143V287.5z"/>
			</g>
		</g>
		<g>
			<path class="st13" d="M582.8,241.4c0,9.1-7.5,16.6-16.6,16.6H332c-9.1,0-16.6-7.5-16.6-16.6V101.8c0-9.1,7.5-16.6,16.6-16.6
				h234.2c9.1,0,16.6,7.5,16.6,16.6V241.4z"/>
			<path class="st3" d="M566.2,259.2H332c-9.9,0-17.9-8-17.9-17.9V101.8c0-9.9,8-17.9,17.9-17.9h234.2c9.9,0,17.9,8,17.9,17.9v139.5
				C584.1,251.3,576.1,259.2,566.2,259.2z M332,86.5c-8.5,0-15.4,6.9-15.4,15.4v139.5c0,8.5,6.9,15.4,15.4,15.4h234.2
				c8.5,0,15.4-6.9,15.4-15.4V101.8c0-8.5-6.9-15.4-15.4-15.4H332V86.5z"/>
		</g>
		
			<linearGradient id="SVGID_1_" gradientUnits="userSpaceOnUse" x1="354.05" y1="-237.65" x2="544.15" y2="-427.75" gradientTransform="matrix(1 0 0 1 0 502)">
			<stop  offset="0" style="stop-color:#69CEF4"/>
			<stop  offset="1" style="stop-color:#7379BA"/>
		</linearGradient>
		<rect x="327" y="101.3" class="st14" width="244.2" height="136"/>
		
			<linearGradient id="SVGID_2_" gradientUnits="userSpaceOnUse" x1="429.0446" y1="-431.8982" x2="469.1554" y2="-300.7018" gradientTransform="matrix(1 0 0 1 0 502)">
			<stop  offset="5.911330e-002" style="stop-color:#0041BF"/>
			<stop  offset="0.4448" style="stop-color:#2758D2"/>
			<stop  offset="1" style="stop-color:#657CF0"/>
		</linearGradient>
		<rect x="327" y="101.3" class="st15" width="244.2" height="68.8"/>
		
			<linearGradient id="SVGID_3_" gradientUnits="userSpaceOnUse" x1="314.175" y1="-277.525" x2="424.525" y2="-387.875" gradientTransform="matrix(1 0 0 1 0 502)">
			<stop  offset="0" style="stop-color:#CDD0E0"/>
			<stop  offset="1" style="stop-color:#65B5F0"/>
		</linearGradient>
		<rect x="327" y="101.3" class="st16" width="84.7" height="136"/>
		<g>
			<g>
				<polygon class="st12" points="617.6,262.2 601.8,266.3 296.1,266.3 280.3,262.2 280.3,252.2 617.6,252.2 				"/>
				<path class="st3" d="M601.9,267.6H295.7l-16.7-4.4V251h339.7v12.2L601.9,267.6z M296.2,265.1h305.3l14.7-3.9v-7.7H281.5v7.7
					L296.2,265.1z"/>
			</g>
			<polygon class="st3" points="281.2,261.3 296.1,266.3 601.8,266.3 618,261.3 			"/>
		</g>
		<path class="st3" d="M476.7,254c0,1.2-0.5,2.3-1.2,2.3h-52.8c-0.7,0-1.2-1-1.2-2.3l0,0c0-1.2,0.5-2.3,1.2-2.3h52.8
			C476.2,251.7,476.7,252.7,476.7,254L476.7,254z"/>
		<g>
			<path class="st17" d="M572.5,238.5H325.8V100h246.7V238.5z M328.3,236H570V102.5H328.3V236z"/>
		</g>
		<rect x="340.4" y="116.8" class="st12" width="58.1" height="5"/>
		<rect x="340.4" y="125.1" class="st3" width="29.1" height="5"/>
		<rect x="423" y="179.1" class="st3" width="136.6" height="5"/>
		<rect x="423" y="187.4" class="st3" width="109.2" height="5"/>
		<rect x="423" y="195.7" class="st3" width="72.7" height="5"/>
		<rect x="423" y="204" class="st3" width="109.2" height="5"/>
		<g>
			<path class="st12" d="M447.5,149.5c0.2,0.2-0.4-0.6-1.2-1.7c-1.1,0.2-2.2,0.4-3.2,0.4c-6.8,0-12.3-5.6-12.3-12.3
				c0-6.8,5.6-12.3,12.3-12.3c6.8,0,12.3,5.6,12.3,12.3c0,2.6-0.7,4.9-2.1,6.9c0.5,0.7,0.8,1.1,0.7,0.9c0.7,0.8,1.2,1.7,1.8,2.5
				c2.2-2.8,3.7-6.4,3.7-10.3c0-9.1-7.4-16.4-16.4-16.4s-16.4,7.4-16.4,16.4s7.4,16.4,16.4,16.4c2,0,4-0.4,5.7-1.1
				C448.4,150.7,448,150.1,447.5,149.5z"/>
		</g>
		<g>
			<path class="st3" d="M503.5,134.9c0,0.3,0.1,0.7,0.1,1c0,6.8-5.6,12.3-12.3,12.3c-6.7,0-12.3-5.6-12.3-12.3
				c0-6.6,5.3-12.1,12-12.3c0-1.2,0-2.7,0-4.2c-8.9,0.2-16.1,7.5-16.1,16.4c0,9.1,7.4,16.4,16.4,16.4c9.1,0,16.4-7.4,16.4-16.4
				c0-0.3,0-0.7,0-0.9C506.3,134.9,504.9,134.9,503.5,134.9z"/>
		</g>
		<g>
			<path class="st12" d="M539.5,119.5c-9.1,0-16.4,7.4-16.4,16.4c0,8.4,6.3,15.4,14.5,16.4c0-1.5,0-2.9,0.1-4.2
				c-5.9-0.9-10.4-6-10.4-12.1c0-6.8,5.6-12.3,12.3-12.3c6.8,0,12.3,5.6,12.3,12.3c0,5.7-4,10.6-9.4,12c0,1,0,2,0,3
				c0,0.4,0,0.8,0,1.2c7.6-1.4,13.5-8.1,13.5-16.2C555.9,126.8,548.5,119.5,539.5,119.5z"/>
		</g>
		<g>
			<g>
				<g>
					<rect x="157.1" y="138.1" class="st18" width="113.4" height="128.3"/>
					<path class="st3" d="M271.7,267.6H155.8V136.8h115.9V267.6L271.7,267.6z M158.3,265.1h110.9V139.3H158.3V265.1z"/>
				</g>
				<g>
					<rect x="172.2" y="150.9" class="st12" width="83.2" height="102.7"/>
					<path class="st3" d="M256.7,254.8H171V149.7h85.7V254.8L256.7,254.8z M173.4,252.3h80.7V152.2h-80.7V252.3z"/>
				</g>
				<rect x="180.5" y="161.2" class="st3" width="66.6" height="82.1"/>
			</g>
			<path class="st12" d="M213.8,226.3l0.3-0.6l20.8-27.2l-0.2-0.2l0.1-0.1h-0.2l-8.3-12.3l-12.8-1.8l-12.3,1.8l-8.3,12.3h-0.1v0.1
				l-0.2,0.2l20.8,27.2L213.8,226.3z M204.9,187.6l6-0.7l-7,8.1L204.9,187.6z M213.7,187.5l9.1,10.7h-18.3L213.7,187.5z
				 M223.8,195.4l-7.2-8.5l6.2,0.7L223.8,195.4z M223.5,200.7l-9.6,19.9l-9.6-19.9H223.5z M219.8,214l6.5-13.3h3.6L219.8,214z
				 M231.7,198.2h-4.2h-0.8l-1.2-9.1L231.7,198.2z M202.3,188.8l-1.2,9.4h-0.9H196L202.3,188.8z M197.9,200.7h3.6L208,214
				L197.9,200.7z"/>
		</g>
		<g>
			<g>
				<polygon class="st2" points="588.6,265.7 535,265.7 543,253.7 580.7,253.7 				"/>
				<path class="st3" d="M591,267h-58.3l9.6-14.5h39L591,267z M537.3,264.5h49L580,255h-36.3L537.3,264.5z"/>
			</g>
			<g>
				<path class="st3" d="M591,267h-58.3l9.6-14.5h39L591,267z M537.3,264.5h49L580,255h-36.3L537.3,264.5z"/>
			</g>
			<path class="st12" d="M599.9,220c0-3.2-0.4-6.5-1.2-9.5h-75.3c-0.7,3.1-1.2,6.2-1.2,9.5c0,14.4,7.8,26.9,19.4,33.6h38.7
				C592.1,247,599.9,234.5,599.9,220z"/>
			<g>
				<path class="st12" d="M599.8,223.4c0.1-1.1,0.2-2.2,0.2-3.3c0-3.2-0.4-6.5-1.2-9.5h-75.3c-0.7,3.1-1.2,6.2-1.2,9.5
					c0,1.2,0.1,2.3,0.2,3.5C543,223.4,574.4,223.3,599.8,223.4z"/>
				<path class="st3" d="M521.4,224.8l-0.1-1.2c-0.1-1.3-0.2-2.5-0.2-3.6c0-3.3,0.4-6.6,1.2-9.8l0.2-0.9h77.2l0.2,0.9
					c0.8,3.2,1.2,6.5,1.2,9.8c0,1.1-0.1,2.2-0.2,3.4l-0.1,1.2h-1.2c-8.9,0-18.7-0.1-28.6-0.1c-18.6,0-35.9,0.1-48.7,0.2L521.4,224.8
					z M524.5,211.8c-0.6,2.7-0.9,5.5-0.9,8.2c0,0.7,0,1.4,0.1,2.2c12.7-0.1,29.5-0.2,47.6-0.2c9.4,0,18.9,0,27.4,0.1
					c0.1-0.7,0.1-1.4,0.1-2.1c0-2.7-0.3-5.6-0.9-8.2H524.5L524.5,211.8z"/>
			</g>
			<g>
				<path class="st3" d="M580.8,254.9h-39.4l-0.2-0.2c-12.4-7.1-20.1-20.4-20.1-34.7c0-3.3,0.4-6.6,1.2-9.8l0.2-0.9h77.2l0.2,0.9
					c0.8,3.2,1.2,6.5,1.2,9.8c0,14.3-7.7,27.6-20.1,34.7L580.8,254.9z M542.1,252.4h38c11.5-6.7,18.5-19.1,18.5-32.4
					c0-2.7-0.3-5.6-0.9-8.2h-73.3c-0.6,2.7-0.9,5.5-0.9,8.2C523.6,233.3,530.7,245.7,542.1,252.4z"/>
			</g>
			<g>
				<path class="st3" d="M593.5,254.6c-3.1-2.5-4.4-4.9-4.2-7.3c0.4-4.6,6.2-7.9,13-11.7c4.1-2.3,8.3-4.7,11.6-7.5
					c2.9-2.5,4.2-5.5,3.4-8.5c-0.7-2.9-3.1-5.1-6.1-5.8c-2.2-0.5-6.4-0.4-10.7,5l-2-1.6c3.7-4.7,8.6-6.9,13.2-5.9
					c3.9,0.8,7.1,3.8,8,7.6c1,3.9-0.6,7.9-4.2,11c-3.6,3-7.9,5.4-12,7.8c-5.9,3.3-11.5,6.5-11.8,9.8c-0.2,1.6,1,3.3,3.3,5.2
					L593.5,254.6z"/>
			</g>
		</g>
		<rect x="434" y="156.1" class="st12" width="22" height="5"/>
		<rect x="480.3" y="156.1" class="st3" width="22" height="5"/>
		<rect x="529.3" y="156.1" class="st12" width="22" height="5"/>
	</g>
	<g>
		<path class="st19" d="M331.2,313.8c-8.5,0.7-14.9-3.1-23.1-4.1c-8.2-1-18.1,2.6-23.4,9.1c-5.1,6.3-0.9,14.6,5.1,18.6
			c4,2.6,9,3.3,13.7,3.2c5.6-0.1,10.7-0.6,15.9-2.4c5.4-1.9,12.1-1.3,17.8-1.3L331.2,313.8z"/>
		<g>
			<path class="st19" d="M357.7,300.4c0.4-2.1,2.8-4.1,4.5-5.1c1.7-0.9,4.6-2.5,6.5-2.7c0.7,2,1.4,4.1,1.9,6.3
				c0.3,1.3,0.8,2.8,0.9,4.2c0.1,1.8-0.7,3-1.2,4.6L357.7,300.4z"/>
			<path class="st19" d="M338,300.1c-1.3-0.4-2.2-2-3.4-2.7c-2.3-1.4-5.5-3.3-8.2-3.6c-2.5-0.3-2.7,3.3-3.1,5.4
				c-0.6,3.2-1.7,7.3-0.1,10.3L338,300.1z"/>
			<path class="st20" d="M374.3,323.7c1.2,0.7,2.7,0.3,4,1.3c-1.3,2.7-3.6,5.3-5.9,7.2c-0.3,0.3-0.6,0.5-0.9,0.8
				c-10.5,8.4-24.6,6.4-37,4.6c-4.9-0.7-9-1.9-12.7-4.6c-1.5-1.1-2.9-2.4-4.2-4c-0.8-0.9-2-2.2-1.5-3.3c0.4-0.7,2.1-1.5,2.8-1.7
				c-0.8-0.5-1.7-0.9-2.5-1.6c0.7-1.3,2.1-2.9,3.2-3.9c-1.3,0.3-2.8,0.2-4.1,0.5c1.8-7.4,7-13.7,13.1-17.6c3-1.9,6.6-3.6,10.1-4
				c1.4-0.2,2.9-0.3,4.4-0.5c2.4-0.2,4.8-0.3,7.1-0.1c1.2,0.1,2.4,0.3,3.5,0.6c5.3,1.3,10.4,4.2,14.4,8c2.3,2.2,4.1,4.7,6.1,7.1
				c1.4,1.7,3.5,3.2,4.5,5.2c-1.3,0.7-2.8,1.3-4.1,1.9c1.2,0.4,3.8-0.4,4.4,1.2C377.5,321.5,375.3,322.3,374.3,323.7z"/>
			<path class="st21" d="M372.3,332.2c-0.3,0.3-0.6,0.5-0.9,0.8c-10.5,8.4-24.6,6.4-37,4.6c-4.9-0.7-9-1.9-12.7-4.6
				c1.6-1.6,5.5-3.4,6.4-4c6.6-4.3,12.3-8.5,14.6-16.8c1.2-4.1,1.4-8.1,0.9-12.4c-0.1-0.9-0.4-1.9-0.6-2.8c2.4-0.2,4.8-0.3,7.1-0.1
				c-0.2,1.4-0.2,2.9-0.3,4.1c-0.1,3,0.3,5.7,1.2,8.6c1.6,4.6,4.3,8.9,7.5,12.4c2.7,3.1,6,6.1,9.5,8.1
				C369.4,330.6,371,331.3,372.3,332.2z"/>
			<path class="st22" d="M348.6,313.1c-0.4-0.7-1.1-0.8-1.8-0.7c-0.5,0.1-1,0.6-1.3,1.1c-0.3,0.6-0.2,1.3,0.2,1.8
				c0.4,0.4,1.2,0.6,1.6,0.2c0.2-0.1,0.4-0.3,0.6-0.4c-0.1,0-0.2,0.1-0.3,0.1c0,0,0.1,0,0.1,0c0.3-0.1,0.4-0.2,0.6-0.4
				C348.9,314.4,348.9,313.6,348.6,313.1L348.6,313.1z"/>
			<path class="st22" d="M343.9,320.4c0.9,1,2.4-0.2,2.9-1.1c0.7-1.2,1-3.1,0.6-4.4c-0.2-0.5-1-0.5-0.9,0.1c0.1,1.1,0.1,2.1-0.2,3.1
				c-0.2,0.5-0.5,1.1-0.9,1.4c-0.4,0.3-1,0.2-1.4,0.5C343.8,320,343.8,320.3,343.9,320.4L343.9,320.4z"/>
			<path class="st22" d="M349.7,320.2c-0.7-0.6-1.3-1-1.6-1.9c-0.4-1-0.3-2-0.5-3c-0.1-0.8-1.1-0.5-1.2,0.2
				c-0.1,1.6,0.9,6.3,3.2,5.1C349.8,320.5,349.8,320.3,349.7,320.2L349.7,320.2z"/>
			<path class="st22" d="M364.3,312.6c0,0.1-0.1,0.3,0,0.4c0,0.1,0,0.3,0,0.4c0,0.4,0.1,0.8,0.4,1.1c0.2,0.3,0.8,0.3,1,0
				c0.3-0.4,0.4-0.8,0.3-1.3c0-0.1,0-0.3-0.1-0.4c-0.1-0.2-0.2-0.4-0.3-0.5C365.2,311.6,364.3,311.8,364.3,312.6L364.3,312.6z"/>
			<path class="st22" d="M330.6,310.3C330.5,310.3,330.5,310.3,330.6,310.3c0,0,0.1-0.1,0.2-0.3c-0.6,0.6-0.5,1.8-0.2,2.4
				c0.2,0.4,0.6,0.6,1,0.5c0.4-0.1,0.6-0.5,0.7-0.9c0,0.1,0,0.1,0-0.2c0-0.1,0-0.3,0-0.4c0-0.1,0-0.3-0.1-0.4
				c-0.1-0.3-0.2-0.7-0.4-0.9c0.1,0.1,0.1,0.2,0.2,0.3c0,0,0-0.1,0-0.1C331.7,309.6,330.8,309.6,330.6,310.3L330.6,310.3z"/>
			<path class="st22" d="M370.4,320.9c1,0,2,0.3,3,0.6c0.7,0.3,1.5,1,2.3,0.6c0.1,0,0.2-0.2,0.2-0.3c-0.1-0.9-1-1.2-1.7-1.5
				c-1.2-0.5-2.4-0.6-3.7-0.4C369.7,319.9,369.7,320.9,370.4,320.9L370.4,320.9z"/>
			<path class="st22" d="M370.9,323.3c0.8,0.3,1.6,0.5,2.5,0.7c0.8,0.2,1.6,0.8,2.4,0.6c0.3-0.1,0.3-0.4,0.2-0.6
				c-0.4-0.8-1.3-0.9-2-1.1c-0.9-0.3-1.9-0.4-2.8-0.7C370.5,321.9,370.2,323.1,370.9,323.3L370.9,323.3z"/>
			<path class="st22" d="M325.1,317.4c-1.7,0-4.1,0-5.6,1.2c-0.2,0.2-0.2,0.6,0.1,0.7c0.8,0.3,1.5,0.2,2.4,0c1-0.2,2.1-0.4,3.1-0.4
				C326,318.8,326,317.4,325.1,317.4L325.1,317.4z"/>
			<path class="st22" d="M324.4,320.9c-1.6,0.1-3.7,0-5,1.1c-0.4,0.3-0.3,0.9,0.2,1c1.6,0.1,3.3-0.8,4.9-1.2
				C324.9,321.6,324.8,320.9,324.4,320.9L324.4,320.9z"/>
		</g>
		<path class="st19" d="M345.3,337.6c-4-0.8-18.3-3.8-20.4,1.4c-0.8,2,1.2,3.5,2.8,4.2c4.3,1.8,10.5,1.3,15.1,1
			c1.9-0.1,10.2-1.6,8.1-4.9C350.1,338,346.7,337.9,345.3,337.6z"/>
		<path class="st20" d="M351.5,345.8c-2.3,0.2-9.4,1.4-10.8-1.2c-1.3-2.4,3.2-3.3,4.8-3.8c4-1.3,7.5-4,11.7-4.9
			c3.8-0.7,9.6,0.8,7.3,5.8C362.6,345.6,355.3,345.4,351.5,345.8z"/>
		<path class="st22" d="M283.7,321.1c-3.4,1.2-3.5,7.7-3.3,10.4c0.3,3.8,2.6,7.7,6.1,9.8c5.4,3.3,12.3,3.6,18.6,3.9
			c5.6,0.2,11.7,0.5,16.9-1c3.6-1,11.5-6,4.5-8.8c-3.7-1.5-9,2.2-12.7,2.6c-4.7,0.6-9.5,0.9-14.1-0.1c-8.1-1.8-16.6-6.2-15.8-14.5
			V321.1z"/>
	</g>
</g>
</svg>
