<?xml version="1.0" encoding="utf-8"?>
<!-- Generator: Adobe Illustrator 19.0.0, SVG Export Plug-In . SVG Version: 6.00 Build 0)  -->
<svg version="1.1" id="Camada_1" xmlns="http://www.w3.org/2000/svg" xmlns:xlink="http://www.w3.org/1999/xlink" x="0px" y="0px"
	 viewBox="-77 166 345 170" style="enable-background:new -77 166 345 170;" xml:space="preserve">
<style type="text/css">
	.st0{clip-path:url(#SVGID_2_);}
	.st1{fill:#494F97;}
	.st2{fill:#5D67A5;}
	.st3{fill:#EBEAEA;}
	.st4{fill:#6B74A4;}
	.st5{fill:#FFFFFF;}
</style>
<g id="XMLID_62_">
	<g>
		<defs>
			<rect id="SVGID_1_" x="-79" y="164" width="349" height="172"/>
		</defs>
		<clipPath id="SVGID_2_">
			<use xlink:href="#SVGID_1_"  style="overflow:visible;"/>
		</clipPath>
		<g id="XMLID_60_" class="st0">
			<rect id="XMLID_1_" x="-79" y="164" class="st1" width="349" height="172"/>
			<ellipse class="st2" cx="88.7" cy="308.6" rx="13.4" ry="5.2"/>
			<g id="XMLID_16_">
				<path id="XMLID_18_" class="st3" d="M139.5,229.9L139.5,229.9v-0.2v-0.1l0,0c0-0.1,0-0.1,0-0.1v-0.1v-0.1l0,0c0,0,0-0.1-0.1-0.1
					l0,0l-0.1-0.1l-0.1-0.1l-19.3-15c0,0-0.1,0-0.1-0.1h-0.1l-13.6-5.9c-0.1,0-0.2-0.1-0.3-0.1H70.5c-0.1,0-0.2,0-0.3,0.1l-13.6,5.9
					l-0.4-0.7l0,0l0.4,0.7c0,0-0.1,0-0.1,0.1h-0.1l-19.3,15c0,0,0,0-0.1,0.1c0,0-0.1,0-0.1,0.1l0,0c0,0,0,0.1-0.1,0.1v0.1v0.1l0,0
					c0,0.1,0,0.1,0,0.1l0,0v0.1v0.1v0.1l-0.7,0.4l0,0l0.7-0.4l0,0L87,308.4c0.2,0.3,0.5,0.4,0.7,0.4h0.1H88h0.1h0.2h0.1l0,0l0,0h0.1
					h0.1h0.1c0,0,0,0,0.1,0c0,0,0,0,0.1,0H89c0,0,0,0,0.1-0.1l0.1-0.1l50.2-78.6L139.5,229.9z M70.7,209.3h35l12.1,5.2l-12.1,7.1
					l-17.4,0.5l-17.4-0.5l-12.1-7.1L70.7,209.3z M85.8,223.8l2.4-0.1l2.4,0.1l7.1,22.6h-19L85.8,223.8z M77.1,246.2l-20.6-5.7
					l14.4-17.2l13.3,0.4L77.1,246.2z M92.1,223.6l13.3-0.4l14.4,17.2l-20.6,5.7L92.1,223.6z M56.9,215.4l12.4,7.3l-14.4,17.2
					l-16-10.4L56.9,215.4z M83.6,300.2l-43.4-68l14.3,9.3l0.1,0.2l22.3,44.9L83.6,300.2z M56.5,242.2l20.4,5.6l9.7,55L56.5,242.2z
					 M88.1,302.7L78.5,248h19.2L88.1,302.7z M99.4,247.8l20.4-5.6l-30,60.6L99.4,247.8z M92.5,300.1l7.8-15l21.6-43.6l14.3-9.3
					L92.5,300.1z M121.4,239.9L107,222.7l12.4-7.3l18.1,14.1L121.4,239.9z"/>
				<path id="XMLID_2_" class="st3" d="M88.4,308.8l0.2,0.8l0,0L88.4,308.8C88.5,308.8,88.4,308.8,88.4,308.8z"/>
			</g>
			<g id="XMLID_15_">
				<polygon id="XMLID_28_" class="st3" points="47,218 44,217.5 42.5,220.2 42.9,217.2 40.1,215.5 43.3,216.1 44.8,213.6 
					44.3,216.5 				"/>
				<path id="XMLID_27_" class="st3" d="M50.1,208.2c-0.3,0.1-0.8,0.2-1.5,0.4c-0.1,0.3-0.1,0.9-0.2,1.8c-0.1,0-0.1,0-0.2,0
					c-0.3-0.4-0.7-0.8-1.1-1.3c-0.5,0.1-1.1,0.3-1.8,0.3c0,0,0-0.1,0-0.2c0-0.1,0.2-0.4,0.5-0.6c0.3-0.3,0.4-0.5,0.5-0.6
					c0-0.1-0.1-0.4-0.4-0.8c-0.3-0.5-0.5-0.8-0.5-0.9c0.5,0.2,1.1,0.3,1.9,0.3c0.2-0.3,0.6-0.7,1.1-1.3l0.1,0.1c0,0.4,0,1,0.2,1.8
					c0.3,0.1,0.8,0.3,1.5,0.7L50.1,208.2z"/>
				<polygon id="XMLID_25_" class="st3" points="61.1,210.6 58,210.1 56.5,212.7 56.9,209.7 54.2,208.1 57.3,208.6 58.8,206.1 
					58.3,209 				"/>
				<path id="XMLID_23_" class="st3" d="M68.2,206.1c-0.3,0.1-0.8,0.2-1.5,0.4c-0.1,0.3-0.1,0.9-0.2,1.8c-0.1,0-0.1,0-0.2,0
					c-0.3-0.4-0.7-0.8-1.1-1.3c-0.5,0.1-1.1,0.3-1.8,0.3c0,0,0-0.1,0-0.2c0-0.1,0.2-0.4,0.5-0.6c0.3-0.3,0.4-0.5,0.5-0.6
					c0-0.1-0.1-0.4-0.4-0.8c-0.3-0.5-0.5-0.8-0.5-0.9c0.5,0.2,1.1,0.3,1.9,0.3c0.2-0.3,0.6-0.7,1.1-1.3l0.1,0.1c0,0.4,0,1,0.2,1.8
					c0.3,0.1,0.8,0.3,1.5,0.7L68.2,206.1z"/>
			</g>
			<g id="XMLID_43_">
				<polygon id="XMLID_47_" class="st3" points="117.2,210.5 116.2,207.6 113.1,207.6 116,206.4 116.1,203.2 117.1,206.3 
					120.1,206.3 117.3,207.4 				"/>
				<path id="XMLID_46_" class="st3" d="M127.3,208.4c-0.2-0.3-0.6-0.6-1.1-1.1c-0.3,0.1-0.9,0.3-1.7,0.8c-0.1,0-0.1-0.1-0.1-0.1
					c0.2-0.4,0.4-1,0.6-1.6c-0.4-0.4-0.8-0.9-1.2-1.4c0,0,0.1,0,0.1-0.1c0.1,0,0.4,0,0.8,0.1c0.4,0.1,0.6,0.1,0.8,0.1
					c0.1,0,0.3-0.3,0.5-0.8s0.4-0.8,0.6-0.9c0,0.5,0.2,1.1,0.6,1.9c0.4,0,0.9,0.1,1.7,0.3v0.2c-0.4,0.2-0.9,0.5-1.5,1
					c0.1,0.3,0.1,0.8,0.1,1.6H127.3z"/>
				<polygon id="XMLID_45_" class="st3" points="130.6,219.1 129.5,216.2 126.5,216.2 129.3,215.1 129.4,211.9 130.4,214.9 
					133.4,215 130.6,216 				"/>
				<path id="XMLID_44_" class="st3" d="M137.9,223.2c-0.2-0.3-0.6-0.6-1.1-1.1c-0.3,0.1-0.9,0.3-1.7,0.8c-0.1,0-0.1-0.1-0.1-0.1
					c0.2-0.4,0.4-1,0.6-1.6c-0.4-0.4-0.8-0.9-1.2-1.4c0,0,0.1,0,0.1-0.1c0.1,0,0.4,0,0.8,0.1c0.4,0.1,0.6,0.1,0.8,0.1
					c0.1,0,0.3-0.3,0.5-0.8s0.4-0.8,0.6-0.9c0,0.5,0.2,1.1,0.6,1.9c0.4,0,0.9,0.1,1.7,0.3v0.2c-0.4,0.2-0.9,0.5-1.5,1
					c0.1,0.3,0.1,0.8,0.1,1.6H137.9z"/>
			</g>
			<path id="XMLID_48_" class="st3" d="M92.4,199.1c-0.1,0.1-0.7,0.5-1.9,1.3c0,0.2,0.3,1.1,0.8,2.7c-0.1,0.1-0.3,0.1-0.4,0.1
				c-0.6-0.4-1.4-0.9-2.2-1.4c-0.4,0.4-1.2,0.9-2.2,1.4c-0.1-0.1-0.2-0.2-0.2-0.3c0-0.2,0.1-0.6,0.3-1.1s0.3-0.9,0.3-1.1
				s-0.3-0.5-1-1c-0.6-0.4-1-0.8-1.1-1c0.1,0,0.6-0.1,1.4-0.1c0.8,0,1.4-0.3,1.6-0.9c0.2-0.6,0.5-1.2,0.7-1.9l0.3,0.1
				c0.2,0.7,0.5,1.5,1,2.5c-0.1,0,0.7,0.1,2.5,0.2L92.4,199.1L92.4,199.1z"/>
			<path id="XMLID_63_" class="st4" d="M410,331.3c-41-16.3-73.1-18.4-94-17.5c-42.2,1.8-52.6,16.3-91.7,14.5
				c-40.9-1.8-48-18.4-83.7-16.5c-31.2,1.7-33.1,14.7-64.4,15.5c-32.4,0.8-39.7-12.9-71.8-11.3c-29.7,1.5-31.3,13.6-56.4,12.6
				c-25.6-1.1-35.7-14.2-65.2-13.6c-9.3,0.2-16.9,1.7-21.9,2.9v41h549v-27.6H410z"/>
			<g id="XMLID_19_">
				<path id="XMLID_20_" class="st3" d="M248.1,180.2c0,2-0.6,3.7-1.8,5c-1.2,1.3-2.8,2.2-4.8,2.5c-0.8,0.1-2.1,0.2-3.9,0.2v5.1
					c0,0.8-0.3,1.4-0.9,1.9s-1.3,0.8-2.1,0.8c-0.8,0-1.4-0.3-2-0.8s-0.9-1.2-0.9-1.9v-17.8c0-0.6,0.2-1.1,0.7-1.7s1-0.9,1.6-1
					c0.4-0.1,1.4-0.1,3.2-0.1h1c0.1,0,0.3,0,0.6,0c0.2,0,0.3,0,0.4,0c2.3,0,4.2,0.5,5.8,1.5c0.8,0.5,1.5,1.2,2.1,2.2s1,1.9,1.1,2.8
					C248.1,179.3,248.1,179.7,248.1,180.2z M247.9,179.9c-0.6-0.4-1.6-1-2.9-1.8c0.6,0.2,1.5,0.5,2.7,0.9c-0.8-0.5-1.9-1.2-3.4-2.1
					c0.1,0,1.1,0.4,3.1,1.2c-0.1-0.1-0.2-0.3-0.4-0.4c-2.5-1.6-5.8-3.2-10.1-4.9c0.9,0.5,2.3,1.3,4.1,2.4c0,0-0.1,0-0.3,0
					c-1.2-0.5-3-1.3-5.4-2.3c0.9,0.5,2.2,1.3,3.8,2.3H239h-0.1c-1.1-0.5-2.6-1.1-4.5-2l-0.2,0.1c0.8,0.4,1.9,1.1,3.3,1.9h-0.1l0,0
					c-1.4-0.6-2.7-1.2-4.1-1.7c0.8,0.5,1.7,1.1,2.7,1.7h-0.1l0,0c-0.3-0.2-1.4-0.6-3.2-1.3c0.4,0.3,1.1,0.8,1.9,1.3
					c-0.4,0-0.8-0.1-1.2-0.3c-0.5-0.2-0.9-0.3-1.1-0.4c0.5,0.3,1.3,0.9,2.2,1.5c-0.5-0.2-1.3-0.4-2.3-0.8c0.9,0.6,1.7,1.1,2.3,1.5
					c-0.1,0-0.1,0-0.2-0.1c-0.1-0.1-0.2-0.1-0.2-0.1c-0.2,0-0.8-0.2-1.9-0.5c0.5,0.3,1.3,0.8,2.3,1.5c-1-0.3-1.7-0.6-2.2-0.7
					c0.4,0.2,1.1,0.7,2.2,1.5c-0.1,0-0.1,0-0.2-0.1c-0.1-0.1-0.2-0.1-0.2-0.1c-0.2,0-0.8-0.2-1.9-0.5c0.5,0.3,1.3,0.8,2.3,1.5
					c-1.1-0.3-1.9-0.6-2.4-0.8c0.9,0.6,1.7,1.1,2.4,1.6c-0.1,0-0.1,0-0.2-0.1c-0.1-0.1-0.2-0.1-0.2-0.1c-0.2,0-0.8-0.2-1.9-0.5
					c0.5,0.3,1.3,0.8,2.3,1.5c-1-0.3-1.7-0.6-2.2-0.7c0.4,0.2,1.1,0.7,2.2,1.5c-0.1,0-0.1,0-0.2-0.1c-0.1,0-0.2-0.1-0.2-0.1
					c-0.2,0-0.8-0.2-1.9-0.6c0.5,0.3,1.3,0.8,2.3,1.5c-1.1-0.3-1.9-0.6-2.4-0.8c0.9,0.6,1.7,1.1,2.4,1.6c-0.1,0-0.1,0-0.2-0.1
					c-0.1,0-0.2-0.1-0.2-0.1c-0.2,0-0.8-0.2-1.9-0.6c0.5,0.3,1.3,0.8,2.3,1.5c-0.5-0.2-1.2-0.4-2.2-0.7c0.5,0.3,1.2,0.8,2.2,1.4
					c-0.1,0-0.1,0-0.2-0.1c-0.1-0.1-0.2-0.1-0.2-0.1c-0.3,0-0.9-0.2-1.8-0.5c0.6,0.4,1.4,0.9,2.3,1.5c-1.1-0.3-1.9-0.6-2.4-0.8
					c0.9,0.6,1.7,1.1,2.4,1.6c-0.1,0-0.1,0-0.2-0.1c-0.1,0-0.2-0.1-0.2-0.1c-0.2,0-0.8-0.2-1.9-0.6c0.5,0.3,1.3,0.8,2.3,1.5
					c-1-0.3-1.7-0.6-2.2-0.7c0.4,0.2,1.1,0.7,2.2,1.5c-0.1,0-0.1,0-0.2-0.1c-0.1,0-0.2-0.1-0.2-0.1c-0.2,0-0.8-0.2-1.9-0.6
					c0.5,0.3,1.3,0.8,2.3,1.5c-1.1-0.3-1.9-0.6-2.4-0.8c0.9,0.6,1.7,1.1,2.4,1.6c-0.1,0-0.1,0-0.2-0.1c-0.1,0-0.2-0.1-0.2-0.1
					c-0.2,0-0.8-0.2-1.9-0.6c0.5,0.3,1.3,0.8,2.3,1.5c-1-0.3-1.7-0.6-2.2-0.7c0.4,0.2,1.1,0.7,2.2,1.5c-0.1,0-0.1,0-0.2-0.1
					c-0.1,0-0.2-0.1-0.2-0.1c-0.2,0-0.8-0.2-1.9-0.6c0.5,0.3,1.3,0.8,2.3,1.5c-1.1-0.3-1.9-0.6-2.4-0.8c0.9,0.6,1.7,1.1,2.4,1.6
					c-0.1,0-0.1,0-0.2-0.1c-0.1-0.1-0.2-0.1-0.2-0.1c-0.1,0-0.7-0.2-1.8-0.5c0.2,0.1,0.4,0.2,0.6,0.4c0.9,0.7,2.3,1.4,4.2,2
					c-0.5-0.2-1.1-0.7-2-1.3h0.1c0.6,0.2,1.3,0.4,2.2,0.8c-0.5-0.4-1.3-0.9-2.3-1.5c0.1,0,0.1,0,0.1,0c0.5,0.2,1.1,0.4,2,0.7
					c-0.3-0.3-0.6-0.5-1-0.8c-0.3-0.2-0.7-0.4-1.2-0.7h0.1c0.9,0.3,1.6,0.5,2.2,0.7c-0.5-0.3-1.3-0.8-2.3-1.5c0.1,0,0.1,0,0.1,0
					c0.5,0.2,1.1,0.4,2,0.7c-0.3-0.3-0.6-0.5-1-0.8c-0.3-0.2-0.7-0.5-1.2-0.7c0.6,0.2,1.4,0.4,2.4,0.8c-0.6-0.4-1.4-0.9-2.4-1.5
					c0.1,0,0.1-0.1,0.1,0c0.5,0.2,1.1,0.4,2,0.7c-0.2-0.2-0.6-0.5-1-0.8c-0.6-0.4-1-0.6-1.2-0.8h0.1l2.2,0.7
					c-0.5-0.4-1.3-0.9-2.3-1.5c0.1,0,0.1-0.1,0.1,0c0.5,0.2,1.1,0.4,2,0.7c-0.3-0.3-0.6-0.5-1-0.8c-0.4-0.2-0.8-0.5-1.2-0.8
					c0,0,0.1,0,0.3,0.1c0.6,0.2,1.5,0.5,2.7,1c-0.7-0.4-1.6-1-2.9-1.8c0.1,0,0.1-0.1,0.1,0c1,0.4,2.5,1,4.5,1.9
					c-1-0.6-2.6-1.5-4.6-2.7c0.2,0,0.4,0.1,0.6,0.2c1,0.5,2.7,1.3,5.1,2.3c-1.2-0.7-2.3-1.4-3.4-2c0.7,0.3,1.6,0.6,2.7,1.2
					c0.4,0.2,1,0.5,1.9,0.8c0.1,0,0.1,0,0.1,0c-0.8-0.5-1.8-1.1-3.1-1.9h0.1c1.8,0.7,3.1,1.3,4,1.6c-0.6-0.4-1.5-0.9-2.7-1.7
					c0.1,0,0.1,0,0.1,0l2.9,1.2c0,0,0.1,0,0.1,0.1c0.1,0,0.1,0.1,0.2,0.1s0.1,0,0.2,0h0.1c-0.5-0.4-1.4-0.9-2.4-1.5h0.1
					c0.7,0.3,1.7,0.6,2.9,1c-0.6-0.4-1.3-0.9-2-1.3h0.1c0.6,0.2,1.6,0.5,2.8,1c-0.5-0.3-1.1-0.8-2-1.3c0.6,0.2,1.4,0.4,2.4,0.8
					c-0.7-0.5-1.3-0.9-1.9-1.2c0.1,0,0.5,0.1,1.2,0.3c0.1,0,0.2,0.1,0.6,0.2c0.3,0.1,0.4,0.2,0.5,0.2c0,0,0.1,0,0.2,0s0.1,0,0.1,0
					c-0.4-0.3-1.1-0.7-2-1.3c0.1,0,0.1,0,0.2,0c0.6,0.2,1.3,0.4,2.2,0.8c-0.4-0.3-1.1-0.8-1.9-1.4c0.3,0.1,0.6,0.2,1.1,0.4
					c0.5,0.2,0.9,0.3,1.1,0.4c-0.5-0.3-1.1-0.7-1.9-1.3c0.5,0.2,1.2,0.4,2.2,0.8c-0.5-0.3-1.1-0.8-2-1.4c0.5,0,1.1,0.2,2,0.7
					c0,0,0.1,0,0.2,0s0.1,0,0.1,0l-2.2-1.5h0.1l2.1,0.6c-0.5-0.3-1.2-0.8-2.2-1.5c0.8,0.2,1.6,0.5,2.4,0.8l-2.5-1.6
					C245.6,179.1,246.4,179.4,247.9,179.9z M235.7,195.2c-1.2-0.8-2.4-1.4-3.7-1.8C232.9,194,234.2,194.6,235.7,195.2z M236.4,194.8
					c-0.3-0.2-0.7-0.5-1.3-0.9c-0.9-0.6-1.5-0.9-1.9-0.9c-0.1,0-0.2-0.1-0.5-0.2c-0.3-0.1-0.5-0.2-0.6-0.2
					C232.7,193.1,234.1,193.8,236.4,194.8z M234.2,195.3c-0.7-0.5-1.1-0.7-1.2-0.7h-0.2C233.2,194.8,233.6,195.1,234.2,195.3z
					 M244.9,180.4c-0.5-0.2-1.3-0.5-2.3-0.7c0.5,0.3,1.2,0.8,2.2,1.5c-0.5-0.2-1.2-0.4-2.1-0.7h-0.2l2,1.3c0,0-0.8-0.3-2.2-0.7h-0.1
					c0.6,0.4,1.2,0.9,2,1.4c-0.5-0.2-1.3-0.4-2.3-0.8c0,0-0.1,0-0.2,0c0.5,0.3,1.1,0.8,2,1.3c-0.5-0.2-1.3-0.5-2.4-0.8
					c0,0-0.1,0-0.2,0c0.8,0.6,1.5,1,2,1.3c-1.2-0.5-2.3-0.9-3.2-1.2h-0.1c0.2,0.2,1.1,0.7,2.5,1.6c-0.9-0.4-2.2-0.9-4-1.7
					c0,0,0,0-0.1,0c1.5,0.9,2.6,1.5,3.3,1.9c-0.4-0.1-1.9-0.7-4.4-1.8H237c0.7,0.5,1.9,1.1,3.5,2l-2.7-1.1c-1-0.4-2-1-3-1.7
					c1.3,0.5,2,0.7,2.3,0.7c-0.5-0.3-1.2-0.8-2.3-1.5c0.5,0.1,1.2,0.4,2.1,0.8l0.1-0.1c-0.3-0.2-1-0.7-2.2-1.5
					c0.5,0.2,1.2,0.4,2.3,0.8c0,0,0.1,0,0.2,0c-0.5-0.3-1.3-0.9-2.4-1.5c0.5,0.2,1.2,0.4,2.1,0.8l0.1-0.1c-0.3-0.2-1-0.7-2.2-1.5
					c1.1,0.5,1.9,0.7,2.3,0.7c-0.5-0.3-1.2-0.8-2.3-1.5c0.5,0.1,1.2,0.4,2.1,0.7l0.1-0.1c-0.3-0.2-1-0.7-2.2-1.5l2.2,0.8
					c0.1,0,0.2,0,0.3,0c-0.6-0.4-1.4-0.9-2.5-1.6c0.7,0.2,1.9,0.8,3.8,1.5c0,0,0.2,0,0.3,0c-0.8-0.5-2.1-1.2-3.7-2.2
					c1.5,0.7,3.4,1.5,5.6,2.4h0.1c-0.9-0.5-2.3-1.3-4.1-2.4l3.9,1.7c1.5,0.7,2.9,1.5,4,2.2c-0.9-0.3-1.8-0.6-2.8-1.1l-0.1,0.1
					L244.9,180.4z M239.2,184.7c-0.3-0.1-0.8-0.3-1.4-0.5c-0.1,0-0.3-0.1-0.6-0.3c-0.1,0-0.9-0.5-2.3-1.3c0.4,0.1,0.9,0.3,1.6,0.5
					C237.1,183.5,238,184,239.2,184.7z M237.6,184.6c-0.2-0.1-0.6-0.2-1.4-0.5c-0.5-0.2-0.9-0.4-1.4-0.8c0.5,0.2,1,0.4,1.5,0.6
					C237.1,184.4,237.5,184.6,237.6,184.6z M236.2,184.8c-0.1-0.1-0.6-0.3-1.3-0.6h0.3C235.3,184.2,235.7,184.4,236.2,184.8z
					 M242.2,180.2c0-0.6-0.3-1.1-0.8-1.4s-1-0.4-1.7-0.4h-2.2v3.7h1.9C241.3,182.1,242.2,181.4,242.2,180.2z M247.1,177.1
					c-2.2-1.3-5.1-2.8-8.7-4.3C241.8,174.8,244.7,176.3,247.1,177.1z M244.6,178.7c-0.9-0.3-1.9-0.7-3.1-1.3c-0.3-0.2-1.3-0.7-3-1.7
					C241,176.6,243,177.7,244.6,178.7z M246.3,175.9c-2.9-1.5-5-2.6-6.4-3.1C242.8,174.4,244.9,175.4,246.3,175.9z M244,177.6
					c-0.8-0.4-2.1-1-3.8-1.9C241.4,176.2,242.7,176.8,244,177.6z M244.6,174.3c-0.4-0.2-1-0.5-1.8-0.9
					C243.6,173.8,244.2,174.1,244.6,174.3z"/>
				<path id="XMLID_40_" class="st3" d="M263.8,175.3c0,1-0.4,1.8-1.2,2.4c-0.5,0.4-0.9,0.6-1.2,0.6h-6.5v2.3h4.5
					c0.6,0,1.1,0.2,1.7,0.7c0.5,0.5,0.9,1,1,1.5c0.1,0.3,0.1,0.5,0.1,0.7c0,0.7-0.3,1.4-0.8,2c-0.6,0.6-1.2,0.9-1.9,0.9H255v7
					c0,0.1-0.1,0.3-0.2,0.7c-0.5,1.2-1.4,1.7-2.7,1.7c-0.1,0-0.5-0.1-1.2-0.2c-0.3-0.1-0.7-0.4-1.1-0.9s-0.6-1-0.6-1.3v-18.6
					c0,0.2,0.1,0.1,0.4-0.5c0.3-0.8,0.6-1.2,0.8-1.3c0.5-0.4,1-0.6,1.3-0.6h9.7c0.2,0,0.4,0.1,0.8,0.2
					C263.2,173.1,263.8,174,263.8,175.3z M263.3,176.3c-1-0.7-2-1.4-3.2-1.9c-0.8-0.3-1.9-0.8-3.4-1.5c-0.2-0.1-0.3-0.1-0.4,0
					c0.2,0.1,1.4,0.8,3.6,2.1c-0.3,0-0.7-0.2-1.2-0.4c-0.4-0.2-0.8-0.4-1.1-0.6c-0.5-0.3-1.5-0.6-2.8-1.2l3.5,2.1c0,0-0.1,0-0.2,0
					c-1.1-0.5-2.7-1.2-4.9-2.1l3.5,2.1c-0.6-0.2-1.6-0.7-2.9-1.3c-1.2-0.5-1.8-0.8-1.8-0.8h-0.2c0.8,0.5,1.9,1.2,3.4,2.1
					c-1-0.4-2.5-1-4.5-1.8c0.9,0.5,1.8,1.2,3,1.8c-0.2,0-0.5-0.1-0.8-0.2l-0.9-0.5c-0.4-0.1-1.1-0.4-1.9-0.7c0.5,0.3,1.2,0.8,2,1.4
					c-0.6-0.2-1.4-0.4-2.4-0.8c0.7,0.5,1.4,1,2.1,1.4c-0.3,0-1-0.3-2.3-0.7c0.5,0.3,1.3,0.9,2.3,1.5c-0.5-0.2-1.2-0.4-2.2-0.7
					c0.8,0.5,1.6,1,2.2,1.5c-0.1,0-0.4-0.1-0.8-0.2c-0.4-0.1-0.6-0.2-0.6-0.2c-0.1,0-0.4-0.1-1-0.4c0.5,0.4,1.3,0.9,2.4,1.6
					c-0.5-0.2-1.2-0.4-2.2-0.7c0.8,0.5,1.5,1,2.2,1.5c-0.1,0-0.9-0.2-2.4-0.8c0.5,0.4,1.3,0.9,2.4,1.5c-0.5-0.2-1.2-0.4-2.2-0.7
					c0.8,0.5,1.6,1,2.2,1.5c-0.1,0-0.4-0.1-0.8-0.2s-0.6-0.2-0.6-0.2c-0.1,0-0.4-0.1-1-0.4c0.5,0.4,1.3,0.9,2.4,1.6
					c-0.5-0.2-1.2-0.4-2.2-0.7c0.8,0.5,1.5,1,2.2,1.5c-0.2,0-1-0.3-2.4-0.8c0.5,0.4,1.3,0.9,2.4,1.6c-0.5-0.2-1.2-0.4-2.2-0.7
					c0.8,0.5,1.6,1,2.2,1.5c-0.1,0-0.3-0.1-0.7-0.2c-0.4-0.1-0.6-0.2-0.6-0.2c-0.1,0-0.4-0.1-1-0.4c0.6,0.4,1.4,0.9,2.4,1.5
					c-0.2-0.1-1-0.3-2.2-0.6c0.7,0.4,1.4,0.8,2.2,1.4c-0.2,0-0.6-0.1-1.1-0.3l-1.3-0.5c0.5,0.4,1.3,0.9,2.4,1.6
					c-0.5-0.2-1.2-0.4-2.2-0.7c0.8,0.5,1.6,1,2.2,1.5c-0.1,0-0.4-0.1-0.8-0.2c-0.4-0.1-0.6-0.2-0.6-0.2c-0.1,0-0.4-0.1-1-0.4
					c0.5,0.4,1.3,0.9,2.4,1.6c-0.5-0.2-1.2-0.4-2.2-0.7c0.8,0.5,1.5,1,2.2,1.5c-0.1,0-0.9-0.2-2.4-0.8c0.5,0.4,1.3,0.9,2.4,1.5
					c-0.5-0.2-1.2-0.4-2.2-0.7c0.8,0.5,1.6,1,2.2,1.5c-0.1,0-0.4-0.1-0.8-0.2c-0.4-0.1-0.6-0.2-0.6-0.2c-0.1,0-0.4-0.1-1-0.4
					c0.5,0.4,1.3,0.9,2.4,1.6c-0.5-0.2-1.2-0.4-2.2-0.7c0.8,0.5,1.5,1,2.2,1.5c-0.2,0-1-0.3-2.4-0.8c0.5,0.4,1.3,0.9,2.4,1.6
					c-0.5-0.2-1.2-0.4-2.2-0.7c0.2,0.2,0.5,0.4,0.9,0.7c1,0.7,2,1.2,3,1.5c0,0,0.2,0.1,0.4,0.2c0.2,0.1,0.3,0.1,0.3,0.1
					c0.1,0,0.1,0,0.2,0h0.1c-0.5-0.3-1.2-0.8-2.1-1.4c0.2,0,0.9,0.3,2.3,0.7c-0.5-0.4-1.3-0.9-2.3-1.5h0.1c0.5,0.1,1.1,0.4,2,0.6
					c0.1,0,0.1,0,0.1,0c-0.5-0.3-1.3-0.8-2.3-1.5h0.1c0.3,0.1,0.7,0.2,1.2,0.4c0.1,0.1,0.5,0.2,1,0.3c0.1,0,0.1,0,0.1,0
					c-0.4-0.3-1.2-0.8-2.4-1.6c1.3,0.4,2,0.6,1.9,0.6c0,0,0.1,0,0.2,0.1c0.1,0,0.1,0.1,0.2,0.1c-0.5-0.3-1.3-0.8-2.3-1.5h0.1
					c0.2,0.1,0.6,0.2,1.2,0.4c0.1,0.1,0.5,0.2,1,0.3c0.1,0,0.1,0,0.1,0c-0.5-0.3-1.3-0.9-2.4-1.5h0.1c0.5,0.1,1.1,0.3,2,0.6
					c0.1,0,0.1,0.1,0.1,0.1c-0.5-0.3-1.3-0.8-2.3-1.5h0.1c0.2,0.1,0.6,0.2,1.2,0.4c0.1,0,0.5,0.1,1,0.3c0.1,0,0.1,0,0.1,0
					c-0.4-0.3-1.2-0.8-2.4-1.6c1.3,0.4,2,0.6,1.9,0.6c0,0,0.1,0,0.2,0.1c0.1,0,0.1,0.1,0.2,0.1c-0.5-0.3-1.3-0.8-2.3-1.5h0.1
					c0.2,0.1,0.6,0.2,1.2,0.4c0.1,0,0.5,0.1,1,0.3c0.1,0,0.1,0,0.1,0c-0.5-0.3-1.3-0.9-2.4-1.5c0,0,0.1-0.1,0.1,0
					c0.5,0.1,1.1,0.3,2,0.6c0.1,0,0.1,0.1,0.1,0.1c-0.5-0.3-1.3-0.8-2.3-1.5c0.3,0,0.8,0.2,1.6,0.5c0.9,0.4,1.5,0.7,1.7,0.7
					c-0.8-0.5-1.9-1.1-3.3-1.9c0.1,0,0.3,0,0.5,0.1c1.8,0.8,3.3,1.4,4.4,1.9l-2.1-1.3c-0.8-0.5-1.5-0.8-2.2-1.1
					c-0.1,0-0.3-0.2-0.6-0.4c0.2,0,0.4,0.1,0.7,0.2c0.2,0.2,0.6,0.4,1.1,0.7c0.1,0,0.2,0,0.3,0c1.2,0.5,2.7,1.1,4.5,1.9
					c-0.8-0.5-2-1.2-3.6-2.1c0.1,0,0.1,0,0.1,0c1.6,0.7,3.2,1.3,4.9,2c-0.8-0.5-2-1.2-3.5-2c0.1,0,0.1,0,0.2,0
					c0.9,0.4,2.1,0.9,3.7,1.4c-0.9-0.7-1.7-1.1-2.3-1.4c0.1,0,0.1,0,0.2,0c1.8,0.6,2.6,0.9,2.5,0.9h0.2c0.1,0,0.1,0,0.1,0
					c-0.4-0.3-1.1-0.7-2-1.3l2,0.5c-0.9-0.7-2-1.3-3.3-1.9c-1.9-0.8-2.9-1.2-3.1-1.3c0.9,0.5,2.2,1.3,4,2.3c-0.1,0-0.1,0-0.2,0
					c-1.1-0.5-2.2-1-3.4-1.5c-1.3-0.6-2.3-1.2-3.1-1.8h0.1c0.2,0.1,0.6,0.2,1.2,0.4c0.1,0.1,0.5,0.2,1,0.3c0.1,0,0.1,0,0.1,0
					c-0.5-0.3-1.3-0.9-2.4-1.5h0.1c0.5,0.1,1.1,0.3,2,0.6c0.1,0,0.1,0.1,0.1,0.1c-0.5-0.3-1.3-0.8-2.3-1.5h0.1
					c0.2,0.1,0.6,0.2,1.2,0.4c0.1,0,0.5,0.1,1,0.3c0.1,0,0.1,0,0.1,0c-0.4-0.3-1.2-0.8-2.4-1.6c1.3,0.4,2,0.6,1.9,0.6
					c0,0,0.1,0,0.2,0.1c0.1,0,0.1,0.1,0.2,0.1c-0.5-0.3-1.3-0.8-2.3-1.5c0.4,0,1.5,0.4,3.2,1.2c-1.4-0.8-2.5-1.5-3.2-1.9
					c0,0,0.1-0.1,0.1,0c1,0.4,2.5,1,4.6,1.9l-3.7-2.2c0,0,0.1,0,0.3,0.1l5.2,2.2c-0.9-0.5-2.2-1.3-3.8-2.3c0,0,0.1,0,0.3,0.1
					c0.6,0.3,2.3,1,5,2.1c-0.8-0.5-2.1-1.2-3.7-2.2h0.1l4.9,2c-0.7-0.4-1.8-1.1-3.3-2h0.1c1,0.4,2.4,1,4.2,1.7
					c-1-0.7-1.9-1.2-2.7-1.7h0.1c2,0.8,3,1.2,3,1.2c0.1,0,0.1,0,0.2,0h0.1c-0.7-0.4-1.4-0.9-2-1.3h0.1
					C261.6,175.7,262.3,175.9,263.3,176.3z M253.9,194.7c-0.5-0.3-0.9-0.7-1.4-1c-0.6-0.4-1.1-0.6-1.5-0.8c-0.3-0.1-0.9-0.3-1.7-0.6
					C250.5,193.2,252.1,194,253.9,194.7z M253.1,195.1c-1.1-0.9-2.3-1.5-3.6-1.8C250.8,194.2,252,194.8,253.1,195.1z M252.1,195.4
					l-2.1-1.1h-0.2C250.8,194.8,251.5,195.2,252.1,195.4z M254.1,183.2c-0.3-0.1-0.7-0.2-1.2-0.4c-0.1-0.1-0.3-0.2-0.6-0.4
					c0.2,0,0.6,0.2,1,0.4C253.8,183.1,254.1,183.2,254.1,183.2z M257.3,183.2c-1.4-0.6-2.3-0.9-2.6-1.1c-1-0.5-1.8-0.9-2.4-1.4
					c0.5,0.2,1.3,0.5,2.3,0.9C255.2,182,256.1,182.5,257.3,183.2z M255.7,183.2c-0.4-0.2-1.1-0.4-1.9-0.8c-0.5-0.2-1-0.5-1.5-0.9
					c0.2,0.1,0.6,0.2,1.1,0.3C253.9,182.2,254.6,182.6,255.7,183.2z M261.7,183.4c-0.6-0.4-1.4-0.9-2.4-1.4
					c-0.9-0.4-1.7-0.8-2.6-1.2c0.2,0.1,1,0.6,2.4,1.4C260.1,182.9,260.9,183.3,261.7,183.4z M263.5,175.6c-0.9-0.6-1.9-1.2-3-1.7
					l-2.5-1.1c0.7,0.4,1.4,0.8,2.3,1.3c0.5,0.3,1.1,0.6,1.7,0.8L263.5,175.6z M261.7,182.6c-0.9-0.5-2-1.1-3.5-1.8
					C258.9,181.3,260,181.9,261.7,182.6z M263.3,174.6c-0.9-0.5-1.8-1-2.8-1.5c-0.3-0.1-0.6-0.3-0.9-0.3
					C261,173.7,262.3,174.3,263.3,174.6z M262.5,173.4c-0.5-0.3-0.9-0.4-1.1-0.5C261.9,173.1,262.2,173.3,262.5,173.4z"/>
			</g>
			<path id="XMLID_17_" class="st5" d="M410,337.3c-41-16.3-73.1-18.4-94-17.5c-42.2,1.8-52.6,16.3-91.7,14.5
				c-40.9-1.8-48-18.4-83.7-16.5c-31.2,1.7-33.1,14.7-64.4,15.5c-32.4,0.8-39.7-12.9-71.8-11.3c-29.7,1.5-31.3,13.6-56.4,12.6
				c-25.6-1.1-35.7-14.2-65.2-13.6c-9.3,0.2-16.9,1.7-21.9,2.9V365h549v-27.7H410z"/>
		</g>
	</g>
</g>
</svg>
