<?xml version="1.0" encoding="utf-8"?>
<!-- Generator: Adobe Illustrator 19.0.0, SVG Export Plug-In . SVG Version: 6.00 Build 0)  -->
<svg version="1.1" id="Camada_1" xmlns="http://www.w3.org/2000/svg" xmlns:xlink="http://www.w3.org/1999/xlink" x="0px" y="0px"
	 viewBox="0 0 1000 100" style="enable-background:new 0 0 1000 100;" xml:space="preserve">
<style type="text/css">
	.st0{fill:#585857;}
</style>
<g id="XMLID_2_">
	<path id="XMLID_3_" class="st0" d="M388.7,57.7c0,0.4,0,0.6,0,0.7h-1.6V35.7c0-0.8-1.2-1.1-1.8-1.1h-13.2c-0.3,0-0.6,0.2-0.6,0.5v4
		c0,0.7-1.2,0.3-2.6,0.3c-0.3,0-0.6,0.2-0.6,0.5v7.2c0,1.7,0.5,1.3-0.5,1.3h-2.5c-0.3,0-0.6,0.2-0.6,0.5v9.6c0-0.2-0.1-0.3-0.4-0.4
		V31.8c0-0.8-1.2-1.1-1.8-1.1h-9.5v-2.5c0-0.8-1.2-1.1-1.8-1.1H344c-0.3,0-0.6,0.2-0.6,0.5v6.5c0,2.3,0.2,1.4-2.2,1.4
		c-0.3,0-0.6,0.2-0.6,0.5v18.1c0,0.2,0,0.4,0,0.5h-1.2V43.9c0-0.8-1.2-1.1-1.8-1.1h-9.9v-4.3c0-0.8-1.2-1.1-1.8-1.1h-13.7
		c-0.3,0-0.6,0.2-0.6,0.5v6.4c0,0.1,0,0.1,0,0.2c-0.1,0-0.3,0-0.6,0h-8.7c-0.3,0-0.6,0.2-0.6,0.5v21.8c0,0.5,0,0.7,0,0.8h-1V44.5
		c0-0.8-1.2-1.1-1.8-1.1h-9V39c0-0.8-1.2-1.1-1.8-1.1h-6.2c-0.3,0-0.6,0.2-0.6,0.5c0,1.3-0.3,5,0.4,5h-6.2c-0.3,0-0.6,0.2-0.6,0.5
		v22.6c0,2.3-0.1,1.2-2.5,1.2c-0.3,0-0.6,0.2-0.6,0.5v9.4c0,1.3-0.3,2.4,0.3,2.4h-3.2V57.9c0-0.8-1.2-1.1-1.8-1.1H267V42.9
		c0-0.8-1.2-1.1-1.8-1.1h-1.4v-0.4c0-0.8-1.2-1.1-1.8-1.1h-0.9v-3.4c0-0.8-1.2-1.1-1.8-1.1h-9.5c-0.3,0-0.6,0.2-0.6,0.5v0.5h-12.7
		c-0.3,0-0.6,0.2-0.6,0.5c0,1.9,0.7,2.6-1.2,2.6c-0.3,0-0.6,0.2-0.6,0.5c0,2.1,0.2,1.7-1.8,1.7c-0.3,0-0.6,0.2-0.6,0.5v13.6
		c-0.1,0-0.2,0-0.3,0h-0.8V44.4c0-0.8-1.2-1.1-1.8-1.1h-1.5v-1.8c0-0.8-1.2-1.1-1.8-1.1h-17c-0.3,0-0.6,0.2-0.6,0.5
		c0,3.4,0.2,2.7-3.1,2.7c-0.3,0-0.6,0.2-0.6,0.5v18.8c0,1.4-0.3,1.4,0.4,1.4h-5.7V42.8c0-0.8-1.2-1.1-1.8-1.1h-0.5v-1.8
		c0-0.8-1.2-1.1-1.8-1.1h-15.7c-0.3,0-0.6,0.2-0.6,0.5c0,2.4,0.7,2.5-1.5,2.5c-0.3,0-0.6,0.2-0.6,0.5c0,1.9-0.2,1.2-2.3,1.2H164V35
		c0-0.8-1.2-1.1-1.8-1.1H161v-4.6c0-0.8-1.2-1.1-1.8-1.1H158v-0.8c0-0.8-1.2-1.1-1.8-1.1h-1.5v-1.6c0-0.8-1.2-1.1-1.8-1.1H145
		c-0.3,0-0.6,0.2-0.6,0.5c0,2.9,0.4,2.5-2.4,2.5c-0.3,0-0.6,0.2-0.6,0.5c0,2.1,0.4,1.8-1.5,1.8c-0.3,0-0.6,0.2-0.6,0.5v4.8
		c0,0.7,0.2,0.2-1.3,0.2h-1.5c-0.3,0-0.6,0.2-0.6,0.5v5.6c0-0.5-2.1-0.3-3.3-0.3V17.2c0-0.8-1.2-1.1-1.8-1.1h-23.3
		c-0.3,0-0.6,0.2-0.6,0.5v15.3c0-0.7-0.8-0.4-2.3-0.4h-6.3c-0.3,0-0.6,0.2-0.6,0.5v10c0,0.2,0,0.1-0.1,0.1v-0.7
		c0-0.8-1.2-1.1-1.8-1.1h-16c-0.3,0-0.6,0.2-0.6,0.5v4.7c0,1.9,0.5,1.5-0.9,1.5c-0.3,0-0.6,0.2-0.6,0.5V48c0,0-0.1,0-0.1,0H58.8
		c-1.3,0,0.2,1.6,1,1.6c0.1,0,0.3,0,0.4,0c0.1,1.2,0.2,1.3-1.4,1.3c-0.3,0-0.6,0.2-0.6,0.5c-0.1,5.2-0.2,10.5-0.3,15.7
		c-0.1,2.7-0.1,5.4-0.2,8c0,0.2,0,0.3,0,0.4c-0.1,0-0.1,0-0.2,0h-2.4V54.3c0-0.8-1.2-1.1-1.8-1.1h-2v-1c0-0.8-1.2-1.1-1.8-1.1h-0.7
		v-2.3c0-0.8-1.2-1.1-1.8-1.1H33.7c-0.3,0-0.6,0.2-0.6,0.5v3.6c0-0.4-1.4-0.2-1.9-0.2c-0.3,0-0.6,0.2-0.6,0.5v8c-0.1,0-0.4,0-0.9,0
		H18.3c-0.2,0-0.3,0.1-0.4,0.2V35.4c0-0.8-1.2-1.1-1.8-1.1h-1v-6.6c0-0.8-1.2-1.1-1.8-1.1h-2.9v-0.4c0-0.8-1.2-1.1-1.8-1.1H1.2
		c-0.3,0-0.6,0.2-0.6,0.5c0,1.3,0.2,1.1-1,1.1c-0.1,0-0.2,0-0.3,0.1c-0.2,0-0.4-0.1-0.5-0.1h-5.7c-0.3,0-0.6,0.2-0.6,0.5
		c0,0.8,0.6,0.7,0,0.7h-7.3c-0.3,0-0.6,0.2-0.6,0.5v45.3h-4.1c-0.3,0-0.6,0.2-0.6,0.5v23.7c0,0.2,0.1,0.3,0.2,0.4
		c0.9,0,1.8,0.1,2.7,0.1c0-0.3-0.2-0.5-0.5-0.7V75.3c0,0,0,0,0,0c0.1,0,0.1,0,0.2,0h3.9c0.3,0,0.6-0.2,0.6-0.5V29.5c0,0,0.1,0,0.1,0
		h7.2c0.3,0,0.6-0.2,0.6-0.5c0-1.2-0.1-0.7,1.6-0.7h1.7v3.1c0,0.8,1.2,1.1,1.8,1.1h0.8c0.3,0,0.6-0.2,0.6-0.5v-3.3
		c0-0.8-0.4-0.3,1-0.3c0.3,0,0.6-0.2,0.6-0.5c0-1.7-0.2-1.1,2.1-1.1H8V27c0,0.8,1.2,1.1,1.8,1.1h2.9v6.6c0,0.8,1.2,1.1,1.8,1.1h1
		v28.4c-0.1,0.9-0.2,2.1,0,2.8v1.2c0,0.8,1.2,1.1,1.8,1.1h0c0.3,0,0.6-0.2,0.6-0.5v-4c0-0.1,0-0.2,0-0.3h1.7c0.3,0,0.6-0.2,0.6-0.5
		c0-3.2-0.6-2.5,2.9-2.5h9.5c0.3,0,0.6-0.2,0.6-0.5v-5.7c0-2.9-0.9-2.3,1.9-2.3c0.3,0,0.6-0.2,0.6-0.5c0-4.2-0.8-3.4,3.6-3.4h7.4
		v2.3c0,0.8,1.2,1.1,1.8,1.1H49v1c0,0.8,1.2,1.1,1.8,1.1h2V76c0,0.8,1.2,1.1,1.8,1.1h5c0.3,0,0.6-0.2,0.6-0.5
		c0.1-4.3,0.2-8.5,0.3-12.8c0.1-2.9,0.1-5.9,0.2-8.8c0-0.8,0-1.7,0.1-2.5c0-0.5,0.1,0,1.3,0c0.3,0,0.6-0.2,0.6-0.5
		c0-0.8,0-1.6,0-2.5h14.9V51c0,0.8,1.2,1.1,1.8,1.1h0.6c0.3,0,0.6-0.2,0.6-0.5V49c0-0.9-0.5-0.4,0.9-0.4c0.3,0,0.6-0.2,0.6-0.5v-6.2
		c0,0,0-0.1,0-0.1c0,0,0,0,0.1,0h13.6v3.7c0,0.8,1.2,1.1,1.8,1.1h1.1c0.3,0,0.6-0.2,0.6-0.5c0-2-0.8-2.6,0.8-2.6
		c0.3,0,0.6-0.2,0.6-0.5V32.7c0,0.8,6.8,0.4,8.5,0.4c0.3,0,0.6-0.2,0.6-0.5V17.7c0,0,0,0,0,0h20.9v26.7c0,0.8,1.2,1.1,1.8,1.1h1.4
		c0.3,0,0.6-0.2,0.6-0.5c0-1,0.3-3.4-0.3-3.4h4c0.3,0,0.6-0.2,0.6-0.5v-5c0-0.1,0-0.2,0-0.3c0.1,0,0.2,0,0.3,0h2.5
		c0.3,0,0.6-0.2,0.6-0.5v-4.1c0-1.6-0.5-0.9,1.5-0.9c0.3,0,0.6-0.2,0.6-0.5c0-2.5-0.5-1.8,2.4-1.8c0.3,0,0.6-0.2,0.6-0.5
		c0-2.8-0.9-2.5,1.8-2.5h3.6v1.6c0,0.8,1.2,1.1,1.8,1.1h1.5v0.8c0,0.8,1.2,1.1,1.8,1.1h1.3v4.6c0,0.8,1.2,1.1,1.8,1.1h1.2v8.3
		c0,0.8,1.2,1.1,1.8,1.1h15.1c0.3,0,0.6-0.2,0.6-0.5c0-1.7-0.5-1.2,1.5-1.2c0.3,0,0.6-0.2,0.6-0.5v-1.9c0-0.3,0-0.5-0.1-0.6
		c0,0,0.1,0,0.1,0h13.3v1.8c0,0.8,1.2,1.1,1.8,1.1h0.5v21.5c0,0.8,1.2,1.1,1.8,1.1h7.6c0.3,0,0.6-0.2,0.6-0.5V45.5
		c0-0.2,0-0.3,0-0.4h3.1c0.3,0,0.6-0.2,0.6-0.5c0-1.5-0.6-2.7,0.3-2.7h14.4v1.8c0,0.8,1.2,1.1,1.8,1.1h1.5v11.8
		c0,0.8,1.2,1.1,1.8,1.1h3.5c0.3,0,0.6-0.2,0.6-0.5V43.9c0-0.1,0-0.2,0-0.2h1.8c0.3,0,0.6-0.2,0.6-0.5c0-2-0.8-1.7,1.2-1.7
		c0.3,0,0.6-0.2,0.6-0.5v-2c0-0.3,0-0.5,0-0.6h10.4v0.8c0,0.8,1.2,1.1,1.8,1.1h0.5c0.3,0,0.6-0.2,0.6-0.5c0-2.9-0.8-2.5,2.2-2.5h4.9
		v3.4c0,0.8,1.2,1.1,1.8,1.1h0.9v0.4c0,0.8,1.2,1.1,1.8,1.1h1.4v13.9c0,0.8,1.2,1.1,1.8,1.1h0.4v24.8c0,0.8,1.2,1.1,1.8,1.1h1
		c0.3,0,0.6-0.2,0.6-0.5V82c0-0.2,0-0.4,0-0.5h3.8c0.3,0,0.6-0.2,0.6-0.5V68.9c0,0.8,1.2,0.4,2.5,0.4c0.3,0,0.6-0.2,0.6-0.5V44.7
		c0,0.4,0,0.3,1.5,0.3h4.3c0.3,0,0.6-0.2,0.6-0.5v-4.8c0-0.1,0-0.2,0-0.2h3.9v4.4c0,0.8,1.2,1.1,1.8,1.1h9v22.9
		c0,0.8,1.2,1.1,1.8,1.1h3.4c0.3,0,0.6-0.2,0.6-0.5V46.3c0-0.2,0-0.3,0-0.4c0,0,0.1,0,0.1,0h9.1c0.3,0,0.6-0.2,0.6-0.5v-5.7
		c0-1.4-0.4-0.8,1.6-0.8h9.7v4.3c0,0.8,1.2,1.1,1.8,1.1h9.9v10.6c0,0.8,1.2,1.1,1.8,1.1h3.5c0.3,0,0.6-0.2,0.6-0.5V37.4
		c0-0.2,0-0.4,0-0.5h2.2c0.3,0,0.6-0.2,0.6-0.5c0-1.6,0.3-7.8-0.3-7.8h5.4v2.5c0,0.8,1.2,1.1,1.8,1.1h9.5v26.2
		c0,0.8,1.2,1.1,1.8,1.1h2.7c0.3,0,0.6-0.2,0.6-0.5v-7.2c0-1.2,0.3-2-0.3-2h3.3c0.3,0,0.6-0.2,0.6-0.5V43c0-1.2,0.3-2.1-0.3-2.1h2.9
		c0.3,0,0.6-0.2,0.6-0.5v-4.5c0,0.6,1.5,0.3,2.6,0.3h8.2v22.7c0,0.8,1.2,1.1,1.8,1.1h4c0.3,0,0.6-0.2,0.6-0.5"/>
</g>
<g id="XMLID_4_">
	<path id="XMLID_5_" class="st0" d="M390.8,60.1c0-0.1,0-0.2,0-0.2H401c0.5,0,0.8-0.5,0.8-0.9V46.5h8.9c-0.1,2.2-0.4,4.5,1.1,6
		c0.5,0.5,0.9,1.5,0.9,0.5v8.5c0,0.7,0.7,1.4,1.4,1.4h3.4v6.8c0,0.7,0.7,1.4,1.4,1.4h11.4c0.5,0,0.8-0.5,0.8-0.9v-7.1
		c0-0.1,0-0.1,0-0.2c0,0,0,0,0,0c0.5,0,0.8-0.5,0.8-0.9v-6.8c0-0.7-0.7-1.4-1.4-1.4h-6.9v-2c0-0.3,0-0.5-0.1-0.7c0.1,0,0.2,0,0.4,0
		h7.2c0.5,0,0.8-0.5,0.8-0.9v-1.7c0-0.3,0-0.6,0-0.8h2.7v2c0,0.7,0.7,1.4,1.4,1.4h0.4c0.5,0,0.8-0.5,0.8-0.9v-6.8h5.4
		c0.5,0,0.8-0.5,0.8-0.9v-3.2c0-0.3,0-0.6-0.1-0.7c0.2,0.1,0.5,0.1,1,0.1h6.5v1.7c0,0.7,0.7,1.4,1.4,1.4h3v28.4
		c0,0.7,0.7,1.4,1.4,1.4h5.9c0.5,0,0.8-0.5,0.8-0.9V49.4c0-2.5-0.4-5.3,0-7.8c0.1-0.8,0.3-1.7,0.4-2.5c0.1-0.7,0.1-1.1,0.1-1.2
		c0,0,0.1,0,0.2,0h4.5v1.2c0,0.7,0.7,1.4,1.4,1.4h0.4c0.5,0,0.8-0.5,0.8-0.9v-12c0.2,0,0.5,0,1.2,0h5.5c0.5,0,0.8-0.5,0.8-0.9v-5.5
		c0.1,0,0.2,0,0.3,0h15.1v8.1c0,0.6,0.1,1.1,0.6,1.5c0.6,0.6,1.2,1.1,1.8,1.7c0.1,0.1,0.2,0.2,0.3,0.3c0,0,0,0.1,0,0.1v18.4
		c0,0.7,0.7,1.4,1.4,1.4h4c0.5,0,0.8-0.5,0.8-0.9v-6h7V49c0,0.7,0.7,1.4,1.4,1.4h1.8c0.5,0,0.8-0.5,0.8-0.9V25h1.9
		c0.5,0,0.8-0.5,0.8-0.9v-6c0-0.2,0-0.3,0-0.4c0,0,0.1,0,0.1,0h3.5c0.5,0,0.8-0.5,0.8-0.9v-6c0,0,0.1,0,0.1,0h8.7v2.6
		c0,0.7,0.7,1.4,1.4,1.4h3.8V18c0,0.7,0.7,1.4,1.4,1.4h2.5v8.1c0,0.7,0.7,1.4,1.4,1.4h2.1V62c0,0.7,0.7,1.4,1.4,1.4h3V65
		c0,0.7,0.7,1.4,1.4,1.4h0.9c0.5,0,0.8-0.5,0.8-0.9V53.9h11.6c-0.1,1.7-0.3,3.7,0.1,5.2c0.2,0.7,1,1.3,1.5,1.8
		c1.3,1.2,0.9,0.8,0.9,2.9c0,0.7,0.7,1.4,1.4,1.4h0.9c0.5,0,0.8-0.5,0.8-0.9v-1.1c0-0.5,0-0.9,0-1h3.1c0.5,0,0.8-0.5,0.8-0.9v-4.2
		h6.3c0.5,0,0.8-0.5,0.8-0.9V44.8h22.4c0,4.4,0,8.9,0,13.3c0,1.3,2.2,2,2.2,0.4v-3.2c0-0.2,0-0.4,0-0.6h1.9c0.5,0,0.8-0.5,0.8-0.9
		V34h4.9c0.5,0,0.8-0.5,0.8-0.9v-3.5c0-0.3,0-0.6-0.1-0.8c0.1,0,0.3,0.1,0.4,0.1h5.8v4.7c0,0.7,0.7,1.4,1.4,1.4h1.6v19.3
		c0,0.7,0.7,1.4,1.4,1.4h4c0.5,0,0.8-0.5,0.8-0.9V41.4h28.1v10.7c0,0.7,0.7,1.4,1.4,1.4h9.6v4.4c0,0.7,0.7,1.4,1.4,1.4h4.3
		c0.2,0.2,0.5,0.3,0.8,0.3h1.1c0.5,0,0.8-0.5,0.8-0.9V41.4H691c0.5,0,0.8-0.5,0.8-0.9v-3.2c0-0.3,0-0.5-0.1-0.7
		c0.2,0.1,0.5,0.1,0.9,0.1h7.1v11.1c0,0.7,0.7,1.4,1.4,1.4h3v4.2c0,0.7,0.7,1.4,1.4,1.4h3.4v3.4c0,0.7,0.7,1.4,1.4,1.4h16.3
		c0.5,0,0.8-0.5,0.8-0.9V32.4c0.2,0,0.5,0,1,0h1.8c0.5,0,0.8-0.5,0.8-0.9v-2.5h7.5v19.3c0,0.7,0.7,1.4,1.4,1.4h1.7
		c0.5,0,0.8-0.5,0.8-0.9v-4.3h10.3c0.5,0,0.8-0.5,0.8-0.9V29.1c0-0.1,0-0.1,0-0.2h9.2v3.8c0,0.7,0.7,1.4,1.4,1.4h1.2v30.2
		c0,0.7,0.7,1.4,1.4,1.4h2.8c0.5,0,0.8-0.5,0.8-0.9v-2.1c0.1,0,0.2,0,0.4-0.1h2.1c0.5,0,0.8-0.5,0.8-0.9v-1.7c0-0.3,0-0.6,0-0.8h5.5
		c0.5,0,0.8-0.5,0.8-0.9V26.7h11.3c0.5,0,0.8-0.5,0.8-0.9V24c0,0,0-0.1,0-0.1c0.1,0,0.3,0,0.5,0h4.4v2.2c0,0.7,0.7,1.4,1.4,1.4h4.4
		v3.5c0,0.7,0.7,1.4,1.4,1.4h4c0.5,0,0.8-0.5,0.8-0.9v-1.9c0-0.1,0-0.1,0-0.1c0.1,0,0.3,0,0.5,0h4.1V30c0,0.7,0.7,1.4,1.4,1.4h2.3
		c0.5,0,0.8-0.5,0.8-0.9v-9.2H841c0.5,0,0.8-0.5,0.8-0.9v-8.5c0-0.2,0-0.3,0-0.4c0.1,0.2,0.5,0.4,1.2,0.4c0.5,0,0.8-0.5,0.8-0.9V8.6
		c0,0.5,0.1,0.2,1.4,0.2c0.5,0,0.8-0.5,0.8-0.9V2.3c0.2,0,0.4,0,0.7,0h8.8v6.2c0,0.7,0.7,1.4,1.4,1.4h1.1v13.9c0,1,1.1,3.6,1.1,2.8
		v7.8c0,0.7,0.7,1.4,1.4,1.4h0.3v11.3c0,0.7,0.7,1.4,1.4,1.4h1.4c0.5,0,0.8-0.5,0.8-0.9V16c0,0.8,0.1,0.4,1.6,0.4
		c0.5,0,0.8-0.5,0.8-0.9v-2.2c0.2,0,0.5,0,1.1,0h4.9v1.2c0,0.7,0.7,1.4,1.4,1.4h6.1v10c0,0.7,0.7,1.4,1.4,1.4h19v3.1
		c0,0.7,0.7,1.4,1.4,1.4h0.7V70c0,0.7,0.7,1.4,1.4,1.4h1.7c0.5,0,0.8-0.5,0.8-0.9v-2.8c0-0.6-0.1-1-0.1-1.1c0.1,0.1,0.4,0.2,0.9,0.2
		c0.5,0,0.8-0.5,0.8-0.9v-7.2c0.1,0.1,0.4,0.2,0.9,0.2c0.5,0,0.8-0.5,0.8-0.9v-2c0.1,0,0.2,0,0.3-0.1h2c0.5,0,0.8-0.5,0.8-0.9V34
		h24.2v21.1c0,0.7,0.7,1.4,1.4,1.4h1.2V57c0,0.4,0.2,0.8,0.6,1.1v10.5c0,0.7,0.7,1.4,1.4,1.4h4.2c0.5,0,0.8-0.5,0.8-0.9v-6.2h15.5
		v0.1c0,0.7,0.7,1.4,1.4,1.4h9.4c0.5,0,0.8-0.5,0.8-0.9v-1.1c0,0,0-0.1,0-0.1h6.9v9.4c0,0.7,0.7,1.4,1.4,1.4h6.3
		c0.5,0,0.8-0.5,0.8-0.9v-2c0-0.1,0-0.1,0-0.2h11v3.7c0,0.7,0.7,1.4,1.4,1.4h2.4v2.6c0,0.7,0.7,1.4,1.4,1.4h0.8
		c0.5,0,0.8-0.5,0.8-0.9c0-0.2,0-0.4-0.1-0.6c0,0,0.1,0,0.2,0h9.4v11.8c0,0.2,0,0.3,0,0.5c0.7,0,1.5,0,2.2,0V76.4
		c0-0.6-0.4-1-0.9-1.2c-0.1,0-0.1-0.1-0.2-0.1c0,0,0,0,0,0c-0.1,0-0.2-0.1-0.3-0.1h-11v-1.2c0-0.7-0.7-1.4-1.4-1.4h-2.4v-3.7
		c0-0.7-0.7-1.4-1.4-1.4h-13.2c-0.5,0-0.8,0.5-0.8,0.9v2c0,0.1,0,0.2,0,0.2c-0.1,0-0.3-0.1-0.6-0.1h-3.5v-9.4c0-0.7-0.7-1.4-1.4-1.4
		h-9.1c-0.5,0-0.8,0.5-0.8,0.9v1.1c0,0,0,0.1,0,0.1h-7.2v-0.1c0-0.7-0.7-1.4-1.4-1.4h-17.7c-0.5,0-0.8,0.5-0.8,0.9v5.9
		c0,0.2,0,0.3,0,0.4c0,0-0.1,0-0.1,0h-2V57.4c0-0.4-0.2-0.8-0.6-1.1v-0.8c0-0.7-0.7-1.4-1.4-1.4h-1.2V33.1c0-0.7-0.7-1.4-1.4-1.4
		h-26.4c-0.5,0-0.8,0.5-0.8,0.9v20.8c-0.1,0-0.2,0-0.3,0.1h-2c-0.5,0-0.8,0.5-0.8,0.9v1.9c0,0.1,0,0.2,0,0.3c-0.1-0.1-0.4-0.2-1-0.2
		c-0.5,0-0.8,0.5-0.8,0.9v7.2c-0.1-0.1-0.4-0.1-0.7-0.1c-0.1,0-0.2,0-0.2,0.1V30.6c0-0.7-0.7-1.4-1.4-1.4H903v-3.1
		c0-0.7-0.7-1.4-1.4-1.4h-19v-10c0-0.7-0.7-1.4-1.4-1.4H875v-1.2c0-0.7-0.7-1.4-1.4-1.4h-8.2c-0.5,0-0.8,0.5-0.8,0.9v2.8
		c0-1-0.1-0.6-1.6-0.6c-0.5,0-0.8,0.5-0.8,0.9v18.6c-0.2-0.1-0.4-0.2-0.7-0.2h-0.3v-6c0-0.5,0-1.1-0.4-1.4c-1.1-1.1-0.7,0.2-0.7-1.3
		V8.9c0-0.7-0.7-1.4-1.4-1.4h-1.1V1.4c0-0.7-0.7-1.4-1.4-1.4h-11.7c-0.5,0-0.8,0.5-0.8,0.9v5.7c0-0.3-0.3-0.1-1.4-0.1
		c-0.5,0-0.8,0.5-0.8,0.9v1.9c0,0.2,0,0.4,0.1,0.4c-0.1-0.1-0.4-0.3-1.2-0.3c-0.5,0-0.8,0.5-0.8,0.9v8.5c0,0,0,0,0,0.1c0,0,0,0,0,0
		h-23.1c-0.5,0-0.8,0.5-0.8,0.9v9.2h-0.1v-0.5c0-0.7-0.7-1.4-1.4-1.4h-6.7c-0.5,0-0.8,0.5-0.8,0.9v1c0,0.5,0,0.8,0,1h-1.8v-3.5
		c0-0.7-0.7-1.4-1.4-1.4H799v-2.2c0-0.7-0.7-1.4-1.4-1.4h-7.2c-0.5,0-0.8,0.5-0.8,0.9v1c0,0.4,0,0.7,0,0.8h-11.2
		c-0.5,0-0.8,0.5-0.8,0.9v31.1c0,0.2,0,0.3,0,0.4h-5.5c-0.5,0-0.8,0.5-0.8,0.9v2.4c-0.1,0-0.2,0-0.4,0.1h-2.1
		c-0.5,0-0.8,0.5-0.8,0.9v2.1c-0.1,0-0.1,0-0.2,0h-0.4V33.1c0-0.7-0.7-1.4-1.4-1.4h-1.2v-3.8c0-0.7-0.7-1.4-1.4-1.4H752
		c-0.5,0-0.8,0.5-0.8,0.9v14.2c0,0.1,0,0.1,0,0.2h-10.3c-0.1,0-0.2,0-0.3,0.1V27.9c0-0.7-0.7-1.4-1.4-1.4h-9.7
		c-0.5,0-0.8,0.5-0.8,0.9V30c-0.2,0-0.5,0-1,0H726c-0.5,0-0.8,0.5-0.8,0.9v26.2c-0.1,0-0.2,0-0.3,0h-13.7v-3.4
		c0-0.7-0.7-1.4-1.4-1.4h-3.4v-4.2c0-0.7-0.7-1.4-1.4-1.4h-3V35.7c0-0.7-0.7-1.4-1.4-1.4h-10.1c-0.5,0-0.8,0.5-0.8,0.9v3.8h-16.8
		c-0.5,0-0.8,0.5-0.8,0.9v16.9c-0.1,0-0.2,0-0.3,0H668v-4.4c0-0.7-0.7-1.4-1.4-1.4H657V40.4c0-0.7-0.7-1.4-1.4-1.4h-30.4
		c-0.5,0-0.8,0.5-0.8,0.9v13.3c-0.1,0-0.2,0-0.3,0h-1.5V34c0-0.7-0.7-1.4-1.4-1.4h-1.6v-4.7c0-0.7-0.7-1.4-1.4-1.4h-8.4
		c-0.5,0-0.8,0.5-0.8,0.9v4.2h-4.9c-0.5,0-0.8,0.5-0.8,0.9v19.8h-0.4c0-2.9,0-5.7,0-8.6c0-0.7-0.7-1.4-1.4-1.4h-24.6
		c-0.5,0-0.8,0.5-0.8,0.9v11.2c-0.1,0-0.3,0-0.5,0h-5.8c-0.5,0-0.8,0.5-0.8,0.9v4.3c-0.1,0-0.2,0-0.3,0h-2.9c-0.2,0-0.4,0.1-0.6,0.3
		c-0.3-0.3-0.6-0.7-1-1.1c-0.1-0.1-0.2-0.2-0.3-0.3v-5.7c0-0.7-0.7-1.4-1.4-1.4h-13.9c-0.5,0-0.8,0.5-0.8,0.9v8.6c0,0-0.1,0-0.1,0
		h-3V27.9c0-0.7-0.7-1.4-1.4-1.4h-2.1v-8.1c0-0.7-0.7-1.4-1.4-1.4h-2.5v-3.4c0-0.7-0.7-1.4-1.4-1.4h-3.8V9.8c0-0.7-0.7-1.4-1.4-1.4
		h-11c-0.5,0-0.8,0.5-0.8,0.9V15c0,0.1,0,0.2,0,0.3c0,0-0.1,0-0.1,0h-3.5c-0.5,0-0.8,0.5-0.8,0.9v7.2c0-1.3-0.3-0.8-1.9-0.8
		c-0.5,0-0.8,0.5-0.8,0.9v20.2c-0.3-0.2-0.6-0.4-1-0.4h-9.2c-0.5,0-0.8,0.5-0.8,0.9V50c0,0.1,0,0.3,0,0.4c-0.1,0-0.2,0-0.3,0h-1.5
		v-17c0-0.5,0-1-0.4-1.4c-0.4-0.4-0.9-0.9-1.3-1.3c-0.3-0.3-0.6-0.6-1-0.9v-9.4c0-0.7-0.7-1.4-1.4-1.4h-17.6c-0.5,0-0.8,0.5-0.8,0.9
		v5.1c0,0.2,0,0.3,0,0.5h-6.7c-0.5,0-0.8,0.5-0.8,0.9v9.4h-6.2c-0.4,0-0.7,0.3-0.8,0.6c-1.1,6.5-0.8,12.8-0.8,19.4v13.6h-3.7V40.9
		c0-0.7-0.7-1.4-1.4-1.4h-3v-1.7c0-0.7-0.7-1.4-1.4-1.4h-9.7c-0.5,0-0.8,0.5-0.8,0.9v3.8H436c-0.5,0-0.8,0.5-0.8,0.9v3.4h-4.6
		c-0.5,0-0.8,0.5-0.8,0.9v2.5h-7.5c-0.5,0-0.8,0.5-0.8,0.9v4.9c0,0.7,0.7,1.4,1.4,1.4h6.9v4.6c0,0,0,0,0,0c-0.5,0-0.8,0.5-0.8,0.9
		v7.3c0,0,0,0-0.1,0h-9.2V62c0-0.7-0.7-1.4-1.4-1.4h-3.4c0.1-2.5,0.5-5.4-0.1-7.5c-0.2-0.8-1.9-2.6-1.9-1.8v-5.6
		c0-0.7-0.7-1.4-1.4-1.4h-11.2c-0.5,0-0.8,0.5-0.8,0.9v12.4h-10.2c-0.5,0-0.8,0.5-0.8,0.9"/>
</g>
</svg>
