<?xml version="1.0" encoding="utf-8"?>
<!-- Generator: Adobe Illustrator 19.0.0, SVG Export Plug-In . SVG Version: 6.00 Build 0)  -->
<svg version="1.1" id="Camada_1" xmlns="http://www.w3.org/2000/svg" xmlns:xlink="http://www.w3.org/1999/xlink" x="0px" y="0px"
	 viewBox="425 -100 1000 300" style="enable-background:new 425 -100 1000 300;" xml:space="preserve">
<style type="text/css">
	.st0{clip-path:url(#SVGID_2_);}
	.st1{fill:url(#XMLID_3_);}
	.st2{opacity:0.22;}
	.st3{fill:#F1F2F2;}
	.st4{clip-path:url(#SVGID_4_);}
	.st5{fill:#FDFDFD;}
	.st6{fill:#FFFFFF;}
</style>
<g>
	<defs>
		<rect id="SVGID_1_" x="425" y="-100.9" width="1000" height="300.9"/>
	</defs>
	<clipPath id="SVGID_2_">
		<use xlink:href="#SVGID_1_"  style="overflow:visible;"/>
	</clipPath>
	<g class="st0">
		<linearGradient id="XMLID_3_" gradientUnits="userSpaceOnUse" x1="918.7167" y1="299.65" x2="918.7167" y2="-170.35">
			<stop  offset="0" style="stop-color:#3CAF73"/>
			<stop  offset="1" style="stop-color:#2CAAE1"/>
		</linearGradient>
		<rect id="XMLID_8_" x="410" y="-262" class="st1" width="1017.4" height="470"/>
		<g id="XMLID_6_" class="st2">
			<path id="XMLID_94_" class="st3" d="M503.5-119.6c-2-0.8-1,3.1-3,3.6s-4.4,1.7-2.8,2.1c1.6,0.5,5.2-0.2,5.6-1
				C503.7-115.5,504.1-119.3,503.5-119.6z"/>
			<path id="XMLID_93_" class="st3" d="M488.2-114.4c-2.4-0.2-4.8,0-5.2,1c-0.4,1,2.2,1.7,3.8,1.7c1.6,0,4.8-1.2,4.2-1.4
				C490.4-113.4,488.2-114.4,488.2-114.4z"/>
			<path id="XMLID_92_" class="st3" d="M501.3-135.1c-0.8,0.3,1.4,1.9,2.2,1.9c0.8,0,2.2-2.6,0.6-2.6
				C502.5-135.8,503.3-135.8,501.3-135.1z"/>
			<path id="XMLID_86_" class="st3" d="M508.3-154.6c0,0,0,0,1.2,1.2c1.2,1.2,3.2,1.7,5,1.9s1.8-1.2,0.4-2.6c-1.4-1.4-1.8-1.2-3-1.4
				c-1.2-0.2-1.4-1.7-4.6-1.7c-3.2,0-2.8-1.9-3.2-2.9s3-2.8,3.8-2.6c0.8,0.2,3.7-0.5,3.7-0.5s5.2-2.4,5.8-1.9c0.6,0.5,3.6-0.5,5-1
				s2.2-3.1,2.2-3.1s1.8,0.7,2.8,1.9c1,1.2,3.2,0,3.8,0s3.9,0.8,3.9,0.8s3.2-0.5,4.8-0.7c1.6-0.2,6.2,1.8,7.8,2.3
				c1.6,0.5,10-1.6,10.8-1.6c0.8,0,3.6,4.2,6.2,3.5c2.6-0.7,3.8,0.5,4.4,0.7c0.6,0.2,1.2,0.2,2.2,1.7c1,1.4,2,0.2,3.4-0.7
				c1.4-1,1.2-1.9,1.2-1.9s0,0,1.2-0.2c1.2-0.2,2,0.5,5.4,0.7s2.6-0.7,5-1.7s4.8,1.2,5.6,1c0.8-0.2,1.8-2.1,2.4-1.2
				c0.6,1,1.6,2.9,1.6,2.9s2.6-2.4,3.4-2.4c0.8,0,5.3,0.4,6.7,0.2s4.6,0.3,5.8,1.5c1.2,1.2,4.2,1,5.8,2.1c1.6,1.2,3.2-0.9,2.4-1.4
				c-0.8-0.5-2.8-2.4-2.8-2.4s-3-4.3-3.4-5s-1-0.7-1.8,1.2s-3.8,1.9-7.2,2.1c-3.4,0.2-1.2-1.9-5-2.1c-3.8-0.2-2.4-1.9-1.2-1.9
				c1.2,0,2-2.9,2.4-4.5c0.4-1.7,1.8-1.4,4.6-1.2s3.6-0.5,6.4,0c2.8,0.5,2.6-1.4,5.4-1.2c2.8,0.2,1.4,0.7,3,1.9
				c1.6,1.2,2.6,0.9,4.8,2.1c2.2,1.2,1.4,1.2,2.4,1.4s4.4-0.5,6.4-0.7c2-0.2,3.6-0.5,4.6,1c1,1.4,0.8,3.1,2.2,4.3s-0.8-4.3-0.8-6.2
				s2.8-0.2,4.6-0.2s3.8-0.7,4.2,0.2c0.4,0.9-2.6,2.4-0.8,4.5s3,2.9,4.6,2.9c1.6,0,5.2,0.5,3.6,3.1s-5.8,2.4-7.2,2.4s-3.8,1-3.2,2.4
				s3.8,0.7,6,0.7s9,0.7,10.7,0c1.8-0.7,1.4-3.6-0.6-4.3c-2-0.7-0.4-2.1,1.6-1.7c2,0.5,4-0.7,3.6,0s0.2,2.4,0.2,4.3s0.6,3.1,2,2.6
				s1.1-2,2.5-2.3c1.4-0.2,1-2.9,0.2-5.1c-0.8-2.1-1.4-3.3-1.2-4.5c0.2-1.2,2.4-1.4,3.6-0.2s2.8,3.6,2.8,3.6s2.4,1.7,3.2,3.6
				c0.8,1.9,1,1.4,2.6,0.2c1.6-1.2,2-1,3.4,0.2s0.4,3.6,0.4,4.3s2,0,2.4-1.4s2-1.4,3-1.9s1-3.3,1-3.3s-2.6-0.7-5.2-0.5
				s-3.4-0.2-5.4-1.9c-2-1.7-0.8-2.9-1.8-4.5c-1-1.7,3.2-2.6,5.8-4c2.6-1.4,5.2-0.5,4.6,3.1s-1,3.1,2,2.4c3-0.7-0.2-3.8,1.2-4.1
				c1.4-0.2,5-1,6.2-0.7c1.2,0.2,7.8-0.7,9.4-0.7c1.6,0,4.2,1.7,6,2.9s6.6,2.9,7.8,3.6c1.2,0.7,9.6,2.1,10.3,2.4
				c0.8,0.2,0.8,3.1,1.6,5.5s3,0.7,3.8,0.7s3.6,1.7,4.4,2.9c0.8,1.2,6.8,2.1,6.8,2.1s-1.4,2.1-2,2.9c-0.6,0.7-2,1.2-3.2,2.1
				c-1.2,1-2.6-0.2-4.2-1.4c-1.6-1.2-4.4-1.9-5-1.4s-0.2,1.4,0.2,2.1c0.4,0.7,3,1.7,4.6,3.1c1.6,1.4,1.2,2.9,1.4,4.8
				c0.2,1.9-1.6-0.7-3.6-1.2c-2-0.5-2.2,1.9-2.2,1.9s-2.6-0.2-3.8-0.2c-1.2,0,0,0-2.2-1.9s-1.8,1.2-3,0.2c-1.2-1-2.4-2.4-3-1.9
				c-0.6,0.5-2.6-2.1-3.8-1.9c-1.2,0.2-6-0.7-7.2-0.2c-1.2,0.5-2.2,0.5-3.2,1c-1,0.5-1.4-3.3-0.8-4.5c0.6-1.2,2-1.4,4.6-0.7
				s2.8,0,3.4-1.2s1.2-2.4,4-3.3c2.8-1-0.2-1.7-1-2.1c-0.8-0.5-1.8-1.4-2.4,0c-0.6,1.4-2,3.1-2,3.1s-1.6,0-3.8-0.2s-0.6-1.2,0.4-1.7
				s2.2-3.3,1.2-4c-1-0.7-1.4-1.2-3.2-0.7s-0.6-1.7-1.8-2.4c-1.2-0.7-0.8,0.5-0.8,1.4c0,1-1.8,0.7-1.8,0.7s-2.8-0.5-3.8,0
				c-1,0.5-2.8,1.4-2.2,2.1c0.6,0.7,2.6,0.7,3.2,2.9c0.6,2.1-2.6,2.6-3.2,2.9c-0.6,0.2-3,1.2-3,1.2s-2.4-0.7-4.4-0.7
				c-2,0-2.6,0.2-2.2,1.2c0.4,1,1.4,0.5,2,0.5s0.6,1.2,2.4,0.7c1.8-0.5,1.4-1.2,3,0.7c1.6,1.9,3.2,1.7,5.8,3.3
				c2.6,1.7-0.4,3.6-1.8,3.6s-1.4-1.4-2.2-2.9c-0.8-1.4-4,0.2-4,0.2s-2.6,1.7-4,1.7s-2.4-0.2-0.6-1.9s-2.2-1.9-2.2-4.3
				s-1.1,4.1-1.1,5.2c0,1.2-1.2-1.4-4.6-1c-3.4,0.5-2.8,1.9-7.2,5.2c-4.4,3.3-3.2,2.6-2.8,5.7s-0.7,3.6,1,4.1c1.8,0.5,1.2,4,2.6,3.8
				c1.4-0.2,2.4-1.4,5.2,0.2c2.8,1.7,4.2,2.1,7.6,2.9c3.4,0.7,5,0.3,6.8-0.2s3.5,1.8,3.5,3.5s1.2,1.9,1,4c-0.2,2.1,2.2-1.9,2.2-1.9
				s1,3.6,0.2,4c-0.8,0.5,0.2,2.6,1.2,2.4s2.4,0.7,3.6-0.5c1.2-1.2-0.6-4.8-0.6-6.2s-1.2-2.1-1.8-3.6c-0.6-1.4,1.6-1.7,2.4-0.2
				c0.8,1.4,2.2,0.2,3.6-1s1.4-3.3,1.4-3.3s-2.4-3.8-4.2-4.8s-1-1.2,0.8-1.7s0-1.2,0.4-3.8c0.4-2.6,0.4-4.3,1.4-4.3
				c1,0,4.6-0.7,7.6-0.5c3,0.2,4.4,2.9,6.4,3.1c2,0.2,5.2,0.7,5.8,1.9s-3.5,1.9-2.1,3.8c1.4,1.9,2.9,1.2,4.3,1.9
				c1.4,0.7,3,0.2,4.8-2.6c1.8-2.9,2.6-3.1,3.2-2.6c0.6,0.5,4.4,5.7,5.4,6.9s2,4.6,2.2,5.8s4,0.3,4.8,0.3c0.8,0,3.8,2.6,4.2,4
				c0.4,1.4,1.2,1.9,3.8,2.6s0,3.3-0.6,4.8c-0.6,1.4-1,1.9-1.8,3.6s0,0,1,0.7s1.4,1.7,3,1.2c1.6-0.5,2.4,0,3,1.4
				c0.6,1.4,1.4,2.6,2,3.8c0.6,1.2,0,3.1-0.8,1.9S766-100,766-100s-1.2,1.4-1.6,0.7c-0.4-0.7-1.2-1.7-2.6-1.2
				c-1.4,0.5-2.8,0-4.4,0.2s-2.2-1-1.2-1.9s1.2-4.5,3.2-5.9s1.4-3.6,0-3.6s-2,2.1-2.8,2.6s-3.5-0.9-4.9,0.3
				c-1.4,1.2-3.6,2.1-2.3,2.5c1.4,0.5-2,2.4-3.2,2.4s-0.8-3.1-0.8-4.3c0-1.2-1.6,0.7-1.6,0.7s-3.2-2.1-4.4-0.7s-5.5,0.8-6.9,2.2
				s-2.1,5.1-2.1,5.1s1.2-0.7,3.6-1.4c2.4-0.7,2.2-0.5,4.2-1.7c2-1.2,4-1.7,5.4,0.5c1.4,2.1-0.6,3.3-0.6,3.3s0.8,1.7,1.6,2.1
				c0.8,0.5,1-0.5,2.4-1.4s0.8,1.9,1.2,2.9s1.8,1,2.6-0.2s1.4-2.1,2-1.4c0.6,0.7,1.2,2.4,1.8,4c0.6,1.7-4.2,2.1-5,2.4
				c-0.8,0.2-4.6,1.2-5.2,1.4c-0.6,0.2-2.6,2.4-4.2,2.4s-1.4-2.9-1.6-4.5c-0.2-1.7-2.2,0.2-2.4,0.9c-0.2,0.7-2,0.5-3.4,0.7
				c-1.4,0.2-3.8,1.9-3.8,3.8s2.8,3.9,2.2,4.9s-5.2,0.6-6.6,0.1c-1.4-0.5-3.4,0.7-2.8,1.7c0.6,0.9,0.2,2.4-1.2,2.1
				c-1.4-0.2-1.6,1.4-1,2.6c0.6,1.2-1.8,3.6-2.4,2.6c-0.6-0.9-1.8-1.4-1.8,0s1.2,3.4,2.4,5.3c1.2,1.9-3.4,2.3-4.8,3.7
				c-1.4,1.4-4.5,6.3-6.5,7.3c-2,1-3.7,3.9-2.7,5.1c1,1.2,2.2,6.2,2.8,7.9s-0.2,6.4-2,6.2s-0.8-3.1-2.6-3.8s-2.8-5-3.2-7.9
				s-0.8-1.2-2-0.2c-1.2,1-2.4-1.9-3-2.6c-0.6-0.7-3.6,1.4-5.9,1.2c-2.4-0.2-3.6,0.3-3.6,1s-0.4,2.9-2.6,1.4
				c-2.2-1.4-2.6-1.4-4.8-1.4c-2.2,0-4.2-0.2-4.6,0.7c-0.4,1-2.6,3.1-4,3.6c-1.4,0.5-4,2.9-2.8,3.3c1.2,0.5,1.2,3.8,0.4,5.7
				c-0.8,1.9-0.6,5.2-0.2,8.6c0.4,3.3,2.8,5.5,5,7.6s3,2.9,5.2,1s3-0.7,3.6-0.5s2.2-1.2,1.6-3.3s0.8-4,2.6-3.8
				c1.8,0.2,4.4-0.7,5.8-0.5c1.4,0.2,2.2,4.8,0,6.7c-2.2,1.9-1,4.8-1.4,6.9s-2.2,2.6,0,2.6s1.6,0.5,3,0.7c1.4,0.2,2.8-1.4,4.2-1.7
				c1.4-0.2,5,3.6,4.4,5.5c-0.6,1.9-1.2,5.2-1,8.3c0.2,3.1,1,3.3,1.4,4.3s2,3.1,3.8,2.1s3.6-1.7,4.2-2.6c0.6-1,4.4,1.7,4,2.4
				s1.4,1.4,2.6,0.7c1.2-0.7,1.8-1.9,3-3.8s3.2-3.6,4.2-3.8c1-0.2,3.4-3.1,5-2.6c1.6,0.5-0.6,2.9-0.8,4.3c-0.2,1.4,0,5.5,0.8,5.7
				s0.4-2.9,1.4-5s3-3.3,4-3.3s1.8,5,3.2,3.6s4.2-1.2,4.8,0.2c0.6,1.4,1.2,2.1,1.2,2.1s1-1,1-2.1c0-1.2,3.2-2.4,5.2-1
				c2,1.4,1.2,1.9,2.2,2.1c1,0.2,2-3.1,2.6-3.3c0.6-0.2,0,3.8-1.4,6c-1.4,2.1,1.2,1.4,1.2,1.4s0,0,0.6,0.7c0.6,0.7,2.6-0.7,3.4,0.7
				c0.8,1.4,2.2,1.9,3.4,4.5s2.6,0.3,4.9-0.2c2.4-0.5,5.8,3,8.2,6.1c2.4,3.1,2,5.5,3.6,5.5c1.6,0,2,2.6,2,3.6s-3.6,3.1-5.6,3.6
				c-2,0.5-2,2.9,1.2,2.1c3.2-0.7,1.8-2.1,3.8-2.9c2-0.7,4,1,2.2,3.8c-1.8,2.9-5.4,3.1-2.2,3.6s1.4-0.5,3.2-3.3
				c1.8-2.9,1.6-1.9,2.8-1.9c1.2,0,3.8,0.7,4.8,1.7c1,0.9,3.6,2.4,5.2,3.6s3.6,0.7,4.8,0.2s4.6,1.4,5.8,3.3c1.2,1.9,4.2,2.1,5.6,2.9
				c1.4,0.7,3.6,3.6,3.8,5.9c0.2,2.4-2.2,7.4-2.4,8.6s-3.4,5.5-6.4,8.3c-3,2.9-1.2,6.2-1,7.6c0.2,1.4-2,6.7-1.4,7.9
				c0.6,1.2-0.8,3.8-2,5.5c-1.2,1.7-2,4.8-2.8,6.2s-3.4,1-5.8,1.7c-2.4,0.7-3.6,1.4-3.6,1.4s-4.2,2.4-6.6,4.3
				c-2.4,1.9,0.8,5.2-0.4,7.8c-1.2,2.6-2.2,0.3-3.4,3.4c-1.2,3.1-2,2.6-3,3.3s-1.6,2.6-1.8,4.5c-0.2,1.9-2.2,3.8-4.8,6.7
				c-2.6,2.9-4.2,2.4-7,1.4s-2.4-9-2.8-7.9c-0.4,1.2-1.8,5.3-1.4,6c0.4,0.7,3.2,3.5,4.2,4.2c1,0.7,0.8,1.9,0,3.1
				c-0.8,1.2-3,5.5-3.8,5.7s-7,1.2-8.2,0.5s-1.8,1.7-1.6,3.1c0.2,1.4,1.2,3.1-1,2.6s-5.2-2.1-5.2-1c0,1.2,0.6,3.8,1.8,3.8
				c1.2,0,2.4-1,1.8,0.7c-0.6,1.7-2.2,3.1-3,3.8s-1.8,3.1-3.8,4.8c-2,1.7-2,2.6-1.6,3.3s3.4,0.2,4,0.7s-0.6,3.8-1.4,4.5
				s-4.2,4-5.6,5c-1.4,1-1.4,3.8-1,5.2c0.4,1.4,3.6,5,5.4,5.7s5.6,0.5,5.2,1.2s-4.8,1.4-5.4,1.7c-0.6,0.2-3.8,1.2-5.4,1.2
				c-1.6,0-4.6-1.9-5.2-1.9c-0.6,0,0.4-1,2.4-2.9s-0.8-4-1.2-1.4s-1.2,3.3-2.2,3.3c-1,0-2.2-1.7-2.8-2.4c-0.6-0.7-3.2-1.4-2.8-4.3
				c0.4-2.9-1.2-2.6-2.4-3.8s1.6-2.1,1.2-3.3c-0.4-1.2-2.2-0.5-2.4-2.1c-0.2-1.7,1.6-4,1.8-4.8c0.2-0.7-1.2-2.1-1.4-3.3
				c-0.2-1.2,0.8-2.4,2.2-4.3c1.4-1.9,2.4-4.3,2.4-5s-1-3.3-1-5.2s1-2.6,1.4-5.2c0.4-2.6-1.4-1.7-1.4-3.8s2-1.4,1.6-3.6
				c-0.4-2.1,1-3.6,1.6-5c0.6-1.4,1.2-3.8,2-5.5c0.8-1.7-0.8-5.5-0.8-6.2s2.6-1.7,1.4-3.1c-1.2-1.4,1-1.9,2.2-3.1
				c1.2-1.2-0.8-5.2-0.2-9.5c0.6-4.3,1.2-11.7,1.2-12.4s0.2-3.6-0.8-5.5s-2.2-3.3-3.6-4c-1.4-0.7-3.2-2.9-4.2-3.1s-7-2.2-7-5.6
				c0-3.3-2.1-6.1-2.5-8.5s-3.4-7.6-3.6-10c-0.2-2.4-4.4-3.1-5-5.7c-0.6-2.6,0.9-4.3,1.3-6s-0.3-5.4-0.5-6.6c-0.2-1.2,1.8-5.1,3-5.8
				s3.4-3.2,4.2-3.2c0.8,0,0.6-2.6,1.4-5.2s-0.4-6.2-1-6.7c-0.6-0.5-1.2-3.6-2.2-4.5c-1-1-3-0.5-3-0.5s0.4,2.1-1.4,3.3
				c-1.8,1.2-2.2-0.2-2.8-1c-0.6-0.7-2.8-1-3.8-2.1c-1-1.2-2.6-2.9-3.8-3.6s-4.1-1.3-3.9-4.2s-1.5-4.6-2.3-5.1
				c-0.8-0.5-2.4-1.7-3.4-1s-2.8-1.4-4.2-1.2s-4.2-2.9-5.2-4c-1-1.2-1.8-2.9-3.6-2.9s-2,0.7-3.2,2.4c-1.2,1.7-3-1.2-3.6-1.9
				c-0.6-0.7-3.5,0.5-5.7,0.5c-2.2,0-3.2-4.5-3.3-5.5c-0.3-3.6-6.4-3.6-7.8-4.5c-1.4-1-2.8-4.5-2.2-5.5c0.6-1-1-4-1-4
				s-2.8-3.8-3.8-3.8s-4.2-6.7-6-8.6s-6-6.2-6.8-8.3s-1-5.5-3-3.8c-2,1.7-0.4,3.3,1.6,5.2s1.6,3.8,4.4,6.4c2.8,2.6,1.6,5.2,2.8,6.4
				c1.2,1.2,5.4,4,3.6,6c-1.8,1.9-3.6-2.4-4.4-2.6c-0.8-0.2-2.6-0.7-2.4-2.1c0.2-1.4-1.6-2.6-3-4.8c-1.4-2.1-2-1-3.8-1
				s-0.2-2.6,0.8-3.8c1-1.2-1-2.9-2.2-3.3c-1.2-0.5-2.8-5.9-4.4-9.3c-1.6-3.3-2.8-5-4.6-4.8s-4.8-1.6-5.9-2.5
				c-1.2-1-0.8-6.3-2.8-8.7c-2-2.4-3.8-6.9-3.6-9.5c0.2-2.6,0.8-9.3,0.8-10.9c0-1.7-1.5-4.8-1.5-5.5s-0.5-2.8-1.3-3
				s-3.4-2.6-5.2-2.6s-2.6-3.4-2-5c0.6-1.7-1.6-4.5-2.6-4.5s-2.6-3.1-3.2-4.8c-0.6-1.7-2.2-1.7-1.8-0.7s-0.2,2.6,0.8,3.1
				c1,0.5,1.8,4.3,1,4.8c-0.8,0.5-2.6-1.4-4.6-2.6c-2-1.2-1.2-6-1.2-7.1c0-1.2-2.8-2.4-4-2.4c-1.2,0-2.4,0.2-2.6-2.9
				c-0.2-3.1-3.8-4.8-5-4.8c-1.2,0-7.9-2.3-9.9-2.3c-2,0-5-2.9-6.2-2c-1.2,1-3.4-1.7-4.6-1.7c-1.2,0-0.6,3.2-2.8,4.9
				c-2.2,1.7-3.6-1.6-4.8-0.4s-4.2,2.4-3.2-0.5s1-3.3-0.6-2.6c-1.6,0.7-2,2.6-2,3.8s-2.8,3.1-2.8,3.1s2.6,0.2,3.6,0s0.2,2.6-0.8,3.3
				s-2.4,2.6-4,2.1c-1.6-0.5-1.8-2.1-2.8-2.4c-1-0.2-2.1,3.1-5.7,5.2c-3.6,2.1-4.1-0.9-5.5-0.2s-6.4,2.9-8.2,3.1
				c-1.8,0.2-1.4-2.6-0.4-2.6c1,0,4.8-2.1,5.8-2.9c1-0.7,5.4-2.6,6.6-3.3c1.2-0.7,3.2-1.9,2.4-3.3c-0.8-1.4-3.4,0.7-3.4,0.7
				s-2-2.1-2.6-2.6s-1.8,1.9-1.8,1.9s-2.6-0.5-2-3.1c0.6-2.6-1.4-2.6-1.8-1.4s-3.8,3.1-4,1.9c-0.2-1.2-3.2-3.6-4-5.5
				c-0.8-1.9,0.8-2.1,2.6-3.8c1.8-1.7,4.4-2.1,6.6-1.9c2.2,0.2,3.6-2.9,2.8-3.1c-0.8-0.2-2.2-0.5-3.4,0.7c-1.2,1.2-4.2,1-4.2,1
				s-4.4,0-6.2-1.4c-1.8-1.4-2.8-3.6-2.8-3.6s3.6-1.7,6.4-1.9L508.3-154.6z M690.7-83.7c2,0.3,2-3.1,1.8-4c-0.2-1-0.2-5,0.6-5.7
				s1.8-2.9,4-3.1s3.6,1.7,3.4,3.8c-0.2,2.1,0.4,4.3,1.2,4.3s3.2-1.7,2.4-3.1s0.6-6.2,0.6-4.5s1.6,2.9,2.6,2.6c1-0.2-1-4.5-2.4-4.8
				c-1.4-0.2-4.2-0.2-4.8,0c-0.6,0.2-4-1.2-5.6-1c-1.6,0.2-4,1-4.8,2.9c-0.8,1.9,0,5.5-0.2,6.9C689.3-87.9,688.9-83.9,690.7-83.7z
				 M701.9-83.7c0.5,1.1,2.6,0.2,3.8-1.2c1.2-1.4,3.8-1.9,4.6-3.1c0.8-1.2,1.4-0.9,3.4-1.9c2-1,3.6-1.2,2.8-2.4
				c-0.8-1.2-5,0-5.6-0.5s-4.8,5.2-4.8,5.2s-3.6,1.7-3.8,2.4C702.1-84.4,701.3-85.1,701.9-83.7z M681.2-102c0,1.3,2,1.4,3.2,0.7
				c1.2-0.7,3-1.2,3.8-1.4c0.8-0.2,0.4,1.2,2.2,1.2c1.8,0,4,0.7,4.6,0.5c0.6-0.2,2.4-3.1,1-3.3c-1.4-0.2-3.6-1.9-4.8-3.3
				c-1.2-1.4-4,1.9-6.6,3.1C682-103.4,681.2-103.9,681.2-102z M599.5-109.8c-1.6-0.6,0.6,2.9,1.6,3.6s3,0.7,3.2,1.9
				c0.2,1.2,0.8,4,1.8,3.8s1-2.9,0.2-3.8c-0.8-1-3.8-3.8-4.4-3.8C601.3-108.2,600.1-109.6,599.5-109.8z"/>
			<path id="XMLID_85_" class="st3" d="M697.9-142.5c-0.5,0.7,2.4,1.7,2.9,0.8C701.3-142.7,699.2-144.3,697.9-142.5z"/>
			<path id="XMLID_84_" class="st3" d="M705.6-141.1c-2.1,0.7-0.1,2.5,1.2,1.9C708.1-139.8,707.4-141.7,705.6-141.1z"/>
			<path id="XMLID_83_" class="st3" d="M606.6-179.8c-0.3,1,1.2,0.9,2.9,0.9c1.7,0,4.5,0,5.3-0.5c0.8-0.5,4.8-1.6,4.6-0.2
				c-0.1,1.4,1.6,3.6,2.5,3.3c0.9-0.3,2.8-2.4,3.7-1.6c0.9,0.8,1.1,2.7,2,3.2c0.9,0.5,3.5,0.5,4.6,0c1.2-0.5,4.5-0.5,6-0.2
				s5.7,1.3,6.1,0.3c0.4-1,1.6-1.1,1.7-2.1s0.8-4,0.8-4s-0.8-1.7-2.1-0.9c-1.3,0.8-1.7,1.3-2.9,0.9c-1.2-0.3-1.2-2.9-3.3-2.4
				s-2.5,1.9-3.2,2.5s-2.1,1.1-2.7,0.8c-0.5-0.3-3.6-2.4-3.6-2.4s-6.4-0.3-6.6-1.3c-0.3-0.9-1.3-2.5-4.2-2.2s-8,2.4-8.8,2.4
				s0.9,1.9-0.1,1.9C608.3-181.1,607-181.2,606.6-179.8z"/>
			<path id="XMLID_82_" class="st3" d="M629.1-186.3c-1.5,0.6-1.2,2.4-0.1,2.4c1.1,0,3.7-1.1,4.5-0.3s2.8,0.2,2.7-0.6
				c-0.1-0.8,0.8-4-0.8-4.1C633.8-189.1,631.5-187.2,629.1-186.3z"/>
			<path id="XMLID_81_" class="st3" d="M647.1-188.3c-0.2,1.1,1.1,2.1,2.7,2.1s5-1,5.3-0.2c0.3,0.8-0.1,1.4,1.7,1.7
				c1.9,0.3,2.7,0.6,3.7,0.6c1.1,0,0.7-2.1-0.3-3.5c-0.9-1.4-0.7-1.3-3-2.1c-2.4-0.8-4.8-0.8-6.4-0.6
				C649.2-190.1,647.5-190.6,647.1-188.3z"/>
			<path id="XMLID_80_" class="st3" d="M649.7-181.1c-1,1,0,4.3-0.4,4.6s0.1,1.7,1.2,1.4s1.6-3.3,2.4-3.3s4.9-1.1,5.6,0.6
				c0.7,1.7,0.7,0.9,2.5,1.1c1.9,0.2,3.3-2.2,3.4-3s-0.9-2.4-3.4-2.1C658.5-181.4,650.8-182.2,649.7-181.1z"/>
			<path id="XMLID_79_" class="st3" d="M654.6-172.6c-0.9,0.7-0.4,3,1.1,3.2s4-1.1,4.2-0.2c0.3,1,1.2,5.2,3.6,3.8
				c2.4-1.4,2.3-2.7,2.9-2.9c0.7-0.2-0.1-3.7-1.2-4.4c-1.1-0.8-4.5-0.3-5.4,0.2C658.9-172.5,656.1-173.8,654.6-172.6z"/>
			<path id="XMLID_78_" class="st3" d="M669.6-171.2c0.2,0.4,1.2,1.3,2.9,0.9c1.7-0.3,4.2-0.6,5.4-0.8c1.2-0.2,1.5-2.5,0.1-2.7
				c-1.3-0.2-2.4-1.6-3.6-1.1C673.3-174.4,669.2-172.3,669.6-171.2z"/>
			<path id="XMLID_77_" class="st3" d="M669.2-177.9c-0.6,1.7,5.3,2.5,4.6,0.6C673.2-179.2,669.9-179.8,669.2-177.9z"/>
			<path id="XMLID_76_" class="st3" d="M670.3-186c-1.7-0.5-4.5-1.1-4.5-1.6s-0.8,2.2,0.7,3c1.5,0.8,3.8,2.2,5.6,3
				c1.7,0.8,5,0.9,6.1,2.5s4.6,2.9,4.6,2.9l4.2,0.5c0,0,2.9-0.8,6-0.5c3.1,0.3,7.6,0.8,10.1,0.6s2.9-1.1,3.2-1.7
				c0.3-0.6-4.6-1.9-5.8-1.7c-1.2,0.2-8,0.2-10,0c-2-0.2-4.5-0.2-6.1,0c-1.6,0.2-2.8-1.3-4-2.1c-1.2-0.8-3.8-3.3-5.4-3.7
				C673.3-185,673.6-185,670.3-186z"/>
			<path id="XMLID_75_" class="st3" d="M836.9-153c-0.5,1.1-1.6,1.1-0.5,3.3s1.9,3.5,2.8,3.3c0.9-0.2,4.1-0.3,4.5,1
				c0.4,1.3,1.5,2.4,3.7,1.6c2.3-0.8,4.1-1.3,4.6-2.2c0.5-1,4.1-1.1,4.1-1.1s2.9-2.7,1.9-3.8c-1.1-1.1-3.6-1.9-4.8-2.1
				c-1.2-0.2-2.4,1.1-5,1.1c-2.7,0-4.4,1.3-5.4,0C841.7-153.1,837.3-153.8,836.9-153z"/>
			<path id="XMLID_74_" class="st3" d="M723.7-184.4c1.5,1.3,2.3,0.5,4.1,1s3.3,4,4.2,4.4c1,0.5,2.3,0,2.9-1
				c0.6-0.9,1.5-4.3,1.5-4.3s0,3.2,1.5,3.8s5.1-0.5,6.1-0.3s6.7,1.1,8.2,2.1c1.6,1,5.5,1.6,6.6,3.6c1.1,2.1,1.2,9.2,1.8,10
				c0.6,0.8,2.7-2.5,3.2-3.3c0.5-0.8,3-0.3,3.9,0.8c0.8,1.1,2.8,3.8,2.7,4.9c-0.1,1.1-0.5,2.9-1.2,2.2c-0.7-0.6-1.9-0.5-1.5-1.7
				c0.5-1.3,0.7-4-0.2-4c-1,0-1.8,0-1.8,0s-1.8-0.6-3,1.7c-1.2,2.4-0.2,4.8,0.6,4.8s2.8,0,2.8,0.6s-2.1,2.5-1.9,3.7
				c0.1,1.1,1.7,4.9,2.2,5.7c0.5,0.8,3,1.6,3.8,1.7c0.7,0.2-1.7,0.3-1.1,1.4c0.6,1.1,1.6,3.8,2.9,4.4c1.3,0.6,5.1,3.5,5.6,4.8
				c0.5,1.3,3.4-0.9,4-1.1c0.6-0.2,0.5,3.3,2.2,3.5c1.7,0.2,2.3-0.3,3.8-1.7s1.1-3.3,1.2-4.8c0.1-1.4,0-2.5,1.6-2.1
				c1.6,0.5,2.4-0.3,2.3-1.9c-0.1-1.6-1.5-3.5,1.1-4c2.5-0.5,3.9-2.5,5.5-2.5c1.6,0,5.9,0.8,6.4,0s2.6-5.5,3.9-5.7
				c1.3-0.2,4.8,0.6,8,0s6.6-3,7.6-2.9c1.1,0.2,3.8,0.2,2.9-0.8c-0.8-1-2.1-3.2-3.9-3.2s-2.1-4.9-1.6-4.9c0.5,0,4.9,1.9,4.8,3.5
				c-0.1,1.6,0.7,3.6,3.2,3c2.4-0.6,2.1-3,1.6-3.7c-0.5-0.6-0.8-2.2-1.3-3.3c-0.5-1.1-1.6-4.6,0.9-4.9c2.5-0.3,7.3,3.3,7.2,0.8
				c-0.1-2.5,0-5.2,0.7-6.7c0.7-1.4,2.3-2.4,1.5-2.9c-0.9-0.5-1.9,0.6-2.8-1.7c-0.8-2.4,0.7-4.1,1.7-5.1c1-0.9,6.1-7.1,8.9-8.1
				c2.8-1,4.7-4.6,2.8-5.4c-1.9-0.8-5.8-2.2-8.4,0.3c-2.5,2.5-4,4.9-6.9,4.1c-2.9-0.8-3.4-5-5-7.2c-2.4-3.1-0.9-9.3-3.5-8.9
				c-2.6,0.5-2.6,0.5-2.6,0.5s-3-0.6-4.8-0.2c-2.4,0.6-4,2.4-5.4,2c-2.7-0.7-5.2,1-5.8,1.1c-5.9,1.6-10.7-0.6-11.6-0.7
				c-0.7-0.1,4.2,0.7,7.9,0c2.9-0.5,7.7-1.7,10.1-2.2s0.5-1.6-0.4-1.7c-3.1-0.4-7.7-1.9-11.4-2.1c-2.9-0.2-4.8,0.9-7.6,1
				c-3.7,0.1-8.1-0.1-11,2c-2.5,1.9-5.8,2.1-6.1,2.4c-1.5,1.9-2.8,6.7-4.1,5.4c-1.3-1.3-1.6-4.4-3.3-3.2c-1.7,1.3-0.1,4.4-1.6,6.7
				c-1.5,2.2-5.6,1.9-6.8,1.1c-1.2-0.8-2.4-1.4-7.3-1.1c-4.9,0.3-10.2,2.2-9.1,4.1c1.1,1.9-2.2,3-3,2.1c-0.9-1-4.7,1.1-4.5,3
				c0.2,1.9-0.6,4.1-2.7,3.6s-3.5,1.1-3.6,2.7c-0.1,1.6-4.7,2.7-5.1,2.7C727.5-186.1,721.5-186.3,723.7-184.4z"/>
			<path id="XMLID_73_" class="st3" d="M696.5-30.4c-0.2,2.4,1.8,1.7,4.2,1.7c2.4,0,6.6-0.5,7.4,0.7c0.8,1.2,4.4,3.1,5.4,4
				s4.2,1.2,4.4,0.2c0.2-0.9-2.2-3.6-3.6-3.3c-1.4,0.2-4.4-1.7-6-3.3c-1.6-1.7-4.6-1.7-5.8-1.7C701.3-32,696.5-30.4,696.5-30.4z"/>
			<path id="XMLID_72_" class="st3" d="M711-37c-1.8,0.2-1.4,2.9,0.8,2.4C714-35.1,712.8-37.3,711-37z"/>
			<path id="XMLID_71_" class="st3" d="M712-17.3c-1.8,0.4-1.4,4.6,0.8,3.9C715-14.2,713.8-17.7,712-17.3z"/>
			<path id="XMLID_70_" class="st3" d="M738.3-19.9c-1.8,0.4-1.4,4.6,0.8,3.9C741.3-16.9,740.1-20.3,738.3-19.9z"/>
			<path id="XMLID_69_" class="st3" d="M720.2-18.9c0,0,2.2,0.5,3.6,0.5s2.2,1,3.4,1.7c1.2,0.7,3.4-1,4.2-1c0.8,0,1.8,2.9,2-0.2
				c0.2-3.1-2.4-4.5-4-5c-1.6-0.5-3.4,0-4.6,0.2C723.6-22.5,720.2-18.9,720.2-18.9z"/>
			<path id="XMLID_66_" class="st3" d="M887.1-65.6c0.8-0.5,4-1.7,5.8-2.6c1.8-1,7.6-3.3,8.4-3.3s10.7,0.2,12.1-0.5
				c1.4-0.7,6.8-1.7,8.4,3.5c1.6,5.2-1.8,3.2-3.4,4.1c-1.6,1,0.6,3.1,1.4,3.1s3.6,3.1,5,3.1s4.8,1.7,4.8,1.7s3.4,3.1,5.2,3.1
				s4.8,3.7,6.8,1.3s2.9-7.3,4.9-6.8c2,0.5,4.2,2.4,6.8,2.4s7.4-0.5,8.2,0.7s-5.4,5.2-5,6.2c0.4,0.9,1.2,0.7,3.2-2.1
				c2-2.9,5-2.9,7.4-3.6c2.4-0.7,3.6,3.8,4,5.2s2.2,4,3.6,7.1c1.4,3.1,2.8,7.4,4.4,10.7c1.6,3.3-0.2,10,1.4,12.2
				c1.6,2.1,5.8,4,6.8,6.9c1,2.9,3.4,5.7,4.2,5.9s4.2,5.7,4.4,7.1c0.2,1.4-1.2,4.5,2,4.8c3.2,0.2,6-1.7,7-2.1c1-0.5,8.8-4,9.7-2.6
				c1,1.4-1.4,7.6-1.6,9.3c-0.2,1.7-6,9.8-6.2,11.9c-0.2,2.1-3.6,6-5.8,6.4c-2.2,0.5-6.8,7.1-8.4,9.3c-1.6,2.1-4.2,6.9-5.4,7.4
				s-2.1,6.8-1.5,7.8c0.6,0.9,0.7,5.3,2.5,7.2s2.4,3.3,1.6,5c-0.8,1.7,0.4,5.5,0,8.6s-3.8,6.2-4.6,7.1c-0.8,1-4.6,3.6-6.2,6
				s-3,4.5-2.6,5.7s2,7.1,1.8,8.6c-0.2,1.4-5.5,2.2-7.1,3.1c-1.6,1,0.7,4,1.1,5.9c0.4,1.9-2.8,5-4.2,6.7s-5.2,7.4-7.8,9.5
				c-2.6,2.1-6.3,1.7-8.9,1.5s-6.8,2.1-7.8,3.3c-1,1.2-2.4,1-4.4-0.2s-2.2-2.9-2.4-5.5c-0.2-2.6-0.8-4.3-0.8-4.3s-0.6-4-2.4-5.9
				c-1.8-1.9-2.4-4-3.4-5.5c-1-1.4,1.8-5.5,1.6-8.1c-0.2-2.6-3.6-5.7-4.6-7.4c-1-1.7-3-6.2-3.8-7.9s-1.8-5-1.6-9.7
				c0.2-4.8,2.2-7.5,3.8-9c1.6-1.4,1-3.2-0.4-6c-1.4-2.9,0.2-7.6-1-9.3s-3-11-5.2-12.4c-2.2-1.4-4.5-1.4-3.3-4.7
				c1.2-3.3,0-6.7,2-8.8c2-2.1,1-3.6-1.2-5c-2.2-1.4-1.4-2.1-3.2-0.5c-1.8,1.7-4.2,2.6-5.6,0.9c-1.4-1.7-1-4.3-3.6-6.2
				c-2.6-1.9-6.7-1.2-7.7-0.8c-1,0.5-3,4.6-5.8,5.1s-4.8-0.2-7.6-0.2c-2.8,0-5.2,0.2-5.6,1.9c-0.4,1.7-1,2.6-2.8,0.9
				c-1.8-1.7-5.4-5.5-5.4-5.5s-3.3-6.6-4.3-9.4c-1-2.9-4.5-2.9-8.2-5.1c-3.8-2.1-1.6-4.5-2-6.9s-2.4-3.3-1.4-3.6
				c1-0.2,0.8-1.9,3-5.2c2.2-3.3,0.8-6.9,0.4-8.8c-0.4-1.9-2.4-4.8-0.4-7.8c2-3.1,3.2-10.5,4.8-12.4c1.6-1.9,6.3-3.8,8.5-5
				s0.8-4.3,2-7.9c1.2-3.6,3-5.2,3.6-5.2c0.6,0,2.8-2.5,5.2-4C882.1-66.5,886.3-65.1,887.1-65.6z M974.1,32.2c-0.5-1-4-0.7-4.6,0.5
				c-0.6,1.2-1.2,6.7,0.6,7.1C971.9,40.3,975.1,34.1,974.1,32.2z"/>
			<path id="XMLID_65_" class="st3" d="M1010.4,67.4c-2.5-0.9-2.8,3.1-4.8,5.7c-2,2.6-4.2,4.8-5,4.5c-0.8-0.2-5.2,1.7-3.8,5.2
				c1.4,3.6,1.2,7.1-0.2,8.8s1.2,6.4,0.8,9c-0.4,2.6,0.6,4.3,3.4,4.3c2.8,0,3.8-1.2,5-4.3s1.4-6.2,2.6-8.8c1.2-2.6,2.2-8.1,2.8-9.5
				s1.8-6,1.6-8.6C1012.6,71.2,1011.8,67.9,1010.4,67.4z"/>
			<path id="XMLID_64_" class="st3" d="M1082.6,6.3c-1.3,0.7-2.6,12.1-0.2,13.1c2.4,1,4-7.1,3.2-8.3
				C1084.8,9.8,1084.4,5.3,1082.6,6.3z"/>
			<path id="XMLID_63_" class="st3" d="M914.9-82.5c-1.9,0-2.8,3.6-1.6,4.8c1.2,1.2,2.4,1,3.4-0.7C917.7-80.1,915.9-82.5,914.9-82.5
				z"/>
			<path id="XMLID_62_" class="st3" d="M899.8-78.7c-0.5,0.9,1.6,1.2,2,0.2C902.2-79.4,901.2-81.3,899.8-78.7z"/>
			<path id="XMLID_61_" class="st3" d="M923.5-74.6c-0.7,0.5,1.2,2.1,2.2,2.6c1,0.5,1.8,1.9,2.6,2.1s3.4,0,2.6-2.4
				c-0.8-2.4-2.6-2.4-3.2-2.4C927.1-74.6,924.5-75.3,923.5-74.6z"/>
			<path id="XMLID_60_" class="st3" d="M875.9-122.7c-1.8,0.4-2,2.6-3.2,2.6c-1.2,0-2.6,0.5-2.2,2.1c0.4,1.7,1.2,2.9,0,3.6
				c-1.2,0.7,0.2,3.6,1.8,3.8c1.6,0.2,3.4-1.2,4.8-1.9s3.4-2.1,3.4-4.3c0-2.1-0.4-4-1.2-5C878.5-122.7,877.1-122.9,875.9-122.7z"/>
			<path id="XMLID_59_" class="st3" d="M878.1-129.8c-1.6,0.6-1,3.1-0.2,4.3c0.8,1.2,2.2,3.8,4.2,4.8c2,1,6.2,1.9,4.6,2.9
				c-1.6,1-6.2,5.6-6.6,7.1c-0.4,1.4,5.2,0.8,5.2,0.8s-1.2,1.7-0.2,2.1c1,0.5,1.6-1.7,3.2-1.7s4.8,1.2,6.4,1.2c1.6,0,4.2-2.6,4-4.3
				c-0.2-1.7-2.2-4.3-4-5.2c-1.8-1-3.8-5.2-5-6.2c-1.2-1,4.4-4.1,3-5.8s-5.6-0.7-7.2-1.9c-1.6-1.2-3,0.2-4,1.7
				C880.5-128.6,879.3-130.3,878.1-129.8z"/>
			<path id="XMLID_54_" class="st3" d="M891.3-96.7c-0.2-2.1-4.2-4-6.8-4.5s-2.2-1.9,0.6-2.1c2.8-0.2,2.6-1.4,5-1.9
				c2.4-0.5,4.8-1.2,6.6-1.4c1.8-0.2,1.8-2.1,1.8-3.6c0-1.4,5-1.9,5-1.9s2.8-3.1,4.4-4.5c1.6-1.4,4.4-1.2,6.6-0.5
				c2.2,0.7-0.2-1.7-1-2.9c-0.8-1.2-0.2-3.8,0.4-5.2c0.6-1.4,4.2-2.1,5.2-1.7c1,0.5,0,2.6,0.2,4.5c0.2,1.9,1.8,3.1,1.8,3.1l1.6-0.2
				c0,0,0,0,2.6,0c2.6,0,2.7,0.1,4.7-0.7c2-0.7,3.4,0.2,4.2-0.3c0.8-0.5,3-0.5,6,0.7c3,1.2,1.4-2.1,2-4c0.6-1.9,1.8-5.2,3.8-5
				c2,0.2,3.6,1.7,5.2,0.5c1.6-1.2-3-2.9-3-3.6s3.8-0.7,7.2-1c3.4-0.2,5.4,0,7-0.5c1.6-0.5-1.2-3.8-1.8-3.8c-0.6,0-4.6,0.5-6.6,0.2
				c-2-0.2-4.2,1.4-6,1.9s-2.2-2.9-3.2-4.3s-1.4-4,1.2-5.5c2.6-1.4,7.2-4.5,8-5.9s-3.2-1.2-7-1c-3.8,0.2,0.6,1.4-3,5.7
				s-5.4,1.4-8.2,4.3s-0.8,3.1,1.8,4s0.4,3.8-0.2,4.5s-3.6,3.3-3.2,5.2s-2,3.1-2,3.1s-7.4,1.9-8.8,2.1s-1.8-1.2-1.4-2.6
				c0.4-1.4-1.6-4.8-1.8-6.9c-0.2-2.1-3.2,0.9-3.4,2.4c-0.2,1.4-4,1.7-6.2,0.7s-3.4-4.5-3-5.2s-1.2-4.3-1.2-5.2s4.6-7.9,8.4-8.8
				c3.8-0.9,8.3-3.3,10.9-5.7c2.6-2.4,3.8-5.2,4.6-6c0.8-0.7,14.5-8.6,19.5-9.6c5-0.9,15.9,4.8,17.7,5.3s2.8,1.2,7.2,3.1
				s8.5-0.2,11.3,0.3s4.2,3.5,6,4.5c1.8,1,0,1.7-4.4,3.3c-4.4,1.7-7.4,1.2-9.7,0.2c-2.4-1-3.8-1-2,0.5c1.8,1.4,1.2,2.1,1.4,4.3
				c0.2,2.1,3,0.2,3.6-0.2c0.6-0.5,0.6-1.4,2.8,0.2c2.2,1.7,3,0.7,4,0.5c1-0.2,0.2-2.9,0.8-3.8c0.6-1,3-1,3.6-1.4
				c0.6-0.5,2-1.2,3.2-1.4c1.2-0.2,1,2.1,2.2,2.9c1.2,0.7,0.6-3.1,0.2-4c-0.4-1-0.8-3.6-0.2-4.3s4.8-1.2,5.8-0.2s-1.6,3.8-1,5.5
				c0.6,1.7,2-0.9,3-2.4c1-1.4,3.2,0,6.8-0.7s2.8-3.1,6.6-1.7c3.8,1.4,2.8,1.4,4,0c1.2-1.4,3.4,0.2,5.6-0.7c2.2-1,2.2,0,3.8,1
				c1.6,1,3.6-1.9,4.4-2.9s4-1,5.6-0.7c1.6,0.2,3.6,1.4,5.2,1.4c1.6,0,4.2,1.4,4.2,1.4s3.4,1.4,4.2,0.5c0.8-1-0.2-2.1-3.2-3.8
				c-3-1.7-1.8-4.5,0-4.8c1.8-0.2,1.6-1.4,3-2.4c1.4-0.9,3.2-4.5,4.8-3.8c1.6,0.7,3,2.1,5,3.3c2,1.2,0.2,2.9-0.2,4
				c-0.4,1.2,0.4,5.7,1,6.4s-0.6,3.3-2.2,4.5c-1.6,1.2-3.8,3.8-3.2,4.3c0.6,0.5,5.4-2.1,5.4-2.1s3-4.3,4.4-5.5s2.8-1.2,3.2,0.2
				s2.6,1.9,4.6,1c2-1,0-1.7-0.2-3.8c-0.2-2.1-3.4-1-5.2-0.5c-1.8,0.5-3.2,2.6-3.8,2.6c-0.6,0-0.6-1.4-0.2-3.6
				c0.4-2.1-0.8-3.3-0.8-4.5s0.6-1.2,2-3.6c1.4-2.4,1.4,1.7,1.6,3.8c0.2,2.1,1.6,1.2,2.8,1s0.6-3.1,1.6-4.5c1-1.4,3.2-1.7,5.2,0.5
				c2,2.1,1.8,1.4,4.2,2.4s2.6,1.2,2.8,3.3c0.2,2.1,1.8,2.4,2.8,1.7c1-0.7,0.2-3.6-0.4-4.5c-0.6-1-5.4-2.6-7-4.3
				c-1.6-1.7,0.8-1.7,2.6-1.7c1.8,0,5.2,0.2,5.2,0.2s3.8-1,5.8-2.6c2-1.7,3.4-1.7,5.4-2.6c2-1,5.2-1,7.2-0.5s3.4-1,5.4-1.9
				s4.6-7.1,4.8-1.2c0,0.8,5.6,1.9,6.4,1.7c0.8-0.2,2.8-0.5,5.8-2.4c5.8-3.6,0.8-5.2,3-1.9c0.8,1.2,3.2-0.9,7.4,1.2
				c4.2,2.1,0,0,1.2,1.4s1.8-0.2,4.6-0.7s4.6,0,6.4,0.2c1.8,0.2,5.8,0.2,7.6,1.7c1.8,1.4-1.2,4.5-2.2,5.5c-1,0.9,1.6,1.7,2.4,1.4
				c0.8-0.2,7.4,0,10.3,0.5c3,0.5,4.2,2.1,5.6,2.1s3.6-0.7,4.4-1.7c0.8-0.9,5.8-1.4,7.4-1.7c1.6-0.2,6,0,6.6,0.5s1.2,2.9,1.2,4.8
				s1.8,3.6,3.2,3.8s4-2.9,5-3.3c1-0.5,2.2,2.1,2.8,1.4c0.6-0.7,5.6,0.2,7.6-1c2-1.2,3.2,0,4.2-0.5c1-0.5,2.6-3.1,2.6-4
				s0.8-1.7,0-3.1s-3.6-0.5-6.6-1.4c-3-1,0.1-5.9,1-3.3c0.5,1.5,3.2,0,5.2,0.5c2,0.5,1.2-0.7,2.2-0.7c1,0,4.6,1.2,6.6,1.2
				s3.6,2.6,3.6,2.6s-5.6,1.9-6.8,1.9c-1.2,0-0.4,1.9,0.6,1.9c1,0,2.4,0.7,3.8,1.9s7.6,0,8.4,0c0.8,0,3.2,1.2,5.6,2.9
				c2.4,1.7,4,2.4,4,2.4s3.4,0,6.8-0.5c3.4-0.5,7.8-0.5,8.6,0.2c0.8,0.7,3,1.4,4.6,3.1c1.6,1.7,2.8,1,5,0.7c2.2-0.2,4.4-0.7,6.4-0.7
				s8.6-0.2,9.8,1.9c1.2,2.1,2.6,1.7,2.6,1.7s1.8-3.8,2.6-4.5c0.8-0.7,3.4,0.5,5,1.4c1.6,1,9.4,0,11.3,0.5c2,0.5,4.8,2.9,3.2,4.8
				s1.2,5.2,0.6,7.1c-0.6,1.9-2.2,2.1-3.8,2.6s1.6,2.9,3,4.5c1.4,1.7-0.8,2.1-2.2,1.4c-1.4-0.7-5,0.2-9.6,1.7
				c-4.6,1.4-6.4,4.3-11.1,4.5c-4.8,0.2-2.8-0.2-8.8-0.2c-6,0-5.8,1.9-7,4.3c-1.2,2.4,0.6,1.9,0,3.8c-0.6,1.9-1.6,4-1.6,5.7
				s-3.6,1.9-4.8,3.3c-1.2,1.4-3.2,5-6.6,7.6c-3.4,2.6-5.8,6.7-5.8,6.7s0.6-4,2.2-6.9c1.6-2.9-1.8-6.9-2-10c-0.2-3.1,1-4,3-6.9
				s6.8-3.8,8.8-5.2s10.2-8.1,10.2-8.1s-1.6,1.2-3.6,2.1c-2,0.9-4.4,2.9-6,2.9s-1-1.9-1.2-3.8c-0.2-1.9-4-0.5-5.4,1.4
				s-4,3.1-6.8,5.5s-2,2.1-3.8,2.4c-1.8,0.2-4.8-1.2-6.2-2.4s-2.8,0.9-7.2,1.2c-4.4,0.2-9.4-0.5-11.3-0.2c-2,0.2-7,7.1-10,8.3
				s-6.8,3.3-5.8,5c1,1.7,2.8-1.4,3.6-1.4c0.8,0-0.6,3.3,1.2,3.3c1.8,0,2.8-1.2,4.6-1.4c1.8-0.2,3.2,1.7,3.6,4.3
				c0.4,2.6-0.8,4.8-1.6,8.1c-0.8,3.3-2,6.7-5.2,9.5c-3.2,2.9-8.4,8.1-9.4,9.5c-1,1.4-4.6,0.2-5.2-0.7c-0.6-1-2.4,2.1-3.8,2.9
				c-1.4,0.7-2.8,2.1-2.8,4s-4,1.9-4,3.1s2.4,4.5,3.4,6.2c1,1.7-0.2,6.9-2,8.1s-2.6,2.6-5,1c-2.4-1.7-0.4-2.6,0.6-5.2
				c1-2.6-1-4-1.4-4.8c-0.4-0.7-2,1.4-2.8,1.7c-0.8,0.2-0.8-2.1-0.2-3.6c0.6-1.4-0.4-4.5-1-4.8c-0.6-0.2-4.4,3.6-6,3.3
				c-1.6-0.2-0.2-4.5,0.4-5.7c0.6-1.2-1.2-0.2-2.4,0.9c-1.2,1.2-3.8,3.8-4.8,3.6c-1-0.2-3,1.9-1.4,3.3c1.6,1.4,2.2,2.6,3.2,2.9
				c1,0.2,3.6-0.5,4.6-0.7c1-0.2,3,1.7,1,3.8c-2,2.1-6.2,2.4-5.4,3.8c0.8,1.4,2.8,3.6,4.4,6.9c1.6,3.3,1,6.9,1.4,9.5
				c0.4,2.6-5.8,8.1-7.6,9.8s-3.6,5.7-6.6,7.6c-3,1.9-9.4,3.6-10.4,2.9c-1-0.7-3.8,1.2-3.6,3.8s1.6,2.4,1.6,3.1s-2,3.6-2.8,4.8
				s-3.6,0-3.2-3.6c0.4-3.6,2.4-5,2.2-6.7c-0.2-1.7-2-2.6-3.2-1.2s-5,5.5-5,5.5s1.4,4.3,3.2,6c1.8,1.7,3,4,5.4,7.6s0.6,6.7,0,9.3
				s-2.6,2.6-4.2,3.1s-2,1.2-2.6,2.6c-0.6,1.4-3.5,8.3-3.9,7.1c-0.4-1.2-2.9-9.2-2.9-9.2s-1.8-4.3-4.4-6.4s-3.6-3.1-3.6-0.9
				c0,2.1-1.6,6.2-1.6,7.6s-3.6-4.3-3.6-6.7s-0.6-6.4-0.4-10.2s-4.2-0.2-4.2-0.2s-3.4,8.5-4.4,8.5c-1,0,0-7.8,0.2-10.7
				s-1-5.5-1.6-6.4c-0.6-1-4-4.8-4.6-7.4c-0.6-2.6-1.8-1.7-3-0.2c-1.2,1.4-0.8,1.4-5.6,1.4c-4.8,0-4.6,3.6-7,5.7
				c-2.4,2.1-4.4,6.2-7.2,7.6c-2.8,1.4-4,2.9-4,4.5c0,1.7,1.1,7.2,0.5,9.5c-0.6,2.4-2.1,4.5-3.5,6.9s-2.6,6.2-3.8,6.2
				c-1.2,0-1.6-3.3-1.6-5.5c0-2.1-3.4-7.1-4.2-8.8c-0.8-1.7-3.8-9-3.8-9s-2.4-7.8-2.2-10c0.2-2.1,0.2-8.1,0.2-8.1s-3.2,3.8-4.6,3.6
				s-2.8-2.9-2.6-5.9c0.2-3.1-2.4-2.9-3.8-3.3c-1.4-0.5-3.2-4.8-4.2-4.8c-1,0-1.6,0-2.4,1.4s-5,1.2-6,1.2s-7-0.2-8.8-1
				c-1.8-0.7-3.8-5-4.8-5.5c-1-0.5-4,2.6-5.2,2.1c-1.2-0.5-3.6-2.9-6.2-4.3c-2.6-1.4-3.4-4.8-4.4-6.9c-1-2.1-4.4,1.2-4,3.6
				c0.4,2.4,4.8,5.5,4.8,7.1c0,1.7,0.8,2.1,3,4.3c2.2,2.1,0.4,3.3,1.8,3.8c1.4,0.5,3.4-1.9,5.4-3.1c2-1.2,1.8-2.9,2.8-2.9
				s0.8,3.1,2.4,3.3c1.6,0.2,5.8,3.1,6.8,5s-1,3.1-1.8,4.8c-0.8,1.7-3.2,6.4-5.2,8.3s-4.2,4.5-7.2,5.2c-3,0.7-3.4,2.6-5.8,2.9
				c-2.4,0.2-9,4-10,4.8c-1,0.7-6.4,2.6-8,1.9c-1.6-0.7-2.2-5.5-2.8-9c-0.6-3.6-1.4-5.5-2-6.9c-0.6-1.4-4.2-5.2-5-5.9
				s-2.8-6.4-3-8.8c-0.2-2.4-2.4-1.4-2.8-4s-2.6-6.2-3-7.9s-4.4,0.2-6,0.5c-1.6,0.2-4.6-1.4-4.2-5.2s2-3.8,4-3.8
				c2,0,1.2-1.2,3.2-3.6c2-2.4,2.6-7.1,2.8-10.2c0.2-3.1-1.4-1.7-3-1.2c-1.6,0.5-4,1.2-4.8,0.9c-0.8-0.2-4-1.4-4.6-0.7
				c-0.6,0.7-4,0.2-4.8-0.9c-0.8-1.2-4.8-2.6-5.2-3.6s0-6.7-0.8-8.1c-0.8-1.4-2.6,0.2-3.6,1.2c-1,1-3.8,1.7-3,2.4
				c0.8,0.7,3.4,2.1,3.2,4c-0.2,1.9-2,2.4-3,3.3c-1,1-4.6,4.7-5.2,3.5c-0.6-1.2-1-8.8-1.6-9.7c-0.6-0.9-2.4-3.3-3-5.5
				c-0.6-2.1-2.8-2.9-4.2-4.5c-1.4-1.7-5.4-4.3-7-6.2c-1.6-1.9-4.4-3.3-4.6-1c-0.2,2.4,2.8,2.9,4,5.2c1.2,2.4,3.8,3.8,5.2,4.5
				c1.4,0.7,5.2,3.8,5.2,3.8s-1.6,0.7-3,0.5s0.8,5.1,0.6,6.8c-0.2,1.7-2.6-0.6-3-2.5s-1.6-4-2.4-4.8c-0.8-0.7-6-2.6-6.8-3.1
				s-4.2-3.1-4.6-5.2c-0.4-2.1-3.4-2.4-4.2-1.9c-0.8,0.5-3.8,3.1-5.2,3.1s-3.6-1.2-5.2-1.4c-1.6-0.2-1.8,3.1-2.4,5s-3.2,0.5-4.6,2.1
				c-1.4,1.7-3.8,3.3-3.2,4.8c0.6,1.4,1.6,1.4-0.2,2.6s-2.8,3.6-4.6,3.8s-4.2,1.2-5.2,0.5c-1-0.7-1.8,2.4-2.4,3.1
				c-0.6,0.7-1.6-2.1-2.6-3.3c-1-1.2-3.6-0.2-4.4-0.5c-0.8-0.2-1.6-2.4-2.6-3.3c-1-1-0.8-3.1,0-3.8c0.8-0.7,1.6-1.9,1-4
				c-0.6-2.1-1-6.9,1-7.9c2-1,6.8,0,9.2,0c2.4,0,6.5,1,7.2-0.5C891.1-92.2,891.5-94.6,891.3-96.7z M966.3-138.6
				c-0.7,2.2,4.6,4,5.6,2.4C972.9-137.9,967.3-142,966.3-138.6z M959.5-81c0.4,0.9,2.4-1.4,4-1.4c1.6,0,5.2,0.7,6.2-1
				s4.2-1.9,6.8-1.4s4.8,2.6,6.6,2.9c1.8,0.2,6.6-0.2,8.2-0.7s1.2-3.8-1.4-5.5c-2.6-1.7-4.8-4.3-7.2-5.2c-2.4-0.9-3.2-1.9-1.8-2.4
				s3.2-2.4,1.2-2.4c-2,0-3.8,0.7-4,1.9c-0.2,1.2-1.4,2.6-2.2,3.1c-0.8,0.5-2.8,2.4-3.4,1c-0.6-1.4-2.8-5.7-3.8-5.9s-2.6,0-3.8,2.4
				c-1.2,2.4-2.6,4.8-3.8,5.7c-1.2,1-2.8,3.8-1.6,4.3C960.7-85.3,959.5-81,959.5-81z M1005.2-97.7c-2.4,1.9-3.2,4.5-2.2,6.2
				s3.8,6.9,5.2,7.4s6.4,1.4,4.4,3.6c-2,2.1-2.4,2.9-4.2,2.6c-1.8-0.2-1,5.7,0.4,6.2s5.6,2.1,7,2.4c1.4,0.2,6-0.5,5.8-1.9
				c-0.2-1.4-1-7.1-2.6-8.6c-1.6-1.4,2.2-2.9,1.2-4c-1-1.2-2.4-0.7-3.2-2.1c-0.8-1.4-1.2-2.9-2.4-3.8c-1.2-1-2.2,1-2-1.7
				c0.2-2.6,3-4.3,4.2-2.9c1.2,1.4,4.8,0.7,5.6,0c0.8-0.7-1.6-2.9-2.2-4.3s-4.6-2.6-5.2-2.1c-0.6,0.5-2.2,1.9-3.8,3.1
				C1009.6-96.5,1006.4-98.7,1005.2-97.7z"/>
			<path id="XMLID_53_" class="st3" d="M1028.1-165c-1.5,1.8-4.6,1.2-6.8-0.2c-2.2-1.4-4.8-1.7-6-2.1c-1.2-0.5,0.2-3.3,1.6-4
				c1.4-0.7,5.2-2.9,8-4.3c2.8-1.4,3.6-4.3,5.6-4.3s11.5-2.4,12.7-1.9c1.2,0.5,7,0.9,8.2-1s5.4-0.7,4.4,1c-1,1.7-4.6,5.5-7,4.8
				c-2.4-0.7-9.2-0.5-12.1,0c-3,0.5-5.8,2.6-8.4,4.3s-2,3.6-1,3.8C1028.3-168.8,1029.3-166.5,1028.1-165z"/>
			<path id="XMLID_52_" class="st3" d="M1229.7-117.7c-1.2,0.4-4.6-0.5-3.4,2.9c1.2,3.3,1.4,5.7,1.2,8.3c-0.2,2.6,0,8.1,0.4,8.8
				c0.4,0.7,2,2.4,3,1.9c1-0.5-0.4-5.2-0.4-6.2s1.4-2.4,2.2-2.6c0.8-0.2,0-4.3-1-6c-1-1.7-2.4-2.6-1.6-2.9c0.8-0.2,1.8-2.1,1.2-2.6
				C1230.6-116.5,1231-118.2,1229.7-117.7z"/>
			<path id="XMLID_51_" class="st3" d="M1227.7-93.4c-1.5,0.4-2,2.9-2,3.6s-5.6,2.1-3.8,4s3.6,0.5,6.4,0.2c2.8-0.2,5.4-1.2,5.4-1.2
				s4.2,0.2,3.6-2.1c-0.6-2.4-5-2.6-5.8-2.4C1230.6-91,1229.2-93.9,1227.7-93.4z"/>
			<path id="XMLID_50_" class="st3" d="M1223.1-84.1c-1.5,1.1-0.6,5.2-1.8,8.1c-1.2,2.9-2.2,5.5-3,5.5s-5,1.9-6.2,3.3
				c-1.2,1.4-7-1.2-7.8,0s-2.4,2.6-3.4,3.6c-1,1-3.8,0.2-3.2,3.1c0.6,2.9,2,5.5,3.2,5.5c1.2,0,2.8-0.9,2.8-3.6c0-2.6,2.8,0,4.2-0.2
				c1.4-0.2,2.2-1.9,2.8-3.8c0.6-1.9-0.8,1,1.6,1.7c2.4,0.7,3.2-1.2,3.2-1.9c0-0.7,4.4-1.9,5.2-2.6c0.8-0.7,4-1.9,4.2-2.9
				c0.2-1,0-6.4,1-6.9c1-0.5,2.4-0.5,0.8-3.8C1225.1-82.5,1225.1-85.6,1223.1-84.1z"/>
			<path id="XMLID_49_" class="st3" d="M1179.2-37.3c-2.9,0.5-4.8,8.1-2.4,7.9C1179.2-29.7,1181.8-37.7,1179.2-37.3z"/>
			<path id="XMLID_48_" class="st3" d="M1302.1,131.2c-0.8,0.5,0,3.1,0.8,4c0.8,1,1.2,4.3,1,5.2s-3.6,2.1-2,3.3
				c1.6,1.2,4.6,0,4.2,1.4c-0.4,1.4-2,3.3-0.2,3.8c1.8,0.5,2.4-1.7,3.2-3.3c0.8-1.7,1.4-3.1,2.8-4c1.4-1,0-3.1-0.8-3.1s-1.2,1.2-3,0
				s-1.4-0.7-2.6-3.1C1304.3,133.1,1304.1,130,1302.1,131.2z"/>
			<path id="XMLID_47_" class="st3" d="M1300.5,146.4c-0.3,1.2-2,1.4-3.2,2.6c-1.2,1.2,0,1.7-3.4,4c-3.4,2.4-7.6,5-8.4,7.1
				s0.8,3.3,4,3.6c3.2,0.2,2.4,1,4.6-1.9s4.2-4.5,6.8-6.9s2.6-6,2.6-6S1300.7,145.7,1300.5,146.4z"/>
			<path id="XMLID_46_" class="st3" d="M1234,148.3c-2.2,2.6,2.2,2.6,1.6,5.2c-0.6,2.6,3,1.7,4,1.2c1-0.5,3.4-6,3-7.4
				c-0.4-1.4-4.4,2.4-5.4,2.1C1236.2,149.3,1234,148.3,1234,148.3z"/>
			<path id="XMLID_45_" class="st3" d="M1219.4,129.8c0-2.4-1.2,2.6-2,0.5s0.8-5.7-1.2-4.3s-3,2.6-3.2,3.8c-0.2,1.2-3.8,1.7-3.6,0.5
				c0.2-1.2,1.6-4,0.2-5.2s-3.8-1.7-5.6-2.4c-1.8-0.7,0.2-3.1-4.6-1.9s-6.6,2.6-6.6,2.6s-4.4-1.7-5.8,0.2s-2.2,8-2.2,8s-6.8-2.2-8-2
				c-1.2,0.2-3.2,2.1-5,2.9c-1.8,0.7-4.8,1.4-6,0.2c-1.2-1.2-3.2-3.3-2.6-4.8c0.6-1.4,5-3.3,3.4-5.7c-1.6-2.4-2.6-2.9-2.8-4.3
				c-0.2-1.4,0.6-2.1-1.8-5c-2.4-2.9-1.8-6.2-0.8-6.7s-3.3-3.3-4.1-4.5s1.9-5.5,3.5-6.7s6.4-5.7,7.8-5.7s3.6,0.7,5-0.5
				s5.6-0.7,5.6-1.7c0-0.9-1.2-8.6-0.2-9.8c1-1.2,6.7,1.5,7.3,0.5c0.6-0.9,1.6-5,2.8-5.7c1.2-0.7,2.2-2.4,4,0s3.6,3.3,4.4,1
				c0.8-2.4,0.2-1.7,2-3.8c1.8-2.1-0.2-5.7,1.6-3.6c1.8,2.1,3,3.8,3,3.8s-0.2-4.8,1-4.8s2.4,2.4,3,2.4s6-1.4,7,0.2
				c1,1.7-2.8,6.2-1.4,7.9s4.2,2.6,6.2,4c2,1.4,4.4,4.8,5.4,1.9c1-2.9,3-7.1,1.6-9.3c-1.4-2.1,0.4-9,1-9.5s1.6,5.5,3.6,8.1
				s4,4.5,5,7.4c1,2.9,1.2,7.9,3,9.5c1.8,1.7,8.7,1.5,8.5,3.7c-0.2,2.1,0.7,6.3,2.9,10.4c2.2,4,6.4,13.5,6.4,17.3s-6.4,8.1-8.2,11
				c-1.8,2.9-2.4,6.7-3.2,8.1c-0.8,1.4-0.4,1.2-3.4,2.1c-3,1-5.2,3.8-6,2.9c-0.8-0.9-3.6-2.6-4.4-1.4c-0.8,1.2-1.8,3.8-3.2,1
				c-1.4-2.9-4.6-2.4-5.2-2.9s-0.6-1.9-0.6-4.3s-2.6-2.6-2.8-3.3C1220,131.2,1219.4,130.5,1219.4,129.8z"/>
			<path id="XMLID_25_" class="st3" d="M1311.3,83.1c2.6,1.2,7.2-4.3,5.4-5C1314.8,77.4,1311.3,83.1,1311.3,83.1z"/>
			<path id="XMLID_24_" class="st3" d="M1286,95c-0.4,2.3-2.8,1.2-4-0.9s-3.6-3.8,0-2.9C1285.6,92.2,1286.2,93.8,1286,95z"/>
			<path id="XMLID_23_" class="st3" d="M1118.1,17.4c-2.5,0.6,3.6,5.7,4.2,6.4s6,6.2,6,8.8s1.7,10.8,2.7,11.7c1,1,7.8,2.6,8.6,4.5
				c0.8,1.9,2.6,2.4,2.6-0.2c0-2.6,0.4-5.7,1.4-7.1c1-1.4,0.6-3.6-1-3.3c-1.6,0.2-3-3.1-5.6-5.2s-4.6-3.6-7-6.7
				c-2.4-3.1-5.4-5-7-6.7C1121.5,17.9,1119.1,17.2,1118.1,17.4z"/>
			<path id="XMLID_22_" class="st3" d="M1125.8,4.8c-1.6,0.2-1.6,3.8-0.8,5c0.8,1.2,2.4,0.5,3.4,4.8s3,8.6,3.8,10.2
				c0.8,1.7,4.2,4,5.4,5.2s3-0.5,2.2-1.9s-2.4-3.6-2.6-5.2c-0.2-1.7-1.2-4.3-2.8-7.1c-1.6-2.9-3-3.6-4-5.5
				C1129.4,8.4,1125.8,4.8,1125.8,4.8z"/>
			<path id="XMLID_21_" class="st3" d="M1142.6,49.8c-1.5,2.2,0.4,3.8,1,4.3s2.8,1,4.8,0.7c2-0.2,4.8-1,2.6-2.4s-4.8,0-5.6-1.9
				C1144.6,48.6,1143.4,48.6,1142.6,49.8z"/>
			<path id="XMLID_20_" class="st3" d="M1154.1,51.7c-1.4,0.7-3.6,1.2-2,2.9s2.6,2.4,5,2.1c2.4-0.2,6,1.4,6.2,0
				c0.2-1.4-2.2-3.6-3.2-3.6C1159.1,53.1,1154.1,51.7,1154.1,51.7z"/>
			<path id="XMLID_19_" class="st3" d="M1173.6,59.6c-0.4,2.1,3,3.1,3.2,0.7S1174,57.7,1173.6,59.6z"/>
			<path id="XMLID_18_" class="st3" d="M1184.2,61.2c0.3,2.6,4.4-1.4,4.4-1.4s3.2-0.5,3.2-2.1c0-1.7-3.2-3.8-4.4-1.9
				C1186.2,57.7,1184,59.6,1184.2,61.2z"/>
			<path id="XMLID_17_" class="st3" d="M1175.4,34.6c-1.2,0.5-1,1.7-1.4,4c-0.4,2.4-2.2,4-0.6,5.2s4.6-4,5.4-2.4
				c0.8,1.7-0.2,2.4,1.2,4.5c1.4,2.1,4,1.9,4,1.9s-0.2-5.7-2.4-7.1c-2.2-1.4-3.6-3.1-1-2.6c2.6,0.5,4-0.7,3.4-2.1s-4.4-0.7-5.6-0.5
				C1177.2,35.8,1175.4,34.6,1175.4,34.6z"/>
			<path id="XMLID_16_" class="st3" d="M1176.6,29.8c-1.4,1.7-0.4,3.3,1.8,3.1c2.2-0.2,6.8-1,7.8-1c1,0,2.4-3.1,1.6-3.1
				s-6.4,1.2-7,1.4C1180.2,30.5,1176.6,29.8,1176.6,29.8z"/>
			<path id="XMLID_15_" class="st3" d="M1196.9,26.5c-1.8-0.9-5.2,7.9-2.8,8.6C1196.5,35.8,1198.3,27.2,1196.9,26.5z"/>
			<path id="XMLID_14_" class="st3" d="M1169.6,13.9c-0.1-1.7-3.2,0.5-3.4,2.1c-0.2,1.7,2.2,3.1-1.6,3.1s-4,3.6-4.8,4.3
				c-0.8,0.7-1.6,0.9-3.2,1.4c-1.6,0.5-2,2.4-2.4,3.6c-0.4,1.2-3.2-2.1-4-1.2c-0.8,1-0.2,5.5,1.2,9.3c1.4,3.8,5,6.2,6,6.2
				c1,0,3,0,4.4,0.5s6,0.9,5.8-1.2c-0.2-2.1-0.6-5.5,1.4-7.6c2-2.1,4-3.3,3-6.4c-1-3.1-3-5-1.6-6.4s3-1.9,3-3.1
				C1173.4,17.2,1170,21.7,1169.6,13.9z"/>
			<path id="XMLID_13_" class="st3" d="M1179.4-19.7c-1.4,0,0.2,2.6-1.8,4.3c-2,1.7-4.2,2.4-3,5.2c1.2,2.9,5.4,5,4.4,6.2
				s-4,3.6-4.4,5.7c-0.4,2.1,4.8-3.3,6.2-5.5c1.4-2.1,4.2-0.9,4.8-2.1c0.6-1.2,0.6-1.2,0.6-1.2s-2.2-0.5-4-1.2c-1.8-0.7-4,1.9-3-1.9
				c1-3.8,4-3.1,3.4-5.9S1180-19.7,1179.4-19.7z"/>
			<path id="XMLID_12_" class="st3" d="M1181.2,1c-0.7,0.3-2.4,4.5-0.2,4.5c2.2,0,6,0.7,5.2-0.5C1185.4,3.9,1183.4,0.1,1181.2,1z"/>
			<path id="XMLID_11_" class="st3" d="M1187.8-2.5c-0.8-0.1-3.4,5,0.2,4.8C1191.5,2,1190.5-2.3,1187.8-2.5z"/>
			<path id="XMLID_10_" class="st3" d="M1188.3,6.3c-2.8,4.3-2.6,3.3-4.6,2.4c-2-1-5.2,2.1-4.6,3.3c0.6,1.2,5-0.2,6,1.9s1,2.4,3,1.9
				c2-0.5,4-3.8,3.4-5.5C1190.9,8.7,1188.3,6.3,1188.3,6.3z"/>
			<path id="XMLID_9_" class="st3" d="M1201.9,34.3c-1.5,1.8-2.2,1.9,1.2,2.6c3.4,0.7,4.4,0.7,3,2.6c-1.4,1.9-2.4,4.3-1.2,4.5
				s4.8-0.9,5.2,0c0.4,1-0.8,1.2,3.2,1.9c4,0.7,4.8,2.4,5.6,3.3c0.8,1,3.2,4,1.6,4c-1.6,0-3.4,2.4-2.2,2.6c1.2,0.2,4.8-0.7,5,0
				c0.2,0.7,2.2,5.2,4.2,5c2-0.2,3.2-4.5,4.2-5.7c1-1.2,5-1.9,5.4,0.2c0.4,2.1,1.6,4.3,4,5.7c2.4,1.4,5.2,2.9,5.4,1.7
				c0.2-1.2-1.2-5.7-2.8-6.4c-1.6-0.7-4.4-4.8-4.4-6.4c0-1.7-2.4-2.1-3.6-3.3s-2.2-4.5-5.2-5.2s-3.8-1.9-7-3.8
				c-3.2-1.9-10.4-1.9-10.6-0.7s0,0-2.4-1c-2.4-1-4.2,0-4.8-1.7C1205.1,32.7,1203.7,32.2,1201.9,34.3z"/>
		</g>
		<g id="XMLID_2_">
			<g>
				<g>
					<defs>
						<rect id="SVGID_3_" x="421" y="-56" width="1006.4" height="427.5"/>
					</defs>
					<clipPath id="SVGID_4_">
						<use xlink:href="#SVGID_3_"  style="overflow:visible;"/>
					</clipPath>
					<g id="XMLID_4_" class="st4">
						<ellipse id="XMLID_44_" class="st5" cx="924.2" cy="400.7" rx="769.6" ry="264.3"/>
						<g id="XMLID_5_">
							<g id="XMLID_211_">
								<path id="XMLID_229_" class="st3" d="M337.1,83.7c8.1-2.4,16.2-4.7,24.3-6.9c-2-7.2-4-14.4-6-21.6c-8.2,2.3-16.4,4.6-24.6,7
									C332.9,69.3,335,76.5,337.1,83.7z"/>
								<path id="XMLID_228_" class="st3" d="M332.4,91.4c12.3-3.6,24.7-7.1,37-10.5c22.1,4.3,43.9,9,65.5,14.1c-1,3.2-2,6.4-3,9.6
									c-19.6-4.6-39.5-8.8-59.5-12.8c4.3,15.7,8.6,31.3,12.9,47c6.1,22.3,12.3,44.7,18.4,67c-4.4,1.2-8.9,2.5-13.3,3.7
									c-6.3-22.3-12.6-44.6-18.8-66.9c-2.8,0.8-5.6,1.6-8.5,2.4c6.4,22.3,12.8,44.5,19.1,66.8c-4.4,1.3-8.9,2.6-13.3,3.9
									c-6.5-22.2-13.1-44.5-19.6-66.7c-4.6-15.6-9.2-31.2-13.7-46.7c-15,13.9-29.6,28-44,42.2c-2.6-2.2-5.1-4.4-7.7-6.6
									C299.6,122.2,315.9,106.7,332.4,91.4z"/>
								<path id="XMLID_227_" class="st3" d="M492.1,44.9c1-0.2,2-0.4,3-0.6c6-1.3,9.8-7.1,8.6-13.1c0-0.1,0-0.2,0-0.2
									c-1.2-6-7.1-9.9-13.1-8.7c-1,0.2-2,0.4-3,0.6c-6,1.3-9.9,7.2-8.6,13.2c0,0.1,0,0.1,0,0.2C480.2,42.3,486.1,46.1,492.1,44.9z
									"/>
								<path id="XMLID_226_" class="st3" d="M476.1,54.6c12.5-2.7,25-5.4,37.5-7.9c21.6,5.9,43,12.1,64.2,18.6
									c-1.2,3.1-2.5,6.2-3.7,9.4c-19.2-5.9-38.6-11.6-58.3-17c3.2,15.9,6.4,31.8,9.6,47.8c4.6,22.7,9.1,45.4,13.7,68.1
									c-4.5,0.9-9,1.8-13.5,2.8c-4.7-22.7-9.4-45.4-14.2-68c-2.9,0.6-5.7,1.2-8.6,1.8c4.8,22.7,9.6,45.3,14.4,68
									c-4.5,1-9,1.9-13.5,2.9c-5-22.6-9.9-45.3-14.9-67.9c-3.5-15.9-7-31.7-10.5-47.6c-15.8,12.8-31.3,25.8-46.6,39
									c-2.4-2.4-4.8-4.7-7.2-7.1C441.5,83,458.6,68.7,476.1,54.6z"/>
								<path id="XMLID_225_" class="st3" d="M638.2,19.3c1-0.1,2-0.3,3-0.4c6.1-0.9,10.3-6.4,9.5-12.5c0-0.1,0-0.1,0-0.2
									c-0.8-6.1-6.5-10.4-12.6-9.6c-1,0.1-2,0.3-3,0.4c-6.1,0.9-10.4,6.5-9.5,12.6c0,0.1,0,0.2,0,0.3
									C626.5,16,632.1,20.2,638.2,19.3z"/>
								<path id="XMLID_224_" class="st3" d="M621.5,27.9c12.6-1.9,25.2-3.6,37.8-5.3c21.1,7.4,42,15.1,62.6,23.1
									c-1.4,3-2.9,6.1-4.3,9.1c-18.7-7.2-37.7-14.2-56.8-21c2.1,16.1,4.2,32.2,6.3,48.3c3,23,6,45.9,8.9,68.9
									c-4.5,0.6-9.1,1.2-13.6,1.8c-3.1-23-6.3-45.9-9.4-68.9c-2.9,0.4-5.8,0.8-8.7,1.2c3.2,22.9,6.5,45.9,9.7,68.8
									c-4.5,0.6-9.1,1.3-13.6,2c-3.4-22.9-6.8-45.8-10.2-68.7c-2.4-16.1-4.8-32.1-7.1-48.2c-16.6,11.7-32.9,23.6-49,35.7
									c-2.2-2.5-4.4-5.1-6.6-7.6C585.2,53.8,603.2,40.7,621.5,27.9z"/>
								<path id="XMLID_223_" class="st3" d="M785.2,4c1-0.1,2-0.1,2.9-0.2c6.1-0.4,10.7-5.7,10.3-11.8c0-0.1,0-0.1,0-0.2
									c-0.4-6.2-5.7-10.8-11.8-10.4c-1,0.1-2,0.1-3,0.2c-6.1,0.4-10.8,5.8-10.3,11.9c0,0.1,0,0.1,0,0.2
									C773.8-0.1,779.1,4.4,785.2,4z"/>
								<path id="XMLID_222_" class="st3" d="M768.1,11.3c12.7-1,25.4-1.9,38.1-2.6C826.7,17.5,847,26.6,867,36
									c-1.6,2.9-3.3,5.8-4.9,8.8C843.9,36.3,825.6,28,806.9,20c1,16.2,1.9,32.4,2.9,48.6c1.4,23.1,2.8,46.2,4.2,69.4
									c-4.6,0.3-9.1,0.6-13.7,0.9c-1.5-23.1-3.1-46.2-4.6-69.3c-2.9,0.2-5.8,0.4-8.7,0.6c1.6,23.1,3.3,46.2,4.9,69.3
									c-4.6,0.3-9.1,0.7-13.7,1c-1.8-23.1-3.6-46.2-5.4-69.3c-1.3-16.2-2.5-32.4-3.8-48.6c-17.3,10.5-34.4,21.3-51.3,32.2
									c-2-2.7-4.1-5.3-6.1-8C730.1,34.7,748.9,22.9,768.1,11.3z"/>
								<path id="XMLID_221_" class="st3" d="M932.8-1.2h2.9c6.1,0,11.1-4.9,11.1-11.1c0-0.1,0-0.1,0-0.2c0-6.2-5-11.2-11.1-11.2
									h-2.9c-6.2,0-11.2,5-11.1,11.2c0,0.1,0,0.1,0,0.2C921.7-6.1,926.7-1.2,932.8-1.2z"/>
								<path id="XMLID_220_" class="st3" d="M915.2,4.9c12.7-0.1,25.4-0.1,38.1,0c19.9,10.2,39.4,20.7,58.7,31.4
									c-1.8,2.8-3.7,5.6-5.5,8.4c-17.5-9.8-35.3-19.3-53.3-28.6c-0.1,16.2-0.3,32.5-0.4,48.7c-0.2,23.2-0.4,46.3-0.6,69.5
									c-4.6,0-9.1-0.1-13.7-0.1c0-23.2,0.1-46.3,0.1-69.5c-2.9,0-5.8,0-8.7,0c0,23.2,0.1,46.3,0.1,69.5c-4.6,0-9.1,0-13.7,0.1
									c-0.2-23.2-0.4-46.3-0.6-69.5c-0.1-16.2-0.3-32.5-0.4-48.7c-18,9.3-35.8,18.8-53.3,28.6c-1.8-2.8-3.7-5.6-5.5-8.4
									C875.8,25.6,895.3,15.1,915.2,4.9z"/>
								<path id="XMLID_219_" class="st3" d="M1080.4,3.7c1,0.1,2,0.1,2.9,0.2c6.1,0.4,11.4-4.2,11.9-10.3c0-0.1,0-0.2,0-0.2
									c0.5-6.1-4.2-11.5-10.3-11.9c-1-0.1-2-0.1-3-0.2c-6.1-0.4-11.5,4.3-11.8,10.4c0,0.1,0,0.1,0,0.2
									C1069.7-1.9,1074.3,3.3,1080.4,3.7z"/>
								<path id="XMLID_218_" class="st3" d="M1062.5,8.7c12.7,0.8,25.4,1.6,38.1,2.6c19.1,11.6,37.9,23.4,56.5,35.4
									c-2,2.7-4.1,5.3-6.1,8c-16.8-10.9-33.9-21.7-51.3-32.2c-1.3,16.2-2.5,32.4-3.8,48.6c-1.8,23.1-3.6,46.2-5.4,69.3
									c-4.6-0.4-9.1-0.7-13.7-1c1.6-23.1,3.3-46.2,4.9-69.3c-2.9-0.2-5.8-0.4-8.7-0.6c-1.5,23.1-3.1,46.2-4.6,69.3
									c-4.6-0.3-9.1-0.6-13.7-0.9c1.4-23.1,2.8-46.2,4.2-69.4c1-16.2,1.9-32.4,2.9-48.6c-18.6,8-37,16.3-55.2,24.8
									c-1.6-2.9-3.3-5.9-4.9-8.8C1021.7,26.6,1041.9,17.5,1062.5,8.7z"/>
								<path id="XMLID_217_" class="st3" d="M1227.5,18.9c1,0.1,2,0.3,3.1,0.4c6.1,0.9,11.7-3.4,12.5-9.4c0-0.1,0-0.1,0-0.2
									c0.9-6.1-3.4-11.7-9.4-12.5c-1-0.1-2.1-0.3-3.1-0.4c-6.1-0.9-11.7,3.4-12.5,9.5c0,0.1,0,0.2,0,0.3
									C1217.1,12.5,1221.4,18,1227.5,18.9z"/>
								<path id="XMLID_216_" class="st3" d="M1209.1,22.6c12.6,1.6,25.2,3.4,37.8,5.3c18.3,12.9,36.3,25.9,54,39.3
									c-2.2,2.5-4.4,5-6.6,7.6c-16.1-12.1-32.4-24-49-35.7c-2.4,16.1-4.8,32.1-7.1,48.2c-3.4,22.9-6.8,45.8-10.2,68.7
									c-4.5-0.7-9.1-1.3-13.6-2c3.2-22.9,6.5-45.9,9.7-68.8c-2.9-0.4-5.8-0.8-8.7-1.2c-3.1,23-6.3,45.9-9.4,68.9
									c-4.5-0.6-9.1-1.2-13.6-1.8c3-23,6-45.9,8.9-68.9c2.1-16.1,4.2-32.2,6.3-48.3c-19.1,6.7-38.1,13.7-56.8,21
									c-1.4-3-2.9-6.1-4.3-9.1C1167.2,37.7,1188,30,1209.1,22.6z"/>
								<path id="XMLID_215_" class="st3" d="M1373.4,44.3c1,0.2,2.1,0.4,3.1,0.7c6,1.3,11.8-2.5,13.1-8.5c0-0.1,0-0.1,0-0.2
									c1.3-6-2.5-12-8.6-13.2c-1-0.2-2.1-0.4-3.1-0.7c-6-1.2-11.9,2.6-13.1,8.6c0,0.1,0,0.1,0,0.2
									C1363.6,37.1,1367.4,43,1373.4,44.3z"/>
								<path id="XMLID_214_" class="st3" d="M1354.9,46.7c12.5,2.5,25,5.1,37.5,7.9c17.4,14.1,34.6,28.4,51.4,42.9
									c-2.4,2.4-4.8,4.7-7.2,7.1c-15.3-13.2-30.8-26.2-46.6-39c-3.5,15.9-7,31.7-10.5,47.6c-5,22.6-9.9,45.3-14.9,67.9
									c-4.5-1-9-2-13.5-2.9c4.8-22.7,9.6-45.3,14.4-68c-2.9-0.6-5.7-1.2-8.6-1.8c-4.7,22.7-9.4,45.4-14.2,68
									c-4.5-0.9-9-1.9-13.5-2.8c4.6-22.7,9.1-45.4,13.7-68.1c3.2-15.9,6.4-31.8,9.6-47.8c-19.6,5.4-39,11-58.3,17
									c-1.2-3.1-2.5-6.2-3.7-9.4C1311.9,58.8,1333.3,52.6,1354.9,46.7z"/>
								<path id="XMLID_213_" class="st3" d="M1507.2,76.8c8.1,2.3,16.2,4.6,24.3,6.9c2.1-7.2,4.2-14.4,6.3-21.6
									c-8.2-2.4-16.4-4.7-24.6-7C1511.2,62.4,1509.2,69.6,1507.2,76.8z"/>
								<path id="XMLID_212_" class="st3" d="M1499.2,80.9c12.4,3.4,24.7,6.9,37,10.5c16.5,15.3,32.7,30.8,48.5,46.5
									c-2.6,2.2-5.1,4.4-7.7,6.6c-14.4-14.2-29.1-28.3-44-42.2c-4.6,15.6-9.2,31.2-13.7,46.7c-6.5,22.2-13.1,44.5-19.6,66.7
									c-4.4-1.3-8.8-2.6-13.3-3.9c6.4-22.3,12.8-44.5,19.1-66.8c-2.8-0.8-5.6-1.6-8.5-2.4c-6.3,22.3-12.6,44.6-18.8,66.9
									c-4.4-1.2-8.9-2.5-13.3-3.7c6.1-22.3,12.3-44.7,18.4-67c4.3-15.7,8.6-31.3,12.9-47c-20,4-39.8,8.3-59.5,12.8
									c-1-3.2-2-6.4-3-9.6C1455.3,89.9,1477.1,85.2,1499.2,80.9z"/>
							</g>
						</g>
					</g>
				</g>
			</g>
		</g>
		<path id="XMLID_7_" class="st6" d="M495.1-89c44.4-1.1,54.3,16.6,98.2,14.5c40.6-1.9,42.9-17.5,77.1-16.2
			c7.6,0.3,14.3,1.3,20.4,2.8c51.4,18.9,91.7,21.3,118.7,20.1c57.7-2.5,71.8-22.3,125.4-19.9c55.9,2.5,65.6,25.2,114.6,22.5
			c42.6-2.3,45.2-20.1,88-21.2c44.4-1.1,54.2,17.7,98.1,15.5c40.6-2,42.9-18.7,77.1-17.2c35,1.4,48.6,19.5,88.9,18.6
			c12.7-0.3,22.7-2.3,29.7-4v-56.3H789.2h-108H407v60.7C450-71.3,452.3-88,495.1-89z"/>
	</g>
</g>
</svg>
