<?xml version="1.0" encoding="utf-8"?>
<!-- Generator: Adobe Illustrator 19.0.0, SVG Export Plug-In . SVG Version: 6.00 Build 0)  -->
<svg version="1.1" id="Camada_1" xmlns="http://www.w3.org/2000/svg" xmlns:xlink="http://www.w3.org/1999/xlink" x="0px" y="0px"
	 viewBox="0 0 839.8 900" style="enable-background:new 0 0 839.8 900;" xml:space="preserve">
<style type="text/css">
	.st0{opacity:0.3;fill:#A3CBCC;}
	.st1{fill:#3C3835;stroke:#3C3835;stroke-width:3;stroke-miterlimit:10;}
	.st2{fill:#A3CBCC;stroke:#A3CBCC;stroke-width:3;stroke-miterlimit:10;}
	.st3{fill:none;stroke:#353536;stroke-width:3;stroke-linecap:round;stroke-linejoin:round;stroke-miterlimit:10;}
	
		.st4{fill:none;stroke:#353536;stroke-width:4;stroke-linecap:round;stroke-linejoin:round;stroke-miterlimit:10;stroke-dasharray:0,6;}
	.st5{fill:#1E1D1D;}
	.st6{fill:#CC673D;}
	.st7{opacity:0.3;fill:#CC673D;}
	.st8{fill:#FFFFFD;}
	.st9{opacity:0.2;fill:#A3CBCC;}
	
		.st10{fill:none;stroke:#FFFFFD;stroke-width:5;stroke-linecap:round;stroke-linejoin:round;stroke-miterlimit:10;stroke-dasharray:0,13;}
	.st11{opacity:0.4;fill:none;stroke:#FFFFFD;stroke-width:2;stroke-miterlimit:10;}
	.st12{fill:none;stroke:#FFFFFD;stroke-width:2;stroke-miterlimit:10;stroke-dasharray:5,6;}
	.st13{clip-path:url(#XMLID_180_);}
	.st14{fill:#C5C9C9;stroke:#C5C9C9;stroke-miterlimit:10;}
	.st15{fill:#727670;}
	.st16{fill:#F0F3F7;}
	.st17{fill:#353536;}
</style>
<g id="XMLID_238_">
	<g id="XMLID_287_">
		<path id="XMLID_121_" class="st0" d="M841.5,462.5c0-9.7-7.9-18.5-17.6-18.5h-126c-9.7,0-17.6,8.8-17.6,18.5s7.9,18.5,17.6,18.5
			h21.6c9.7,0,17.6,7.3,17.6,17c0,9.7-7.9,17-17.6,17h-34c-9.7,0-17.6,8.3-17.6,18s7.9,18,17.6,18h-0.8c9.7,0,17.6,7.8,17.6,17.5
			c0,9.7-7.9,17.5-17.6,17.5h-49.2c-9.7,0-17.6,7.8-17.6,17.5s7.9,17.5,17.6,17.5h188.4c9.7,0,17.6-7.8,17.6-17.5
			s-7.9-17.5-17.6-17.5h4c-9.7,0-17.6-7.8-17.6-17.5c0-9.7,7.9-17.5,17.6-17.5h-4c9.7,0,17.6-8.3,17.6-18s-7.9-18-17.6-18h1.4
			c-9.7,0-17.6-7.3-17.6-17c0-9.7,7.9-17,17.6-17h-1.4C833.6,481,841.5,472.2,841.5,462.5z"/>
		<path id="XMLID_120_" class="st0" d="M208.4,211.5c0-11.7-9.5-21.5-21.1-21.5h1.7c-11.7,0-21.1-8.8-21.1-20.5S177.3,149,189,149
			h-1.7c11.7,0,21.1-10.3,21.1-22s-9.5-22-21.1-22H21.1C9.5,105,0,115.3,0,127s9.5,22,21.1,22H62c11.7,0,21.1,8.8,21.1,20.5
			S73.6,190,62,190H21.1C9.5,190,0,199.8,0,211.5S9.5,233,21.1,233h-0.9c11.7,0,21.1,8.3,21.1,20s-9.5,20-21.1,20h0.9
			C9.5,273,0,282.3,0,294s9.5,21,21.1,21h166.2c11.7,0,21.1-9.3,21.1-21s-9.5-21-21.1-21h4.9c-11.7,0-21.1-8.3-21.1-20
			s9.5-20,21.1-20h-4.9C199,233,208.4,223.2,208.4,211.5z"/>
		<path id="XMLID_119_" class="st0" d="M157.3,512.2c0,12.6-10.2,22.8-22.8,22.8H84.1c-12.6,0-22.8-10.2-22.8-22.8v-0.4
			c0-12.6,10.2-22.8,22.8-22.8h50.4c12.6,0,22.8,10.2,22.8,22.8V512.2z"/>
		<path id="XMLID_118_" class="st0" d="M738.3,86.2c0,12.6-10.2,22.8-22.8,22.8h-50.4c-12.6,0-22.8-10.2-22.8-22.8v-0.4
			c0-12.6,10.2-22.8,22.8-22.8h50.4c12.6,0,22.8,10.2,22.8,22.8V86.2z"/>
		<path id="XMLID_117_" class="st0" d="M117.3,605.2c0,12.6-10.2,22.8-22.8,22.8H44.1c-12.6,0-22.8-10.2-22.8-22.8v-0.4
			c0-12.6,10.2-22.8,22.8-22.8h50.4c12.6,0,22.8,10.2,22.8,22.8V605.2z"/>
		<path id="XMLID_116_" class="st0" d="M795.3,152.2c0,12.6-10.2,22.8-22.8,22.8h-50.4c-12.6,0-22.8-10.2-22.8-22.8v-0.4
			c0-12.6,10.2-22.8,22.8-22.8h50.4c12.6,0,22.8,10.2,22.8,22.8V152.2z"/>
	</g>
	<g id="XMLID_280_">
		<g id="XMLID_284_">
			<line id="XMLID_115_" class="st1" x1="96.8" y1="373" x2="96.8" y2="387"/>
			<line id="XMLID_114_" class="st1" x1="96.8" y1="414" x2="96.8" y2="400"/>
		</g>
		<g id="XMLID_281_">
			<line id="XMLID_113_" class="st1" x1="117.3" y1="393.5" x2="103.3" y2="393.5"/>
			<line id="XMLID_112_" class="st1" x1="76.3" y1="393.5" x2="90.3" y2="393.5"/>
		</g>
	</g>
	<g id="XMLID_273_">
		<g id="XMLID_277_">
			<line id="XMLID_111_" class="st1" x1="551.8" y1="180" x2="551.8" y2="191"/>
			<line id="XMLID_110_" class="st1" x1="551.8" y1="219" x2="551.8" y2="206"/>
		</g>
		<g id="XMLID_274_">
			<line id="XMLID_109_" class="st1" x1="572.3" y1="199.5" x2="558.3" y2="199.5"/>
			<line id="XMLID_108_" class="st1" x1="532.3" y1="199.5" x2="545.3" y2="199.5"/>
		</g>
	</g>
	<g id="XMLID_266_">
		<g id="XMLID_270_">
			<line id="XMLID_107_" class="st1" x1="703.8" y1="387" x2="703.8" y2="400"/>
			<line id="XMLID_106_" class="st1" x1="703.8" y1="427" x2="703.8" y2="414"/>
		</g>
		<g id="XMLID_267_">
			<line id="XMLID_105_" class="st1" x1="723.3" y1="406.5" x2="711.3" y2="406.5"/>
			<line id="XMLID_104_" class="st1" x1="684.3" y1="406.5" x2="697.3" y2="406.5"/>
		</g>
	</g>
	<g id="XMLID_259_">
		<g id="XMLID_263_">
			<line id="XMLID_103_" class="st1" x1="183.8" y1="647" x2="183.8" y2="660"/>
			<line id="XMLID_102_" class="st1" x1="183.8" y1="687" x2="183.8" y2="674"/>
		</g>
		<g id="XMLID_260_">
			<line id="XMLID_101_" class="st1" x1="204.3" y1="666.5" x2="189.3" y2="666.5"/>
			<line id="XMLID_100_" class="st1" x1="162.3" y1="666.5" x2="176.3" y2="666.5"/>
		</g>
	</g>
	<g id="XMLID_254_">
		<g id="XMLID_256_">
			<line id="XMLID_99_" class="st2" x1="14.3" y1="693.5" x2="56.3" y2="693.5"/>
			<line id="XMLID_98_" class="st2" x1="61.3" y1="693.5" x2="83.3" y2="693.5"/>
		</g>
		<line id="XMLID_97_" class="st2" x1="35.3" y1="705.5" x2="76.3" y2="705.5"/>
	</g>
	<g id="XMLID_249_">
		<g id="XMLID_251_">
			<line id="XMLID_96_" class="st2" x1="701.3" y1="245.5" x2="743.3" y2="245.5"/>
			<line id="XMLID_95_" class="st2" x1="749.3" y1="245.5" x2="769.3" y2="245.5"/>
		</g>
		<line id="XMLID_94_" class="st2" x1="722.3" y1="256.5" x2="764.3" y2="256.5"/>
	</g>
	<g id="XMLID_244_">
		<g id="XMLID_246_">
			<line id="XMLID_93_" class="st2" x1="676.3" y1="698.5" x2="718.3" y2="698.5"/>
			<line id="XMLID_92_" class="st2" x1="723.3" y1="698.5" x2="745.3" y2="698.5"/>
		</g>
		<line id="XMLID_91_" class="st2" x1="697.3" y1="710.5" x2="738.3" y2="710.5"/>
	</g>
	<g id="XMLID_239_">
		<g id="XMLID_241_">
			<line id="XMLID_90_" class="st2" x1="49.3" y1="58.5" x2="90.3" y2="58.5"/>
			<line id="XMLID_89_" class="st2" x1="96.3" y1="58.5" x2="117.3" y2="58.5"/>
		</g>
		<line id="XMLID_88_" class="st2" x1="69.3" y1="70.5" x2="112.3" y2="70.5"/>
	</g>
</g>
<g id="XMLID_209_">
	<path id="XMLID_87_" class="st3" d="M163.5,596.2c-21.6-40.4,69.9-131.3,204.4-203.1c134.4-71.7,260.9-97.1,282.5-56.7"/>
	<path id="XMLID_86_" class="st4" d="M162.6,338.2c21.3-40.6,147.9-16.1,282.9,54.7c134.9,70.8,227.1,161,205.8,201.6"/>
	<g id="XMLID_219_">
		<path id="XMLID_85_" class="st5" d="M329.1,617l-81.4,78.6c0,0-7.9-11.3-19-6.4c-10,4.5-18.9,85.7,38.9,150.4l23-43.8l78-81.4
			L329.1,617z"/>
		<path id="XMLID_84_" class="st5" d="M489.5,617l81.4,78.6c0,0,7.9-11.3,19-6.4c10,4.5,18.9,85.7-38.9,150.4l-23-43.8l-78-81.4
			L489.5,617z"/>
		<path id="XMLID_83_" class="st6" d="M500.4,730.7c15.5-57.5,24.8-129.2,24.8-207.1c0-253.7-121.1-341.9-121.1-341.9
			s-121.1,85.5-121.1,341.9c0,77.9,9.2,149.6,24.8,207.1H500.4z"/>
		<path id="XMLID_82_" class="st7" d="M313.7,503.5c0.3-84.7,12.4-141.4,49.4-238.1c11.8-27.4,21-43.7,41-83.7c0-0.3,0,0,0,0
			s-121.1,85.5-121.1,341.9c0,77.9,9.2,149.6,24.8,207.1h64.2C328.8,655.7,319.6,590.7,313.7,503.5z"/>
		<path id="XMLID_81_" class="st5" d="M525.2,421.5l-3.4-24.8c0,0-38.6,19.5-117.7,20.5c-79.1-1-117.7-20.5-117.7-20.5l-3.4,24.8
			c29.2,19.8,95.6,21.4,121.1,21.4C429.6,442.8,496,441.3,525.2,421.5z"/>
		<circle id="XMLID_80_" class="st8" cx="404.1" cy="553.1" r="63.3"/>
		<path id="XMLID_79_" class="st9" d="M425.7,493.6c-4.5-1.6-9.2-2.8-14.1-3.3c-23.4,23.6-46.9,47.2-70.3,70.9
			c0.6,5,1.8,9.7,3.5,14.3C371.8,548.1,398.7,520.8,425.7,493.6z"/>
		<path id="XMLID_78_" class="st9" d="M371.3,607.2c28.9-29.1,57.8-58.2,86.7-87.3c-4.2-6.8-9.6-12.7-15.9-17.5
			c-29.4,29.7-58.9,59.2-88.4,88.8C358.5,597.6,364.5,603,371.3,607.2z"/>
		<path id="XMLID_77_" class="st9" d="M414,615.6c17.6-17.5,35.1-35.1,52.7-52.6c0.5-3.2,0.8-6.5,0.8-9.9c0-5.6-0.7-10.9-2.1-16.1
			c-25.8,25.7-51.5,51.5-77.2,77.3c5.1,1.3,10.4,2.1,15.9,2.1C407.5,616.4,410.8,616.1,414,615.6z"/>
		<circle id="XMLID_76_" class="st10" cx="404.1" cy="553.1" r="83"/>
		<circle id="XMLID_75_" class="st8" cx="301.1" cy="418.1" r="2.9"/>
		<circle id="XMLID_74_" class="st8" cx="511" cy="414.3" r="2.9"/>
		<circle id="XMLID_73_" class="st8" cx="505.2" cy="664.2" r="2.9"/>
		<circle id="XMLID_72_" class="st8" cx="507.1" cy="650.9" r="2.9"/>
		<path id="XMLID_71_" class="st11" d="M314.3,419.6c0,0,98.3,25.9,182.6-0.4"/>
		<path id="XMLID_70_" class="st5" d="M404.3,295.5c49-0.4,71.9-17.3,71.9-17.3c-25.6-62.4-72.2-96.5-72.2-96.5s0.3,0-0.2,0
			c-0.5,0,0,0,0,0s-44.3,33.9-71.8,96.5c0,0,19.4,16.9,70.4,17.3v0c0,0,0.7,0,1,0C403.6,295.5,404.3,295.6,404.3,295.5L404.3,295.5z
			"/>
	</g>
	<circle id="XMLID_69_" class="st8" cx="497.2" cy="196.8" r="2.9"/>
	<path id="XMLID_68_" class="st4" d="M651.3,594.5C630,635,503.3,610.6,368.4,539.8c-134.9-70.8-227.1-161-205.8-201.6"/>
	<path id="XMLID_67_" class="st3" d="M650.3,336.4c21.6,40.4-69.9,131.3-204.4,203.1c-134.4,71.7-260.9,97.1-282.5,56.7"/>
	<circle id="XMLID_66_" class="st8" cx="487.7" cy="187.3" r="2.9"/>
	<circle id="XMLID_65_" class="st6" cx="179.4" cy="395.9" r="11.2"/>
	<circle id="XMLID_64_" class="st6" cx="625.8" cy="521.8" r="11.2"/>
	<circle id="XMLID_63_" class="st6" cx="572.4" cy="317.7" r="11.2"/>
	<circle id="XMLID_62_" class="st6" cx="253.8" cy="613.4" r="11.2"/>
	<path id="XMLID_61_" class="st12" d="M663,822c0,0,64.6-34.1,108.9,29.4"/>
</g>
<g id="XMLID_123_">
	<g id="XMLID_127_">
		<defs>
			<rect id="XMLID_4_" x="-67.7" y="-53" width="954" height="954"/>
		</defs>
		<clipPath id="XMLID_180_">
			<use xlink:href="#XMLID_4_"  style="overflow:visible;"/>
		</clipPath>
		<g id="XMLID_129_" class="st13">
			<g id="XMLID_198_">
				<path id="XMLID_60_" class="st14" d="M221.9,906.1c0.8-5.1,1.2-10.4,1.2-15.7c0-57-46.2-103.2-103.2-103.2
					c-57,0-103.2,46.2-103.2,103.2c0,5.3,0.4,10.6,1.2,15.7H221.9z"/>
				<circle id="XMLID_59_" class="st14" cx="205.9" cy="826.8" r="56.3"/>
				<path id="XMLID_58_" class="st14" d="M282.3,869.7l43.6,4c41.9-6.1,75.8-40.2,79.8-84.2c4.7-51.6-33.3-97.2-84.8-101.9
					c-51.6-4.7-97.2,33.3-101.9,84.8C215,816.5,242.2,856.1,282.3,869.7z"/>
				<circle id="XMLID_57_" class="st14" cx="473.6" cy="773.6" r="103.2"/>
				<path id="XMLID_56_" class="st14" d="M658.4,891.2c8-12.8,12.6-27.9,12.6-44.1c0-46.2-37.5-83.7-83.7-83.7
					c-46.2,0-83.7,37.5-83.7,83.7c0,16.2,4.6,31.3,12.6,44.1H658.4z"/>
				<path id="XMLID_55_" class="st14" d="M801.4,906.1c0.2-2.8,0.4-5.6,0.4-8.4c0-57-46.2-103.2-103.2-103.2
					c-57,0-103.2,46.2-103.2,103.2c0,2.8,0.1,5.7,0.4,8.4H801.4z"/>
				<path id="XMLID_54_" class="st14" d="M668.1,906.1c-5-52.3-49-93.2-102.7-93.2s-97.7,40.9-102.7,93.2H668.1z"/>
				<path id="XMLID_53_" class="st14" d="M530.3,906.1c-5-52.3-49-93.2-102.7-93.2c-53.6,0-97.7,40.9-102.7,93.2H530.3z"/>
				<path id="XMLID_52_" class="st14" d="M384.5,906.1c-12.3-43.2-52-74.9-99.2-74.9c-47.2,0-86.9,31.7-99.2,74.9H384.5z"/>
				<path id="XMLID_51_" class="st14" d="M278.5,906.1c-16.1-36-52.2-61.1-94.2-61.1c-42,0-78.1,25.1-94.2,61.1H278.5z"/>
			</g>
			<g id="XMLID_191_">
				<path id="XMLID_195_" class="st15" d="M163.4,891.4c3.6-1.1,6.6-2.2,10.3-3.2c0.4-0.1,0.7-0.2,0.7-0.2v-1.3c0-0.3-0.2-1-0.3-1.6
					c-0.3-1.7-0.3-3.4-0.5-4.9c-0.7-0.5-1.2-0.4-1.9-0.4c-3.1,0-6.1,0.1-9.1,0.1c-0.6,0-1.2,0-2,0c-0.3-0.7-0.5-1.4-0.8-2.2
					c-0.2-0.7-0.4-1.5-0.7-2.3c1.9-1.3,3.8-2.5,5.6-3.8c1.7-1.2,3.6-2.3,5.1-3.9c-1-2.5-2.2-4.8-3.7-7.1c-2.2,0.4-4.2,1.3-6.3,2
					c-2,0.7-4,1.5-6.1,2.2c-0.9-1.2-1.8-2.4-2.7-3.7c0.3-0.4,0.5-0.9,0.8-1.2c1.9-2.6,3.9-5.1,5.8-7.6c0.4-0.6,0.8-1.2,1.2-1.8
					c-1.8-2.1-3.6-3.9-5.7-5.7c-2,1-3.7,2.5-5.4,3.8c-1.7,1.3-3.3,2.6-5.1,4c-0.8-0.2-1.4-0.8-2-1.3c-0.6-0.4-1.4-0.8-1.9-1.6
					c1.4-4,3.1-8,4.2-12.3c-2.3-1.4-4.6-2.6-7.2-3.7c-0.3,0.4-0.7,0.7-1,1.1c-1.8,2.6-3.7,5.3-5.5,7.9c-0.4,0.5-0.7,1-1.1,1.6
					c-1.6-0.2-3-0.8-4.6-1.4c0.1-3.7,0.3-7.4,0.2-11.2c0-0.6,0-1.3,0-1.9c-0.1,0-0.2-0.1-0.4-0.1c-2.5-0.7-5-1-7.6-1.2
					c-0.2,0.5-0.5,0.9-0.6,1.4c-1,3.2-1.9,5.3-2.9,8.5c-0.2,0.5-0.4,0.5-0.5,0.5h-4.5c-0.2,0-0.4,0.1-0.6-0.5
					c-0.9-3-1.8-5.5-2.7-8.5c-0.2-0.7-0.3-1.1-0.9-1.8c-1.1,0.1-2.2,0.4-3.3,0.5c-1.5,0.2-2.9,0.5-4.4,1c-0.4,1.5-0.2,2.9-0.2,4.3
					c0,1.5,0,3,0.1,4.5c0,0.4,0,0.8,0.1,1.2c0,1,0.1,2,0.2,3.1c-1.5,0.5-2.9,1-4.4,1.5c-0.4-0.5-0.7-0.9-1-1.3
					c-0.3-0.4-0.6-0.8-0.9-1.3c-1.4-2-2.8-4.1-4.2-6.1c-0.5-0.6-1-1.2-1.4-1.8c-1.9,0.4-5.1,2-7.4,3.6c1,4.2,2.7,8.1,4.1,12.3
					c-1.1,1.1-2.4,1.8-3.7,2.8c-0.4-0.3-0.9-0.5-1.3-0.8c-0.7-0.5-1.4-1.1-2.1-1.6c-1.7-1.3-3.5-2.7-5.2-4c-0.6-0.5-1.3-0.9-2-1.4
					c-2.2,1.7-4,3.6-5.8,5.7c0.8,1.6,1.9,2.9,2.9,4.2c0,0,0,0,0,0c0.3,0.4,0.6,0.8,0.9,1.2c0.5,0.6,1,1.3,1.5,1.9
					c0.5,0.6,1,1.3,1.5,1.9c0.3,0.4,0.7,0.9,1,1.3c-0.9,1.4-1.7,2.6-2.8,3.8c-4.1-1.4-8.1-2.8-12.1-4.2c-0.7,0.7-1.5,1.9-2.2,3.3
					c-0.3,0.5-0.5,0.9-0.7,1.4c-0.2,0.4-0.4,0.8-0.5,1.2c-0.2,0.5-0.4,1-0.5,1.4c0.4,0.3,0.7,0.8,1.2,1.1c2.5,1.8,5,3.5,7.6,5.2
					c0.6,0.4,1.2,0.8,1.8,1.3c-0.5,1.5-0.9,2.9-1.4,4.4c-0.2,0-0.4,0.6-0.6,0.6c-0.2,0-0.4,0.6-0.5,0.6h0c-0.1,0-0.3,0-0.4,0
					c-3.1,0-6.3-0.7-9.4-0.7c-0.7,0-1.4-0.2-2.1-0.2c-0.6,1.4-1,3-1.2,5c-0.1,0.8-0.2,1.7-0.2,2.7c0.4,0.2,0.8,0.4,1.3,0.5
					c1,0.3,1.9,0.6,2.9,0.9c1.2,0.4,2.5,0.7,3.7,1.1c1,0.3,1.9,0.6,2.9,0.9c0.5,0.2,1.5,0.3,1.5,0.5v4.7c0,0.4-2.3-0.4-3.5,0.6
					c0,0,0,0,0,0c-2.2,0-4.3,1.4-6.4,2.2c-0.8,0.3-1.6,0.7-2.4,1c-0.1,2.3,0.4,5.3,1.2,8c1.4,0.4,2.8-0.5,4.2-0.5
					c1.4,0,2.9-0.7,4.3-0.7h0.2c1.2,0,2.4,0.6,3.6,0.5l0.7,0.3c0.2,0.3,0.3,0.8,0.5,1.2c0.5,1.1,0.8,2.4,1.1,3.7
					c-0.2,0.2-0.5,0.4-0.7,0.5c-1.6,1-3.1,2.1-4.6,3.1c-1.7,1.2-3.5,2.5-5.1,3.7c0.1,0.5,0.2,1.1,0.5,1.7c0.1,0.3,0.2,0.6,0.4,1
					c0,0,0,0,0,0c0.7,1.6,1.7,3.3,2.7,4.7c0.5-0.1,1-0.2,1.6-0.4c2.9-1,5.8-2,8.7-3c0.7-0.2,1.3-0.5,2.1-0.8
					c0.9,1.3,1.8,2.4,2.8,3.7c-0.3,0.4-0.5,0.8-0.8,1.2c-1.9,2.5-3.8,5-5.7,7.5c-0.4,0.6-0.8,1.2-1.2,1.7c0.8,1.5,3.5,4.3,5.7,5.9
					c1.8-1.1,3.6-2.5,5.3-3.8c1.7-1.3,3.4-2.6,5.1-4c1.2,0.9,2.4,1.8,3.7,2.7c-0.1,0.5-0.2,1-0.4,1.4c-1.1,3-2.1,6-3.2,9.1
					c-0.2,0.6-0.4,1.2-0.5,1.8c1.3,1.3,4.7,3.1,7.3,3.8c0.4-0.5,0.9-1,1.3-1.6c1.7-2.5,3.4-4.9,5.1-7.4c0.4-0.5,0.7-1,1.1-1.6
					c1.6,0.4,3,0.8,4.5,1.5c-0.3,4.3-0.3,8.6-0.3,12.8c1.9,0.9,5.4,1.4,8.2,1.3c1.6-4,2.6-9.4,3.8-12.4h4.7c1.3,3,2.2,8.4,3.8,12.5
					c2.8,0,5.3-0.5,7.9-1.1c0.4-1.4-0.5-2.9-0.5-4.3c0-1.5-0.7-3-0.7-4.5v-4.4c4-0.6,3.5-1.1,5.1-1.4c2.4,3.6,5,7.2,7.7,10.4
					c1.8-0.3,5.3-1.9,7.6-3.6c-1-4.2-2.6-8.1-4.1-12.3c1.2-0.9,2.5-1.8,3.7-2.8c0.5,0.3,1,0.6,1.4,0.9c2.6,1.9,5.1,3.9,7.7,5.8
					c0.5,0.4,1.1,0.7,1.6,1c1.9-1.4,4.2-3.7,5.7-5.7c-1-1.9-2.5-3.6-3.8-5.4c-1.3-1.7-2.6-3.4-4-5.1c0.4-0.7,0.8-2,1.3-2.7
					c0.5-0.6,0.9-1.5,1.5-2.5h0c4.1,1,8.1,3.8,12.3,4.8c1.4-1.9,2.9-4.5,3.7-6.9c-0.3-0.3-0.7-0.5-1-0.8c-2.6-1.8-5.2-3.5-7.7-5.3
					c-0.6-0.4-1.2-0.8-1.8-1.2c0.3-1.6,0.8-3,1.5-4.6c1,0.1,2,0.2,3,0.2c1,0,2,0.1,3,0.1c2.3,0.1,4.6,0,7,0c0.7-1.5,0.7-3.2,1-4.8
					c0.1-0.4-0.6-0.9-0.4-1.3c0.1-0.3,0.1-0.5,0.1-0.7v-1.3c0-0.7-3.7-1.4-5.9-2c-2.2-0.6-3.1-1.2-6.1-1.9v-4.6
					C162.3,891.7,163,891.5,163.4,891.4z M156.2,898c-1.8,21.4-18,38.6-38.8,42c-2.5,0.4-5,0.6-7.6,0.6c-17.9,0-33.5-10.1-41.3-24.9
					c-0.9-1.7-1.7-3.5-2.4-5.4c-0.7-2-1.4-4.1-1.8-6.2c-0.3-1.2-0.5-2.5-0.7-3.8c-0.3-2.1-0.4-4.2-0.4-6.3c0-2.6,0.2-5.1,0.6-7.6
					c0.9-5.3,2.7-10.4,5.2-14.9c1.7-3,3.7-5.9,6-8.4c0.7-0.8,1.5-1.6,2.3-2.4c3.2-3.1,6.8-5.8,10.8-7.9c5.4-2.9,11.4-4.7,17.8-5.2
					c1.3-0.1,2.6-0.2,4-0.2c25.8,0,46.6,20.9,46.6,46.6C156.4,895.4,156.3,896.7,156.2,898z"/>
				<path id="XMLID_192_" class="st16" d="M109.6,853.9c-22.2,0-40.2,18-40.2,40.2c0,22.2,18,40.2,40.2,40.2
					c22.2,0,40.2-18,40.2-40.2C149.8,871.9,131.8,853.9,109.6,853.9z M109.6,907.5c-7.4,0-13.4-6-13.4-13.4c0-7.4,6-13.4,13.4-13.4
					c7.4,0,13.4,6,13.4,13.4C123,901.5,117,907.5,109.6,907.5z"/>
			</g>
			<g id="XMLID_184_">
				<path id="XMLID_188_" class="st15" d="M527.3,769c3.6-1.1,6.2-2.2,9.8-3.2c0.4-0.1,0.2-0.2,0.2-0.2v-1.3c0-0.3,0.2-1,0.1-1.6
					c-0.3-1.7-0.1-3.4-0.3-4.9c-0.7-0.5-1.1-0.4-1.8-0.4c-3.1,0-6,0.1-9.1,0.1c-0.6,0-1.2,0-2,0c-0.3-0.7-0.5-1.4-0.8-2.2
					c-0.2-0.7-0.4-1.5-0.7-2.3c1.9-1.3,3.8-2.5,5.6-3.8c1.7-1.2,3.6-2.3,5.1-3.9c-1-2.5-2.2-4.8-3.6-7.1c-2.2,0.4-4.2,1.3-6.3,2
					c-2,0.7-4,1.5-6.1,2.2c-0.9-1.2-1.8-2.4-2.7-3.7c0.3-0.4,0.5-0.9,0.8-1.2c1.9-2.6,3.9-5.1,5.8-7.6c0.4-0.6,0.8-1.2,1.2-1.8
					c-1.8-2.1-3.6-3.9-5.7-5.7c-2,1-3.7,2.5-5.4,3.8c-1.7,1.3-3.3,2.6-5.1,4c-0.8-0.2-1.4-0.8-2-1.3c-0.6-0.4-1.4-0.8-1.9-1.6
					c1.4-4,3.1-8,4.2-12.3c-2.3-1.4-4.6-2.6-7.2-3.7c-0.3,0.4-0.7,0.7-1,1.1c-1.8,2.6-3.7,5.3-5.5,7.9c-0.4,0.5-0.7,1-1.1,1.6
					c-1.6-0.2-3-0.8-4.6-1.4c0.1-3.7,0.3-7.4,0.2-11.2c0-0.6,0-1.3-0.1-1.9c-0.1,0-0.2-0.1-0.4-0.1c-2.5-0.7-5-1-7.6-1.2
					c-0.2,0.5-0.5,0.9-0.6,1.4c-1,3.2-1.9,6-2.9,9.2c-0.2,0.5-0.4,1.2-0.5,1.2h-4.5c-0.2,0-0.4-0.6-0.6-1.2c-0.9-3-1.8-5.8-2.7-8.8
					c-0.2-0.7-0.3-1.3-0.9-1.9c-1.1,0.1-2.2,0.3-3.3,0.4c-1.5,0.2-2.9,0.5-4.4,0.9c-0.4,1.5-0.2,2.9-0.2,4.3c0,1.5,0,3,0.1,4.5
					c0,0.4,0,0.8,0.1,1.2c0.1,1,0.1,2,0.2,3.1c-1.5,0.5-2.9,1-4.4,1.5c-0.4-0.5-0.7-0.9-1.1-1.3c-0.3-0.4-0.6-0.8-0.9-1.3
					c-1.4-2-2.8-4.1-4.2-6.1c-0.5-0.6-1-1.2-1.4-1.8c-1.9,0.4-5.1,2-7.4,3.6c1,4.2,2.7,8.1,4.1,12.3c-1.1,1.1-2.4,1.8-3.7,2.8
					c-0.4-0.3-0.9-0.5-1.3-0.8c-0.7-0.5-1.4-1.1-2.1-1.6c-1.7-1.3-3.5-2.7-5.2-4c-0.6-0.5-1.3-0.9-2-1.4c-2.2,1.7-4,3.6-5.8,5.7
					c0.8,1.6,1.9,2.9,2.9,4.2c0,0,0,0,0,0c0.3,0.4,0.6,0.8,0.9,1.2c0.5,0.6,1,1.3,1.5,1.9c0.5,0.6,1,1.3,1.5,1.9
					c0.3,0.4,0.7,0.9,1,1.3c-0.9,1.4-1.7,2.6-2.8,3.8c-4.1-1.4-8.1-2.8-12.1-4.2c-0.7,0.7-1.5,1.9-2.2,3.3c-0.3,0.5-0.5,0.9-0.7,1.4
					c-0.2,0.4-0.4,0.8-0.5,1.2c-0.2,0.5-0.4,1-0.5,1.4c0.4,0.3,0.7,0.8,1.2,1.1c2.5,1.8,5,3.5,7.6,5.2c0.6,0.4,1.1,0.8,1.8,1.3
					c-0.5,1.5-0.9,2.9-1.4,4.4c-0.2,0-0.4,0.3-0.6,0.3c-0.2,0-0.4,0.3-0.5,0.3h0c-0.1,0-0.3,0-0.4,0c-3.1,0-6.3-0.4-9.4-0.4
					c-0.7,0-1.4-0.1-2.1,0c-0.6,1.4-1,3-1.2,5.1c-0.1,0.8-0.2,1.7-0.2,2.7c0.4,0.2,0.8,0.4,1.3,0.6c1,0.3,1.9,0.6,2.9,0.9
					c1.2,0.4,2.5,0.7,3.7,1.1c1,0.3,1.1,0.6,2.1,0.9c0.5,0.2,0.6,0.4,0.6,0.5v4.7c0,0.4-0.5-1-1.7,2c0,0,0,0,0,0
					c-2.2,0-4.3,0.7-6.4,1.5c-0.8,0.3-1.6,0.3-2.4,0.6c-0.1,2.3,0.4,5.1,1.2,7.9c1.4,0.4,2.8-0.9,4.2-0.9c1.4,0,2.9-1.1,4.3-1.1h0.2
					c1.2,0,2.4,0.9,3.6,0.8l0.7,0.5c0.2,0.3,0.3,0.9,0.5,1.3c0.5,1.1,0.8,2.4,1.1,3.7c-0.2,0.2-0.5,0.4-0.7,0.5
					c-1.6,1-3.1,2.1-4.6,3.2c-1.7,1.2-3.5,2.5-5.1,3.7c0.1,0.5,0.2,1.1,0.5,1.7c0.1,0.3,0.2,0.6,0.4,1c0,0,0,0,0,0
					c0.7,1.6,1.7,3.3,2.7,4.7c0.5-0.1,1-0.2,1.6-0.4c2.9-1,5.8-2,8.7-3c0.7-0.2,1.3-0.5,2.1-0.8c0.9,1.3,1.8,2.4,2.8,3.7
					c-0.3,0.4-0.5,0.8-0.8,1.2c-1.9,2.5-3.8,5-5.7,7.5c-0.4,0.6-0.8,1.2-1.2,1.7c0.8,1.5,3.5,4.3,5.7,5.9c1.8-1.1,3.6-2.5,5.3-3.8
					c1.7-1.3,3.4-2.6,5.1-4c1.2,0.9,2.4,1.8,3.7,2.7c-0.1,0.5-0.2,1-0.4,1.4c-1.1,3-2.1,6-3.2,9.1c-0.2,0.6-0.4,1.2-0.5,1.8
					c1.3,1.3,4.7,3.1,7.3,3.8c0.4-0.5,0.9-1,1.3-1.6c1.7-2.5,3.4-4.9,5.1-7.4c0.4-0.5,0.7-1,1.1-1.6c1.6,0.4,3,0.8,4.5,1.5
					c-0.3,4.3-0.3,8.6-0.3,12.8c1.9,0.9,5.4,1.1,8.2,1c1.6-4,2.6-8.7,3.8-12.7h4.7c1.3,4,2.2,8.7,3.8,12.8c2.8,0,5.3-0.4,7.9-1
					c0.4-1.4-0.4-2.8-0.4-4.2c0-1.5-0.6-2.9-0.6-4.4v-4.4c1-0.6,3.3-1.1,5-1.4c2.4,3.6,5,7.2,7.6,10.4c1.8-0.3,5.3-1.9,7.5-3.6
					c-1-4.2-2.7-8.1-4.1-12.3c1.2-0.9,2.5-1.8,3.7-2.8c0.5,0.3,1,0.6,1.4,0.9c2.6,1.9,5.1,3.9,7.7,5.8c0.5,0.4,1.1,0.7,1.6,1
					c1.9-1.4,4.2-3.7,5.7-5.7c-1-1.9-2.5-3.6-3.8-5.4c-1.3-1.7-2.6-3.4-4-5.1c0.4-0.7,0.8-2.3,1.3-3c0.5-0.6,0.9,0.2,1.5-2.8h0
					c4.1,3,8.1,4.1,12.3,5.1c1.4-1.9,2.9-4.3,3.7-6.7c-0.3-0.3-0.7-0.4-1-0.7c-2.6-1.8-5.2-3.5-7.7-5.3c-0.6-0.4-1.2-0.7-1.8-1.2
					c0.3-1.6,0.8-3,1.5-4.6c1,0.1,2,0.2,3,0.2c1,0,2,0.1,3,0.1c2.3,0.1,4.6,0,7,0c0.7-1.5,0.7-3.2,1-4.8c0.1-0.4-0.9-0.9-0.8-1.3
					c0.1-0.3-0.3-0.5-0.3-0.7V778c0-0.7-3.2-1.4-5.4-2c-2.2-0.6-3.6-1.2-5.6-1.9v-4.6C526.3,769.3,526.9,769.1,527.3,769z
					 M520,775.6c-1.8,21.4-18,38.6-38.8,42c-2.5,0.4-5,0.6-7.6,0.6c-17.9,0-33.5-10.1-41.3-24.9c-0.9-1.7-1.7-3.5-2.4-5.4
					c-0.7-2-1.4-4.1-1.8-6.2c-0.3-1.2-0.5-2.5-0.7-3.8c-0.3-2.1-0.4-4.2-0.4-6.3c0-2.6,0.2-5.1,0.6-7.6c0.9-5.3,2.7-10.4,5.2-14.9
					c1.7-3,3.7-5.9,6-8.4c0.7-0.8,1.5-1.6,2.3-2.4c3.2-3.1,6.8-5.8,10.8-7.9c5.4-2.9,11.4-4.7,17.8-5.2c1.3-0.1,2.6-0.2,4-0.2
					c25.8,0,46.6,20.9,46.6,46.6C520.1,773,520.1,774.3,520,775.6z"/>
				<path id="XMLID_185_" class="st16" d="M473.3,731.5c-22.2,0-40.2,18-40.2,40.2s18,40.2,40.2,40.2c22.2,0,40.2-18,40.2-40.2
					S495.5,731.5,473.3,731.5z M473.3,785.1c-7.4,0-13.4-6-13.4-13.4c0-7.4,6-13.4,13.4-13.4c7.4,0,13.4,6,13.4,13.4
					C486.8,779.1,480.8,785.1,473.3,785.1z"/>
			</g>
			<g id="XMLID_177_">
				<path id="XMLID_181_" class="st17" d="M374.6,777.9c3.6-1.1,6-2.2,9.7-3.2c0.4-0.1,0.1-0.2,0.1-0.2v-1.3c0-0.3,0-1-0.1-1.6
					c-0.3-1.7-0.2-3.4-0.4-4.9c-0.7-0.5-1.2-0.4-1.8-0.4c-3.1,0-6,0.1-9.1,0.1c-0.6,0-1.2,0-2,0c-0.3-0.7-0.5-1.4-0.8-2.2
					c-0.2-0.7-0.4-1.5-0.7-2.3c1.9-1.3,3.8-2.5,5.6-3.8c1.7-1.2,3.6-2.3,5.1-3.9c-1-2.5-2.2-4.8-3.7-7.1c-2.2,0.4-4.2,1.3-6.3,2
					c-2,0.7-4,1.5-6.1,2.2c-0.9-1.2-1.8-2.4-2.7-3.7c0.3-0.4,0.5-0.9,0.8-1.2c1.9-2.6,3.9-5.1,5.8-7.6c0.4-0.6,0.8-1.2,1.2-1.8
					c-1.8-2.1-3.6-3.9-5.7-5.7c-2,1-3.7,2.5-5.4,3.8c-1.7,1.3-3.3,2.6-5.1,4c-0.8-0.2-1.4-0.8-2-1.3c-0.6-0.4-1.4-0.8-1.9-1.6
					c1.4-4,3.1-8,4.2-12.3c-2.3-1.4-4.6-2.6-7.2-3.7c-0.3,0.4-0.7,0.7-1,1.1c-1.8,2.6-3.7,5.3-5.5,7.9c-0.4,0.5-0.7,1-1.1,1.6
					c-1.6-0.2-3-0.8-4.6-1.4c0.1-3.7,0.3-7.4,0.2-11.2c0-0.6,0-1.3-0.1-1.9c-0.1,0-0.2-0.1-0.4-0.1c-2.5-0.7-5-1-7.6-1.2
					c-0.2,0.5-0.5,0.9-0.6,1.4c-1,3.2-1.9,6.1-2.9,9.3c-0.2,0.5-0.4,1.3-0.5,1.3h-4.5c-0.2,0-0.4-0.7-0.6-1.2
					c-0.9-3-1.8-5.9-2.7-8.9c-0.2-0.7-0.3-1.3-0.9-2c-1.1,0.1-2.2,0.3-3.3,0.4c-1.5,0.2-2.9,0.5-4.4,0.9c-0.4,1.5-0.2,2.9-0.2,4.3
					c0,1.5,0,3,0.1,4.5c0,0.4,0,0.8,0.1,1.2c0.1,1,0.1,2,0.2,3.1c-1.5,0.5-2.9,1-4.4,1.5c-0.4-0.5-0.7-0.9-1.1-1.3
					c-0.3-0.4-0.6-0.8-0.9-1.3c-1.4-2-2.8-4.1-4.2-6.1c-0.5-0.6-1-1.2-1.4-1.8c-1.9,0.4-5.1,2-7.4,3.6c1,4.2,2.7,8.1,4.1,12.3
					c-1.1,1.1-2.4,1.8-3.7,2.8c-0.4-0.3-0.9-0.5-1.3-0.8c-0.7-0.5-1.4-1.1-2.1-1.6c-1.7-1.3-3.5-2.7-5.2-4c-0.6-0.5-1.3-0.9-2-1.4
					c-2.2,1.7-4,3.6-5.8,5.7c0.8,1.6,1.9,2.9,2.9,4.2c0,0,0,0,0,0c0.3,0.4,0.6,0.8,0.9,1.2c0.5,0.6,1,1.3,1.5,1.9
					c0.5,0.6,1,1.3,1.5,1.9c0.3,0.4,0.7,0.9,1,1.3c-0.9,1.4-1.7,2.6-2.8,3.8c-4.1-1.4-8.1-2.8-12.1-4.2c-0.7,0.7-1.5,1.9-2.2,3.3
					c-0.3,0.5-0.5,0.9-0.7,1.4c-0.2,0.4-0.4,0.8-0.5,1.2c-0.2,0.5-0.4,1-0.5,1.4c0.4,0.3,0.7,0.8,1.2,1.1c2.5,1.8,5,3.5,7.6,5.2
					c0.6,0.4,1.1,0.8,1.8,1.3c-0.5,1.5-0.9,2.9-1.4,4.4c-0.2,0-0.4,0.8-0.6,0.9c-0.2,0-0.4,0.8-0.5,0.8h0c-0.1,0-0.3,0-0.4,0
					c-3.1,0-6.3-0.9-9.4-1c-0.7,0-1.4-0.3-2.1-0.3c-0.6,1.4-1,2.9-1.2,5c-0.1,0.8-0.2,1.7-0.2,2.7c0.4,0.2,0.8,0.4,1.3,0.5
					c1,0.3,1.9,0.6,2.9,0.8c1.2,0.4,2.5,0.7,3.7,1.1c1,0.3,1.7,0.6,2.7,0.9c0.5,0.2,1.3,0.3,1.3,0.5v4.7c0,0.4-1.9,0.1-3.1,1.1
					c0,0,0,0,0,0c-2.2,0-4.3,1.2-6.4,1.9c-0.8,0.3-1.6,0.5-2.4,0.9c-0.1,2.3,0.4,5.2,1.2,8c1.4,0.4,2.8,0.2,4.2,0.3
					c1.4,0,2.9,0,4.3,0h0.2c1.2,0,2.4-0.2,3.6-0.3l0.7-0.1c0.2,0.3,0.3,0.7,0.5,1c0.5,1.1,0.8,2.3,1.1,3.6c-0.2,0.2-0.5,0.3-0.7,0.5
					c-1.6,1-3.1,2.1-4.6,3.1c-1.7,1.2-3.5,2.5-5.1,3.7c0.1,0.5,0.2,1.1,0.5,1.7c0.1,0.3,0.2,0.6,0.4,1c0,0,0,0,0,0
					c0.7,1.6,1.7,3.3,2.7,4.7c0.5-0.1,1-0.2,1.6-0.4c2.9-1,5.8-2,8.7-3c0.7-0.2,1.3-0.5,2.1-0.8c0.9,1.3,1.8,2.4,2.8,3.7
					c-0.3,0.4-0.5,0.8-0.8,1.2c-1.9,2.5-3.8,5-5.7,7.5c-0.4,0.6-0.8,1.2-1.2,1.7c0.8,1.5,3.5,4.3,5.7,5.9c1.8-1.1,3.6-2.5,5.3-3.8
					c1.7-1.3,3.4-2.6,5.1-4c1.2,0.9,2.4,1.8,3.7,2.7c-0.1,0.5-0.2,1-0.4,1.4c-1.1,3-2.1,6-3.2,9.1c-0.2,0.6-0.4,1.2-0.5,1.8
					c1.3,1.3,4.7,3.1,7.3,3.8c0.4-0.5,0.9-1,1.3-1.6c1.7-2.5,3.4-4.9,5.1-7.4c0.4-0.5,0.7-1,1.1-1.6c1.6,0.4,3,0.8,4.5,1.5
					c-0.3,4.3-0.3,8.6-0.3,12.8c1.9,0.9,5.4,2.2,8.2,2.1c1.6-4,2.6-8.6,3.8-11.6h4.7c1.3,3,2.2,7.6,3.8,11.7c2.8,0,5.3-0.9,7.9-1.5
					c0.4-1.4-0.7-3.1-0.7-4.5c0-1.5-0.9-3.2-0.9-4.7v-4.4c3-0.6,3.7-1.1,5.3-1.4c2.4,3.6,5.1,7.2,7.8,10.4c1.8-0.3,5.4-1.9,7.6-3.6
					c-1-4.2-2.6-8.1-4.1-12.3c1.2-0.9,2.5-1.8,3.8-2.8c0.5,0.3,1,0.6,1.4,0.9c2.6,1.9,5.1,3.9,7.7,5.8c0.5,0.4,1.1,0.7,1.6,1
					c1.9-1.4,4.2-3.7,5.7-5.7c-1-1.9-2.4-3.6-3.8-5.4c-1.3-1.7-2.6-3.4-4-5.1c0.4-0.7,0.8-1.8,1.3-2.4c0.5-0.6,0.9-0.3,1.5-2.3h0
					c4.1,2,8.1,3.6,12.3,4.6c1.4-1.9,2.9-4.6,3.7-7c-0.3-0.3-0.7-0.6-1-0.8c-2.6-1.8-5.2-3.5-7.7-5.3c-0.6-0.4-1.2-0.8-1.8-1.2
					c0.3-1.6,0.8-3,1.5-4.6c1,0.1,2,0.1,3,0.2c1,0,2,0.1,3,0.1c2.3,0.1,4.6,0,7,0c0.7-1.5,0.7-3.2,1-4.8c0.1-0.4-0.8-0.9-0.6-1.3
					c0.1-0.3-0.1-0.5-0.1-0.7v-1.3c0-0.7-2.7-1.4-4.9-2c-2.2-0.6-4.1-1.2-5.1-1.9v-4.6C374.3,778.1,374.2,778,374.6,777.9z
					 M366.6,784.5c-1.8,21.4-18,38.6-38.8,42c-2.5,0.4-5,0.6-7.6,0.6c-17.9,0-33.5-10.1-41.3-24.9c-0.9-1.7-1.7-3.5-2.4-5.4
					c-0.7-2-1.4-4.1-1.8-6.2c-0.3-1.2-0.5-2.5-0.7-3.8c-0.3-2.1-0.4-4.2-0.4-6.3c0-2.6,0.2-5.1,0.6-7.6c0.9-5.3,2.7-10.4,5.2-14.9
					c1.7-3,3.7-5.9,6-8.4c0.7-0.8,1.5-1.6,2.3-2.4c3.2-3.1,6.8-5.8,10.8-7.9c5.4-2.9,11.4-4.7,17.8-5.2c1.3-0.1,2.6-0.2,4-0.2
					c25.8,0,46.6,20.9,46.6,46.6C366.8,781.9,366.7,783.2,366.6,784.5z"/>
				<path id="XMLID_178_" class="st16" d="M320,740.3c-22.2,0-40.2,18-40.2,40.2c0,22.2,18,40.2,40.2,40.2c22.2,0,40.2-18,40.2-40.2
					C360.2,758.3,342.2,740.3,320,740.3z M320,794c-7.4,0-13.4-6-13.4-13.4c0-7.4,6-13.4,13.4-13.4c7.4,0,13.4,6,13.4,13.4
					C333.4,787.9,327.4,794,320,794z"/>
			</g>
			<g id="XMLID_170_">
				<path id="XMLID_174_" class="st17" d="M611.9,820.7c2.2-0.6,3.9-1.3,6.1-1.9c0.2-0.1,0.3-0.1,0.3-0.1v-0.8
					c0-0.2-0.1-0.6-0.1-0.9c-0.2-1-0.2-2-0.3-2.9c-0.4-0.3-0.7-0.3-1.1-0.2c-1.8,0-3.6,0.1-5.5,0.1c-0.4,0-0.7,0-1.2,0
					c-0.2-0.4-0.3-0.9-0.5-1.3c-0.1-0.4-0.3-0.9-0.4-1.4c1.2-0.8,2.3-1.5,3.3-2.3c1-0.7,2.1-1.4,3.1-2.3c-0.6-1.5-1.3-2.9-2.2-4.3
					c-1.3,0.3-2.5,0.7-3.8,1.2c-1.2,0.4-2.4,0.9-3.7,1.3c-0.5-0.7-1.1-1.4-1.6-2.2c0.2-0.3,0.3-0.5,0.5-0.7c1.2-1.5,2.3-3,3.5-4.6
					c0.3-0.3,0.5-0.7,0.7-1.1c-1.1-1.2-2.2-2.4-3.4-3.4c-1.2,0.6-2.2,1.5-3.2,2.3c-1,0.8-2,1.6-3,2.4c-0.5-0.1-0.8-0.5-1.2-0.8
					c-0.4-0.3-0.8-0.5-1.1-0.9c0.8-2.4,1.8-4.8,2.5-7.4c-1.4-0.9-2.8-1.5-4.3-2.2c-0.2,0.2-0.4,0.4-0.6,0.6
					c-1.1,1.6-2.2,3.2-3.3,4.7c-0.2,0.3-0.4,0.6-0.7,1c-1-0.1-1.8-0.5-2.7-0.8c0.1-2.2,0.2-4.4,0.1-6.7c0-0.4,0-0.8,0-1.1
					c-0.1,0-0.1,0-0.2-0.1c-1.5-0.4-3-0.6-4.5-0.7c-0.1,0.3-0.3,0.6-0.4,0.8c-0.6,1.9-1.2,4-1.7,5.9c-0.1,0.3-0.2,1.1-0.3,1.1h-2.7
					c-0.1,0-0.3-0.8-0.4-1.1c-0.5-1.8-1-3.7-1.6-5.5c-0.1-0.4-0.2-0.9-0.6-1.3c-0.7,0.1-1.3,0.1-2,0.2c-0.9,0.1-1.7,0.3-2.6,0.5
					c-0.2,0.9-0.1,1.7-0.1,2.6c0,0.9,0,1.8,0,2.7c0,0.2,0,0.5,0,0.7c0,0.6,0.1,1.2,0.1,1.9c-0.9,0.3-1.7,0.6-2.6,0.9
					c-0.2-0.3-0.4-0.5-0.6-0.8c-0.2-0.2-0.3-0.5-0.5-0.8c-0.8-1.2-1.7-2.4-2.5-3.7c-0.3-0.4-0.6-0.7-0.8-1.1
					c-1.1,0.2-3.1,1.2-4.4,2.2c0.6,2.5,1.6,4.9,2.5,7.3c-0.7,0.7-1.4,1.1-2.2,1.7c-0.3-0.2-0.5-0.3-0.7-0.5c-0.4-0.3-0.8-0.6-1.2-1
					c-1-0.8-2.1-1.6-3.1-2.4c-0.4-0.3-0.8-0.5-1.2-0.8c-1.3,1-2.4,2.2-3.5,3.4c0.5,0.9,1.1,1.7,1.7,2.5c0,0,0,0,0,0
					c0.2,0.2,0.4,0.5,0.6,0.7c0.3,0.4,0.6,0.7,0.9,1.1c0.3,0.4,0.6,0.8,0.9,1.1c0.2,0.3,0.4,0.5,0.6,0.8c-0.5,0.8-1,1.6-1.7,2.3
					c-2.4-0.9-4.8-1.7-7.2-2.5c-0.4,0.4-0.9,1.1-1.3,1.9c-0.2,0.3-0.3,0.6-0.4,0.9c-0.1,0.2-0.2,0.5-0.3,0.7
					c-0.1,0.3-0.2,0.6-0.3,0.9c0.2,0.2,0.4,0.5,0.7,0.6c1.5,1.1,3,2.1,4.5,3.1c0.3,0.2,0.7,0.5,1.1,0.8c-0.3,0.9-0.5,1.7-0.8,2.6
					c-0.1,0-0.2-0.9-0.4-0.9c-0.1,0-0.2-0.9-0.3-0.9h0c-0.1,0-0.1,0-0.2,0c-1.9,0-3.7,0.8-5.6,0.8c-0.4,0-0.8,0.5-1.2,0.5
					c-0.3,0.9-0.6,2.1-0.7,3.3c-0.1,0.5-0.1,1.2-0.1,1.8c0.2,0.1,0.5,0.3,0.8,0.4c0.6,0.2,1.2,0.4,1.7,0.6c0.7,0.2,1.5,0.5,2.2,0.7
					c0.6,0.2,0.4,0.4,1,0.5c0.3,0.1,0.2,0.2,0.2,0.3v2.8c0,0.2,0.1-0.7-0.6-0.7c0,0,0,0,0,0c-1.3,0-2.6,1.4-3.8,1.8
					c-0.5,0.2-1,0.7-1.4,0.8c0,1.4,0.2,3.3,0.7,4.9c0.8,0.2,1.7-1.2,2.5-1.2c0.9,0,1.7-1.4,2.6-1.4h0.1c0.7,0,1.4,1.3,2.2,1.3
					l0.4,0.7c0.1,0.2,0.2,0.8,0.3,1c0.3,0.7,0.5,1.6,0.6,2.3c-0.1,0.1-0.3,0.3-0.4,0.4c-0.9,0.6-1.8,1.3-2.8,1.9
					c-1,0.7-2.1,1.5-3.1,2.2c0,0.3,0.1,0.7,0.3,1c0.1,0.2,0.1,0.4,0.2,0.6c0,0,0,0,0,0c0.4,0.9,1,2,1.6,2.8c0.3-0.1,0.6-0.1,0.9-0.2
					c1.7-0.6,3.5-1.2,5.2-1.8c0.4-0.1,0.8-0.3,1.3-0.5c0.6,0.7,1.1,1.5,1.6,2.2c-0.2,0.3-0.3,0.5-0.5,0.7c-1.1,1.5-2.3,3-3.4,4.5
					c-0.3,0.3-0.5,0.7-0.7,1c0.5,0.9,2.1,2.6,3.4,3.5c1.1-0.7,2.1-1.5,3.2-2.3c1-0.8,2-1.6,3.1-2.4c0.7,0.5,1.5,1,2.2,1.6
					c-0.1,0.3-0.1,0.6-0.2,0.8c-0.6,1.8-1.3,3.6-1.9,5.4c-0.1,0.4-0.2,0.7-0.3,1.1c0.8,0.8,2.8,1.8,4.4,2.3c0.2-0.3,0.5-0.6,0.8-0.9
					c1-1.5,2-2.9,3.1-4.4c0.2-0.3,0.4-0.6,0.7-1c0.9,0.2,1.8,0.5,2.7,0.9c-0.2,2.6-0.2,5.1-0.2,7.6c1.1,0.5,3.2,0.9,4.9,0.8
					c0.9-2.4,1.5-7.4,2.3-7.4h2.8c0.8,0,1.3,5,2.3,7.4c1.6,0,3.2-0.3,4.7-0.7c0.2-0.9-0.3-1.7-0.3-2.6c0-0.9-0.4-1.8-0.4-2.7v-2.6
					c1-0.4,2-0.7,3-0.8c1.4,2.1,3,4.3,4.6,6.2c1.1-0.2,3.2-1.1,4.5-2.1c-0.6-2.5-1.6-4.9-2.4-7.4c0.7-0.6,1.5-1.1,2.2-1.7
					c0.3,0.2,0.6,0.4,0.8,0.6c1.5,1.2,3,2.3,4.6,3.5c0.3,0.2,0.6,0.4,0.9,0.6c1.1-0.8,2.5-2.2,3.4-3.4c-0.6-1.1-1.5-2.2-2.3-3.2
					c-0.8-1-1.6-2-2.4-3c0.2-0.4,0.5-1.7,0.8-2.1c0.3-0.4,0.6-1,0.9-2h0c2.5,1,4.8,2.8,7.3,3.4c0.8-1.1,1.7-2.4,2.2-3.9
					c-0.2-0.2-0.4-0.2-0.6-0.3c-1.5-1.1-3.1-2-4.6-3.1c-0.3-0.2-0.7-0.4-1.1-0.7c0.2-1,0.5-1.8,0.9-2.7c0.6,0,1.2,0.1,1.8,0.1
					c0.6,0,1.2,0,1.8,0.1c1.4,0,2.8,0,4.2,0c0.4-0.9,0.4-1.9,0.6-2.9c0.1-0.2-0.3-0.5-0.2-0.7c0.1-0.2,0.1-0.3,0.1-0.4V826
					c0-0.4-2.2-0.8-3.5-1.2c-1.3-0.4-3.5-0.7-3.5-1.1V821C611.3,820.8,611.7,820.7,611.9,820.7z M607.5,824.6
					c-1.1,12.8-10.8,23.1-23.2,25.1c-1.5,0.2-3,0.4-4.6,0.4c-10.7,0-20-6-24.7-14.9c-0.5-1-1-2.1-1.4-3.2c-0.4-1.2-0.8-2.4-1.1-3.7
					c-0.2-0.7-0.3-1.5-0.4-2.3c-0.2-1.2-0.3-2.5-0.3-3.8c0-1.5,0.1-3.1,0.4-4.6c0.5-3.2,1.6-6.2,3.1-8.9c1-1.8,2.2-3.5,3.6-5
					c0.4-0.5,0.9-1,1.4-1.4c1.9-1.9,4.1-3.5,6.5-4.7c3.2-1.7,6.8-2.8,10.7-3.1c0.8-0.1,1.6-0.1,2.4-0.1c15.4,0,27.9,12.5,27.9,27.9
					C607.6,823.1,607.6,823.9,607.5,824.6z"/>
				<path id="XMLID_171_" class="st16" d="M579.6,798.2c-13.3,0-24,10.8-24,24c0,13.3,10.8,24,24,24c13.3,0,24-10.8,24-24
					C603.7,809,592.9,798.2,579.6,798.2z M579.6,830.3c-4.4,0-8-3.6-8-8c0-4.4,3.6-8,8-8c4.4,0,8,3.6,8,8
					C587.7,826.7,584.1,830.3,579.6,830.3z"/>
			</g>
			<g id="XMLID_163_">
				<path id="XMLID_167_" class="st15" d="M550.2,912.3c3.6-1.1,6.2-2.2,9.9-3.2c0.4-0.1,0.2-0.2,0.2-0.2v-1.3c0-0.3,0.7-1,0.6-1.6
					c-0.3-1.7,0.1-3.4-0.1-4.9c-0.7-0.5-1-0.4-1.7-0.4c-3.1,0-6,0.1-9,0.1c-0.6,0-1.2,0-2,0c-0.3-0.7-0.5-1.4-0.8-2.2
					c-0.2-0.7-0.4-1.5-0.7-2.3c1.9-1.3,3.8-2.5,5.6-3.8c1.7-1.2,3.6-2.3,5.1-3.9c-1-2.5-2.2-4.8-3.6-7.1c-2.2,0.4-4.2,1.3-6.3,2
					c-2,0.7-4,1.5-6.1,2.2c-0.9-1.2-1.8-2.4-2.7-3.7c0.3-0.4,0.5-0.9,0.8-1.2c1.9-2.6,3.9-5.1,5.8-7.6c0.4-0.6,0.8-1.2,1.2-1.8
					c-1.8-2.1-3.6-3.9-5.7-5.7c-2,1-3.7,2.5-5.4,3.8c-1.7,1.3-3.3,2.6-5.1,4c-0.8-0.2-1.4-0.8-2-1.3c-0.6-0.4-1.4-0.8-1.9-1.6
					c1.4-4,3.1-8,4.2-12.3c-2.3-1.4-4.6-2.6-7.2-3.7c-0.3,0.4-0.7,0.7-1,1.1c-1.8,2.6-3.7,5.3-5.5,7.9c-0.4,0.5-0.7,1-1.1,1.6
					c-1.6-0.2-3-0.8-4.6-1.4c0.1-3.7,0.3-7.4,0.2-11.2c0-0.6,0-1.3-0.1-1.9c-0.1,0-0.2-0.1-0.4-0.1c-2.5-0.7-5-1-7.6-1.2
					c-0.2,0.5-0.5,0.9-0.6,1.4c-1,3.2-1.9,5.9-2.9,9.1c-0.2,0.5-0.4,1-0.5,1h-4.5c-0.2,0-0.4-0.5-0.6-1c-0.9-3-1.8-5.7-2.7-8.8
					c-0.2-0.7-0.3-1.3-0.9-1.9c-1.1,0.1-2.2,0.3-3.3,0.5c-1.5,0.2-2.9,0.5-4.4,0.9c-0.4,1.5-0.2,2.9-0.2,4.3c0,1.5,0,3,0.1,4.5
					c0,0.4,0,0.8,0.1,1.2c0.1,1,0.1,2,0.2,3.1c-1.5,0.5-2.9,1-4.4,1.5c-0.4-0.5-0.7-0.9-1.1-1.3c-0.3-0.4-0.6-0.8-0.9-1.3
					c-1.4-2-2.8-4.1-4.2-6.1c-0.5-0.6-1-1.2-1.4-1.8c-1.9,0.4-5.1,2-7.4,3.6c1,4.2,2.7,8.1,4.1,12.3c-1.1,1.1-2.4,1.8-3.7,2.8
					c-0.4-0.3-0.9-0.5-1.3-0.8c-0.7-0.5-1.4-1.1-2.1-1.6c-1.7-1.3-3.5-2.7-5.2-4c-0.6-0.5-1.3-0.9-2-1.4c-2.2,1.7-4,3.6-5.8,5.7
					c0.8,1.6,1.9,2.9,2.9,4.2c0,0,0,0,0,0c0.3,0.4,0.6,0.8,0.9,1.2c0.5,0.6,1,1.3,1.5,1.9c0.5,0.6,1,1.3,1.5,1.9
					c0.3,0.4,0.7,0.9,1,1.3c-0.9,1.4-1.7,2.6-2.8,3.8c-4.1-1.4-8.1-2.8-12.1-4.2c-0.7,0.7-1.5,1.9-2.2,3.3c-0.3,0.5-0.5,0.9-0.7,1.4
					c-0.2,0.4-0.4,0.8-0.5,1.2c-0.2,0.5-0.4,1-0.5,1.4c0.4,0.3,0.7,0.8,1.2,1.1c2.5,1.8,5,3.5,7.6,5.2c0.6,0.4,1.1,0.8,1.8,1.3
					c-0.5,1.5-0.9,2.9-1.4,4.4c-0.2,0-0.4,0.1-0.6,0.1c-0.2,0-0.4,0.1-0.5,0.1h0c-0.1,0-0.3,0-0.4,0c-3.1,0-6.3-0.2-9.4-0.2
					c-0.7,0-1.4,0-2.1,0.1c-0.6,1.4-1,3.1-1.2,5.2c-0.1,0.8-0.2,1.8-0.2,2.8c0.4,0.2,0.8,0.4,1.3,0.6c1,0.3,1.9,0.6,2.9,0.9
					c1.2,0.4,2.5,0.7,3.7,1.1c1,0.3,0.6,0.6,1.6,0.9c0.5,0.2,0.2,0.4,0.2,0.5v4.7c0,0.4,0.3-1.4-0.9,1.6c0,0,0,0,0,0
					c-2.2,0-4.3,0.9-6.4,1.6c-0.8,0.3-1.6,0.4-2.4,0.7c-0.1,2.3,0.4,5.1,1.2,7.9c1.4,0.4,2.8-0.5,4.2-0.5c1.4,0,2.9-0.7,4.3-0.7h0.2
					c1.2,0,2.4,0.5,3.6,0.5l0.7,0.3c0.2,0.3,0.3,0.8,0.5,1.2c0.5,1.1,0.8,2.4,1.1,3.6c-0.2,0.2-0.5,0.4-0.7,0.5
					c-1.6,1-3.1,2.1-4.6,3.1c-1.7,1.2-3.5,2.5-5.1,3.7c0.1,0.5,0.2,1.1,0.5,1.7c0.1,0.3,0.2,0.6,0.4,1c0,0,0,0,0,0
					c0.7,1.6,1.7,3.3,2.7,4.7c0.5-0.1,1-0.2,1.6-0.4c2.9-1,5.8-2,8.7-3c0.7-0.2,1.3-0.5,2.1-0.8c0.9,1.3,1.8,2.4,2.8,3.7
					c-0.3,0.4-0.5,0.8-0.8,1.2c-1.9,2.5-3.8,5-5.7,7.5c-0.4,0.6-0.8,1.2-1.2,1.7c0.8,1.5,3.5,4.3,5.7,5.9c1.8-1.1,3.6-2.5,5.3-3.8
					c1.7-1.3,3.4-2.6,5.1-4c1.2,0.9,2.4,1.8,3.7,2.7c-0.1,0.5-0.2,1-0.4,1.4c-1.1,3-2.1,6-3.2,9.1c-0.2,0.6-0.4,1.2-0.5,1.8
					c1.3,1.3,4.7,3.1,7.3,3.8c0.4-0.5,0.9-1,1.3-1.6c1.7-2.5,3.4-4.9,5.1-7.4c0.4-0.5,0.7-1,1.1-1.6c1.6,0.4,3,0.8,4.5,1.5
					c-0.3,4.3-0.3,8.6-0.3,12.8c1.9,0.9,5.4,1,8.2,0.9c1.6-4,2.6-7.9,3.8-12.9h4.7c1.3,5,2.2,8.9,3.8,13c2.8,0,5.3-0.3,7.9-0.9
					c0.4-1.4-1.3-2.7-1.3-4.1c0-1.5-1.6-2.9-1.6-4.4v-4.4c2-0.6,4.3-1.1,5.9-1.4c2.4,3.6,5.4,7.2,8.1,10.4c1.8-0.3,5.5-1.9,7.8-3.6
					c-1-4.2-2.5-8.1-4-12.3c1.2-0.9,2.5-1.8,3.8-2.8c0.5,0.3,1,0.6,1.4,0.9c2.6,1.9,5.1,3.9,7.7,5.8c0.5,0.4,1.1,0.7,1.6,1
					c1.9-1.4,4.2-3.7,5.7-5.7c-1-1.9-2.4-3.6-3.8-5.4c-1.3-1.7-2.6-3.4-4-5.1c0.4-0.7,0.8-2,1.3-2.6c0.5-0.6,0.9-1.5,1.5-2.5h0
					c4.1,1,8.1,3.8,12.3,4.8c1.4-1.9,2.9-4.5,3.7-6.9c-0.3-0.3-0.7-0.5-1-0.8c-2.6-1.8-5.2-3.5-7.7-5.3c-0.6-0.4-1.2-0.8-1.8-1.2
					c0.3-1.6,0.8-3,1.5-4.6c1,0.1,2,0.2,3,0.2c1,0,2,0.1,3,0.1c2.3,0.1,4.6,0,7,0c0.7-1.5,0.7-3.2,1-4.8c0.1-0.4-1.4-0.9-1.2-1.3
					c0.1-0.3-0.7-0.5-0.7-0.7v-1.3c0-0.7-3.7-1.4-5.9-2c-2.2-0.6-5.1-1.2-6.1-1.9v-4.6C548.3,912.6,549.9,912.4,550.2,912.3z
					 M543.8,919c-1.8,21.4-18,38.6-38.8,42c-2.5,0.4-5,0.6-7.6,0.6c-17.9,0-33.5-10.1-41.3-24.9c-0.9-1.7-1.7-3.5-2.4-5.4
					c-0.7-2-1.4-4.1-1.8-6.2c-0.3-1.2-0.5-2.5-0.7-3.8c-0.3-2.1-0.4-4.2-0.4-6.3c0-2.6,0.2-5.1,0.6-7.6c0.9-5.3,2.7-10.4,5.2-14.9
					c1.7-3,3.7-5.9,6-8.4c0.7-0.8,1.5-1.6,2.3-2.4c3.2-3.1,6.8-5.8,10.8-7.9c5.4-2.9,11.4-4.7,17.8-5.2c1.3-0.1,2.6-0.2,4-0.2
					c25.8,0,46.6,20.9,46.6,46.6C544,916.3,543.9,917.6,543.8,919z"/>
				<path id="XMLID_164_" class="st16" d="M497.2,874.8c-22.2,0-40.2,18-40.2,40.2c0,22.2,18,40.2,40.2,40.2
					c22.2,0,40.2-18,40.2-40.2C537.4,892.8,519.4,874.8,497.2,874.8z M497.2,928.4c-7.4,0-13.4-6-13.4-13.4c0-7.4,6-13.4,13.4-13.4
					c7.4,0,13.4,6,13.4,13.4C510.6,922.4,504.6,928.4,497.2,928.4z"/>
			</g>
			<g id="XMLID_149_">
				<path id="XMLID_159_" class="st15" d="M418.9,897.6c-4.6-2.2-9.4-3.7-14.2-5.3c-1-0.4-2.1-0.7-3.1-1.1c-0.2-0.4-0.3-0.8-0.3-1.2
					c0,0,0,0,0-0.1c-0.3-1.3-0.2-2.6-0.1-4c0-0.6,0-1.3,0-2c0-0.4-0.1-0.8-0.1-1.3c1.3-0.5,2.5-0.9,3.7-1.4
					c4.8-1.7,9.4-3.4,14.2-5.2c0.2-2.1,0.1-4.1-0.2-6.1c-0.4-2.7-1-5.4-1.6-8.2c-3.2-0.8-6.3-0.6-9.3-0.7h-0.1
					c-3.1-0.1-6.2-0.1-9.5-0.2c-0.1-0.1-0.1-0.2-0.2-0.3c-1.3-2.4-1.7-5-2.7-7.5c0.6-0.7,1.1-1.4,1.8-2c1.6-1.3,3.3-2.5,4.9-3.8
					c1.7-1.3,3.5-2.6,5.2-4c0.8-0.6,1.5-1.3,2.3-2c0.2-0.2,0.5-0.5,0.8-0.7c-1.2-2.9-2.4-5.5-3.8-8.1c-0.8-1.5-1.7-3-2.8-4.4
					c-4.4,0.7-8.7,2.1-13,3.5c-1.8,0.6-3.5,1.1-5.3,1.6c-1.8-2.4-3.4-4.6-5.2-7c3.7-5.3,7.5-10.3,10.6-15.8c-3-3.9-6.4-7.1-9.9-10.2
					c-5.8,3.1-10.7,7-16.1,10.7c-2.3-1.7-4.6-3.4-6.8-5.1c1.5-6.3,4-12.1,5-18.4c-3.8-2.7-7.9-4.6-12.3-6.5
					c-0.8,0.7-1.7,1.4-2.3,2.2c-2.5,3.2-5,6.5-7.5,9.7c-0.8,1-1.6,1.9-2.4,2.9c-2.9-0.7-5.6-1.4-8.1-2.8c-0.3-2.9-0.2-5.7-0.2-8.6
					c0-3.4-0.1-6.9-1-10.2c-4.1-1.3-8.3-1.6-12.6-2.2c-0.2,0-0.4-0.1-0.6-0.1c-0.4,0.6-0.8,1.3-1.2,1.9c-0.2,0.3-0.3,0.5-0.4,0.8
					c-1.6,4.3-3.1,8.6-4.6,12.8c-0.3,0.7-0.5,1.4-0.9,2.3c-2.9,0.5-5.6,0.2-8.5,0.2c-2.4-5.4-3.6-11.1-6.1-16.5
					c-0.2-0.5-0.4-0.9-0.7-1.3c-4.6,0-9,0.9-13.6,1.9c-0.2,0.9-0.5,1.8-0.6,2.7c-0.2,3.9-0.4,7.8-0.5,11.8c-0.1,1.5-0.1,3.1-0.1,4.9
					c-2.7,0.9-5.2,1.7-7.9,2.6c-2.4-2.1-3.9-5-5.9-7.4c-2-2.4-3.9-4.9-5.8-7.2c-2.7,0.5-5.7,1.7-8.9,3.6c-1.3,0.8-2.7,1.7-4.1,2.7
					c0.7,6.1,3.3,11.9,4.9,18c-1.9,2.1-4.4,3.5-6.8,5.2c-5.2-3.5-10.4-7-15.4-10.4c-3.4,2-7,5.4-10.5,10.1
					c2.9,5.4,6.8,10.3,10.4,15.6c-0.2,0.4-0.4,0.8-0.7,1.2c-0.2,0.4-0.4,0.7-0.7,1.1c-0.5,0.8-1,1.5-1.6,2.2
					c-0.4,0.6-0.9,1.1-1.4,1.7c-0.2,0.3-0.5,0.6-0.7,0.8h0c-6.1-1.3-11.9-3.9-18.2-4.9c-2.9,3.8-4.7,8.1-6.5,12.4
					c4.5,4.8,10,7.9,14.8,12.1c-0.4,1.3-0.6,2.5-1,3.7c-0.5,1.5-1,2.9-1.6,4.4c-0.6,0-1.2,0.1-1.8,0.1c-5.8,0.3-11.5-0.1-17.2,0.7
					c-1.2,4.6-2,9-2.2,13.8c5.6,3.1,11.7,4.4,17.6,6.7c0.8,2.8,0.4,5.6,0.3,8.6c-5.9,2.1-11.7,4.3-17.6,6.4c-0.3,5,0.8,9.6,1.9,14.3
					c6.4,1.1,12.6,0.3,19,1c0.5,1.4,1,2.6,1.5,4c0.4,1.3,0.8,2.7,1.2,4.2c-3,2.5-6.2,4.7-9.3,7.1c-1.9,1.5-3.7,3-5.5,4.7
					c1.6,4.5,3.8,8.5,6.2,12.6c2.3-0.3,4.6-0.9,6.9-1.5c3.8-1.1,7.6-2.4,11.5-3.5c0.9,1.1,1.8,2.1,2.6,3.2c0.8,1.1,1.6,2.3,2.6,3.6
					c-3.5,5.2-7,10.4-10.6,15.6c2.7,4.1,6.4,7,9.9,10.5c5.7-3.1,10.6-6.9,15.9-10.6c2.6,1.2,4.7,3.2,7.1,4.9c-1.4,6.2-4,11.9-4.9,18
					c2.8,2.6,7.2,5,12.6,6.7c4.3-4.3,7.7-9.6,11.6-14.6c0.3,0.1,0.7,0.1,1,0.2c0.4,0.1,0.9,0.2,1.3,0.3c0.2,0.1,0.4,0.1,0.6,0.2
					c0.2,0.1,0.4,0.1,0.6,0.2c0.4,0.1,0.7,0.2,1.1,0.4c1.2,0.4,2.4,0.9,3.6,1.5c0,0.9,0.1,1.7,0.1,2.5c0,0.8,0,1.7,0,2.6
					c0,1.1,0,2.1,0.1,3.2c0,0.8,0,1.7,0.1,2.5c0,0.5,0,1,0.1,1.5c0,0.5,0.1,1,0.1,1.5c0,0.5,0.1,1,0.1,1.5c0,0,0,0.1,0,0.1
					c0.1,0.6,0.1,1.2,0.2,1.7c0.1,0.6,0.2,1.1,0.3,1.7c0.4,0.1,0.8,0.3,1.3,0.4c0.3,0.1,0.7,0.2,1,0.3c0.5,0.1,0.9,0.2,1.4,0.3
					c0.6,0.1,1.3,0.3,1.9,0.4c0.8,0.1,1.5,0.2,2.3,0.3c0.8,0.1,1.5,0.2,2.3,0.3c1.2,0.1,2.3,0.3,3.5,0.4c0.1-0.1,0.1-0.3,0.2-0.4
					c2.3-4.3,3.6-8.9,5.2-13.6c0.4-1.3,0.9-2.5,1.4-3.8c1.3-0.1,2.7-0.2,4.1-0.3c1.1,0,2.3,0,3.5,0.1c0.3,0,0.6,0,0.9,0
					c2.5,5.6,3.7,11.6,6.5,17.1c0.1,0.2,0.2,0.4,0.3,0.6c1,0,2.1,0,3.1-0.1c3.5-0.3,6.9-1.1,10.6-1.8c1-3.1,0.9-6.2,1-9.3
					c0-0.6,0-1.2,0-1.8c0-2.1,0-4.1,0-6.3v-1.4c2.5-1.7,5.3-2.1,8.1-3c2.4,2.1,3.9,4.9,5.8,7.3c0.1,0.1,0.2,0.2,0.2,0.3
					c1.9,2.3,3.8,4.7,5.6,6.9c0.3-0.1,0.7-0.1,1.1-0.2c2.5-0.6,5.4-1.9,8.4-3.7c1.1-0.7,2.3-1.4,3.5-2.3c-0.1-0.5-0.1-1-0.2-1.4
					c-0.2-1.4-0.5-2.7-0.9-4.1c0,0,0,0,0,0c0-0.1-0.1-0.3-0.1-0.4c-0.1-0.4-0.2-0.8-0.3-1.2c-0.5-1.6-0.9-3.1-1.4-4.7
					c-0.3-0.9-0.6-1.9-0.9-2.8c-0.4-1.1-0.7-2.3-1-3.4c1.8-2.3,4.4-3.5,6.8-5.4c0.7,0.5,1.3,0.9,2,1.4c0.6,0.5,1.3,0.9,1.9,1.3
					c1.3,0.9,2.6,1.8,3.8,2.6c2.6,1.7,5.2,3.4,7.7,5.1c0.6-0.3,1.3-0.8,1.9-1.2c0.3-0.2,0.6-0.4,0.9-0.7c0.3-0.2,0.7-0.5,1-0.8
					c0.3-0.2,0.5-0.5,0.8-0.7c0.1-0.1,0.2-0.2,0.3-0.2c0.3-0.2,0.5-0.5,0.8-0.7c0.7-0.7,1.4-1.4,2.1-2.2c0.4-0.5,0.8-0.9,1.2-1.4
					c0.1-0.2,0.2-0.3,0.4-0.5c0.4-0.5,0.8-1.1,1.2-1.6c-0.3-0.7-0.7-1.4-1.1-2c-0.8-1.3-1.6-2.6-2.5-3.9c-0.1-0.1-0.2-0.3-0.3-0.4
					c-0.3-0.5-0.7-1-1-1.5c-0.5-0.7-1-1.5-1.6-2.2c-0.7-0.9-1.3-1.8-2-2.8c-0.6-0.8-1.2-1.7-1.7-2.5c-0.1-0.1-0.1-0.2-0.2-0.3
					c1.3-2.5,3-4.7,5-7c6.1,1.4,11.9,3.9,18.2,5c1-1.3,1.9-2.8,2.7-4.2c1.5-2.6,2.7-5.4,3.8-8.3c-4.5-4.6-9.9-7.8-14.7-11.9
					c0.3-2.4,1.1-4.6,2-6.8c0.2-0.4,0.3-0.9,0.5-1.3c6.1-0.7,12.2,0,18.4-0.9c0.2,0,0.4-0.1,0.6-0.1c0.1-0.5,0.3-1.1,0.4-1.6
					c0.6-2.6,1.2-5.2,1.4-7.9C418.9,900.6,419,899.1,418.9,897.6z M309.3,967c-1.5,0.1-3.1,0.1-4.6,0.1c-1.2,0-2.3,0-3.5-0.1
					c-1.5-0.1-3-0.2-4.4-0.3c-3.9-0.4-7.8-1-11.5-2c-3.6-0.9-7.2-2-10.6-3.4c-0.5-0.2-1.1-0.4-1.6-0.7c-1.1-0.5-2.2-1-3.3-1.5
					c-4.9-2.3-9.5-5.2-13.8-8.4c-19.1-14.4-31.8-37.3-31.8-64.1c0-3.5,0.2-7,0.6-10.3c0.5-3.9,1.2-7.7,2.3-11.3
					c0.2-0.9,0.5-1.8,0.8-2.7c0.3-0.9,0.6-1.8,0.9-2.7c0.2-0.6,0.4-1.3,0.7-1.9c0-0.1,0-0.1,0.1-0.2c0.2-0.4,0.3-0.8,0.5-1.2
					c0.2-0.5,0.4-1.1,0.7-1.6c0.2-0.3,0.3-0.6,0.4-0.9c0.3-0.6,0.6-1.3,0.8-1.9c0.4-0.8,0.8-1.6,1.2-2.5c0.4-0.8,0.8-1.6,1.3-2.4
					c0.4-0.8,0.9-1.6,1.4-2.4c1.9-3.1,4-6.1,6.3-8.8c0.5-0.7,1.1-1.4,1.7-2.1c0.5-0.6,1.1-1.3,1.7-1.9c0,0,0.1-0.1,0.1-0.1
					c0.6-0.7,1.2-1.3,1.9-1.9c0.6-0.6,1.3-1.3,1.9-1.9c0.7-0.6,1.3-1.2,2-1.8c0.5-0.4,0.9-0.8,1.4-1.2c0.2-0.2,0.5-0.4,0.7-0.6
					c0.3-0.3,0.6-0.5,1-0.8l0,0c1.8-1.4,3.6-2.7,5.5-4c0.7-0.5,1.5-1,2.3-1.4c3.1-1.9,6.3-3.6,9.6-5.1c1.6-0.7,3.1-1.3,4.8-2
					c8.7-3.3,18.1-5,27.6-5.1c4.9,0,9.7,0.4,14.4,1.3c21.6,3.9,40.8,16.5,52.8,34.5c4.2,6.3,7.6,13.2,9.9,20.6
					c1.6,5.2,2.8,10.6,3.3,16.2c0.1,1.4,0.2,2.8,0.3,4.2c0,0.3,0,0.6,0,0.8c0,0.7,0,1.4,0.1,2.1c0,3.4-0.1,6.7-0.5,10
					c-0.2,2-0.5,4.1-0.9,6.1c-0.8,4.4-2,8.6-3.5,12.7c-0.3,0.8-0.6,1.6-0.9,2.4c-0.6,1.5-1.3,3-2,4.5c-0.2,0.4-0.4,0.8-0.6,1.2
					c-0.4,0.8-0.8,1.6-1.2,2.3c-0.4,0.7-0.7,1.3-1.1,2c-0.4,0.7-0.8,1.4-1.2,2.1c-0.5,0.9-1.1,1.7-1.6,2.5c-1,1.5-2.1,3-3.2,4.4
					c-0.5,0.7-1.1,1.4-1.7,2.1c0,0,0,0-0.1,0.1c-0.6,0.7-1.1,1.3-1.7,2c-0.4,0.5-0.9,1-1.3,1.5c-0.3,0.3-0.5,0.6-0.8,0.8
					c-0.1,0.1-0.3,0.3-0.4,0.4c-0.4,0.4-0.8,0.8-1.2,1.2c-0.6,0.6-1.2,1.2-1.8,1.8h0c0,0-0.1,0.1-0.1,0.1c-0.6,0.6-1.3,1.2-2,1.8
					c-0.6,0.5-1.1,1-1.7,1.4c-0.1,0.1-0.2,0.2-0.4,0.3c-1.4,1.1-2.9,2.2-4.3,3.2c-0.7,0.5-1.5,1-2.3,1.5c-0.4,0.3-0.9,0.6-1.3,0.9
					c-0.2,0.1-0.5,0.3-0.7,0.4c-0.5,0.3-0.9,0.6-1.4,0.8c-0.4,0.3-0.8,0.5-1.2,0.7c-0.8,0.5-1.6,0.9-2.3,1.3c0,0-0.1,0-0.1,0
					c-0.8,0.4-1.6,0.8-2.4,1.2c-0.8,0.4-1.6,0.8-2.5,1.1c-0.8,0.4-1.7,0.7-2.5,1c-0.8,0.4-1.7,0.7-2.6,1c-0.9,0.3-1.7,0.6-2.6,0.9
					c-0.9,0.3-1.8,0.5-2.6,0.8c-0.9,0.3-1.8,0.5-2.7,0.7c-1.8,0.4-3.6,0.8-5.5,1.1c-0.9,0.2-1.8,0.3-2.8,0.4
					C313,966.7,311.2,966.9,309.3,967z"/>
				<path id="XMLID_150_" class="st16" d="M387.9,884.3c0-0.1,0-0.3,0-0.4c0-1.2-0.1-2.5-0.2-3.7c-0.6-7.8-2.3-15.4-4.9-22.4
					c-2.1-5.7-4.8-11.1-8.1-16.2c-13-20.2-34.6-34.5-59.5-37.7c-3.5-0.5-7.1-0.7-10.7-0.7c-10.7,0-20.9,2-30.3,5.7
					c-1.7,0.7-3.4,1.4-5,2.1c-24.7,11.5-42.8,34.8-47.2,62.6c-0.7,4.3-1,8.6-1,13.1c0,28.4,14.2,53.5,35.9,68.6c3,2.1,6.1,4,9.4,5.6
					c2.1,1.1,4.3,2.1,6.5,3c1.7,0.7,3.5,1.4,5.3,2c15,4.9,32.4,4.8,47.7,1c8.9-2.2,17.4-5.9,25.1-11c1-0.7,2-1.2,2.9-1.9
					c3.1-2.2,6-4.6,8.7-7.2c1.2-1.1,2.3-2.2,3.3-3.4c4.9-5.3,9.1-11.1,12.5-17.5c1.5-2.9,2.9-5.8,4.1-8.9c1.8-4.7,3.3-9.6,4.2-14.7
					c0-0.1,0-0.2,0-0.3c0.3-1.6,0.5-3.2,0.8-4.9c0.4-3.4,0.7-6.9,0.7-10.5C388,885.9,388,885.1,387.9,884.3z M241.4,850.3
					c3.5-6.1,10.5-8.9,17-7.4c1.5,0.3,2.9,0.9,4.3,1.7c7.5,4.3,10,13.8,5.7,21.3c-3.5,6-10.3,8.8-16.7,7.5c-1.6-0.3-3.1-0.9-4.6-1.8
					c-1.3-0.8-2.5-1.7-3.5-2.8c-1.2-1.2-2.1-2.6-2.8-4.2C238.7,860.1,238.8,854.8,241.4,850.3z M268.5,923c-1.3,2.4-3.3,4.4-5.8,5.9
					c-5.7,3.3-12.6,2.6-17.5-1.3c-1.5-1.2-2.8-2.7-3.8-4.4c-4.3-7.5-1.7-17,5.7-21.3c0.6-0.3,1.1-0.6,1.7-0.8
					c3.9-1.7,8.1-1.6,11.9-0.1c3.1,1.2,5.9,3.5,7.7,6.7C271.2,912.6,271.1,918.4,268.5,923z M303.5,813.8c0.3,0,0.7,0,1.1,0
					c8.6,0,15.6,7,15.6,15.6c0,0.7,0,1.4-0.1,2.1c-1,7.6-7.5,13.5-15.4,13.5c-8.6,0-15.6-7-15.6-15.6
					C289,821.1,295.4,814.4,303.5,813.8z M319.8,947.8c-1.2,5.1-4.9,9.1-9.7,11c-1.7,0.6-3.6,1-5.5,1c-2.5,0-4.9-0.6-7-1.7
					c-5.1-2.6-8.5-7.8-8.5-13.9c0-1.7,0.3-3.4,0.8-4.9c1.3-3.8,4-7,7.6-8.9c0.6-0.3,1.3-0.6,2-0.9c0.3-0.1,0.5-0.2,0.8-0.3
					c1.4-0.4,2.9-0.6,4.4-0.6c0.5,0,0.9,0,1.4,0.1c2.4,0.2,4.7,1,6.6,2.2c1.6,0.9,3,2.2,4.1,3.6c2.1,2.7,3.4,6.1,3.4,9.8
					C320.2,945.4,320,946.6,319.8,947.8z M304.5,912.1c-14,0-25.4-11.4-25.4-25.4c0-14,11.4-25.4,25.4-25.4
					c14,0,25.4,11.4,25.4,25.4C329.9,900.7,318.5,912.1,304.5,912.1z M338.5,852.4c1.2-3.2,4.1-6,7.4-7.9c1.6-1,3.7-1.6,5.5-1.9
					c4.3-0.8,9,0.4,12.4,3.1c1.5,1.2,2.9,2.7,3.9,4.4c2.1,3.6,2.6,7.7,1.7,11.4c-0.8,3.3-2.6,6.3-5.3,8.5c-0.6,0.5-1.3,1-2,1.4
					c-0.7,0.4-1.3,0.7-2,1c-0.4,0.2-0.7,0.3-1.1,0.4c0,0,0,0,0,0c-0.5,0.2-1,0.3-1.5,0.4c-6.4,1.3-13.2-1.5-16.7-7.5
					c-0.3-0.6-1.9-1.2-2.1-1.9c-0.6-1.5-2.4-3-2.4-4.5v0C336.3,857.1,337.7,854.7,338.5,852.4z M367.8,923.2
					c-1.6,2.8-3.9,4.9-6.6,6.2c-4.5,2.2-10,2.2-14.7-0.5c-7.4-4.3-10-13.8-5.7-21.3c1.1-1.8,2.4-3.4,4-4.6c3.5-2.7,8.1-3.8,12.5-2.9
					c1.7,0.3,3.3,0.9,4.8,1.8c2.5,1.4,4.4,3.4,5.7,5.7C370.5,912.3,370.7,918.2,367.8,923.2z"/>
			</g>
			<g id="XMLID_130_">
				<path id="XMLID_146_" class="st16" d="M688.5,867.8c-30.4,0-55.1,24.7-55.1,55.1c0,30.4,24.7,55.1,55.1,55.1
					c30.4,0,55.1-24.7,55.1-55.1C743.5,892.5,718.9,867.8,688.5,867.8z M688.5,953.2c-16.7,0-30.3-13.6-30.3-30.3
					c0-16.7,13.6-30.3,30.3-30.3s30.3,13.6,30.3,30.3C718.8,939.6,705.2,953.2,688.5,953.2z"/>
				<path id="XMLID_131_" class="st15" d="M773,917.7c5.2-2.1,10.1-4.2,15.3-6.2c0.4-0.2,1-0.2,1-0.3v-1.4c0-1.9-0.9-3.7-1.4-5.6
					c-0.2-0.6-0.3-0.9-0.4-1.6c-0.5-2.3-1-5.6-1.5-6.6h-19.4c-1.1-5-2.3-5.8-3.3-8.2c4.6-4.8,9.1-9.5,13.5-14.2
					c-1.5-2.8-3.1-5.4-4.8-7.9c-1.3-1.9-2.6-3.7-4.1-5.5c-6.1,2-11.9,4.7-17.5,7.3c-2.3-2.3-4.5-4.5-6.7-6.7
					c0.3-0.6,0.5-1.2,0.8-1.8c0.4-0.9,0.8-1.8,1.2-2.8c1-2.2,1.9-4.5,2.9-6.9c0.8-2,1.7-4,2.6-6c-4.2-3.4-8.6-6.3-13.3-8.9
					c-3.7,3.1-7,6.5-10.3,10.1l0,0c-1.1,1.2-2.2,2.3-3.2,3.5c-2.7-1.1-5.6-2.2-8.3-3.3c-0.2-0.1-0.8-0.2-0.8-0.2v-19.2
					c0,0,0.1,0,0-0.1c-0.8-0.3-1.6-0.5-2.4-0.7c-0.5-0.2-1-0.3-1.6-0.4c-1.1-0.3-2.2-0.5-3.3-0.7c-0.6-0.1-1.1-0.2-1.7-0.3
					c-0.6-0.1-1.2-0.2-1.8-0.3c-0.4-0.1-0.8-0.1-1.3-0.2c-1.1-0.2-2.1-0.3-3.2-0.4c-0.3,0.9-0.7,1.8-1.1,2.6
					c-0.4,0.9-0.7,1.8-1.1,2.7c-1,2.4-1.9,4.3-2.9,6.7c-0.7,1.7-1.4,3.8-2.1,4.8h-9.2c-0.1,0,0.6,0.5,0.6,0.2v0
					c-4-5.7-5-11.3-7.3-17c-0.4,0-1.1,0.1-1.5,0.1c-0.3,0-0.8,0.1-1.2,0.1c-0.7,0.1-1.5,0.2-2.2,0.3c-0.8,0.1-1.7,0.3-2.5,0.4
					c-0.4,0.1-0.8,0.1-1.1,0.2c-0.4,0.1-0.7,0.1-1.1,0.2c-0.4,0.1-0.8,0.2-1.2,0.3c-0.5,0.1-1,0.2-1.5,0.4c-0.6,0.2-1.5,0.3-2.2,0.5
					c-0.6,0.2-2.2,0.4-2.2,0.6v19.2c-2,0.2-0.9,0.5-1.4,0.7c-0.9,0.4-1.7,0.8-2.7,1.2c-1.3,0.6-2.6,1.1-4,1.7
					c-0.2-0.2-0.4-0.3-0.6-0.5c-4-4.4-8.1-9.6-12.6-12.6h0c0,0-0.1-0.3-0.2-0.3c-0.2,0.1-0.4,0.1-0.6,0.2c-1.2,0.7-2.4,1.3-3.6,2.1
					c-3.1,1.9-6.1,4-9.1,6.4c2.5,5.8,4.9,11.6,7.3,17.2c-2.2,2.2-4.4,4.3-6.8,6.7c-5.3-2.3-11.2-4.8-17.2-7.3
					c-3.4,4.3-6.3,8.6-8.9,13.3c4.2,4.9,8.9,9.5,13.7,13.9c-1.2,2.9-2.4,3.9-3.6,8.9h-19.2c-1.6,4-3.1,9.9-3.7,15.5
					c5.9,2.4,11.2,4.4,17.2,6.8v9.2c-6,2.4-11.2,4.7-17.2,7.1c0.4,5.4,1.8,10.5,3.2,15.7c6.4,0.5,12.9,0.1,19.4,0
					c1.2,2.8,2.4,5.6,3.7,8.6c-4.6,4.4-9.4,8.7-13.6,13.6c2.6,4.7,5.5,9,8.9,13.3c5.9-2.5,11.7-5,17.2-7.3c2.2,2.2,4.4,4.4,6.7,6.7
					c-2.3,5.4-4.8,11.3-7.3,17.2c4.3,3.4,8.6,6.3,13.3,8.9c4.9-4.2,8.9-8.9,13.3-13.7c2.9,1.2,5.3,2.3,8.3,3.5v19.2
					c5,1.6,10.5,2.6,16,3.2c2.4-5.9,5-11.7,7.4-17.7h9.1c2.3,6,4.5,11.6,6.9,17.7c5.5-0.5,11.6-1.6,15.6-3.2v-19.2
					c3-1.1,5.7-2.3,8.8-3.6c4.3,4.7,8.8,9.4,13.6,13.6c3.8-1.7,10.8-6.5,13.4-9c-2.4-5.7-4.8-11.5-7.2-17c2.2-2.2,4.4-4.4,6.7-6.7
					c5.4,2.3,11.2,4.8,17.2,7.3c3.5-4.3,6.3-8.6,9-13.3c-4.2-4.8-8.9-9.2-13.7-13.5c0.9-2.3,1.9-5.8,2.9-8.1
					c0.2-0.6,0.5-0.9,0.7-2.9h19.2c1.3-1,1.9-6.4,2.6-10.2c0.2-0.9,0.9-0.5,0.9-1.3v-1.9c0-0.1-1.2-0.2-1.7-0.4c-5-2-9.4-4-14.4-6
					c-0.5-0.2-0.9-0.4-0.9-0.7v-9.2C772.3,918.1,772.6,917.9,773,917.7z M738.9,886.7c0.6-1.4,1.6-2.7,3.1-3.5
					c0.3-0.2,0.5-0.3,0.8-0.4c3.4-1.4,7.3-0.2,9.2,3.1c2,3.5,0.8,8-2.7,10c-1.4,0.8-3,1.1-4.5,0.9c-0.7-0.1-1.4-0.3-2.1-0.6
					c-1.4-0.6-2.6-1.6-3.4-3C738.1,891.2,738,888.8,738.9,886.7z M715,861.7c2-3.5,6.5-4.7,10-2.7c0.5,0.3,0.9,0.6,1.2,0.9
					c2.5,2.3,3.2,6.1,1.5,9.1c-0.6,1.1-1.5,2-2.5,2.6c-0.4,0.2-0.7,0.4-1.1,0.5c-2,0.8-4.3,0.7-6.4-0.5c-2-1.2-3.2-3.1-3.6-5.2
					C713.9,864.9,714.2,863.2,715,861.7z M688.3,849.2c4,0,7.3,3.3,7.3,7.3s-3.3,7.3-7.3,7.3c-4,0-7.3-3.3-7.3-7.3
					S684.3,849.2,688.3,849.2z M647.9,864.6c0-0.3,0.1-0.5,0.1-0.8c0.1-0.5,0.3-1,0.5-1.5c0.1-0.2,0.2-0.4,0.3-0.6
					c0-0.1,0.1-0.1,0.1-0.2c0.1-0.2,0.2-0.4,0.4-0.5c0,0,0,0,0,0c0.1-0.2,0.3-0.3,0.4-0.5c0.2-0.2,0.4-0.4,0.6-0.6c0,0,0,0,0,0
					c0.3-0.3,0.7-0.5,1.1-0.8c1.8-1,3.9-1.2,5.7-0.7c1.7,0.5,3.2,1.7,4.2,3.3c0.9,1.5,0.8,3.3,0.8,4.9v0c0,2.1-1.5,3.9-3.5,5
					c-1.1,0.7-2.4,1-3.6,1c-0.2,0-0.5,0-0.7,0c-0.1,0-0.1,0-0.2,0c-0.2,0-0.4-0.1-0.6-0.1c-0.3-0.1-0.6-0.2-0.9-0.3
					c-0.5-0.2-1-0.4-1.4-0.7c-0.2-0.2-0.5-0.3-0.7-0.5c-0.2-0.1-0.4-0.3-0.6-0.5c0,0-0.1,0-0.2,0c-0.2-0.2-0.6-0.4-0.6-0.6v0
					c0-0.1,0-0.1-0.1-0.2c-0.2-0.2-0.3-0.4-0.4-0.7c-0.7-1.1-1-2.4-1-3.7C647.9,865.1,647.9,864.8,647.9,864.6z M624.7,885.9
					c2-3.5,6.5-4.7,10-2.7c1.6,0.9,2.7,2.3,3.2,3.8c0.7,2,0.6,4.2-0.5,6.1c-1.1,1.9-3,3.2-5.1,3.5c-1.6,0.3-3.3,0-4.9-0.9
					C623.8,893.9,622.6,889.4,624.7,885.9z M614.8,922.7c0-1.4,0.4-2.8,1.1-3.9c1.3-2.1,3.6-3.4,6.2-3.4c1.7,0,3.4,0.6,4.6,1.6
					c1.6,1.3,2.7,3.4,2.7,5.7c0,2.3-1.1,4.4-2.7,5.7c-0.2,0.2-0.4,0.3-0.7,0.5c-1.1,0.7-2.5,1.1-3.9,1.1
					C618.1,930,614.8,926.7,614.8,922.7z M637.7,958.6c-0.6,1.4-1.6,2.7-3.1,3.5c-3.5,2-8,0.8-10-2.7c-2-3.5-0.8-8,2.7-10
					c1.5-0.8,3.1-1.1,4.6-0.9c2.2,0.3,4.2,1.5,5.3,3.6C638.5,954.1,638.6,956.5,637.7,958.6z M661.5,983.6c-2,3.5-6.5,4.7-10,2.7
					c-3.5-2-4.7-6.5-2.7-10c0.8-1.4,2-2.4,3.4-3c2.1-0.9,4.5-0.8,6.6,0.4c2.1,1.2,3.4,3.3,3.6,5.6
					C662.6,980.7,662.3,982.2,661.5,983.6z M692.2,995c-1.1,0.7-2.5,1.1-3.9,1.1c-4,0-7.3-3.3-7.3-7.3c0-1.4,0.4-2.8,1.1-3.9
					c0.1-0.1,0.1-0.2,0.2-0.3c1.3-1.9,3.5-3.1,6-3.1c2.5,0,4.7,1.2,6,3.1c0.8,1.2,1.3,2.6,1.3,4.2
					C695.6,991.4,694.2,993.7,692.2,995z M725,986.3c-3.5,2-8,0.8-10-2.7c-0.8-1.3-1.1-2.8-1-4.2c0.2-2.3,1.5-4.2,3.6-5.5
					c2.2-1.3,4.7-1.9,6.8,0.1h0c1.3,0,2.4,1.3,3.2,2.6C729.7,980.1,728.5,984.3,725,986.3z M737.5,947.9c0,0,0,0.1-0.1,0.1
					c-0.7,1.4-1.5,2.7-2.3,4c0,0-0.1,0.1-0.1,0.1c-0.4,0.7-0.9,1.3-1.3,2c-0.5,0.7-1,1.4-1.5,2.1c-0.4,0.6-0.9,1.2-1.4,1.7
					c-0.5,0.6-1,1.2-1.6,1.8c-0.4,0.5-0.8,0.9-1.3,1.4c-0.6,0.6-1.2,1.2-1.9,1.8c-0.1,0.1-0.3,0.3-0.4,0.4c-0.7,0.6-1.4,1.2-2.1,1.8
					c-0.5,0.4-0.9,0.8-1.4,1.1c-0.4,0.3-0.7,0.6-1.1,0.8c-0.3,0.2-0.6,0.5-0.9,0.7c-1.1,0.8-2.2,1.5-3.4,2.2c-0.3,0.2-0.7,0.4-1,0.6
					c-1.1,0.6-2.2,1.2-3.3,1.7c-0.3,0.1-0.5,0.3-0.8,0.4c-0.5,0.2-1.1,0.5-1.6,0.7c-0.3,0.1-0.5,0.2-0.8,0.3c0,0,0,0-0.1,0
					c-0.6,0.2-1.2,0.5-1.8,0.7c-0.6,0.2-1.2,0.5-1.9,0.6c0,0,0,0-0.1,0c-0.4,0.1-0.7,0.2-1.1,0.3c-0.3,0.1-0.6,0.2-1,0.3
					c-0.3,0.1-0.7,0.2-1,0.3c-0.6,0.2-1.1,0.3-1.7,0.4c-0.3,0.1-0.6,0.1-1,0.2c-0.1,0-0.1,0-0.2,0c-0.6,0.1-1.2,0.3-1.8,0.3
					c-0.8,0.1-1.7,0.3-2.5,0.4c-0.8,0.1-1.6,0.2-2.3,0.2c-0.2,0-0.4,0-0.6,0c-0.7,0.1-1.4,0.1-2.1,0.1c-0.6,0-1.2,0-1.8,0
					c-0.6,0-1.2,0-1.8,0c-0.2,0-0.3,0-0.5,0c-0.6,0-1.1-0.1-1.6-0.1c-0.7,0-1.3-0.1-1.9-0.2c-0.6-0.1-1.3-0.1-1.9-0.2
					c-1.3-0.2-2.5-0.4-3.8-0.7c-1.2-0.2-2.5-0.6-3.7-0.9c-18.3-5.2-32.7-19.6-37.9-37.9c-0.3-0.9-0.5-1.9-0.7-2.9
					c0-0.2-0.1-0.4-0.1-0.6c-0.1-0.5-0.2-1-0.3-1.5c-0.4-2-0.6-4-0.8-6.1c0-0.4-0.1-0.8-0.1-1.2c0-0.5,0-0.9-0.1-1.4c0-1,0-2,0-3
					c0-0.4,0-0.8,0-1.1c0.1-1.7,0.2-3.3,0.5-5c0-0.4,0.1-0.7,0.2-1.1c0.1-0.8,0.3-1.6,0.4-2.3c0.1-0.3,0.1-0.7,0.2-1
					c0-0.2,0.1-0.4,0.1-0.6c0.1-0.4,0.2-0.8,0.3-1.2c1.4-5.3,3.5-10.3,6.3-14.8c0.2-0.3,0.4-0.6,0.5-0.9c0.5-0.7,1-1.5,1.5-2.2
					c0.2-0.3,0.5-0.7,0.7-1c0.8-1,1.6-2,2.4-3c0.5-0.6,1.1-1.3,1.7-1.9c0.2-0.2,0.4-0.4,0.6-0.7l0.1-0.1c0.3-0.3,0.6-0.6,0.9-0.9
					c1.2-1.1,2.4-2.2,3.7-3.3c0.3-0.3,0.6-0.5,1-0.8c0.3-0.3,0.6-0.5,1-0.8c0.3-0.2,0.7-0.5,1-0.7c0.3-0.2,0.7-0.5,1-0.7
					c0.3-0.2,0.7-0.5,1-0.7c0.3-0.2,0.7-0.4,1-0.6c1.1-0.7,2.2-1.3,3.3-1.9c0.1,0,0.1-0.1,0.2-0.1c0.3-0.1,0.6-0.3,0.9-0.5
					c0.5-0.2,1-0.5,1.5-0.7c0.3-0.1,0.5-0.2,0.8-0.3c1.1-0.5,2.3-1,3.5-1.4c0.8-0.3,1.6-0.5,2.4-0.8c0.4-0.1,0.8-0.3,1.2-0.4
					c0.8-0.2,1.5-0.4,2.3-0.6c0.5-0.1,1-0.2,1.4-0.3c0.4-0.1,0.8-0.2,1.3-0.3c0.4-0.1,0.8-0.2,1.3-0.2c0.4-0.1,0.8-0.1,1.3-0.2
					c0.4-0.1,0.9-0.1,1.3-0.2c1.6-0.2,3.3-0.3,5-0.3c5.2-0.1,10.2,0.5,15,1.7c3.2,0.8,6.4,1.9,9.3,3.3c4.3,2,8.4,4.6,12,7.6
					c0.3,0.3,0.6,0.5,0.9,0.8c1.5,1.3,2.9,2.6,4.3,4.1c0.1,0.1,0.2,0.2,0.3,0.4c8.2,8.9,13.5,20.6,14.4,33.6c0,0.5,0.1,1.1,0.1,1.6
					c0.1,2.8,0,5.6-0.3,8.4c-0.1,0.7-0.2,1.4-0.3,2c0,0.3-0.1,0.5-0.1,0.8c-0.2,1.3-0.5,2.7-0.8,4c-0.1,0.3-0.2,0.6-0.2,1
					c-0.1,0.5-0.3,1.1-0.5,1.6c-0.1,0.2-0.1,0.5-0.2,0.7c-0.4,1.3-0.9,2.6-1.4,3.9c-0.1,0.3-0.2,0.5-0.3,0.8
					c-0.3,0.8-0.7,1.6-1.1,2.4C738,946.9,737.7,947.4,737.5,947.9z M751.9,959.4c-2,3.5-6.5,4.7-10,2.7c-1.3-0.8-2.3-1.9-3-3.2
					c-1-2.1-1-4.6,0.3-6.8c1.3-2.2,3.4-3.4,5.7-3.6c1.4-0.1,2.9,0.2,4.3,1C752.7,951.4,753.9,955.9,751.9,959.4z M760.5,926.8
					c-1.3,1.9-3.5,3.2-6.1,3.2c-0.9,0-1.8-0.2-2.7-0.5c-0.6-0.2-1.1-0.5-1.6-0.8c-1.9-1.3-3.1-3.5-3.1-5.9c0-2.4,1.2-4.6,3-5.9
					c1.2-0.9,2.7-1.4,4.3-1.4c4,0,7.3,3.3,7.3,7.3C761.8,924.2,761.3,925.6,760.5,926.8z"/>
			</g>
		</g>
	</g>
	<path id="XMLID_3_" class="st12" d="M28.2,875.8c0,0,11.5-72.2,88.9-69.4"/>
	<path id="XMLID_2_" class="st12" d="M388.2,751c0,0,21.5-69.8,97.8-56.2"/>
	<path id="XMLID_1_" class="st12" d="M232.5,768c0,0,19.7-68.8,94.8-65.9"/>
</g>
</svg>
