<?xml version="1.0" encoding="utf-8"?>
<!-- Generator: Adobe Illustrator 19.0.0, SVG Export Plug-In . SVG Version: 6.00 Build 0)  -->
<svg version="1.1" id="Camada_1" xmlns="http://www.w3.org/2000/svg" xmlns:xlink="http://www.w3.org/1999/xlink" x="0px" y="0px"
	 viewBox="0 0 1000 500" style="enable-background:new 0 0 1000 500;" xml:space="preserve">
<style type="text/css">
	.st0{fill:#B6E1F8;}
	.st1{fill:#FBFCFD;}
	.st2{fill:#86D1F4;}
	.st3{fill:#68B86A;}
	.st4{fill:#41A046;}
	.st5{fill:#6E4E43;}
	.st6{fill:#4E342E;}
	.st7{fill:#327F3E;}
	.st8{fill:#1E5F30;}
	.st9{fill:#F5F5F5;}
	.st10{fill:#E0E0DF;}
	.st11{fill:#5E4138;}
</style>
<rect id="XMLID_1_" y="-5.2" class="st0" width="1000" height="509.4"/>
<g id="XMLID_311_">
	<path id="XMLID_148_" class="st1" d="M167.4,209.1h-2.1c-3.1,0-5.6-2.3-5.6-5.1v-1.9c0-0.8-0.7-1.5-1.5-1.6c-0.9,0-1.7,0.6-1.7,1.5
		v1.9c0,2.8-2.5,5.1-5.6,5.1h-2.1c-0.9,0-1.6,0.7-1.6,1.5l0,0c0,0.8,0.7,1.5,1.6,1.5h2.1c3.1,0,5.6,2.3,5.6,5.1v1.9
		c0,0.8,0.7,1.5,1.5,1.6c0.9,0,1.7-0.6,1.7-1.5v-1.9c0-2.8,2.5-5.1,5.6-5.1h2.1c0.9,0,1.6-0.7,1.6-1.5l0,0
		C169,209.8,168.3,209.1,167.4,209.1z"/>
	<path id="XMLID_147_" class="st1" d="M499.1,117.3H497c-3.1,0-5.6-2.3-5.6-5.1v-1.9c0-0.8-0.7-1.5-1.5-1.6c-0.9,0-1.7,0.6-1.7,1.5
		v1.9c0,2.8-2.5,5.1-5.6,5.1h-2.1c-0.9,0-1.6,0.7-1.6,1.5l0,0c0,0.8,0.7,1.5,1.6,1.5h2.1c3.1,0,5.6,2.3,5.6,5.1v1.9
		c0,0.8,0.7,1.5,1.5,1.6c0.9,0,1.7-0.6,1.7-1.5v-1.9c0-2.8,2.5-5.1,5.6-5.1h2.1c0.9,0,1.6-0.7,1.6-1.5l0,0
		C500.7,117.9,500,117.3,499.1,117.3z"/>
	<path id="XMLID_146_" class="st1" d="M65.7,45.3h-2.1c-3.1,0-5.6-2.3-5.6-5.1v-1.9c0-0.8-0.7-1.5-1.5-1.6c-0.9,0-1.7,0.6-1.7,1.5
		v1.9c0,2.8-2.5,5.1-5.6,5.1h-2.1c-0.9,0-1.6,0.7-1.6,1.5l0,0c0,0.8,0.7,1.5,1.6,1.5h2.1c3.1,0,5.6,2.3,5.6,5.1v1.9
		c0,0.8,0.7,1.5,1.5,1.6c0.9,0,1.7-0.6,1.7-1.5v-1.9c0-2.8,2.5-5.1,5.6-5.1h2.1c0.9,0,1.6-0.7,1.6-1.5l0,0
		C67.4,46,66.6,45.3,65.7,45.3z"/>
	<path id="XMLID_145_" class="st1" d="M960.2,127.3h-2.1c-3.1,0-5.6-2.3-5.6-5.1v-1.9c0-0.8-0.7-1.5-1.5-1.6c-0.9,0-1.7,0.6-1.7,1.5
		v1.9c0,2.8-2.5,5.1-5.6,5.1h-2.1c-0.9,0-1.6,0.7-1.6,1.5l0,0c0,0.8,0.7,1.5,1.6,1.5h2.1c3.1,0,5.6,2.3,5.6,5.1v1.9
		c0,0.8,0.7,1.5,1.5,1.6c0.9,0,1.7-0.6,1.7-1.5v-1.9c0-2.8,2.5-5.1,5.6-5.1h2.1c0.9,0,1.6-0.7,1.6-1.5l0,0
		C961.8,128,961.1,127.3,960.2,127.3z"/>
	<path id="XMLID_144_" class="st1" d="M558.7,199.9h-1c-1.5,0-2.7-1.1-2.7-2.5v-0.9c0-0.4-0.3-0.8-0.7-0.8c-0.5,0-0.8,0.3-0.8,0.7v1
		c0,1.4-1.2,2.5-2.7,2.5h-1c-0.4,0-0.8,0.3-0.8,0.7l0,0c0,0.4,0.4,0.7,0.8,0.7h1c1.5,0,2.7,1.1,2.7,2.5v0.9c0,0.4,0.3,0.8,0.7,0.8
		c0.5,0,0.8-0.3,0.8-0.7v-1c0-1.4,1.2-2.5,2.7-2.5h1c0.4,0,0.8-0.3,0.8-0.7l0,0C559.5,200.3,559.2,199.9,558.7,199.9z"/>
	<path id="XMLID_143_" class="st1" d="M289.8,70.2h-1c-1.5,0-2.7-1.1-2.7-2.5v-0.9c0-0.4-0.3-0.8-0.7-0.8c-0.5,0-0.8,0.3-0.8,0.7v1
		c0,1.4-1.2,2.5-2.7,2.5h-1c-0.4,0-0.8,0.3-0.8,0.7l0,0c0,0.4,0.4,0.7,0.8,0.7h1c1.5,0,2.7,1.1,2.7,2.5v0.9c0,0.4,0.3,0.8,0.7,0.8
		c0.5,0,0.8-0.3,0.8-0.7v-1c0-1.4,1.2-2.5,2.7-2.5h1c0.4,0,0.8-0.3,0.8-0.7l0,0C290.6,70.6,290.2,70.2,289.8,70.2z"/>
	<path id="XMLID_142_" class="st1" d="M897.3,82h-1c-1.5,0-2.7-1.1-2.7-2.5v-0.9c0-0.4-0.3-0.8-0.7-0.8c-0.5,0-0.8,0.3-0.8,0.7v1
		c0,1.4-1.2,2.5-2.7,2.5h-1c-0.4,0-0.8,0.3-0.8,0.7l0,0c0,0.4,0.4,0.7,0.8,0.7h1c1.5,0,2.7,1.1,2.7,2.5v0.9c0,0.4,0.3,0.8,0.7,0.8
		c0.5,0,0.8-0.3,0.8-0.7v-1c0-1.4,1.2-2.5,2.7-2.5h1c0.4,0,0.8-0.3,0.8-0.7l0,0C898.1,82.3,897.7,82,897.3,82z"/>
	<path id="XMLID_141_" class="st1" d="M51,195h-1c-1.5,0-2.7-1.1-2.7-2.5v-0.9c0-0.4-0.3-0.8-0.7-0.8c-0.5,0-0.8,0.3-0.8,0.7v1
		c0,1.4-1.2,2.5-2.7,2.5h-1c-0.4,0-0.8,0.3-0.8,0.7l0,0c0,0.4,0.4,0.7,0.8,0.7h1c1.5,0,2.7,1.1,2.7,2.5v0.9c0,0.4,0.3,0.8,0.7,0.8
		c0.5,0,0.8-0.3,0.8-0.7v-1c0-1.4,1.2-2.5,2.7-2.5h1c0.4,0,0.8-0.3,0.8-0.7l0,0C51.8,195.3,51.4,195,51,195z"/>
	<path id="XMLID_140_" class="st1" d="M737.5,70.2h-1c-1.5,0-2.7-1.1-2.7-2.5v-0.9c0-0.4-0.3-0.8-0.7-0.8c-0.5,0-0.8,0.3-0.8,0.7v1
		c0,1.4-1.2,2.5-2.7,2.5h-1c-0.4,0-0.8,0.3-0.8,0.7l0,0c0,0.4,0.4,0.7,0.8,0.7h1c1.5,0,2.7,1.1,2.7,2.5v0.9c0,0.4,0.3,0.8,0.8,0.8
		c0.5,0,0.8-0.3,0.8-0.7v-1c0-1.4,1.2-2.5,2.7-2.5h1c0.4,0,0.8-0.3,0.8-0.7l0,0C738.3,70.6,737.9,70.2,737.5,70.2z"/>
	<path id="XMLID_139_" class="st1" d="M748.2,182.6h-1c-1.5,0-2.7-1.1-2.7-2.5v-0.9c0-0.4-0.3-0.8-0.7-0.8c-0.5,0-0.8,0.3-0.8,0.7v1
		c0,1.4-1.2,2.5-2.7,2.5h-1c-0.4,0-0.8,0.3-0.8,0.7l0,0c0,0.4,0.4,0.7,0.8,0.7h1c1.5,0,2.7,1.1,2.7,2.5v0.9c0,0.4,0.3,0.8,0.7,0.8
		c0.5,0,0.8-0.3,0.8-0.7v-1c0-1.4,1.2-2.5,2.7-2.5h1c0.4,0,0.8-0.3,0.8-0.7l0,0C749,183,748.6,182.6,748.2,182.6z"/>
	<g id="XMLID_321_">
		<path id="XMLID_138_" class="st1" d="M343.6,129.8c-29.3,0-53,21.9-53,48.9h106C396.6,151.7,372.9,129.8,343.6,129.8z"/>
		<path id="XMLID_137_" class="st1" d="M423.1,154.2c-14.6,0-26.5,10.9-26.5,24.5h53C449.6,165.2,437.7,154.2,423.1,154.2z"/>
	</g>
	<g id="XMLID_318_">
		<path id="XMLID_136_" class="st1" d="M841.8,138.2c-19.2,0-34.8,14.4-34.8,32.1h69.5C876.6,152.6,861,138.2,841.8,138.2z"/>
		<path id="XMLID_135_" class="st1" d="M894,154.2c-9.6,0-17.4,7.2-17.4,16h34.8C911.3,161.4,903.6,154.2,894,154.2z"/>
	</g>
	<g id="XMLID_315_">
		<path id="XMLID_134_" class="st1" d="M158.1,82.7c-15.8,0-28.7,11.9-28.7,26.5h57.4C186.8,94.6,173.9,82.7,158.1,82.7z"/>
		<path id="XMLID_133_" class="st1" d="M201.1,96c-7.9,0-14.3,5.9-14.3,13.2h28.7C215.5,101.9,209,96,201.1,96z"/>
	</g>
	<g id="XMLID_312_">
		<path id="XMLID_132_" class="st1" d="M641.4,99.7c-11.4,0-20.7,8.6-20.7,19.1h41.4C662.1,108.2,652.9,99.7,641.4,99.7z"/>
		<path id="XMLID_131_" class="st1" d="M672.5,109.2c-5.7,0-10.3,4.3-10.3,9.6h20.7C682.8,113.5,678.2,109.2,672.5,109.2z"/>
	</g>
</g>
<g id="XMLID_150_">
	<path id="XMLID_307_" class="st2" d="M824.4,401.6v-5.9h3.4v-1.2h-53.7v1.2h3.3v5.9h-6.9v12.8H760v-29.4H717v-6.4h-3.3v6.4h-6.1
		v48.6H696v-29h-7.6v-69.7l-26.4-11l-26.4,11v33.7h-9v-8.6h-8.8v8.6h-7.2v-3.3h-6.1v3.3h-5.3V309h-10.6v-4.4h7.4v-2.9h-45.8v2.9h7.4
		v4.4H547v59.4v36h-11.6V309h-5.3v-8.7H514v8.7h-9.4v-8.7h-16.1v8.7h-5.3v93.3h-23.9v-8.1h-10.5v8.1h-3.5v17.9H420v-26.9l-46.2-17.1
		v69.2h35H420h25.3h13h24.9h11.5h20.4h20.2H547h52.2h18.6h17.8h9.1h23.1h20.6h7.6h11.6h39.8h1.6h11h10.5h6.7h54.1v-43.8H824.4z
		 M562,304.7h22.1v4.4H562V304.7z M780.6,401.6v-5.9h40.5v5.9H780.6z"/>
	<rect id="XMLID_127_" y="445.4" class="st3" width="1000" height="54.6"/>
	<g id="XMLID_303_">
		<path id="XMLID_126_" class="st3" d="M276.1,445.4H0v-34.7c21.2-12.7,44.6-24.1,86.3-24.1C181.2,386.6,181.2,445.4,276.1,445.4z"
			/>
		<path id="XMLID_125_" class="st4" d="M86.3,445.4h189.8c-94.9,0-94.9-58.8-189.8-58.8h0V445.4z"/>
	</g>
	<g id="XMLID_300_">
		<path id="XMLID_124_" class="st3" d="M518.8,445.4c-121.3,0-121.3-75.2-242.7-75.2c-121.3,0-121.3,75.2-242.7,75.2H518.8z"/>
		<path id="XMLID_123_" class="st4" d="M276.1,445.4h242.7c-121.3,0-121.3-75.2-242.7-75.2h0V445.4z"/>
	</g>
	<g id="XMLID_297_">
		<path id="XMLID_122_" class="st3" d="M1000,385.4v60H770.4c100.1,0,100.1-62,200.2-62C981.5,383.4,991.2,384.1,1000,385.4z"/>
		<path id="XMLID_121_" class="st4" d="M1000,385.4v60h-29.3v-62C981.5,383.4,991.2,384.1,1000,385.4z"/>
	</g>
	<g id="XMLID_281_">
		<path id="XMLID_120_" class="st5" d="M205.2,426.5v36.9c0,1.3,1.7,2.3,3.8,2.3c2.1,0,3.8-1,3.8-2.3v-36.9H205.2z"/>
		<path id="XMLID_119_" class="st6" d="M212.8,426.5v36.9c0,1.3-1.7,2.3-3.8,2.3v-39.2H212.8z"/>
		<ellipse id="XMLID_118_" class="st7" cx="209" cy="404.3" rx="25.2" ry="43.8"/>
		<path id="XMLID_117_" class="st8" d="M209,360.5v87.6c13.9,0,25.2-19.6,25.2-43.8C234.2,380.1,222.9,360.5,209,360.5z"/>
		<ellipse id="XMLID_116_" class="st8" cx="197.3" cy="430.9" rx="2.4" ry="2.2"/>
		<ellipse id="XMLID_115_" class="st8" cx="203.8" cy="414.6" rx="2.4" ry="2.2"/>
		<ellipse id="XMLID_114_" class="st8" cx="188.5" cy="402.6" rx="2.4" ry="2.2"/>
		<ellipse id="XMLID_113_" class="st8" cx="201.4" cy="387.1" rx="2.4" ry="2.2"/>
		<ellipse id="XMLID_112_" class="st7" cx="214.1" cy="370.2" rx="2.4" ry="2.2"/>
		<ellipse id="XMLID_111_" class="st7" cx="224" cy="381.3" rx="2.4" ry="2.2"/>
		<ellipse id="XMLID_110_" class="st7" cx="214.1" cy="394.2" rx="2.4" ry="2.2"/>
		<ellipse id="XMLID_109_" class="st7" cx="224" cy="401.5" rx="2.4" ry="2.2"/>
		<ellipse id="XMLID_108_" class="st7" cx="213.3" cy="419.1" rx="2.4" ry="2.2"/>
		<ellipse id="XMLID_107_" class="st7" cx="221.1" cy="434.4" rx="2.4" ry="2.2"/>
		<ellipse id="XMLID_106_" class="st8" cx="197.3" cy="373.8" rx="2.4" ry="2.2"/>
	</g>
	<g id="XMLID_265_">
		<path id="XMLID_105_" class="st5" d="M112.4,402v50.4c0,1.7,2.3,3.2,5.2,3.2c2.9,0,5.2-1.4,5.2-3.2V402H112.4z"/>
		<path id="XMLID_104_" class="st6" d="M122.7,402v50.4c0,1.7-2.3,3.2-5.2,3.2V402H122.7z"/>
		<ellipse id="XMLID_103_" class="st7" cx="117.5" cy="371.6" rx="34.4" ry="59.8"/>
		<path id="XMLID_102_" class="st8" d="M117.5,311.7v119.7c19,0,34.4-26.8,34.4-59.8S136.6,311.7,117.5,311.7z"/>
		<ellipse id="XMLID_101_" class="st8" cx="101.6" cy="407.9" rx="3.3" ry="3.1"/>
		<ellipse id="XMLID_100_" class="st8" cx="110.5" cy="385.6" rx="3.3" ry="3.1"/>
		<ellipse id="XMLID_99_" class="st8" cx="89.6" cy="369.3" rx="3.3" ry="3.1"/>
		<ellipse id="XMLID_98_" class="st8" cx="107.2" cy="348.1" rx="3.3" ry="3.1"/>
		<ellipse id="XMLID_97_" class="st7" cx="124.6" cy="325" rx="3.3" ry="3.1"/>
		<ellipse id="XMLID_96_" class="st7" cx="138.1" cy="340.1" rx="3.3" ry="3.1"/>
		<ellipse id="XMLID_95_" class="st7" cx="124.6" cy="357.7" rx="3.3" ry="3.1"/>
		<ellipse id="XMLID_94_" class="st7" cx="138.1" cy="367.7" rx="3.3" ry="3.1"/>
		<ellipse id="XMLID_93_" class="st7" cx="123.5" cy="391.8" rx="3.3" ry="3.1"/>
		<ellipse id="XMLID_92_" class="st7" cx="134.2" cy="412.7" rx="3.3" ry="3.1"/>
		<ellipse id="XMLID_91_" class="st8" cx="101.6" cy="330" rx="3.3" ry="3.1"/>
	</g>
	<g id="XMLID_249_">
		<path id="XMLID_90_" class="st5" d="M870.5,416.4v43.2c0,1.5,2,2.7,4.5,2.7c2.5,0,4.5-1.2,4.5-2.7v-43.2H870.5z"/>
		<path id="XMLID_89_" class="st6" d="M879.5,416.4v43.2c0,1.5-2,2.7-4.5,2.7v-46H879.5z"/>
		<ellipse id="XMLID_88_" class="st7" cx="875" cy="390.3" rx="29.5" ry="51.3"/>
		<path id="XMLID_87_" class="st8" d="M875,339v102.6c16.3,0,29.5-23,29.5-51.3C904.5,362,891.3,339,875,339z"/>
		<ellipse id="XMLID_86_" class="st8" cx="861.3" cy="421.5" rx="2.8" ry="2.6"/>
		<ellipse id="XMLID_85_" class="st8" cx="869" cy="402.4" rx="2.8" ry="2.6"/>
		<ellipse id="XMLID_84_" class="st8" cx="851.1" cy="388.4" rx="2.8" ry="2.6"/>
		<ellipse id="XMLID_83_" class="st8" cx="866.1" cy="370.2" rx="2.8" ry="2.6"/>
		<ellipse id="XMLID_82_" class="st7" cx="881" cy="350.4" rx="2.8" ry="2.6"/>
		<ellipse id="XMLID_81_" class="st7" cx="892.6" cy="363.3" rx="2.8" ry="2.6"/>
		<ellipse id="XMLID_80_" class="st7" cx="881" cy="378.5" rx="2.8" ry="2.6"/>
		<ellipse id="XMLID_79_" class="st7" cx="892.6" cy="387.1" rx="2.8" ry="2.6"/>
		<ellipse id="XMLID_78_" class="st7" cx="880.1" cy="407.7" rx="2.8" ry="2.6"/>
		<ellipse id="XMLID_77_" class="st7" cx="889.2" cy="425.6" rx="2.8" ry="2.6"/>
		<ellipse id="XMLID_76_" class="st8" cx="861.3" cy="354.7" rx="2.8" ry="2.6"/>
	</g>
	<g id="XMLID_246_">
		<path id="XMLID_75_" class="st7" d="M429.9,460.9c-5.4,0-9.7,4-9.7,9h19.4C439.7,464.9,435.3,460.9,429.9,460.9z"/>
		<path id="XMLID_74_" class="st8" d="M438.9,463.9c-3.5,0-6.4,2.6-6.4,5.9h12.8C445.3,466.6,442.4,463.9,438.9,463.9z"/>
	</g>
	<g id="XMLID_230_">
		<path id="XMLID_73_" class="st5" d="M951.7,417.8v61.6c0,2.1,2.8,3.9,6.3,3.9c3.5,0,6.3-1.7,6.3-3.9v-61.6H951.7z"/>
		<path id="XMLID_72_" class="st6" d="M964.4,417.8v61.6c0,2.1-2.8,3.9-6.3,3.9v-65.4H964.4z"/>
		<ellipse id="XMLID_71_" class="st7" cx="958" cy="380.7" rx="42.1" ry="73.1"/>
		<path id="XMLID_70_" class="st8" d="M958,307.6v146.1c23.2,0,42.1-32.7,42.1-73.1C1000.1,340.3,981.3,307.6,958,307.6z"/>
		<ellipse id="XMLID_69_" class="st8" cx="938.5" cy="425" rx="4" ry="3.7"/>
		<ellipse id="XMLID_68_" class="st8" cx="949.4" cy="397.9" rx="4" ry="3.7"/>
		<ellipse id="XMLID_67_" class="st8" cx="923.9" cy="378" rx="4" ry="3.7"/>
		<ellipse id="XMLID_66_" class="st8" cx="945.4" cy="352.1" rx="4" ry="3.7"/>
		<ellipse id="XMLID_65_" class="st7" cx="966.6" cy="323.8" rx="4" ry="3.7"/>
		<ellipse id="XMLID_64_" class="st7" cx="983.1" cy="342.3" rx="4" ry="3.7"/>
		<ellipse id="XMLID_63_" class="st7" cx="966.6" cy="363.8" rx="4" ry="3.7"/>
		<ellipse id="XMLID_62_" class="st7" cx="983.1" cy="376" rx="4" ry="3.7"/>
		<ellipse id="XMLID_61_" class="st7" cx="965.2" cy="405.4" rx="4" ry="3.7"/>
		<ellipse id="XMLID_60_" class="st7" cx="978.3" cy="430.9" rx="4" ry="3.7"/>
		<ellipse id="XMLID_59_" class="st8" cx="938.5" cy="329.9" rx="4" ry="3.7"/>
	</g>
	<g id="XMLID_227_">
		<path id="XMLID_58_" class="st7" d="M964.4,477.4c-3.5,0-6.4,2.6-6.4,5.9h12.8C970.8,480,967.9,477.4,964.4,477.4z"/>
		<path id="XMLID_57_" class="st8" d="M976.7,473.3c-5.9,0-10.8,4.4-10.8,9.9h21.5C987.4,477.8,982.6,473.3,976.7,473.3z"/>
	</g>
	<g id="XMLID_224_">
		<path id="XMLID_56_" class="st9" d="M666.9,468.6c-5.6,0-10.2,4.2-10.2,9.4h20.4C677.2,472.8,672.6,468.6,666.9,468.6z"/>
		<path id="XMLID_55_" class="st10" d="M677.2,478c0-5.2-4.6-9.4-10.2-9.4v9.4H677.2z"/>
	</g>
	<g id="XMLID_221_">
		<path id="XMLID_54_" class="st9" d="M183.8,461.6c-5.6,0-10.2,4.2-10.2,9.4H194C194,465.9,189.4,461.6,183.8,461.6z"/>
		<path id="XMLID_53_" class="st10" d="M194,471.1c0-5.2-4.6-9.4-10.2-9.4v9.4H194z"/>
	</g>
	<g id="XMLID_218_">
		<path id="XMLID_52_" class="st9" d="M794.2,447.8c-3,0-5.4,2.2-5.4,5h10.8C799.6,450.1,797.2,447.8,794.2,447.8z"/>
		<path id="XMLID_51_" class="st10" d="M799.6,452.8c0-2.7-2.4-5-5.4-5v5H799.6z"/>
	</g>
	<g id="XMLID_215_">
		<path id="XMLID_50_" class="st9" d="M249.2,454.5c-3,0-5.4,2.2-5.4,5h10.8C254.5,456.7,252.1,454.5,249.2,454.5z"/>
		<path id="XMLID_49_" class="st10" d="M254.5,459.5c0-2.7-2.4-5-5.4-5v5H254.5z"/>
	</g>
	<g id="XMLID_212_">
		<path id="XMLID_48_" class="st9" d="M898.3,457.7c-4.3,0-7.8,3.2-7.8,7.2h15.7C906.2,461,902.6,457.7,898.3,457.7z"/>
		<path id="XMLID_47_" class="st10" d="M906.2,465c0-4-3.5-7.2-7.8-7.2v7.2H906.2z"/>
	</g>
	<g id="XMLID_206_">
		<g id="XMLID_209_">
			<path id="XMLID_46_" class="st5" d="M334.7,372.8v10.8c0,0.4,0.5,0.7,1.1,0.7c0.6,0,1.1-0.3,1.1-0.7v-10.8H334.7z"/>
			<path id="XMLID_45_" class="st11" d="M337,372.8v10.8c0,0.4-0.5,0.7-1.1,0.7v-11.5H337z"/>
		</g>
		<polygon id="XMLID_44_" class="st7" points="335.8,348.8 325.6,378.6 346.1,378.6 		"/>
		<polygon id="XMLID_43_" class="st8" points="346.1,378.6 335.8,348.8 335.8,378.6 		"/>
	</g>
	<g id="XMLID_200_">
		<g id="XMLID_203_">
			<path id="XMLID_42_" class="st5" d="M248.3,365.4v7.9c0,0.3,0.4,0.5,0.8,0.5c0.5,0,0.8-0.2,0.8-0.5v-7.9H248.3z"/>
			<path id="XMLID_41_" class="st11" d="M250,365.4v7.9c0,0.3-0.4,0.5-0.8,0.5v-8.4H250z"/>
		</g>
		<polygon id="XMLID_40_" class="st7" points="249.2,347.8 241.7,369.6 256.6,369.6 		"/>
		<polygon id="XMLID_39_" class="st8" points="256.6,369.6 249.2,347.8 249.2,369.6 		"/>
	</g>
	<g id="XMLID_194_">
		<g id="XMLID_197_">
			<path id="XMLID_38_" class="st5" d="M405.6,420.5v10.8c0,0.4,0.5,0.7,1.1,0.7c0.6,0,1.1-0.3,1.1-0.7v-10.8H405.6z"/>
			<path id="XMLID_37_" class="st11" d="M407.8,420.5v10.8c0,0.4-0.5,0.7-1.1,0.7v-11.5H407.8z"/>
		</g>
		<polygon id="XMLID_36_" class="st7" points="406.7,396.4 396.4,426.2 416.9,426.2 		"/>
		<polygon id="XMLID_35_" class="st8" points="416.9,426.2 406.7,396.4 406.7,426.2 		"/>
	</g>
	<g id="XMLID_188_">
		<g id="XMLID_191_">
			<path id="XMLID_34_" class="st5" d="M824.1,433.5v10.8c0,0.4,0.5,0.7,1.1,0.7c0.6,0,1.1-0.3,1.1-0.7v-10.8H824.1z"/>
			<path id="XMLID_33_" class="st11" d="M826.3,433.5v10.8c0,0.4-0.5,0.7-1.1,0.7v-11.5H826.3z"/>
		</g>
		<polygon id="XMLID_32_" class="st7" points="825.2,409.4 815,439.2 835.5,439.2 		"/>
		<polygon id="XMLID_31_" class="st8" points="835.5,439.2 825.2,409.4 825.2,439.2 		"/>
	</g>
	<g id="XMLID_182_">
		<g id="XMLID_185_">
			<path id="XMLID_30_" class="st5" d="M162.2,402.7v10.8c0,0.4,0.5,0.7,1.1,0.7c0.6,0,1.1-0.3,1.1-0.7v-10.8H162.2z"/>
			<path id="XMLID_29_" class="st11" d="M164.4,402.7v10.8c0,0.4-0.5,0.7-1.1,0.7v-11.5H164.4z"/>
		</g>
		<polygon id="XMLID_28_" class="st7" points="163.3,378.6 153,408.4 173.5,408.4 		"/>
		<polygon id="XMLID_27_" class="st8" points="173.5,408.4 163.3,378.6 163.3,408.4 		"/>
	</g>
	<g id="XMLID_176_">
		<g id="XMLID_179_">
			<path id="XMLID_26_" class="st5" d="M15.6,400.4v10.8c0,0.4,0.5,0.7,1.1,0.7c0.6,0,1.1-0.3,1.1-0.7v-10.8H15.6z"/>
			<path id="XMLID_25_" class="st11" d="M17.8,400.4v10.8c0,0.4-0.5,0.7-1.1,0.7v-11.5H17.8z"/>
		</g>
		<polygon id="XMLID_24_" class="st7" points="16.7,376.4 6.5,406.2 27,406.2 		"/>
		<polygon id="XMLID_23_" class="st8" points="27,406.2 16.7,376.4 16.7,406.2 		"/>
	</g>
	<g id="XMLID_170_">
		<g id="XMLID_173_">
			<path id="XMLID_22_" class="st5" d="M290.4,417.6v17c0,0.6,0.8,1.1,1.7,1.1c1,0,1.7-0.5,1.7-1.1v-17H290.4z"/>
			<path id="XMLID_21_" class="st11" d="M293.9,417.6v17c0,0.6-0.8,1.1-1.7,1.1v-18H293.9z"/>
		</g>
		<polygon id="XMLID_20_" class="st7" points="292.1,380 276.1,426.6 308.1,426.6 		"/>
		<polygon id="XMLID_19_" class="st8" points="308.1,426.6 292.1,380 292.1,426.6 		"/>
	</g>
	<g id="XMLID_154_">
		<path id="XMLID_18_" class="st5" d="M39.4,423.1v32.3c0,1.1,1.5,2,3.3,2c1.8,0,3.3-0.9,3.3-2v-32.3H39.4z"/>
		<path id="XMLID_17_" class="st6" d="M46.1,423.1v32.3c0,1.1-1.5,2-3.3,2v-34.3H46.1z"/>
		<ellipse id="XMLID_16_" class="st7" cx="42.7" cy="403.6" rx="22" ry="38.3"/>
		<path id="XMLID_15_" class="st8" d="M42.7,365.3v76.6c12.2,0,22-17.1,22-38.3S54.9,365.3,42.7,365.3z"/>
		<ellipse id="XMLID_14_" class="st8" cx="32.5" cy="426.9" rx="2.1" ry="2"/>
		<ellipse id="XMLID_13_" class="st8" cx="38.2" cy="412.6" rx="2.1" ry="2"/>
		<ellipse id="XMLID_12_" class="st8" cx="24.9" cy="402.2" rx="2.1" ry="2"/>
		<ellipse id="XMLID_11_" class="st8" cx="36.1" cy="388.6" rx="2.1" ry="2"/>
		<ellipse id="XMLID_10_" class="st7" cx="47.2" cy="373.8" rx="2.1" ry="2"/>
		<ellipse id="XMLID_9_" class="st7" cx="55.9" cy="383.5" rx="2.1" ry="2"/>
		<ellipse id="XMLID_8_" class="st7" cx="47.2" cy="394.8" rx="2.1" ry="2"/>
		<ellipse id="XMLID_7_" class="st7" cx="55.9" cy="401.2" rx="2.1" ry="2"/>
		<ellipse id="XMLID_6_" class="st7" cx="46.5" cy="416.6" rx="2.1" ry="2"/>
		<ellipse id="XMLID_5_" class="st7" cx="53.4" cy="430" rx="2.1" ry="2"/>
		<ellipse id="XMLID_4_" class="st8" cx="32.5" cy="377" rx="2.1" ry="2"/>
	</g>
	<g id="XMLID_151_">
		<path id="XMLID_3_" class="st7" d="M37.7,455.6c-3.1,0-5.7,2.3-5.7,5.2h11.4C43.4,457.9,40.8,455.6,37.7,455.6z"/>
		<path id="XMLID_2_" class="st8" d="M48.6,452c-5.3,0-9.6,4-9.6,8.8h19.2C58.2,455.9,53.9,452,48.6,452z"/>
	</g>
</g>
</svg>
