<?xml version="1.0" encoding="utf-8"?>
<!-- Generator: Adobe Illustrator 19.0.0, SVG Export Plug-In . SVG Version: 6.00 Build 0)  -->
<svg version="1.1" id="Camada_1" xmlns="http://www.w3.org/2000/svg" xmlns:xlink="http://www.w3.org/1999/xlink" x="0px" y="0px"
	 viewBox="-35 134 720 346" style="enable-background:new -35 134 720 346;" xml:space="preserve">
<style type="text/css">
	.st0{fill:#CA6362;}
	.st1{fill:#FFFFFF;}
	.st2{fill:#83B8E2;}
	.st3{fill:none;stroke:#1E2845;stroke-width:3;stroke-linecap:round;stroke-linejoin:round;stroke-miterlimit:10;}
	.st4{enable-background:new    ;}
	.st5{fill:none;stroke:#1E2845;stroke-width:3;stroke-linecap:round;stroke-linejoin:round;}
	.st6{fill:none;stroke:#1E2845;stroke-width:3;stroke-linecap:round;stroke-linejoin:round;stroke-dasharray:11.9297,11.9297;}
	.st7{fill:none;stroke:#1E2845;stroke-width:3;stroke-linecap:round;stroke-linejoin:round;stroke-dasharray:3.8442;}
	.st8{fill:#91B6DE;}
	.st9{fill:#1E2845;}
	.st10{fill:none;stroke:#83B8E2;stroke-width:4;stroke-linecap:round;stroke-linejoin:round;stroke-miterlimit:10;}
	.st11{fill:none;stroke:#FFFFFF;stroke-width:4;stroke-linecap:round;stroke-linejoin:round;stroke-miterlimit:10;}
	.st12{fill:none;stroke:#1E2845;stroke-width:3;stroke-linecap:round;stroke-linejoin:round;stroke-dasharray:12.4586,12.4586;}
	.st13{fill:none;stroke:#1E2845;stroke-width:3;stroke-linecap:round;stroke-linejoin:round;stroke-dasharray:14.0681,14.0681;}
	
		.st14{fill:none;stroke:#1E2845;stroke-width:3;stroke-linecap:round;stroke-linejoin:round;stroke-miterlimit:10;stroke-dasharray:12;}
	.st15{fill:none;stroke:#1E2845;stroke-width:3;stroke-linecap:round;stroke-linejoin:round;stroke-dasharray:10.7103,10.7103;}
	.st16{fill:none;stroke:#1E2845;stroke-width:3;stroke-linecap:round;stroke-linejoin:round;stroke-dasharray:10.8401,10.8401;}
	.st17{fill:none;stroke:#1E2845;stroke-width:3;stroke-linecap:round;stroke-linejoin:round;stroke-dasharray:10.8188,10.8188;}
	.st18{fill:none;stroke:#1E2845;stroke-width:3;stroke-linecap:round;stroke-linejoin:round;stroke-dasharray:12.8942,12.8942;}
</style>
<g id="XMLID_1_">
	<path id="XMLID_4_" class="st0" d="M658.8,375.9v-29.6l-17.9-3c-0.9-2.9-2.1-5.6-3.4-8.3l10.5-14.8l-20.9-20.9l-14.8,10.5
		c-2.6-1.3-5.4-2.5-8.3-3.4l-3-17.9h-14.8v33.1c21.8,0,39.5,17.7,39.5,39.5s-17.7,39.5-39.5,39.5v33.1H601l3-17.9
		c2.9-0.9,5.6-2.1,8.3-3.4l14.8,10.5L648,402l-10.5-14.8c1.3-2.6,2.5-5.4,3.4-8.3L658.8,375.9z"/>
	<rect id="XMLID_1025_" x="465.6" y="282.6" class="st1" width="106.3" height="142.9"/>
	<rect id="XMLID_1022_" x="475.6" y="292.5" class="st2" width="96.3" height="132.9"/>
	<path id="XMLID_5_" class="st2" d="M294.8,420.9v1.7c0,5.2-4.2,9.4-9.4,9.4h-29.9c-5.2,0-9.4-4.2-9.4-9.4v-1.7H92.8v3.5
		c0,10.3,8.4,18.7,18.7,18.7h317.6c10.3,0,18.7-8.4,18.7-18.7v-3.5H294.8z"/>
	<path id="XMLID_10_" class="st2" d="M314.8,331.1c0,21.3-13.5,39.5-32.3,46.5c-6.1,2.3-12.7,3.4-19.7,3
		c-25.4-1.2-46-21.7-47.2-47.2c-1.2-26.2,17.9-48.2,42.9-51.6c2.2-0.3,4.4-0.5,6.7-0.5v49.6h49.6V331.1L314.8,331.1z"/>
	<path id="XMLID_13_" class="st1" d="M187.6,298.4c3.7,1.8,7.8,3.2,12,3.9c-1.1,0.8-2.3,1.5-3.6,2.2c-4.8,2.5-10.2,4-16,4
		c-5,0-9.8-1.1-14-3l0,0c-0.8-0.3-1.5-0.7-2.3-1.1c-3.4-1.8-6.4-4.2-9-7c-6,1.3-12.4,2-19,2c-15.5,0-29.8-3.9-41.6-10.5
		c-18.3-10.3-30.2-27.3-30.2-46.5v-0.1c0-31.5,32.2-57,71.8-57c20.2,0,38.5,6.6,51.5,17.3c11.7,9.6,19.2,22.4,20.2,36.6
		c0.1,1,0.1,2.1,0.1,3.1c0,19.8-12.7,37.2-31.9,47.5C179.1,293.2,183.1,296.2,187.6,298.4z"/>
	<path id="XMLID_14_" class="st2" d="M187.6,298.4c3.7,1.8,7.8,3.2,12,3.9c-1.1,0.8-2.3,1.5-3.6,2.2c-4.8,2.5-10.2,4-16,4
		c-5,0-9.8-1.1-14-3l0,0c-0.8-0.3-1.5-0.7-2.3-1.1c-3.4-1.8-6.4-4.2-9-7c-6,1.3-12.4,2-19,2c-15.5,0-29.8-3.9-41.6-10.5
		c-18.3-10.3-30.2-27.3-30.2-46.5v-0.1c10-30,38.6-51.6,72.3-51.6c32.6,0,60.4,20.2,71.2,48.6c0.1,1,0.1,2.1,0.1,3.1
		c0,19.8-12.7,37.2-31.9,47.5C179.1,293.2,183.1,296.2,187.6,298.4z"/>
	<path id="XMLID_1011_" class="st3" d="M218.1,250.6h166.6c5.7,0,10.3,4.6,10.3,10.3v129.6c0,5.7-4.6,10.3-10.3,10.3H156
		c-5.7,0-10.3-4.6-10.3-10.3v-81.6"/>
	<path id="XMLID_35_" class="st3" d="M434.8,443.1H106c-7.3,0-13.2-5.9-13.2-13.2v-9H448v9C448,437.2,442,443.1,434.8,443.1z"/>
	<path id="XMLID_1007_" class="st3" d="M288.1,432h-35.5c-3.6,0-6.6-2.9-6.6-6.6v-4.5h48.6v4.5C294.8,429,291.8,432,288.1,432z"/>
	<g id="XMLID_15_">
		<line id="XMLID_20_" class="st3" x1="124.5" y1="338.3" x2="124.5" y2="309.2"/>
		<path id="XMLID_23_" class="st3" d="M216.7,230.7h189.2c5.7,0,10.3,4.6,10.3,10.3v179.9H124.5v-54.1"/>
	</g>
	<g id="XMLID_26_">
		<g class="st4">
			<path class="st1" d="M154.4,261.8c-1.8,2.1-3.9,3.8-6.1,5.1c-2.3,1.3-4.5,1.9-6.8,1.9c-2.5,0-4.9-0.7-7.3-2.2
				c-2.4-1.5-4.3-3.7-5.7-6.7c-1.5-3-2.2-6.3-2.2-10c0-4.5,1.1-8.9,3.4-13.4c2.3-4.5,5.1-7.8,8.5-10.1c3.4-2.2,6.7-3.4,9.9-3.4
				c2.4,0,4.8,0.6,7,1.9c2.2,1.3,4.1,3.2,5.7,5.8l1.4-6.5h7.5l-6,28.2c-0.8,3.9-1.3,6.1-1.3,6.5c0,0.8,0.3,1.4,0.9,2
				c0.6,0.5,1.3,0.8,2.1,0.8c1.5,0,3.4-0.9,5.8-2.6c3.2-2.2,5.7-5.2,7.6-9c1.9-3.8,2.8-7.6,2.8-11.7c0-4.7-1.2-9-3.6-13.1
				s-6-7.3-10.7-9.7s-10-3.7-15.7-3.7c-6.6,0-12.5,1.5-18,4.6c-5.4,3.1-9.6,7.5-12.6,13.2s-4.5,11.9-4.5,18.4
				c0,6.9,1.5,12.8,4.5,17.7c3,5,7.3,8.6,12.9,11s11.9,3.5,18.8,3.5c7.3,0,13.5-1.2,18.4-3.7c5-2.5,8.7-5.5,11.1-9h7.6
				c-1.4,2.9-3.9,5.9-7.3,9c-3.5,3.1-7.6,5.5-12.4,7.2c-4.8,1.8-10.6,2.7-17.3,2.7c-6.2,0-11.9-0.8-17.2-2.4
				c-5.2-1.6-9.7-4-13.4-7.2c-3.7-3.2-6.5-6.9-8.4-11.1c-2.4-5.3-3.5-11-3.5-17.1c0-6.8,1.4-13.3,4.2-19.5
				c3.4-7.6,8.3-13.4,14.6-17.4s13.9-6,22.9-6c6.9,0,13.2,1.4,18.7,4.3c5.5,2.8,9.9,7.1,13.1,12.7c2.7,4.8,4.1,10.1,4.1,15.8
				c0,8.1-2.9,15.3-8.6,21.6c-5.1,5.7-10.7,8.5-16.7,8.5c-1.9,0-3.5-0.3-4.7-0.9s-2.1-1.4-2.6-2.5
				C154.8,264.7,154.5,263.5,154.4,261.8z M134.1,250.4c0,3.8,0.9,6.8,2.7,8.9s3.9,3.2,6.3,3.2c1.6,0,3.2-0.5,5-1.4
				c1.7-0.9,3.4-2.3,5-4.2c1.6-1.8,2.9-4.2,3.9-7s1.5-5.7,1.5-8.5c0-3.8-0.9-6.8-2.8-8.9c-1.9-2.1-4.2-3.1-6.9-3.1
				c-1.8,0-3.5,0.5-5.1,1.4s-3.1,2.4-4.6,4.4s-2.7,4.5-3.6,7.3C134.5,245.4,134.1,248,134.1,250.4z"/>
		</g>
	</g>
	<path id="XMLID_994_" class="st0" d="M275.8,270.8v49.7h49.6C325.3,293.1,303.1,270.8,275.8,270.8z"/>
	<path id="XMLID_30_" class="st3" d="M175.6,289.7c19.3-10.2,31.9-27.7,31.9-47.5c0-31.5-32.2-57.1-71.8-57.1s-71.8,25.6-71.8,57.1
		s32.2,57.1,71.8,57.1c6.6,0,12.9-0.7,19-2c6.3,6.8,15.3,11.1,25.3,11.1c7.3,0,14-2.3,19.6-6.1C190.2,300.7,181.9,296.2,175.6,289.7
		z"/>
	<g id="XMLID_40_">
		<g id="XMLID_249_">
			<g id="XMLID_250_">
				<g id="XMLID_251_">
					<g id="XMLID_253_">
						<path id="XMLID_256_" class="st5" d="M109.7,308.7c-1.9-0.5-3.9-1.1-5.7-1.7"/>
						<path id="XMLID_255_" class="st6" d="M92.9,302.5c-25-12.2-41.8-34.6-41.8-60.3c0-38.5,38-69.9,84.6-69.9
							c20.7,0,39.6,6.1,54.3,16.3"/>
						<path id="XMLID_254_" class="st5" d="M194.8,192.2c1.6,1.3,3.1,2.6,4.5,3.9"/>
					</g>
					<path id="XMLID_252_" class="st7" d="M211,210.3c0.7,1.1,1.3,2.2,1.9,3.3"/>
				</g>
			</g>
		</g>
	</g>
	<g id="XMLID_53_">
		<g id="XMLID_237_">
			<path id="XMLID_242_" class="st3" d="M594.3,182.6c0,21.3-17.2,38.6-38.5,38.6s-38.6-17.2-38.6-38.6c0-10.9,4.5-20.7,11.7-27.7
				c7-6.7,16.4-10.9,26.8-10.9c10.4,0,19.9,4.1,26.8,10.8C589.8,161.8,594.3,171.7,594.3,182.6z"/>
			<path id="XMLID_241_" class="st3" d="M582.5,154.8c-7,6.7-16.4,10.8-26.8,10.9s-19.9-4.1-26.8-10.8c7-6.7,16.4-10.9,26.8-10.9
				S575.5,148.1,582.5,154.8z"/>
			<path id="XMLID_240_" class="st3" d="M528.9,210.4c7-6.7,16.4-10.8,26.8-10.9c10.4,0,19.9,4.1,26.8,10.8
				c-7,6.7-16.4,10.9-26.8,10.9S535.9,217.1,528.9,210.4z"/>
			
				<ellipse id="XMLID_239_" transform="matrix(-1 1.104908e-003 -1.104908e-003 -1 1111.7024 364.5858)" class="st3" cx="555.8" cy="182.6" rx="15.3" ry="38.6"/>
			<line id="XMLID_238_" class="st3" x1="517.1" y1="182.7" x2="594.3" y2="182.6"/>
		</g>
	</g>
	<path id="XMLID_914_" class="st3" d="M440.8,208h-53.3c-3.2,0-5.9-2.6-5.9-5.9v-39c0-3.2,2.6-5.9,5.9-5.9h53.3
		c3.2,0,5.9,2.6,5.9,5.9v39.1C446.6,205.4,444,208,440.8,208z"/>
	<path id="XMLID_911_" class="st0" d="M403,182.6V173c0-2.2,2.4-3.6,4.3-2.5l8.3,4.8l8.3,4.8c1.9,1.1,1.9,3.8,0,4.9l-8.3,4.8
		l-8.3,4.8c-1.9,1.1-4.3-0.3-4.3-2.5V182.6z"/>
	<circle id="XMLID_58_" class="st2" cx="53.2" cy="423.9" r="25.6"/>
	<circle id="XMLID_61_" class="st3" cx="53.2" cy="423.9" r="13.9"/>
	<circle id="XMLID_62_" class="st8" cx="53.2" cy="423.9" r="4.6"/>
	<line id="XMLID_901_" class="st3" x1="53.2" y1="423.9" x2="84.7" y2="392.5"/>
	<path id="XMLID_898_" class="st9" d="M79.3,389.4l-5.7,5.7c-0.2,0.2-0.3,0.6-0.2,0.9l1.7,6.4l7.1-7.1l-1.5-5.4
		C80.6,389.1,79.7,388.9,79.3,389.4z"/>
	<path id="XMLID_895_" class="st9" d="M88,398.2l-5.7,5.7c-0.2,0.2-0.6,0.3-0.9,0.2l-6.4-1.7l7.1-7.1l5.4,1.5
		C88.3,396.9,88.5,397.7,88,398.2z"/>
	<line id="XMLID_68_" class="st10" x1="330.6" y1="348.5" x2="377.3" y2="348.5"/>
	<line id="XMLID_71_" class="st10" x1="330.6" y1="362.8" x2="360.8" y2="362.8"/>
	<line id="XMLID_72_" class="st10" x1="370" y1="362.8" x2="377.3" y2="362.8"/>
	<line id="XMLID_75_" class="st11" x1="487" y1="346.9" x2="518.6" y2="346.9"/>
	<line id="XMLID_78_" class="st11" x1="530" y1="301.9" x2="555.9" y2="301.9"/>
	<line id="XMLID_81_" class="st11" x1="530" y1="315.2" x2="555.9" y2="315.2"/>
	<line id="XMLID_84_" class="st11" x1="530" y1="328.5" x2="555.9" y2="328.5"/>
	<line id="XMLID_87_" class="st11" x1="487" y1="361.1" x2="502" y2="361.1"/>
	<line id="XMLID_88_" class="st11" x1="511.3" y1="361.1" x2="518.6" y2="361.1"/>
	<g id="XMLID_96_">
		<g id="XMLID_95_">
			<line id="XMLID_107_" class="st5" x1="299.8" y1="281.8" x2="299.8" y2="275.8"/>
			<line id="XMLID_106_" class="st12" x1="299.8" y1="263.4" x2="299.8" y2="194.8"/>
			<polyline id="XMLID_104_" class="st5" points="299.8,188.6 299.8,182.6 305.8,182.6 			"/>
			<line id="XMLID_103_" class="st13" x1="319.8" y1="182.6" x2="341" y2="182.6"/>
			<line id="XMLID_98_" class="st5" x1="348" y1="182.6" x2="354" y2="182.6"/>
		</g>
	</g>
	<circle id="XMLID_99_" class="st9" cx="360.8" cy="182.6" r="7.1"/>
	<circle id="XMLID_102_" class="st9" cx="510.3" cy="321.2" r="7.1"/>
	<circle id="XMLID_105_" class="st9" cx="542.1" cy="352.6" r="7.1"/>
	<circle id="XMLID_108_" class="st9" cx="611.9" cy="220.9" r="7.1"/>
	<circle id="XMLID_111_" class="st9" cx="437" cy="227.9" r="7.1"/>
	<circle id="XMLID_114_" class="st9" cx="299.8" cy="287.2" r="7.1"/>
	<circle id="XMLID_117_" class="st9" cx="246.1" cy="352.6" r="7.1"/>
	<circle id="XMLID_120_" class="st9" cx="83.9" cy="352.6" r="7.1"/>
	<circle id="XMLID_123_" class="st9" cx="2.2" cy="348.5" r="5.4"/>
	<circle id="XMLID_126_" class="st9" cx="23.1" cy="348.5" r="5.4"/>
	<circle id="XMLID_129_" class="st9" cx="44" cy="348.5" r="5.4"/>
	<line id="XMLID_130_" class="st14" x1="241.9" y1="352.6" x2="86.6" y2="352.6"/>
	<path id="XMLID_133_" class="st3" d="M22.2,308.1c-21.8,0-39.4,17.6-39.4,39.4c0,16.7,10.3,30.9,24.9,36.6
		C5,388.9,1.2,393.3-3.6,397c1.3-0.1,2.5-0.3,3.8-0.6c7.9-1.5,14.6-5.1,19.5-9.7c0.8,0,1.6,0.1,2.3,0.1c21.8,0,39.4-17.6,39.4-39.4
		C61.6,325.7,43.9,308.1,22.2,308.1z"/>
	<path id="XMLID_136_" class="st3" d="M66.9,322.8c-0.7-1.2-1.4-2.4-2.2-3.6"/>
	<path id="XMLID_139_" class="st3" d="M57.9,311.1c-9.2-9-21.8-14.6-35.8-14.6"/>
	<path id="XMLID_816_" class="st3" d="M465.6,427.5c0,8.6,7,15.6,15.6,15.6h75.1c8.6,0,15.6-7,15.6-15.6v-2H465.6V427.5z"/>
	<path id="XMLID_813_" class="st3" d="M571.9,282.6v-2c0-8.6-7-15.6-15.6-15.6h-75.1c-8.6,0-15.6,7-15.6,15.6v2H571.9"/>
	<polyline id="XMLID_810_" class="st3" points="571.9,366.8 571.9,425.5 465.6,425.5 465.6,335.5 	"/>
	<polyline id="XMLID_790_" class="st3" points="465.6,307 465.6,282.6 571.9,282.6 571.9,338.3 	"/>
	<circle id="XMLID_146_" class="st9" cx="518.8" cy="434.3" r="4.8"/>
	<g id="XMLID_154_">
		<g id="XMLID_32_">
			<line id="XMLID_38_" class="st5" x1="437" y1="234.2" x2="437" y2="240.2"/>
			<line id="XMLID_37_" class="st15" x1="437" y1="251" x2="437" y2="309.9"/>
			<polyline id="XMLID_36_" class="st5" points="437,315.2 437,321.2 443,321.2 			"/>
			<line id="XMLID_34_" class="st16" x1="454" y1="321.2" x2="491.8" y2="321.2"/>
			<line id="XMLID_33_" class="st5" x1="497.3" y1="321.2" x2="503.3" y2="321.2"/>
		</g>
	</g>
	<g id="XMLID_162_">
		<g id="XMLID_27_">
			<line id="XMLID_56_" class="st5" x1="545.8" y1="352.6" x2="551.8" y2="352.6"/>
			<line id="XMLID_55_" class="st17" x1="562.6" y1="352.6" x2="600.5" y2="352.6"/>
			<polyline id="XMLID_45_" class="st5" points="605.9,352.6 611.9,352.6 611.9,346.6 			"/>
			<line id="XMLID_29_" class="st18" x1="611.9" y1="333.7" x2="611.9" y2="237"/>
			<line id="XMLID_28_" class="st5" x1="611.9" y1="230.5" x2="611.9" y2="224.5"/>
		</g>
	</g>
	<line id="XMLID_165_" class="st3" x1="134.1" y1="459" x2="377.5" y2="459"/>
	<line id="XMLID_166_" class="st3" x1="390.3" y1="459" x2="393.8" y2="459"/>
	<g id="XMLID_173_">
		<g id="XMLID_223_">
			<g id="XMLID_224_">
				<path id="XMLID_233_" class="st3" d="M579.3,268.4c1.4,2.6,2.5,5.5,3,8.5 M517.1,254.3h38.2c6.5,0,12.4,2.3,17.1,6"/>
			</g>
		</g>
	</g>
	<polygon id="XMLID_178_" class="st3" points="478.3,459 484.8,459 484.8,459 	"/>
	<line id="XMLID_179_" class="st3" x1="497.1" y1="459" x2="562.8" y2="459"/>
</g>
</svg>
