<?xml version="1.0" encoding="utf-8"?>
<!-- Generator: Adobe Illustrator 19.0.0, SVG Export Plug-In . SVG Version: 6.00 Build 0)  -->
<svg version="1.1" xmlns="http://www.w3.org/2000/svg" xmlns:xlink="http://www.w3.org/1999/xlink" x="0px" y="0px"
	 viewBox="194 197 1000 400" style="enable-background:new 194 197 1000 400;" xml:space="preserve">
<style type="text/css">
	.st0{fill:#0DBACC;}
	.st1{clip-path:url(#SVGID_2_);}
	.st2{fill:#8FD0DB;}
	.st3{fill:#BDE2E9;}
	.st4{fill:#B5DFE7;}
	.st5{fill:#CEE9EF;}
	.st6{fill:#AEDCE4;}
	.st7{fill:#FFFFFF;}
	.st8{fill:#DEF0F3;}
	.st9{fill:none;stroke:#000000;stroke-width:0.3;}
	.st10{fill:none;stroke:#FFFFFF;stroke-width:2;stroke-linecap:round;stroke-linejoin:round;}
	.st11{fill:none;stroke:#FFFFFF;stroke-width:2;stroke-linecap:round;stroke-linejoin:round;stroke-dasharray:7.6109,7.6109;}
	.st12{fill:none;stroke:#FFFFFF;stroke-width:2;stroke-linecap:round;stroke-linejoin:round;stroke-dasharray:7.2329,7.2329;}
	.st13{fill:none;stroke:#FFFFFF;stroke-width:2;stroke-linecap:round;stroke-linejoin:round;stroke-dasharray:5.5682,5.5682;}
	.st14{fill:none;stroke:#FFFFFF;stroke-width:2;stroke-linecap:round;stroke-linejoin:round;stroke-dasharray:7.1055,7.1055;}
	
		.st15{fill:none;stroke:#FFFFFF;stroke-width:2;stroke-linecap:round;stroke-linejoin:round;stroke-miterlimit:10;stroke-dasharray:6;}
	.st16{opacity:0.51;fill:#7CDDED;}
</style>
<g id="Camada_1">
	<g id="XMLID_3_">
		<rect id="XMLID_637_" x="194" y="192.3" class="st0" width="1000" height="404.9"/>
		<g id="XMLID_4_">
			<g>
				<g>
					<g>
						<defs>
							<rect id="SVGID_1_" x="194" y="195.1" width="1000" height="404.9"/>
						</defs>
						<clipPath id="SVGID_2_">
							<use xlink:href="#SVGID_1_"  style="overflow:visible;"/>
						</clipPath>
						<g id="XMLID_5_" class="st1">
							<path id="XMLID_631_" class="st2" d="M224.1,401.9v118.2h26.3v-81.3h27.1v-36.9H224.1L224.1,401.9z M250.2,508.4h-23.8v-11.1
								h23.8V508.4z M250.2,480.9h-23.8v-11.1h23.8V480.9z M250.2,453.4h-23.8v-11.1h23.8V453.4z M275.2,425.9h-48.8v-11.1h48.8
								V425.9z"/>
							<path id="XMLID_612_" class="st2" d="M314.7,354.4v126h42.5v-92.3H356v-8.9h16.7v2.9h-15.6v0.2h17.1v-27.9H314.7z
								 M334.4,476.7h-16.7v-8.9h16.7V476.7z M334.4,462h-16.7v-9h16.7V462z M334.4,447.2h-16.7v-8.9h16.7V447.2z M334.4,432.4
								h-16.7v-8.9h16.7V432.4z M334.4,417.6h-16.7v-8.9h16.7V417.6z M334.4,402.9h-16.7V394h16.7V402.9z M334.4,388.1h-16.7v-8.9
								h16.7V388.1z M334.4,373.3h-16.7v-8.9h16.7V373.3z M353.5,476.7h-16.7v-8.9h16.7V476.7z M353.5,462h-16.7v-9h16.7V462z
								 M353.5,447.2h-16.7v-8.9h16.7V447.2z M353.5,432.4h-16.7v-8.9h16.7V432.4z M353.5,417.6h-16.7v-8.9h16.7V417.6z
								 M353.5,402.9h-16.7V394h16.7V402.9z M353.5,388.1h-16.7v-8.9h16.7V388.1z M353.5,373.3h-16.7v-8.9h16.7V373.3z M372.7,373.3
								H356v-8.9h16.7V373.3z"/>
							<g id="XMLID_605_">
								<rect id="XMLID_611_" x="423.4" y="508.1" class="st2" width="32.9" height="14.8"/>
								<rect id="XMLID_610_" x="423.4" y="423.2" class="st2" width="32.9" height="13.9"/>
								<rect id="XMLID_609_" x="423.4" y="479.5" class="st2" width="32.9" height="14.8"/>
								<rect id="XMLID_608_" x="423.4" y="450.9" class="st2" width="32.9" height="14.8"/>
								<polygon id="XMLID_607_" class="st2" points="440,541.8 455,541.8 455,536.7 423.4,536.7 423.4,551.5 440,551.5 								"/>
								<rect id="XMLID_606_" x="423.4" y="565.4" class="st2" width="16.6" height="31.9"/>
							</g>
							<path id="XMLID_575_" class="st2" d="M708.1,419.1v86H779v-86H708.1z M725.9,502.9h-16.5v-6.3h16.5V502.9z M725.9,491.2
								h-16.5v-6.3h16.5V491.2z M725.9,479.5h-16.5v-6.3h16.5V479.5z M725.9,467.7h-16.5v-6.3h16.5V467.7z M725.9,456h-16.5v-6.3
								h16.5V456z M725.9,444.3h-16.5V438h16.5V444.3z M725.9,432.5h-16.5v-6.3h16.5V432.5z M743.4,502.9h-16.5v-6.3h16.5V502.9z
								 M743.4,491.2h-16.5v-6.3h16.5V491.2z M743.4,479.5h-16.5v-6.3h16.5V479.5z M743.4,467.7h-16.5v-6.3h16.5V467.7z M743.4,456
								h-16.5v-6.3h16.5V456z M743.4,444.3h-16.5V438h16.5V444.3z M743.4,432.5h-16.5v-6.3h16.5V432.5z M760.8,502.9h-16.5v-6.3
								h16.5V502.9z M760.8,491.2h-16.5v-6.3h16.5V491.2z M760.8,479.5h-16.5v-6.3h16.5V479.5z M760.8,467.7h-16.5v-6.3h16.5V467.7z
								 M760.8,456h-16.5v-6.3h16.5V456z M760.8,444.3h-16.5V438h16.5V444.3z M760.8,432.5h-16.5v-6.3h16.5V432.5z M778.3,502.9
								h-16.5v-6.3h16.5V502.9z M778.3,491.2h-16.5v-6.3h16.5V491.2z M778.3,479.5h-16.5v-6.3h16.5V479.5z M778.3,467.7h-16.5v-6.3
								h16.5V467.7z M778.3,456h-16.5v-6.3h16.5V456z M778.3,444.3h-16.5V438h16.5V444.3z M778.3,432.5h-16.5v-6.3h16.5V432.5z"/>
							<path id="XMLID_550_" class="st2" d="M918.7,497.4h5.7v-77.1h-51.3v61.9h11.5v0.9h3.1v9.2h-3.1v7.4h3.1v9.2h-3.1v7.4h3.1v9.2
								h-3.1v7.4h3.1v9.2h-3.1v7.4h3.1v9.2h-3.1v7.4h3.1v9.2h-3.1v7.4h3.1v9.2h-3.1v4.2h-11.5v0.9h45.5L918.7,497.4L918.7,497.4z
								 M887.8,475.7H879v-9.2h8.8V475.7z M887.8,459.1H879v-9.2h8.8V459.1z M887.8,442.4H879v-9.2h8.8V442.4z M903.2,592h-8.8v-9.2
								h8.8V592z M903.2,575.4h-8.8v-9.2h8.8V575.4z M903.2,558.8h-8.8v-9.3h8.8V558.8z M903.2,542.2h-8.8V533h8.8V542.2z
								 M903.2,525.5h-8.8v-9.2h8.8V525.5z M903.2,508.9h-8.8v-9.2h8.8V508.9z M903.2,492.3h-8.8v-9.2h8.8V492.3z M903.2,475.7h-8.8
								v-9.2h8.8V475.7z M903.2,459.1h-8.8v-9.2h8.8V459.1z M903.2,442.4h-8.8v-9.2h8.8V442.4z M918.6,592h-8.8v-9.2h8.8V592z
								 M918.6,575.4h-8.8v-9.2h8.8V575.4z M918.6,558.8h-8.8v-9.3h8.8V558.8z M918.6,542.2h-8.8V533h8.8V542.2z M918.6,525.5h-8.8
								v-9.2h8.8V525.5z M918.6,508.9h-8.8v-9.2h8.8V508.9z M918.6,492.3h-8.8v-9.2h8.8V492.3z M918.6,475.7h-8.8v-9.2h8.8V475.7z
								 M918.6,459.1h-8.8v-9.2h8.8V459.1z M909.9,442.4v-9.2h8.8v9.2H909.9z"/>
							<path id="XMLID_508_" class="st3" d="M1053.3,596.3l0.1-147.7h28.4l-0.1-59.6h-5.4v-56.3l-55.4,19.4V389h-24.6v208.2h1.5v-4
								h25.7v4h2.6v-4h25.7v4h29.9v-0.9H1053.3L1053.3,596.3z M1080.2,442h-25.7v-7.5h25.7V442z M1080.2,428.8h-25.7v-7.5h25.7
								V428.8z M1080.2,415.5h-25.7V408h25.7V415.5z M1080.2,394.8v7.5h-25.7v-7.5H1080.2L1080.2,394.8z M1050,344.8l24.2-8v20.8
								H1050V344.8z M1050,360.3h24.2v13.2H1050V360.3z M1050,376.2h24.2v13.2H1050V376.2z M1023.3,353.8l24.2-8.1v12h-24.2V353.8z
								 M1023.3,360.3h24.2v13.2h-24.2V360.3z M1023.5,587.5h-25.7V580h25.7V587.5z M1023.5,574.2h-25.7v-7.5h25.7V574.2z
								 M1023.5,561h-25.7v-7.5h25.7V561z M1023.5,547.8h-25.7v-7.5h25.7V547.8z M1023.5,534.6h-25.7v-7.5h25.7V534.6z
								 M1023.5,521.3h-25.7v-7.5h25.7V521.3z M1023.5,508.1h-25.7v-7.5h25.7V508.1z M1023.5,494.9h-25.7v-7.5h25.7V494.9z
								 M1023.5,481.7h-25.7v-7.5h25.7V481.7z M1023.5,468.4h-25.7V461h25.7V468.4z M1023.5,455.2h-25.7v-7.5h25.7V455.2z
								 M1023.5,442h-25.7v-7.5h25.7V442z M1023.5,428.8h-25.7v-7.5h25.7V428.8z M1023.5,415.5h-25.7V408h25.7V415.5z M1023.5,402.3
								h-25.7v-7.5h25.7V402.3z M1023.3,389.5v-13.2h24.2v13.2H1023.3z M1051.9,587.5h-25.7V580h25.7V587.5z M1051.9,574.2h-25.7
								v-7.5h25.7V574.2z M1051.9,561h-25.7v-7.5h25.7V561z M1051.9,547.8h-25.7v-7.5h25.7V547.8z M1051.9,534.6h-25.7v-7.5h25.7
								V534.6z M1051.9,521.3h-25.7v-7.5h25.7V521.3z M1051.9,508.1h-25.7v-7.5h25.7V508.1z M1051.9,494.9h-25.7v-7.5h25.7V494.9z
								 M1051.9,481.7h-25.7v-7.5h25.7V481.7z M1051.9,468.4h-25.7V461h25.7V468.4z M1051.9,455.2h-25.7v-7.5h25.7V455.2z
								 M1051.9,442h-25.7v-7.5h25.7V442z M1051.9,428.8h-25.7v-7.5h25.7V428.8z M1051.9,415.5h-25.7V408h25.7V415.5z M1051.9,402.3
								h-25.7v-7.5h25.7V402.3z"/>
							<g id="XMLID_499_">
								<rect id="XMLID_507_" x="548.4" y="543.7" class="st2" width="26.3" height="7.4"/>
								<rect id="XMLID_506_" x="548.4" y="561.7" class="st2" width="26.3" height="7.4"/>
								<rect id="XMLID_505_" x="548.3" y="579.2" class="st2" width="26.3" height="18"/>
								<rect id="XMLID_504_" x="548.4" y="525.7" class="st2" width="26.3" height="7.4"/>
								<rect id="XMLID_503_" x="548.4" y="507.7" class="st2" width="26.3" height="7.4"/>
								<rect id="XMLID_502_" x="548.4" y="471.7" class="st2" width="26.3" height="7.4"/>
								<rect id="XMLID_501_" x="548.4" y="489.7" class="st2" width="26.3" height="7.4"/>
								<rect id="XMLID_500_" x="548.4" y="448.6" class="st2" width="26.3" height="12.5"/>
							</g>
							<path id="XMLID_491_" class="st4" d="M1138,519.2v78h43.4v-78H1138z M1155.9,584.8h-13.8v-16.6h13.8V584.8z M1155.9,562.6
								h-13.8V546h13.8V562.6z M1155.9,540.5h-13.8v-16.6h13.8V540.5z M1175.5,584.8h-13.8v-16.6h13.8V584.8z M1175.5,562.6h-13.8
								V546h13.8V562.6z M1175.5,540.5h-13.8v-16.6h13.8V540.5z"/>
							<g id="XMLID_488_">
								<rect id="XMLID_490_" x="181.4" y="512.7" class="st3" width="69.5" height="14.8"/>
								<path id="XMLID_489_" class="st3" d="M181.4,529.3v67.9h9.5v-27.7c0-5.6,4.1-10.2,9.2-10.2c5.1,0,9.2,4.5,9.2,10.2v27.7
									h14.6v-27.7c0-5.6,4.1-10.2,9.2-10.2c5.1,0,9.2,4.5,9.2,10.2v27.7h8.8v-67.9H181.4z"/>
							</g>
							<path id="XMLID_446_" class="st3" d="M508.3,378.4v163.4h2.6v-12h5.4v12h4.6v-12h5.4v12.5h-3v5.5h3v12.5h-3v5.5h3v12.5h-3
								v5.5h3v12.5h-3v0.9h25.9V378.4H508.3z M516.3,524.3h-5.4v-12.5h5.4V524.3z M516.3,506.3h-5.4v-12.5h5.4V506.3z M516.3,488.3
								h-5.4v-12.5h5.4V488.3z M516.3,470.3h-5.4v-12.5h5.4V470.3z M516.3,452.3h-5.4v-12.5h5.4V452.3z M516.3,434.3h-5.4v-12.5h5.4
								V434.3z M516.3,416.3h-5.4v-12.5h5.4V416.3z M516.3,398.2h-5.4v-12.5h5.4V398.2z M526.3,524.3h-5.4v-12.5h5.4V524.3z
								 M526.3,506.3h-5.4v-12.5h5.4V506.3z M526.3,488.3h-5.4v-12.5h5.4V488.3z M526.3,470.3h-5.4v-12.5h5.4V470.3z M526.3,452.3
								h-5.4v-12.5h5.4V452.3z M526.3,434.3h-5.4v-12.5h5.4V434.3z M526.3,416.3h-5.4v-12.5h5.4V416.3z M526.3,398.2h-5.4v-12.5h5.4
								V398.2z M536.3,596.3h-5.4v-12.5h5.4V596.3z M536.3,578.3h-5.4v-12.5h5.4V578.3z M536.3,560.3h-5.4v-12.5h5.4V560.3z
								 M536.3,542.3h-5.4v-12.5h5.4V542.3z M536.3,524.3h-5.4v-12.5h5.4V524.3z M536.3,506.3h-5.4v-12.5h5.4V506.3z M536.3,488.3
								h-5.4v-12.5h5.4V488.3z M536.3,470.3h-5.4v-12.5h5.4V470.3z M536.3,452.3h-5.4v-12.5h5.4V452.3z M536.3,434.3h-5.4v-12.5h5.4
								V434.3z M536.3,416.3h-5.4v-12.5h5.4V416.3z M536.3,398.2h-5.4v-12.5h5.4V398.2z M546.3,596.3h-5.4v-12.5h5.4V596.3z
								 M546.3,578.3h-5.4v-12.5h5.4V578.3z M546.3,560.3h-5.4v-12.5h5.4V560.3z M546.3,542.3h-5.4v-12.5h5.4V542.3z M546.3,524.3
								h-5.4v-12.5h5.4V524.3z M546.3,506.3h-5.4v-12.5h5.4V506.3z M546.3,488.3h-5.4v-12.5h5.4V488.3z M546.3,470.3h-5.4v-12.5h5.4
								V470.3z M546.3,452.3h-5.4v-12.5h5.4V452.3z M546.3,434.3h-5.4v-12.5h5.4V434.3z M546.3,416.3h-5.4v-12.5h5.4V416.3z
								 M546.3,398.2h-5.4v-12.5h5.4V398.2z"/>
							<path id="XMLID_420_" class="st5" d="M622.8,578.2h-2.9v-17.7h2.9v-7.9h-2.9v-17.7h2.9V527h-2.9v-17.7h2.9v-7.9h-2.9v-17.7
								h2.9v-7.9h-2.9v-17.7h2.9v-7.9h-2.9v-17.7h10.4v9.3h3.1v-9.3h6.8c2.1-1.9,4.8-3.2,7.8-3.4v-27.7h-73.8v195.7h5v-11.2h10.4
								v11.2h3.1v-11.2h10.4v11.2h3.1v-11.2h10.4v11.2h3.1v-11.2h2.9v-7.7L622.8,578.2L622.8,578.2z M633.4,407.1h10.4v17.7h-10.4
								V407.1z M619.9,407.1h10.4v17.7h-10.4V407.1z M589.7,578.2h-10.4v-17.7h10.4V578.2z M589.7,552.6h-10.4v-17.7h10.4V552.6z
								 M589.7,527h-10.4v-17.7h10.4V527z M589.7,501.4h-10.4v-17.7h10.4V501.4z M589.7,475.9h-10.4v-17.7h10.4V475.9z M589.7,450.3
								h-10.4v-17.7h10.4V450.3z M589.7,424.7h-10.4V407h10.4V424.7z M603.2,578.2h-10.4v-17.7h10.4V578.2z M603.2,552.6h-10.4
								v-17.7h10.4V552.6z M603.2,527h-10.4v-17.7h10.4V527z M603.2,501.4h-10.4v-17.7h10.4V501.4z M603.2,475.9h-10.4v-17.7h10.4
								V475.9z M603.2,450.3h-10.4v-17.7h10.4V450.3z M603.2,424.7h-10.4V407h10.4V424.7z M616.7,578.2h-10.4v-17.7h10.4V578.2z
								 M616.7,552.6h-10.4v-17.7h10.4V552.6z M616.7,527h-10.4v-17.7h10.4V527z M616.7,501.4h-10.4v-17.7h10.4V501.4z M616.7,475.9
								h-10.4v-17.7h10.4V475.9z M616.7,450.3h-10.4v-17.7h10.4V450.3z M616.7,424.7h-10.4V407h10.4V424.7z"/>
							<path id="XMLID_401_" class="st6" d="M658.3,340.7v19.7h-19.4v41.1h9.2v1.4h11v9.2h-11v8.7h11v9.2h-5.8
								c1.2,0.4,2.3,1,3.3,1.8c0,0,0,0,0.1,0c0.2,0.2,0.5,0.4,0.7,0.5l0.1,0.1c0.6,0.5,1.2,1.1,1.7,1.8c0.1,0.1,0.2,0.2,0.2,0.3
								c0.1,0.2,0.2,0.3,0.3,0.5c0.1,0.1,0.2,0.3,0.3,0.4c0.1,0.2,0.2,0.3,0.3,0.5s0.2,0.4,0.3,0.6c0.1,0.1,0.1,0.2,0.2,0.4
								c0.1,0.3,0.3,0.6,0.4,1c0,0.1,0.1,0.2,0.1,0.3c0.1,0.2,0.1,0.5,0.2,0.7c0,0.1,0.1,0.3,0.1,0.4c0.1,0.3,0.1,0.5,0.1,0.8
								c0,0.1,0,0.2,0,0.4c0,0.4,0.1,0.8,0.1,1.1c0,0.2,0,0.3,0,0.5h3v-3.3h17.1v9.2h-6.7v8.7h6.7v9.2h-6.7v8.7h6.7v9.2h-6.7v8.7
								h6.7v9.2h-6.7v5.8h33.3V386.6v-26.2v-19.7L658.3,340.7L658.3,340.7z M659,394.2h-17.1V385H659V394.2z M659,376.3h-17.1v-9.2
								H659V376.3z M677.8,345.8h11.1V360h-11.1V345.8z M662,359.9v-14.2h11.1v14.2H662z M681.9,429.9h-17.1v-9.2h17.1V429.9z
								 M681.9,412.1h-17.1v-9.2h17.1V412.1z M681.9,394.2h-17.1V385h17.1V394.2z M681.9,376.3h-17.1v-9.2h17.1V376.3z M704.7,501.4
								h-17.1v-9.2h17.1V501.4z M704.7,483.6h-17.1v-9.2h17.1V483.6z M704.7,465.7h-17.1v-9.2h17.1V465.7z M704.7,447.8h-17.1v-9.2
								h17.1V447.8z M704.7,429.9h-17.1v-9.2h17.1V429.9z M704.7,412.1h-17.1v-9.2h17.1V412.1z M704.7,394.2h-17.1V385h17.1V394.2z
								 M704.7,376.3h-17.1v-9.2h17.1V376.3z M704.7,359.9h-11.1v-14.2h11.1V359.9z"/>
							<polygon id="XMLID_400_" class="st3" points="843.8,482.5 843.8,492.2 881.7,492.2 881.7,501.9 843.8,501.9 843.8,507.5 
								881.7,507.5 881.7,517.2 843.8,517.2 843.8,522.7 881.7,522.7 881.7,532.4 843.8,532.4 843.8,537.9 881.7,537.9 881.7,547.6 
								843.8,547.6 843.8,553.2 881.7,553.2 881.7,562.9 843.8,562.9 843.8,568.4 881.7,568.4 881.7,578.1 843.8,578.1 843.8,583.6 
								881.7,583.6 881.7,593.3 843.8,593.3 843.8,597 884.2,597 884.2,482.5 							"/>
							<path id="XMLID_248_" class="st7" d="M1053.1,448.1v150h85.8v-150L1053.1,448.1L1053.1,448.1z M1066,589.4h-8.9v-19.6h8.9
								V589.4z M1066,561.3h-8.9v-19.6h8.9V561.3z M1066,533.2h-8.9v-19.6h8.9V533.2z M1066,505.1h-8.9v-19.6h8.9V505.1z M1066,477
								h-8.9v-19.6h8.9V477z M1079.8,589.4h-8.9v-19.6h8.9V589.4z M1079.8,561.3h-8.9v-19.6h8.9V561.3z M1079.8,533.2h-8.9v-19.6
								h8.9V533.2z M1079.8,505.1h-8.9v-19.6h8.9V505.1z M1079.8,477h-8.9v-19.6h8.9V477z M1093.6,589.4h-8.9v-19.6h8.9V589.4z
								 M1093.6,561.3h-8.9v-19.6h8.9V561.3z M1093.6,533.2h-8.9v-19.6h8.9V533.2z M1093.6,505.1h-8.9v-19.6h8.9V505.1z M1093.6,477
								h-8.9v-19.6h8.9V477z M1107.4,589.4h-8.9v-19.6h8.9V589.4z M1107.4,561.3h-8.9v-19.6h8.9V561.3z M1107.4,533.2h-8.9v-19.6
								h8.9V533.2z M1107.4,505.1h-8.9v-19.6h8.9V505.1z M1107.4,477h-8.9v-19.6h8.9V477z M1121.2,589.4h-8.9v-19.6h8.9V589.4z
								 M1121.2,561.3h-8.9v-19.6h8.9V561.3z M1121.2,533.2h-8.9v-19.6h8.9V533.2z M1121.2,505.1h-8.9v-19.6h8.9V505.1z M1121.2,477
								h-8.9v-19.6h8.9V477z M1135,589.4h-9v-19.6h8.9L1135,589.4L1135,589.4z M1135,561.3h-9v-19.6h8.9L1135,561.3L1135,561.3z
								 M1135,533.2h-9v-19.6h8.9L1135,533.2L1135,533.2z M1135,505.1h-9v-19.6h8.9L1135,505.1L1135,505.1z M1135,477h-9v-19.6h8.9
								L1135,477L1135,477z"/>
							<path id="XMLID_223_" class="st8" d="M980.3,442.6v-48.2v-0.3h3.8v-6.9H978v-19.4L924.5,383v4.2h-6.1v6.9h3.8v0.3v48.2h-8.8
								v16.6h3.6V603h2.8v-51.2h29.6v51.5l3.9-3.3v-48.2h29.6v6.9h-64.3l0.1,3.4h64.2v6.9h-64.2v3.4h64.2v6.9h-63.1v3.4h63.1v6.9
								h-64.3v8.5h67v-139h3.6v-16.6L980.3,442.6L980.3,442.6L980.3,442.6z M924.4,394.3h53.5v7.3h-53.5V394.3z M924.4,404.6h53.5
								v7.3h-53.5V404.6z M924.4,414.9h53.5v7.3h-53.5V414.9z M924.4,425.2h53.5v7.3h-53.5V425.2z M949.2,548.4h-29.6v-6.9h29.6
								V548.4z M949.2,538.1h-29.6v-6.9h29.6V538.1z M949.2,527.8h-29.6v-6.9h29.6V527.8z M949.2,517.5h-29.6v-6.9h29.6V517.5z
								 M949.2,507.2h-29.6v-6.9h29.6V507.2z M949.2,496.9h-29.6V490h29.6V496.9z M949.2,486.6h-29.6v-6.9h29.6V486.6z M949.2,476.3
								h-29.6v-6.9h29.6V476.3z M949.2,466h-29.6v-7h29.6V466z M924.4,442.8v-7.3h53.5v7.3H924.4z M982.7,548.4h-29.6v-6.9h29.6
								V548.4z M982.7,538.1h-29.6v-6.9h29.6V538.1z M982.7,527.8h-29.6v-6.9h29.6V527.8z M982.7,517.5h-29.6v-6.9h29.6V517.5z
								 M982.7,507.2h-29.6v-6.9h29.6V507.2z M982.7,496.9h-29.6V490h29.6V496.9z M982.7,486.6h-29.6v-6.9h29.6V486.6z M982.7,476.3
								h-29.6v-6.9h29.6V476.3z M982.7,466h-29.6v-7h29.6V466z"/>
							<path id="XMLID_175_" class="st8" d="M778.7,378.6v171.7h2.8v-12.7h8v14.9h-0.6v9.7h0.6v14.9h-0.6v9.7h0.6V601h2.4v-14.3h8
								v14.2h2.4v-14.2h8v14.2h2.4v-14.2h8v14.2h2.4v-14.2h8v14.2h2.4v-14.2h8v14.2h2.8V378.6H778.7z M789.5,527.9h-8V513h8V527.9z
								 M789.5,503.3h-8v-14.9h8V503.3z M789.5,478.7h-8v-14.9h8V478.7z M789.5,454.2h-8v-14.9h8V454.2z M789.5,429.6h-8v-14.9h8
								V429.6z M789.5,405h-8v-14.9h8V405z M799.9,577h-8v-14.9h8V577z M799.9,552.5h-8v-14.9h8V552.5z M799.9,527.9h-8V513h8V527.9
								z M799.9,503.3h-8v-14.9h8V503.3z M799.9,478.7h-8v-14.9h8V478.7z M799.9,454.2h-8v-14.9h8V454.2z M799.9,429.6h-8v-14.9h8
								V429.6z M799.9,405h-8v-14.9h8V405z M810.3,577h-8v-14.9h8V577z M810.3,552.5h-8v-14.9h8V552.5z M810.3,527.9h-8V513h8V527.9
								z M810.3,503.3h-8v-14.9h8V503.3z M810.3,478.7h-8v-14.9h8V478.7z M810.3,454.2h-8v-14.9h8V454.2z M810.3,429.6h-8v-14.9h8
								V429.6z M810.3,405h-8v-14.9h8V405z M820.7,577h-8v-14.9h8V577z M820.7,552.5h-8v-14.9h8V552.5z M820.7,527.9h-8V513h8V527.9
								z M820.7,503.3h-8v-14.9h8V503.3z M820.7,478.7h-8v-14.9h8V478.7z M820.7,454.2h-8v-14.9h8V454.2z M820.7,429.6h-8v-14.9h8
								V429.6z M820.7,405h-8v-14.9h8V405z M831.1,577h-8v-14.9h8V577z M831.1,552.5h-8v-14.9h8V552.5z M831.1,527.9h-8V513h8V527.9
								z M831.1,503.3h-8v-14.9h8V503.3z M831.1,478.7h-8v-14.9h8V478.7z M831.1,454.2h-8v-14.9h8V454.2z M831.1,429.6h-8v-14.9h8
								V429.6z M831.1,405h-8v-14.9h8V405z M841.5,577h-8v-14.9h8V577z M841.5,552.5h-8v-14.9h8V552.5z M841.5,527.9h-8V513h8V527.9
								z M841.5,503.3h-8v-14.9h8V503.3z M841.5,478.7h-8v-14.9h8V478.7z M841.5,454.2h-8v-14.9h8V454.2z M841.5,429.6h-8v-14.9h8
								V429.6z M841.5,405h-8v-14.9h8V405z"/>
							<g id="XMLID_153_">
								<rect id="XMLID_174_" x="674.7" y="505.4" class="st7" width="119.2" height="7.3"/>
								<g id="XMLID_154_">
									<g>
										<path class="st7" d="M674.7,514.9v83.8h114.2v-83.8H674.7L674.7,514.9z M747.6,524.2h9.9v8.4h-9.9V524.2z M747.6,544h9.9
											v8.4h-9.9V544z M706.6,524.2h9.9v8.4h-9.9V524.2z M686.1,524.2h9.9v8.4h-9.9V524.2z M686.1,544h9.9v8.4h-9.9V544z
											 M709.1,598.2h-17.5v-18.5h17.5V598.2z M706.6,544h9.9v8.4h-9.9V544z M740.6,598.2h-17.5v-18.5h17.5V598.2z M737,552.4
											h-9.9V544h9.9V552.4z M737,532.6h-9.9v-8.4h9.9V532.6z M772.1,598.2h-17.5v-18.5h17.5V598.2z M777.9,552.4H768V544h9.9
											V552.4z M747.6,560.1h9.9v8.4h-9.9V560.1z M686.1,560.1h9.9v8.4h-9.9V560.1z M706.6,560.1h9.9v8.4h-9.9V560.1z M737,568.6
											h-9.9v-8.4h9.9V568.6z M777.9,568.6H768v-8.4h9.9V568.6z M777.9,532.6H768v-8.4h9.9V532.6z"/>
									</g>
									<line class="st9" x1="620.7" y1="598.7" x2="656.7" y2="598.7"/>
									<line class="st9" x1="842.9" y1="598.7" x2="806.9" y2="598.7"/>
								</g>
							</g>
							<path id="XMLID_134_" class="st7" d="M661.7,441.9c0-0.2,0-0.3,0-0.5c0-6.7-6-12.3-12.8-12.3s-12.8,5.6-12.8,12.3
								c0,0.2,0,0.3,0,0.5h-13.4v156.2h1.6h5.8h12.5h12.5h12.5h5.8h1.6V442L661.7,441.9z M642.7,466.6h-12.5v-9.2h12.5V466.6z
								 M642.7,474.4v9.2h-12.5v-9.2H642.7z M642.7,491.5v9.2h-12.5v-9.2H642.7z M642.7,508.6v9.2h-12.5v-9.2L642.7,508.6
								L642.7,508.6z M642.7,525.7v9.2h-12.5v-9.2H642.7z M642.7,542.7v9.2h-12.5v-9.2H642.7z M642.7,559.8v9.2h-12.5v-9.2H642.7z
								 M642.7,576.9v9.2h-12.5v-9.2H642.7z M667.7,466.6h-12.5v-9.2h12.5V466.6z M667.7,474.4v9.2h-12.5v-9.2H667.7z M667.7,491.5
								v9.2h-12.5v-9.2H667.7z M667.7,508.6v9.2h-12.5v-9.2L667.7,508.6L667.7,508.6z M667.7,525.7v9.2h-12.5v-9.2H667.7z
								 M667.7,542.7v9.2h-12.5v-9.2H667.7z M667.7,559.8v9.2h-12.5v-9.2H667.7z M667.7,576.9v9.2h-12.5v-9.2H667.7z M674.4,595.6
								h-1.7V451.3h-13.4c0-0.2,0-0.3,0-0.5c0-6.4-4.7-11.5-10.4-11.5c-5.8,0-10.4,5.2-10.4,11.5c0,0.2,0,0.3,0,0.5h-13.4v144.2
								h-1.7V448.8h14.1c0-0.2,0-0.4,0-0.5c0-7.3,5.6-11.5,11.3-11.5c5.8,0,11.3,4.2,11.3,11.5c0,0.2,0,0.4,0,0.5h14.1v146.8H674.4
								L674.4,595.6z"/>
							<path id="XMLID_128_" class="st7" d="M508.3,541.8V341.9h-6.7v-14.3h-40v14.3H455v199.9h-15v56.3h9.2v-50.3h10v50.3h8.1
								v-37.4h27.9v37.4h8.1v-50.3h10v50.3h9.9v-56.3H508.3z M466.3,541.8h-5.8V343.3h5.8V541.8z M478.8,343.3h5.8v198.5h-5.8V343.3
								z M495.3,555.2h-27.9v-6.9h27.9V555.2z M502.9,541.8h-5.8V343.3h5.8V541.8z"/>
							<path id="XMLID_101_" class="st3" d="M357.2,382.1v98.4h3.3v-15.3h10v15.3h2.6v-15.3h10v15.3h2.6v-15.3h10v15.3h0.6v116.7h2
								v-9.7h10v9.7h2.6v-9.7h10v9.7h3.8V382.1H357.2z M370.5,460.1h-10v-19.4h10V460.1z M370.5,435.6h-10v-19.4h10V435.6z
								 M370.5,411.2h-10v-19.4h10V411.2z M383.1,460.1h-10v-19.4h10V460.1z M383.1,435.6h-10v-19.4h10V435.6z M383.1,411.2h-10
								v-19.4h10V411.2z M395.7,460.1h-10v-19.4h10V460.1z M395.7,435.6h-10v-19.4h10V435.6z M395.7,411.2h-10v-19.4h10V411.2z
								 M408.3,582.5h-10v-19.4h10V582.5z M408.3,558h-10v-19.4h10V558z M408.3,533.5h-10v-19.4h10V533.5z M408.3,509h-10v-19.4h10
								V509z M408.3,484.6h-10v-19.4h10V484.6z M408.3,460.1h-10v-19.4h10V460.1z M408.3,435.6h-10v-19.4h10V435.6z M408.3,411.2
								h-10v-19.4h10V411.2z M420.9,582.5h-10v-19.4h10V582.5z M420.9,558h-10v-19.4h10V558z M420.9,533.5h-10v-19.4h10V533.5z
								 M420.9,509h-10v-19.4h10V509z M420.9,484.6h-10v-19.4h10V484.6z M420.9,460.1h-10v-19.4h10V460.1z M420.9,435.6h-10v-19.4
								h10V435.6z M420.9,411.2h-10v-19.4h10V411.2z"/>
							<path id="XMLID_74_" class="st7" d="M315.5,480v117.6h2.5V583h12.5v14.6h3.3V583h12.5v14.6h3.3V583h12.5v14.6h3.3V583H378
								v14.6h3.3V583h12.5v14.6h2.8V480H315.5z M330.5,578.8H318V564h12.5V578.8z M330.5,559.8H318V545h12.5V559.8z M330.5,540.9
								H318v-14.8h12.5V540.9z M330.5,522H318v-14.8h12.5V522z M330.5,503H318v-14.8h12.5V503z M346.3,578.8h-12.5V564h12.5V578.8z
								 M346.3,559.8h-12.5V545h12.5V559.8z M346.3,540.9h-12.5v-14.8h12.5V540.9z M346.3,522h-12.5v-14.8h12.5V522z M346.3,503
								h-12.5v-14.8h12.5V503z M362.2,578.8h-12.5V564h12.5V578.8z M362.2,559.8h-12.5V545h12.5V559.8z M362.2,540.9h-12.5v-14.8
								h12.5V540.9z M362.2,522h-12.5v-14.8h12.5V522z M362.2,503h-12.5v-14.8h12.5V503z M378,578.8h-12.5V564H378V578.8z
								 M378,559.8h-12.5V545H378V559.8z M378,540.9h-12.5v-14.8H378V540.9z M378,522h-12.5v-14.8H378V522z M378,503h-12.5v-14.8
								H378V503z M393.8,578.8h-12.5V564h12.5V578.8z M393.8,559.8h-12.5V545h12.5V559.8z M393.8,540.9h-12.5v-14.8h12.5V540.9z
								 M393.8,522h-12.5v-14.8h12.5V522z M393.8,503h-12.5v-14.8h12.5V503z"/>
							<path id="XMLID_56_" class="st8" d="M250.4,439v158.2H316V439H250.4z M274.2,596.6h-9.4v-12.3h9.4V596.6z M274.2,575.1h-9.4
								v-12.3h9.4V575.1z M274.2,553.5h-9.4v-12.3h9.4V553.5z M274.2,532h-9.4v-12.3h9.4V532z M274.2,510.4h-9.4v-12.3h9.4V510.4z
								 M274.2,488.9h-9.4v-12.3h9.4V488.9z M274.2,467.3h-9.4V455h9.4V467.3z M301.5,596.6H292v-12.3h9.4L301.5,596.6L301.5,596.6z
								 M301.5,575.1H292v-12.3h9.4L301.5,575.1L301.5,575.1z M301.5,553.5H292v-12.3h9.4L301.5,553.5L301.5,553.5z M301.5,532H292
								v-12.3h9.4L301.5,532L301.5,532z M301.5,510.4H292v-12.3h9.4L301.5,510.4L301.5,510.4z M301.5,488.9H292v-12.3h9.4
								L301.5,488.9L301.5,488.9z M301.5,467.3H292V455h9.4L301.5,467.3L301.5,467.3z"/>
							<g id="XMLID_48_">
								<path id="XMLID_49_" class="st7" d="M413.7,286.3v26.1h35.6v-26.1H413.7z M431.5,302.4l-14.6-14.2H446L431.5,302.4z
									 M425.7,299.3l-10.2,9.9v-19.8L425.7,299.3z M427,300.6l4.5,4.4l4.5-4.4l10.1,9.8h-29.2L427,300.6z M437.3,299.3l10.2-9.9
									v19.9L437.3,299.3z"/>
							</g>
							<path id="XMLID_45_" class="st7" d="M731.8,330.2c-2.7,0-4.8,2.4-4.8,5.3v32.2l6.3-7h24.4c2.7,0,4.8-2.4,4.8-5.3v-19.9
								c0-2.9-2.2-5.3-4.8-5.3L731.8,330.2L731.8,330.2z"/>
							<g id="XMLID_42_">
								<path id="XMLID_44_" class="st7" d="M615.5,286.4h18.3c2.9,0,5.3-2.5,5.4-5.7v-8.8c-0.1-0.4-0.4-0.8-0.8-0.8
									c-0.5,0-0.8,0.4-0.8,0.9v8.4c0,2.3-1.7,4.1-3.7,4.1h-18.3c-2.1,0-3.7-1.9-3.7-4.1v-8.6c0-0.5-0.4-0.9-0.8-0.9
									c-0.5,0-0.8,0.4-0.8,0.9v8.6C610,283.7,612.5,286.4,615.5,286.4z"/>
								<path id="XMLID_43_" class="st7" d="M624.6,256.5c-0.5,0-0.8,0.4-0.8,0.9v18.8l-3.9-4.3c-0.3-0.4-0.9-0.4-1.2,0
									s-0.3,0.9,0,1.3l5.3,5.8c0.2,0.2,0.4,0.3,0.6,0.3c0.2,0,0.4-0.1,0.6-0.3l5.3-5.9c0.3-0.4,0.3-0.9,0-1.3s-0.9-0.4-1.2,0
									l-3.9,4.3v-18.7C625.5,256.9,625.1,256.5,624.6,256.5z"/>
							</g>
							<g id="XMLID_37_">
								<path id="XMLID_41_" class="st7" d="M815.7,277.9c-0.8,1-0.9,2.4,0,3.4c0.9,0.9,2.2,1,3.1,0c9.5-10.3,25.2-10.3,34.8,0
									c0.4,0.4,1.8,1.1,3,0c0.9-1,0.9-2.5,0-3.4C845.4,265.9,827,265.9,815.7,277.9z"/>
								<path id="XMLID_40_" class="st7" d="M848.3,286.2c-6.7-7.1-17.6-7.1-24.2,0c-0.8,1-0.9,2.4,0,3.4c0.9,0.9,2.2,1,3.1,0
									c5.1-5.4,13.3-5.4,18.3,0c0.4,0.4,1.7,1.2,2.9,0C849.2,288.6,849.2,287.1,848.3,286.2z"/>
								<path id="XMLID_39_" class="st7" d="M834,297.9c1.2-1.4,3.3-1.4,4.5,0c1.3,1.2,2.7,0.5,3,0c0.9-1,0.9-2.4,0-3.4
									c-3-3.1-7.7-3.1-10.6,0c-0.8,1-0.9,2.4,0,3.4C831.8,298.8,833.1,298.8,834,297.9z"/>
								<ellipse id="XMLID_38_" class="st7" cx="836.2" cy="304.9" rx="2.5" ry="2.8"/>
							</g>
							<g id="XMLID_26_">
								<path id="XMLID_32_" class="st7" d="M958.4,279.9h-17.5c-1.7,0-3.1,1.5-3.1,3.4v39.4c0,1.9,1.4,3.4,3.1,3.4h17.5
									c1.7,0,3.1-1.5,3.1-3.4v-39.5C961.5,281.4,960.1,279.9,958.4,279.9z M959.7,321.8c0,1-0.7,1.8-1.6,1.8h-16.8
									c-0.9,0-1.6-0.8-1.6-1.8v-5.6h20L959.7,321.8L959.7,321.8z M959.7,314.8h-20v-28.1h20V314.8z M959.7,285.2h-20V284
									c0-1,0.7-1.8,1.6-1.8h16.8c0.9,0,1.6,0.8,1.6,1.8L959.7,285.2L959.7,285.2z"/>
								<path id="XMLID_29_" class="st7" d="M949.7,322.9c1.5,0,2.7-1.3,2.7-3c0-1.6-1.2-3-2.7-3s-2.7,1.3-2.7,3
									S948.2,322.9,949.7,322.9z M949.7,318.5c0.7,0,1.3,0.7,1.3,1.5s-0.6,1.5-1.3,1.5s-1.3-0.7-1.3-1.5
									C948.3,319.1,948.9,318.5,949.7,318.5z"/>
								<path id="XMLID_28_" class="st7" d="M949.7,283H947c-0.4,0-0.7,0.3-0.7,0.7c0,0.4,0.3,0.7,0.7,0.7h2.7
									c0.4,0,0.7-0.3,0.7-0.7C950.3,283.3,950,283,949.7,283z"/>
								<path id="XMLID_27_" class="st7" d="M952.3,283h-0.7c-0.4,0-0.7,0.3-0.7,0.7c0,0.4,0.3,0.7,0.7,0.7h0.7
									c0.4,0,0.7-0.3,0.7-0.7S952.7,283,952.3,283z"/>
							</g>
							<g id="XMLID_18_">
								<g id="XMLID_270_">
									<line id="XMLID_275_" class="st10" x1="452.5" y1="298.6" x2="455.5" y2="298.6"/>
									<line id="XMLID_274_" class="st11" x1="463.1" y1="298.6" x2="474.6" y2="298.6"/>
									<polyline id="XMLID_273_" class="st10" points="478.4,298.6 481.4,298.6 481.4,301.6 									"/>
									<line id="XMLID_272_" class="st12" x1="481.4" y1="308.9" x2="481.4" y2="319.7"/>
									<line id="XMLID_271_" class="st10" x1="481.4" y1="323.3" x2="481.4" y2="326.3"/>
								</g>
							</g>
							<g id="XMLID_21_">
								<g id="XMLID_16_">
									<line id="XMLID_268_" class="st10" x1="384" y1="377" x2="384" y2="374"/>
									<line id="XMLID_267_" class="st13" x1="384" y1="368.4" x2="384" y2="304.4"/>
									<polyline id="XMLID_20_" class="st10" points="384,301.6 384,298.6 387,298.6 									"/>
									<line id="XMLID_19_" class="st14" x1="394.1" y1="298.6" x2="404.8" y2="298.6"/>
									<line id="XMLID_17_" class="st10" x1="408.3" y1="298.6" x2="411.3" y2="298.6"/>
								</g>
							</g>
							<polyline id="XMLID_22_" class="st15" points="560.3,444.5 560.3,260.4 617.4,260.4 							"/>
							<polyline id="XMLID_23_" class="st15" points="634.1,260.4 681.2,260 681.2,338.3 							"/>
							<line id="XMLID_24_" class="st15" x1="952" y1="329.9" x2="952" y2="366.5"/>
							<line id="XMLID_25_" class="st15" x1="861.6" y1="290.3" x2="931.6" y2="290.3"/>
							<polyline id="XMLID_61_" class="st15" points="744.9,323.5 744.9,290.3 816.6,290.3 							"/>
							<line id="XMLID_62_" class="st15" x1="744.9" y1="417.3" x2="744.9" y2="364.4"/>
						</g>
					</g>
				</g>
			</g>
		</g>
	</g>
</g>
<g id="Camada_2">
	<path class="st16" d="M1128.9,590.2c-44.4,1.1-54.3-16.6-98.2-14.5c-40.6,1.9-42.9,17.5-77.1,16.2c-7.6-0.3-14.3-1.3-20.4-2.8
		c-51.4-18.9-91.7-21.3-118.6-20.1c-57.7,2.5-71.8,22.3-125.3,19.9c-55.9-2.5-65.6-25.2-114.5-22.5c-42.6,2.3-45.2,20.1-88,21.2
		c-44.4,1.1-54.2-17.7-98.1-15.5c-40.6,2-42.9,18.7-77.1,17.2c-35-1.4-48.6-19.5-88.9-18.6c-12.7,0.3-22.7,2.3-29.7,4V631h642h108
		h274v-60.7C1174,572.5,1171.7,589.2,1128.9,590.2z"/>
	<path class="st7" d="M1129.9,595.2c-44.4,1.1-54.3-16.6-98.2-14.5c-40.6,1.9-42.9,17.5-77.1,16.2c-7.6-0.3-14.3-1.3-20.4-2.8
		c-51.4-18.9-91.7-21.3-118.6-20.1c-57.7,2.5-71.8,22.3-125.3,19.9c-55.9-2.5-65.6-25.2-114.5-22.5c-42.6,2.3-45.2,20.1-88,21.2
		c-44.4,1.1-54.2-17.7-98.1-15.5c-40.6,2-42.9,18.7-77.1,17.2c-35-1.4-48.6-19.5-88.9-18.6c-12.7,0.3-22.7,2.3-29.7,4V636h642h108
		h274v-60.7C1175,577.5,1172.7,594.2,1129.9,595.2z"/>
</g>
</svg>
