<?xml version="1.0" encoding="utf-8"?>
<!-- Generator: Adobe Illustrator 19.0.0, SVG Export Plug-In . SVG Version: 6.00 Build 0)  -->
<svg version="1.1" id="Camada_1" xmlns="http://www.w3.org/2000/svg" xmlns:xlink="http://www.w3.org/1999/xlink" x="0px" y="0px"
	 viewBox="0 0 416.4 449.1" style="enable-background:new 0 0 416.4 449.1;" xml:space="preserve">
<style type="text/css">
	.st0{fill:#E4B37D;}
	.st1{fill:#68477F;}
	.st2{fill:#593D6D;}
	.st3{fill:#7F5798;}
	.st4{fill:#B696BF;}
	.st5{fill:#6F4C86;}
	.st6{fill:#493157;}
	.st7{fill:#A98DBA;}
	.st8{fill:#FFFFFF;}
	.st9{fill:#483057;}
	.st10{fill:#9E7AAE;}
	.st11{fill:#5A3D6D;}
	.st12{fill:#FCFBFB;}
	.st13{fill:#DEA375;}
</style>
<g id="XMLID_361_">
	<g id="XMLID_411_">
		<g id="XMLID_416_">
			<path id="XMLID_358_" class="st0" d="M12,291.4c-7.8,22.7-6.5,48.5,3.8,70.3c2.6-2.3,5.3-4.5,7.9-6.8c1.6,4.1,4.5,7.6,8.3,9.9
				c2.3-2.2,4.1-5,5-8c2.1,3.5,5.1,6.4,8.6,8.5c7-15,11.5-31.1,13.4-47.6C45,305.4,29.5,297.7,12,291.4z"/>
			<path id="XMLID_357_" class="st1" d="M100.1,124.9c-30.7,31.5-58.6,65.8-83.2,102.3c2-1.2,4-2.4,6-3.5
				c-8.4,18.5-15.5,37.6-21.2,57.1c1.3-1.7,2.6-3.5,3.8-5.2c-1.8,12.6-3.7,25.2-5.5,37.8c0.8-1.5,1.6-3,2.4-4.5
				c0.2,5.3,0.4,10.5,0.6,15.8c1.4-1.8,2.7-3.6,4.1-5.4c1,4.2,2.1,8.5,3.1,12.7c1.6-2.6,4.6-4.3,7.7-4.1c1.2,3.7,2.4,7.4,3.6,11.1
				c2.1-1.1,4.1-2.3,6.2-3.4c1.1,2.8,2.1,5.6,3.2,8.4c1.6-1.5,3.2-3.1,4.8-4.6c0.7,2.6,1.5,5.3,2.2,7.9c2.5-2,5-4,7.5-6
				c0.8,3.3,1.7,6.6,2.5,9.9c2-3.3,4.1-6.5,6.1-9.8c0.3,2.8,0.7,5.6,1,8.4c23.8-35.1,42.5-73.7,55.2-114.2
				c-5.5-18.8-2.9-36.5-1.8-56C109.6,159.9,110.9,141.2,100.1,124.9z"/>
			<path id="XMLID_356_" class="st2" d="M107.1,200.6c-7.8-3.2-16.4-4.1-24.6-2l-6.4,8.9C63.6,227,53.7,248,46.6,269.9
				c3.4-3.6,6.9-7.2,10.3-10.8c-1.3,9.8-2.6,19.7-3.9,29.5c2.6-3.5,5.2-6.9,7.8-10.4c-2.2,23.4-9.2,46.4-20.5,67
				c1.7-1.4,3.4-2.8,5.1-4.1c0.8,3.3,1.7,6.6,2.5,9.9c2-3.3,4.1-6.5,6.1-9.8c0.3,2.8,0.7,5.6,1,8.4c23.8-35.1,42.5-73.7,55.2-114.2
				C106.8,223.6,106.5,212.3,107.1,200.6z"/>
		</g>
		<g id="XMLID_412_">
			<path id="XMLID_355_" class="st0" d="M118.2,376.8c-6.7,23.1-4.1,48.8,7.2,70c2.5-2.4,5.1-4.8,7.6-7.2c1.8,4,4.9,7.4,8.8,9.5
				c2.2-2.3,3.8-5.2,4.6-8.2c2.3,3.4,5.4,6.2,9,8.1c6.3-15.3,10-31.7,11-48.2C151.9,389.2,136,382.3,118.2,376.8z"/>
			<path id="XMLID_354_" class="st1" d="M108.8,330.7c-3.9,27-4.1,54.5-0.6,81.5c-0.5-4.6,0.5-9.3,2.7-13.3
				c-0.6,8.2,0.1,16.5,2,24.4c0.4-2,0.9-4,1.3-6c0.9,3.6,1.8,7.3,2.6,10.9c1-1.4,2-2.9,3-4.3c1.2,3,2.4,5.9,3.7,8.9
				c1.7-1.9,3.4-3.8,5.1-5.7c1.5,2.3,3,4.6,4.5,6.9c-0.2-2.6,1.9-5.2,4.6-5.3c2.6-0.2,5.1,2.1,5.2,4.7c1.9-3.2,5-5.7,8.6-6.8
				c1,1.7,2,3.3,3,5c2.7-2.5,5.3-5,8-7.5c0.8,2.1,1.7,4.1,2.5,6.2c4.5-12.5,9-25,13.4-37.4c1.1,3.2,2.2,6.3,3.4,9.5
				c6.7-22.7,9-46.8,6.5-70.4c-20.1-3.9-39.7-3-59.7,1.3C121.8,334.6,114.7,334.4,108.8,330.7z"/>
			<path id="XMLID_353_" class="st2" d="M188.2,331.8c-20.1-3.9-39.7-3-59.7,1.3c-6.8,1.5-13.9,1.3-19.7-2.4c-2,14.1-3,28.3-3,42.5
				c3.2,7.1,7.1,14,11.7,20.6c0.6-3.4,1.2-6.9,1.8-10.3c7.5,6.9,15,13.7,22.6,20.6c0-3.4,1.4-6.7,4-9.4c8.5,4.8,17.9,8.6,27.8,11.3
				c1.6-4.4,3.2-8.9,4.8-13.3c1,2.7,1.9,5.5,2.9,8.2c0.3,0,0.5,0.1,0.8,0.1C188.5,378.6,190.7,355,188.2,331.8z"/>
		</g>
	</g>
	<g id="XMLID_402_">
		<g id="XMLID_407_">
			<path id="XMLID_352_" class="st0" d="M404.3,291.4c7.8,22.7,6.5,48.5-3.8,70.3c-2.6-2.3-5.3-4.5-7.9-6.8
				c-1.6,4.1-4.5,7.6-8.3,9.9c-2.3-2.2-4.1-5-5-8c-2.1,3.5-5.1,6.4-8.6,8.5c-7-15-11.5-31.1-13.4-47.6
				C371.3,305.4,386.9,297.7,404.3,291.4z"/>
			<path id="XMLID_351_" class="st1" d="M316.2,124.9c30.7,31.5,58.6,65.8,83.2,102.3c-2-1.2-4-2.4-6-3.5
				c8.4,18.5,15.5,37.6,21.2,57.1c-1.3-1.7-2.6-3.5-3.8-5.2c1.8,12.6,3.7,25.2,5.5,37.8c-0.8-1.5-1.6-3-2.4-4.5
				c-0.2,5.3-0.4,10.5-0.6,15.8c-1.4-1.8-2.7-3.6-4.1-5.4c-1,4.2-2.1,8.5-3.1,12.7c-1.6-2.6-4.6-4.3-7.7-4.1
				c-1.2,3.7-2.4,7.4-3.6,11.1c-2.1-1.1-4.1-2.3-6.2-3.4c-1.1,2.8-2.1,5.6-3.2,8.4c-1.6-1.5-3.2-3.1-4.8-4.6
				c-0.7,2.6-1.5,5.3-2.2,7.9c-2.5-2-5-4-7.5-6c-0.8,3.3-1.7,6.6-2.5,9.9c-2-3.3-4.1-6.5-6.1-9.8c-0.3,2.8-0.7,5.6-1,8.4
				c-23.8-35.1-42.5-73.7-55.2-114.2c5.5-18.8,2.9-36.5,1.8-56C306.7,159.9,305.4,141.2,316.2,124.9z"/>
			<path id="XMLID_350_" class="st2" d="M309.3,200.6c7.8-3.2,16.4-4.1,24.6-2l6.4,8.9c12.5,19.4,22.4,40.4,29.5,62.4
				c-3.4-3.6-6.9-7.2-10.3-10.8c1.3,9.8,2.6,19.7,3.9,29.5c-2.6-3.5-5.2-6.9-7.8-10.4c2.2,23.4,9.2,46.4,20.5,67
				c-1.7-1.4-3.4-2.8-5.1-4.1c-0.8,3.3-1.7,6.6-2.5,9.9c-2-3.3-4.1-6.5-6.1-9.8c-0.3,2.8-0.7,5.6-1,8.4
				c-23.8-35.1-42.5-73.7-55.2-114.2C309.6,223.6,309.8,212.3,309.3,200.6z"/>
		</g>
		<g id="XMLID_403_">
			<path id="XMLID_349_" class="st0" d="M298.1,376.8c6.7,23.1,4.1,48.8-7.2,70c-2.5-2.4-5.1-4.8-7.6-7.2c-1.8,4-4.9,7.4-8.8,9.5
				c-2.2-2.3-3.8-5.2-4.6-8.2c-2.3,3.4-5.4,6.2-9,8.1c-6.3-15.3-10-31.7-11-48.2C264.5,389.2,280.4,382.3,298.1,376.8z"/>
			<path id="XMLID_348_" class="st1" d="M307.5,330.7c3.9,27,4.1,54.5,0.6,81.5c0.5-4.6-0.5-9.3-2.7-13.3c0.6,8.2-0.1,16.5-2,24.4
				c-0.4-2-0.9-4-1.3-6c-0.9,3.6-1.8,7.3-2.6,10.9c-1-1.4-2-2.9-3-4.3c-1.2,3-2.4,5.9-3.7,8.9c-1.7-1.9-3.4-3.8-5.1-5.7
				c-1.5,2.3-3,4.6-4.5,6.9c0.2-2.6-1.9-5.2-4.6-5.3c-2.6-0.2-5.1,2.1-5.2,4.7c-1.9-3.2-5-5.7-8.6-6.8c-1,1.7-2,3.3-3,5
				c-2.7-2.5-5.3-5-8-7.5c-0.8,2.1-1.7,4.1-2.5,6.2c-4.5-12.5-9-25-13.4-37.4c-1.1,3.2-2.2,6.3-3.4,9.5c-6.7-22.7-9-46.8-6.5-70.4
				c20.1-3.9,39.7-3,59.7,1.3C294.6,334.6,301.7,334.4,307.5,330.7z"/>
			<path id="XMLID_347_" class="st2" d="M228.1,331.8c20.1-3.9,39.7-3,59.7,1.3c6.8,1.5,13.9,1.3,19.7-2.4c2,14.1,3,28.3,3,42.5
				c-3.2,7.1-7.1,14-11.7,20.6c-0.6-3.4-1.2-6.9-1.8-10.3c-7.5,6.9-15,13.7-22.6,20.6c0-3.4-1.4-6.7-4-9.4
				c-8.5,4.8-17.9,8.6-27.8,11.3c-1.6-4.4-3.2-8.9-4.8-13.3c-1,2.7-1.9,5.5-2.9,8.2c-0.3,0-0.5,0.1-0.8,0.1
				C227.8,378.6,225.7,355,228.1,331.8z"/>
		</g>
	</g>
	<path id="XMLID_346_" class="st3" d="M342.9,200.8c-3.9-23.1-11.7-45.7-23.3-67.1c5.9,4.1,11.8,8.3,17.7,12.4
		c-11.3-20-25.8-39-42.9-56.2c3.6,0.8,7.2,1.6,10.7,2.5c-17.8-14.2-39.3-25.5-62.8-32.8c3.1-1.6,6.2-3.1,9.3-4.7
		c-15.9-1.5-32-1-47.7,1.5c-0.3,0.3-0.6,0.5-0.9,0.8c-0.3-0.3-0.6-0.5-0.9-0.8c-15.7-2.4-31.8-2.9-47.7-1.5c3.1,1.6,6.2,3.1,9.3,4.7
		c-23.5,7.3-45,18.5-62.8,32.8c3.6-0.8,7.2-1.6,10.7-2.5c-17.1,17.2-31.6,36.2-42.9,56.2c5.9-4.1,11.8-8.3,17.7-12.4
		c-11.5,21.4-19.4,44-23.3,67.1c2.9-3.2,5.8-6.4,8.7-9.6c-2,21.3-4.1,42.7-6.1,64c2.4-2.5,4.8-5,7.3-7.5
		c0.5,32.6,5.7,65.2,15.3,96.9c-0.6-3.8,0.5-7.7,3.1-10.9c3.4,16.2,10.3,32,20.2,46.4c0.6-3.4,1.2-6.9,1.8-10.3
		c7.5,6.9,15,13.7,22.6,20.6c0-3.4,1.4-6.7,4-9.4c11.1,6.3,23.7,10.9,37,13.5c-2-2.7-3.9-5.3-5.9-8c10.7,1.6,21.4,3.2,32.1,4.8
		c10.7-1.6,21.4-3.2,32.1-4.8c-2,2.7-3.9,5.3-5.9,8c13.2-2.7,25.8-7.3,37-13.5c2.6,2.7,4,6,4,9.4c7.5-6.9,15-13.7,22.6-20.6
		c0.6,3.4,1.2,6.9,1.8,10.3c9.9-14.4,16.8-30.1,20.2-46.4c2.6,3.2,3.7,7.1,3.1,10.9c9.6-31.7,14.7-64.2,15.3-96.9
		c2.4,2.5,4.8,5,7.3,7.5c-2-21.3-4.1-42.7-6.1-64C337,194.4,339.9,197.6,342.9,200.8z"/>
	<path id="XMLID_345_" class="st4" d="M228.1,96.4L228.1,96.4c-13.7,10-32.3,10-46.1,0l0,0l23-96.4L228.1,96.4z"/>
	<g id="XMLID_397_">
		<path id="XMLID_344_" class="st5" d="M87.9,146.4C74.4,128.3,70,103.8,76.3,82.1c1.6-5.3,4.2-11,9.3-13.1c4.8-2,10.3-0.2,15.1,1.9
			c11,5,21.2,11.9,29.8,20.4C128.2,115,110,137.8,87.9,146.4z"/>
		<path id="XMLID_343_" class="st6" d="M115,126.5c-2.3-6.6-6.3-12.7-11.7-17.2c3.1,0.2,6.1,0.5,9.2,0.7c-2.2-2.6-5-4.7-8.2-6
			c3.3-0.1,6.5-0.1,9.8-0.2c-3.1-1.9-6.3-3.8-9.4-5.7c2-1.5,4.6-2.2,7-1.8c-5-4.1-10.7-7.3-16.8-9.4c-1.8-0.6-3.9-1.2-5.7-0.5
			c-2.9,1.1-3.9,4.6-4.4,7.6c-2.7,17.2-1,35.1,5,51.4C99.4,141.5,108.1,134.8,115,126.5z"/>
	</g>
	<g id="XMLID_394_">
		<path id="XMLID_342_" class="st5" d="M314,146.4c13.5-18.1,17.9-42.6,11.6-64.3c-1.6-5.3-4.2-11-9.3-13.1
			c-4.8-2-10.3-0.2-15.1,1.9c-11,5-21.2,11.9-29.8,20.4C273.7,115,291.8,137.8,314,146.4z"/>
		<path id="XMLID_341_" class="st6" d="M286.9,126.5c2.3-6.6,6.3-12.7,11.7-17.2c-3.1,0.2-6.1,0.5-9.2,0.7c2.2-2.6,5-4.7,8.2-6
			c-3.3-0.1-6.5-0.1-9.8-0.2c3.1-1.9,6.3-3.8,9.4-5.7c-2-1.5-4.6-2.2-7-1.8c5-4.1,10.7-7.3,16.8-9.4c1.8-0.6,3.9-1.2,5.7-0.5
			c2.9,1.1,3.9,4.6,4.4,7.6c2.7,17.2,1,35.1-5,51.4C302.5,141.5,293.8,134.8,286.9,126.5z"/>
	</g>
	<path id="XMLID_340_" class="st7" d="M212.8,86.2c0,0-4.2,7.2-17.7,16.4c11.1,2.9,23.3,0.9,33-6.2L205.1,0L212.8,86.2z"/>
	<g id="XMLID_368_">
		<g id="XMLID_381_">
			<g id="XMLID_383_">
				<g id="XMLID_388_">
					<circle id="XMLID_339_" class="st8" cx="148.6" cy="183.2" r="47.2"/>
					<path id="XMLID_389_" class="st9" d="M148.6,233.1c-27.5,0-49.9-22.4-49.9-49.9c0-27.5,22.4-49.9,49.9-49.9
						s49.9,22.4,49.9,49.9C198.5,210.7,176.1,233.1,148.6,233.1z M148.6,138.7c-24.6,0-44.5,20-44.5,44.5c0,24.6,20,44.5,44.5,44.5
						c24.6,0,44.5-20,44.5-44.5C193.2,158.6,173.2,138.7,148.6,138.7z"/>
				</g>
				<circle id="XMLID_336_" class="st10" cx="148.6" cy="183.2" r="30.7"/>
				<circle id="XMLID_335_" class="st9" cx="148.6" cy="183.2" r="13.6"/>
				<circle id="XMLID_334_" class="st8" cx="135.1" cy="169.6" r="9.3"/>
				<circle id="XMLID_333_" class="st8" cx="165.1" cy="196.8" r="3.6"/>
			</g>
			<path id="XMLID_332_" class="st9" d="M198.5,183.2c0-27.5-22.4-49.9-49.9-49.9c-20,0-37.3,11.9-45.3,28.9
				c32.8-0.6,65.8,6.9,95.1,21.7C198.5,183.7,198.5,183.4,198.5,183.2z"/>
		</g>
		<g id="XMLID_369_">
			<g id="XMLID_371_">
				<g id="XMLID_376_">
					<circle id="XMLID_331_" class="st8" cx="261.5" cy="183.2" r="47.2"/>
					<path id="XMLID_377_" class="st9" d="M261.5,233.1c-27.5,0-49.9-22.4-49.9-49.9c0-27.5,22.4-49.9,49.9-49.9
						s49.9,22.4,49.9,49.9C311.4,210.7,289,233.1,261.5,233.1z M261.5,138.7c-24.6,0-44.5,20-44.5,44.5c0,24.6,20,44.5,44.5,44.5
						c24.6,0,44.5-20,44.5-44.5C306,158.6,286.1,138.7,261.5,138.7z"/>
				</g>
				<circle id="XMLID_328_" class="st10" cx="261.5" cy="183.2" r="30.7"/>
				<circle id="XMLID_327_" class="st9" cx="261.5" cy="183.2" r="13.6"/>
				<circle id="XMLID_326_" class="st8" cx="247.9" cy="169.6" r="9.3"/>
				<circle id="XMLID_325_" class="st8" cx="278" cy="196.8" r="3.6"/>
			</g>
			<path id="XMLID_324_" class="st9" d="M211.7,183.2c0-27.5,22.4-49.9,49.9-49.9c20,0,37.3,11.9,45.3,28.9
				c-32.8-0.6-65.8,6.9-95.1,21.7C211.7,183.7,211.7,183.4,211.7,183.2z"/>
		</g>
	</g>
	<g id="XMLID_362_">
		<path id="XMLID_323_" class="st11" d="M308.3,239.6c8.5,6.6,8.2,27.2-9.5,48.4c-17,20.8-51.5,42.1-93.7,41.3
			c-42.2,0.7-76.7-20.5-93.7-41.3c-17.8-21.2-18-41.8-9.5-48.4c19.4-12.4,61.2,8,103.2,5.5C247.1,247.6,288.9,227.2,308.3,239.6z"/>
		<path id="XMLID_322_" class="st9" d="M205.1,261.7c-22.1,0.5-47.4,9.8-57.7,30.8c-3.1,7.5-2.9,15.9,1.2,24.2
			c16.1,7.8,35.7,12.7,56.5,12.7c20.8,0,40.4-4.9,56.5-12.7c4.1-8.2,4.3-16.6,1.2-24.2C252.5,271.5,227.2,262.2,205.1,261.7z"/>
		<path id="XMLID_321_" class="st12" d="M164.5,242.1c-5.9-0.8-11.6-1.8-17.1-2.8c-0.3,7.3,0.1,14.8,1.2,22.4
			C154.3,255.4,159.6,248.8,164.5,242.1z"/>
		<path id="XMLID_320_" class="st12" d="M262.8,239.3c-5.5,1-11.2,1.9-17.1,2.8c4.9,6.8,10.2,13.3,15.9,19.6
			C262.6,254.1,263,246.6,262.8,239.3z"/>
		<path id="XMLID_319_" class="st13" d="M205.1,282.5c-32.1-0.4-61,6-84.4,15.3c18.8,17.2,48.9,32.2,84.4,31.6
			c35.5,0.6,65.6-14.4,84.4-31.6C266.1,288.4,237.2,282.1,205.1,282.5z"/>
	</g>
</g>
</svg>
