<?xml version="1.0" encoding="utf-8"?>
<!-- Generator: Adobe Illustrator 19.0.0, SVG Export Plug-In . SVG Version: 6.00 Build 0)  -->
<svg version="1.1" id="Camada_1" xmlns="http://www.w3.org/2000/svg" xmlns:xlink="http://www.w3.org/1999/xlink" x="0px" y="0px"
	 viewBox="0 0 612 792" style="enable-background:new 0 0 612 792;" xml:space="preserve">
<style type="text/css">
	.st0{opacity:0.3;fill:#A3CBCC;}
	.st1{fill:#3C3835;stroke:#3C3835;stroke-width:3;stroke-miterlimit:10;}
	.st2{fill:#A3CBCC;stroke:#A3CBCC;stroke-width:3;stroke-miterlimit:10;}
	.st3{fill:#3C3835;stroke:#3C3835;stroke-width:2;stroke-miterlimit:10;}
</style>
<g>
	<g>
		<path class="st0" d="M610.5,284.5c0-5.1-4.1-9.5-9.2-9.5h-66c-5.1,0-9.2,4.4-9.2,9.5s4.1,9.5,9.2,9.5h11.3c5.1,0,9.2,3.9,9.2,9
			c0,5.1-4.1,9-9.2,9h-17.8c-5.1,0-9.2,4.4-9.2,9.5s4.1,9.5,9.2,9.5h-0.4c5.1,0,9.2,3.9,9.2,9c0,5.1-4.1,9-9.2,9h-25.8
			c-5.1,0-9.2,4.4-9.2,9.5s4.1,9.5,9.2,9.5h98.7c5.1,0,9.2-4.4,9.2-9.5s-4.1-9.5-9.2-9.5h2.1c-5.1,0-9.2-3.9-9.2-9
			c0-5.1,4.1-9,9.2-9h-2.1c5.1,0,9.2-4.4,9.2-9.5s-4.1-9.5-9.2-9.5h0.7c-5.1,0-9.2-3.9-9.2-9c0-5.1,4.1-9,9.2-9h-0.7
			C606.4,294,610.5,289.6,610.5,284.5z"/>
		<path class="st0" d="M111.7,305c0-6.1-5-11-11.1-11h0.9c-6.1,0-11.1-4.9-11.1-11s5-11,11.1-11h-0.9c6.1,0,11.1-5.4,11.1-11.5
			c0-6.1-5-11.5-11.1-11.5H13.5c-6.1,0-11.1,5.4-11.1,11.5c0,6.1,5,11.5,11.1,11.5h21.4c6.1,0,11.1,4.9,11.1,11s-5,11-11.1,11H13.5
			c-6.1,0-11.1,4.9-11.1,11s5,11,11.1,11H13c6.1,0,11.1,4.4,11.1,10.5S19.2,337,13,337h0.5c-6.1,0-11.1,5.4-11.1,11.5
			s5,11.5,11.1,11.5h87.1c6.1,0,11.1-5.4,11.1-11.5s-5-11.5-11.1-11.5h2.5c-6.1,0-11.1-4.4-11.1-10.5s5-10.5,11.1-10.5h-2.5
			C106.8,316,111.7,311.1,111.7,305z"/>
		<path class="st0" d="M85,462c0,6.6-5.4,12-12,12H47c-6.6,0-12-5.4-12-12V462c0-6.6,5.4-12,12-12H73C79.6,450,85,455.4,85,462
			L85,462z"/>
		<path class="st0" d="M389,239c0,6.6-5.4,12-12,12H351c-6.6,0-12-5.4-12-12V239c0-6.6,5.4-12,12-12H377
			C383.6,227,389,232.4,389,239L389,239z"/>
		<path class="st0" d="M63,511c0,6.6-5.4,12-12,12H25c-6.6,0-12-5.4-12-12V511c0-6.6,5.4-12,12-12H51C57.6,499,63,504.4,63,511
			L63,511z"/>
		<path class="st0" d="M419,274c0,6.6-5.4,12-12,12H381c-6.6,0-12-5.4-12-12V274c0-6.6,5.4-12,12-12H407
			C413.6,262,419,267.4,419,274L419,274z"/>
		<path class="st0" d="M353.4,525.5c0,5.1,4.1,9.5,9.2,9.5h66c5.1,0,9.2-4.4,9.2-9.5s-4.1-9.5-9.2-9.5h-11.3c-5.1,0-9.2-3.9-9.2-9
			c0-5.1,4.1-9,9.2-9h17.8c5.1,0,9.2-4.4,9.2-9.5s-4.1-9.5-9.2-9.5h0.4c-5.1,0-9.2-3.9-9.2-9c0-5.1,4.1-9,9.2-9h25.8
			c5.1,0,9.2-4.4,9.2-9.5s-4.1-9.5-9.2-9.5h-98.7c-5.1,0-9.2,4.4-9.2,9.5s4.1,9.5,9.2,9.5h-2.1c5.1,0,9.2,3.9,9.2,9
			c0,5.1-4.1,9-9.2,9h2.1c-5.1,0-9.2,4.4-9.2,9.5s4.1,9.5,9.2,9.5h-0.7c5.1,0,9.2,3.9,9.2,9c0,5.1-4.1,9-9.2,9h0.7
			C357.5,516,353.4,520.4,353.4,525.5z"/>
	</g>
	<g>
		<g>
			<line class="st1" x1="53.5" y1="390" x2="53.5" y2="397"/>
			<line class="st1" x1="53.5" y1="411" x2="53.5" y2="404"/>
		</g>
		<g>
			<line class="st1" x1="64" y1="400.5" x2="57" y2="400.5"/>
			<line class="st1" x1="43" y1="400.5" x2="50" y2="400.5"/>
		</g>
	</g>
	<g>
		<g>
			<line class="st1" x1="291.5" y1="288" x2="291.5" y2="295"/>
			<line class="st1" x1="291.5" y1="309" x2="291.5" y2="302"/>
		</g>
		<g>
			<line class="st1" x1="302" y1="298.5" x2="295" y2="298.5"/>
			<line class="st1" x1="281" y1="298.5" x2="288" y2="298.5"/>
		</g>
	</g>
	<g>
		<g>
			<line class="st1" x1="371.5" y1="397" x2="371.5" y2="404"/>
			<line class="st1" x1="371.5" y1="418" x2="371.5" y2="411"/>
		</g>
		<g>
			<line class="st1" x1="382" y1="407.5" x2="375" y2="407.5"/>
			<line class="st1" x1="361" y1="407.5" x2="368" y2="407.5"/>
		</g>
	</g>
	<g>
		<g>
			<line class="st1" x1="98.5" y1="533" x2="98.5" y2="540"/>
			<line class="st1" x1="98.5" y1="554" x2="98.5" y2="547"/>
		</g>
		<g>
			<line class="st1" x1="109" y1="543.5" x2="102" y2="543.5"/>
			<line class="st1" x1="88" y1="543.5" x2="95" y2="543.5"/>
		</g>
	</g>
	<g>
		<g>
			<line class="st2" x1="10" y1="557.5" x2="32" y2="557.5"/>
			<line class="st2" x1="35" y1="557.5" x2="46" y2="557.5"/>
		</g>
		<line class="st2" x1="21" y1="563.5" x2="43" y2="563.5"/>
	</g>
	<g>
		<g>
			<line class="st2" x1="370" y1="322.5" x2="392" y2="322.5"/>
			<line class="st2" x1="395" y1="322.5" x2="406" y2="322.5"/>
		</g>
		<line class="st2" x1="381" y1="328.5" x2="403" y2="328.5"/>
	</g>
	<g>
		<g>
			<line class="st2" x1="357" y1="560.5" x2="379" y2="560.5"/>
			<line class="st2" x1="382" y1="560.5" x2="393" y2="560.5"/>
		</g>
		<line class="st2" x1="368" y1="566.5" x2="390" y2="566.5"/>
	</g>
	<g>
		<g>
			<line class="st2" x1="28" y1="224.5" x2="50" y2="224.5"/>
			<line class="st2" x1="53" y1="224.5" x2="64" y2="224.5"/>
		</g>
		<line class="st2" x1="39" y1="230.5" x2="61" y2="230.5"/>
	</g>
	<g>
		<g>
			<line class="st2" x1="200" y1="247.5" x2="222" y2="247.5"/>
			<line class="st2" x1="225" y1="247.5" x2="236" y2="247.5"/>
		</g>
		<line class="st2" x1="211" y1="253.5" x2="233" y2="253.5"/>
	</g>
</g>
<g id="XMLID_2_">
	<g id="XMLID_56_">
		<path id="XMLID_63_" class="st0" d="M745.5-53.5c0-5.1-4.1-9.5-9.2-9.5h-66c-5.1,0-9.2,4.4-9.2,9.5s4.1,9.5,9.2,9.5h11.3
			c5.1,0,9.2,3.9,9.2,9c0,5.1-4.1,9-9.2,9h-17.8c-5.1,0-9.2,4.4-9.2,9.5s4.1,9.5,9.2,9.5h-0.4c5.1,0,9.2,3.9,9.2,9
			c0,5.1-4.1,9-9.2,9h-25.8c-5.1,0-9.2,4.4-9.2,9.5s4.1,9.5,9.2,9.5h98.7c5.1,0,9.2-4.4,9.2-9.5s-4.1-9.5-9.2-9.5h2.1
			c-5.1,0-9.2-3.9-9.2-9c0-5.1,4.1-9,9.2-9h-2.1c5.1,0,9.2-4.4,9.2-9.5s-4.1-9.5-9.2-9.5h0.7c-5.1,0-9.2-3.9-9.2-9
			c0-5.1,4.1-9,9.2-9h-0.7C741.4-44,745.5-48.4,745.5-53.5z"/>
		<path id="XMLID_62_" class="st0" d="M246.7-33c0-6.1-5-11-11.1-11h0.9c-6.1,0-11.1-4.9-11.1-11s5-11,11.1-11h-0.9
			c6.1,0,11.1-5.4,11.1-11.5s-5-11.5-11.1-11.5h-87.1c-6.1,0-11.1,5.4-11.1,11.5s5,11.5,11.1,11.5h21.4c6.1,0,11.1,4.9,11.1,11
			s-5,11-11.1,11h-21.4c-6.1,0-11.1,4.9-11.1,11s5,11,11.1,11H148c6.1,0,11.1,4.4,11.1,10.5S154.2-1,148-1h0.5
			c-6.1,0-11.1,5.4-11.1,11.5s5,11.5,11.1,11.5h87.1c6.1,0,11.1-5.4,11.1-11.5S241.8-1,235.6-1h2.5c-6.1,0-11.1-4.4-11.1-10.5
			s5-10.5,11.1-10.5h-2.5C241.8-22,246.7-26.9,246.7-33z"/>
		<path id="XMLID_61_" class="st0" d="M220,124c0,6.6-5.4,12-12,12H182c-6.6,0-12-5.4-12-12V124c0-6.6,5.4-12,12-12H208
			C214.6,112,220,117.4,220,124L220,124z"/>
		<path id="XMLID_60_" class="st0" d="M524-99c0,6.6-5.4,12-12,12H486c-6.6,0-12-5.4-12-12V-99c0-6.6,5.4-12,12-12H512
			C518.6-111,524-105.6,524-99L524-99z"/>
		<path id="XMLID_59_" class="st0" d="M198,173c0,6.6-5.4,12-12,12H160c-6.6,0-12-5.4-12-12V173c0-6.6,5.4-12,12-12H186
			C192.6,161,198,166.4,198,173L198,173z"/>
		<path id="XMLID_58_" class="st0" d="M554-64c0,6.6-5.4,12-12,12H516c-6.6,0-12-5.4-12-12V-64c0-6.6,5.4-12,12-12H542
			C548.6-76,554-70.6,554-64L554-64z"/>
		<path id="XMLID_57_" class="st0" d="M489,123c0,0-6.6-4.4-6.6-9.5s4.1-9.5,9.2-9.5h98.7c5.1,0,9.2,4.4,9.2,9.5s-4.1,9.5-9.2,9.5
			H565H489z"/>
	</g>
	<g id="XMLID_42_">
		<g id="XMLID_46_">
			<line id="XMLID_48_" class="st1" x1="426.5" y1="-50" x2="426.5" y2="-43"/>
			<line id="XMLID_47_" class="st1" x1="426.5" y1="-29" x2="426.5" y2="-36"/>
		</g>
		<g id="XMLID_43_">
			<line id="XMLID_45_" class="st1" x1="437" y1="-39.5" x2="430" y2="-39.5"/>
			<line id="XMLID_44_" class="st1" x1="416" y1="-39.5" x2="423" y2="-39.5"/>
		</g>
	</g>
	<g id="XMLID_35_">
		<g id="XMLID_39_">
			<line id="XMLID_41_" class="st3" x1="507" y1="59" x2="507" y2="66"/>
			<line id="XMLID_40_" class="st3" x1="507" y1="80" x2="507" y2="73"/>
		</g>
		<g id="XMLID_36_">
			<line id="XMLID_38_" class="st1" x1="517" y1="69.5" x2="510" y2="69.5"/>
			<line id="XMLID_37_" class="st1" x1="496" y1="69.5" x2="503" y2="69.5"/>
		</g>
	</g>
	<g id="XMLID_28_">
		<g id="XMLID_32_">
			<line id="XMLID_34_" class="st1" x1="233.5" y1="202" x2="233.5" y2="204"/>
			<line id="XMLID_33_" class="st1" x1="233.5" y1="209" x2="233.5" y2="207"/>
		</g>
		<g id="XMLID_29_">
			<line id="XMLID_31_" class="st1" x1="237" y1="205.5" x2="235" y2="205.5"/>
			<line id="XMLID_30_" class="st1" x1="230" y1="205.5" x2="232" y2="205.5"/>
		</g>
	</g>
	<g id="XMLID_23_">
		<g id="XMLID_25_">
			<line id="XMLID_27_" class="st2" x1="145" y1="219.5" x2="167" y2="219.5"/>
			<line id="XMLID_26_" class="st2" x1="170" y1="219.5" x2="181" y2="219.5"/>
		</g>
		<line id="XMLID_24_" class="st2" x1="156" y1="225.5" x2="178" y2="225.5"/>
	</g>
	<g id="XMLID_18_">
		<g id="XMLID_20_">
			<line id="XMLID_22_" class="st2" x1="505" y1="-15.5" x2="527" y2="-15.5"/>
			<line id="XMLID_21_" class="st2" x1="530" y1="-15.5" x2="541" y2="-15.5"/>
		</g>
		<line id="XMLID_19_" class="st2" x1="516" y1="-9.5" x2="538" y2="-9.5"/>
	</g>
	<g id="XMLID_13_">
		<g id="XMLID_15_">
			<line id="XMLID_17_" class="st2" x1="492" y1="222.5" x2="514" y2="222.5"/>
			<line id="XMLID_16_" class="st2" x1="517" y1="222.5" x2="528" y2="222.5"/>
		</g>
		<line id="XMLID_14_" class="st2" x1="503" y1="228.5" x2="525" y2="228.5"/>
	</g>
	<g id="XMLID_8_">
		<g id="XMLID_10_">
			<line id="XMLID_12_" class="st2" x1="163" y1="-113.5" x2="185" y2="-113.5"/>
			<line id="XMLID_11_" class="st2" x1="188" y1="-113.5" x2="199" y2="-113.5"/>
		</g>
		<line id="XMLID_9_" class="st2" x1="174" y1="-107.5" x2="196" y2="-107.5"/>
	</g>
	<g id="XMLID_3_">
		<g id="XMLID_5_">
			<line id="XMLID_7_" class="st2" x1="335" y1="-90.5" x2="357" y2="-90.5"/>
			<line id="XMLID_6_" class="st2" x1="360" y1="-90.5" x2="371" y2="-90.5"/>
		</g>
		<line id="XMLID_4_" class="st2" x1="346" y1="-84.5" x2="368" y2="-84.5"/>
	</g>
</g>
</svg>
