<?xml version="1.0" encoding="utf-8"?>
<!-- Generator: Adobe Illustrator 19.0.0, SVG Export Plug-In . SVG Version: 6.00 Build 0)  -->
<svg version="1.1" id="Camada_1" xmlns="http://www.w3.org/2000/svg" xmlns:xlink="http://www.w3.org/1999/xlink" x="0px" y="0px"
	 viewBox="0 0 200 200" style="enable-background:new 0 0 200 200;" xml:space="preserve">
<style type="text/css">
	.st0{fill:none;stroke:#FFFFFF;stroke-width:4;stroke-miterlimit:10;}
	.st1{fill:none;stroke:#FFFFFF;stroke-width:4;stroke-linecap:round;stroke-miterlimit:10;}
</style>
<g id="XMLID_245_">
	<g id="XMLID_373_">
		<circle id="XMLID_374_" class="st0" cx="99.7" cy="99.3" r="68.8"/>
	</g>
	<g id="XMLID_89_">
		<path id="XMLID_91_" class="st0" d="M68.4,105.6L68.4,105.6c-2.8,0-5-2.3-5-5v-12c0-2.8,2.3-5,5-5l0,0c2.8,0,5,2.3,5,5v12
			C73.4,103.3,71.1,105.6,68.4,105.6z"/>
		<path id="XMLID_90_" class="st0" d="M131.1,105.6L131.1,105.6c-2.8,0-5-2.3-5-5v-12c0-2.8,2.3-5,5-5l0,0c2.8,0,5,2.3,5,5v12
			C136.1,103.3,133.8,105.6,131.1,105.6z"/>
	</g>
	<g id="XMLID_84_">
		<path id="XMLID_101_" class="st1" d="M60.6,62.1c0,0,9.9,4.1,13.4-4.8"/>
		<path id="XMLID_102_" class="st1" d="M125.6,58.2c8.4-4.4,13.1,5.1,13.1,5.1"/>
	</g>
	<path id="XMLID_103_" class="st1" d="M59.7,124c0,0,8.3,9.5,38.3,0c32.5-10.3,40.5,0,40.5,0"/>
</g>
</svg>
