<?xml version="1.0" encoding="utf-8"?>
<!-- Generator: Adobe Illustrator 19.0.0, SVG Export Plug-In . SVG Version: 6.00 Build 0)  -->
<svg version="1.1" id="Camada_1" xmlns="http://www.w3.org/2000/svg" xmlns:xlink="http://www.w3.org/1999/xlink" x="0px" y="0px"
	 viewBox="0 0 50 50" style="enable-background:new 0 0 50 50;" xml:space="preserve">
<style type="text/css">
	.st0{fill:#FFFFFF;}
</style>
<path id="XMLID_6_" class="st0" d="M48.7,27.3l-4-4.5c0,0,0,0,0,0L25.7,1.3c-0.4-0.4-1.1-0.4-1.5,0L5.3,22.7c0,0,0,0,0,0l-4,4.5
	c-0.4,0.4-0.3,1,0.1,1.4c0.4,0.4,1,0.3,1.4-0.1L5,26.1V47c0,1.1,0.9,2,2,2h9c1.1,0,2-0.9,2-2V32h13v15c0,1.1,0.9,2,2,2h10
	c1.1,0,2-0.9,2-2V26.1l2.3,2.5c0.2,0.2,0.5,0.3,0.7,0.3c0.2,0,0.5-0.1,0.7-0.3C49.1,28.4,49.1,27.8,48.7,27.3z M43,47H33V32
	c0-1.1-0.9-2-2-2H18c-1.1,0-2,0.9-2,2v15H7V23.9L25,3.5l18,20.3V47z"/>
</svg>
