<?xml version="1.0" encoding="utf-8"?>
<!-- Generator: Adobe Illustrator 19.0.0, SVG Export Plug-In . SVG Version: 6.00 Build 0)  -->
<svg version="1.1" id="Camada_1" xmlns="http://www.w3.org/2000/svg" xmlns:xlink="http://www.w3.org/1999/xlink" x="0px" y="0px"
	 viewBox="0 0 100 100" style="enable-background:new 0 0 100 100;" xml:space="preserve">
<style type="text/css">
	.st0{fill-rule:evenodd;clip-rule:evenodd;fill:#737270;}
	.st1{fill-rule:evenodd;clip-rule:evenodd;fill:#69B3DC;}
	.st2{fill-rule:evenodd;clip-rule:evenodd;fill:#FFFFFF;}
</style>
<path id="XMLID_6_" class="st0" d="M73.7,24.4L73.7,24.4c1.5,0,3,0,4.7,0c2,0.1,3.3,1.4,3.3,3.3c0.1,3.2,0,6.5,0.1,9.6
	c0,0.8-0.4,1-1.1,1c-3.2,0-6.3,0-9.5,0c-0.8,0-1-0.3-1.3-0.9c-2.1-4.8-5.8-7.3-11.1-7.3c-5.2-0.1-9,2.5-11.1,7.3
	c-0.3,0.8-0.6,0.9-1.4,0.9c-3,0-6.2,0-9.4,0c-0.9,0-1.1-0.4-1.1-1.1c0.1-3,0-6.2,0.1-9.2c0-2.2,1.3-3.5,3.4-3.5c3,0,6.1-0.1,9.1,0
	c1.3,0.1,1.6-0.4,1.5-1.5c-0.1-0.9,0-1.8,0-2.8c0.1-1.9,1.4-3.2,3.3-3.2c3.8-0.1,7.5-0.1,11.1,0c2,0,3.2,1.3,3.3,3.3
	c0.1,1.4-0.6,3.2,0.4,3.9c0.9,0.6,2.7,0.3,3.9,0.3C72.6,24.4,73.1,24.4,73.7,24.4L73.7,24.4z"/>
<path id="XMLID_5_" class="st0" d="M58.8,59.3L58.8,59.3c-6.3,0-12.7,0-18.9,0c-2.9,0-4.1-1.1-4.1-4.1c-0.1-3.8,0-7.7-0.1-11.7
	c0-1.1,0.4-1.4,1.5-1.4c2.7,0,5.3,0,8,0c1.1,0,1.4,0.1,1.6,1.3c0.6,6.2,5.8,10.9,11.9,10.9c6.2,0,11.4-4.7,12-10.9
	c0.1-1,0.3-1.3,1.1-1.3c2.9,0,5.8,0,8.7,0c0.8,0,1.1,0.3,1.1,1c-0.1,4.3,0,8.5-0.1,12.7c0,2.2-1.3,3.4-3.5,3.4
	C71.7,59.3,65.1,59.3,58.8,59.3L58.8,59.3z"/>
<polygon id="XMLID_4_" class="st1" points="57.4,47.8 57.4,47.8 57.4,43.6 53.1,43.6 53.1,40.7 57.4,40.7 57.4,36.5 60.2,36.5 
	60.2,40.7 64.5,40.7 64.5,43.6 60.2,43.6 60.2,47.8 "/>
<path id="XMLID_3_" class="st0" d="M97.7,63.6L97.7,63.6c-0.5-1.4-2.8-2.1-5.3-2c-0.6,0.1-1.4,0.3-2,0.5c-3.2,1-19.2,6.5-19.4,6.6
	h-0.4l0.3,0.3c1.8,1.5,2.8,3.2,2.3,4.6c-0.5,1.9-3.2,3-7.5,3.4c-3.8,0.4-8.6,0-14.2-1.1c0.5,0,1.3,0,1.9,0.1c4.1,0,7.9,0,10.9-0.3
	c4.6-0.4,6.8-1.4,7.1-3c0.1-1.3-0.5-2.2-2.2-2.9c-1.6-0.9-5.3-1.4-8.7-2c-2.4-0.3-4.7-0.6-6.3-1c-5.6-1.5-11.3-2.9-17.8-2.4
	c-1,0.1-2.2,0.3-3,0.4c-5.2,0.9-10.1,2.2-15.3,3.7h-0.6L25,79.5c1.3-0.3,2.8-0.6,4.2-0.6c1.8-0.3,3.5-0.1,5.2,0
	c2,0.4,7.5,1.5,12.5,2.5c5.3,1.1,10.4,2,12.2,2.4c1.3,0.1,2.3,0.1,3.4,0c2.5-0.1,5.2-1.5,7.7-2.9c0.8-0.5,1.5-0.9,2.3-1.3l22.9-12.4
	C97.9,65.7,97.9,64.4,97.7,63.6L97.7,63.6z"/>
<path id="XMLID_2_" class="st1" d="M3.2,64.9L3.2,64.9h10.1c0.5,0,1.1,0.4,1.4,0.9l9.7,13.9c0.4,0.5,0.3,0.9-0.1,0.9H14
	c-0.4,0-1-0.4-1.4-0.9L3,65.8C2.6,65.3,2.7,64.9,3.2,64.9L3.2,64.9z"/>
<path id="XMLID_1_" class="st2" d="M58.5,23.1c1.5,0,2.9,0,4.6,0.1c0.8,0,1-0.3,1-1.1c0-0.4,0-0.8,0-1.1c0.1-1.1-0.3-1.6-1.5-1.6
	c-2.7,0.1-5.3,0-8,0c-1,0-1.6,0.3-1.5,1.4c0,0.4,0,0.9,0,1.4c-0.1,0.9,0.3,1.1,1.1,1.1C55.6,23.1,57,23.1,58.5,23.1L58.5,23.1z"/>
</svg>
