<?xml version="1.0" encoding="utf-8"?>
<!-- Generator: Adobe Illustrator 19.0.0, SVG Export Plug-In . SVG Version: 6.00 Build 0)  -->
<svg version="1.1" id="Camada_1" xmlns="http://www.w3.org/2000/svg" xmlns:xlink="http://www.w3.org/1999/xlink" x="0px" y="0px"
	 viewBox="0 0 100 100" style="enable-background:new 0 0 100 100;" xml:space="preserve">
<style type="text/css">
	.st0{fill-rule:evenodd;clip-rule:evenodd;fill:#FFFFFF;}
	.st1{fill-rule:evenodd;clip-rule:evenodd;fill:#BCDAE2;}
</style>
<path id="XMLID_3_" class="st0" d="M50,91.5L50,91.5c-12,0-24.1,0-36.1,0c-5.5,0-7.8-2.3-7.8-7.8C6,76.2,6.1,68.8,6,61.3
	c-0.1-2.2,0.7-2.7,2.8-2.7c5.1,0.2,10.2,0.1,15.4,0c2,0,2.7,0.4,2.9,2.7C28.5,73,38.5,81.7,50.1,81.7c11.9,0.1,21.7-8.9,23-20.8
	c0.1-1.6,0.5-2.4,2.4-2.4c5.5,0.1,11.1,0.1,16.6,0c1.6,0,2.2,0.5,2.2,2.1c-0.2,8.1,0,16.1-0.1,24.2c-0.1,4-2.7,6.5-6.9,6.5
	C74.8,91.5,62.4,91.5,50,91.5L50,91.5z"/>
<polygon id="XMLID_2_" class="st1" points="47.4,67.7 47.4,67.7 47.4,59.7 39.3,59.7 39.3,54.2 47.4,54.2 47.4,46.2 52.8,46.2 
	52.8,54.2 60.9,54.2 60.9,59.7 52.8,59.7 52.8,67.7 "/>
<path id="XMLID_8_" class="st0" d="M94.2,48.5c-0.1-6.1,0.1-12.2-0.1-18.3c0-3.8-2.6-6.2-6.3-6.3c-3.1-0.1-6-0.1-9.1-0.1
	c-1.1,0-2.1,0-3.2,0c-2.6,0-5.9,0.8-7.6-0.5c-1.9-1.3-0.5-4.8-0.7-7.4c-0.2-3.9-2.5-6.4-6.5-6.5c-7.1-0.1-14.1-0.1-21.2,0
	c-3.8,0.1-6.1,2.5-6.4,6.2c-0.1,1.8-0.1,3.5,0,5.3c0.2,2.1-0.5,3.1-2.8,2.9c-5.9-0.2-11.8-0.1-17.5,0c-4.1,0-6.7,2.6-6.7,6.7
	c-0.1,6,0,11.9-0.1,17.8c0,1.5,0.4,2.2,2.1,2.2c6-0.1,12,0,18.1,0c1.3,0,2-0.4,2.6-1.6c4.1-9.3,11.3-14.3,21.3-14.3
	c10.1,0,17.3,5.1,21.4,14.3c0.6,1.2,1.1,1.6,2.3,1.6c6.1-0.1,12.2,0,18.3,0C93.7,50.5,94.3,50,94.2,48.5z M58.5,21.6
	c-2.9-0.1-5.8-0.1-8.7-0.1c-2.7,0-5.4,0-8.1,0.1c-1.6,0-2.3-0.5-2.2-2.1c0.1-0.9,0.1-1.8,0-2.7c-0.1-2,0.8-2.7,2.8-2.6
	c5.1,0,10.2,0.1,15.4,0c2.3-0.1,3.1,0.8,2.9,3.1c-0.1,0.8-0.1,1.5,0,2.4C60.7,21.2,60,21.6,58.5,21.6z"/>
</svg>
