<?xml version="1.0" encoding="utf-8"?>
<!-- Generator: Adobe Illustrator 19.0.0, SVG Export Plug-In . SVG Version: 6.00 Build 0)  -->
<svg version="1.1" id="Camada_1" xmlns="http://www.w3.org/2000/svg" xmlns:xlink="http://www.w3.org/1999/xlink" x="0px" y="0px"
	 viewBox="0 0 100 100" style="enable-background:new 0 0 100 100;" xml:space="preserve">
<style type="text/css">
	.st0{fill:#75AA22;}
	.st1{fill:#6BC7D1;}
	.st2{fill:#628C19;}
	.st3{fill:#FF4C29;}
	.st4{fill:#BA2B20;}
	.st5{fill:#FFC631;}
</style>
<g id="XMLID_2_">
	<path id="XMLID_14_" class="st0" d="M86.8,93H11.3l14.6-33.4h46.3C72.2,59.6,75.4,67,86.8,93z"/>
	<path id="XMLID_13_" class="st1" d="M40,59.6h-4.2c-3.3,16.7-5.4,29.1,17.1,25.8c12.7-1.8,20.4-5,30.5-0.3l-4.6-10.5
		C62.2,71.2,32.4,95.1,40,59.6z"/>
	<path id="XMLID_12_" class="st2" d="M57.2,93H11.3l14.6-33.4h1.8c1.5,4.8,0.5,7.2-2.6,13.2c-1.9,3.7-3.5,8.2-1.5,11.8
		c4.6,8.5,20,2.2,29.9,6C54.8,91.2,56.1,92,57.2,93z"/>
	<path id="XMLID_11_" class="st2" d="M58.7,61c-3.7,3.1,3.4,14.6-8.8,12.2c-12.2-2.5-3.8-10.4-6-13.5h18.9
		C61.4,60.1,59.8,60.1,58.7,61z"/>
	<path id="XMLID_8_" class="st3" d="M49.1,4C36.3,4,25.9,14.4,25.9,27.1c0,18.9,23.1,42.8,23.1,42.8S72.2,46,72.2,27.1
		C72.2,14.4,61.8,4,49.1,4z M49.1,46.1c-10.3,0-18.6-8.3-18.6-18.6c0-10.3,8.3-18.6,18.6-18.6c10.3,0,18.6,8.3,18.6,18.6
		C67.7,37.8,59.3,46.1,49.1,46.1z"/>
	<path id="XMLID_5_" class="st4" d="M49.1,8.8c-10.3,0-18.6,8.3-18.6,18.6c0,10.3,8.3,18.6,18.6,18.6c10.3,0,18.6-8.3,18.6-18.6
		C67.7,17.2,59.3,8.8,49.1,8.8z M49.1,43.7c-9,0-16.3-7.3-16.3-16.3c0-9,7.3-16.3,16.3-16.3c9,0,16.3,7.3,16.3,16.3
		C65.3,36.4,58,43.7,49.1,43.7z"/>
	<circle id="XMLID_4_" class="st5" cx="49.1" cy="27.5" r="13.2"/>
	<path id="XMLID_3_" class="st2" d="M75.2,66.4c-1,0-2.8,0.1-3.6,0.6c0,0-6.4,5.1-6.4,5.1c-5.6,4.8-5.9,1.2-4.3-1.4
		c3.2-4.9,4.2-3.6,6.5-5.6c1.7-1.5,1.8-3.5,5.7-3.7L75.2,66.4z"/>
</g>
</svg>
