<?xml version="1.0" encoding="utf-8"?>
<!-- Generator: Adobe Illustrator 19.0.0, SVG Export Plug-In . SVG Version: 6.00 Build 0)  -->
<svg version="1.1" id="Camada_1" xmlns="http://www.w3.org/2000/svg" xmlns:xlink="http://www.w3.org/1999/xlink" x="0px" y="0px"
	 viewBox="0 0 335 50" style="enable-background:new 0 0 335 50;" xml:space="preserve">
<style type="text/css">
	.st0{fill:#616C73;}
</style>
<polygon id="XMLID_4_" class="st0" points="348.5,11.5 337,0 332,5 327,0 322,5 317,0 312,5 307,0 302,5 297,0 292,5 287,0 282,5 
	277,0 272,5 267,0 262,5 257,0 252,5 247,0 242,5 237,0 232,5 227,0 222,5 217,0 212,5 207,0 202,5 197,0 192,5 187,0 182,5 177,0 
	172,5 167,0 162,5 157,0 152,5 147,0 142,5 137,0 132,5 127,0 122,5 117,0 112,5 107,0 102,5 97,0 92,5 87,0 82,5 77,0 72,5 67,0 
	62,5 57,0 52,5 47,0 42,5 37,0 32,5 27,0 22,5 17,0 12,5 7,0 2,5 -3,0 -8,5 -13,0 -23.3,10.2 -1.8,10.3 -1.8,57.2 336.8,57.2 
	336.8,11.5 "/>
</svg>
