<?xml version="1.0" encoding="utf-8"?>
<!-- Generator: Adobe Illustrator 19.0.0, SVG Export Plug-In . SVG Version: 6.00 Build 0)  -->
<svg version="1.1" id="Camada_1" xmlns="http://www.w3.org/2000/svg" xmlns:xlink="http://www.w3.org/1999/xlink" x="0px" y="0px"
	 viewBox="-174 76 50 50" style="enable-background:new -174 76 50 50;" xml:space="preserve">
<style type="text/css">
	.st0{fill:#727270;}
	.st1{fill:#4BC1EF;}
	.st2{fill:#67CDFD;}
	.st3{fill:#FFFFFF;}
</style>
<path class="st0" d="M-148.4,124.4l-0.5-1c-0.2-0.2-8.8-15.5-11.2-19.9c-1.6-2.9-3.3-7.5-3.3-11.2c0-8.3,6.8-15.1,15-15.1
	c8.3,0,15.1,6.8,15.1,15.1c0,3.6-1.6,8.5-3.3,11.2c-2.8,4.9-11.1,19.8-11.2,19.9L-148.4,124.4z M-148.4,80L-148.4,80
	c-6.8,0-12.3,5.5-12.3,12.3c0,3,1.6,7.1,3,9.9c1.7,3.2,6.6,11.7,9.3,16.6c2.7-4.7,7.5-13.2,9.5-16.7c1.4-2.4,2.8-6.8,2.8-9.8
	c0-3.3-1.2-6.4-3.6-8.7C-142.1,81.2-145.2,80-148.4,80L-148.4,80z"/>
<path class="st1" d="M-148.4,82.2c2.9,0,5.4,1.2,7.2,3c1.9,1.8,3,4.3,3,7.2c0,2.8-1.2,5.3-3,7.2l0,0c-1.8,1.8-4.4,2.9-7.2,2.9
	c-2.8,0-5.3-1.2-7.2-2.9c-1.8-1.9-2.9-4.4-2.9-7.2s1.2-5.3,2.9-7.2l0,0l0,0C-153.7,83.4-151.2,82.2-148.4,82.2L-148.4,82.2z"/>
<path class="st2" d="M-148.4,83.8c2.4,0,4.6,1,6.1,2.6c1.6,1.5,2.6,3.6,2.6,6.1c0,2.4-1,4.5-2.6,6.1l0,0c-1.5,1.5-3.7,2.5-6.1,2.5
	c-2.4,0-4.5-1-6.1-2.5c-1.5-1.6-2.5-3.7-2.5-6.1s1-4.5,2.5-6.1l0,0l0,0C-152.9,84.8-150.8,83.8-148.4,83.8L-148.4,83.8z"/>
<path class="st3" d="M-148.4,85.3c2,0,3.7,0.8,5,2.1c1.3,1.2,2.1,3,2.1,5c0,1.9-0.8,3.7-2.1,5l0,0c-1.2,1.2-3,2-5,2
	c-1.9,0-3.7-0.8-5-2c-1.2-1.3-2-3-2-5c0-1.9,0.8-3.7,2-5l0,0l0,0C-152.1,86.2-150.4,85.3-148.4,85.3L-148.4,85.3z"/>
</svg>
