<?xml version="1.0" encoding="utf-8"?>
<!-- Generator: Adobe Illustrator 19.0.0, SVG Export Plug-In . SVG Version: 6.00 Build 0)  -->
<svg version="1.1" xmlns="http://www.w3.org/2000/svg" xmlns:xlink="http://www.w3.org/1999/xlink" x="0px" y="0px"
	 viewBox="0 0 335.5 200" style="enable-background:new 0 0 335.5 200;" xml:space="preserve">
<style type="text/css">
	.st0{fill-rule:evenodd;clip-rule:evenodd;fill:#6E98AC;}
	.st1{fill-rule:evenodd;clip-rule:evenodd;fill:#637077;}
	.st2{fill-rule:evenodd;clip-rule:evenodd;fill:#77848A;}
	.st3{fill-rule:evenodd;clip-rule:evenodd;fill:#E8D5B5;}
	.st4{fill-rule:evenodd;clip-rule:evenodd;fill:#D5BF9B;}
	.st5{fill:#D5BF9B;}
	.st6{fill-rule:evenodd;clip-rule:evenodd;fill:#FFFFFF;}
	.st7{fill:#A28A65;}
	.st8{fill-rule:evenodd;clip-rule:evenodd;fill:#90B252;}
	.st9{fill-rule:evenodd;clip-rule:evenodd;fill:#AAC570;}
</style>
<g id="Camada_3">
</g>
<g id="Camada_2">
	<g id="XMLID_2_">
		<path id="XMLID_124_" class="st0" d="M140.3,132.6c6.3-0.3,12.1,2,16.4,6.2c4.1-8.5,12.1-14.5,21.2-15c7.1-0.4,13.5,2.7,17.9,7.8
			c3-6.3,8.9-10.7,15.7-11.1c9.4-0.5,17.1,7.1,17.8,17.3c1.2-0.3,2.4-0.6,3.7-0.6c5-0.3,9.6,1.8,12.8,5.3c3.8-9.3,12.2-16.1,22-16.6
			c2.8-0.1,5.6,0.2,8.1,1.1c3.2-3.6,7.6-6,12.5-6.3c0.2,0,0.5,0,0.7,0c0.2,0,0.5,0,0.7-0.1c4.9-0.3,9.3,1.7,12.5,5
			c2.5-1.1,5.3-1.8,8.1-2c9.7-0.5,18.1,5.4,22,14.3c3.2-3.9,7.8-6.4,12.8-6.7c1.3-0.1,2.5,0,3.7,0.2c0.7-10.2,8.4-18.7,17.8-19.2
			c6.8-0.4,12.7,3.5,15.7,9.4c2.6-3.3,6-6,9.8-7.7v70.1l-265.3,0v1.2l-166.1,0l0-68c0.7,0.2,1.3,0.5,2,0.8c2.8-7.1,9-12.2,16.3-12.6
			c9.9-0.5,17.9,7.9,17.9,18.7c0,0.8,0,1.5-0.1,2.3c2.8-2.2,6.3-3.6,9.9-3.8c9-0.5,16.5,6.5,17.7,16c3.8-3,8.4-4.8,13.3-5.1
			c6.3-0.3,12.1,2,16.4,6.2c4.1-8.5,12.1-14.5,21.2-15c7.1-0.4,13.5,2.7,17.9,7.8c3.5-7.3,10.1-11.1,16.4-11.1
			c6.5,0,12.9,3.7,15.8,11.4c0.6,1.5,0.9,3.1,1.2,4.6C130.8,134.7,135.4,132.8,140.3,132.6z"/>
		<path id="XMLID_123_" class="st1" d="M-34.2,183.8c57.2,0,103.5-11.7,103.5-26.1c0-14.4-46.3-26.1-103.5-26.1c-1.6,0-3.2,0-4.7,0
			v52.2C-37.4,183.8-35.8,183.8-34.2,183.8z"/>
		<path id="XMLID_122_" class="st2" d="M-24.3,183.7c52.5-1.3,93.5-12.4,93.5-26c0-12.5-34.6-22.9-81-25.5
			C-22,142.1-28,154-28,166.6C-28,172.5-26.7,178.2-24.3,183.7z"/>
		<path id="XMLID_121_" class="st1" d="M87.4,196.5c32.1,0,58.4-10,58.4-22.3s-26.2-22.3-58.4-22.3S29,161.9,29,174.2
			S55.2,196.5,87.4,196.5z"/>
		<path id="XMLID_120_" class="st2" d="M93,196.4c29.6-1.1,52.7-10.6,52.7-22.2c0-12.1-25.3-22-56.8-22.3
			C76,157,67.7,164.8,67.7,173.4C67.7,182.9,77.8,191.4,93,196.4z"/>
		<path id="XMLID_119_" class="st1" d="M387.7,183.8c-57.2,0-103.5-11.7-103.5-26.1c0-14.4,46.3-26.1,103.5-26.1c1.6,0,3.2,0,4.7,0
			v52.2C390.9,183.8,389.3,183.8,387.7,183.8z"/>
		<path id="XMLID_118_" class="st2" d="M387.7,183.8c-21.6,0-41.7-1.7-58.3-4.5c-0.8-2.6-1.2-5.2-1.2-7.9c0-21.9,27.3-39.7,61-39.8
			c0.7,0,1.4,0,2.2,0c0.4,0,0.7,0,1.1,0v52.1C390.9,183.8,389.3,183.8,387.7,183.8z"/>
		<path id="XMLID_117_" class="st1" d="M266.1,196.5c32.1,0,58.4-10,58.4-22.3s-26.2-22.3-58.4-22.3s-58.4,10-58.4,22.3
			S234,196.5,266.1,196.5z"/>
		<path id="XMLID_116_" class="st2" d="M253.6,152.4c4-0.3,8.2-0.5,12.5-0.5c30.9,0,56.2,9.2,58.2,20.8c-0.5,4.2-2.7,8.1-6,11.5
			c-8.1,6.2-23.5,10.7-41.9,12c-19.6-2-34.6-12.7-34.6-25.6C241.8,163.5,246.3,157.1,253.6,152.4z"/>
		<rect id="XMLID_115_" x="-39" y="167.8" class="st3" width="431.4" height="32.6"/>
		<path id="XMLID_112_" class="st4" d="M-15.3,179.8c3,0.5,5.7,1.4,6.9,2.4c0.3,0.2,0.4,0.4,0.6,0.6c3.6,0.5,6.8,1.5,8.2,2.6
			c0.1,0.1,0.1,0.1,0.2,0.2l0,0c0.1,0.1,0.2,0.1,0.2,0.2l0,0l0,0c0,0,0,0,0.1,0.1l0,0c0,0,0,0,0.1,0.1l0,0c0,0,0.1,0.1,0.1,0.1l0,0
			l0,0c0,0,0,0,0,0.1l0,0l0,0c0,0,0,0,0,0.1l0,0l0,0l0,0.1h0c0.4,1.2-2.1,2.1-6.3,2.1c-0.2,0.6-1.2,1.1-2.8,1.4c2.4,2,4.4,3.9,5,4.8
			c0.2,0.3-0.4,0.5-1.3,0.4c-0.9-0.1-1.9-0.4-2.1-0.7c-0.4-0.6-1.5-1.7-3-3c-0.1,0-0.1,0-0.2,0c-1.1,0-2.6-0.2-4.1-0.5
			c-1.4-0.3-2.7-0.7-3.7-1.3c-0.5-0.1-1-0.2-1.5-0.3c-0.7,0.1-1.6,0.1-2.5,0.1c-5.3,0-11.2-1.3-13.3-3c-1.4-1.1-0.7-2,1.4-2.5
			c-0.6-0.3-1.1-0.5-1.5-0.8c-1.5-1.2-0.6-2.2,2.1-2.7c-0.9-0.3-1.6-0.7-2.1-1.1c-1.7-1.3-0.3-2.5,3.2-2.8h0l0,0l0,0l0.1,0l0,0l0,0
			l0,0l0,0l0.1,0l0.1,0l0.1,0l0,0l0.1,0l0.1,0l0.2,0l0.1,0l0.2,0l0.1,0l0.1,0l0,0l0,0c0.1,0,0.1,0,0.2,0l0,0h0l0,0
			c0.1,0,0.1,0,0.2,0l0,0l0,0c0.1,0,0.2,0,0.2,0h0c0.1,0,0.1,0,0.2,0l0,0h0c0.1,0,0.2,0,0.2,0c5.3,0,11.2,1.3,13.3,3
			C-15.6,179.4-15.5,179.6-15.3,179.8L-15.3,179.8z M-10.5,190.4c-0.2-0.1-0.3-0.3-0.5-0.4c-0.2,0-0.5,0-0.8,0c-0.8,0-1.5,0-2.3-0.1
			c0.3,0.1,0.6,0.2,1,0.3c0.8,0.2,1.7,0.3,2.3,0.3c0.1,0,0.1,0,0.2,0C-10.6,190.4-10.5,190.4-10.5,190.4z"/>
		<g id="XMLID_107_">
			<path id="XMLID_108_" class="st5" d="M353.8,193.8c1.1,0.3,1.4,0.8,0.8,1c-0.6,0.2-2,0.2-3-0.2c-3-0.9-5.8-2.6-8-4.4
				c-1.5-1.2-2.7-2.6-3.5-3.8c-4.7-0.3-9.3-1.2-11.8-2.3l-0.2,0l-0.1,0l-0.2,0l-0.1,0l-0.1,0l0,0c-0.1,0-0.1,0-0.2,0l0,0l-0.1,0
				l-0.1,0l-0.1,0l-0.1,0c-0.1,0-0.2,0-0.3,0l-0.1,0l-0.1,0l-0.1,0l-0.1,0l-0.1,0c-0.1,0-0.1,0-0.2,0l-0.1,0l-0.1,0l-0.1,0l-0.1,0
				l-0.1,0c-0.1,0-0.1,0-0.2,0l-0.1,0l-0.1,0l-0.1,0l-0.1,0l0,0c-0.1,0-0.1,0-0.2,0l0,0l-0.1,0l-0.1,0l-0.1,0l-0.1,0l-0.1,0
				c-0.1,0-0.1,0-0.2,0l-0.1,0l-0.1,0l-0.1,0l-0.1,0l-0.1,0c-0.1,0-0.1,0-0.2,0l-0.1,0l-0.1,0l-0.1,0c-0.1,0-0.1,0-0.2,0l-0.1,0
				l-0.1,0l-0.1,0l-0.1,0l-0.1,0c-0.1,0-0.1,0-0.2-0.1l0,0c-0.1,0-0.1,0-0.2,0l-0.1,0c0,0-0.1,0-0.1,0l-0.1,0c-0.1,0-0.1,0-0.2-0.1
				l-0.1,0l-0.1,0l-0.1,0l-0.1,0l-0.1,0c-0.1,0-0.1,0-0.2-0.1l-0.1,0c0,0-0.1,0-0.1,0l-0.1,0c0,0-0.1,0-0.1-0.1l0,0l0,0l0,0
				c-0.1,0-0.1,0-0.1-0.1l0,0c0,0-0.1,0-0.1,0l0,0c-0.1,0-0.1,0-0.2-0.1l0,0c0,0-0.1,0-0.1-0.1l0,0c0,0-0.1,0-0.1-0.1l0,0
				c0,0-0.1,0-0.1-0.1l0,0c0,0-0.1,0-0.1-0.1l0,0c0,0-0.1,0-0.1-0.1l0,0c0,0-0.1,0-0.1-0.1l0,0c0,0-0.1,0-0.1-0.1l0,0
				c0,0-0.1,0-0.1-0.1l0,0c0,0-0.1,0-0.1-0.1l0,0c0,0,0,0-0.1,0l0,0c0,0-0.1,0-0.1-0.1c-2.2-1.7,1.2-3.1,7.6-3.1l0.1,0l0,0l0,0l0,0
				l0,0l0,0c0,0,0-0.1,0.1-0.1l0,0l0,0l0,0c0,0,0,0,0,0c0,0,0,0,0,0c0,0,0,0,0,0l0,0c0,0,0.1-0.1,0.2-0.1l0,0l0,0l0,0l0.1,0
				c0,0,0,0,0.1,0l0.1,0l0,0l0.1,0l0,0c0,0,0.1,0,0.1-0.1l0,0l0.1,0l0,0l0.1,0l0,0c0,0,0.1,0,0.1,0l0.1,0l0,0l0.1,0l0.1,0
				c0,0,0.1,0,0.1,0l0.1,0l0.1,0l0.1,0l0.1,0l0.1,0l0.1,0l0.1,0l0.1,0l0.1,0l0.1,0c0,0,0.1,0,0.1,0l0.1,0l0.1,0l0.1,0l0.1,0l0.1,0
				c0.1,0,0.1,0,0.2,0l0.1,0l0.1,0l0.1,0c0.1,0,0.1,0,0.2,0l0.1,0l0.1,0l0.1,0l0.1,0l0.1,0c0.1,0,0.1,0,0.2,0l0.1,0l0.2,0l0.1,0
				c0.1,0,0.1,0,0.2,0l0,0h0l0,0c0.1,0,0.1,0,0.2,0l0.1,0l0.2,0l0,0c0.1,0,0.2,0,0.2,0l0,0c0.1,0,0.1,0,0.2,0l0.1,0
				c0.1,0,0.1,0,0.2,0l0.1,0c0.1,0,0.2,0,0.2,0l0.1,0l0.2,0l0.1,0c0.1,0,0.2,0,0.2,0l0,0l0,0c0.1,0,0.1,0,0.2,0l0.1,0
				c0.1,0,0.1,0,0.2,0l0.1,0c0.1,0,0.2,0,0.3,0l0.1,0c0.1,0,0.1,0,0.2,0l0.1,0c0.1,0,0.2,0,0.3,0c6.4,0,13.4,1.4,15.6,3.1
				c0,0,0.1,0.1,0.1,0.1l0,0l0,0l0,0c0,0,0.1,0.1,0.1,0.1l0,0l0,0l0,0c0,0,0.1,0,0.1,0.1l0,0l0,0l0,0c0,0.1,0.1,0.1,0.1,0.1l0,0l0,0
				c0,0,0,0,0.1,0.1l0,0c0,0,0,0,0,0.1l0,0c0,0,0,0,0,0.1l0,0l0,0c0,0,0,0,0,0.1l0,0c0,0,0,0,0,0.1l0,0c0,0,0,0,0,0.1l0,0
				c0,0,0,0,0,0.1l0,0l0,0l0.1,0l0.2,0l0.1,0c0.1,0,0.1,0,0.2,0l0.1,0l0.2,0l0.1,0c0.1,0,0.1,0,0.2,0l0.1,0l0.2,0l0.1,0l0.2,0l0.1,0
				c0.1,0,0.1,0,0.2,0l0.1,0l0.1,0l0.1,0l0.2,0l0.1,0c0.1,0,0.1,0,0.2,0l0.1,0l0.2,0l0.1,0c0.1,0,0.1,0,0.2,0l0.1,0
				c0.1,0,0.1,0,0.2,0l0,0c0.1,0,0.1,0,0.2,0l0.1,0l0.2,0l0.1,0c0.1,0,0.1,0,0.2,0l0.1,0c0.1,0,0.1,0,0.2,0.1l0.1,0l0.2,0l0,0
				c0.1,0,0.1,0,0.2,0.1l0.1,0c0.1,0,0.1,0,0.2,0.1l0,0l0,0c0.1,0,0.1,0,0.2,0.1l0.1,0c0.1,0,0.1,0,0.2,0.1l0,0c0,0,0.1,0,0.1,0
				l0.1,0c0.1,0,0.1,0,0.2,0.1l0,0c0.1,0,0.1,0,0.2,0.1l0,0l0,0l0,0c0,0,0.1,0,0.1,0.1l0.1,0c0.1,0,0.1,0,0.2,0.1l0,0
				c0,0,0.1,0,0.1,0.1l0,0c0.1,0,0.1,0,0.1,0.1l0,0c0,0,0.1,0,0.1,0.1l0,0l0,0c0,0,0.1,0,0.1,0.1l0,0c0,0,0.1,0,0.1,0.1l0,0
				c0,0,0.1,0,0.1,0.1l0,0c0,0,0.1,0,0.1,0.1l0,0c0,0,0.1,0,0.1,0.1l0,0l0,0l0,0c0,0,0.1,0,0.1,0.1l0,0c0,0,0.1,0,0.1,0.1l0,0
				c0,0,0.1,0,0.1,0.1l0,0c0,0,0.1,0,0.1,0.1l0,0c0,0,0.1,0,0.1,0.1c1.7,1.3,0,2.5-3.8,2.9c0.2,0.8-0.3,1.4-1.1,1.9
				c-1.5,1-4.5,1.5-6.8,1.6c0.3,0.3,0.6,0.6,0.9,0.8C349.5,191.8,351.7,193.2,353.8,193.8L353.8,193.8z M344.2,186.5
				c0.3,0.5,0.7,1,1.1,1.5c1.4-0.1,3-0.5,4-1.1c0.3-0.2,0.6-0.5,0.7-0.7l-0.2,0l0,0h0l0,0c-0.1,0-0.2,0-0.3,0l0,0l0,0
				c-0.1,0-0.2,0-0.3,0l0,0l0,0c-0.1,0-0.2,0-0.3,0l0,0l0,0c-0.1,0-0.2,0-0.3,0l0,0l0,0c-0.1,0-0.2,0-0.2,0l0,0c-0.1,0-0.2,0-0.2,0
				l-0.1,0l0,0C346.9,186.3,345.7,186.4,344.2,186.5L344.2,186.5z M325.7,177.9C325.7,177.9,325.7,177.9,325.7,177.9L325.7,177.9z"
				/>
		</g>
		<g id="XMLID_101_">
			<path id="XMLID_102_" class="st5" d="M38.5,183.7L38.5,183.7c0.1,0,0.2,0,0.2,0l0.1,0c0.1,0,0.3,0,0.4,0l0,0l0.1,0l0,0l0.1,0
				c0.1,0,0.1,0,0.1,0l0,0l0.1,0l0,0l0,0l0.1,0l0,0l0,0l0,0l0,0l0,0l0,0l0,0l0,0c0,0,0.1,0,0.1,0l0,0l0,0l0,0l0,0l0,0l0,0l0,0l0,0
				l0,0l0,0l0,0l0,0l0,0l0,0l0,0l0,0l0,0l0,0l0,0l0,0l0,0l0,0l0,0l0,0l0,0l0,0l0,0l0,0l0,0l0,0l0,0l0,0l0,0l0,0l0,0l0,0l0,0l0,0l0,0
				l0,0l0,0l0,0l0,0l0,0l0,0l0,0l0,0l0,0l0,0l0,0l0,0l0,0l0,0l0,0l0,0l0,0l0,0l0,0l0,0c0,0,0,0,0,0l0,0l0,0l0,0l0,0l0,0l0,0l0,0l0,0
				l0,0l0,0l0,0l0,0l0,0l0,0l0,0l0,0l0,0l0,0l0,0l0,0l0,0L38.5,183.7L38.5,183.7z M41.2,182.8l-2.7,1l0,0l0,0l0,0l0,0l0,0l0,0l0,0
				l0,0l0,0l0,0l0,0l0,0l0,0l0,0l0,0l0,0l0,0l0,0l0,0l0,0l0,0l0,0l0,0l0,0l0,0l0,0l0,0l0,0l0,0l0,0l0,0l0,0l0,0l0,0l0,0l0,0l0,0l0,0
				l0,0l0,0l0,0l0,0l0,0l0,0l0,0l0,0l-0.1,0l0,0l-0.1,0l0,0l0,0l0,0l0,0l0,0l0,0l0,0l0,0l0,0l0,0l0,0l0,0l0,0l0,0l0,0l0,0l0,0l0,0
				l-0.1,0l-0.1,0l0,0l0,0l-0.1,0l-0.1,0l0,0l0,0l-0.1,0l-0.1,0l0,0l0,0l-0.1,0l-0.1,0l0,0l0,0l0,0l0,0l0,0l0,0h0l0,0l0,0l0,0l0,0
				l0,0l0,0l0,0l0,0l0,0l0,0l0,0l0,0l0,0l0,0l0,0l0,0l0,0l0,0l0,0l0,0l0,0l0,0l0,0h0l0,0l0,0l0,0l0,0h0l0,0l0,0l0,0l0,0h0h0l0,0l0,0
				h0l0,0h0l0,0l0,0h0h0l0,0h0h0l0,0h0h0h0h0h0l0,0h0h0c2.7,0,4.2-0.4,3.6-0.9l0,0h0l0,0h0l0,0h0l0,0h0l0,0h0l0,0h0l0,0h0l0,0h0l0,0
				h0l0,0l0,0l0,0h0l0,0l0,0l0,0h0l0,0h0l0,0l0,0l0,0h0l0,0h0l0,0l0,0l0,0h0l0,0l0,0l0,0h0l0,0l0,0l0,0h0l0,0l0,0l0,0h0l0,0h0l0,0
				l0,0h0l0,0l0,0h0l0,0h0l0,0h0l0,0l0,0h0l0,0h0l0,0h0l0,0h0l0,0h0l0,0h0l0,0h0l0,0h0l0,0h0h0l0,0h0h0l0,0h0l0,0h0h0h0l0,0h0l0,0h0
				h0h0l0,0h0h0h0l0,0h0h0h0l0,0h0h0h0h0h0l0,0h0h0h0h0h0h0h0l0,0h0h0h0h0h0h0h0h0h0l0,0l0,0l0,0l0,0l0,0l0,0l0,0l0,0l0,0l0,0l0,0
				l0,0l0,0l0,0l0,0l0,0l0,0l0,0l0,0l0,0l0,0l0,0l0,0l0,0l0,0l0,0l0,0l0,0l0,0l0,0l0,0l0,0h0l0,0l0,0l0,0l0,0l0,0l0,0l0,0l0,0l0,0
				l0,0l0,0l0,0l0,0l0,0l0,0l0,0l0,0l0,0l0,0l0,0l0,0l0,0l0,0l0,0l0,0h0l0,0l0,0l0,0l0,0l0,0l0,0l0,0l0,0l0,0l0,0l0,0l0,0l0,0l0,0
				l0,0l0,0l0,0l0,0l0,0l0,0l0,0l0,0l0,0L41.2,182.8L41.2,182.8L41.2,182.8L41.2,182.8L41.2,182.8L41.2,182.8L41.2,182.8L41.2,182.8
				L41.2,182.8L41.2,182.8z M25.9,175.8c0.1,0,0.1,0,0.2,0l0,0l0,0l0,0l0,0l0,0l0.1,0l0,0l0,0l0,0l0,0l0,0l0,0l0,0l0,0l0,0l0,0l0,0
				l0,0l0,0l0,0h0l0,0l0,0l0,0l0,0l0,0l0,0l0,0l0,0l0,0l0,0l0,0l0,0l0,0l0,0l0,0l0,0l0,0l0,0l0,0l0,0l0,0l0,0l0,0l0,0l0,0l0,0l0,0
				l0,0l0,0l0,0l0,0l0,0l0,0l0,0l0,0l0,0l0,0l0,0l0,0l0,0l0,0l0,0l0,0l0,0l0,0l0,0l0.1,0h0l0,0l0,0l0.1,0l0,0l0,0l0,0l0,0l0,0l0,0
				l0,0l0,0l0,0l0,0l0,0l0,0l0,0l0,0l0,0l0,0l0,0l0,0l0,0l0,0l0.1,0l0,0l0,0l0.1,0l0,0l0,0l0,0l0.1,0l0,0l0,0l0,0l0.1,0l0,0l0,0l0,0
				l0,0l0,0l0,0l0,0l0,0l0,0l0,0l0,0l0.1,0l0,0l0,0l0,0l0,0l0,0l0,0l0,0l0,0l0,0l0,0l0,0l0,0l0,0l0,0l0,0l0,0l0,0l0,0l0,0l0,0l0,0
				l0,0l0,0l0,0l0,0l0,0l0,0l0,0l0,0l0,0l0,0l0,0l0,0l0,0l0,0l0,0l0,0l0,0l0,0l0,0l0,0l0,0l0,0l0,0l0,0l0,0l0,0l0,0l0,0l0,0l0,0l0,0
				l0,0l0,0l0,0l0,0l0,0l0,0l0,0l0,0l0,0l0,0l0,0l0,0l0,0l0,0l0,0l0,0l0.1,0l0,0l0,0l0,0l0,0l0,0l0,0l0,0l0,0l0,0l0,0l0,0l0,0l0,0
				l0,0l0,0l0,0l0,0l0,0l0,0l0,0l0,0l0,0l0,0l0,0l0.1,0l0,0l0.1,0l0,0l0,0l0,0l0,0l0,0l0,0l0,0l0,0l0,0l0,0l0,0l0,0l0,0l0,0l0,0l0,0
				l0,0l0,0l0,0l0,0l0,0l0,0l0,0l0,0l0,0l0,0l0,0l0,0l0,0l0,0l0,0l0,0l0,0l0,0l0,0l0,0l0,0l0,0l0,0l0,0l0,0l0,0l0,0l0,0l0,0l0,0l0,0
				l0,0l0,0l0,0l0,0l0,0l0,0l0,0l0,0l0,0l0,0l0.1,0l0,0l0,0l0,0l0,0l0,0l0,0l0,0l0,0l0,0l0,0l0,0l0,0l0,0l0,0l0,0l0,0l0,0l0,0l0,0
				l0,0l0,0l0,0l0,0l0,0l0,0l0,0l0,0l0,0l0,0l0,0l0,0l0,0l0,0l0,0l0,0l0,0l0,0l0,0l0,0l0,0l0,0l0,0l0,0l0,0l0,0l0,0l0,0l0,0l0.1,0
				l0,0l0,0l0.1,0l0,0l0,0l0.1,0l0,0l0,0l0,0l0,0l0,0l0,0l0,0l0,0l0,0l0,0l0,0l0,0l0,0l0,0l0,0l0,0l0,0l0,0l0,0l0,0l0,0l0,0l0,0l0,0
				l0,0l0,0l0,0l0,0l0,0l0,0l0,0l0,0l0,0l0,0l0,0l0,0l0,0l0,0l0,0l0,0l0,0l0,0l0,0l0,0l0,0l0,0l0,0l0,0l0,0l0,0l0,0l0,0l0,0l0.1,0
				l0.1,0l0,0l0,0l0.1,0l0,0l0.1,0l0,0l0,0l0,0l0,0l0,0h0l0,0l0,0l0,0l0,0l0,0h0l0,0l0,0l0,0l0,0l0,0l0,0l0,0l0,0l0.1,0l0,0l0,0l0,0
				l0,0l0,0l0,0l0.1,0l0,0l0,0l0,0l0,0l0,0l0,0l0.1,0l0,0l0,0l0,0l0,0l0,0l0,0l0,0l0,0l0,0l0,0l0,0l0,0l0,0l0,0l0,0l0,0l0,0l0,0l0,0
				l0,0l0,0l0,0l0,0l0,0l0,0l0,0l0,0l0,0l0,0l0,0l0,0l0,0l0,0l0,0l0,0l0,0l0,0l0,0l0,0l0,0l0,0l0,0l0,0l0,0l0,0l0,0l0,0l0,0l0,0l0,0
				l0,0l0,0l0,0l0,0l0,0l0,0l0,0l0,0l0,0l0,0l0,0l0,0l0,0l0,0l0,0l0,0l0,0l0,0l0,0l0,0l0,0l0,0l0,0l0,0l0,0l0,0l0,0l0,0l0,0l0,0l0,0
				l0,0l0,0l0,0l0,0l0,0l0,0l0,0l0,0l0,0l0,0l0,0l0,0l0,0l0,0l0,0l0,0c0.3,0,0.5,0,0.8,0c2.8,0,5.8,0.4,6.6,1c0.3,0.2,0.3,0.4,0,0.5
				l0,0l0,0l0,0l0,0l0,0l0,0l0,0l0,0l0,0l0,0l0,0l0,0l0,0l0,0l0,0l0,0l0,0l0,0l0,0l0,0l0,0l0,0l0,0l0,0l0,0l0,0l0,0l0,0l0,0l0,0l0,0
				l0,0l0,0l0,0l0,0l0,0l0,0l0,0l0,0l0,0l0,0l0,0l0,0l0,0l0,0l0,0l0,0l0,0l0,0l0,0l0,0l0,0l0,0l0,0l0,0l0,0l0,0l0,0l0,0l0,0l0,0l0,0
				l0,0l0,0l0,0h0l0,0h0l0,0h0l0,0h0l0,0h0l0,0h0l0,0l0,0h0l0,0l0,0h0l0,0l0,0h0l0,0h0l0,0h0l0,0h0l0,0l0,0l0,0l0,0l0,0l0,0l0,0h0
				l0,0l0,0l0,0l0,0l0,0h0l0,0l0,0l0,0l0,0l0,0l0,0h0l0,0l0,0l0,0l0,0l0,0h0l0,0l0,0l0,0l0,0l0,0l0,0l0,0l0,0l0,0l0,0l0,0l0,0l0,0h0
				l0,0l0,0l0,0h0h0l0,0h0h0l0,0h0h0h0c2.8,0,5.8,0.4,6.6,1l0,0l0,0l0,0l0,0l0,0l0,0l0,0l0,0l0,0l0,0l0,0l0,0l0,0l0,0l0,0l0,0l0,0
				l0,0l0,0l0,0l0,0l0,0l0,0l0,0l0,0l0,0l0,0l0,0l0,0l0,0l0,0l0,0l0,0v0l0,0l0,0l0,0l0,0l0,0l0,0l0,0l0,0l0,0l0,0l0,0l0,0l0,0l0,0
				l0,0l0,0l0,0l0,0l0,0l0,0l0,0l0,0l0,0l0,0l0,0l0,0l0,0l0,0l0,0l0,0l0,0l0,0l0,0l0,0l0,0v0l0,0l0,0l0,0l0,0l0,0l0,0l0,0l0,0l0,0
				l0,0l0,0l0,0h0l0,0l0,0l0,0l0,0l0,0l0,0l0,0l0,0l0,0l0,0l0,0l0,0l0,0l0,0l0,0l0,0l0,0l0,0l0,0l0,0l0,0l0,0l-0.1,0h0l0,0l0,0l0,0
				l0,0l0,0l0,0l0,0l0,0l0,0l0,0l0,0l0,0l0,0l0,0l0,0l0,0l0,0l0,0l0,0l0,0l0,0l0,0l0,0l0,0l0,0l0,0l0,0l0,0l0,0l0,0l0,0l0,0l0,0
				l-0.1,0l0,0l0,0l0,0l0,0l0,0l0,0l0,0l0,0l0,0l0,0l0,0l0,0l0,0l0,0l0,0l0,0l0,0l0,0l0,0l0,0l0,0l0,0l0,0l0,0l0,0l0,0l0,0l0,0l0,0
				l0,0l0,0l0,0l0,0l0,0l0,0l0,0l0,0l0,0l0,0l0,0l0,0l0,0l0,0l0,0l0,0l0,0l0,0l0,0l0,0l0,0l0,0l0,0l0,0l0,0l0,0l0,0l0,0l0,0l0,0l0,0
				l0,0l0,0l0,0l0,0l0,0l0,0l0,0l0,0l0,0l0,0l0,0l0,0l0,0l0,0l0,0l0,0l0,0l0,0l0,0l0,0l0,0l0,0l0,0l0,0l0,0l0,0l0,0l0,0l0,0l0,0l0,0
				l0,0l0,0l0,0l0,0l-0.1,0l-0.1,0l0,0l0,0l0,0l0,0l0,0l0,0l0,0l0,0l0,0l0,0l0,0l0,0l0,0l0,0l0,0l0,0l0,0l0,0l0,0l0,0l0,0l0,0l0,0
				l0,0l0,0l0,0l0,0l0,0l0,0l0,0l0,0l0,0l0,0l0,0l0,0l0,0l0,0l0,0l0,0l0,0l0,0l0,0l0,0l0,0l0,0l0,0l0,0l0,0l0,0l0,0l0,0l0,0l0,0l0,0
				l0,0l0,0l0,0l0,0l0,0l0,0l0,0l0,0l0,0l0,0l0,0l0,0l0,0l0,0l0,0l0,0l0,0l0,0l0,0l0,0l0,0l0,0l0,0l0,0l0,0l0,0l0,0l0,0l0,0l0,0l0,0
				l0,0l0,0l0,0l0,0l0,0l0,0l0,0l0,0l0,0l0,0l0,0l0,0l0,0l0,0l0,0l0,0l0,0l0,0l0,0l0,0h0l0,0l0,0l0,0l0,0l0,0l0,0l0,0l0,0l0,0l0,0
				l0,0l0,0l0,0l0,0l0,0l0,0l0,0l0,0l0,0l0,0l0,0l0,0l0,0l0,0l0,0l0,0l0,0l0,0l0,0l0,0l0,0l0,0l0,0l0,0l0,0l0,0l0,0l-0.1,0l0,0l0,0
				l0,0l0,0l0,0l0,0l0,0l-0.1,0l0,0l-0.1,0l0,0l0,0l0,0l0,0l0,0l0,0l0,0l0,0l0,0l0,0l0,0l0,0l0,0l0,0l0,0l0,0l0,0l0,0l0,0l0,0l0,0
				l0,0l0,0l0,0l0,0l0,0l-0.1,0l0,0l0,0l0,0l-0.1,0h0l0,0h0l0,0l-0.1,0l0,0l0,0l0,0l0,0l-0.1,0h0h0h0l-0.1,0h0h0h0h0h0h0h0h0h0h0h0
				h0h0h0h0h0h0h0h0h0h0h0h0h0h0l0,0h0h0h0h0h0h0l0,0h0h0h0h0h0h0h0h0l0,0h0h0h0h0h0l0,0h0h0h0l0,0h0h0h0h0l0,0h0h0h0l0,0h0h0l0,0h0
				h0l0,0h0h0l0,0h0h0l0,0h0l0,0h0l0,0h0l0,0h0l0,0h0h0l0,0l0,0l0,0l0,0l0,0l0,0l0,0l0,0l0,0l0,0l0,0l0,0l0,0l0,0l0,0l0,0l0,0l0,0
				l0,0l0,0l0,0l0,0l0,0l0,0v0l0,0l0,0l0,0l0,0l0,0l0,0l0,0l0,0l0,0l0,0l0,0c0,0,0,0-0.1,0l0,0l0,0l0,0l0,0l0,0l0,0l0,0l0,0l0,0l0,0
				l0,0l0,0l0,0l0,0l0,0l0,0l0,0l0,0l0,0l0,0l0,0l0,0l0,0l0,0l0,0l0,0l0,0l0,0l0,0l0,0l0,0l0,0l0,0l0,0l0,0l0,0l0,0l0,0l0,0l0,0l0,0
				l0,0l0,0l0,0l0,0l0,0l0,0l0,0l0,0l0,0l0,0l0,0l0,0l0,0l0,0l0,0l0,0l0,0l0,0l0,0l0,0l0,0l0,0l0,0l0,0l0,0l0,0l0,0l-0.1,0l0,0l0,0
				l0,0l0,0l0,0l0.1,0.1l0,0l0,0l0,0l0,0l0,0l0,0l0,0l0,0l0,0l0,0l0,0l0,0l0,0l0,0l0,0l0,0l0,0l0,0l0,0l0,0l0,0l0,0l0,0l0,0l0,0l0,0
				l0,0l0,0l0,0l0,0l0,0l0,0l0,0l0,0l0,0l0,0l0,0l0,0l0,0l0,0l0,0l0,0l0,0l0,0l0,0l0,0l0,0l0,0l0,0l0,0l0,0l0,0v0l0,0l0,0l0,0l0,0
				l0,0l0,0l0,0l0,0l0,0l0,0l0,0l0,0l0,0l0,0l0,0l0,0l0,0l0,0l0,0v0l0,0l0,0l0,0l0,0l0,0l0,0l0,0l0,0l0,0l0,0h0l0,0l0,0l0,0l0,0l0,0
				l0,0l0,0l0,0l0,0l0,0l0,0l0,0l0,0l0,0l0,0l0,0l0,0l0,0l0,0l0,0l0,0l0,0l0,0l0,0l0,0l0,0l0,0l0,0l0,0l0,0l0,0l0,0l0,0l0,0l0,0l0,0
				l0,0l0,0l0,0l0,0l0,0l0,0l0,0l0,0l0,0l0,0l0,0l0,0l0,0l0,0l0,0l0,0l0,0l0,0l0,0l0,0l0,0l0,0l0,0l0,0l0,0l0,0l0,0l0,0l0,0l0,0
				c0,0-0.1,0-0.1,0l0,0l0,0l0,0l0,0l0,0l0,0l0,0l0,0l0,0l0,0l-0.1,0l0,0l0,0l0,0l0,0l0,0l0,0l0,0l0,0l0,0l0,0l0,0c0,0-0.1,0-0.1,0
				l0,0l0,0l0,0l0,0l0,0l0,0l0,0l0,0l0,0l0,0l0,0l0,0l-0.1,0l0,0l-0.1,0h0l-0.1,0l0,0l-0.1,0l0,0l0,0l0,0l0,0l0,0l0,0l0,0l0,0l0,0
				l0,0l-0.1,0h0l-0.1,0l0,0l-0.1,0l0,0l0,0l-0.1,0l0,0l-0.1,0l0,0l0,0l0,0l0,0l-0.1,0l0,0l-0.1,0h0l-0.1,0l0,0l-0.1,0l0,0l-0.1,0
				l0,0l0,0l0,0l-0.1,0l-0.1,0l0,0l-0.1,0l0,0l-0.1,0h0l0,0l0,0l0,0l0,0l0,0l0,0l0,0l0,0l0,0l0,0l0,0l0,0l0,0l0,0l0,0l0,0l0,0l0,0
				l0,0l0,0h0l0,0l0,0l0,0l0,0l0,0l0,0l0,0l0,0l0,0l0,0l0,0h0l0,0l0,0l0,0l0,0l0,0l0,0l0,0l0,0l0,0l0,0l0,0h0l0,0l0,0l0,0l0,0l0,0
				l0,0l0,0l0,0l0,0l0,0l0,0h0l0,0l0,0l0,0l0,0l0,0l0,0l0,0l0,0l0,0l0,0l0,0c2.1,0.9,3.3,1.5,4.1,2.3c0.2,0.2-0.2,0.3-0.8,0.3
				c-0.6,0-1.3-0.2-1.5-0.4c-0.7-0.7-1.8-1.3-3.7-2.1l0,0l0,0l0,0l0,0l0,0l0,0l0,0l0,0l0,0l0,0l0,0l0,0l0,0l0,0l0,0l0,0l0,0l0,0l0,0
				l0,0l0,0l0,0l0,0l0,0l0,0l0,0l0,0l0,0l0,0l0,0l0,0l-0.1-0.1l0,0l0,0l0,0l0,0l0,0l0,0l-0.1-0.1l0,0l0,0l0,0l0,0l0,0l0,0l0,0l0,0
				l0,0l-0.1-0.1l0,0l0,0l0,0l0,0l-0.3-0.1l-0.1,0l0,0l0,0l-0.1,0l-0.1,0l-0.1,0l0,0l0,0l-0.2-0.1l-0.1,0l0,0l0,0l-0.1,0l-0.1,0l0,0
				l-0.1,0l0,0l-0.1,0l0,0l-0.1,0l0,0l-0.1,0l0,0l-0.1,0l0,0l-0.1,0l0,0l-0.1,0l0,0l-0.1,0l0,0l-0.1,0l0,0l-0.1,0l0,0l-0.1,0l0,0
				l-0.1,0l-0.1,0l-0.1,0l-0.1,0l-0.1,0l0,0l-0.1,0l0,0l-0.1,0l0,0l-0.1,0l0,0l-0.1,0l0,0l-0.1,0l0,0l-0.1,0l0,0l-0.1,0l0,0l-0.1,0
				l0,0l-0.1,0l0,0l-0.1,0l0,0l-0.1,0l-0.1,0l0,0l-0.1,0l0,0l-0.1,0l-0.1,0l-0.1,0l-0.1,0l0,0l-0.1,0l0,0l-0.1,0l0,0l-0.1,0l0,0
				l-0.1,0l0,0l-0.1,0l0,0l-0.1,0l0,0l-0.1,0l0,0l-0.1,0l0,0l0,0c-0.1,0-0.2,0-0.3,0l0,0l-0.1,0l-0.1,0l0,0l-0.1,0l0,0l-0.1,0
				l-0.1,0l-0.1,0l-0.1,0l0,0l-0.1,0l0,0l-0.1,0l0,0l-0.1,0l0,0l-0.2,0l0,0l-0.1,0l0,0l-0.1,0l0,0l-0.1,0h0l-0.1,0l0,0l0,0l0,0
				l-0.1,0l0,0l-0.1,0l0,0l-0.1,0l-0.1,0l-0.1,0l0,0l-0.1,0l0,0l-0.1,0l0,0l-0.1,0l0,0l0,0l0,0l-0.1,0l-0.1,0l0,0l-0.2,0l-0.1,0l0,0
				l0,0l-0.1,0l0,0l-0.1,0l0,0l0,0l-0.1,0l0,0l0,0l-0.1,0l0,0l-0.1,0l-0.1,0l0,0l0,0l-0.1,0l0,0l0,0l-0.1,0l0,0l0,0l-0.1,0l0,0l0,0
				l-0.1,0l0,0l0,0l-0.1,0l0,0l-0.1,0l-0.1,0l0,0l-0.1,0l0,0l0,0l-0.1,0l0,0l0,0l-0.1,0l0,0l-0.1,0l0,0l-0.1,0l-0.1,0l0,0l-0.1,0
				l0,0l0,0l-0.1,0l0,0l0,0l-0.1,0l0,0l-0.1,0l0,0l0,0l-0.1,0l0,0l-0.1,0l0,0l-0.1,0l0,0l0,0l-0.1,0l0,0l0,0c-0.1,0-0.1,0-0.2,0l0,0
				l0,0l-0.1,0l0,0l-0.1,0l0,0c-0.1,0-0.1,0-0.2,0l0,0l0,0c-0.1,0-0.1,0-0.2,0l0,0l-0.1,0l0,0l-0.1,0l0,0l0,0l0,0l0,0l0,0l0,0l0,0
				l0,0l0,0l0,0l0,0l0,0l0,0l0,0l0,0l0,0l0,0l0,0l0,0l0,0l0,0l0,0l0,0l0,0l0,0l0,0l0,0l0,0l0,0l0,0l0,0l0,0l0,0l0,0l0,0l0,0l0,0l0,0
				l0,0l0,0l0,0l0,0l0,0l0,0l0,0l0,0l0,0l0,0l0,0l0,0l0,0l0,0l0,0l0,0l0,0l0,0l0,0l0,0l0,0l0,0l0,0l0,0l0,0l0,0l0,0l0,0l0,0l-0.1,0
				c-0.6,0.1-1.3,0.1-2.2,0.1c-2.8,0-5.8-0.4-6.6-1c-0.7-0.4,0.2-0.8,1.9-0.9c-1.5-0.2-2.8-0.5-3.3-0.8c-0.9-0.5,0.7-1,3.5-1
				c0.1,0,0.2,0,0.3,0c-0.1-0.1-0.2-0.1-0.3-0.2c-0.9-0.5,0.7-1,3.5-1c0.6,0,1.2,0,1.7,0.1c-0.5-0.5,1-0.9,3.7-0.9l0.1,0h0h0h0l0,0
				h0l0.1,0l0,0h0h0l0,0l0.1,0l0,0h0l0,0l0,0l0.1,0l0,0l0,0l0,0l0,0l0,0l0,0l0,0l0,0l0,0l0,0l0,0l0,0l0,0l0,0l0,0l0,0l0,0l0,0l0,0
				l0,0l0,0l0,0l0,0l0,0l0,0l0,0l0,0l0,0l0,0l0,0l0.1,0l0,0l0.1,0l0,0L25.9,175.8L25.9,175.8L25.9,175.8z M28.1,182.1L28.1,182.1
				c0.1,0,0.2,0,0.4,0.1l0,0l0.1,0l0.1,0l0,0l0.1,0l0.1,0l0,0l0.1,0l0,0l0.1,0l0,0l0.1,0l0.1,0l0,0l0.1,0l0,0l0.1,0l0,0l0.1,0l0,0
				l0,0l0.1,0l0,0l0.1,0l0,0l0,0l0.1,0l0,0l0,0l0.1,0l0,0l0.1,0l0,0l0,0l0.1,0l0,0l0.1,0l0,0l0.1,0l0,0l0.1,0l0,0l0.1,0l0,0l0.1,0
				l0.1,0l0,0l0.1,0l0,0l0.1,0l0.1,0l0,0l0.1,0l0.1,0l0.1,0l0,0l0.1,0l0,0l0.1,0l0.1,0l0,0l0.1,0l0,0l0.1,0l0.1,0l0,0l0.1,0l0,0
				l0.1,0l0.1,0l0,0l0.1,0l0,0l0.1,0l0.1,0l0,0l0.1,0l0,0l0.1,0l0.1,0l0,0l0.1,0l0.1,0l0,0l0.1,0l0,0l0.1,0l0,0l0.1,0l0,0l0,0l0,0
				l0.1,0l0,0l0,0l0.1,0l0,0l0.1,0l0,0l0,0l0.1,0l0,0l-0.2-0.1l0,0l0,0l0,0l0,0l0,0l0,0l0,0l-0.3-0.1l0,0l0,0l0,0l0,0l0,0l0,0l0,0
				l0,0l0,0l0,0l0,0l0,0l0,0l0,0l0,0l0,0l0,0l0,0l0,0l0,0l0,0l0,0l0,0h0l0,0l0,0l0,0l0,0l0,0l0,0l0,0l0,0l0,0l0,0l0,0l0,0l0,0l0,0
				l0,0l0,0l0,0l0,0l0,0l0,0l0,0l0,0l0,0l0,0l-0.1,0l0,0l0,0l0,0l0,0l0,0l0,0l0,0l0,0l0,0l0,0l0,0l0,0l-0.1,0l0,0l-0.1,0l0,0l0,0
				l-0.1,0l0,0l-0.1,0l0,0l0,0l0,0l0,0l0,0l0,0l0,0l0,0l0,0l0,0l0,0h0l-0.1,0l0,0l0,0l-0.1,0l0,0l-0.1,0l0,0l0,0l-0.1,0l0,0l-0.1,0
				l0,0l0,0l0,0l0,0l0,0l-0.1,0l0,0l0,0l0,0l0,0l0,0l0,0l0,0l0,0l0,0l0,0l0,0l-0.1,0c-0.6,0.1-1.4,0.1-2.3,0.1h0h0h0h0h0h0h0h0l0,0
				h0h0h0h0h0h0h0h0h0h0h0h0h0h0h0L28.1,182.1L28.1,182.1L28.1,182.1L28.1,182.1L28.1,182.1L28.1,182.1L28.1,182.1L28.1,182.1
				L28.1,182.1L28.1,182.1L28.1,182.1L28.1,182.1L28.1,182.1L28.1,182.1L28.1,182.1L28.1,182.1L28.1,182.1L28.1,182.1L28.1,182.1
				L28.1,182.1L28.1,182.1L28.1,182.1L28.1,182.1L28.1,182.1L28.1,182.1L28.1,182.1L28.1,182.1L28.1,182.1L28.1,182.1z"/>
		</g>
		<path id="XMLID_98_" class="st4" d="M285.1,175.9L285.1,175.9L285.1,175.9l0.1,0l0,0l0.1,0l0,0l0,0l0,0l0.1,0l0,0l0,0l0.1,0l0,0
			l0,0l0,0l0.1,0l0.1,0l0,0l0,0l0.1,0l0,0l0.1,0l0,0l0,0l0,0l0,0l0,0l0,0l0,0l0,0l0,0l0.1,0h0l0,0c0.1,0,0.1,0,0.2,0l0,0h0
			c0.1,0,0.1,0,0.2,0l0,0l0,0l0.1,0l0,0l0,0c0.1,0,0.1,0,0.2,0h0h0c0.1,0,0.1,0,0.2,0c0.1,0,0.1,0,0.2,0l0.1,0c0,0,0.1,0,0.1,0l0,0
			c0.1,0,0.1,0,0.2,0l0,0c0.1,0,0.1,0,0.2,0l0,0c0,0,0.1,0,0.1,0l0,0c0.1,0,0.1,0,0.2,0l0.1,0l0.1,0l0.1,0c0.1,0,0.1,0,0.2,0l0,0
			l0,0c0,0,0.1,0,0.1,0l0.1,0l0.1,0l0.1,0c0.1,0,0.1,0,0.2,0l0.1,0l0.1,0l0.1,0c0.1,0,0.1,0,0.2,0l0,0h0l0,0c0.1,0,0.1,0,0.2,0
			l0.1,0l0.1,0l0,0c0.1,0,0.1,0,0.2,0l0.1,0l0.1,0l0.1,0l0.1,0l0.1,0c0,0,0.1,0,0.1,0l0.1,0l0.1,0l0.1,0c0,0,0.1,0,0.1,0l0.1,0
			l0.1,0l0.1,0l0.1,0l0.1,0c0.1,0,0.1,0,0.2,0l0.1,0l0.1,0l0.1,0l0.1,0c0,0,0.1,0,0.1,0l0.1,0l0.1,0l0.1,0l0.1,0l0,0
			c0,0,0.1,0,0.1,0l0.1,0l0.1,0l0.1,0l0,0c0.1,0,0.1,0,0.2,0l0,0l0.1,0l0.1,0l0.1,0l0,0c0.1,0,0.1,0,0.2,0l0.1,0l0.1,0l0,0
			c0,0,0.1,0,0.1,0c0,0,0.1,0,0.1,0l0,0l0.1,0l0.1,0l0.1,0l0,0c0.1,0,0.2,0,0.3,0.1l0,0c0.1,0,0.2,0,0.3,0.1l0,0l0.1,0l0,0
			c0.1,0,0.2,0,0.3,0.1l0,0c0,0,0.1,0,0.1,0l0,0l0.1,0c4.2,0,8.8,0.8,10.3,1.7c0,0,0,0,0.1,0l0,0c0,0,0,0,0,0l0,0c0,0,0,0,0,0l0,0
			c0,0,0,0,0,0l0,0c0,0,0,0,0,0l0,0c0,0,0,0,0,0l0,0c0,0,0,0,0,0l0,0c0,0,0,0,0,0l0,0c0,0,0,0,0,0l0,0c0,0,0,0,0,0l0,0c0,0,0,0,0,0
			l0,0l0,0c0,0,0,0,0,0l0,0c0,0,0,0,0,0l0,0c0,0,0,0,0,0l0,0l0,0c0,0,0,0,0,0l0,0l0,0l0,0c0,0,0,0,0,0l0,0c0,0,0,0,0,0l0,0l0,0l0,0
			c0,0,0,0,0,0l0,0l0,0l0,0c0,0,0,0,0,0l0,0c0,0,0,0,0,0l0,0l0,0l0,0c0,0,0,0,0,0l0,0l0,0l0,0l0,0l0,0l0,0l0,0l0,0l0,0l0,0l0,0
			c0,0,0,0-0.1,0l0,0l0,0l0,0l0,0l0,0c0,0,0,0-0.1,0l0,0l0,0l0,0l0,0l0,0c0,0,0,0-0.1,0l0,0l-0.1,0l0,0l0,0l-0.1,0l-0.1,0l-0.1,0
			l-0.1,0l0,0l-0.1,0l-0.1,0c0,0-0.1,0-0.1,0l0,0l-0.1,0l-0.1,0l-0.1,0c0,0-0.1,0-0.1,0l-0.1,0l-0.1,0l-0.1,0l-0.1,0l-0.1,0
			c0,0,0,0,0,0v0l0,0l0,0v0l0,0l0,0l0,0l0,0l0,0l0,0l0,0l0,0l0,0l0,0v0l0,0v0l0,0l0,0l0,0l0,0l0,0l0,0v0l0,0l0,0l0,0l0,0l0,0l0,0
			l0,0l0,0l0,0l0,0l0,0l0,0l0,0l0,0l0,0l0,0l0,0l0,0l0,0l0,0l0,0l0,0l0,0l0,0l0,0l0,0l0,0l0,0l0,0c-0.5,0.4-1.9,0.7-3.9,0.8
			c1.9,0.9,3.5,1.8,4.8,2.6c2,1.3,3.1,2.4,2.7,3.1c-0.1,0.2-0.8,0.2-1.6,0.1c-0.8-0.1-1.3-0.3-1.2-0.5c0.3-0.5-0.7-1.5-2.5-2.7
			c-0.2-0.1-0.4-0.2-0.6-0.4c-1.5-0.2-3.9-0.6-6.9-1.3l0,0c-1.4-0.3-3-0.7-4.6-1.3c-3.3-0.2-6.4-0.9-7.6-1.6c0,0,0,0-0.1,0l0,0
			c0,0,0,0-0.1,0l0,0c0,0,0,0,0,0l0,0c0,0,0,0,0,0l0,0c0,0,0,0,0,0l0,0h0l0,0c0,0,0,0,0,0l0,0c0,0,0,0,0,0l0,0c0,0,0,0,0,0l0,0
			c0,0,0,0,0,0l0,0c0,0,0,0,0,0l0,0l0,0v0c0,0,0,0,0,0l0,0c0,0,0,0,0,0l0,0c0,0,0,0,0,0l0,0c0,0,0,0,0,0l0,0c0,0,0,0,0,0l0,0l0,0
			l0,0c0,0,0,0,0,0l0,0c0,0,0,0,0,0l0,0c0,0,0,0,0,0l0,0c0,0,0,0,0,0l0,0c0,0,0,0,0,0l0,0l0,0c0,0,0,0,0,0l0,0c0,0,0,0,0,0l0,0
			c0,0,0,0,0,0l0,0c0,0,0,0,0,0l0,0c0,0,0,0,0,0l0,0l0,0l0,0c0,0,0,0,0,0l0,0c0,0,0,0,0.1,0l0,0c0,0,0,0,0.1,0l0,0c0,0,0,0,0.1,0
			l0,0c0,0,0,0,0.1,0l0,0c0,0,0,0,0.1,0l0,0c0,0,0,0,0.1,0l0,0c0,0,0,0,0.1,0l0,0c0,0,0,0,0.1,0l0,0c0,0,0,0,0.1,0l0,0l0,0
			c0,0,0.1,0,0.1,0l0,0c0,0,0.1,0,0.1,0l0,0c0,0,0,0,0.1,0l0,0c0,0,0.1,0,0.1,0l0,0c0,0,0.1,0,0.1,0l0,0l0,0c0,0,0,0-0.1,0l0,0
			c0,0-0.1,0-0.1,0l0,0c0,0-0.1,0-0.1,0l0,0c0,0-0.1,0-0.1,0l0,0c0,0-0.1,0-0.1,0l0,0c0,0-0.1,0-0.1,0l0,0c0,0-0.1,0-0.1,0l0,0l0,0
			c0,0-0.1,0-0.1,0l0,0c0,0-0.1,0-0.1,0l0,0l0,0c0,0-0.1,0-0.1,0l0,0l0,0c0,0-0.1,0-0.1,0l0,0c0,0,0,0-0.1,0l0,0l0,0l0,0
			c0,0,0,0-0.1,0C281.6,176.7,282.7,176.1,285.1,175.9L285.1,175.9z M294.7,181.1L294.7,181.1L294.7,181.1c-0.1,0-0.1,0-0.2,0l0,0
			l0,0c0,0-0.1,0-0.1,0l0,0l0,0c-0.1,0-0.1,0-0.2,0l0,0l0,0h0c-0.1,0-0.1,0-0.2,0l0,0l0,0c-0.1,0-0.1,0-0.2,0l0,0l0,0h0
			c-0.1,0-0.1,0-0.2,0h0h0l0,0c1,0.3,1.9,0.5,2.7,0.7l0,0l0,0c1.6,0.4,2.9,0.6,4,0.8c-0.8-0.4-1.7-0.9-2.7-1.3
			C296.7,181.2,295.7,181.2,294.7,181.1z"/>
		<path id="XMLID_94_" class="st5" d="M80.4,180.1c0.1,0.1-0.3,0.2-0.8,0.2c-0.5,0-0.9-0.2-1-0.3c-0.6-1.2-1.3-1.5-4-2.7
			c-0.9-0.4-1.6-0.8-2.3-1.3c-1-0.1-2.1-0.4-3.1-0.6c-0.8-0.2-1.6-0.5-2.3-0.8c-1.9-0.1-3.7-0.6-4.4-1.1c-0.9-0.6,0.2-1.2,2.5-1.2
			c0.3,0,0.6,0,0.9,0c-0.2-0.5,0.9-0.9,2.7-0.9c2.2,0,4.8,0.5,5.7,1.2c0.1,0.1,0.2,0.2,0.3,0.3c1.7,0.2,3.1,0.7,3.8,1.1
			c1,0.7-0.2,1.3-2.8,1.3c-0.9,0-1.8-0.1-2.6-0.2c0.2,0.1,0.4,0.3,0.5,0.4c0.8,0.5,1.7,1.1,2.7,1.6l0.2,0.1c0.4-0.1,0.9-0.1,1.2-0.3
			c0.1-0.1,0.2-0.1,0.3-0.2c-0.2,0-0.4,0-0.5-0.1c-1.4-0.2-2.2-0.7-1.7-1c0.3-0.2,1.3-0.3,2.4-0.2c-0.1-0.1,0-0.2,0.1-0.3
			c0.4-0.3,1.6-0.3,2.9-0.1c1.2,0.2,1.9,0.6,1.5,0.9c0,0-0.1,0.1-0.2,0.1c0.9,0.2,1.3,0.5,1,0.7c-0.1,0.1-0.3,0.1-0.6,0.2
			c-0.2,0.3-0.7,0.5-1.4,0.6c-0.8,0.1-1.7,0.1-2.6,0c-0.1,0-0.2,0-0.3,0c-0.3,0.1-0.6,0.1-0.8,0.1C79.3,178.6,79.9,179,80.4,180.1
			L80.4,180.1z M79.6,176.8c0,0.1-0.1,0.2-0.2,0.3c0.2,0,0.3,0,0.5,0c0.3,0,0.5-0.1,0.6-0.2c-0.1,0-0.2,0-0.2,0
			c-0.2,0-0.4-0.1-0.5-0.1C79.7,176.8,79.7,176.8,79.6,176.8L79.6,176.8z M71.5,175.4c-0.3-0.2-0.6-0.5-0.8-0.7
			c-0.3-0.1-0.6-0.2-0.8-0.3c-0.3,0.1-0.7,0.1-1.1,0.1c0.5,0.2,1,0.4,1.5,0.5C70.7,175.2,71.1,175.3,71.5,175.4z"/>
		<path id="XMLID_91_" class="st4" d="M261.5,172.4c3.2,0,6.5,0.6,7.4,1.3l0,0l0,0l0,0l0,0l0,0l0,0l0,0l0,0l0,0l0,0l0,0l0,0l0,0l0,0
			l0,0l0,0l0,0l0,0l0,0l0,0l0,0l0,0l0,0l0,0l0,0l0,0l0,0l0,0l0,0l0,0l0,0l0,0l0,0l0,0l0,0l0,0l0,0l0,0l0,0l0,0l0,0l0,0l0,0l0,0l0,0
			l0,0l0,0l0,0l0,0l0,0v0c0,0.3-0.5,0.5-1.4,0.7c0.5,0.7,0.1,1.2-0.6,1.5c-0.6,0.3-1.4,0.4-2.1,0.4l0.2,0.1c1.6,1.1,3.2,2.3,3.9,3.3
			c0.1,0.1-0.2,0.2-0.7,0.2c-0.5,0-1-0.2-1.1-0.3c-0.7-1-2.2-2.2-3.8-3.2c-0.5-0.3-1-0.7-1.5-1c-2-0.1-4-0.3-5.3-0.7
			c-0.2,0-0.5,0-0.8,0c-3.2,0-6.5-0.6-7.4-1.3c-0.6-0.4-0.1-0.8,1-1l0,0l0,0l0,0l0,0l0,0l0,0l0,0l0,0l0,0l0,0l0,0l0,0l0,0l0,0l0,0
			l0,0l0,0l0,0l0,0l0,0l0,0l0,0l0,0l0,0l0,0l0,0l0,0l0,0l0,0l0,0l0,0l0,0l0,0l0,0l0,0l0,0l0,0l0,0l0,0l0,0l0,0l0,0l0,0l0,0l0,0l0,0
			l0,0h0l0,0l0,0l0,0l0,0l0,0l0,0l0,0l0,0l0,0l0,0l0,0l0.1,0l0,0l0,0l0.1,0l0,0l0,0l0,0l0,0l0,0l0,0l0.1,0c0-0.5,1.6-0.9,4.2-0.9
			C257.6,171.6,260,171.9,261.5,172.4L261.5,172.4L261.5,172.4z M265.9,175.5c-0.6,0.1-1.3,0.2-2.1,0.2c0.2,0.1,0.3,0.2,0.5,0.3
			c0.4,0,0.9-0.1,1.2-0.3C265.7,175.7,265.8,175.6,265.9,175.5z"/>
		<g id="XMLID_85_">
			<path id="XMLID_86_" class="st4" d="M241.7,170.5L241.7,170.5L241.7,170.5L241.7,170.5c-0.1,0-0.1,0-0.1-0.1l0,0c0,0,0,0-0.1,0
				l0,0c0,0-0.1,0-0.1,0l0,0l0,0l0,0l0,0l0,0l-0.1,0l0,0l0,0l0,0l0,0l0,0l0,0l0,0l0,0l0,0l0,0l0,0l0,0l0,0l0,0l0,0l0,0l0,0l0,0l0,0
				l0,0l0,0l0,0l0,0l0,0l0,0l0,0l0,0l0,0l0,0l0,0l0,0l0,0l0,0l0,0l0,0l0,0l0,0l0,0l0,0l0,0l0,0l0,0l0,0l0,0l0,0l0,0l0,0l0,0l0,0l0,0
				l0,0l0,0l0,0l0,0l0,0l0,0l0,0l0,0l0,0l0,0l0,0l0,0l0,0h0l0,0h0l0,0h0l0,0h0l0,0c0.5-0.1,0.7-0.2,0.5-0.3
				c-0.3-0.2-1.5-0.3-2.8-0.3c-0.1,0-0.1,0-0.1,0c0,0,0,0,0-0.1c-0.3-0.2-1.5-0.3-2.8-0.3c-0.3,0-0.5,0-0.7,0l0,0h0l0,0l0,0l0,0l0,0
				l0,0l0,0l0,0l0,0l0,0l0,0l0,0l0,0l0,0l0,0l0,0l0,0l0,0l0,0l0,0l0,0l0,0l0,0l0,0l0,0l0,0l0,0l0,0l0,0l0,0l0,0l0,0l0,0l0,0l0,0l0,0
				l0,0l0,0l0,0l0,0l0,0l0,0l0,0l0,0l0,0l0,0l0,0l0,0l0,0l0,0l0,0l0,0l0,0l0,0l0,0l0,0l0,0l0,0l0,0l0,0l0,0l0,0l0,0l0,0l0,0l0,0l0,0
				l0,0l0,0l0,0l0,0l0,0l0,0l0,0l0,0l0,0l0,0l0,0c0,0-0.1,0-0.1,0l0,0l0,0l0,0h0l0,0l0,0l0,0l0,0l0,0l0,0l0,0l0,0l0,0l0,0
				c0,0-0.1,0-0.1,0l0,0l0,0l0,0l0,0l0,0l0,0l0,0c-0.1,0-0.1,0-0.2,0l0,0l0,0l0,0l0,0l0,0l0,0l0,0l0,0h0l-0.1,0h0l-0.1,0
				c-0.2,0-0.5,0-0.7,0l0,0h0l0,0l0,0l0,0c-0.1,0-0.3,0-0.4,0l0,0l0,0l0,0c-0.1,0-0.1,0-0.2,0l0,0l0,0l0,0l0,0l0,0l0,0l0,0l0,0v0
				l0,0l0,0l0,0l0,0l0,0l0,0l0,0l0,0l0,0l0,0l0,0l0,0l0,0l0,0l0,0l0,0l0,0l0,0l0,0l0,0l0,0l0,0l0,0l0,0l0,0l0,0l0,0l0,0l0,0l0,0l0,0
				l0,0l0,0l0,0l0,0l0,0l0,0l0,0l0,0l0,0l0,0l0,0l0,0l0,0l0,0l0,0l0,0l0,0l0,0v0l0,0l0,0v0l0,0l0,0v0l0,0l0,0l0,0c0,0,0,0,0,0l0,0
				l0,0l0,0l0,0l0,0c0,0,0,0,0,0h0h0l0,0h0l0,0h0h0l0,0h0h0l0,0h0h0h0l0,0h0h0l0,0h0h0h0l0,0h0h0h0l0,0h0l0,0h0h0l0,0h0h0h0l0,0h0h0
				h0l0,0h0h0h0h0l0,0h0h0h0l0,0h0h0h0l0,0h0h0h0h0h0l0,0h0h0h0l0,0h0h0h0l0,0h0h0h0h0h0h0l0,0h0h0h0h0h0h0h0l0,0h0l0,0h0h0h0l0,0h0
				h0h0h0h0h0h0h0h0h0h0l0,0h0c-1.3,0-2.1,0.1-1.8,0.3c0.1,0,0.2,0.1,0.4,0.1l0,0l0,0l0,0l0,0l0,0l0,0l0,0l0,0l0,0l0,0l0,0l0,0l0,0
				l0,0l0,0l0,0l0,0l0,0l0,0l0,0l0,0l0,0l0,0l0,0l0,0l0,0l0,0l0,0l0,0l0,0l0,0l0,0l0,0l0,0l0,0l0,0l0,0l0,0l0,0l0,0l0,0l0,0l0,0l0,0
				l0,0l0,0l0,0l0,0l0,0l0,0h0l0,0l0,0l0,0h0l0,0l0,0l0,0h0l0,0l0,0l0,0h0l0,0l0,0l0,0h0l0,0l0,0l0,0h0l0,0l0,0l0,0l0,0l0,0l0,0
				c-0.2,0.1-0.3,0.1-0.2,0.2l0,0h0l0,0h0l0,0h0l0,0h0l0,0l0,0h0l0,0h0l0,0l0,0h0l0,0h0h0l0,0l0,0h0h0l0,0h0l0,0h0l0,0h0l0,0h0l0,0
				h0l0,0h0l0,0h0l0,0h0l0,0h0h0h0l0,0h0l0,0h0l0,0h0h0l0,0h0h0l0,0h0l0,0h0h0h0l0,0h0h0l0,0l0,0h0l0,0h0h0h0l0,0h0h0h0h0l0,0h0l0,0
				h0h0h0l0,0h0h0h0l0,0h0h0h0h0h0l0,0h0h0h0l0,0h0h0h0h0h0h0h0l0,0h0h0h0h0h0h0h0h0l0,0h0c-1.3,0-2.1,0.1-1.8,0.3
				c0.3,0.2,1.5,0.3,2.8,0.3c0.1,0,0.1,0,0.2,0c0.3,0.1,0.9,0.2,1.5,0.2c0.4,0.2,1.1,0.4,1.7,0.5c0.9,0.2,1.9,0.3,2.8,0.4
				c0,0,0,0.1,0,0.1c0.1,0.3,0.4,0.5,0.9,0.8c0.1,0.1,0.4,0.1,0.7,0.1c0.3,0,0.4-0.1,0.2-0.1c-0.5-0.2-0.7-0.4-0.8-0.7
				c0-0.1-0.1-0.2-0.1-0.4c0.8,0,1.9-0.1,2.7-0.3c0.3-0.1,0.5-0.2,0.6-0.3c0.1,0,0.2-0.1,0.2-0.1c0.4,0,0.7,0,1.1,0
				C241.3,170.9,242.1,170.7,241.7,170.5C241.8,170.5,241.7,170.5,241.7,170.5L241.7,170.5z M231.2,169L231.2,169L231.2,169
				c-0.2,0-0.3,0-0.4,0c-0.1,0-0.1,0-0.2,0L231.2,169L231.2,169z M234.4,171.2c0,0.1,0,0.3,0,0.4c-0.7,0-1.5-0.1-2.2-0.3
				c-0.5-0.1-0.9-0.2-1.3-0.4h0c0.1,0,0.2,0,0.4,0c0.4,0.2,1.5,0.3,2.7,0.3C234.2,171.2,234.3,171.2,234.4,171.2L234.4,171.2z
				 M235.4,171.1c0.2,0,0.4-0.1,0.4-0.1c0.4,0,0.8,0,1.2,0l0.1,0c-0.5,0.1-1.1,0.2-1.7,0.2C235.4,171.2,235.4,171.2,235.4,171.1z"/>
		</g>
		<g id="XMLID_79_">
			<path id="XMLID_80_" class="st5" d="M105.7,169C105.7,169,105.7,169,105.7,169L105.7,169z M105.7,169L105.7,169
				C105.7,169,105.7,169,105.7,169L105.7,169z M108.1,172.5c0.3-0.1,0-0.4-0.6-0.8c-0.1-0.1-0.2-0.1-0.3-0.2c-0.9,0-2.3-0.1-3.6-0.3
				c-0.7-0.1-1.3-0.2-1.9-0.4c-1.7-0.1-3.2-0.3-3.6-0.6c0,0,0,0,0,0l0,0c0,0,0,0,0,0l0,0c0,0,0,0,0,0l0,0c0,0,0,0,0,0l0,0
				c0,0,0,0,0,0l0,0h0l0,0c0,0,0,0,0,0l0,0c0,0,0,0,0,0l0,0c0,0,0,0,0,0l0,0c0,0,0,0,0,0l0,0c0,0,0,0,0,0v0v0c0,0,0,0,0,0l0,0
				c0,0,0,0,0,0l0,0c0,0,0,0,0,0l0,0c0,0,0,0,0,0l0,0c0,0,0,0,0,0l0,0l0,0l0,0c0,0,0,0,0,0l0,0c0,0,0,0,0,0l0,0c0,0,0,0,0,0l0,0
				c0,0,0,0,0,0l0,0c0,0,0,0,0,0l0,0l0,0c0,0,0,0,0,0l0,0c0,0,0,0,0,0l0,0l0,0l0,0c0,0,0,0,0,0l0,0c0,0,0,0,0,0l0,0l0,0l0,0
				c0,0,0,0,0,0l0,0c0,0,0,0,0,0l0,0c0,0,0,0,0,0l0,0l0,0l0,0c0,0,0,0,0,0l0,0l0,0l0,0l0,0l0,0c0,0,0,0,0,0l0,0l0,0l0,0l0,0l0,0
				c0,0,0,0,0,0l0,0l0,0l0,0c0,0,0,0,0,0l0,0l0,0l0,0l0,0l0,0c0,0,0,0,0,0l0,0c0,0,0,0,0,0l0,0c0,0,0,0,0,0l0,0c0,0,0,0,0,0l0,0l0,0
				c0,0,0,0,0,0l0,0c0,0,0,0,0,0l0,0c0,0,0,0,0,0l0,0l0,0c0,0,0,0-0.1,0l0,0l0,0l0,0c0,0,0,0,0,0l0,0l0,0l0,0c0,0,0,0,0,0l0,0l0,0
				l0,0c0,0,0,0,0,0c-0.5-0.3,0.5-0.6,2.3-0.7l0,0l0,0l0,0l0,0l0,0l0,0l0,0l0,0l0,0l0,0l0,0l0,0l0,0l0,0l0,0l0.1,0l0,0l0,0h0l0,0
				l0,0l0,0l0,0l0,0l0,0l0,0l0.1,0l0,0h0l0,0l0.1,0h0h0l0,0h0l0.1,0l0,0h0l0.1,0c0,0,0.1,0,0.1,0l0,0c0,0,0.1,0,0.1,0l0,0
				c0,0,0.1,0,0.1,0l0,0c0,0,0,0,0.1,0l0,0c0,0,0.1,0,0.1,0l0,0l0,0c0,0,0.1,0,0.1,0l0,0l0.1,0l0,0c0,0,0.1,0,0.1,0l0,0
				c0,0,0.1,0,0.1,0l0,0c0,0,0.1,0,0.1,0l0,0c0,0,0.1,0,0.1,0l0,0l0.1,0l0,0c0,0,0.1,0,0.1,0l0,0h0l0,0c0,0,0.1,0,0.1,0l0,0l0.1,0
				l0,0c0,0,0.1,0,0.1,0l0,0l0,0l0,0l0.1,0l0,0c0,0,0.1,0,0.1,0l0,0l0.1,0l0,0c0,0,0.1,0,0.1,0l0,0l0,0l0,0l0,0l0,0c0,0,0.1,0,0.1,0
				l0,0l0.1,0l0,0l0.1,0l0.1,0l0,0l0,0l0,0l0,0l0,0c0,0,0,0,0.1,0l0,0l0,0l0,0l0,0c0,0,0,0,0.1,0l0,0l0,0l0,0l0,0l0,0
				c0,0,0.1,0,0.1,0l0,0l0,0l0,0l0,0c0,0,0,0,0.1,0l0,0l0,0l0,0l0,0c0,0,0.1,0,0.1,0l0,0c0,0,0,0,0,0c0,0,0,0,0.1,0c0,0,0,0,0,0l0,0
				l0,0l0,0c0,0,0.1,0,0.1,0l0,0l0,0l0,0l0,0h0h0c2.3,0,4.5,0.3,5.1,0.7c0,0,0,0,0,0l0,0c0,0,0,0,0,0l0,0c0,0,0,0,0,0l0,0
				c0,0,0,0,0,0l0,0c0,0,0,0,0,0l0,0c0,0,0,0,0,0l0,0c0,0,0,0,0,0l0,0c0,0,0,0,0,0l0,0c0,0,0,0,0,0l0,0c0,0,0,0,0,0l0,0c0,0,0,0,0,0
				l0,0c0,0,0,0,0,0l0,0c0,0,0,0,0,0l0,0c0,0,0,0,0,0l0,0v0l0,0c0,0,0,0,0,0l0,0c0,0,0,0,0,0l0,0c0,0,0,0,0,0l0,0l0,0l0,0l0,0l0,0
				c0,0,0,0,0,0l0,0c0,0,0,0,0,0l0,0c0,0,0,0,0,0l0,0c0,0,0,0,0,0l0,0l0,0l0,0l0,0l0,0c0,0,0,0,0,0l0,0l0,0l0,0c0,0,0,0,0,0l0,0l0,0
				l0,0l0,0l0,0c0,0,0,0,0,0l0,0l0,0l0,0l0,0l0,0l0,0c0,0,0,0,0,0l0,0l0,0l0,0l0,0l0,0c0,0,0,0,0,0l0,0l0,0l0,0l0,0l0,0c0,0,0,0,0,0
				l0,0l0,0l0,0l0,0l0,0c0,0,0,0-0.1,0l0,0l0,0l0,0l0,0l0,0c0,0,0,0-0.1,0l0,0l0,0l0,0l0,0l0,0l0,0l0,0l0,0v0l0,0l0,0l0,0v0l0,0l0,0
				l0,0l0,0l0,0v0l0,0l0,0l0,0v0l0,0l0,0l0,0l0,0l0,0l0,0l0,0l0,0l0,0l0,0l0,0l0,0l0,0l0,0l0,0l0,0l0,0l0,0l0,0l0,0l0,0l0,0l0,0l0,0
				l0,0l0,0l0,0l0,0l0,0l0,0l0,0l0,0l0,0l0,0l0,0l0,0l0,0l0,0l0,0l0,0l0,0l0,0l0,0l0,0l0,0l0,0l0,0l0,0l0,0l0,0l0,0l0,0l0,0l0,0h0
				c-0.4,0.1-1.1,0.2-2.1,0.3c0.7,0.3,1.3,0.6,1.7,0.8c0.6,0.4,0.9,0.8,0.6,0.9c-0.1,0.1-0.5,0.1-0.9,0
				C108.2,172.6,108,172.5,108.1,172.5L108.1,172.5z M105.8,170.9c-0.6,0-1.1,0-1.6-0.1h0l0,0c0,0-0.1,0-0.1,0l0,0c0,0-0.1,0-0.1,0
				l0,0l0,0c0,0-0.1,0-0.1,0l0,0l0,0c0,0-0.1,0-0.1,0h0l0,0c0,0-0.1,0-0.1,0l0,0h0c0,0-0.1,0-0.1,0h0h0h0l-0.1,0
				c0.3,0.1,0.5,0.1,0.8,0.2c0.8,0.1,1.7,0.2,2.3,0.2C106.4,171.1,106.1,171,105.8,170.9z"/>
		</g>
		<polygon id="XMLID_78_" class="st1" points="29.3,200.5 324.2,200.5 210,167.8 143.5,167.8 		"/>
		<polygon id="XMLID_77_" class="st6" points="49,200.5 304.5,200.5 205.6,167.8 147.9,167.8 		"/>
		<polygon id="XMLID_76_" class="st1" points="60.6,200.5 292.9,200.5 203,167.8 150.5,167.8 		"/>
		<path id="XMLID_71_" class="st6" d="M171.6,200.5h10.3l-1.6-12.9h-7.2L171.6,200.5L171.6,200.5z M180.1,186.2l-0.9-7.2h-5.1
			l-0.9,7.2H180.1L180.1,186.2z M179.1,177.6l-0.7-5.3H175l-0.7,5.3H179.1L179.1,177.6z M178.3,170.8l-0.4-3h-2.3l-0.4,3H178.3z"/>
		<g id="XMLID_60_">
			<path id="XMLID_65_" class="st7" d="M-4.6,184.4c0.7-0.1,1.1-0.7,1-1.3c-0.1-0.7-0.7-1.1-1.3-1c0,0-0.1,0-0.2,0
				c-0.6,0-1.3-0.2-1.9-0.8c-0.6-0.5-1.1-1.4-1.3-2.5c0-0.2,0-0.3,0-0.5c0-0.7-0.6-1.2-1.2-1.2c-0.7,0-1.2,0.6-1.2,1.2
				c0,0.3,0,0.5,0.1,0.8c0.2,1.8,1.1,3.1,2.1,4c1.1,0.9,2.4,1.4,3.5,1.3C-4.9,184.5-4.7,184.4-4.6,184.4z"/>
			<g id="XMLID_61_">
				<path id="XMLID_64_" class="st7" d="M-2.5,193.7c-0.2,0.9-1,1.4-1.9,1.3c-0.9-0.2-1.4-1-1.3-1.9c0.5-2.6,1-8.6,1.1-14.8
					c0.1-4.6-0.2-9.4-0.8-12.7c-0.2-0.9,0.4-1.7,1.3-1.9c0.9-0.2,1.7,0.4,1.9,1.3c0.7,3.6,0.9,8.5,0.8,13.3
					C-1.5,184.6-2,190.9-2.5,193.7z"/>
				<path id="XMLID_63_" class="st8" d="M4,151.9c2.4,1.5,3.9,4,3.9,6.8c0,0.6-0.1,1.1-0.2,1.6c3,1.4,5,4.2,5,7.4
					c0,4.6-4.2,8.3-9.4,8.4c-1.5,2.8-4.8,4.8-8.6,4.8c-2.4,0-4.7-0.8-6.4-2.1c-0.8,0.2-1.7,0.3-2.7,0.3c-5.3,0-9.5-3.8-9.5-8.4
					c0-3.1,1.9-5.7,4.6-7.2c-0.3-0.8-0.4-1.6-0.4-2.4c0-3.4,2.2-6.3,5.5-7.6c-0.5-1-0.7-2.1-0.7-3.2c0-4.6,4.3-8.4,9.5-8.4
					s9.5,3.8,9.5,8.4C4.1,150.8,4.1,151.4,4,151.9z"/>
				<path id="XMLID_62_" class="st9" d="M4,151.9c2.4,1.5,3.9,4,3.9,6.8c0,0.6-0.1,1.1-0.2,1.6c3,1.4,5,4.2,5,7.4
					c0,0.8-0.1,1.7-0.4,2.4c-0.8,0.2-1.7,0.3-2.6,0.4c-1.5,2.8-4.8,4.8-8.6,4.8c-2.4,0-4.7-0.8-6.4-2.1c-0.8,0.2-1.7,0.3-2.7,0.3
					c-5.3,0-9.5-3.8-9.5-8.4c0-3.1,1.9-5.7,4.6-7.2c-0.3-0.8-0.4-1.6-0.4-2.4c0-3.4,2.2-6.3,5.5-7.6c-0.5-1-0.7-2.1-0.7-3.2
					c0-0.8,0.1-1.7,0.4-2.4c0.9-0.2,1.8-0.4,2.7-0.4c5.3,0,9.5,3.8,9.5,8.4C4.1,150.8,4.1,151.4,4,151.9z"/>
			</g>
		</g>
		<g id="XMLID_54_">
			<path id="XMLID_59_" class="st7" d="M43.7,177.8c-0.6,0.1-1.2-0.3-1.3-0.9c-0.1-0.6,0.3-1.2,0.9-1.3c1.6-0.3,3.2-1.2,4.4-2.9
				c1-1.4,1.7-3.4,1.7-5.9c0-0.6,0.5-1.1,1.1-1.1c0.6,0,1.1,0.5,1.1,1.1c0,3-0.8,5.4-2.1,7.2C48,176.2,45.7,177.5,43.7,177.8z"/>
			<path id="XMLID_58_" class="st7" d="M42.2,172.9c0.6,0.1,1,0.7,0.9,1.3c-0.1,0.6-0.7,1-1.3,0.9c-1.8-0.4-5-1.3-7.4-3.5
				c-1.7-1.5-3-3.5-3.4-6.2c-0.1-0.6,0.3-1.1,0.9-1.2c0.6-0.1,1.1,0.3,1.2,0.9c0.3,2.1,1.3,3.7,2.7,4.8
				C37.9,171.7,40.6,172.5,42.2,172.9z"/>
			<path id="XMLID_57_" class="st7" d="M45.2,186.2c-0.1,0.6-0.6,1-1.2,0.9c-0.6-0.1-1-0.6-0.9-1.2c0.3-2.2,0.1-4.3-0.5-7
				c-0.7-2.7-1.8-6.2-3.6-11c-0.2-0.6,0.1-1.2,0.7-1.4c0.6-0.2,1.2,0.1,1.4,0.7c1.8,4.9,3,8.4,3.7,11.2
				C45.4,181.4,45.5,183.7,45.2,186.2z"/>
			<path id="XMLID_56_" class="st8" d="M31.3,167.7c-0.7,0.3-1.5,0.4-2.4,0.4c-2.8,0-5.1-1.5-5.1-3.4c0-1.5,1.4-2.7,3.4-3.2
				c-1.2-0.6-2-1.6-2-2.7c0-1.9,2.3-3.4,5.1-3.4c0.1,0,0.2,0,0.3,0c0-0.2-0.1-0.4-0.1-0.6c0-1.9,2.3-3.4,5.1-3.4
				c0.6,0,1.1,0.1,1.6,0.2c0.3-1.7,2.4-3,5.1-3c2.8,0,5.1,1.5,5.1,3.4c0,0.1,0,0.1,0,0.2c0.3,0,0.5,0,0.8,0c2.8,0,5.1,1.5,5.1,3.4
				c0,0.7-0.3,1.3-0.8,1.8c0.7,0.6,1.1,1.3,1.1,2.1c0.3,0,0.7-0.1,1.1-0.1c2.8,0,5.1,1.5,5.1,3.4c0,1.9-2.3,3.4-5.1,3.4
				c-0.1,0-0.3,0-0.4,0c-0.5,1.5-2.5,2.6-5,2.6c-0.3,0-0.6,0-0.8,0c-0.2,1.7-2.4,3.1-5.1,3.1c-2.2,0-4-0.9-4.8-2.2
				c-0.7,0.3-1.6,0.4-2.5,0.4C33.9,170,31.9,169,31.3,167.7z"/>
			<path id="XMLID_55_" class="st9" d="M39.1,164.8c-0.7,0.3-1.5,0.4-2.4,0.4c-2.8,0-5.1-1.5-5.1-3.4c0-1.5,1.4-2.7,3.4-3.2
				c-1.2-0.6-2-1.6-2-2.7c0-1.9,2.3-3.4,5.1-3.4c0.1,0,0.2,0,0.3,0c0-0.2-0.1-0.4-0.1-0.6c0-1.8,2.1-3.3,4.7-3.4
				c2.5,0.2,4.4,1.6,4.4,3.4c0,0.1,0,0.1,0,0.2c0.3,0,0.5,0,0.8,0c2.8,0,5.1,1.5,5.1,3.4c0,0.7-0.3,1.3-0.8,1.8
				c0.7,0.6,1.1,1.3,1.1,2.1c0.3,0,0.7-0.1,1.1-0.1c2.8,0,5.1,1.5,5.1,3.4c0,1.5-1.4,2.7-3.3,3.2c-0.1,0-0.1,0-0.2,0c0,0,0,0,0,0.1
				c-0.5,0.1-1,0.2-1.6,0.2c-0.1,0-0.3,0-0.4,0c-0.5,1.5-2.5,2.6-5,2.6h0c-1.3-0.4-2.4-1.1-2.9-1.9c-0.7,0.3-1.6,0.4-2.5,0.4
				C41.6,167.2,39.7,166.2,39.1,164.8z"/>
		</g>
		<g id="XMLID_41_">
			<path id="XMLID_53_" class="st7" d="M81.8,171c-0.4-0.2-0.6-0.7-0.4-1.1c0.2-0.4,0.7-0.6,1.1-0.4c0,0,0.1,0,0.1,0
				c0.4,0.1,0.9,0.1,1.4-0.1c0.5-0.2,1.1-0.6,1.4-1.3c0-0.1,0.1-0.2,0.1-0.4c0.2-0.4,0.6-0.7,1.1-0.5c0.4,0.2,0.7,0.6,0.5,1.1
				c-0.1,0.2-0.1,0.3-0.2,0.5c-0.6,1.1-1.4,1.8-2.3,2.1c-0.9,0.4-1.9,0.3-2.6,0.1C82,171.1,81.9,171.1,81.8,171z"/>
			<path id="XMLID_52_" class="st7" d="M79.4,164.3c0.4,0.2,0.6,0.7,0.4,1.1c-0.2,0.4-0.7,0.6-1.1,0.4c-0.9-0.4-1.9-1.3-2.7-2.5
				c-0.6-1-1.1-2.2-1.3-3.6c-0.1-0.5,0.3-0.9,0.7-0.9c0.5-0.1,0.9,0.3,0.9,0.7c0.2,1.2,0.5,2.2,1.1,2.9
				C78,163.3,78.7,163.9,79.4,164.3z"/>
			<path id="XMLID_51_" class="st7" d="M80.7,179.6c-0.1,0.4-0.6,0.7-1,0.6c-0.4-0.1-0.7-0.6-0.6-1c1-4.2,0.7-5.1-0.3-9.3
				c-0.4-1.8-0.6-3.9-0.6-5.8c0-3,0.3-5.8,0.5-6.9c0.1-0.5,0.5-0.8,1-0.7c0.5,0.1,0.8,0.5,0.7,1c-0.2,1-0.5,3.6-0.4,6.5
				c0,1.8,0.2,3.8,0.6,5.4C81.5,174,81.8,175.2,80.7,179.6z"/>
			<g id="XMLID_48_">
				<path id="XMLID_50_" class="st8" d="M80.8,149.6c2.2,0,4.1,1.8,4.1,4.1c0,0.4,0,0.7-0.1,1c1.3,0.8,2.2,2.3,2.2,4
					c0,2.6-2.1,4.7-4.7,4.7c-2,0-3.8-1.3-4.4-3.1c-0.5,0.3-1.2,0.4-1.8,0.4c-2.2,0-4.1-1.8-4.1-4.1s1.8-4.1,4.1-4.1
					c0.3,0,0.6,0,0.9,0.1C77.3,150.9,78.9,149.6,80.8,149.6z"/>
				<path id="XMLID_49_" class="st9" d="M76.6,153c0.3,0,0.6,0,0.9,0.1c0.1-1.7,1.5-3.1,3.2-3.1c1.8,0,3.2,1.4,3.2,3.2
					c0,0.6-0.1,1.1-0.4,1.5c1.4,0.4,2.5,1.7,2.5,3.2c0,1.8-1.5,3.3-3.3,3.3c-1.8,0-3.3-1.4-3.3-3.2c-0.6,0.9-1.6,1.6-2.8,1.6
					c-1.8,0-3.3-1.5-3.3-3.3C73.2,154.5,74.7,153,76.6,153z"/>
			</g>
			<path id="XMLID_47_" class="st7" d="M80.1,171.7c-0.5,0.1-0.9-0.2-0.9-0.7c-0.1-0.5,0.2-0.9,0.7-0.9c0.6-0.1,1.5-0.5,2.2-1.1
				c0.5-0.4,0.8-1,0.8-1.7c0-0.5,0.4-0.8,0.9-0.8c0.5,0,0.8,0.4,0.8,0.9c-0.1,1.2-0.6,2.1-1.4,2.8C82.3,171,81,171.5,80.1,171.7z"/>
			<g id="XMLID_42_">
				<path id="XMLID_46_" class="st8" d="M87.8,168.5c-0.7,0.9-2.1,1.1-3,0.3c-0.1-0.1-0.3-0.2-0.4-0.4c-0.8,0.3-1.7,0.1-2.3-0.4
					c-1.1-0.8-1.2-2.4-0.4-3.4c0.7-0.8,1.8-1.1,2.7-0.8c0.1-0.3,0.2-0.6,0.4-0.9c0.7-0.9,2.1-1.1,3-0.3c0.9,0.7,1.1,2.1,0.3,3
					c-0.1,0.1-0.2,0.2-0.3,0.3C88.4,166.7,88.4,167.7,87.8,168.5z"/>
				<circle id="XMLID_45_" class="st9" cx="86.8" cy="164" r="1.7"/>
				<circle id="XMLID_44_" class="st9" cx="84.2" cy="165.7" r="1.7"/>
				<circle id="XMLID_43_" class="st9" cx="86.3" cy="167" r="1.7"/>
			</g>
		</g>
		<g id="XMLID_36_">
			<path id="XMLID_40_" class="st7" d="M269.8,167.9c-0.5,0.1-0.9-0.2-1-0.7c-0.1-0.5,0.2-0.9,0.7-1c0.6-0.1,1.4-0.4,2.2-1.1
				c0.8-0.8,1.6-2.1,2.1-4.2c0.1-0.5,0.6-0.8,1-0.7c0.5,0.1,0.8,0.6,0.7,1c-0.5,2.6-1.5,4.2-2.6,5.1
				C271.8,167.3,270.6,167.7,269.8,167.9z"/>
			<path id="XMLID_39_" class="st7" d="M267.8,158.9c0-0.5,0.3-0.9,0.8-1c0.5,0,0.9,0.3,1,0.8c0.2,2,0.5,5.4,0.6,9.3
				c0.1,3.8,0,8-0.6,11.6c-0.1,0.5-0.5,0.8-1,0.7c-0.5-0.1-0.8-0.5-0.7-1c0.6-3.4,0.7-7.5,0.6-11.2
				C268.3,164.3,268,160.9,267.8,158.9z"/>
			<path id="XMLID_38_" class="st8" d="M272.3,152.9c3.2,0,5.7,1.9,5.7,4.3c0,1.8-1.4,3.3-3.4,4c-0.6,1.9-2.9,3.4-5.6,3.4
				c-2.3,0-4.3-1-5.2-2.5c-0.3,0-0.5,0-0.8,0c-3.2,0-5.7-1.9-5.7-4.3c0-2,1.8-3.7,4.2-4.2c0.7-1.8,2.9-3.1,5.5-3.1
				C269.4,150.4,271.4,151.4,272.3,152.9L272.3,152.9z"/>
			<path id="XMLID_37_" class="st9" d="M272.3,152.9c3.2,0,5.7,1.9,5.7,4.3c0,0.4-0.1,0.8-0.2,1.2c-0.3,0.2-0.6,0.3-1,0.4
				c-0.2,0.8-0.8,1.5-1.5,2.1c-0.2,0.1-0.4,0.2-0.7,0.3c0,0.1,0,0.1-0.1,0.2c-0.9,0.5-2.1,0.8-3.3,0.8c-2.3,0-4.3-1-5.2-2.5
				c-0.3,0-0.5,0-0.8,0c-3.2,0-5.7-1.9-5.7-4.3c0-0.4,0.1-0.8,0.2-1.2c0.5-0.3,1.1-0.5,1.8-0.7c0.7-1.8,2.9-3.1,5.5-3.1
				C269.4,150.4,271.4,151.4,272.3,152.9L272.3,152.9z"/>
		</g>
		<g id="XMLID_25_">
			<path id="XMLID_35_" class="st7" d="M352.8,179.4c-1.1,0-2-0.9-2-2s0.9-2,2-2c1.6,0,4.4-1,6.7-3.3c1.6-1.6,2.9-3.9,3.3-7
				c0.1-1.1,1.1-1.9,2.3-1.8c1.1,0.1,1.9,1.1,1.8,2.3c-0.5,4.1-2.3,7.2-4.5,9.4C359.3,178.1,355.2,179.4,352.8,179.4z"/>
			<path id="XMLID_34_" class="st7" d="M355.2,191.7c0.7,0.9,0.4,2.2-0.5,2.8c-0.9,0.7-2.2,0.4-2.8-0.5c-1.8-2.5-2.5-7.3-2.4-12.5
				c0.2-5.5,1.2-11.7,2.9-16.4c0.4-1.1,1.5-1.6,2.6-1.2c1.1,0.4,1.6,1.5,1.2,2.6c-1.5,4.3-2.5,10.1-2.7,15.2
				C353.5,186.1,353.9,190,355.2,191.7z"/>
			<g id="XMLID_30_">
				<path id="XMLID_31_" class="st8" d="M359.3,169.8L359.3,169.8L359.3,169.8c0.1,0,0.2,0,0.3,0l0,0c0.1,0,0.2,0,0.2,0l0,0l0,0
					c0.1,0,0.2,0,0.2,0l0,0l0,0c0.1,0,0.2,0,0.3,0l0,0l0,0c0.1,0,0.2,0,0.3,0l0,0l0,0c0.1,0,0.2,0,0.3,0l0,0l0,0l0,0
					c0.1,0,0.2,0,0.3,0l0,0c0.1,0,0.2,0,0.3,0h0h0h0c0.1,0,0.2,0,0.3,0c6.4,0,11.6-4,11.6-8.8c0-0.1,0-0.1,0-0.2l0-0.1
					c0-0.1,0-0.1,0-0.2l0,0c0-0.1,0-0.1,0-0.2l0,0c0-0.1,0-0.1,0-0.2l0,0c0-0.1,0-0.1,0-0.2l0,0l0,0l0,0c0-0.1,0-0.1,0-0.2l0,0
					c0-0.1,0-0.1,0-0.2l0,0c0-0.1,0-0.1,0-0.2l0,0c0-0.1,0-0.1-0.1-0.2l0,0c0-0.1,0-0.1-0.1-0.2l0,0l0,0c0-0.1,0-0.1-0.1-0.2l0,0
					c0-0.1,0-0.1-0.1-0.2l0,0c0-0.1,0-0.1-0.1-0.2l0,0c0-0.1-0.1-0.1-0.1-0.2l0-0.1c0,0,0-0.1-0.1-0.1l0,0l0,0l0,0
					c0-0.1-0.1-0.1-0.1-0.2l0,0c0-0.1-0.1-0.1-0.1-0.2l0,0c0,0-0.1-0.1-0.1-0.1l0,0c0-0.1-0.1-0.1-0.1-0.2l0-0.1
					c0-0.1-0.1-0.1-0.1-0.1l0,0l0,0c0-0.1-0.1-0.1-0.1-0.2l0,0c0-0.1-0.1-0.1-0.1-0.2l0,0l-0.1-0.1l0,0c0,0-0.1-0.1-0.1-0.1l0,0
					c0,0-0.1-0.1-0.1-0.1l-0.1-0.1l-0.1-0.1l-0.1-0.1c0,0-0.1-0.1-0.1-0.1l0,0c0,0-0.1-0.1-0.1-0.1l0,0c0,0-0.1-0.1-0.1-0.1l-0.1,0
					l-0.1-0.1l-0.1,0c0,0-0.1-0.1-0.1-0.1l-0.1,0l-0.1-0.1l-0.1-0.1l-0.1-0.1l-0.1-0.1c-0.1,0-0.1-0.1-0.2-0.1l-0.1,0l-0.1-0.1
					l-0.1-0.1l-0.1-0.1l-0.1,0c-0.1,0-0.1-0.1-0.2-0.1l-0.1,0l-0.1-0.1l-0.1,0c-0.1,0-0.1-0.1-0.2-0.1l-0.1,0l-0.1-0.1l0,0l0.1-0.1
					l0,0c0-0.1,0-0.1,0.1-0.2l0,0c0-0.1,0-0.1,0.1-0.2l0,0c0-0.1,0-0.1,0.1-0.2l0,0c0-0.1,0-0.1,0.1-0.2l0,0l0,0c0-0.1,0-0.1,0-0.2
					l0,0c0-0.1,0-0.1,0-0.2l0,0c0-0.1,0-0.1,0-0.2l0,0l0,0c0-0.1,0-0.3,0.1-0.4l0,0l0,0l0,0c0-0.1,0-0.1,0-0.2l0,0l0,0l0,0
					c0-0.1,0-0.1,0-0.2l0,0v0v0c0-0.1,0-0.1,0-0.2c0-4.9-5.2-8.8-11.6-8.8c-0.1,0-0.2,0-0.3,0l-0.1,0c-0.1,0-0.1,0-0.2,0l-0.1,0
					c-0.1,0-0.2,0-0.3,0l-0.1,0c-0.1,0-0.1,0-0.2,0l-0.1,0c-0.1,0-0.1,0-0.2,0l0,0l0,0c-0.1,0-0.2,0-0.2,0l-0.1,0l-0.2,0l-0.1,0
					c-0.1,0-0.2,0-0.3,0l-0.1,0c-0.1,0-0.1,0-0.2,0l-0.1,0c-0.1,0-0.1,0-0.2,0l0,0c-0.1,0-0.2,0-0.3,0.1l0,0l-0.2,0l-0.1,0
					c-0.1,0-0.1,0-0.2,0.1l0,0h0l0,0c-0.1,0-0.2,0-0.2,0.1l-0.1,0l-0.2,0.1l-0.1,0c-0.1,0-0.1,0-0.2,0.1l-0.1,0l-0.1,0l-0.1,0
					l-0.1,0.1l-0.1,0c-0.1,0-0.1,0.1-0.2,0.1l-0.1,0l-0.1,0.1l-0.1,0c-0.1,0-0.1,0.1-0.2,0.1l-0.1,0l-0.1,0.1l-0.1,0.1l-0.1,0
					l-0.1,0c-0.1,0-0.1,0.1-0.2,0.1l-0.1,0l-0.1,0.1l-0.1,0l-0.1,0.1l-0.1,0.1l-0.1,0.1l-0.1,0.1l-0.1,0.1l-0.1,0.1l-0.1,0.1
					c-0.1,0-0.1,0.1-0.2,0.1l-0.1,0l-0.1,0.1l-0.1,0.1l-0.1,0.1c0,0-0.1,0.1-0.1,0.1l0,0l-0.1,0.1l-0.1,0.1l-0.1,0.1l-0.1,0
					c-0.1,0.1-0.1,0.1-0.2,0.2l0,0l-0.1,0.1l0,0l-0.1,0.1c0,0-0.1,0.1-0.1,0.1l-0.1,0.1l-0.1,0.1l-0.1,0.1l0,0
					c-0.1,0.1-0.2,0.2-0.3,0.3l0,0c0,0-0.1,0.1-0.1,0.1c0,0-0.1,0.1-0.1,0.1c0,0-0.1,0.1-0.1,0.1l0,0l-0.1,0.1l0,0.1
					c-0.1,0.1-0.1,0.1-0.2,0.2l0,0l-0.1,0.1l0,0l-0.1,0.1l0,0l-0.1,0c-6.4,0-11.6,4-11.6,8.8c0,0.1,0,0.1,0,0.2l0,0.1
					c0,0,0,0.1,0,0.1l0,0.1c0,0.1,0,0.1,0,0.2l0,0c0,0.1,0,0.1,0,0.2l0,0.1c0,0,0,0.1,0,0.1l0,0.1c0,0.1,0,0.1,0,0.2l0,0
					c0,0.1,0,0.1,0,0.2l0,0.1c0,0.1,0,0.1,0,0.2l0,0c0,0.1,0,0.1,0.1,0.2l0,0c0,0.1,0,0.1,0,0.2l0,0.1c0,0.1,0,0.1,0.1,0.2l0,0
					c0,0.1,0,0.1,0.1,0.2l0,0.1c0,0,0,0.1,0.1,0.1l0,0.1c0,0.1,0.1,0.1,0.1,0.2l0,0l0,0l0,0c0,0.1,0.1,0.1,0.1,0.2l0,0.1
					c0,0,0,0.1,0.1,0.1l0,0.1c0,0.1,0.1,0.1,0.1,0.2l0,0.1l0.1,0.1l0,0.1l0.1,0.1l0,0.1c0,0.1,0.1,0.1,0.1,0.2l0,0
					c0,0,0.1,0.1,0.1,0.1l0,0.1c0,0,0.1,0.1,0.1,0.1l0,0c0,0.1,0.1,0.1,0.1,0.2l0.1,0.1l0.1,0.1l0.1,0.1l0.1,0.1l0.1,0.1
					c0,0,0.1,0.1,0.1,0.1l0.1,0.1l0.1,0.1l0.1,0c0,0,0.1,0.1,0.1,0.1l0.1,0.1l0.1,0.1l0.1,0.1l0.1,0.1l0.1,0.1c0,0,0.1,0.1,0.1,0.1
					l0.1,0.1l0.1,0.1l0.1,0.1l0.1,0.1l0.1,0.1l0,0c0,0,0.1,0.1,0.1,0.1l0,0l0.1,0.1l0.1,0.1l0.1,0.1l0.1,0.1c0,0,0.1,0.1,0.1,0.1
					l0.1,0.1l0.1,0.1l0.1,0.1l0.1,0.1l0.1,0.1c0.1,0,0.1,0.1,0.2,0.1l0.1,0.1l0.1,0.1l0.1,0l0.1,0.1l0.1,0c0.1,0,0.1,0.1,0.2,0.1
					l0.1,0l0.1,0l0.1,0l0.1,0l0,0c0.1,0,0.1,0,0.2,0.1l0,0l0.1,0l0.1,0l0.1,0l0.1,0l0.1,0c1.2,3.9,5.8,6.8,11.3,6.8
					C355.5,171,357.5,170.6,359.3,169.8L359.3,169.8z M347.5,146.5l-0.1,0.1C347.4,146.6,347.4,146.5,347.5,146.5z"/>
			</g>
			<g id="XMLID_26_">
				<path id="XMLID_27_" class="st9" d="M372.8,164.2c0.5-0.9,0.7-2,0.7-3c0-0.1,0-0.1,0-0.2l0-0.1c0-0.1,0-0.1,0-0.2l0,0
					c0-0.1,0-0.1,0-0.2l0,0c0-0.1,0-0.1,0-0.2l0,0c0-0.1,0-0.1,0-0.2l0,0l0,0l0,0c0-0.1,0-0.1,0-0.2l0,0c0-0.1,0-0.1,0-0.2l0,0
					c0-0.1,0-0.1,0-0.2l0,0c0-0.1,0-0.1-0.1-0.2l0,0c0-0.1,0-0.1-0.1-0.2l0,0l0,0c0-0.1,0-0.1-0.1-0.2l0,0c0-0.1,0-0.1-0.1-0.2l0,0
					c0-0.1,0-0.1-0.1-0.2l0,0c0-0.1-0.1-0.1-0.1-0.2l0-0.1c0,0,0-0.1-0.1-0.1l0,0l0,0l0,0c0-0.1-0.1-0.1-0.1-0.2l0,0
					c0-0.1-0.1-0.1-0.1-0.2l0,0c0,0-0.1-0.1-0.1-0.1l0,0c0-0.1-0.1-0.1-0.1-0.2l0-0.1c0-0.1-0.1-0.1-0.1-0.1l0,0l0,0
					c0-0.1-0.1-0.1-0.1-0.2l0,0c0-0.1-0.1-0.1-0.1-0.2l0,0l-0.1-0.1l0,0c0,0-0.1-0.1-0.1-0.1l0,0c0,0-0.1-0.1-0.1-0.1l-0.1-0.1
					l-0.1-0.1l-0.1-0.1c0,0-0.1-0.1-0.1-0.1l0,0c0,0-0.1-0.1-0.1-0.1l0,0c0,0-0.1-0.1-0.1-0.1l-0.1,0l-0.1-0.1l-0.1,0
					c0,0-0.1-0.1-0.1-0.1l-0.1,0l-0.1-0.1l-0.1-0.1l-0.1-0.1l-0.1-0.1c-0.1,0-0.1-0.1-0.2-0.1l-0.1,0l-0.1-0.1l-0.1-0.1l-0.1-0.1
					l-0.1,0c-0.1,0-0.1-0.1-0.2-0.1l-0.1,0l-0.1-0.1l-0.1,0c-0.1,0-0.1-0.1-0.2-0.1l-0.1,0l-0.1-0.1l0,0l0.1-0.1l0,0
					c0-0.1,0-0.1,0.1-0.2l0,0c0-0.1,0-0.1,0.1-0.2l0,0c0-0.1,0-0.1,0.1-0.2l0,0c0-0.1,0-0.1,0.1-0.2l0,0l0,0c0-0.1,0-0.1,0-0.2l0,0
					c0-0.1,0-0.1,0-0.2l0,0c0-0.1,0-0.1,0-0.2l0,0l0,0c0-0.1,0-0.3,0.1-0.4l0,0l0,0l0,0c0-0.1,0-0.1,0-0.2l0,0l0,0l0,0
					c0-0.1,0-0.1,0-0.2l0,0v0v0c0-0.1,0-0.1,0-0.2c0-4.9-5.2-8.8-11.6-8.8c-0.1,0-0.2,0-0.3,0l-0.1,0c-0.1,0-0.1,0-0.2,0l-0.1,0
					c-0.1,0-0.2,0-0.3,0l-0.1,0c-0.1,0-0.1,0-0.2,0l-0.1,0c-0.1,0-0.1,0-0.2,0l0,0l0,0c-0.1,0-0.2,0-0.2,0l-0.1,0l-0.2,0l-0.1,0
					c-0.1,0-0.2,0-0.3,0l-0.1,0c-0.1,0-0.1,0-0.2,0l-0.1,0c-0.1,0-0.1,0-0.2,0l0,0c-0.1,0-0.2,0-0.3,0.1l0,0l-0.2,0l-0.1,0
					c-0.1,0-0.1,0-0.2,0.1l0,0h0l0,0c-0.1,0-0.2,0-0.2,0.1l-0.1,0l-0.2,0.1l-0.1,0c-0.1,0-0.1,0-0.2,0.1l-0.1,0l-0.1,0l-0.1,0
					l-0.1,0.1l-0.1,0c-0.1,0-0.1,0.1-0.2,0.1l-0.1,0l-0.1,0.1l-0.1,0c-0.1,0-0.1,0.1-0.2,0.1l-0.1,0l-0.1,0.1l-0.1,0.1l-0.1,0
					l-0.1,0c-0.1,0-0.1,0.1-0.2,0.1l-0.1,0l-0.1,0.1l-0.1,0l-0.1,0.1l-0.1,0.1l-0.1,0.1l-0.1,0.1l-0.1,0.1l-0.1,0.1l-0.1,0.1
					c-0.1,0-0.1,0.1-0.2,0.1l-0.1,0l-0.1,0.1l-0.1,0.1l-0.1,0.1c0,0-0.1,0.1-0.1,0.1l0,0l-0.1,0.1l-0.1,0.1l-0.1,0.1l-0.1,0
					c-0.1,0.1-0.1,0.1-0.2,0.2l0,0l-0.1,0.1l0,0l-0.1,0.1c0,0-0.1,0.1-0.1,0.1l-0.1,0.1l-0.1,0.1l-0.1,0.1l0,0
					c-0.1,0.1-0.2,0.2-0.3,0.3l0,0c0,0-0.1,0.1-0.1,0.1c0,0-0.1,0.1-0.1,0.1c0,0-0.1,0.1-0.1,0.1l0,0l-0.1,0.1l0,0.1
					c-0.1,0.1-0.1,0.1-0.2,0.2l0,0l-0.1,0.1l0,0l-0.1,0.1l0,0l-0.1,0c-2.5,0-4.8,0.6-6.8,1.6c-0.5,0.9-0.7,2-0.7,3
					c0,0.1,0,0.1,0,0.2l0,0.1c0,0,0,0.1,0,0.1l0,0.1c0,0.1,0,0.1,0,0.2l0,0c0,0.1,0,0.1,0,0.2l0,0.1c0,0,0,0.1,0,0.1l0,0.1
					c0,0.1,0,0.1,0,0.2l0,0c0,0.1,0,0.1,0,0.2l0,0.1c0,0.1,0,0.1,0,0.2l0,0c0,0.1,0,0.1,0.1,0.2l0,0c0,0.1,0,0.1,0,0.2l0,0.1
					c0,0.1,0,0.1,0.1,0.2l0,0c0,0.1,0,0.1,0.1,0.2l0,0.1c0,0,0,0.1,0.1,0.1l0,0.1c0,0.1,0.1,0.1,0.1,0.2l0,0l0,0l0,0
					c0,0.1,0.1,0.1,0.1,0.2l0,0.1c0,0,0,0.1,0.1,0.1l0,0.1c0,0.1,0.1,0.1,0.1,0.2l0,0.1l0.1,0.1l0,0.1l0.1,0.1l0,0.1
					c0,0.1,0.1,0.1,0.1,0.2l0,0c0,0,0.1,0.1,0.1,0.1l0,0.1c0,0,0.1,0.1,0.1,0.1l0,0c0,0.1,0.1,0.1,0.1,0.2l0.1,0.1l0.1,0.1l0.1,0.1
					l0.1,0.1l0.1,0.1c0,0,0.1,0.1,0.1,0.1l0.1,0.1l0.1,0.1l0.1,0c0,0,0.1,0.1,0.1,0.1l0.1,0.1l0.1,0.1l0.1,0.1l0.1,0.1l0.1,0.1
					c0,0,0.1,0.1,0.1,0.1l0.1,0.1l0.1,0.1l0.1,0.1l0.1,0.1l0.1,0.1l0,0c0,0,0.1,0.1,0.1,0.1l0,0l0.1,0.1l0.1,0.1l0.1,0.1l0.1,0.1
					c0,0,0.1,0.1,0.1,0.1l0.1,0.1l0.1,0.1l0.1,0.1l0.1,0.1l0.1,0.1c0.1,0,0.1,0.1,0.2,0.1l0.1,0.1l0.1,0.1l0.1,0l0.1,0.1l0.1,0
					c0.1,0,0.1,0.1,0.2,0.1l0.1,0l0.1,0l0.1,0l0.1,0l0,0c0.1,0,0.1,0,0.2,0.1l0,0l0.1,0l0.1,0l0.1,0l0.1,0l0.1,0
					c1.2,3.9,5.8,6.8,11.3,6.8c2.2,0,4.2-0.5,5.9-1.2l0,0l0.1,0c0.1,0,0.2,0,0.2,0l0,0c0.1,0,0.2,0,0.2,0l0,0l0,0c0.1,0,0.2,0,0.2,0
					l0,0l0,0c0.1,0,0.2,0,0.3,0l0,0l0,0c0.1,0,0.2,0,0.3,0l0,0l0,0c0.1,0,0.2,0,0.3,0l0,0l0,0l0,0c0.1,0,0.2,0,0.3,0l0,0
					c0.1,0,0.2,0,0.3,0l0,0h0h0c0.1,0,0.2,0,0.3,0C368.6,165.8,370.9,165.2,372.8,164.2L372.8,164.2z M347.5,146.5l-0.1,0.1
					C347.4,146.6,347.4,146.5,347.5,146.5z"/>
			</g>
		</g>
		<g id="XMLID_20_">
			<path id="XMLID_24_" class="st7" d="M309,172.8c0.6,0.3,0.9,1.1,0.6,1.7c-0.3,0.6-1.1,0.9-1.7,0.6c-1.2-0.6-3.2-1.9-5.3-4.6l0,0
				c-1.4-1.8-2.8-4.1-4.1-7.3c-0.3-0.7,0.1-1.4,0.7-1.7c0.7-0.3,1.4,0.1,1.7,0.7c1.2,2.9,2.5,5.1,3.7,6.7l0,0l0,0
				C306.4,171.2,308,172.3,309,172.8z"/>
			<path id="XMLID_23_" class="st7" d="M308,186.6c-0.4,0.6-1.2,0.8-1.8,0.4c-0.6-0.4-0.8-1.2-0.4-1.8c1.1-1.7,1.7-5.1,1.7-9.1
				c0-4.3-0.6-9.2-1.7-13.5c-0.2-0.7,0.2-1.4,0.9-1.6c0.7-0.2,1.4,0.2,1.6,0.9c1.2,4.5,1.8,9.7,1.8,14.2
				C310.1,180.6,309.4,184.4,308,186.6z"/>
			<path id="XMLID_22_" class="st8" d="M304.2,166.4L304.2,166.4L304.2,166.4c-0.1,0-0.1,0-0.2,0l0,0l0,0c-0.1,0-0.1,0-0.2,0l0,0
				l0,0c-0.1,0-0.1,0-0.2,0l0,0l0,0l0,0c-0.1,0-0.1,0-0.2,0l0,0l0,0c-0.1,0-0.1,0-0.2,0l0,0l0,0h0c-0.1,0-0.1,0-0.2,0h0l0,0
				c-0.1,0-0.1,0-0.2,0l0,0c-0.1,0-0.1,0-0.2,0l0,0h0h0c-0.1,0-0.1,0-0.2,0c-4.2,0-7.6-2.6-7.6-5.8c0,0,0-0.1,0-0.1l0,0
				c0,0,0-0.1,0-0.1l0,0c0,0,0-0.1,0-0.1l0,0c0,0,0-0.1,0-0.1l0,0c0,0,0-0.1,0-0.1l0,0l0,0l0,0c0,0,0-0.1,0-0.1l0,0c0,0,0-0.1,0-0.1
				l0,0c0,0,0-0.1,0-0.1l0,0c0,0,0-0.1,0-0.1l0,0c0,0,0-0.1,0-0.1l0,0l0,0l0,0c0,0,0-0.1,0-0.1l0,0c0,0,0-0.1,0-0.1l0,0
				c0,0,0-0.1,0-0.1l0,0c0,0,0-0.1,0.1-0.1l0,0c0,0,0-0.1,0.1-0.1l0,0l0,0l0,0c0,0,0-0.1,0.1-0.1l0,0c0,0,0-0.1,0.1-0.1l0,0
				c0,0,0-0.1,0.1-0.1l0,0c0,0,0-0.1,0.1-0.1l0,0c0,0,0-0.1,0.1-0.1l0,0l0,0c0,0,0.1-0.1,0.1-0.1l0,0c0,0,0.1-0.1,0.1-0.1l0,0
				c0,0,0-0.1,0.1-0.1l0,0c0,0,0.1-0.1,0.1-0.1l0,0c0,0,0.1-0.1,0.1-0.1l0,0l0,0l0,0c0,0,0.1-0.1,0.1-0.1l0,0c0,0,0.1-0.1,0.1-0.1
				l0,0c0,0,0.1-0.1,0.1-0.1l0,0c0,0,0.1-0.1,0.1-0.1l0,0c0,0,0.1-0.1,0.1-0.1l0,0c0,0,0.1-0.1,0.1-0.1l0,0c0,0,0.1-0.1,0.1-0.1l0,0
				c0,0,0.1,0,0.1-0.1l0,0c0,0,0.1,0,0.1-0.1l0,0c0,0,0.1,0,0.1-0.1l0,0l0,0c0,0,0.1,0,0.1-0.1l0,0c0,0,0.1,0,0.1-0.1l0,0
				c0,0,0.1,0,0.1-0.1l0,0c0,0,0.1,0,0.1-0.1l0,0c0,0,0.1,0,0.1-0.1l0,0l0,0c0,0,0-0.1,0-0.1l0,0c0,0,0-0.1,0-0.1l0,0
				c0,0,0-0.1,0-0.1l0,0c0,0,0-0.1,0-0.1l0,0c0,0,0-0.1,0-0.1l0,0c0,0,0-0.1,0-0.1l0,0c0,0,0-0.1,0-0.1l0,0l0,0c0,0,0-0.1,0-0.1l0,0
				c0,0,0-0.1,0-0.1l0,0l0,0c0,0,0-0.1,0-0.1v0l0,0c0,0,0-0.1,0-0.1l0,0c0,0,0-0.1,0-0.1l0,0v0v0c0,0,0-0.1,0-0.1
				c0-3.2,3.4-5.8,7.6-5.8c0.1,0,0.1,0,0.2,0l0.1,0c0,0,0.1,0,0.1,0l0,0c0.1,0,0.1,0,0.2,0l0,0c0.1,0,0.1,0,0.2,0l0,0
				c0,0,0.1,0,0.1,0l0,0c0.1,0,0.1,0,0.2,0l0.1,0l0.1,0l0.1,0c0.1,0,0.1,0,0.2,0l0,0l0,0c0,0,0.1,0,0.1,0l0,0l0.1,0l0,0
				c0.1,0,0.1,0,0.2,0l0.1,0l0.1,0l0.1,0c0,0,0.1,0,0.1,0l0,0h0l0,0c0.1,0,0.1,0,0.2,0l0,0l0.1,0l0,0c0,0,0.1,0,0.1,0l0.1,0l0.1,0
				l0.1,0l0.1,0l0.1,0c0,0,0.1,0,0.1,0l0.1,0l0.1,0l0.1,0c0,0,0.1,0,0.1,0l0.1,0l0.1,0l0.1,0l0.1,0l0.1,0c0,0,0.1,0,0.1,0.1l0.1,0
				l0.1,0l0.1,0l0.1,0c0,0,0.1,0,0.1,0.1l0.1,0l0.1,0l0,0l0.1,0l0,0c0,0,0.1,0,0.1,0.1l0.1,0l0,0l0.1,0.1l0,0c0.1,0,0.1,0.1,0.2,0.1
				l0,0l0.1,0.1l0,0l0.1,0.1l0,0c0,0,0.1,0.1,0.1,0.1l0,0l0.1,0.1l0,0c0,0,0,0,0.1,0.1c0,0,0.1,0.1,0.1,0.1l0,0l0.1,0.1l0,0l0.1,0.1
				l0,0c0.1,0.1,0.1,0.2,0.2,0.2l0,0c0.1,0.1,0.1,0.2,0.2,0.2l0,0l0.1,0.1l0,0c0.1,0.1,0.1,0.2,0.2,0.2l0,0c0,0,0,0.1,0,0.1l0,0
				l0.1,0c4.2,0,7.6,2.6,7.6,5.8c0,0,0,0.1,0,0.1l0,0c0,0,0,0.1,0,0.1l0,0c0,0,0,0.1,0,0.1l0,0c0,0,0,0.1,0,0.1l0,0c0,0,0,0.1,0,0.1
				l0,0c0,0,0,0.1,0,0.1l0,0c0,0,0,0.1,0,0.1l0,0c0,0,0,0.1,0,0.1l0,0c0,0,0,0.1,0,0.1l0,0c0,0,0,0.1,0,0.1l0,0c0,0,0,0.1,0,0.1l0,0
				l0,0c0,0,0,0.1,0,0.1l0,0c0,0,0,0.1,0,0.1l0,0c0,0,0,0.1-0.1,0.1l0,0l0,0c0,0,0,0.1-0.1,0.1l0,0l0,0.1l0,0c0,0,0,0.1-0.1,0.1l0,0
				c0,0,0,0.1-0.1,0.1l0,0l-0.1,0.1l0,0c0,0,0,0.1-0.1,0.1l0,0l-0.1,0.1l0,0c0,0,0,0.1-0.1,0.1l0,0c0,0-0.1,0.1-0.1,0.1l0,0
				l-0.1,0.1l0,0c0,0,0,0-0.1,0.1l-0.1,0.1l-0.1,0.1l0,0l-0.1,0.1l0,0l-0.1,0.1l-0.1,0.1l-0.1,0.1l0,0l-0.1,0.1l0,0
				c0,0-0.1,0.1-0.1,0.1l0,0l-0.1,0l-0.1,0l-0.1,0.1l0,0c0,0-0.1,0.1-0.1,0.1l-0.1,0l-0.1,0l-0.1,0l-0.1,0l-0.1,0c0,0-0.1,0-0.1,0.1
				l0,0l-0.1,0l-0.1,0l-0.1,0l-0.1,0l-0.1,0l-0.1,0l-0.1,0l-0.1,0l-0.1,0l-0.1,0c0,0-0.1,0-0.1,0.1l0,0l-0.1,0l-0.1,0l-0.1,0
				c0,0-0.1,0-0.1,0l-0.1,0l-0.1,0l-0.1,0l-0.1,0l-0.1,0c-0.8,2.6-3.8,4.5-7.4,4.5C306.7,167.2,305.4,166.9,304.2,166.4z"/>
			<path id="XMLID_21_" class="st9" d="M302.6,148.8c0.9-0.3,1.8-0.4,2.8-0.4c0.1,0,0.1,0,0.2,0l0.1,0c0,0,0.1,0,0.1,0l0,0
				c0.1,0,0.1,0,0.2,0l0,0c0.1,0,0.1,0,0.2,0l0,0c0,0,0.1,0,0.1,0l0,0c0.1,0,0.1,0,0.2,0l0.1,0l0.1,0l0.1,0c0.1,0,0.1,0,0.2,0l0,0
				l0,0c0,0,0.1,0,0.1,0l0,0l0.1,0l0,0c0.1,0,0.1,0,0.2,0l0.1,0l0.1,0l0.1,0c0,0,0.1,0,0.1,0l0,0h0l0,0c0.1,0,0.1,0,0.2,0l0,0l0.1,0
				l0,0c0,0,0.1,0,0.1,0l0.1,0l0.1,0l0.1,0l0.1,0l0.1,0c0,0,0.1,0,0.1,0l0.1,0l0.1,0l0.1,0c0,0,0.1,0,0.1,0l0.1,0l0.1,0l0.1,0l0.1,0
				l0.1,0c0,0,0.1,0,0.1,0.1l0.1,0l0.1,0l0.1,0l0.1,0c0,0,0.1,0,0.1,0.1l0.1,0l0.1,0l0,0l0.1,0l0,0c0,0,0.1,0,0.1,0.1l0.1,0l0,0
				l0.1,0.1l0,0c0.1,0,0.1,0.1,0.2,0.1l0,0l0.1,0.1l0,0l0.1,0.1l0,0c0,0,0.1,0.1,0.1,0.1l0,0l0.1,0.1l0,0c0,0,0,0,0.1,0.1
				c0,0,0.1,0.1,0.1,0.1l0,0l0.1,0.1l0,0l0.1,0.1l0,0c0.1,0.1,0.1,0.2,0.2,0.2l0,0c0.1,0.1,0.1,0.2,0.2,0.2l0,0l0.1,0.1l0,0
				c0.1,0.1,0.1,0.2,0.2,0.2l0,0c0,0,0,0.1,0,0.1l0,0l0.1,0c4.2,0,7.6,2.6,7.6,5.8c0,0,0,0.1,0,0.1l0,0c0,0,0,0.1,0,0.1l0,0
				c0,0,0,0.1,0,0.1l0,0c0,0,0,0.1,0,0.1l0,0c0,0,0,0.1,0,0.1l0,0c0,0,0,0.1,0,0.1l0,0c0,0,0,0.1,0,0.1l0,0c0,0,0,0.1,0,0.1l0,0
				c0,0,0,0.1,0,0.1l0,0c0,0,0,0.1,0,0.1l0,0c0,0,0,0.1,0,0.1l0,0l0,0c0,0,0,0.1,0,0.1l0,0c0,0,0,0.1,0,0.1l0,0c0,0,0,0.1-0.1,0.1
				l0,0l0,0c0,0,0,0.1-0.1,0.1l0,0l0,0.1l0,0c0,0,0,0.1-0.1,0.1l0,0c0,0,0,0.1-0.1,0.1l0,0l-0.1,0.1l0,0c0,0,0,0.1-0.1,0.1l0,0
				l-0.1,0.1l0,0c0,0,0,0.1-0.1,0.1l0,0c0,0-0.1,0.1-0.1,0.1l0,0l-0.1,0.1l0,0c0,0,0,0-0.1,0.1l-0.1,0.1l-0.1,0.1l0,0l-0.1,0.1l0,0
				l-0.1,0.1l-0.1,0.1l-0.1,0.1l0,0l-0.1,0.1l0,0c0,0-0.1,0.1-0.1,0.1l0,0l-0.1,0l-0.1,0l-0.1,0.1l0,0c0,0-0.1,0.1-0.1,0.1l-0.1,0
				l-0.1,0l-0.1,0l-0.1,0l-0.1,0c0,0-0.1,0-0.1,0.1l0,0l-0.1,0l-0.1,0l-0.1,0l-0.1,0l-0.1,0l-0.1,0l-0.1,0l-0.1,0l-0.1,0l-0.1,0
				c0,0-0.1,0-0.1,0.1l0,0l-0.1,0l-0.1,0l-0.1,0c0,0-0.1,0-0.1,0l-0.1,0l-0.1,0l-0.1,0l-0.1,0l-0.1,0c-0.2,0.6-0.5,1.2-1,1.8
				c-0.9,0.3-1.8,0.4-2.8,0.4c-1.4,0-2.8-0.3-3.9-0.8l0,0l0,0c-0.1,0-0.1,0-0.2,0l0,0l0,0c-0.1,0-0.1,0-0.2,0l0,0l0,0
				c-0.1,0-0.1,0-0.2,0l0,0l0,0l0,0c-0.1,0-0.1,0-0.2,0l0,0l0,0c-0.1,0-0.1,0-0.2,0l0,0l0,0h0c-0.1,0-0.1,0-0.2,0h0l0,0
				c-0.1,0-0.1,0-0.2,0l0,0c-0.1,0-0.1,0-0.2,0l0,0h0h0c-0.1,0-0.1,0-0.2,0c-4.2,0-7.6-2.6-7.6-5.8c0,0,0-0.1,0-0.1l0,0
				c0,0,0-0.1,0-0.1l0,0c0,0,0-0.1,0-0.1l0,0c0,0,0-0.1,0-0.1l0,0c0,0,0-0.1,0-0.1l0,0v0l0,0c0,0,0-0.1,0-0.1l0,0c0,0,0-0.1,0-0.1
				l0,0c0,0,0-0.1,0-0.1l0,0c0,0,0-0.1,0-0.1l0,0c0,0,0-0.1,0-0.1l0,0l0,0l0,0c0,0,0-0.1,0-0.1l0,0c0,0,0-0.1,0-0.1l0,0
				c0,0,0-0.1,0-0.1l0,0c0,0,0-0.1,0.1-0.1l0,0c0,0,0-0.1,0.1-0.1l0,0l0,0l0,0c0,0,0-0.1,0.1-0.1l0,0c0,0,0-0.1,0.1-0.1l0,0
				c0,0,0-0.1,0.1-0.1l0,0c0,0,0-0.1,0.1-0.1l0,0c0,0,0-0.1,0.1-0.1l0,0l0,0c0,0,0.1-0.1,0.1-0.1l0,0c0,0,0.1-0.1,0.1-0.1l0,0
				c0,0,0-0.1,0.1-0.1l0,0c0,0,0.1-0.1,0.1-0.1l0,0c0,0,0.1-0.1,0.1-0.1l0,0l0,0l0,0c0,0,0.1-0.1,0.1-0.1l0,0c0,0,0.1-0.1,0.1-0.1
				l0,0c0,0,0.1-0.1,0.1-0.1l0,0c0,0,0.1-0.1,0.1-0.1l0,0c0,0,0.1-0.1,0.1-0.1l0,0c0,0,0.1-0.1,0.1-0.1l0,0c0,0,0.1-0.1,0.1-0.1l0,0
				c0,0,0.1,0,0.1-0.1l0,0c0,0,0.1,0,0.1-0.1l0,0c0,0,0.1,0,0.1-0.1l0,0l0,0c0,0,0.1,0,0.1-0.1l0,0c0,0,0.1,0,0.1-0.1l0,0
				c0,0,0.1,0,0.1-0.1l0,0c0,0,0.1,0,0.1-0.1l0,0c0,0,0.1,0,0.1-0.1l0,0l0,0c0,0,0-0.1,0-0.1l0,0c0,0,0-0.1,0-0.1l0,0
				c0,0,0-0.1,0-0.1l0,0c0,0,0-0.1,0-0.1l0,0c0,0,0-0.1,0-0.1l0,0c0,0,0-0.1,0-0.1l0,0c0,0,0-0.1,0-0.1l0,0l0,0c0,0,0-0.1,0-0.1l0,0
				c0,0,0-0.1,0-0.1l0,0l0,0c0,0,0-0.1,0-0.1v0l0,0c0,0,0-0.1,0-0.1l0,0c0,0,0-0.1,0-0.1v0v0v0c0,0,0-0.1,0-0.1
				C301.4,150.7,301.9,149.7,302.6,148.8z"/>
		</g>
		<g id="XMLID_14_">
			<path id="XMLID_19_" class="st7" d="M236.1,168.5c0.3,0,0.5-0.1,0.6-0.4c0-0.3-0.1-0.5-0.4-0.6c-0.7-0.1-1.4-0.6-2-1.3
				c-0.5-0.6-0.8-1.5-0.8-2.7c0-0.3-0.2-0.5-0.5-0.5c-0.3,0-0.5,0.2-0.5,0.5c0,1.4,0.4,2.4,0.9,3.2
				C234.2,167.8,235.2,168.4,236.1,168.5z"/>
			<path id="XMLID_18_" class="st7" d="M236.8,166.3c-0.3,0.1-0.4,0.3-0.4,0.6c0.1,0.3,0.3,0.4,0.6,0.4c0.8-0.2,2.2-0.6,3.3-1.6
				c0.8-0.7,1.4-1.6,1.5-2.8c0-0.3-0.2-0.5-0.4-0.6c-0.3,0-0.5,0.2-0.6,0.4c-0.1,0.9-0.6,1.7-1.2,2.2
				C238.8,165.8,237.5,166.1,236.8,166.3z"/>
			<path id="XMLID_17_" class="st7" d="M235.5,172.3c0,0.3,0.3,0.5,0.6,0.4c0.3,0,0.5-0.3,0.4-0.6c-0.1-1-0.1-1.9,0.2-3.1
				c0.3-1.2,0.8-2.8,1.6-4.9c0.1-0.3,0-0.5-0.3-0.6c-0.3-0.1-0.5,0-0.6,0.3c-0.8,2.2-1.3,3.8-1.6,5.1
				C235.4,170.1,235.3,171.2,235.5,172.3z"/>
			<path id="XMLID_16_" class="st8" d="M241.7,163.9c0.3,0.1,0.7,0.2,1.1,0.2c1.3,0,2.3-0.7,2.3-1.5c0-0.7-0.6-1.2-1.5-1.4
				c0.6-0.3,0.9-0.7,0.9-1.2c0-0.8-1-1.5-2.3-1.5c-0.1,0-0.1,0-0.2,0c0-0.1,0-0.2,0-0.2c0-0.8-1-1.5-2.3-1.5c-0.3,0-0.5,0-0.7,0.1
				c-0.1-0.8-1.1-1.4-2.3-1.4c-1.3,0-2.3,0.7-2.3,1.5c0,0,0,0,0,0.1c-0.1,0-0.2,0-0.4,0c-1.3,0-2.3,0.7-2.3,1.5
				c0,0.3,0.1,0.6,0.4,0.8c-0.3,0.3-0.5,0.6-0.5,0.9c-0.2,0-0.3,0-0.5,0c-1.3,0-2.3,0.7-2.3,1.5c0,0.8,1,1.5,2.3,1.5
				c0.1,0,0.1,0,0.2,0c0.2,0.7,1.1,1.2,2.2,1.2c0.1,0,0.2,0,0.4,0c0.1,0.8,1.1,1.4,2.3,1.4c1,0,1.8-0.4,2.1-1
				c0.3,0.1,0.7,0.2,1.1,0.2C240.6,165,241.4,164.6,241.7,163.9z"/>
			<path id="XMLID_15_" class="st9" d="M244,162.4c0.3,0.1,0.7,0.2,1,0.2c0-0.7-0.6-1.2-1.5-1.4c0.6-0.3,0.9-0.7,0.9-1.2
				c0-0.8-1-1.5-2.3-1.5c-0.1,0-0.1,0-0.2,0c0-0.1,0-0.2,0-0.2c0-0.8-1-1.5-2.3-1.5c-0.3,0-0.5,0-0.7,0.1c-0.1-0.8-1.1-1.4-2.3-1.4
				l0,0.1c-0.1,0-0.2,0-0.4,0c-0.1,0-0.1,0-0.2,0c-1,0.2-1.8,0.8-1.8,1.5c0,0,0,0,0,0.1c-0.1,0-0.2,0-0.3,0c0,0.3,0.1,0.6,0.4,0.8
				c-0.3,0.3-0.5,0.6-0.5,0.9c-0.2,0-0.3,0-0.5,0c-0.6,0-1.1,0.2-1.5,0.4c0.1,0.1,0.1,0.2,0.2,0.3c-0.3,0.3-0.5,0.6-0.5,0.9
				c-0.1,0-0.3,0-0.5,0c0,0.8,1,1.5,2.3,1.5c0.1,0,0.1,0,0.2,0c0.2,0.7,1.1,1.2,2.2,1.2c0.1,0,0.2,0,0.4,0c0.1,0.8,1.1,1.4,2.3,1.4
				c1,0,1.8-0.4,2.1-1c0.3,0.1,0.7,0.2,1.1,0.2C242.9,163.5,243.7,163,244,162.4z"/>
		</g>
		<g id="XMLID_3_">
			<path id="XMLID_13_" class="st7" d="M109.3,167.2c0.4,0,0.7-0.3,0.7-0.7c0-0.4-0.3-0.7-0.7-0.7c-0.6,0-1.6-0.3-2.4-1.2
				c-0.6-0.6-1-1.4-1.2-2.5c0-0.4-0.4-0.7-0.8-0.6c-0.4,0-0.7,0.4-0.6,0.8c0.2,1.4,0.8,2.5,1.6,3.3
				C107.1,166.8,108.5,167.2,109.3,167.2z"/>
			<path id="XMLID_12_" class="st7" d="M108.5,171.6c-0.2,0.3-0.2,0.8,0.2,1c0.3,0.2,0.8,0.2,1-0.2c0.7-0.9,0.9-2.6,0.8-4.4
				c-0.1-2-0.4-4.1-1-5.8c-0.1-0.4-0.5-0.6-0.9-0.4c-0.4,0.1-0.6,0.5-0.4,0.9c0.5,1.5,0.9,3.6,0.9,5.4
				C109.1,169.6,109,171,108.5,171.6z"/>
			<g id="XMLID_8_">
				<path id="XMLID_9_" class="st8" d="M107.1,163.8L107.1,163.8L107.1,163.8c0,0-0.1,0-0.1,0l0,0c0,0-0.1,0-0.1,0l0,0l0,0
					c0,0-0.1,0-0.1,0l0,0l0,0c0,0-0.1,0-0.1,0l0,0l0,0c0,0-0.1,0-0.1,0l0,0l0,0c0,0-0.1,0-0.1,0l0,0h0l0,0c0,0-0.1,0-0.1,0l0,0
					c0,0-0.1,0-0.1,0h0h0h0c0,0-0.1,0-0.1,0c-2.3,0-4.1-1.4-4.1-3.1c0,0,0,0,0-0.1l0,0c0,0,0,0,0-0.1l0,0c0,0,0,0,0-0.1l0,0
					c0,0,0,0,0-0.1l0,0c0,0,0,0,0-0.1l0,0v0l0,0c0,0,0,0,0-0.1l0,0c0,0,0,0,0-0.1l0,0c0,0,0,0,0-0.1l0,0c0,0,0,0,0-0.1l0,0
					c0,0,0,0,0-0.1l0,0l0,0c0,0,0,0,0-0.1l0,0c0,0,0,0,0-0.1l0,0c0,0,0,0,0-0.1l0,0c0,0,0,0,0-0.1l0,0c0,0,0,0,0-0.1l0,0l0,0l0,0
					c0,0,0,0,0-0.1l0,0c0,0,0,0,0-0.1l0,0c0,0,0,0,0,0l0,0c0,0,0,0,0-0.1l0,0c0,0,0,0,0-0.1l0,0l0,0c0,0,0,0,0-0.1l0,0
					c0,0,0,0,0-0.1l0,0l0,0l0,0c0,0,0,0,0-0.1l0,0c0,0,0,0,0,0l0,0l0,0l0,0c0,0,0,0,0,0l0,0c0,0,0,0,0,0l0,0c0,0,0,0,0,0l0,0l0,0
					l0,0c0,0,0,0,0,0l0,0l0,0l0,0l0,0l0,0c0,0,0,0,0.1,0l0,0l0,0l0,0l0,0l0,0c0,0,0,0,0.1,0l0,0l0,0l0,0c0,0,0,0,0.1,0l0,0l0.1,0
					l0,0l0,0l0,0c0,0,0,0,0-0.1l0,0c0,0,0,0,0-0.1l0,0c0,0,0,0,0-0.1l0,0c0,0,0,0,0-0.1l0,0l0,0c0,0,0,0,0-0.1l0,0c0,0,0,0,0-0.1
					l0,0c0,0,0,0,0-0.1l0,0l0,0c0,0,0-0.1,0-0.2l0,0l0,0v0c0,0,0,0,0-0.1l0,0v0l0,0c0,0,0-0.1,0-0.1l0,0v0v0c0,0,0-0.1,0-0.1
					c0-1.7,1.8-3.1,4.1-3.1c0,0,0.1,0,0.1,0l0,0c0,0,0.1,0,0.1,0l0,0c0,0,0.1,0,0.1,0l0,0c0,0,0,0,0.1,0l0,0c0,0,0.1,0,0.1,0l0,0
					l0,0c0,0,0.1,0,0.1,0l0,0l0.1,0l0,0c0,0,0.1,0,0.1,0l0,0c0,0,0,0,0.1,0l0,0c0,0,0.1,0,0.1,0l0,0c0,0,0.1,0,0.1,0l0,0l0.1,0l0,0
					c0,0,0,0,0.1,0l0,0h0l0,0c0,0,0.1,0,0.1,0l0,0l0.1,0l0,0c0,0,0,0,0.1,0l0,0l0,0l0,0l0.1,0l0,0c0,0,0,0,0.1,0l0,0l0,0l0,0
					c0,0,0,0,0.1,0l0,0l0,0l0,0l0,0l0,0c0,0,0,0,0.1,0l0,0l0,0l0,0l0,0l0,0l0,0l0,0l0,0l0,0l0,0c0,0,0,0,0.1,0l0,0l0,0l0,0l0,0
					c0,0,0,0,0.1,0l0,0l0,0l0,0l0,0l0,0c0,0,0,0,0.1,0.1l0,0l0,0l0,0l0,0c0,0,0,0,0,0l0,0l0,0l0,0l0,0c0,0,0.1,0.1,0.1,0.1l0,0
					c0,0,0,0,0,0c0,0,0,0,0,0c0,0,0,0,0,0l0,0l0,0l0,0c0,0,0,0.1,0.1,0.1l0,0l0,0l0,0l0,0l0,0l0,0c2.3,0,4.1,1.4,4.1,3.1
					c0,0,0,0,0,0.1l0,0c0,0,0,0,0,0l0,0c0,0,0,0,0,0.1l0,0c0,0,0,0,0,0.1l0,0c0,0,0,0,0,0.1l0,0c0,0,0,0,0,0.1l0,0c0,0,0,0,0,0.1
					l0,0c0,0,0,0,0,0.1l0,0c0,0,0,0,0,0.1l0,0c0,0,0,0,0,0.1l0,0c0,0,0,0,0,0.1l0,0c0,0,0,0,0,0.1l0,0c0,0,0,0,0,0l0,0
					c0,0,0,0,0,0.1l0,0l0,0l0,0c0,0,0,0,0,0.1l0,0c0,0,0,0,0,0l0,0c0,0,0,0,0,0.1l0,0l0,0l0,0l0,0l0,0c0,0,0,0,0,0.1l0,0
					c0,0,0,0,0,0l0,0c0,0,0,0,0,0l0,0c0,0,0,0,0,0.1l0,0l0,0l0,0l0,0l0,0c0,0,0,0,0,0l0,0l0,0l0,0c0,0,0,0,0,0l0,0l0,0l0,0l0,0l0,0
					c0,0,0,0,0,0l0,0l0,0l0,0l0,0l0,0l0,0c0,0,0,0-0.1,0l0,0l0,0l0,0l0,0l0,0c0,0,0,0-0.1,0l0,0l0,0l0,0l0,0l0,0c0,0,0,0-0.1,0l0,0
					l0,0l0,0l0,0l0,0c0,0,0,0-0.1,0l0,0l0,0l0,0l0,0l0,0c0,0,0,0-0.1,0l0,0l0,0l0,0l0,0l0,0l0,0c-0.4,1.4-2,2.4-4,2.4
					C108.4,164.3,107.7,164.1,107.1,163.8L107.1,163.8z M111.2,155.6L111.2,155.6C111.3,155.6,111.3,155.6,111.2,155.6z"/>
			</g>
			<g id="XMLID_4_">
				<path id="XMLID_5_" class="st9" d="M106.9,154.2c0.3,0,0.5-0.1,0.8-0.1c0,0,0.1,0,0.1,0l0,0c0,0,0.1,0,0.1,0l0,0
					c0,0,0.1,0,0.1,0l0,0c0,0,0,0,0.1,0l0,0c0,0,0.1,0,0.1,0l0,0l0,0c0,0,0.1,0,0.1,0l0,0l0.1,0l0,0c0,0,0.1,0,0.1,0l0,0
					c0,0,0,0,0.1,0l0,0c0,0,0.1,0,0.1,0l0,0c0,0,0.1,0,0.1,0l0,0l0.1,0l0,0c0,0,0,0,0.1,0l0,0h0l0,0c0,0,0.1,0,0.1,0l0,0l0.1,0l0,0
					c0,0,0,0,0.1,0l0,0l0,0l0,0l0.1,0l0,0c0,0,0,0,0.1,0l0,0l0,0l0,0c0,0,0,0,0.1,0l0,0l0,0l0,0l0,0l0,0c0,0,0,0,0.1,0l0,0l0,0l0,0
					l0,0l0,0l0,0l0,0l0,0l0,0l0,0c0,0,0,0,0.1,0l0,0l0,0l0,0l0,0c0,0,0,0,0.1,0l0,0l0,0l0,0l0,0l0,0c0,0,0,0,0.1,0.1l0,0l0,0l0,0
					l0,0c0,0,0,0,0,0l0,0l0,0l0,0l0,0c0,0,0.1,0.1,0.1,0.1l0,0c0,0,0,0,0,0c0,0,0,0,0,0c0,0,0,0,0,0l0,0l0,0l0,0c0,0,0,0.1,0.1,0.1
					l0,0l0,0l0,0l0,0l0,0l0,0c2.3,0,4.1,1.4,4.1,3.1c0,0,0,0,0,0.1l0,0c0,0,0,0,0,0l0,0c0,0,0,0,0,0.1l0,0c0,0,0,0,0,0.1l0,0
					c0,0,0,0,0,0.1l0,0c0,0,0,0,0,0.1l0,0c0,0,0,0,0,0.1l0,0c0,0,0,0,0,0.1l0,0c0,0,0,0,0,0.1l0,0c0,0,0,0,0,0.1l0,0c0,0,0,0,0,0.1
					l0,0c0,0,0,0,0,0.1l0,0c0,0,0,0,0,0l0,0c0,0,0,0,0,0.1l0,0l0,0l0,0c0,0,0,0,0,0.1l0,0c0,0,0,0,0,0l0,0c0,0,0,0,0,0.1l0,0l0,0
					l0,0l0,0l0,0c0,0,0,0,0,0.1l0,0c0,0,0,0,0,0l0,0c0,0,0,0,0,0l0,0c0,0,0,0,0,0.1l0,0l0,0l0,0l0,0l0,0c0,0,0,0,0,0l0,0l0,0l0,0
					c0,0,0,0,0,0l0,0l0,0l0,0l0,0l0,0c0,0,0,0,0,0l0,0l0,0l0,0l0,0l0,0l0,0c0,0,0,0-0.1,0l0,0l0,0l0,0l0,0l0,0c0,0,0,0-0.1,0l0,0
					l0,0l0,0l0,0l0,0c0,0,0,0-0.1,0l0,0l0,0l0,0l0,0l0,0c0,0,0,0-0.1,0l0,0l0,0l0,0l0,0l0,0c0,0,0,0-0.1,0l0,0l0,0l0,0l0,0l0,0l0,0
					c-0.1,0.4-0.3,0.8-0.6,1.1c-0.3,0-0.5,0.1-0.8,0.1c-0.8,0-1.5-0.2-2.1-0.4l0,0l0,0c0,0-0.1,0-0.1,0l0,0c0,0-0.1,0-0.1,0l0,0l0,0
					c0,0-0.1,0-0.1,0l0,0l0,0c0,0-0.1,0-0.1,0l0,0l0,0c0,0-0.1,0-0.1,0l0,0l0,0c0,0-0.1,0-0.1,0l0,0h0l0,0c0,0-0.1,0-0.1,0l0,0
					c0,0-0.1,0-0.1,0h0h0h0c0,0-0.1,0-0.1,0c-2.3,0-4.1-1.4-4.1-3.1c0,0,0,0,0-0.1l0,0c0,0,0,0,0-0.1l0,0c0,0,0,0,0-0.1l0,0
					c0,0,0,0,0-0.1l0,0c0,0,0,0,0-0.1l0,0v0l0,0c0,0,0,0,0-0.1l0,0c0,0,0,0,0-0.1l0,0c0,0,0,0,0-0.1l0,0c0,0,0,0,0-0.1l0,0
					c0,0,0,0,0-0.1l0,0l0,0c0,0,0,0,0-0.1l0,0c0,0,0,0,0-0.1l0,0c0,0,0,0,0-0.1l0,0c0,0,0,0,0-0.1l0,0c0,0,0,0,0-0.1l0,0l0,0l0,0
					c0,0,0,0,0-0.1l0,0c0,0,0,0,0-0.1l0,0c0,0,0,0,0,0l0,0c0,0,0,0,0-0.1l0,0c0,0,0,0,0-0.1l0,0l0,0c0,0,0,0,0-0.1l0,0
					c0,0,0,0,0-0.1l0,0l0,0l0,0c0,0,0,0,0-0.1l0,0c0,0,0,0,0,0l0,0l0,0l0,0c0,0,0,0,0,0l0,0c0,0,0,0,0,0l0,0c0,0,0,0,0,0l0,0l0,0
					l0,0c0,0,0,0,0,0l0,0l0,0l0,0l0,0l0,0c0,0,0,0,0.1,0l0,0l0,0l0,0l0,0l0,0c0,0,0,0,0.1,0l0,0l0,0l0,0c0,0,0,0,0.1,0l0,0l0.1,0
					l0,0l0,0l0,0c0,0,0,0,0-0.1l0,0c0,0,0,0,0-0.1l0,0c0,0,0,0,0-0.1l0,0c0,0,0,0,0-0.1l0,0l0,0c0,0,0,0,0-0.1l0,0c0,0,0,0,0-0.1
					l0,0c0,0,0,0,0-0.1l0,0l0,0c0,0,0-0.1,0-0.2l0,0l0,0v0c0,0,0,0,0-0.1l0,0v0l0,0c0,0,0-0.1,0-0.1l0,0v0v0c0,0,0-0.1,0-0.1
					C106.2,155.3,106.5,154.7,106.9,154.2L106.9,154.2z M111.2,155.6L111.2,155.6C111.3,155.6,111.3,155.6,111.2,155.6z"/>
			</g>
		</g>
	</g>
</g>
</svg>
