<?xml version="1.0" encoding="utf-8"?>
<!-- Generator: Adobe Illustrator 19.0.0, SVG Export Plug-In . SVG Version: 6.00 Build 0)  -->
<svg version="1.1" id="Camada_1" xmlns="http://www.w3.org/2000/svg" xmlns:xlink="http://www.w3.org/1999/xlink" x="0px" y="0px"
	 viewBox="-31 0 335.5 200" style="enable-background:new -31 0 335.5 200;" xml:space="preserve">
<style type="text/css">
	.st0{fill:#C0EAFF;}
	.st1{opacity:0.33;clip-path:url(#SVGID_2_);fill:#FFFB5C;enable-background:new    ;}
	.st2{opacity:0.1;clip-path:url(#SVGID_2_);fill:#FFFB5C;enable-background:new    ;}
	.st3{clip-path:url(#SVGID_4_);fill:#FFFB5C;}
	.st4{clip-path:url(#SVGID_6_);}
	.st5{fill:#FFFFFF;}
	.st6{fill:#344C6D;}
	.st7{fill:#5B859B;}
	.st8{fill:#3A596A;}
	.st9{fill:#B29E7E;}
	.st10{fill:#E8D5B5;}
	.st11{fill:#5B859B;stroke:#5B859B;stroke-width:0.216;stroke-miterlimit:22.9256;}
	.st12{fill:#8EB4C5;}
	.st13{fill:#F5E9D9;}
	.st14{fill:#6E98AC;}
	.st15{fill:#A28A65;}
	.st16{fill:#90B252;}
	.st17{fill:#AAC570;}
	.st18{fill:#637077;}
	.st19{fill:#D85555;}
	.st20{fill:#B23F3F;}
	.st21{fill:#3B484D;}
	.st22{fill:#8F9EA5;}
	.st23{fill:#BFDAD6;}
	.st24{fill:#A64831;}
	.st25{fill:#FFC943;}
</style>
<g id="Camada_3">
	<rect id="XMLID_245_" x="-31" class="st0" width="335.5" height="200"/>
</g>
<g id="Camada_2">
	<g id="XMLID_244_">
		<g>
			<defs>
				<rect id="SVGID_1_" x="-30.9" y="0.5" width="335.5" height="200"/>
			</defs>
			<clipPath id="SVGID_2_">
				<use xlink:href="#SVGID_1_"  style="overflow:visible;"/>
			</clipPath>
			<circle id="XMLID_247_" class="st1" cx="60.6" cy="126" r="86"/>
			<circle id="XMLID_1_" class="st2" cx="60.6" cy="126" r="90.8"/>
		</g>
		<g>
			<defs>
				<rect id="SVGID_3_" x="-30.9" y="0.5" width="335.5" height="200"/>
			</defs>
			<clipPath id="SVGID_4_">
				<use xlink:href="#SVGID_3_"  style="overflow:visible;"/>
			</clipPath>
			<circle id="XMLID_246_" class="st3" cx="60.6" cy="126" r="79.6"/>
		</g>
		<g>
			<defs>
				<rect id="SVGID_5_" x="-30.9" y="0.5" width="335.5" height="200"/>
			</defs>
			<clipPath id="SVGID_6_">
				<use xlink:href="#SVGID_5_"  style="overflow:visible;"/>
			</clipPath>
			<g id="XMLID_2_" class="st4">
				<g id="XMLID_226_">
					<path id="XMLID_230_" class="st5" d="M259.5,126.7c21.5,0,0.9,0,22.4,0c4.8,0,4.8,6.7,0,6.7c-21.5,0-0.9,0-22.4,0
						C254.7,133.4,254.7,126.7,259.5,126.7z"/>
					<path id="XMLID_229_" class="st5" d="M281.9,133.4c4.6,0,8.3-3.7,8.3-8.3c0-4.6-3.7-8.3-8.3-8.3s-8.3,3.7-8.3,8.3
						S277.4,133.4,281.9,133.4z"/>
					<path id="XMLID_228_" class="st5" d="M263.2,130.8c2.2,0,4.1-1.8,4.1-4.1c0-2.2-1.8-4.1-4.1-4.1c-2.2,0-4.1,1.8-4.1,4.1
						C259.1,129,260.9,130.8,263.2,130.8z"/>
					<path id="XMLID_227_" class="st5" d="M271.9,130.1c4.6,0,8.3-3.7,8.3-8.3c0-4.6-3.7-8.3-8.3-8.3s-8.3,3.7-8.3,8.3
						C263.6,126.4,267.3,130.1,271.9,130.1z"/>
				</g>
				<g id="XMLID_221_">
					<path id="XMLID_225_" class="st5" d="M188.1,87.1c-21.9,0-0.9,0-22.8,0c-4.9,0-4.9,6.8,0,6.8c21.9,0,0.9,0,22.8,0
						C193,94,193,87.1,188.1,87.1z"/>
					<path id="XMLID_224_" class="st5" d="M162.4,94c3,0,5.5-2.5,5.5-5.5s-2.5-5.5-5.5-5.5s-5.5,2.5-5.5,5.5S159.4,94,162.4,94z"/>
					<path id="XMLID_223_" class="st5" d="M180.7,93.2c3.8,0,7-3.1,7-7c0-3.8-3.1-7-7-7c-3.8,0-7,3.1-7,7
						C173.7,90,176.8,93.2,180.7,93.2z"/>
					<path id="XMLID_222_" class="st5" d="M170.9,90.6c4.6,0,8.4-3.8,8.4-8.4s-3.8-8.4-8.4-8.4c-4.6,0-8.4,3.8-8.4,8.4
						S166.3,90.6,170.9,90.6z"/>
				</g>
				<g id="XMLID_216_">
					<path id="XMLID_220_" class="st5" d="M29.1,109.4c-22.1,0-0.9,0-23,0c-5,0-5,6.9,0,6.9c22.1,0,0.9,0,23,0
						C34,116.3,34,109.4,29.1,109.4z"/>
					<path id="XMLID_219_" class="st5" d="M6.1,116.3c4.7,0,8.5-3.8,8.5-8.5s-3.8-8.5-8.5-8.5s-8.5,3.8-8.5,8.5S1.4,116.3,6.1,116.3
						z"/>
					<path id="XMLID_218_" class="st5" d="M25.3,113.6c2.3,0,4.2-1.9,4.2-4.2c0-2.3-1.9-4.2-4.2-4.2s-4.2,1.9-4.2,4.2
						C21.2,111.7,23,113.6,25.3,113.6z"/>
					<path id="XMLID_217_" class="st5" d="M16.4,112.8c4.7,0,8.5-3.8,8.5-8.5s-3.8-8.5-8.5-8.5s-8.5,3.8-8.5,8.5
						S11.7,112.8,16.4,112.8z"/>
				</g>
				<rect id="XMLID_215_" x="213.7" y="102" class="st6" width="46.4" height="29.9"/>
				<rect id="XMLID_214_" x="-28.4" y="125.4" class="st7" width="5.1" height="19.2"/>
				<rect id="XMLID_213_" x="-25.9" y="125.4" class="st8" width="2.6" height="19.2"/>
				<rect id="XMLID_212_" x="213.7" y="95.4" class="st7" width="46.4" height="19.2"/>
				<polygon id="XMLID_211_" class="st6" points="236.9,98 224.2,109.3 249.7,109.3 				"/>
				<rect id="XMLID_210_" x="213.7" y="132" class="st6" width="46.4" height="45.2"/>
				<polygon id="XMLID_209_" class="st9" points="236.9,100.7 227.2,109.3 246.6,109.3 				"/>
				<rect id="XMLID_208_" x="213.7" y="166" class="st6" width="46.4" height="18.9"/>
				<rect id="XMLID_207_" x="213.7" y="161.8" class="st10" width="46.4" height="4.2"/>
				<g id="XMLID_203_">
					<rect id="XMLID_206_" x="247.6" y="149.6" class="st11" width="8.2" height="8.7"/>
					<rect id="XMLID_205_" x="232.8" y="149.6" class="st12" width="8.2" height="8.7"/>
					<rect id="XMLID_204_" x="218.1" y="149.6" class="st7" width="8.2" height="8.7"/>
				</g>
				<g id="XMLID_199_">
					<rect id="XMLID_202_" x="247.6" y="137" class="st9" width="8.2" height="8.7"/>
					<rect id="XMLID_201_" x="232.8" y="137" class="st13" width="8.2" height="8.7"/>
					<rect id="XMLID_200_" x="218.1" y="137" class="st10" width="8.2" height="8.7"/>
				</g>
				<rect id="XMLID_198_" x="232.8" y="166" class="st7" width="8.2" height="18.9"/>
				<rect id="XMLID_197_" x="247.6" y="166" class="st10" width="8.2" height="8.7"/>
				<rect id="XMLID_196_" x="218.1" y="166" class="st12" width="8.2" height="8.7"/>
				<rect id="XMLID_195_" x="167.8" y="141.8" class="st10" width="45.9" height="43.1"/>
				<rect id="XMLID_194_" x="167.8" y="120.6" class="st7" width="45.9" height="21.2"/>
				<polygon id="XMLID_193_" class="st6" points="190.8,126.2 179.7,135.9 178,137.4 203.5,137.4 				"/>
				<polygon id="XMLID_192_" class="st12" points="190.8,128.9 181.1,137.4 200.4,137.4 				"/>
				<rect id="XMLID_191_" x="172.3" y="166" class="st7" width="8.2" height="18.9"/>
				<rect id="XMLID_190_" x="187" y="166" class="st12" width="8.2" height="8.7"/>
				<rect id="XMLID_189_" x="201.7" y="166" class="st7" width="8.2" height="8.7"/>
				<rect id="XMLID_188_" x="264.7" y="125.2" class="st6" width="9" height="23.3"/>
				<rect id="XMLID_187_" x="264.7" y="125.2" class="st7" width="4.5" height="23.3"/>
				<rect id="XMLID_186_" x="121.4" y="89" class="st7" width="46.4" height="20.1"/>
				<polygon id="XMLID_185_" class="st8" points="144.6,91.8 131.9,103 157.3,103 				"/>
				<rect id="XMLID_184_" x="121.4" y="102.4" class="st8" width="46.4" height="74.8"/>
				<polygon id="XMLID_183_" class="st7" points="144.6,94.5 134.9,103 145.2,105.4 154.3,103 				"/>
				<rect id="XMLID_182_" x="121.4" y="166" class="st7" width="46.4" height="18.9"/>
				<rect id="XMLID_181_" x="155.2" y="153.9" class="st9" width="8.2" height="8.7"/>
				<rect id="XMLID_180_" x="140.5" y="153.9" class="st7" width="8.2" height="8.7"/>
				<rect id="XMLID_179_" x="125.8" y="153.9" class="st7" width="8.2" height="8.7"/>
				<rect id="XMLID_178_" x="140.5" y="167.7" class="st12" width="8.2" height="17.2"/>
				<rect id="XMLID_177_" x="155.2" y="167.7" class="st12" width="8.2" height="8"/>
				<rect id="XMLID_176_" x="125.8" y="167.7" class="st10" width="8.2" height="8"/>
				<rect id="XMLID_175_" x="134.9" y="103" class="st7" width="19.3" height="7.5"/>
				<polygon id="XMLID_174_" class="st10" points="148.7,100.5 144.8,96.9 140.5,100.5 140.5,109 148.7,109 				"/>
				<polygon id="XMLID_173_" class="st8" points="121.4,184.9 75.5,184.9 75.5,132.4 75.5,132.4 75.5,132.4 98.4,112.2 121.4,132.4 
					121.4,132.4 121.4,132.4 				"/>
				<polygon id="XMLID_172_" class="st10" points="121.4,184.9 75.5,184.9 75.5,135.1 75.5,135.1 75.5,135.1 98.4,114.9 
					121.4,135.1 121.4,135.1 121.4,135.1 				"/>
				<path id="XMLID_171_" class="st14" d="M102.5,121.9l-3.9-3.6l-4.3,3.6c0,7.1,0,14.3,0,21.4h8.2
					C102.5,136.2,102.5,129,102.5,121.9z"/>
				<rect id="XMLID_170_" x="94.4" y="167.7" class="st14" width="8.2" height="17.2"/>
				<rect id="XMLID_169_" x="106.7" y="136.6" class="st13" width="8.2" height="6.7"/>
				<polygon id="XMLID_168_" class="st12" points="114.6,133.1 106.7,125.8 106.7,133.1 				"/>
				<rect id="XMLID_167_" x="82" y="136.6" class="st9" width="8.2" height="6.7"/>
				<polygon id="XMLID_166_" class="st14" points="82.3,133.1 90.2,125.8 90.2,133.1 				"/>
				<rect id="XMLID_165_" x="106.7" y="167.7" class="st13" width="8.2" height="6.7"/>
				<rect id="XMLID_164_" x="82" y="167.7" class="st14" width="8.2" height="6.7"/>
				<rect id="XMLID_163_" x="29.1" y="105" class="st8" width="46.4" height="19.2"/>
				<polygon id="XMLID_162_" class="st7" points="52.3,107.9 39.5,119.1 65,119.1 				"/>
				<polygon id="XMLID_161_" class="st14" points="52.3,110.6 42.6,119.1 62,119.1 				"/>
				<rect id="XMLID_160_" x="29.1" y="124.1" class="st7" width="46.4" height="60.8"/>
				<g id="XMLID_156_">
					<rect id="XMLID_159_" x="62.9" y="145.2" class="st14" width="8.2" height="8.7"/>
					<rect id="XMLID_158_" x="48.2" y="145.2" class="st8" width="8.2" height="8.7"/>
					<rect id="XMLID_157_" x="33.5" y="145.2" class="st13" width="8.2" height="8.7"/>
				</g>
				<rect id="XMLID_155_" x="62.9" y="166" class="st10" width="8.2" height="18.9"/>
				<rect id="XMLID_154_" x="48.2" y="166" class="st8" width="8.2" height="8.7"/>
				<rect id="XMLID_153_" x="33.5" y="166" class="st14" width="8.2" height="8.7"/>
				<rect id="XMLID_152_" x="173.9" y="103.9" class="st7" width="5.1" height="19.2"/>
				<rect id="XMLID_151_" x="176.4" y="103.9" class="st6" width="2.6" height="19.2"/>
				<polygon id="XMLID_150_" class="st7" points="29.1,144.9 2,144.9 2,124.3 2,124.3 2,124.3 15.6,110.9 29.1,124.3 29.1,124.3 
					29.1,124.3 				"/>
				<polygon id="XMLID_149_" class="st8" points="29.1,184.9 2,184.9 2,126.1 2,126.1 2,126.1 15.6,112.7 29.1,126.1 29.1,126.1 
					29.1,126.1 				"/>
				<path id="XMLID_148_" class="st13" d="M19.6,122.9l-4.1-4l-4.1,4c0,7.1,0,12.7,0,19.8h8.2C19.6,135.5,19.6,130,19.6,122.9z"/>
				<rect id="XMLID_147_" x="11.5" y="167.7" class="st7" width="8.2" height="17.2"/>
				<path id="XMLID_146_" class="st14" d="M19.6,144.9h-8.2c0,6.7,0,2.4,0,9.2h8.2C19.6,147.3,19.6,151.6,19.6,144.9z"/>
				<path id="XMLID_145_" class="st12" d="M19.6,156.5h-8.2c0,6.7,0,2.4,0,9.2h8.2C19.6,158.9,19.6,163.2,19.6,156.5z"/>
				<rect id="XMLID_144_" x="260.1" y="161.8" class="st10" width="45.9" height="23.1"/>
				<rect id="XMLID_143_" x="260.1" y="142.9" class="st7" width="45.9" height="18.9"/>
				<polygon id="XMLID_142_" class="st6" points="283.1,146.2 270.3,157.4 295.8,157.4 				"/>
				<polygon id="XMLID_141_" class="st12" points="283.1,148.9 273.4,157.4 292.8,157.4 				"/>
				<rect id="XMLID_140_" x="264.6" y="166" class="st7" width="8.2" height="18.9"/>
				<rect id="XMLID_139_" x="279.3" y="166" class="st13" width="8.2" height="8.7"/>
				<rect id="XMLID_138_" x="292.9" y="166" class="st9" width="8.2" height="8.7"/>
				<rect id="XMLID_137_" x="-32" y="161.8" class="st10" width="34.1" height="23.1"/>
				<rect id="XMLID_136_" x="-32" y="142.9" class="st7" width="34.1" height="18.9"/>
				<rect id="XMLID_135_" x="-26.9" y="166" class="st9" width="8.2" height="18.9"/>
				<rect id="XMLID_134_" x="-12.2" y="166" class="st13" width="8.2" height="8.7"/>
				<rect id="XMLID_133_" x="29.1" y="161.8" class="st8" width="46.4" height="4.2"/>
				<polygon id="XMLID_132_" class="st8" points="-15,146.2 -26,155.9 -27.7,157.4 -2.3,157.4 				"/>
				<polygon id="XMLID_131_" class="st14" points="-15,148.9 -24.7,157.4 -5.3,157.4 				"/>
				<rect id="XMLID_130_" x="213.7" y="128.7" class="st10" width="46.4" height="4.2"/>
				<g id="XMLID_126_">
					<rect id="XMLID_129_" x="247.6" y="117.8" class="st13" width="8.2" height="8.7"/>
					<rect id="XMLID_128_" x="232.8" y="117.8" class="st7" width="8.2" height="8.7"/>
					<rect id="XMLID_127_" x="218.1" y="117.8" class="st12" width="8.2" height="8.7"/>
				</g>
				<rect id="XMLID_125_" x="172.3" y="152.9" class="st7" width="8.2" height="8.7"/>
				<rect id="XMLID_124_" x="187" y="152.9" class="st13" width="8.2" height="8.7"/>
				<rect id="XMLID_123_" x="201.7" y="152.9" class="st9" width="8.2" height="8.7"/>
				<rect id="XMLID_122_" x="155.2" y="140.9" class="st12" width="8.2" height="8.7"/>
				<rect id="XMLID_121_" x="140.5" y="140.9" class="st9" width="8.2" height="8.7"/>
				<rect id="XMLID_120_" x="125.8" y="140.9" class="st13" width="8.2" height="8.7"/>
				<rect id="XMLID_119_" x="155.2" y="127.8" class="st10" width="8.2" height="8.7"/>
				<rect id="XMLID_118_" x="140.5" y="127.8" class="st10" width="8.2" height="8.7"/>
				<rect id="XMLID_117_" x="125.8" y="127.8" class="st12" width="8.2" height="8.7"/>
				<rect id="XMLID_116_" x="106.7" y="157.4" class="st14" width="8.2" height="6.7"/>
				<rect id="XMLID_115_" x="106.7" y="147" class="st9" width="8.2" height="6.7"/>
				<rect id="XMLID_114_" x="94.4" y="157.4" class="st9" width="8.2" height="6.7"/>
				<rect id="XMLID_113_" x="94.4" y="147" class="st12" width="8.2" height="6.7"/>
				<rect id="XMLID_112_" x="82" y="157.4" class="st12" width="8.2" height="6.7"/>
				<rect id="XMLID_111_" x="82" y="147" class="st13" width="8.2" height="6.7"/>
				<rect id="XMLID_110_" x="29.1" y="141" class="st8" width="46.4" height="4.2"/>
				<g id="XMLID_106_">
					<rect id="XMLID_109_" x="62.9" y="124.1" class="st10" width="8.2" height="8.7"/>
					<rect id="XMLID_108_" x="48.2" y="124.1" class="st9" width="8.2" height="8.7"/>
					<rect id="XMLID_107_" x="33.5" y="124.1" class="st14" width="8.2" height="8.7"/>
				</g>
				<rect id="XMLID_105_" x="155.2" y="114.5" class="st7" width="8.2" height="8.7"/>
				<rect id="XMLID_104_" x="140.5" y="114.5" class="st13" width="8.2" height="8.7"/>
				<rect id="XMLID_103_" x="125.8" y="114.5" class="st10" width="8.2" height="8.7"/>
				<g id="XMLID_98_">
					<path id="XMLID_102_" class="st15" d="M164.5,178.2c-0.3,0.1-0.6-0.1-0.6-0.4c-0.1-0.3,0.1-0.6,0.4-0.6
						c0.4-0.1,0.9-0.2,1.3-0.7c0.5-0.5,1-1.3,1.3-2.6c0.1-0.3,0.3-0.5,0.6-0.4s0.5,0.3,0.4,0.6c-0.3,1.6-0.9,2.5-1.6,3.1
						C165.7,177.9,165,178.1,164.5,178.2z"/>
					<path id="XMLID_101_" class="st15" d="M163.3,172.8c0-0.3,0.2-0.5,0.5-0.6c0.3,0,0.5,0.2,0.6,0.5c0.1,1.2,0.3,3.3,0.4,5.6
						c0.1,2.3,0,4.9-0.4,7c-0.1,0.3-0.3,0.5-0.6,0.4s-0.5-0.3-0.4-0.6c0.4-2.1,0.4-4.5,0.4-6.8C163.6,176,163.4,174,163.3,172.8z"/>
					<path id="XMLID_100_" class="st16" d="M166,169.2c1.9,0,3.5,1.2,3.5,2.6c0,1.1-0.8,2-2,2.4c-0.4,1.2-1.7,2-3.4,2
						c-1.4,0-2.6-0.6-3.1-1.5c-0.2,0-0.3,0-0.5,0c-1.9,0-3.5-1.2-3.5-2.6c0-1.2,1.1-2.2,2.5-2.5c0.4-1.1,1.7-1.9,3.3-1.9
						C164.2,167.6,165.4,168.3,166,169.2L166,169.2z"/>
					<path id="XMLID_99_" class="st17" d="M166,169.2c1.9,0,3.5,1.2,3.5,2.6c0,0.3,0,0.5-0.1,0.7c-0.2,0.1-0.4,0.2-0.6,0.3
						c-0.1,0.5-0.5,0.9-0.9,1.2c-0.1,0.1-0.3,0.1-0.4,0.2v0.1c-0.6,0.3-1.3,0.5-2,0.5c-1.4,0-2.6-0.6-3.1-1.5c-0.2,0-0.3,0-0.5,0
						c-1.9,0-3.5-1.2-3.5-2.6c0-0.3,0-0.5,0.1-0.7c0.3-0.2,0.7-0.3,1.1-0.4c0.4-1.1,1.7-1.9,3.3-1.9
						C164.2,167.6,165.4,168.3,166,169.2L166,169.2z"/>
				</g>
				<g id="XMLID_93_">
					<path id="XMLID_97_" class="st15" d="M110.1,179.6c0.3,0.1,0.4,0.5,0.2,0.7c-0.1,0.3-0.5,0.4-0.7,0.2c-0.5-0.3-1.4-0.8-2.2-2
						l0,0c-0.6-0.7-1.2-1.8-1.7-3.1c-0.1-0.3,0-0.6,0.3-0.7c0.3-0.1,0.6,0,0.7,0.3c0.5,1.2,1.1,2.2,1.6,2.8l0,0l0,0
						C109,178.9,109.7,179.4,110.1,179.6z"/>
					<path id="XMLID_96_" class="st15" d="M109.7,185.5c-0.2,0.3-0.5,0.3-0.8,0.2c-0.3-0.2-0.3-0.5-0.2-0.8c0.5-0.7,0.7-2.2,0.7-3.9
						c0-1.8-0.2-3.9-0.7-5.8c-0.1-0.3,0.1-0.6,0.4-0.7c0.3-0.1,0.6,0.1,0.7,0.4c0.5,1.9,0.8,4.1,0.8,6
						C110.5,182.9,110.3,184.6,109.7,185.5z"/>
					<path id="XMLID_95_" class="st16" d="M108,176.9L108,176.9L108,176.9L108,176.9L108,176.9L108,176.9c-0.1,0-0.1,0-0.2,0l0,0
						l0,0c0,0,0,0-0.1,0l0,0l0,0l0,0c0,0,0,0-0.1,0l0,0l0,0h-0.1l0,0l0,0l0,0h-0.1l0,0l0,0h-0.1l0,0h-0.1l0,0l0,0l0,0h-0.1
						c-1.8,0-3.2-1.1-3.2-2.5c0,0,0,0,0-0.1l0,0c0,0,0,0,0-0.1l0,0c0,0,0,0,0-0.1l0,0c0,0,0,0,0-0.1l0,0c0,0,0,0,0-0.1l0,0l0,0l0,0
						c0,0,0,0,0-0.1l0,0c0,0,0,0,0-0.1l0,0c0,0,0,0,0-0.1l0,0c0,0,0,0,0-0.1l0,0c0,0,0,0,0-0.1l0,0l0,0l0,0c0,0,0,0,0-0.1l0,0
						c0,0,0,0,0-0.1l0,0l0,0l0,0l0,0l0,0l0,0l0,0l0,0l0,0l0,0l0,0l0,0l0,0l0,0l0,0l0,0l0,0l0,0l0,0l0,0l0,0l0,0l0,0l0,0l0,0l0,0l0,0
						l0,0l0,0l0,0l0,0l0,0l0,0l0,0l0,0l0,0l0,0l0,0l0,0l0,0l0,0l0,0l0,0l0,0l0,0l0,0l0,0l0,0l0,0l0,0l0,0l0,0l0,0l0,0l0,0l0,0l0,0
						l0,0l0,0c0,0,0,0,0.1,0l0,0l0,0l0,0l0,0l0,0l0,0c0,0,0,0,0-0.1l0,0c0,0,0,0,0-0.1l0,0c0,0,0,0,0-0.1l0,0c0,0,0,0,0-0.1l0,0
						c0,0,0,0,0-0.1l0,0c0,0,0,0,0-0.1l0,0l0,0c0,0,0,0,0-0.1l0,0c0,0,0,0,0-0.1l0,0l0,0c0,0,0,0,0-0.1l0,0l0,0c0,0,0,0,0-0.1l0,0
						c0,0,0,0,0-0.1l0,0l0,0l0,0c0,0,0,0,0-0.1c0-1.4,1.5-2.5,3.2-2.5c0,0,0,0,0.1,0l0,0c0,0,0,0,0.1,0l0,0h0.1l0,0c0,0,0,0,0.1,0
						l0,0c0,0,0,0,0.1,0l0,0c0,0,0,0,0.1,0l0,0h0.1l0,0c0,0,0,0,0.1,0l0,0l0,0c0,0,0,0,0.1,0l0,0h0.1l0,0c0,0,0,0,0.1,0l0,0l0,0l0,0
						c0,0,0,0,0.1,0l0,0l0,0l0,0c0,0,0,0,0.1,0l0,0l0,0l0,0c0,0,0,0,0.1,0l0,0l0,0l0,0l0,0l0,0c0,0,0,0,0.1,0l0,0l0,0l0,0l0,0l0,0
						l0,0l0,0l0,0l0,0c0,0,0,0,0.1,0l0,0l0,0l0,0l0,0l0,0l0,0l0,0l0,0l0,0l0,0l0,0l0,0l0,0l0,0l0,0c0,0,0,0,0.1,0l0,0l0,0l0,0l0,0
						l0,0c0,0,0,0,0.1,0l0,0l0,0l0,0l0,0l0,0l0,0l0,0l0,0l0,0l0,0l0.1,0.1l0,0l0.1,0.1l0,0l0,0l0,0c0,0,0,0.1,0.1,0.1l0,0l0,0l0,0
						l0,0c1.8,0,3.2,1.1,3.2,2.5c0,0,0,0,0,0.1l0,0l0,0l0,0c0,0,0,0,0,0.1l0,0c0,0,0,0,0,0.1l0,0l0,0l0,0c0,0,0,0,0,0.1l0,0l0,0l0,0
						l0,0l0,0c0,0,0,0,0,0.1l0,0l0,0l0,0l0,0l0,0l0,0l0,0l0,0l0,0l0,0l0,0l0,0l0,0l0,0l0,0l0,0l0,0l0,0l0,0l0,0l0,0l0,0l0,0l0,0l0,0
						l0,0l0,0l0,0l0,0l0,0l0,0l0,0l0,0l0,0l0,0l0,0l0,0l0,0l0,0l0,0l0,0l0,0l0,0l0,0l0,0l0,0l0,0l0,0l0,0l0,0l0,0l0,0l0,0l0,0l0,0
						l0,0l0,0l0,0l0,0l0,0l0,0l0,0l0,0l0,0l0,0l0,0l0,0l0,0l0,0c0,0,0,0-0.1,0l0,0l0,0l0,0l0,0l0,0l0,0l0,0l0,0l0,0l0,0
						c-0.3,1.1-1.6,1.9-3.2,1.9C109.1,177.2,108.5,177.1,108,176.9z"/>
					<path id="XMLID_94_" class="st17" d="M107.4,169.4c0.4-0.1,0.8-0.2,1.2-0.2c0,0,0,0,0.1,0l0,0c0,0,0,0,0.1,0l0,0h0.1l0,0
						c0,0,0,0,0.1,0l0,0c0,0,0,0,0.1,0l0,0c0,0,0,0,0.1,0l0,0h0.1l0,0c0,0,0,0,0.1,0l0,0l0,0c0,0,0,0,0.1,0l0,0h0.1l0,0
						c0,0,0,0,0.1,0l0,0l0,0l0,0c0,0,0,0,0.1,0l0,0l0,0l0,0c0,0,0,0,0.1,0l0,0l0,0l0,0c0,0,0,0,0.1,0l0,0l0,0l0,0l0,0l0,0
						c0,0,0,0,0.1,0l0,0l0,0l0,0l0,0l0,0l0,0l0,0l0,0l0,0c0,0,0,0,0.1,0l0,0l0,0l0,0l0,0l0,0l0,0l0,0l0,0l0,0l0,0l0,0l0,0l0,0l0,0
						l0,0c0,0,0,0,0.1,0l0,0l0,0l0,0l0,0l0,0c0,0,0,0,0.1,0l0,0l0,0l0,0l0,0l0,0l0,0l0,0l0,0l0,0l0,0l0.1,0.1l0,0l0.1,0.1l0,0l0,0
						l0,0c0,0,0,0.1,0.1,0.1l0,0l0,0l0,0l0,0c1.8,0,3.2,1.1,3.2,2.5c0,0,0,0,0,0.1l0,0l0,0l0,0c0,0,0,0,0,0.1l0,0c0,0,0,0,0,0.1l0,0
						l0,0l0,0c0,0,0,0,0,0.1l0,0l0,0l0,0l0,0l0,0c0,0,0,0,0,0.1l0,0l0,0l0,0l0,0l0,0l0,0l0,0l0,0l0,0l0,0l0,0l0,0l0,0l0,0l0,0l0,0
						l0,0l0,0l0,0l0,0l0,0l0,0l0,0l0,0l0,0l0,0l0,0l0,0l0,0l0,0l0,0l0,0l0,0l0,0l0,0l0,0l0,0l0,0l0,0l0,0l0,0l0,0l0,0l0,0l0,0l0,0
						l0,0l0,0l0,0l0,0l0,0l0,0l0,0l0,0l0,0l0,0l0,0l0,0l0,0l0,0l0,0l0,0l0,0l0,0l0,0l0,0l0,0l0,0l0,0c0,0,0,0-0.1,0l0,0l0,0l0,0l0,0
						l0,0l0,0l0,0l0,0l0,0l0,0c-0.1,0.3-0.2,0.5-0.4,0.8c-0.4,0.1-0.8,0.2-1.2,0.2c-0.6,0-1.2-0.1-1.7-0.3l0,0l0,0c0,0,0,0-0.1,0
						l0,0l0,0c0,0,0,0-0.1,0l0,0l0,0c0,0,0,0-0.1,0l0,0l0,0l0,0c0,0,0,0-0.1,0l0,0l0,0H110l0,0l0,0l0,0h-0.1l0,0l0,0h-0.1l0,0h-0.1
						l0,0l0,0l0,0h-0.1c-1.8,0-3.2-1.1-3.2-2.5c0,0,0,0,0-0.1l0,0c0,0,0,0,0-0.1l0,0c0,0,0,0,0-0.1l0,0c0,0,0,0,0-0.1l0,0
						c0,0,0,0,0-0.1l0,0l0,0l0,0c0,0,0,0,0-0.1l0,0c0,0,0,0,0-0.1l0,0c0,0,0,0,0-0.1l0,0c0,0,0,0,0-0.1l0,0c0,0,0,0,0-0.1l0,0l0,0
						l0,0c0,0,0,0,0-0.1l0,0c0,0,0,0,0-0.1l0,0l0,0l0,0l0,0l0,0l0,0l0,0l0,0l0,0l0,0l0,0l0,0l0,0l0,0l0,0l0,0l0,0l0,0l0,0l0,0l0,0
						l0,0l0,0l0,0l0,0l0,0l0,0l0,0l0,0l0,0l0,0l0,0l0,0l0,0l0,0l0,0l0,0l0,0l0,0l0,0l0,0l0,0l0,0l0,0l0,0l0,0l0,0l0,0l0,0l0,0l0,0
						l0,0l0,0l0,0l0,0l0,0l0,0l0,0l0,0c0,0,0,0,0.1,0l0,0l0,0l0,0l0,0l0,0l0,0l0,0l0,0c0,0,0,0,0-0.1l0,0c0,0,0,0,0-0.1l0,0
						c0,0,0,0,0-0.1l0,0c0,0,0,0,0-0.1l0,0c0,0,0,0,0-0.1l0,0l0,0c0,0,0,0,0-0.1l0,0c0,0,0,0,0-0.1l0,0l0,0c0,0,0,0,0-0.1l0,0l0,0
						c0,0,0,0,0-0.1l0,0c0,0,0,0,0-0.1l0,0l0,0l0,0c0,0,0,0,0-0.1C106.9,170.2,107,169.8,107.4,169.4z"/>
				</g>
				<g id="XMLID_87_">
					<path id="XMLID_92_" class="st15" d="M54.5,181.5c-0.3,0-0.5-0.1-0.6-0.4c0-0.3,0.1-0.5,0.4-0.6c0.7-0.1,1.5-0.6,2-1.3
						s0.8-1.6,0.8-2.7c0-0.3,0.2-0.5,0.5-0.5s0.5,0.2,0.5,0.5c0,1.4-0.4,2.5-1,3.3C56.5,180.7,55.5,181.3,54.5,181.5z"/>
					<path id="XMLID_91_" class="st15" d="M53.8,179.2c0.3,0.1,0.4,0.3,0.4,0.6c-0.1,0.3-0.3,0.4-0.6,0.4c-0.8-0.2-2.3-0.6-3.4-1.6
						c-0.8-0.7-1.4-1.6-1.5-2.8c0-0.3,0.2-0.5,0.4-0.6c0.3,0,0.5,0.2,0.6,0.4c0.1,1,0.6,1.7,1.2,2.2
						C51.9,178.7,53.1,179.1,53.8,179.2z"/>
					<path id="XMLID_90_" class="st15" d="M55.2,185.3c0,0.3-0.3,0.5-0.6,0.4c-0.3,0-0.5-0.3-0.4-0.6c0.1-1,0.1-2-0.2-3.2
						c-0.3-1.3-0.8-2.8-1.6-5c-0.1-0.3,0-0.5,0.3-0.6s0.5,0,0.6,0.3c0.8,2.2,1.4,3.8,1.7,5.1C55.3,183.1,55.4,184.1,55.2,185.3z"/>
					<path id="XMLID_89_" class="st16" d="M48.9,176.8c-0.3,0.1-0.7,0.2-1.1,0.2c-1.3,0-2.3-0.7-2.3-1.6c0-0.7,0.6-1.2,1.5-1.5
						c-0.6-0.3-0.9-0.7-0.9-1.2c0-0.9,1-1.6,2.3-1.6c0.1,0,0.1,0,0.2,0c0-0.1,0-0.2,0-0.3c0-0.9,1-1.6,2.3-1.6c0.3,0,0.5,0,0.7,0.1
						c0.1-0.8,1.1-1.4,2.3-1.4c1.3,0,2.3,0.7,2.3,1.6c0,0,0,0,0,0.1c0.1,0,0.2,0,0.4,0c1.3,0,2.3,0.7,2.3,1.6c0,0.3-0.1,0.6-0.4,0.8
						c0.3,0.3,0.5,0.6,0.5,0.9c0.2,0,0.3,0,0.5,0c1.3,0,2.3,0.7,2.3,1.6c0,0.9-1,1.6-2.3,1.6c-0.1,0-0.1,0-0.2,0
						c-0.2,0.7-1.2,1.2-2.3,1.2c-0.1,0-0.3,0-0.4,0c-0.1,0.8-1.1,1.4-2.3,1.4c-1,0-1.8-0.4-2.2-1c-0.3,0.1-0.7,0.2-1.1,0.2
						C50,177.9,49.2,177.4,48.9,176.8z"/>
					<path id="XMLID_88_" class="st17" d="M52.4,175.5c-0.3,0.1-0.7,0.2-1.1,0.2c-1.3,0-2.3-0.7-2.3-1.6c0-0.7,0.6-1.2,1.5-1.5
						c-0.6-0.3-0.9-0.7-0.9-1.2c0-0.9,1-1.6,2.3-1.6c0.1,0,0.1,0,0.2,0c0-0.1,0-0.2,0-0.3c0-0.8,1-1.5,2.2-1.5c1.1,0.1,2,0.8,2,1.5
						c0,0,0,0,0,0.1c0.1,0,0.2,0,0.4,0c1.3,0,2.3,0.7,2.3,1.6c0,0.3-0.1,0.6-0.4,0.8c0.3,0.3,0.5,0.6,0.5,0.9c0.2,0,0.3,0,0.5,0
						c1.3,0,2.3,0.7,2.3,1.6c0,0.7-0.6,1.2-1.5,1.5h-0.1l0,0c-0.2,0-0.5,0.1-0.7,0.1c-0.1,0-0.1,0-0.2,0c-0.2,0.7-1.2,1.2-2.3,1.2
						l0,0c-0.6-0.2-1.1-0.5-1.3-0.9c-0.3,0.1-0.7,0.2-1.1,0.2C53.6,176.6,52.7,176.2,52.4,175.5z"/>
				</g>
				<g id="XMLID_81_">
					<path id="XMLID_86_" class="st15" d="M-2.1,182.5c0.2,0,0.3-0.2,0.3-0.4s-0.2-0.3-0.4-0.3c0,0,0,0-0.1,0
						c-0.2,0-0.4-0.1-0.6-0.2c-0.2-0.2-0.4-0.4-0.4-0.8c0,0,0-0.1,0-0.2c0-0.2-0.2-0.4-0.4-0.4c-0.2,0-0.4,0.2-0.4,0.4
						c0,0.1,0,0.2,0,0.3c0.1,0.5,0.3,1,0.7,1.2c0.3,0.3,0.7,0.4,1.1,0.4C-2.2,182.5-2.1,182.5-2.1,182.5z"/>
					<g id="XMLID_82_">
						<path id="XMLID_85_" class="st15" d="M-1.5,185.3c-0.1,0.3-0.3,0.4-0.6,0.4c-0.3-0.1-0.4-0.3-0.4-0.6c0.2-0.8,0.3-2.7,0.3-4.6
							c0-1.4,0-2.9-0.2-3.9c-0.1-0.3,0.1-0.5,0.4-0.6s0.5,0.1,0.6,0.4c0.2,1.1,0.3,2.6,0.3,4.1C-1.1,182.5-1.3,184.5-1.5,185.3z"/>
						<path id="XMLID_84_" class="st16" d="M0.5,172.4c0.7,0.5,1.2,1.2,1.2,2.1c0,0.2,0,0.3-0.1,0.5c0.9,0.4,1.5,1.3,1.5,2.3
							c0,1.4-1.3,2.6-2.9,2.6c-0.5,0.9-1.5,1.5-2.7,1.5c-0.8,0-1.4-0.2-2-0.7c-0.3,0.1-0.5,0.1-0.8,0.1c-1.6,0-3-1.2-3-2.6
							c0-0.9,0.6-1.8,1.4-2.2c-0.1-0.2-0.1-0.5-0.1-0.7c0-1,0.7-1.9,1.7-2.3c-0.1-0.3-0.2-0.6-0.2-1c0-1.4,1.3-2.6,3-2.6
							c1.6,0,3,1.2,3,2.6C0.6,172.1,0.6,172.3,0.5,172.4z"/>
						<path id="XMLID_83_" class="st17" d="M0.5,172.4c0.7,0.5,1.2,1.2,1.2,2.1c0,0.2,0,0.3-0.1,0.5c0.9,0.4,1.5,1.3,1.5,2.3
							c0,0.3,0,0.5-0.1,0.8c-0.3,0.1-0.5,0.1-0.8,0.1c-0.5,0.9-1.5,1.5-2.7,1.5c-0.8,0-1.4-0.2-2-0.7c-0.3,0.1-0.5,0.1-0.8,0.1
							c-1.6,0-3-1.2-3-2.6c0-0.9,0.6-1.8,1.4-2.2c-0.1-0.2-0.1-0.5-0.1-0.7c0-1,0.7-1.9,1.7-2.3c-0.1-0.3-0.2-0.6-0.2-1
							c0-0.3,0-0.5,0.1-0.8c0.3-0.1,0.6-0.1,0.8-0.1c1.6,0,3,1.2,3,2.6C0.6,172.1,0.6,172.3,0.5,172.4z"/>
					</g>
				</g>
				<g id="XMLID_76_">
					<path id="XMLID_80_" class="st15" d="M274.2,178.5c0.3,0.2,0.4,0.5,0.3,0.9c-0.2,0.3-0.5,0.4-0.9,0.3c-0.6-0.3-1.6-1-2.6-2.3
						l0,0c-0.7-0.9-1.4-2.1-2-3.7c-0.1-0.3,0-0.7,0.4-0.8c0.3-0.1,0.7,0,0.8,0.4c0.6,1.5,1.2,2.6,1.9,3.4l0,0l0,0
						C272.9,177.7,273.7,178.2,274.2,178.5z"/>
					<path id="XMLID_79_" class="st15" d="M273.7,185.4c-0.2,0.3-0.6,0.4-0.9,0.2s-0.4-0.6-0.2-0.9c0.6-0.9,0.8-2.6,0.8-4.6
						c0-2.2-0.3-4.6-0.8-6.8c-0.1-0.3,0.1-0.7,0.5-0.8c0.3-0.1,0.7,0.1,0.8,0.5c0.6,2.3,0.9,4.9,0.9,7.1
						C274.8,182.4,274.4,184.3,273.7,185.4z"/>
					<path id="XMLID_78_" class="st16" d="M271.8,175.3L271.8,175.3L271.8,175.3C271.8,175.3,271.7,175.3,271.8,175.3h-0.1l0,0h-0.1
						l0,0l0,0h-0.1l0,0l0,0l0,0h-0.1l0,0l0,0h-0.1l0,0l0,0l0,0h-0.1l0,0l0,0h-0.1l0,0H271l0,0l0,0l0,0h-0.1c-2.1,0-3.8-1.3-3.8-2.9
						c0,0,0,0,0-0.1l0,0c0,0,0,0,0-0.1l0,0c0,0,0,0,0-0.1l0,0c0,0,0,0,0-0.1l0,0c0,0,0,0,0-0.1l0,0l0,0l0,0c0,0,0,0,0-0.1l0,0
						c0,0,0,0,0-0.1l0,0c0,0,0,0,0-0.1l0,0c0,0,0,0,0-0.1l0,0c0,0,0,0,0-0.1l0,0l0,0l0,0c0,0,0,0,0-0.1l0,0c0,0,0,0,0-0.1l0,0
						c0,0,0,0,0-0.1l0,0c0,0,0,0,0-0.1l0,0c0,0,0,0,0-0.1l0,0l0,0l0,0c0,0,0,0,0-0.1l0,0c0,0,0,0,0-0.1l0,0c0,0,0,0,0-0.1l0,0
						c0,0,0,0,0-0.1l0,0l0,0l0,0l0,0c0,0,0,0,0-0.1l0,0c0,0,0,0,0-0.1l0,0l0,0l0,0l0,0l0,0l0,0l0,0l0,0l0,0l0,0l0,0l0,0l0,0l0,0l0,0
						c0,0,0,0,0.1,0l0,0l0,0l0,0l0,0l0,0c0,0,0,0,0.1,0l0,0l0,0l0,0c0,0,0,0,0.1,0l0,0c0,0,0,0,0.1,0l0,0l0,0c0,0,0,0,0.1,0l0,0
						c0,0,0,0,0.1,0l0,0l0,0l0,0c0,0,0,0,0.1,0l0,0c0,0,0,0,0.1,0l0,0l0,0l0,0l0,0c0,0,0,0,0-0.1l0,0c0,0,0,0,0-0.1l0,0
						c0,0,0,0,0-0.1l0,0c0,0,0,0,0-0.1l0,0c0,0,0,0,0-0.1l0,0c0,0,0,0,0-0.1l0,0l0,0c0,0,0,0,0-0.1l0,0c0,0,0,0,0-0.1l0,0l0,0
						c0,0,0,0,0-0.1l0,0l0,0c0,0,0,0,0-0.1l0,0c0,0,0,0,0-0.1l0,0l0,0l0,0c0,0,0,0,0-0.1c0-1.6,1.7-2.9,3.8-2.9h0.1l0,0
						c0,0,0,0,0.1,0l0,0h0.1l0,0h0.1l0,0c0,0,0,0,0.1,0l0,0h0.1l0,0h0.1l0,0h0.1l0,0l0,0c0,0,0,0,0.1,0l0,0h0.1l0,0h0.1l0,0h0.1l0,0
						c0,0,0,0,0.1,0l0,0l0,0l0,0h0.1l0,0h0.1l0,0c0,0,0,0,0.1,0l0,0l0,0l0,0l0,0l0,0c0,0,0,0,0.1,0l0,0l0,0l0,0c0,0,0,0,0.1,0l0,0
						l0,0l0,0l0,0l0,0c0,0,0,0,0.1,0l0,0l0,0l0,0l0,0c0,0,0,0,0.1,0l0,0l0,0l0,0l0,0l0,0c0,0,0,0,0.1,0l0,0l0,0l0,0l0,0
						c0,0,0.1,0,0.1,0.1l0,0l0,0l0,0l0,0l0,0c0,0,0,0,0.1,0.1l0,0l0,0l0,0l0,0l0,0l0,0l0,0l0,0l0,0l0,0l0.1,0.1l0,0l0.1,0.1l0,0l0,0
						l0,0l0.1,0.1l0,0l0,0l0,0l0,0c2.1,0,3.8,1.3,3.8,2.9c0,0,0,0,0,0.1l0,0l0,0l0,0c0,0,0,0,0,0.1l0,0c0,0,0,0,0,0.1l0,0
						c0,0,0,0,0,0.1l0,0c0,0,0,0,0,0.1l0,0l0,0l0,0c0,0,0,0,0,0.1l0,0c0,0,0,0,0,0.1l0,0l0,0l0,0c0,0,0,0,0,0.1l0,0l0,0
						c0,0,0,0,0,0.1l0,0l0,0l0,0c0,0,0,0,0,0.1l0,0l0,0c0,0,0,0,0,0.1l0,0l0,0l0,0c0,0,0,0,0,0.1l0,0l0,0l0,0l0,0l0,0c0,0,0,0,0,0.1
						l0,0l0,0l0,0l0,0l0,0c0,0,0,0,0,0.1l0,0l0,0l0,0l0,0l0,0l0,0l0,0l0,0l0,0l0,0l0,0l0,0l0,0l0,0l0,0c0,0,0,0-0.1,0l0,0l0,0l0,0
						l0,0l0,0c0,0,0,0-0.1,0l0,0l0,0l0,0l0,0l0,0c0,0,0,0-0.1,0l0,0l0,0l0,0l0,0l0,0l0,0l0,0l0,0l0,0l0,0l0,0c0,0,0,0-0.1,0l0,0l0,0
						l0,0l0,0c0,0,0,0-0.1,0l0,0l0,0l0,0l0,0l0,0c-0.4,1.3-1.9,2.3-3.7,2.3C273,175.7,272.4,175.5,271.8,175.3z"/>
					<path id="XMLID_77_" class="st17" d="M271,166.4c0.4-0.1,0.9-0.2,1.4-0.2h0.1l0,0c0,0,0,0,0.1,0l0,0h0.1l0,0h0.1l0,0
						c0,0,0,0,0.1,0l0,0h0.1l0,0h0.1l0,0h0.1l0,0l0,0c0,0,0,0,0.1,0l0,0h0.1l0,0h0.1l0,0h0.1l0,0c0,0,0,0,0.1,0l0,0l0,0l0,0h0.1l0,0
						h0.1l0,0c0,0,0,0,0.1,0l0,0l0,0l0,0l0,0l0,0c0,0,0,0,0.1,0l0,0l0,0l0,0c0,0,0,0,0.1,0l0,0l0,0l0,0l0,0l0,0c0,0,0,0,0.1,0l0,0
						l0,0l0,0l0,0c0,0,0,0,0.1,0l0,0l0,0l0,0l0,0l0,0c0,0,0,0,0.1,0l0,0l0,0l0,0l0,0c0,0,0.1,0,0.1,0.1l0,0l0,0l0,0l0,0l0,0
						c0,0,0,0,0.1,0.1l0,0l0,0l0,0l0,0l0,0l0,0l0,0l0,0l0,0l0,0l0.1,0.1l0,0l0.1,0.1l0,0l0,0l0,0l0.1,0.1l0,0l0,0l0,0l0,0
						c2.1,0,3.8,1.3,3.8,2.9c0,0,0,0,0,0.1l0,0l0,0l0,0c0,0,0,0,0,0.1l0,0c0,0,0,0,0,0.1l0,0c0,0,0,0,0,0.1l0,0c0,0,0,0,0,0.1l0,0
						l0,0l0,0c0,0,0,0,0,0.1l0,0c0,0,0,0,0,0.1l0,0l0,0l0,0c0,0,0,0,0,0.1l0,0l0,0c0,0,0,0,0,0.1l0,0l0,0l0,0c0,0,0,0,0,0.1l0,0l0,0
						c0,0,0,0,0,0.1l0,0l0,0l0,0c0,0,0,0,0,0.1l0,0l0,0l0,0l0,0l0,0c0,0,0,0,0,0.1l0,0l0,0l0,0l0,0l0,0c0,0,0,0,0,0.1l0,0l0,0l0,0
						l0,0l0,0l0,0l0,0l0,0l0,0l0,0l0,0l0,0l0,0l0,0l0,0c0,0,0,0-0.1,0l0,0l0,0l0,0l0,0l0,0c0,0,0,0-0.1,0l0,0l0,0l0,0l0,0l0,0
						c0,0,0,0-0.1,0l0,0l0,0l0,0l0,0l0,0l0,0l0,0l0,0l0,0l0,0l0,0c0,0,0,0-0.1,0l0,0l0,0l0,0l0,0c0,0,0,0-0.1,0l0,0l0,0l0,0l0,0l0,0
						c-0.1,0.3-0.3,0.6-0.5,0.9c-0.4,0.1-0.9,0.2-1.4,0.2c-0.7,0-1.4-0.1-2-0.4l0,0l0,0h-0.1l0,0l0,0h-0.1l0,0l0,0h-0.1l0,0l0,0l0,0
						H274l0,0l0,0h-0.1l0,0l0,0l0,0h-0.1l0,0l0,0h-0.1l0,0h-0.1l0,0l0,0l0,0h-0.1c-2.1,0-3.8-1.3-3.8-2.9c0,0,0,0,0-0.1l0,0
						c0,0,0,0,0-0.1l0,0c0,0,0,0,0-0.1l0,0c0,0,0,0,0-0.1l0,0c0,0,0,0,0-0.1l0,0l0,0l0,0c0,0,0,0,0-0.1l0,0c0,0,0,0,0-0.1l0,0
						c0,0,0,0,0-0.1l0,0c0,0,0,0,0-0.1l0,0c0,0,0,0,0-0.1l0,0l0,0l0,0c0,0,0,0,0-0.1l0,0c0,0,0,0,0-0.1l0,0c0,0,0,0,0-0.1l0,0
						c0,0,0,0,0-0.1l0,0c0,0,0,0,0-0.1l0,0l0,0l0,0c0,0,0,0,0-0.1l0,0c0,0,0,0,0-0.1l0,0c0,0,0,0,0-0.1l0,0c0,0,0,0,0-0.1l0,0l0,0
						l0,0l0,0c0,0,0,0,0-0.1l0,0c0,0,0,0,0-0.1l0,0l0,0l0,0l0,0l0,0l0,0l0,0l0,0l0,0l0,0l0,0l0,0l0,0l0,0l0,0c0,0,0,0,0.1,0l0,0l0,0
						l0,0l0,0l0,0c0,0,0,0,0.1,0l0,0l0,0l0,0c0,0,0,0,0.1,0l0,0c0,0,0,0,0.1,0l0,0l0,0c0,0,0,0,0.1,0l0,0c0,0,0,0,0.1,0l0,0l0,0l0,0
						c0,0,0,0,0.1,0l0,0c0,0,0,0,0.1,0l0,0l0,0l0,0l0,0c0,0,0,0,0-0.1l0,0c0,0,0,0,0-0.1l0,0c0,0,0,0,0-0.1l0,0c0,0,0,0,0-0.1l0,0
						c0,0,0,0,0-0.1l0,0c0,0,0,0,0-0.1l0,0l0,0c0,0,0,0,0-0.1l0,0c0,0,0,0,0-0.1l0,0l0,0c0,0,0,0,0-0.1l0,0l0,0c0,0,0,0,0-0.1l0,0
						c0,0,0,0,0-0.1l0,0l0,0l0,0c0,0,0,0,0-0.1C270.4,167.4,270.6,166.8,271,166.4z"/>
				</g>
				<path id="XMLID_75_" class="st18" d="M-32,184.9h338.6c5.1,0,9.2,4.1,9.2,9.2l0,0c0,5.1-4.1,9.2-9.2,9.2H-32V184.9z"/>
				<g id="XMLID_72_">
					<path id="XMLID_74_" class="st5" d="M-32,186.2h343.3c0.5,0.3,1,0.7,1.5,1.1H-32V186.2z"/>
					<path id="XMLID_73_" class="st5" d="M-32,200.9h344.8c-0.5,0.4-0.9,0.8-1.5,1.1H-32V200.9z"/>
				</g>
				<g id="XMLID_61_">
					<path id="XMLID_71_" class="st15" d="M217.8,180.4c-0.4,0-0.7-0.3-0.7-0.7s0.3-0.7,0.7-0.7c0.5,0,1.5-0.3,2.3-1.1
						c0.6-0.6,1-1.3,1.1-2.4c0-0.4,0.4-0.7,0.8-0.6c0.4,0,0.7,0.4,0.6,0.8c-0.2,1.4-0.8,2.5-1.5,3.2
						C220,179.9,218.6,180.4,217.8,180.4z"/>
					<path id="XMLID_70_" class="st15" d="M218.6,184.6c0.2,0.3,0.2,0.7-0.2,1c-0.3,0.2-0.7,0.2-1-0.2c-0.6-0.9-0.9-2.5-0.8-4.3
						c0.1-1.9,0.4-4,1-5.6c0.1-0.4,0.5-0.6,0.9-0.4c0.4,0.1,0.6,0.5,0.4,0.9c-0.5,1.5-0.9,3.5-0.9,5.2
						C218,182.7,218.2,184,218.6,184.6z"/>
					<g id="XMLID_66_">
						<path id="XMLID_67_" class="st16" d="M220,177.1L220,177.1L220,177.1C220,177.1,220.1,177.1,220,177.1h0.1h0.1l0,0l0,0h0.1
							l0,0l0,0h0.1l0,0l0,0h0.1l0,0l0,0h0.1l0,0l0,0l0,0h0.1l0,0h0.1l0,0l0,0l0,0h0.1c2.2,0,4-1.4,4-3c0,0,0,0,0-0.1l0,0
							c0,0,0,0,0-0.1l0,0c0,0,0,0,0-0.1l0,0c0,0,0,0,0-0.1l0,0c0,0,0,0,0-0.1l0,0l0,0l0,0c0,0,0,0,0-0.1l0,0c0,0,0,0,0-0.1l0,0
							c0,0,0,0,0-0.1l0,0c0,0,0,0,0-0.1l0,0c0,0,0,0,0-0.1l0,0l0,0c0,0,0,0,0-0.1l0,0c0,0,0,0,0-0.1l0,0c0,0,0,0,0-0.1l0,0
							c0,0,0,0,0-0.1l0,0c0,0,0,0,0-0.1l0,0l0,0l0,0c0,0,0,0,0-0.1l0,0c0,0,0,0,0-0.1l0,0l0,0l0,0c0,0,0,0,0-0.1l0,0c0,0,0,0,0-0.1
							l0,0l0,0c0,0,0,0,0-0.1l0,0c0,0,0,0,0-0.1l0,0l0,0l0,0c0,0,0,0,0-0.1l0,0l0,0l0,0l0,0l0,0l0,0l0,0l0,0l0,0l0,0l0,0l0,0l0,0
							l0,0l0,0l0,0l0,0l0,0l0,0c0,0,0,0-0.1,0l0,0l0,0l0,0l0,0l0,0c0,0,0,0-0.1,0l0,0l0,0l0,0c0,0,0,0-0.1,0l0,0h-0.1l0,0l0,0l0,0
							c0,0,0,0,0-0.1l0,0c0,0,0,0,0-0.1l0,0c0,0,0,0,0-0.1l0,0c0,0,0,0,0-0.1l0,0l0,0c0,0,0,0,0-0.1l0,0c0,0,0,0,0-0.1l0,0
							c0,0,0,0,0-0.1l0,0l0,0v-0.1l0,0l0,0l0,0c0,0,0,0,0-0.1l0,0l0,0l0,0c0,0,0,0,0-0.1l0,0l0,0l0,0v-0.1c0-1.7-1.8-3-4-3h-0.1l0,0
							h-0.1l0,0h-0.1l0,0c0,0,0,0-0.1,0l0,0c0,0,0,0-0.1,0l0,0l0,0h-0.1l0,0h-0.1l0,0h-0.1l0,0c0,0,0,0-0.1,0l0,0h-0.1l0,0h-0.1l0,0
							h-0.1l0,0c0,0,0,0-0.1,0l0,0l0,0l0,0h-0.1l0,0H219l0,0c0,0,0,0-0.1,0l0,0l0,0l0,0l0,0l0,0c0,0,0,0-0.1,0l0,0l0,0l0,0
							c0,0,0,0-0.1,0l0,0l0,0l0,0l0,0l0,0c0,0,0,0-0.1,0l0,0l0,0l0,0l0,0l0,0l0,0l0,0l0,0l0,0l0,0c0,0,0,0-0.1,0l0,0l0,0l0,0l0,0
							l0,0l0,0l0,0l0,0l0,0l0,0c0,0,0,0-0.1,0.1l0,0l0,0l0,0l0,0l0,0l0,0l0,0l0,0l0,0l-0.1,0.1l0,0l0,0l0,0l0,0l0,0l0,0l0,0
							c0,0,0,0.1-0.1,0.1l0,0l0,0l0,0l0,0l0,0l0,0c-2.2,0-4,1.4-4,3c0,0,0,0,0,0.1l0,0l0,0l0,0c0,0,0,0,0,0.1l0,0c0,0,0,0,0,0.1l0,0
							l0,0l0,0c0,0,0,0,0,0.1l0,0c0,0,0,0,0,0.1l0,0c0,0,0,0,0,0.1l0,0c0,0,0,0,0,0.1l0,0c0,0,0,0,0,0.1l0,0c0,0,0,0,0,0.1l0,0
							c0,0,0,0,0,0.1l0,0l0,0l0,0c0,0,0,0,0,0.1l0,0l0,0l0,0c0,0,0,0,0,0.1l0,0l0,0l0,0c0,0,0,0,0,0.1l0,0l0,0l0,0l0,0l0,0
							c0,0,0,0,0,0.1l0,0l0,0l0,0l0,0l0,0c0,0,0,0,0,0.1l0,0l0,0l0,0l0,0l0,0l0,0l0,0l0,0l0,0l0,0l0,0l0,0l0,0l0,0l0,0l0,0l0,0l0,0
							l0,0l0,0l0,0l0,0c0,0,0,0,0.1,0l0,0l0,0l0,0l0,0l0,0c0,0,0,0,0.1,0l0,0l0,0l0,0l0,0l0,0c0,0,0,0,0.1,0l0,0l0,0l0,0l0,0l0,0
							c0,0,0,0,0.1,0l0,0l0,0l0,0l0,0l0,0c0,0,0,0,0.1,0l0,0l0,0l0,0l0,0l0,0l0,0c0.4,1.3,2,2.3,3.9,2.3
							C218.7,177.5,219.4,177.4,220,177.1L220,177.1z M215.9,169.1L215.9,169.1L215.9,169.1z"/>
					</g>
					<g id="XMLID_62_">
						<path id="XMLID_63_" class="st17" d="M224.6,175.2c0.2-0.3,0.2-0.7,0.2-1c0,0,0,0,0-0.1l0,0c0,0,0,0,0-0.1l0,0c0,0,0,0,0-0.1
							l0,0c0,0,0,0,0-0.1l0,0c0,0,0,0,0-0.1l0,0l0,0l0,0c0,0,0,0,0-0.1l0,0c0,0,0,0,0-0.1l0,0c0,0,0,0,0-0.1l0,0c0,0,0,0,0-0.1l0,0
							c0,0,0,0,0-0.1l0,0l0,0c0,0,0,0,0-0.1l0,0c0,0,0,0,0-0.1l0,0c0,0,0,0,0-0.1l0,0c0,0,0,0,0-0.1l0,0c0,0,0,0,0-0.1l0,0l0,0l0,0
							c0,0,0,0,0-0.1l0,0c0,0,0,0,0-0.1l0,0l0,0l0,0c0,0,0,0,0-0.1l0,0c0,0,0,0,0-0.1l0,0l0,0c0,0,0,0,0-0.1l0,0c0,0,0,0,0-0.1l0,0
							l0,0l0,0c0,0,0,0,0-0.1l0,0l0,0l0,0l0,0l0,0l0,0l0,0l0,0l0,0l0,0l0,0l0,0l0,0l0,0l0,0l0,0l0,0l0,0l0,0c0,0,0,0-0.1,0l0,0l0,0
							l0,0l0,0l0,0c0,0,0,0-0.1,0l0,0l0,0l0,0c0,0,0,0-0.1,0l0,0h-0.1l0,0l0,0l0,0c0,0,0,0,0-0.1l0,0c0,0,0,0,0-0.1l0,0
							c0,0,0,0,0-0.1l0,0c0,0,0,0,0-0.1l0,0l0,0c0,0,0,0,0-0.1l0,0c0,0,0,0,0-0.1l0,0c0,0,0,0,0-0.1l0,0l0,0v-0.1l0,0l0,0l0,0
							c0,0,0,0,0-0.1l0,0l0,0l0,0c0,0,0,0,0-0.1l0,0l0,0l0,0v-0.1c0-1.7-1.8-3-4-3h-0.1l0,0h-0.1l0,0h-0.1l0,0c0,0,0,0-0.1,0l0,0
							c0,0,0,0-0.1,0l0,0l0,0h-0.1l0,0h-0.1l0,0h-0.1l0,0c0,0,0,0-0.1,0l0,0h-0.1l0,0h-0.1l0,0h-0.1l0,0c0,0,0,0-0.1,0l0,0l0,0l0,0
							H219l0,0h-0.1l0,0c0,0,0,0-0.1,0l0,0l0,0l0,0l0,0l0,0c0,0,0,0-0.1,0l0,0l0,0l0,0c0,0,0,0-0.1,0l0,0l0,0l0,0l0,0l0,0
							c0,0,0,0-0.1,0l0,0l0,0l0,0l0,0l0,0l0,0l0,0l0,0l0,0l0,0c0,0,0,0-0.1,0l0,0l0,0l0,0l0,0l0,0l0,0l0,0l0,0l0,0l0,0
							c0,0,0,0-0.1,0.1l0,0l0,0l0,0l0,0l0,0l0,0l0,0l0,0l0,0l-0.1,0.1l0,0l0,0l0,0l0,0l0,0l0,0l0,0c0,0,0,0.1-0.1,0.1l0,0l0,0l0,0
							l0,0l0,0l0,0c-0.9,0-1.7,0.2-2.3,0.6c-0.2,0.3-0.2,0.7-0.2,1c0,0,0,0,0,0.1l0,0l0,0l0,0c0,0,0,0,0,0.1l0,0c0,0,0,0,0,0.1l0,0
							l0,0l0,0c0,0,0,0,0,0.1l0,0c0,0,0,0,0,0.1l0,0c0,0,0,0,0,0.1l0,0c0,0,0,0,0,0.1l0,0c0,0,0,0,0,0.1l0,0c0,0,0,0,0,0.1l0,0
							c0,0,0,0,0,0.1l0,0l0,0l0,0c0,0,0,0,0,0.1l0,0l0,0l0,0c0,0,0,0,0,0.1l0,0l0,0l0,0c0,0,0,0,0,0.1l0,0l0,0l0,0l0,0l0,0
							c0,0,0,0,0,0.1l0,0l0,0l0,0l0,0l0,0c0,0,0,0,0,0.1l0,0l0,0l0,0l0,0l0,0l0,0l0,0l0,0l0,0l0,0l0,0l0,0l0,0l0,0l0,0l0,0l0,0l0,0
							l0,0l0,0l0,0l0,0c0,0,0,0,0.1,0l0,0l0,0l0,0l0,0l0,0c0,0,0,0,0.1,0l0,0l0,0l0,0l0,0l0,0c0,0,0,0,0.1,0l0,0l0,0l0,0l0,0l0,0
							c0,0,0,0,0.1,0l0,0l0,0l0,0l0,0l0,0c0,0,0,0,0.1,0l0,0l0,0l0,0l0,0l0,0l0,0c0.4,1.3,2,2.3,3.9,2.3c0.7,0,1.4-0.2,2-0.4l0,0
							l0,0h0.1l0,0h0.1l0,0l0,0h0.1l0,0l0,0h0.1l0,0l0,0h0.1l0,0l0,0h0.1l0,0l0,0l0,0h0.1l0,0h0.1l0,0l0,0l0,0h0.1
							C223.2,175.7,224,175.5,224.6,175.2L224.6,175.2z M215.9,169.1L215.9,169.1L215.9,169.1z"/>
					</g>
				</g>
				<g id="XMLID_19_">
					<rect id="XMLID_60_" x="-32" y="193.6" class="st5" width="6.9" height="1.1"/>
					<rect id="XMLID_59_" x="-23.4" y="193.6" class="st5" width="6.9" height="1.1"/>
					<rect id="XMLID_58_" x="-14.7" y="193.6" class="st5" width="6.9" height="1.1"/>
					<rect id="XMLID_57_" x="-6" y="193.6" class="st5" width="6.9" height="1.1"/>
					<rect id="XMLID_56_" x="2.7" y="193.6" class="st5" width="6.9" height="1.1"/>
					<rect id="XMLID_55_" x="11.3" y="193.6" class="st5" width="6.9" height="1.1"/>
					<rect id="XMLID_54_" x="20" y="193.6" class="st5" width="6.9" height="1.1"/>
					<rect id="XMLID_53_" x="28.7" y="193.6" class="st5" width="6.9" height="1.1"/>
					<rect id="XMLID_52_" x="37.4" y="193.6" class="st5" width="6.9" height="1.1"/>
					<rect id="XMLID_51_" x="46.1" y="193.6" class="st5" width="6.9" height="1.1"/>
					<rect id="XMLID_50_" x="54.7" y="193.6" class="st5" width="6.9" height="1.1"/>
					<rect id="XMLID_49_" x="63.4" y="193.6" class="st5" width="6.9" height="1.1"/>
					<rect id="XMLID_48_" x="72.1" y="193.6" class="st5" width="6.9" height="1.1"/>
					<rect id="XMLID_47_" x="80.8" y="193.6" class="st5" width="6.9" height="1.1"/>
					<rect id="XMLID_46_" x="89.4" y="193.6" class="st5" width="6.9" height="1.1"/>
					<rect id="XMLID_45_" x="98.1" y="193.6" class="st5" width="6.9" height="1.1"/>
					<rect id="XMLID_44_" x="106.8" y="193.6" class="st5" width="6.9" height="1.1"/>
					<rect id="XMLID_43_" x="115.5" y="193.6" class="st5" width="6.9" height="1.1"/>
					<rect id="XMLID_42_" x="124.2" y="193.6" class="st5" width="6.9" height="1.1"/>
					<rect id="XMLID_41_" x="132.8" y="193.6" class="st5" width="6.9" height="1.1"/>
					<rect id="XMLID_40_" x="141.5" y="193.6" class="st5" width="6.9" height="1.1"/>
					<rect id="XMLID_39_" x="150.2" y="193.6" class="st5" width="6.9" height="1.1"/>
					<rect id="XMLID_38_" x="158.9" y="193.6" class="st5" width="6.9" height="1.1"/>
					<rect id="XMLID_37_" x="167.5" y="193.6" class="st5" width="6.9" height="1.1"/>
					<rect id="XMLID_36_" x="176.2" y="193.6" class="st5" width="6.9" height="1.1"/>
					<rect id="XMLID_35_" x="184.9" y="193.6" class="st5" width="6.9" height="1.1"/>
					<rect id="XMLID_34_" x="193.6" y="193.6" class="st5" width="6.9" height="1.1"/>
					<rect id="XMLID_33_" x="202.3" y="193.6" class="st5" width="6.9" height="1.1"/>
					<rect id="XMLID_32_" x="210.9" y="193.6" class="st5" width="6.9" height="1.1"/>
					<rect id="XMLID_31_" x="219.6" y="193.6" class="st5" width="6.9" height="1.1"/>
					<rect id="XMLID_30_" x="228.3" y="193.6" class="st5" width="6.9" height="1.1"/>
					<rect id="XMLID_29_" x="237" y="193.6" class="st5" width="6.9" height="1.1"/>
					<rect id="XMLID_28_" x="245.6" y="193.6" class="st5" width="6.9" height="1.1"/>
					<rect id="XMLID_27_" x="254.3" y="193.6" class="st5" width="6.9" height="1.1"/>
					<rect id="XMLID_26_" x="263" y="193.6" class="st5" width="6.9" height="1.1"/>
					<rect id="XMLID_25_" x="271.7" y="193.6" class="st5" width="6.9" height="1.1"/>
					<rect id="XMLID_24_" x="280.4" y="193.6" class="st5" width="6.9" height="1.1"/>
					<rect id="XMLID_23_" x="289" y="193.6" class="st5" width="6.9" height="1.1"/>
					<rect id="XMLID_22_" x="297.7" y="193.6" class="st5" width="6.9" height="1.1"/>
					<rect id="XMLID_21_" x="306.4" y="193.6" class="st5" width="6.9" height="1.1"/>
					<path id="XMLID_20_" class="st5" d="M315.1,193.6h0.7c0,0.2,0,0.4,0,0.6l0,0c0,0.2,0,0.4,0,0.6h-0.7V193.6z"/>
				</g>
				<g id="XMLID_3_">
					<path id="XMLID_18_" class="st19" d="M26.5,181.6h5.6c2.4,0,4.8,2.9,7,4.3c1.5,1,2.4,1,3.2,1.2c1.2,0.3,1.9,1.1,2.2,1.7
						c0.3,0.6,0.5,2,0.5,2.7c0,0.8-0.5,1.1-1,1.1H20.2c-0.5,0-0.8-0.6-0.8-1.1c-0.1-0.8-0.2-2.3,0-3.1
						C19.9,185.8,22,181.6,26.5,181.6z"/>
					<path id="XMLID_17_" class="st20" d="M45,191.5c0-0.1,0-0.2,0-0.3l-25.7-0.3c0,0.2,0,0.5,0,0.7c0,0.5,0.3,1.1,0.8,1.1H44
						C44.5,192.6,45,192.3,45,191.5z"/>
					<path id="XMLID_16_" class="st20" d="M21.3,192.6c0-2.4,1.5-3.4,3.4-3.4s3.4,1,3.4,3.4H21.3z"/>
					<circle id="XMLID_15_" class="st21" cx="24.7" cy="192.7" r="2.7"/>
					<circle id="XMLID_14_" class="st22" cx="24.7" cy="192.7" r="1.8"/>
					<path id="XMLID_13_" class="st20" d="M35.7,192.6c0-2.4,1.5-3.4,3.4-3.4s3.4,1,3.4,3.4H35.7z"/>
					<circle id="XMLID_12_" class="st21" cx="39.1" cy="192.7" r="2.7"/>
					<circle id="XMLID_11_" class="st22" cx="39.1" cy="192.7" r="1.8"/>
					<path id="XMLID_10_" class="st23" d="M32.4,182.2c0,0,3.3,0.6,5.2,4.2h-5.2V182.2z"/>
					<rect id="XMLID_9_" x="26.3" y="182.2" class="st23" width="5.5" height="4.2"/>
					<path id="XMLID_8_" class="st23" d="M25.7,182.2v4.2c0,0-2.6,0-4.2,0C19.9,186.5,22.6,182.4,25.7,182.2z"/>
					<path id="XMLID_7_" class="st24" d="M32.8,187.2c0,0.1-0.1,0.2-0.2,0.2h-0.7c-0.1,0-0.2-0.1-0.2-0.2v-0.1
						c0-0.1,0.1-0.2,0.2-0.2h0.7c0.1,0,0.2,0.1,0.2,0.2V187.2z"/>
					<path id="XMLID_6_" class="st24" d="M27.1,187.2c0,0.1-0.1,0.2-0.2,0.2h-0.7c-0.1,0-0.2-0.1-0.2-0.2v-0.1
						c0-0.1,0.1-0.2,0.2-0.2h0.7c0.1,0,0.2,0.1,0.2,0.2V187.2z"/>
					<path id="XMLID_5_" class="st24" d="M38.2,186.6c0,0.2-0.2,0.3-0.3,0.2l-0.9-0.1c-0.2,0-0.3-0.2-0.2-0.3v-0.2
						c0-0.2,0.2-0.3,0.3-0.2l0.9,0.1c0.2,0,0.3,0.2,0.2,0.3V186.6z"/>
					<path id="XMLID_4_" class="st25" d="M43.7,187.9c-0.3,0.2-0.6,0.6-0.6,1.1c0,0.7,0.5,1.2,1.1,1.2c0.2,0,0.4,0,0.5-0.1
						c-0.1-0.5-0.2-1-0.3-1.2C44.3,188.5,44,188.2,43.7,187.9z"/>
				</g>
			</g>
		</g>
	</g>
</g>
<polygon class="st5" points="320.9,207.2 309.4,195.7 304.4,200.7 299.4,195.7 294.4,200.7 289.4,195.7 284.4,200.7 279.4,195.7 
	274.4,200.7 269.4,195.7 264.4,200.7 259.4,195.7 254.4,200.7 249.4,195.7 244.4,200.7 239.4,195.7 234.4,200.7 229.4,195.7 
	224.4,200.7 219.4,195.7 214.4,200.7 209.4,195.7 204.4,200.7 199.4,195.7 194.4,200.7 189.4,195.7 184.4,200.7 179.4,195.7 
	174.4,200.7 169.4,195.7 164.4,200.7 159.4,195.7 154.4,200.7 149.4,195.7 144.4,200.7 139.4,195.7 134.4,200.7 129.4,195.7 
	124.4,200.7 119.4,195.7 114.4,200.7 109.4,195.7 104.4,200.7 99.4,195.7 94.4,200.7 89.4,195.7 84.4,200.7 79.4,195.7 74.4,200.7 
	69.4,195.7 64.4,200.7 59.4,195.7 54.4,200.7 49.4,195.7 44.4,200.7 39.4,195.7 34.4,200.7 29.4,195.7 24.4,200.7 19.4,195.7 
	14.4,200.7 9.4,195.7 4.4,200.7 -0.6,195.7 -5.6,200.7 -10.6,195.7 -15.6,200.7 -20.6,195.7 -25.6,200.7 -30.6,195.7 -35.6,200.7 
	-40.6,195.7 -50.8,205.9 "/>
</svg>
