<?xml version="1.0" encoding="utf-8"?>
<!-- Generator: Adobe Illustrator 19.0.0, SVG Export Plug-In . SVG Version: 6.00 Build 0)  -->
<svg version="1.1" id="Camada_1" xmlns="http://www.w3.org/2000/svg" xmlns:xlink="http://www.w3.org/1999/xlink" x="0px" y="0px"
	 viewBox="0 0 300 221" style="enable-background:new 0 0 300 221;" xml:space="preserve">
<style type="text/css">
	.st0{opacity:0.45;}
	.st1{fill:#CE9333;}
	.st2{fill:#FFFFFF;}
	.st3{fill:#F1CD8B;}
	.st4{fill:#ECB752;}
</style>
<g>
	<g class="st0">
		<path class="st1" d="M249.1,117.6h-36.9c-1.8-1.2-3.1-3.5-3.1-6.1c0-3.6,2.4-6.6,5.3-6.9h21.3c3.2,0,5.8-3.1,5.8-6.9
			s-2.6-6.9-5.8-6.9h-5.9c-3.2,0-5.8-3.1-5.8-6.9s2.6-6.9,5.8-6.9h24.6c3.2,0,5.8-3.1,5.8-6.9l0,0c0-3.8-2.6-6.9-5.8-6.9H216
			c-2.4-0.9-4.1-3.5-4.1-6.6c0-3.6,2.4-6.6,5.4-6.9h23.8c3.2,0,5.8-3.1,5.8-6.9c0-3.8-2.6-6.9-5.8-6.9H52.9c-3.2,0-5.8,3.1-5.8,6.9
			s2.6,6.9,5.8,6.9h18c3,0.3,5.4,3.3,5.4,6.9c0,3.1-1.7,5.7-4.1,6.6H33.9c-3.2,0-5.8,3.1-5.8,6.9l0,0c0,3.8,2.6,6.9,5.8,6.9h29.5
			c3.2,0,5.8,3.1,5.8,6.9s-2.6,6.9-5.8,6.9H48.1c-3.2,0-5.8,3.1-5.8,6.9s2.6,6.9,5.8,6.9h27.4c3,0.3,5.3,3.3,5.3,6.9
			c0,2.6-1.3,4.9-3.1,6.1H38.8c-3.2,0-5.8,3.1-5.8,6.9c0,3.8,2.6,6.9,5.8,6.9h25.3c3.1,0.2,5.5,3.2,5.5,6.9c0,3.6-2.4,6.6-5.4,6.9
			H52.9c-3.2,0-5.8,3.1-5.8,6.9c0,3.8,2.6,6.9,5.8,6.9h188.2c3.2,0,5.8-3.1,5.8-6.9c0-3.8-2.6-6.9-5.8-6.9h-9.8
			c-3-0.3-5.4-3.3-5.4-6.9c0-3.7,2.5-6.7,5.5-6.9h17.5c3.2,0,5.8-3.1,5.8-6.9C254.9,120.7,252.3,117.6,249.1,117.6z"/>
		<path class="st1" d="M294.2,117.6h-21.9c-3.2,0-5.8,3.1-5.8,6.9c0,3.8,2.6,6.9,5.8,6.9h21.9c3.2,0,5.8-3.1,5.8-6.9
			C300,120.7,297.4,117.6,294.2,117.6z"/>
		<path class="st1" d="M15.5,117.6H5c-3.2,0-5.8,3.1-5.8,6.9c0,3.8,2.6,6.9,5.8,6.9h10.5c3.2,0,5.8-3.1,5.8-6.9
			C21.3,120.7,18.7,117.6,15.5,117.6z"/>
		<path class="st1" d="M271.7,77.4h5.8c3.2,0,5.8-3.1,5.8-6.9l0,0c0-3.8-2.6-6.9-5.8-6.9h-5.8c-3.2,0-5.8,3.1-5.8,6.9l0,0
			C265.9,74.3,268.5,77.4,271.7,77.4z"/>
		<path class="st1" d="M8.9,77.4h5.8c3.2,0,5.8-3.1,5.8-6.9l0,0c0-3.8-2.6-6.9-5.8-6.9H8.9c-3.2,0-5.8,3.1-5.8,6.9l0,0
			C3.1,74.3,5.7,77.4,8.9,77.4z"/>
		<path class="st1" d="M36.1,97.9c0-3.8-2.6-6.9-5.8-6.9h-5.8c-3.2,0-5.8,3.1-5.8,6.9s2.6,6.9,5.8,6.9h5.8
			C33.5,104.8,36.1,101.7,36.1,97.9z"/>
		<path class="st1" d="M268.6,97.9c0-3.8-2.6-6.9-5.8-6.9H257c-3.2,0-5.8,3.1-5.8,6.9s2.6,6.9,5.8,6.9h5.8
			C266,104.8,268.6,101.7,268.6,97.9z"/>
	</g>
	<path class="st2" d="M288.1,172.2H5.4c-1.2,0-2.2-1-2.2-2.2l0,0c0-1.2,1-2.2,2.2-2.2h282.7c1.2,0,2.2,1,2.2,2.2l0,0
		C290.3,171.2,289.3,172.2,288.1,172.2z"/>
	<g>
		<path class="st2" d="M108.8,205.3c0,2.4-0.8,4.3-2.5,5.8s-3.9,2.3-6.5,2.3h-6.6v-27.6H99c2.8,0,5,0.6,6.5,1.9
			c1.5,1.2,2.3,3,2.3,5.2c0,2.8-1.4,4.7-4.2,5.7v0.1C107.1,199.1,108.8,201.4,108.8,205.3z M103.8,193.1c0-2.6-1.6-3.9-4.9-3.9H97
			v8.1h1.8C102.2,197.3,103.8,195.9,103.8,193.1z M104.6,205.1c0-3.3-1.8-4.9-5.3-4.9h-2.2v9.6h2.1
			C102.8,209.9,104.6,208.3,104.6,205.1z"/>
		<path class="st2" d="M135.4,213.4h-4.2l-2.7-7.8h-9.2l-2.7,7.8h-4.2l9.9-27.6h3.2L135.4,213.4z M129.6,175.8l-8,7.3l-1.8-1.2
			l5.1-6.2L129.6,175.8L129.6,175.8z M127.3,202.4l-3.5-10.1l-3.5,10.1H127.3z"/>
		<path class="st2" d="M155.3,205.7c0,2.5-0.8,4.4-2.4,6c-1.6,1.5-3.7,2.3-6.3,2.3c-3.6,0-6.2-1.5-7.9-4.6l3-2.5
			c1.5,2.3,3.3,3.5,5.2,3.5c1.4,0,2.5-0.4,3.4-1.3c0.9-0.8,1.3-2,1.3-3.4c0-2-1.4-3.6-4.2-4.7l-1.9-0.7c-4-1.6-6-4.2-6-7.8
			c0-2.1,0.8-3.9,2.4-5.3c1.6-1.4,3.6-2.2,6-2.2c2.2,0,4.4,0.7,6.4,2.1l-1.4,3.8c-2.3-1.4-4.2-2.1-5.6-2.1c-1.2,0-2.1,0.3-2.8,1
			s-1.1,1.6-1.1,2.7c0,1.5,1.2,2.8,3.7,3.9l1.9,0.9c2.3,1,3.9,2.1,4.9,3.4C154.8,201.9,155.3,203.6,155.3,205.7z"/>
		<path class="st2" d="M165.5,213.4h-4.2v-27.6h4.2V213.4z"/>
		<path class="st2" d="M191.4,211.3c-2.2,1.8-4.9,2.7-7.9,2.7c-3.4,0-6.2-1.3-8.5-4s-3.4-6.1-3.4-10.3c0-5.3,1.9-9.4,5.6-12.2
			c2.1-1.6,4.5-2.4,7.1-2.4c2.8,0,5.2,0.6,7.2,1.9l-1.1,3.9c-2.1-1.2-4.1-1.8-6.1-1.8c-2.4,0-4.4,1-6,3s-2.4,4.6-2.4,7.7
			c0,3,0.8,5.6,2.3,7.5c1.6,2,3.5,3,5.7,3s4.5-0.8,6.9-2.5L191.4,211.3z"/>
		<path class="st2" d="M220.9,199.6c0,4-1.3,7.4-3.8,10.2s-5.6,4.2-9.2,4.2c-3.6,0-6.6-1.4-9.1-4.2s-3.7-6.2-3.7-10.2
			s1.3-7.5,3.8-10.3s5.6-4.2,9.1-4.2s6.6,1.4,9.1,4.2S220.9,195.5,220.9,199.6z M216.7,199.5c0-3-0.9-5.5-2.6-7.5
			c-1.7-2-3.7-3-6.1-3c-2.4,0-4.5,1-6.2,3s-2.6,4.5-2.6,7.6s0.9,5.6,2.6,7.7c1.7,2.1,3.8,3.1,6.2,3.1s4.4-1,6.1-3.1
			C215.8,205.1,216.7,202.6,216.7,199.5z"/>
	</g>
	<g>
		<circle class="st3" cx="147.7" cy="82.6" r="62.6"/>
		<path class="st4" d="M150.4,33.2C123.1,31.7,99.8,52.7,98.3,80s19.5,50.6,46.8,52.1s50.6-19.5,52.1-46.8
			C198.6,58,177.7,34.7,150.4,33.2z M145.5,124.1c-22.9-1.2-40.4-20.8-39.2-43.7c1.2-22.9,20.8-40.4,43.7-39.2s40.4,20.8,39.2,43.7
			C187.9,107.8,168.4,125.3,145.5,124.1z"/>
		<circle class="st2" cx="147.7" cy="82.6" r="41.5"/>
		<g>
			<path class="st3" d="M150.5,105.9l-0.5,10l-8.7-0.5l0.5-10c-6.1-1.2-11.9-4-16-7.9l5.1-9.1c4.5,4.3,11.4,7.5,16.2,7.8
				c3.5,0.2,5.8-1,5.9-3.4c0.4-7.8-23.9-4.4-23-20.5c0.4-7.2,5.9-12,14.3-12.9l0.5-9.6l8.7,0.5l-0.5,9.5c5.3,0.9,10.3,3,14,5.7
				l-5,9.2c-4.7-3-10.7-5.5-14.5-5.7c-2.9-0.2-4.8,0.8-4.9,2.9c-0.4,7.6,23.9,4.6,23,21C165.1,100.9,158.8,105.2,150.5,105.9z"/>
		</g>
	</g>
</g>
</svg>
