<?xml version="1.0" encoding="utf-8"?>
<!-- Generator: Adobe Illustrator 19.0.0, SVG Export Plug-In . SVG Version: 6.00 Build 0)  -->
<svg version="1.1" id="Camada_1" xmlns="http://www.w3.org/2000/svg" xmlns:xlink="http://www.w3.org/1999/xlink" x="0px" y="0px"
	 viewBox="0 0 300 259" style="enable-background:new 0 0 300 259;" xml:space="preserve">
<style type="text/css">
	.st0{opacity:0.45;}
	.st1{fill:#639E8A;}
	.st2{fill:#FFFFFF;}
	.st3{enable-background:new    ;}
	.st4{fill:#B4D4D0;}
	.st5{fill:#7EB5A7;}
	.st6{fill:#9FC8C1;}
</style>
<g id="XMLID_20_">
	<g id="XMLID_35_" class="st0">
		<path id="XMLID_42_" class="st1" d="M246.9,121.1h-36.4c-1.8-1.1-3.1-3.4-3.1-6c0-3.5,2.3-6.5,5.3-6.8h21c3.2,0,5.8-3.1,5.8-6.8
			c0-3.7-2.6-6.8-5.8-6.8h-5.8c-3.1,0-5.7-3.1-5.7-6.8c0-3.7,2.6-6.8,5.8-6.8h24.3c3.2,0,5.8-3.1,5.8-6.8l0,0c0-3.7-2.6-6.8-5.8-6.8
			h-37.9c-2.3-0.9-4-3.5-4-6.5c0-3.6,2.4-6.5,5.3-6.8h23.5c3.2,0,5.8-3.1,5.8-6.8s-2.6-6.8-5.8-6.8H53.4c-3.2,0-5.8,3.1-5.8,6.8
			s2.6,6.8,5.8,6.8h17.7c3,0.3,5.3,3.2,5.3,6.8c0,3-1.7,5.6-4,6.5H34.6c-3.2,0-5.8,3.1-5.8,6.8l0,0c0,3.7,2.6,6.8,5.8,6.8h29.1
			c3.2,0,5.8,3.1,5.8,6.8c0,3.7-2.6,6.8-5.7,6.8H48.6c-3.2,0-5.8,3.1-5.8,6.8c0,3.7,2.6,6.8,5.8,6.8h27c2.9,0.3,5.3,3.2,5.3,6.8
			c0,2.6-1.2,4.9-3.1,6H39.4c-3.2,0-5.8,3.1-5.8,6.8s2.6,6.8,5.8,6.8h25c3,0.2,5.5,3.2,5.5,6.8s-2.4,6.5-5.3,6.8H53.4
			c-3.2,0-5.8,3.1-5.8,6.8s2.6,6.8,5.8,6.8h185.8c3.2,0,5.8-3.1,5.8-6.8s-2.6-6.8-5.8-6.8h-9.6c-3-0.3-5.3-3.2-5.3-6.8
			s2.4-6.6,5.5-6.8h17.3c3.2,0,5.8-3.1,5.8-6.8C252.7,124.2,250.1,121.1,246.9,121.1z"/>
		<path id="XMLID_41_" class="st1" d="M291.4,121.1h-21.6c-3.2,0-5.8,3.1-5.8,6.8s2.6,6.8,5.8,6.8h21.6c3.2,0,5.8-3.1,5.8-6.8
			C297.2,124.2,294.6,121.1,291.4,121.1z"/>
		<path id="XMLID_40_" class="st1" d="M16.4,121.1H6.1c-3.2,0-5.8,3.1-5.8,6.8s2.6,6.8,5.8,6.8h10.3c3.2,0,5.8-3.1,5.8-6.8
			C22.2,124.2,19.6,121.1,16.4,121.1z"/>
		<path id="XMLID_39_" class="st1" d="M269.3,81.5h5.8c3.2,0,5.8-3.1,5.8-6.8l0,0c0-3.7-2.6-6.8-5.8-6.8h-5.8
			c-3.2,0-5.8,3.1-5.8,6.8l0,0C263.5,78.4,266.1,81.5,269.3,81.5z"/>
		<path id="XMLID_38_" class="st1" d="M10,81.5h5.8c3.2,0,5.8-3.1,5.8-6.8l0,0c0-3.7-2.6-6.8-5.8-6.8H10c-3.2,0-5.8,3.1-5.8,6.8l0,0
			C4.2,78.4,6.8,81.5,10,81.5z"/>
		<path id="XMLID_37_" class="st1" d="M36.8,101.7c0-3.7-2.6-6.8-5.8-6.8h-5.8c-3.2,0-5.8,3.1-5.8,6.8c0,3.7,2.6,6.8,5.8,6.8H31
			C34.2,108.5,36.8,105.4,36.8,101.7z"/>
		<path id="XMLID_36_" class="st1" d="M266.2,101.7c0-3.7-2.6-6.8-5.8-6.8h-5.8c-3.2,0-5.8,3.1-5.8,6.8c0,3.7,2.6,6.8,5.8,6.8h5.8
			C263.6,108.5,266.2,105.4,266.2,101.7z"/>
	</g>
	<path id="XMLID_34_" class="st2" d="M285.5,175H6.4c-1.2,0-2.2-1-2.2-2.2l0,0c0-1.2,1-2.2,2.2-2.2h279c1.2,0,2.2,1,2.2,2.2l0,0
		C287.6,174,286.7,175,285.5,175z"/>
	<g class="st3">
		<path class="st2" d="M81.8,207.4c0,2.4-0.8,4.3-2.5,5.8c-1.7,1.5-3.9,2.3-6.5,2.3h-6.6v-27.6H72c2.8,0,5,0.6,6.5,1.9
			c1.5,1.2,2.3,3,2.3,5.2c0,2.8-1.4,4.7-4.2,5.7v0.1C80.1,201.3,81.8,203.5,81.8,207.4z M76.8,195.2c0-2.6-1.6-3.9-4.9-3.9h-1.9v8.1
			h1.8C75.2,199.4,76.8,198,76.8,195.2z M77.6,207.3c0-3.3-1.8-4.9-5.3-4.9h-2.2v9.6h2.1C75.8,212,77.6,210.4,77.6,207.3z"/>
		<path class="st2" d="M108.1,204.1c0,3.8-0.9,6.8-2.8,8.9c-1.8,2.1-4.4,3.2-7.7,3.2c-3.2,0-5.7-1-7.5-3.1c-1.8-2.1-2.7-5-2.7-8.9
			v-16.3h3.9v16.3c0,5.6,2.2,8.4,6.5,8.4c4.3,0,6.5-2.8,6.5-8.4v-16.3h3.9V204.1z"/>
		<path class="st2" d="M129.9,207.9c0,2.5-0.8,4.4-2.4,6c-1.6,1.5-3.7,2.3-6.3,2.3c-3.6,0-6.2-1.5-7.9-4.6l3-2.5
			c1.5,2.3,3.3,3.5,5.2,3.5c1.4,0,2.5-0.4,3.4-1.3c0.9-0.8,1.3-2,1.3-3.4c0-2-1.4-3.6-4.2-4.7l-1.9-0.7c-4-1.6-6-4.2-6-7.8
			c0-2.1,0.8-3.9,2.4-5.3c1.6-1.4,3.6-2.2,6-2.2c2.2,0,4.4,0.7,6.4,2.1l-1.4,3.8c-2.3-1.4-4.2-2.1-5.6-2.1c-1.2,0-2.1,0.3-2.8,1
			c-0.7,0.7-1.1,1.6-1.1,2.7c0,1.5,1.2,2.8,3.7,3.9l1.9,0.9c2.3,1,3.9,2.1,4.9,3.4C129.4,204.1,129.9,205.7,129.9,207.9z"/>
		<path class="st2" d="M140.2,215.5H136v-27.6h4.2V215.5z"/>
		<path class="st2" d="M167.2,215.5h-3.9l-11.5-20v20H148v-27.6h3.6l11.6,20.1v-20.1h4V215.5z"/>
		<path class="st2" d="M189.3,215.5h-14.4v-27.6h14.4v3.5h-10.5v7.8h7v3.4h-7v9.3h10.5V215.5z"/>
		<path class="st2" d="M210.3,207.9c0,2.5-0.8,4.4-2.4,6c-1.6,1.5-3.7,2.3-6.3,2.3c-3.6,0-6.2-1.5-7.9-4.6l3-2.5
			c1.5,2.3,3.3,3.5,5.2,3.5c1.4,0,2.5-0.4,3.4-1.3c0.9-0.8,1.3-2,1.3-3.4c0-2-1.4-3.6-4.2-4.7l-1.9-0.7c-4-1.6-6-4.2-6-7.8
			c0-2.1,0.8-3.9,2.4-5.3c1.6-1.4,3.6-2.2,6-2.2c2.2,0,4.4,0.7,6.4,2.1l-1.4,3.8c-2.3-1.4-4.2-2.1-5.6-2.1c-1.2,0-2.1,0.3-2.8,1
			c-0.7,0.7-1.1,1.6-1.1,2.7c0,1.5,1.2,2.8,3.7,3.9l1.9,0.9c2.3,1,3.9,2.1,4.9,3.4C209.9,204.1,210.3,205.7,210.3,207.9z"/>
		<path class="st2" d="M230.8,207.9c0,2.5-0.8,4.4-2.4,6c-1.6,1.5-3.7,2.3-6.3,2.3c-3.6,0-6.2-1.5-7.9-4.6l3-2.5
			c1.5,2.3,3.3,3.5,5.2,3.5c1.4,0,2.5-0.4,3.4-1.3c0.9-0.8,1.3-2,1.3-3.4c0-2-1.4-3.6-4.2-4.7l-1.9-0.7c-4-1.6-6-4.2-6-7.8
			c0-2.1,0.8-3.9,2.4-5.3c1.6-1.4,3.6-2.2,6-2.2c2.2,0,4.4,0.7,6.4,2.1l-1.4,3.8c-2.3-1.4-4.2-2.1-5.6-2.1c-1.2,0-2.1,0.3-2.8,1
			c-0.7,0.7-1.1,1.6-1.1,2.7c0,1.5,1.2,2.8,3.7,3.9l1.9,0.9c2.3,1,3.9,2.1,4.9,3.4C230.3,204.1,230.8,205.7,230.8,207.9z"/>
	</g>
	<g id="XMLID_21_">
		<path id="XMLID_32_" class="st4" d="M110.3,131.2c9.2-5.7,13.2-16,8.9-23c-4.3-7-15.3-8.1-24.5-2.5c-9.2,5.7-14.6,26.5-14.6,26.5
			S101.1,136.9,110.3,131.2z"/>
		<path id="XMLID_31_" class="st5" d="M111.2,123.6c5.5-3.4,7.9-9.5,5.3-13.7s-9.1-4.8-14.6-1.5c-5.5,3.4-8.7,15.8-8.7,15.8
			S105.8,126.9,111.2,123.6z"/>
		
			<rect id="XMLID_30_" x="101.7" y="105.7" transform="matrix(-0.5235 -0.852 0.852 -0.5235 85.9095 267.8965)" class="st2" width="32.4" height="8.4"/>
		<path id="XMLID_605_" class="st4" d="M138.9,54.6c-5.1-1.4-43.3-9.9-71.9,28.8c-1.6,2.2,0.7,5.4,3.2,4.5
			c12.3-4.2,31.6-14.2,42.7-4.2l34.6-15L138.9,54.6z"/>
		<path id="XMLID_18_" class="st4" d="M176.4,115.7c-1.1,5.2-10.7,43.1-58.2,51.2c-2.7,0.5-4.5-3.1-2.6-4.9
			c9.3-9.1,27-21.7,23.1-36.2l29-24.1L176.4,115.7z"/>
		<path id="XMLID_27_" class="st2" d="M228.5,41.6L228.5,41.6l-0.1-0.1C216,37.8,143.7,21.9,111.7,86c-1.5,3-1.4,6.7,0.4,9.6
			l7.8,12.7l0.1,0.1l7.8,12.7c1.8,2.9,4.9,4.7,8.4,4.7C207.7,126,226.2,54.3,228.5,41.6z"/>
		<path id="XMLID_26_" class="st6" d="M122.9,68.4c-4.1,5.1-7.9,10.9-11.2,17.6c-1.5,3-1.4,6.7,0.4,9.6l15.6,25.4
			c1.8,2.9,4.9,4.7,8.4,4.7c7.5,0,14.4-0.7,20.7-2.1L122.9,68.4z"/>
		<path id="XMLID_25_" class="st6" d="M216.1,75.8c8.1-15.2,11.5-29.3,12.4-34.3v-0.1h-0.1c-4.9-1.5-18.9-4.8-36.2-4.4L216.1,75.8z"
			/>
		<g id="XMLID_22_">
			<circle id="XMLID_24_" class="st6" cx="178.4" cy="72.3" r="13.9"/>
			<circle id="XMLID_23_" class="st5" cx="178.4" cy="72.3" r="9.1"/>
		</g>
	</g>
</g>
</svg>
