<?xml version="1.0" encoding="utf-8"?>
<!-- Generator: Adobe Illustrator 19.0.0, SVG Export Plug-In . SVG Version: 6.00 Build 0)  -->
<svg version="1.1" id="Camada_1" xmlns="http://www.w3.org/2000/svg" xmlns:xlink="http://www.w3.org/1999/xlink" x="0px" y="0px"
	 viewBox="0 -39.5 300 213.1" style="enable-background:new 0 -39.5 300 213.1;" xml:space="preserve">
<style type="text/css">
	.st0{opacity:0.45;}
	.st1{fill:#5C86B7;}
	.st2{fill:#C4DBF2;}
	.st3{fill:#FFFFFF;}
	.st4{fill:#EBECEF;}
	.st5{fill:#7CA4D5;}
	.st6{enable-background:new    ;}
</style>
<g>
	<g class="st0">
		<path id="XMLID_17_" class="st1" d="M246,61h-35.8c-1.8-1.1-3-3.4-3-5.9c0-3.5,2.3-6.4,5.2-6.7h20.7c3.1,0,5.7-3,5.7-6.7
			s-2.5-6.7-5.7-6.7h-5.7c-3.1,0-5.6-3-5.6-6.7s2.5-6.7,5.7-6.7h23.9c3.1,0,5.7-3,5.7-6.7l0,0c0-3.7-2.5-6.7-5.7-6.7H214
			c-2.3-0.9-4-3.4-4-6.4c0-3.5,2.3-6.4,5.2-6.7h23.1c3.1,0,5.7-3,5.7-6.7s-2.5-6.7-5.7-6.7H55.8c-3.1,0-5.7,3-5.7,6.7
			s2.5,6.7,5.7,6.7h17.4c2.9,0.3,5.2,3.2,5.2,6.7c0,3-1.7,5.5-4,6.4h-37c-3.1,0-5.7,3-5.7,6.7l0,0c0,3.7,2.5,6.7,5.7,6.7H66
			c3.1,0,5.7,3,5.7,6.7s-2.5,6.6-5.6,6.7h-15c-3.1,0-5.7,3-5.7,6.7s2.5,6.7,5.7,6.7h26.5c2.9,0.3,5.2,3.2,5.2,6.7
			c0,2.5-1.2,4.8-3,5.9H42.1c-3.1,0-5.7,3-5.7,6.7s2.5,6.7,5.7,6.7h24.6c3,0.2,5.4,3.1,5.4,6.7c0,3.5-2.3,6.4-5.2,6.7h-11
			c-3.1,0-5.7,3-5.7,6.7s2.5,6.7,5.7,6.7h182.5c3.1,0,5.7-3,5.7-6.7s-2.5-6.7-5.7-6.7h-9.5c-2.9-0.3-5.2-3.2-5.2-6.7
			c0-3.6,2.4-6.5,5.4-6.7h17c3.1,0,5.7-3,5.7-6.7C251.7,64,249.1,61,246,61z"/>
		<path id="XMLID_16_" class="st1" d="M289.7,61h-21.3c-3.1,0-5.7,3-5.7,6.7s2.5,6.7,5.7,6.7h21.3c3.1,0,5.7-3,5.7-6.7
			C295.4,64,292.8,61,289.7,61z"/>
		<path id="XMLID_15_" class="st1" d="M19.5,61H9.4c-3.1,0-5.7,3-5.7,6.7s2.5,6.7,5.7,6.7h10.1c3.1,0,5.7-3,5.7-6.7S22.6,61,19.5,61
			z"/>
		<path id="XMLID_14_" class="st1" d="M268,22.1h5.7c3.1,0,5.7-3,5.7-6.7l0,0c0-3.7-2.5-6.7-5.7-6.7H268c-3.1,0-5.7,3-5.7,6.7l0,0
			C262.3,19.1,264.8,22.1,268,22.1z"/>
		<path id="XMLID_13_" class="st1" d="M13.1,22.1h5.7c3.1,0,5.7-3,5.7-6.7l0,0c0-3.7-2.5-6.7-5.7-6.7h-5.7c-3.1,0-5.7,3-5.7,6.7l0,0
			C7.5,19.1,10,22.1,13.1,22.1z"/>
		<path id="XMLID_12_" class="st1" d="M39.5,41.9c0-3.7-2.5-6.7-5.7-6.7h-5.7c-3.1,0-5.7,3-5.7,6.7s2.5,6.7,5.7,6.7h5.7
			C36.9,48.6,39.5,45.6,39.5,41.9z"/>
		<path id="XMLID_11_" class="st1" d="M265,41.9c0-3.7-2.5-6.7-5.7-6.7h-5.7c-3.1,0-5.7,3-5.7,6.7s2.5,6.7,5.7,6.7h5.7
			C262.4,48.6,265,45.6,265,41.9z"/>
	</g>
	<g>
		<g>
			<g>
				<path id="XMLID_10_" class="st2" d="M205.7,86.8H87.9c-2.9,0-5.2-2.3-5.2-5.2V-1c0-2.9,2.3-5.2,5.2-5.2h117.7
					c2.9,0,5.2,2.3,5.2,5.2v82.7C210.8,84.5,208.5,86.8,205.7,86.8z"/>
				<rect id="XMLID_9_" x="91.2" y="1.8" class="st3" width="111.2" height="58.2"/>
				<path id="XMLID_8_" class="st3" d="M82.7,69v7.9c0,5.5,4.5,9.9,9.9,9.9h108.2c5.5,0,10-4.5,10-9.9V69H82.7z"/>
				<path id="XMLID_7_" class="st3" d="M176.6,111.2h-57.2c-6.2,0-6.5-9.3-0.4-9.6c0.3,0,0.6,0,0.8,0c8.5-0.1,12.5-8.7,14.3-14.7
					h27.7c1.8,6,5.8,14.6,14.3,14.7c0.3,0,0.6,0,0.8,0C183.2,101.9,182.8,111.2,176.6,111.2z"/>
				<path id="XMLID_6_" class="st4" d="M164,92.3c-0.9-1.9-1.6-3.8-2.1-5.5h-27.7c-0.5,1.7-1.2,3.6-2.1,5.5H164z"/>
			</g>
			<circle id="XMLID_5_" class="st5" cx="147.8" cy="77" r="4.5"/>
		</g>
		<polygon id="XMLID_4_" class="st5" points="188.5,25.3 174.1,28.3 176.7,31.5 169.6,36.8 157.2,24.5 136.7,40.4 128.1,31.8 
			105.1,49.3 107.9,53.1 127.7,38.1 136.3,46.7 156.8,30.7 169.2,43.1 179.6,35.2 182.2,38.5 		"/>
	</g>
	<path id="XMLID_3_" class="st3" d="M283.9,113.9H9.7c-1.2,0-2.1-1-2.1-2.1l0,0c0-1.2,1-2.1,2.1-2.1h274.2c1.2,0,2.1,1,2.1,2.1l0,0
		C286,113,285,113.9,283.9,113.9z"/>
	<g class="st6">
		<path class="st3" d="M84.4,143.9c0,2.4-0.9,4.3-2.7,5.8c-1.8,1.5-4.3,2.2-7.3,2.2h-1.8v11.6h-3.9v-27.6h5.7c3.3,0,5.7,0.7,7.5,2
			C83.5,139.3,84.4,141.3,84.4,143.9z M80.3,143.9c0-3.1-2.2-4.6-6.7-4.6h-1.2v9.3h1.2C78.1,148.5,80.3,147,80.3,143.9z"/>
		<path class="st3" d="M107.1,143.1c0,2.9-1.5,5-4.4,6.3v0.1c2.8,0.7,4.1,3.1,4.1,6.9v7h-4v-6.8c0-1.9-0.5-3.3-1.4-4.2
			c-0.9-0.8-2.4-1.3-4.5-1.3h-3v12.2h-3.9v-27.6h7.2c3.2,0,5.6,0.6,7.3,1.9C106.2,139,107.1,140.8,107.1,143.1z M102.9,143.4
			c0-1.4-0.5-2.5-1.6-3.1c-1.1-0.6-2.8-0.9-5.2-0.9h-2v8.5h2.1c2.3,0,4.1-0.4,5.1-1.1C102.3,146.2,102.9,145,102.9,143.4z"/>
		<path class="st3" d="M128.5,163.6h-14.4v-27.6h14.4v3.5H118v7.8h7v3.4h-7v9.3h10.5V163.6z"/>
		<path class="st3" d="M160.2,163.6h-3.9v-20l-7.5,20h-2.5l-7.5-20v20H135v-27.6h4.8l7.8,21l7.8-21h4.8V163.6z"/>
		<path class="st3" d="M172.2,163.6H168v-27.6h4.2V163.6z"/>
		<path class="st3" d="M200.4,152.2c0,3.8-0.9,6.8-2.8,8.9c-1.8,2.1-4.4,3.2-7.7,3.2c-3.2,0-5.7-1-7.5-3.1c-1.8-2.1-2.7-5-2.7-8.9
			v-16.3h3.9v16.3c0,5.6,2.2,8.4,6.5,8.4s6.5-2.8,6.5-8.4v-16.3h3.9V152.2z"/>
		<path class="st3" d="M232.8,163.6h-3.9v-20l-7.5,20H219l-7.5-20v20h-3.9v-27.6h4.8l7.8,21l7.8-21h4.8V163.6z"/>
	</g>
</g>
</svg>
