<?xml version="1.0" encoding="utf-8"?>
<!-- Generator: Adobe Illustrator 19.0.0, SVG Export Plug-In . SVG Version: 6.00 Build 0)  -->
<svg version="1.1" xmlns="http://www.w3.org/2000/svg" xmlns:xlink="http://www.w3.org/1999/xlink" x="0px" y="0px"
	 viewBox="0 0 400 400" style="enable-background:new 0 0 400 400;" xml:space="preserve">
<style type="text/css">
	.st0{fill:#F8F8F8;}
	.st1{opacity:0.26;fill:#C3C1C0;}
	.st2{fill:#666565;}
	.st3{fill:#53566A;}
	.st4{fill:#F1F0EF;}
	.st5{opacity:0.18;fill:#FFFFFF;}
	.st6{fill:#3A3A3A;}
	.st7{fill:#FFFFFF;}
	.st8{fill:#838282;}
	.st9{fill:#CBC9C9;}
	.st10{opacity:0.6;fill:#F1F0EF;}
	.st11{opacity:0.12;}
</style>
<g id="Camada_1">
	<rect id="XMLID_1_" x="0" y="0" class="st0" width="400" height="400"/>
	<g id="XMLID_35_">
		<path id="XMLID_33_" class="st1" d="M294.7,90.9H182.6c-2.8,0-5,2.3-5,5v6.4h-6.9v-3.1h-0.2c0.2,0,0.4,0,0.6-0.1
			c0.1,0,0.1,0,0.2,0c0,0,0.1,0,0.2,0v0c1.4-0.4,2.5-1.7,2.5-3.2V93c0-1.5-1-2.8-2.5-3.2v0c0,0-0.1,0-0.2,0c-0.1,0-0.1,0-0.2,0
			c-0.2,0-0.4-0.1-0.6-0.1h-1.5h-2.8h-2.5h-2.8h-2.5h-2.8H153h-2.8h-2.5h-2.8h-1.3c-0.2,0-0.4,0-0.6,0.1c-0.1,0-0.2,0.1-0.3,0.1
			c-0.1,0-0.2,0-0.2,0.1v0c-1.3,0.5-2.2,1.7-2.2,3.2v2.7c0,1.5,0.9,2.7,2.2,3.2v0c0.1,0,0.2,0,0.2,0.1c0.1,0,0.2,0.1,0.3,0.1
			c0.2,0,0.4,0.1,0.6,0.1h-0.5v3.1h-10.5c0-0.2,0.1-0.4,0.1-0.6v-1.4h1c1.6,0,2.9-1.3,2.9-2.9v-0.4c0-1.6-1.3-2.9-2.9-2.9h-13
			c-1.6,0-2.9,1.3-2.9,2.9v0.4c0,1.6,1.3,2.9,2.9,2.9h1.6v1.4c0,0.2,0,0.4,0.1,0.6h-5.7c-2.4,0-4.6,0.8-6.3,2.2
			c-1.2,1-2.2,2.3-2.8,3.8c-0.5,1.2-0.8,2.5-0.8,3.8v8.8v7v0V198c0,2.1,0.6,4,1.7,5.6c0.4,0.5,0.8,1,1.2,1.5c0.9,0.9,2,1.6,3.2,2.1
			c1.2,0.5,2.5,0.8,3.9,0.8h0h11.9h71.7c6.9,3.4,14.6,5.3,22.8,5.3c8.2,0,15.9-1.9,22.8-5.3h49.1c5.5,0,10-4.5,10-10v-70.1v-7v-20
			C304.7,95.3,300.2,90.9,294.7,90.9z"/>
		<g id="XMLID_36_">
			<path id="XMLID_32_" class="st2" d="M108.8,89.8h14.1c1.3,0,2.4-1.1,2.4-2.4v-1.5c0-1.3-1.1-2.4-2.4-2.4h-14.1
				c-1.3,0-2.4,1.1-2.4,2.4v1.5C106.4,88.7,107.5,89.8,108.8,89.8z"/>
			<path id="XMLID_31_" class="st2" d="M110.9,89.8h10.5v2.1c0,1.6-1.3,2.9-2.9,2.9h-4.8c-1.6,0-2.9-1.3-2.9-2.9V89.8z"/>
			<path id="XMLID_30_" class="st3" d="M95.3,110.5v77.1c0,5.5,4.5,10,10,10h178.2c5.5,0,10-4.5,10-10v-77.1H95.3z"/>
			<path id="XMLID_29_" class="st4" d="M283.5,80.5H171.4c-2.8,0-5,2.3-5,5v6.4h-61.1c-5.4,0-9.9,4.4-9.9,9.9v15.7h198.1v-27
				C293.5,84.9,289,80.5,283.5,80.5z"/>
			<path id="XMLID_28_" class="st5" d="M105.2,91.8c-5.4,0-9.9,4.4-9.9,9.9v8.8v7v70.1c0,5.5,4.5,10,10,10h11.9v-80.1v-7V91.8H105.2
				z"/>
			<g id="XMLID_53_">
				<path id="XMLID_68_" class="st6" d="M211.7,112.1c-21.7,0-39.4,17.6-39.4,39.4c0,21.7,17.6,39.4,39.4,39.4
					c21.7,0,39.4-17.6,39.4-39.4C251,129.7,233.4,112.1,211.7,112.1z"/>
				<circle id="XMLID_26_" class="st4" cx="211.7" cy="151.5" r="51.4"/>
				<circle id="XMLID_25_" class="st7" cx="211.7" cy="151.5" r="36.3"/>
				<path id="XMLID_63_" class="st8" d="M211.7,105.1c-25.6,0-46.4,20.8-46.4,46.4c0,25.6,20.8,46.4,46.4,46.4
					c25.6,0,46.4-20.8,46.4-46.4C258.1,125.8,237.3,105.1,211.7,105.1z M211.7,190.8c-21.7,0-39.4-17.6-39.4-39.4
					c0-21.7,17.6-39.4,39.4-39.4c21.7,0,39.4,17.6,39.4,39.4C251,173.2,233.4,190.8,211.7,190.8z"/>
				<circle id="XMLID_22_" class="st3" cx="211.7" cy="151.5" r="24.9"/>
				<circle id="XMLID_21_" class="st7" cx="213.3" cy="152.2" r="9.3"/>
				<circle id="XMLID_20_" class="st7" cx="199.5" cy="140.2" r="5.3"/>
				<path id="XMLID_57_" class="st2" d="M211.7,117.8c-18.6,0-33.7,15.1-33.7,33.7c0,18.6,15.1,33.7,33.7,33.7
					c18.6,0,33.7-15.1,33.7-33.7C245.3,132.9,230.3,117.8,211.7,117.8z M211.7,183.8c-17.9,0-32.3-14.5-32.3-32.3
					c0-17.9,14.5-32.3,32.3-32.3c17.9,0,32.3,14.5,32.3,32.3C244,169.3,229.5,183.8,211.7,183.8z"/>
				<path id="XMLID_54_" class="st2" d="M211.7,121.1c-16.8,0-30.4,13.6-30.4,30.4c0,16.8,13.6,30.4,30.4,30.4
					c16.8,0,30.4-13.6,30.4-30.4C242,134.7,228.4,121.1,211.7,121.1z M211.7,180.6c-16.1,0-29.2-13.1-29.2-29.2
					c0-16.1,13.1-29.2,29.2-29.2c16.1,0,29.2,13.1,29.2,29.2C240.8,167.6,227.8,180.6,211.7,180.6z"/>
			</g>
			<path id="XMLID_15_" class="st9" d="M159.8,79.2h-28.1c-1.5,0-2.8,1.3-2.8,2.8v3.9c0,1.5,1.3,2.8,2.8,2.8h28.1
				c1.5,0,2.8-1.3,2.8-2.8V82C162.6,80.4,161.4,79.2,159.8,79.2z"/>
			<rect id="XMLID_14_" x="131.8" y="88.7" class="st2" width="27.6" height="3.5"/>
			<path id="XMLID_13_" class="st2" d="M280.9,88.9h-26.3c-2.6,0-4.7,2.1-4.7,4.7V106c0,2.6,2.1,4.7,4.7,4.7h26.3
				c2.6,0,4.7-2.1,4.7-4.7V93.6C285.6,91,283.5,88.9,280.9,88.9z"/>
			<circle id="XMLID_12_" class="st10" cx="274.9" cy="99.5" r="6.3"/>
			<circle id="XMLID_11_" class="st10" cx="259.5" cy="99.1" r="4.8"/>
			<g id="XMLID_41_" class="st11">
				<path id="XMLID_10_" class="st2" d="M132.4,79.2c-0.4,0-0.8,0.1-1.2,0.2v9.1c0.4,0.1,0.8,0.2,1.2,0.2h1.3v-9.5H132.4z"/>
				<rect id="XMLID_9_" x="136.5" y="79.2" class="st2" width="2.5" height="9.5"/>
				<rect id="XMLID_8_" x="141.8" y="79.2" class="st2" width="2.5" height="9.5"/>
				<rect id="XMLID_7_" x="147.1" y="79.2" class="st2" width="2.5" height="9.5"/>
				<rect id="XMLID_6_" x="152.4" y="79.2" class="st2" width="2.5" height="9.5"/>
				<path id="XMLID_5_" class="st2" d="M159.2,79.2h-1.5v9.5h1.5c0.3,0,0.6,0,0.9-0.1v-9.3C159.9,79.2,159.6,79.2,159.2,79.2z"/>
			</g>
			<g id="XMLID_37_">
				<path id="XMLID_4_" class="st9" d="M147.1,114.3C147.1,114.3,147.1,114.3,147.1,114.3l0-4.4c0-2.2-1.8-4-4-4c-2.2,0-4,1.8-4,4
					v4.3c0,0.2,0,0.3,0,0.5c0,1.7-0.4,7.7-4.2,11.4c0,0,4.8-3.1,8.1-2.6v0c0,0,0,0,0.1,0c0,0,0,0,0.1,0v0c3.3-0.5,8.1,2.6,8.1,2.6
					C146.9,122,147,114.8,147.1,114.3z"/>
				<circle id="XMLID_3_" class="st9" cx="143.1" cy="132.1" r="10.9"/>
				<circle id="XMLID_2_" class="st4" cx="143.1" cy="132.1" r="7.4"/>
			</g>
		</g>
	</g>
	<g id="XMLID_38_">
		<path id="XMLID_39_" class="st3" d="M76.3,266.6h-2.9c-0.1,0-0.1,0-0.1-0.1v-22.1c0-0.1,0-0.1,0.1-0.1h2.9c0.1,0,0.1,0,0.1,0.1
			v22.1C76.4,266.5,76.4,266.6,76.3,266.6z"/>
		<path id="XMLID_42_" class="st3" d="M91.9,266.6v-0.5c0-1.4,0-2.4,0-3.2c0-0.7,0-1.7,0-3.1c0-1.2,0-2,0-2.4c-0.1-0.7-0.4-1.4-1-2
			c-0.6-0.6-1.2-1-1.9-1.2c-0.3,0-0.6-0.1-0.8-0.1c-1.2,0-2.5,0.4-4,1.1c-0.1,0-0.1,0.1-0.2,0.2v11c0,0.1,0,0.1-0.1,0.1H81
			c-0.1,0-0.1-0.1-0.1-0.1v-14.8l0.1-0.1h2.9c0.1,0,0.1,0.2,0.1,0.6c0,0,0,0,0,0.1c0,0,0,0,0,0.1c0.2,0,0.4-0.1,0.8-0.3
			c0.3-0.2,0.5-0.3,0.6-0.3c0.9-0.3,1.9-0.4,2.9-0.4c1.4,0,2.7,0.3,3.9,0.9c1.2,0.6,2,1.6,2.5,2.8c0.3,0.8,0.5,1.7,0.6,2.6
			c0.1,0.8,0.1,1.8,0.1,2.9c0,0.7,0,1.7-0.1,3.1c0,1.2,0,2.2,0,2.9H91.9z"/>
		<path id="XMLID_44_" class="st3" d="M104.1,266.9c-1,0-1.9-0.1-2.9-0.3c-1-0.2-1.8-0.5-2.6-0.9l-0.1-0.1v-3.2
			c0.2,0.1,0.5,0.2,1,0.4c0.4,0.2,0.8,0.3,1.2,0.5c1.3,0.6,2.6,0.8,3.9,0.8c0.3,0,0.6,0,0.9-0.1c0.4,0,0.7-0.2,1.1-0.4
			c0.3-0.2,0.6-0.5,0.7-0.8c0.1-0.1,0.1-0.3,0.1-0.4c0-0.3-0.1-0.6-0.3-0.8c-0.4-0.5-0.8-0.8-1.3-0.9c-0.5-0.2-1.2-0.3-2-0.4
			c-0.7-0.1-1.2-0.2-1.6-0.3c-0.9-0.3-1.6-0.7-2.3-1.2c-0.7-0.5-1.1-1.1-1.4-1.8c-0.1-0.4-0.2-0.8-0.2-1.2c0-0.7,0.1-1.3,0.4-1.8
			c0.3-0.6,0.7-1,1.2-1.4c0.6-0.4,1.2-0.7,1.9-0.9c0.7-0.2,1.5-0.3,2.3-0.3c0.9,0,1.7,0.1,2.5,0.3c0.8,0.2,1.6,0.5,2.3,0.8v3.2
			c-0.1,0-0.5-0.2-1-0.4c-0.6-0.2-0.9-0.4-0.9-0.4c-0.6-0.2-1.2-0.4-1.6-0.5c-0.5-0.1-1-0.2-1.5-0.2c-0.6,0-1.2,0.1-1.6,0.4
			c-0.2,0.1-0.4,0.3-0.6,0.5c-0.1,0.2-0.2,0.4-0.2,0.6c0,0.2,0,0.3,0.1,0.4c0.3,0.4,0.6,0.6,1,0.8s0.9,0.3,1.4,0.4
			c0.2,0,0.5,0.1,0.9,0.1c0.1,0,0.2,0,0.4,0.1c0.6,0.1,1.1,0.2,1.4,0.2c1,0.3,1.8,0.8,2.6,1.4c0.7,0.6,1.2,1.4,1.3,2.3
			c0,0.1,0,0.2,0,0.3c0,0.1,0,0.2,0,0.3c0,0.9-0.2,1.7-0.6,2.5c-0.4,0.8-1,1.3-1.8,1.6C107,266.7,105.6,266.9,104.1,266.9z"/>
		<path id="XMLID_46_" class="st3" d="M116.7,249.8c-0.3,0.3-0.5,0.5-0.7,0.7h-0.2c-0.1-0.1-0.2-0.2-0.3-0.3
			c-0.1-0.1-0.3-0.3-0.6-0.6l-1-1c0,0-0.1,0-0.1-0.1s0,0,0-0.1l2-2c0,0,0.1-0.1,0.1-0.1c0,0,0,0,0.1,0.1l1.9,2c0,0,0,0.1,0,0.1
			C117.7,248.8,117.3,249.2,116.7,249.8z M117.6,266.5c0,0.1,0,0.1-0.1,0.1h-3c-0.1,0-0.1-0.1-0.1-0.1v-14.8l0.1,0h3l0.1,0.1V266.5z
			"/>
		<path id="XMLID_49_" class="st3" d="M131.9,255.1c-0.3-0.2-0.5-0.3-0.6-0.4c-0.7-0.3-1.5-0.5-2.1-0.5c-1.1,0-2.3,0.5-3.4,1.4
			l-0.3,0.3c0,2.4,0,5.9,0,10.5l-0.1,0.2h-3l-0.1-0.1v-14.8c0,0,0,0,0.1-0.1c0,0,0,0,0,0c0.6,0,1.5,0,2.9,0c0.1,0,0.1,0,0.1,0.1v0.8
			c0.1-0.1,0.3-0.2,0.6-0.3c0.3-0.2,0.5-0.3,0.7-0.4c0.9-0.3,1.8-0.5,2.7-0.5c1,0,2,0.2,2.7,0.6l0.2,3.5
			C132.1,255.2,132,255.1,131.9,255.1z"/>
		<path id="XMLID_51_" class="st3" d="M146,266.6h-2.9c-0.1,0-0.1,0-0.1-0.1v-0.9c-0.1,0.1-0.2,0.1-0.2,0.1
			c-0.3,0.2-0.5,0.3-0.7,0.5c-1,0.6-2.1,0.8-3.3,0.8c-0.8,0-1.5-0.1-2.2-0.4c-0.8-0.5-1.4-1-1.9-1.7c-0.5-0.7-0.7-1.5-0.8-2.3
			c0-0.8,0.2-1.6,0.7-2.3c0.4-0.7,1-1.2,1.8-1.7c0.9-0.5,1.8-0.9,2.8-1.2c1-0.2,2.2-0.4,3.6-0.5c0-0.1,0-0.3,0-0.5
			c0-0.1,0-0.2,0-0.3c0-0.4-0.1-0.7-0.3-1c-0.3-0.5-0.7-0.8-1.2-1c-0.5-0.2-1.1-0.4-1.6-0.4c-0.4,0-0.8,0.1-1.3,0.2
			c-0.6,0.2-1.5,0.6-2.7,1.2c-0.4,0.2-0.7,0.4-1,0.5c0.3-1,0.8-2.2,1.4-3.5c0.6-0.3,1.2-0.5,1.9-0.6c0.7-0.1,1.4-0.2,2.1-0.2
			c0.7,0,1.5,0.1,2.1,0.3c0.7,0.2,1.3,0.5,1.8,0.9c0.7,0.5,1.2,1.1,1.5,1.9c0.2,0.4,0.4,0.9,0.5,1.4c0.1,0.5,0.1,1.1,0.1,1.8l0,0.8
			c0,0.3,0,0.6,0,0.8v7.3C146.1,266.5,146.1,266.6,146,266.6z M143,259.3c-0.3,0-0.7,0.1-1.2,0.2c-0.9,0.1-1.6,0.2-2.1,0.4
			c-0.5,0.1-1,0.4-1.5,0.7c-0.6,0.4-0.9,1-1,1.9c0,0.5,0.2,0.9,0.7,1.2c0.5,0.3,1,0.5,1.6,0.5c0.4,0,0.9-0.1,1.3-0.2
			c0.5-0.1,1-0.3,1.6-0.5c0.4-0.1,0.6-0.2,0.6-0.2V259.3z"/>
		<path id="XMLID_56_" class="st3" d="M170.5,266.6c0,0-0.1,0-0.1-0.1v-0.7c-1.3,0.8-2.7,1.2-4.4,1.2c-1,0-2-0.2-2.8-0.5
			c-1-0.4-1.9-1.1-2.7-2c-0.8-0.9-1.2-1.9-1.2-2.9v-9.9c0.6,0,1.6,0,3.1,0l0.1,0.2v9.3c0.2,0.7,0.5,1.3,1.1,1.8s1.2,0.8,2,0.9
			c0.3,0,0.5,0.1,0.8,0.1c0.7,0,1.4-0.1,2.1-0.4c0.7-0.3,1.3-0.7,1.9-1.2c0-2.7,0-6,0-9.9c0-0.3,0-0.6,0-0.8c0-0.1,0-0.1,0.1-0.1
			c0,0,0.1,0,0.1,0h2.9c0.1,0,0.1,0.1,0.1,0.2v14.7c0,0.1-0.1,0.1-0.1,0.1H170.5z"/>
		<path id="XMLID_59_" class="st3" d="M202,266.6h-3l-0.1-0.2v-8.9c-0.1-0.7-0.3-1.3-0.8-1.8c-0.5-0.6-1-0.9-1.7-1.1
			c-0.4-0.1-0.7-0.1-1.1-0.1c-1.3,0-2.6,0.4-3.7,1.3c0,1,0,4.6,0,10.8c-0.6,0-1.6,0-3.1,0l-0.1-0.1c0-5.5,0-8.5,0-9
			c0-0.6-0.2-1.1-0.5-1.6c-0.3-0.5-0.8-0.8-1.3-1.1c-0.6-0.2-1.2-0.4-1.8-0.4c-0.7,0-1.4,0.1-2.1,0.4s-1.4,0.6-2,1.1v10.6l-0.1,0.1
			c-0.4,0-0.7,0-1.1,0c-0.5,0-0.9,0-1.2,0c-0.1,0-0.3,0-0.4,0c-0.2,0-0.4,0-0.4,0v-14.8l0.2-0.2h2.9c0.1,0,0.1,0,0.1,0.1
			c0,0.2,0,0.4,0,0.8c0.1,0,0.2-0.1,0.5-0.3c0.4-0.2,0.7-0.4,0.9-0.4c1.1-0.3,2.1-0.5,3.2-0.5c1.5,0,2.8,0.3,3.7,1
			c0.3,0.2,0.6,0.4,1,0.8c0.6-0.6,1.4-1.1,2.2-1.4c0.9-0.3,1.8-0.4,2.7-0.4c1.6,0,3,0.4,4.3,1.1c1.1,0.7,1.9,1.6,2.2,2.6
			c0.3,1.1,0.5,2.5,0.5,4.1v7.4L202,266.6z"/>
		<path id="XMLID_61_" class="st3" d="M216.8,266.6h-2.9c-0.1,0-0.1,0-0.1-0.1v-0.9c-0.1,0.1-0.2,0.1-0.2,0.1
			c-0.3,0.2-0.5,0.3-0.7,0.5c-1,0.6-2.1,0.8-3.3,0.8c-0.8,0-1.5-0.1-2.2-0.4c-0.8-0.5-1.4-1-1.9-1.7c-0.5-0.7-0.7-1.5-0.8-2.3
			c0-0.8,0.2-1.6,0.7-2.3c0.4-0.7,1-1.2,1.8-1.7c0.9-0.5,1.8-0.9,2.8-1.2c1-0.2,2.2-0.4,3.6-0.5c0-0.1,0-0.3,0-0.5
			c0-0.1,0-0.2,0-0.3c0-0.4-0.1-0.7-0.3-1c-0.3-0.5-0.7-0.8-1.2-1s-1.1-0.4-1.6-0.4c-0.4,0-0.8,0.1-1.3,0.2
			c-0.6,0.2-1.5,0.6-2.7,1.2c-0.4,0.2-0.7,0.4-1,0.5c0.3-1,0.8-2.2,1.4-3.5c0.6-0.3,1.2-0.5,1.9-0.6c0.7-0.1,1.4-0.2,2.1-0.2
			c0.7,0,1.5,0.1,2.1,0.3c0.7,0.2,1.3,0.5,1.8,0.9c0.7,0.5,1.2,1.1,1.5,1.9c0.2,0.4,0.4,0.9,0.5,1.4c0.1,0.5,0.1,1.1,0.1,1.8l0,0.8
			c0,0.3,0,0.6,0,0.8v7.3C217,266.5,216.9,266.6,216.8,266.6z M213.8,259.3c-0.3,0-0.7,0.1-1.2,0.2c-0.9,0.1-1.6,0.2-2.1,0.4
			c-0.5,0.1-1,0.4-1.5,0.7c-0.6,0.4-0.9,1-1,1.9c0,0.5,0.2,0.9,0.7,1.2c0.5,0.3,1,0.5,1.6,0.5c0.4,0,0.9-0.1,1.3-0.2
			c0.5-0.1,1-0.3,1.6-0.5c0.4-0.1,0.6-0.2,0.6-0.2V259.3z"/>
		<path id="XMLID_65_" class="st3" d="M233.3,249.8c-0.3,0.3-0.5,0.5-0.7,0.7h-0.2c-0.1-0.1-0.2-0.2-0.3-0.3
			c-0.1-0.1-0.3-0.3-0.6-0.6l-1-1c0,0-0.1,0-0.1-0.1s0,0,0-0.1l2-2c0,0,0.1-0.1,0.1-0.1c0,0,0,0,0.1,0.1l1.9,2c0,0,0,0.1,0,0.1
			C234.3,248.8,233.8,249.2,233.3,249.8z M234.2,266.5c0,0.1,0,0.1-0.1,0.1h-3c-0.1,0-0.1-0.1-0.1-0.1v-14.8l0.1,0h3l0.1,0.1V266.5z
			"/>
		<path id="XMLID_69_" class="st3" d="M263.1,266.6h-3l-0.1-0.2v-8.9c-0.1-0.7-0.3-1.3-0.8-1.8c-0.5-0.6-1-0.9-1.7-1.1
			c-0.4-0.1-0.7-0.1-1.1-0.1c-1.3,0-2.6,0.4-3.7,1.3c0,1,0,4.6,0,10.8c-0.6,0-1.6,0-3.1,0l-0.1-0.1c0-5.5,0-8.5,0-9
			c0-0.6-0.2-1.1-0.5-1.6c-0.3-0.5-0.8-0.8-1.3-1.1c-0.6-0.2-1.2-0.4-1.8-0.4c-0.7,0-1.4,0.1-2.1,0.4s-1.4,0.6-2,1.1v10.6l-0.1,0.1
			c-0.4,0-0.7,0-1.1,0c-0.5,0-0.9,0-1.2,0c-0.1,0-0.3,0-0.4,0c-0.2,0-0.4,0-0.4,0v-14.8l0.2-0.2h2.9c0.1,0,0.1,0,0.1,0.1
			c0,0.2,0,0.4,0,0.8c0.1,0,0.2-0.1,0.5-0.3c0.4-0.2,0.7-0.4,0.9-0.4c1.1-0.3,2.1-0.5,3.2-0.5c1.5,0,2.8,0.3,3.7,1
			c0.3,0.2,0.6,0.4,1,0.8c0.6-0.6,1.4-1.1,2.2-1.4c0.9-0.3,1.8-0.4,2.7-0.4c1.6,0,3,0.4,4.3,1.1c1.1,0.7,1.9,1.6,2.2,2.6
			c0.4,1.1,0.5,2.5,0.5,4.1v7.4L263.1,266.6z"/>
		<path id="XMLID_71_" class="st3" d="M277.9,266.6H275c-0.1,0-0.1,0-0.1-0.1v-0.9c-0.1,0.1-0.2,0.1-0.2,0.1
			c-0.3,0.2-0.5,0.3-0.7,0.5c-1,0.6-2.1,0.8-3.3,0.8c-0.8,0-1.5-0.1-2.2-0.4c-0.8-0.5-1.4-1-1.9-1.7c-0.5-0.7-0.7-1.5-0.8-2.3
			c0-0.8,0.2-1.6,0.7-2.3c0.4-0.7,1-1.2,1.8-1.7c0.9-0.5,1.8-0.9,2.8-1.2c1-0.2,2.2-0.4,3.6-0.5c0-0.1,0-0.3,0-0.5
			c0-0.1,0-0.2,0-0.3c0-0.4-0.1-0.7-0.3-1c-0.3-0.5-0.7-0.8-1.2-1s-1.1-0.4-1.6-0.4c-0.4,0-0.8,0.1-1.3,0.2
			c-0.6,0.2-1.5,0.6-2.7,1.2c-0.4,0.2-0.7,0.4-1,0.5c0.3-1,0.8-2.2,1.4-3.5c0.6-0.3,1.2-0.5,1.9-0.6c0.7-0.1,1.4-0.2,2.1-0.2
			c0.7,0,1.5,0.1,2.1,0.3c0.7,0.2,1.3,0.5,1.8,0.9c0.7,0.5,1.2,1.1,1.5,1.9c0.2,0.4,0.4,0.9,0.5,1.4c0.1,0.5,0.1,1.1,0.1,1.8l0,0.8
			c0,0.3,0,0.6,0,0.8v7.3C278.1,266.5,278,266.6,277.9,266.6z M274.9,259.3c-0.3,0-0.7,0.1-1.2,0.2c-0.9,0.1-1.6,0.2-2.1,0.4
			c-0.5,0.1-1,0.4-1.5,0.7c-0.6,0.4-0.9,1-1,1.9c0,0.5,0.2,0.9,0.7,1.2c0.5,0.3,1,0.5,1.6,0.5c0.4,0,0.9-0.1,1.3-0.2
			c0.5-0.1,1-0.3,1.6-0.5c0.4-0.1,0.6-0.2,0.6-0.2V259.3z"/>
		<path id="XMLID_74_" class="st3" d="M295.2,254.8h-1.7c0.2,0.8,0.4,1.6,0.4,2.4c0,0.8-0.1,1.6-0.4,2.3c-0.3,0.7-0.7,1.3-1.3,1.8
			c-0.6,0.5-1.3,0.9-2,1.1c-0.8,0.3-1.5,0.4-2.4,0.4c-0.8,0-1.5-0.1-2.2-0.3c0,0-0.1,0.1-0.1,0.2c-0.2,0.2-0.3,0.4-0.3,0.5
			c0,0.1,0,0.1,0.1,0.2l0.3,0.4c0.5,0.2,1.4,0.4,2.7,0.7c1,0.2,1.8,0.4,2.5,0.6s1.2,0.4,1.8,0.8s1.1,0.7,1.6,1.3
			c0.5,0.5,0.8,1.2,1,2c0.1,0.4,0.1,0.7,0.1,1.1c0,1.1-0.4,2-1.1,2.7c-0.7,0.8-1.6,1.3-2.7,1.6c-1.1,0.3-2.2,0.5-3.6,0.5
			c-0.7,0-1.6,0-2.6-0.1c-1.1-0.1-2.1-0.3-3-0.8c-0.9-0.5-1.6-1.2-2.1-2c-0.2-0.4-0.3-0.9-0.3-1.5c0-0.8,0.2-1.6,0.6-2.2
			c0.2-0.5,0.6-0.9,1-1.4c0.4-0.4,1-0.8,1.6-1.3l-0.1-0.1c-0.3-0.3-0.6-0.5-0.7-0.7c-0.2-0.2-0.3-0.4-0.4-0.7c0,0,0-0.1,0-0.2
			c0-0.1,0-0.2,0-0.2c0-0.5,0.1-1,0.4-1.4c0.2-0.4,0.6-0.8,1-1.2c-0.7-0.5-1.1-1.2-1.5-1.9c-0.3-0.7-0.5-1.5-0.5-2.3
			c0-0.7,0.1-1.3,0.3-2c0.3-1.1,1-2.1,2.1-2.8s2.1-1.2,3.3-1.2c0.8,0,1.6,0,2.2,0.1c0.6,0.1,1.2,0.3,1.9,0.5h3.9
			c0.1,0,0.1,0,0.1,0.1v2.9C295.3,254.7,295.2,254.8,295.2,254.8z M292.4,270.2c0-0.3-0.1-0.6-0.3-0.9c-0.2-0.4-0.6-0.6-0.9-0.8
			c-0.4-0.2-0.8-0.4-1.4-0.6c-0.5-0.2-1.2-0.4-2.2-0.6c-0.7-0.2-1.2-0.3-1.5-0.4c-0.8,0.6-1.5,1.1-2,1.7s-0.7,1.1-0.7,1.6
			c0,0.6,0.3,1,0.9,1.4s1.5,0.6,2.6,0.6c0,0,0.2,0,0.5,0c0.3,0,0.6,0,0.7,0c0.9,0,1.7-0.1,2.4-0.3s1.3-0.6,1.6-1.1
			C292.3,270.7,292.4,270.5,292.4,270.2z M289.3,254.3c-0.5-0.2-1-0.3-1.5-0.3c-0.7,0-1.2,0.2-1.7,0.5c-0.5,0.3-0.8,0.6-1.1,1.1
			c-0.2,0.5-0.4,1-0.4,1.5c0,0.3,0,0.6,0.1,0.9c0.1,0.5,0.4,0.9,0.8,1.2c0.4,0.3,0.9,0.5,1.5,0.6c0.2,0,0.5,0.1,0.8,0.1
			c1.1,0,1.9-0.4,2.6-1.3c0.4-0.5,0.5-1,0.5-1.7c0-0.6-0.1-1.1-0.4-1.6C290.2,254.8,289.8,254.5,289.3,254.3z"/>
		<path id="XMLID_78_" class="st3" d="M311.4,259.8c-3.6,0-7,0-10,0c-0.3,0-0.5,0-0.7,0c0,0.5,0.1,0.9,0.2,1.2s0.3,0.7,0.5,1
			c0.4,0.7,1,1.2,1.8,1.5c0.7,0.3,1.6,0.4,2.5,0.4c0.4,0,0.8,0,1.3-0.1c0.7-0.1,1.5-0.3,2.2-0.7c0.7-0.4,1.5-0.9,2.4-1.5l0.2,0v3.2
			c-0.8,0.6-1.8,1.1-3,1.4c-1.1,0.3-2.3,0.5-3.4,0.5c-1.4,0-2.6-0.2-3.6-0.7c-1.2-0.6-2.2-1.5-3-2.8c-0.8-1.3-1.2-2.7-1.2-4.2
			c0-0.1,0-0.2,0-0.4c0-0.2,0-0.3,0-0.4c0.2-1.4,0.8-2.8,1.7-4c1-1.3,2.1-2.1,3.4-2.5c0.8-0.2,1.6-0.4,2.4-0.4c1,0,2,0.2,2.9,0.6
			s1.7,1.1,2.2,1.9c0.5,0.7,0.9,1.5,1.1,2.5c0.2,0.9,0.3,2,0.3,3.2L311.4,259.8z M307.8,255.8c-0.4-0.5-0.8-0.9-1.2-1.1
			c-0.6-0.3-1.2-0.4-1.9-0.4c-0.9,0-1.8,0.2-2.5,0.7c-0.4,0.3-0.7,0.6-1,1.1s-0.4,0.8-0.4,1.2h7.6
			C308.4,256.8,308.2,256.3,307.8,255.8z"/>
		<path id="XMLID_81_" class="st3" d="M339.4,266.6h-3l-0.1-0.2v-8.9c-0.1-0.7-0.3-1.3-0.8-1.8c-0.5-0.6-1-0.9-1.7-1.1
			c-0.4-0.1-0.7-0.1-1.1-0.1c-1.3,0-2.6,0.4-3.7,1.3c0,1,0,4.6,0,10.8c-0.6,0-1.6,0-3.1,0l-0.1-0.1c0-5.5,0-8.5,0-9
			c0-0.6-0.2-1.1-0.5-1.6c-0.3-0.5-0.8-0.8-1.3-1.1c-0.6-0.2-1.2-0.4-1.8-0.4c-0.7,0-1.4,0.1-2.1,0.4s-1.4,0.6-2,1.1v10.6l-0.1,0.1
			c-0.4,0-0.7,0-1.1,0c-0.5,0-0.9,0-1.2,0c-0.1,0-0.3,0-0.4,0c-0.2,0-0.4,0-0.4,0v-14.8l0.2-0.2h2.9c0.1,0,0.1,0,0.1,0.1
			c0,0.2,0,0.4,0,0.8c0.1,0,0.2-0.1,0.5-0.3c0.4-0.2,0.7-0.4,0.9-0.4c1.1-0.3,2.1-0.5,3.2-0.5c1.5,0,2.8,0.3,3.7,1
			c0.3,0.2,0.6,0.4,1,0.8c0.6-0.6,1.4-1.1,2.2-1.4c0.9-0.3,1.8-0.4,2.7-0.4c1.6,0,3,0.4,4.3,1.1c1.1,0.7,1.9,1.6,2.2,2.6
			c0.4,1.1,0.5,2.5,0.5,4.1v7.4L339.4,266.6z"/>
		<path id="XMLID_83_" class="st3" d="M98,300.5c-3.6,0-7,0-10,0c-0.3,0-0.5,0-0.7,0c0,0.5,0.1,0.9,0.2,1.2c0.1,0.3,0.3,0.7,0.5,1
			c0.4,0.7,1,1.2,1.8,1.5c0.7,0.3,1.6,0.4,2.5,0.4c0.4,0,0.8,0,1.3-0.1c0.7-0.1,1.5-0.3,2.2-0.7c0.7-0.4,1.5-0.9,2.4-1.5l0.2,0v3.2
			c-0.8,0.6-1.8,1.1-3,1.4c-1.1,0.3-2.3,0.5-3.4,0.5c-1.4,0-2.6-0.2-3.6-0.7c-1.2-0.6-2.2-1.5-3-2.8c-0.8-1.3-1.2-2.7-1.2-4.2
			c0-0.1,0-0.2,0-0.4c0-0.2,0-0.3,0-0.4c0.2-1.4,0.8-2.8,1.7-4c1-1.3,2.1-2.1,3.4-2.5c0.8-0.2,1.6-0.4,2.4-0.4c1,0,2,0.2,2.9,0.6
			c0.9,0.4,1.7,1.1,2.2,1.9c0.5,0.7,0.9,1.5,1.1,2.5c0.2,0.9,0.3,2,0.3,3.2L98,300.5z M94.4,296.5c-0.4-0.5-0.8-0.9-1.2-1.1
			c-0.6-0.3-1.2-0.4-1.9-0.4c-0.9,0-1.8,0.2-2.5,0.7c-0.4,0.3-0.7,0.6-1,1.1c-0.3,0.4-0.4,0.8-0.4,1.2H95
			C95,297.5,94.8,297,94.4,296.5z"/>
		<path id="XMLID_86_" class="st3" d="M126,307.3h-3l-0.1-0.2v-8.9c-0.1-0.7-0.3-1.3-0.8-1.8c-0.5-0.6-1-0.9-1.7-1.1
			c-0.4-0.1-0.7-0.1-1.1-0.1c-1.3,0-2.6,0.4-3.7,1.3c0,1,0,4.6,0,10.8c-0.6,0-1.6,0-3.1,0l-0.1-0.1c0-5.5,0-8.5,0-9
			c0-0.6-0.2-1.1-0.5-1.6c-0.3-0.5-0.8-0.8-1.3-1.1c-0.6-0.2-1.2-0.4-1.8-0.4c-0.7,0-1.4,0.1-2.1,0.4s-1.4,0.6-2,1.1v10.6l-0.1,0.1
			c-0.4,0-0.7,0-1.1,0c-0.5,0-0.9,0-1.2,0c-0.1,0-0.3,0-0.4,0c-0.2,0-0.4,0-0.4,0v-14.8l0.2-0.2h2.9c0.1,0,0.1,0,0.1,0.1
			c0,0.2,0,0.4,0,0.8c0.1,0,0.2-0.1,0.5-0.3c0.4-0.2,0.7-0.4,0.9-0.4c1.1-0.3,2.1-0.5,3.2-0.5c1.5,0,2.8,0.3,3.7,1
			c0.3,0.2,0.6,0.4,1,0.8c0.6-0.6,1.4-1.1,2.2-1.4c0.9-0.3,1.8-0.4,2.7-0.4c1.6,0,3,0.4,4.3,1.1c1.1,0.7,1.9,1.6,2.2,2.6
			c0.4,1.1,0.5,2.5,0.5,4.1v7.4L126,307.3z"/>
		<path id="XMLID_88_" class="st3" d="M144.4,307.6c-1,0-1.9-0.1-2.9-0.3c-1-0.2-1.8-0.5-2.6-0.9l-0.1-0.1V303
			c0.2,0.1,0.5,0.2,1,0.4c0.4,0.2,0.8,0.3,1.2,0.5c1.3,0.6,2.6,0.8,3.9,0.8c0.3,0,0.6,0,0.9-0.1c0.4,0,0.7-0.2,1.1-0.4
			c0.3-0.2,0.6-0.5,0.7-0.8c0.1-0.1,0.1-0.3,0.1-0.4c0-0.3-0.1-0.6-0.3-0.8c-0.4-0.5-0.8-0.8-1.3-0.9c-0.5-0.2-1.2-0.3-2-0.4
			c-0.7-0.1-1.2-0.2-1.6-0.3c-0.9-0.3-1.6-0.7-2.3-1.2c-0.7-0.5-1.1-1.1-1.4-1.8c-0.1-0.4-0.2-0.8-0.2-1.2c0-0.7,0.1-1.3,0.4-1.8
			c0.3-0.6,0.7-1,1.2-1.4c0.6-0.4,1.2-0.7,1.9-0.9c0.7-0.2,1.5-0.3,2.3-0.3c0.9,0,1.7,0.1,2.5,0.3c0.8,0.2,1.6,0.5,2.3,0.8v3.2
			c-0.1,0-0.5-0.2-1-0.4c-0.6-0.2-0.9-0.4-0.9-0.4c-0.6-0.2-1.2-0.4-1.6-0.5c-0.5-0.1-1-0.2-1.5-0.2c-0.6,0-1.2,0.1-1.6,0.4
			c-0.2,0.1-0.4,0.3-0.6,0.5c-0.1,0.2-0.2,0.4-0.2,0.6c0,0.2,0,0.3,0.1,0.4c0.3,0.4,0.6,0.6,1,0.8s0.9,0.3,1.4,0.4
			c0.2,0,0.5,0.1,0.9,0.1c0.1,0,0.2,0,0.4,0.1c0.6,0.1,1.1,0.2,1.4,0.2c1,0.3,1.8,0.8,2.6,1.4c0.7,0.6,1.2,1.4,1.3,2.3
			c0,0.1,0,0.2,0,0.3c0,0.1,0,0.2,0,0.3c0,0.9-0.2,1.7-0.6,2.5c-0.4,0.8-1,1.3-1.8,1.6C147.3,307.3,146,307.6,144.4,307.6z"/>
		<path id="XMLID_90_" class="st3" d="M167.6,300.5c-3.6,0-7,0-10,0c-0.3,0-0.5,0-0.7,0c0,0.5,0.1,0.9,0.2,1.2
			c0.1,0.3,0.3,0.7,0.5,1c0.4,0.7,1,1.2,1.8,1.5c0.7,0.3,1.6,0.4,2.5,0.4c0.4,0,0.8,0,1.3-0.1c0.7-0.1,1.5-0.3,2.2-0.7
			c0.7-0.4,1.5-0.9,2.4-1.5l0.2,0v3.2c-0.8,0.6-1.8,1.1-3,1.4c-1.1,0.3-2.3,0.5-3.4,0.5c-1.4,0-2.6-0.2-3.6-0.7
			c-1.2-0.6-2.2-1.5-3-2.8c-0.8-1.3-1.2-2.7-1.2-4.2c0-0.1,0-0.2,0-0.4c0-0.2,0-0.3,0-0.4c0.2-1.4,0.8-2.8,1.7-4
			c1-1.3,2.1-2.1,3.4-2.5c0.8-0.2,1.6-0.4,2.4-0.4c1,0,2,0.2,2.9,0.6c0.9,0.4,1.7,1.1,2.2,1.9c0.5,0.7,0.9,1.5,1.1,2.5
			c0.2,0.9,0.3,2,0.3,3.2L167.6,300.5z M164,296.5c-0.4-0.5-0.8-0.9-1.2-1.1c-0.6-0.3-1.2-0.4-1.9-0.4c-0.9,0-1.8,0.2-2.5,0.7
			c-0.4,0.3-0.7,0.6-1,1.1c-0.3,0.4-0.4,0.8-0.4,1.2h7.6C164.6,297.5,164.4,297,164,296.5z"/>
		<path id="XMLID_93_" class="st3" d="M182.1,307.3c0,0-0.1,0-0.1-0.1v-0.7c-1.3,0.8-2.7,1.2-4.4,1.2c-1,0-2-0.2-2.8-0.5
			c-1-0.4-1.9-1.1-2.7-2c-0.8-0.9-1.2-1.9-1.2-2.9v-9.9c0.6,0,1.6,0,3.1,0l0.1,0.2v9.3c0.2,0.7,0.5,1.3,1.1,1.8s1.2,0.8,2,0.9
			c0.3,0,0.5,0.1,0.8,0.1c0.7,0,1.4-0.1,2.1-0.4c0.7-0.3,1.3-0.7,1.9-1.2c0-2.7,0-6,0-9.9c0-0.3,0-0.6,0-0.8c0-0.1,0-0.1,0.1-0.1
			c0,0,0.1,0,0.1,0h2.9c0.1,0,0.1,0.1,0.1,0.2v14.7c0,0.1-0.1,0.1-0.1,0.1H182.1z"/>
		<path id="XMLID_95_" class="st3" d="M209.8,306.7c-1.2,0.6-2.5,0.9-3.9,0.9c-0.6,0-1.2-0.1-1.8-0.2c-0.3,0-0.6-0.1-0.9-0.3
			c-0.3-0.1-0.7-0.3-1.1-0.5l-0.1,0c0,0,0,0-0.1,0l0,0c0,0,0,0,0,0.1v7.7c0,0.1,0,0.1-0.1,0.1c-0.8,0-1.8,0-2.9,0
			c-0.1,0-0.1,0-0.1-0.1c0,0,0-0.1,0-0.1v-22.1c0-0.1,0-0.1,0.1-0.1h2.9c0.1,0,0.1,0,0.1,0.1v1c0,0,0.1-0.1,0.4-0.2
			c0.7-0.5,1.3-0.7,1.7-0.8c0.7-0.2,1.4-0.3,2.2-0.3c1.2,0,2.4,0.3,3.5,0.8c1.1,0.6,2.1,1.4,2.9,2.4c0.5,0.6,0.8,1.3,1,2.1
			s0.4,1.6,0.4,2.5c0,1.6-0.4,3-1.1,4.2C212,305.2,211.1,306.1,209.8,306.7z M210.7,299.9c0-0.9-0.3-1.8-0.8-2.6
			c-0.5-0.8-1.2-1.4-2-1.8c-0.6-0.3-1.2-0.4-1.9-0.4c-0.7,0-1.4,0.2-2.2,0.5c-0.7,0.3-1.4,0.7-2,1.2v6.2c0.7,0.5,1.4,0.8,2.1,1.1
			c0.7,0.3,1.4,0.4,2.1,0.4c0.4,0,0.8,0,1.2-0.1c0.8-0.2,1.5-0.6,2.2-1.3c0.6-0.7,1.1-1.4,1.3-2.2
			C210.6,300.6,210.7,300.3,210.7,299.9z"/>
		<path id="XMLID_98_" class="st3" d="M232.5,299.5c0,0.9-0.1,1.9-0.4,2.7c-0.3,0.9-0.7,1.7-1.3,2.3c-0.8,1-1.7,1.8-2.8,2.3
			c-1.1,0.5-2.3,0.8-3.5,0.8c-0.9,0-1.8-0.1-2.6-0.4c-1.2-0.4-2.3-1.1-3.2-2.1s-1.5-2.2-1.8-3.4c-0.1-0.6-0.2-1.2-0.2-1.8
			c0-1.4,0.3-2.6,0.9-3.8c0.6-1.2,1.5-2.1,2.6-2.9c1.4-0.9,2.9-1.3,4.6-1.3c1.2,0,2.3,0.2,3.3,0.7c0.7,0.3,1.4,0.8,2,1.5
			c0.7,0.6,1.2,1.3,1.6,2C232.2,297.1,232.5,298.2,232.5,299.5z M229.3,299.8c0-0.9-0.2-1.8-0.6-2.5c-0.5-0.8-1.1-1.4-1.8-1.8
			c-0.7-0.4-1.6-0.6-2.4-0.6c-1.4,0-2.7,0.6-3.6,1.9c-0.7,0.9-1,1.9-1,3.1c0,0.9,0.2,1.7,0.7,2.4c0.5,0.7,1.1,1.3,1.8,1.7
			s1.5,0.6,2.3,0.6c0.3,0,0.6,0,0.8-0.1c0.7-0.1,1.4-0.4,2-0.9c0.6-0.5,1.1-1,1.4-1.6C229.1,301.4,229.3,300.6,229.3,299.8z"/>
		<path id="XMLID_101_" class="st3" d="M245.5,295.7c-0.3-0.2-0.5-0.3-0.6-0.4c-0.7-0.3-1.5-0.5-2.1-0.5c-1.1,0-2.3,0.5-3.4,1.4
			l-0.3,0.3c0,2.4,0,5.9,0,10.5l-0.1,0.2h-3l-0.1-0.1v-14.8c0,0,0,0,0.1-0.1c0,0,0,0,0,0c0.6,0,1.5,0,2.9,0c0.1,0,0.1,0,0.1,0.1v0.8
			c0.1-0.1,0.3-0.2,0.6-0.3c0.3-0.2,0.5-0.3,0.7-0.4c0.9-0.3,1.8-0.5,2.7-0.5c1,0,2,0.2,2.7,0.6l0.2,3.5
			C245.8,295.9,245.6,295.8,245.5,295.7z"/>
		<path id="XMLID_103_" class="st3" d="M258.9,295.4h-5.5l-0.2,0.1v6.9c0,0.9,0.4,1.5,1,1.8c0.5,0.2,0.9,0.4,1.5,0.4
			c0.5,0,1-0.1,1.5-0.3c0.5-0.2,1.1-0.4,1.8-0.7v2.9c-1,0.6-2.2,0.9-3.5,0.9c-0.9,0-1.8-0.2-2.7-0.5c-1.1-0.4-1.8-1-2.2-1.9
			c-0.4-0.9-0.6-1.9-0.6-3.2v-6.5h-2.5l-0.2-0.2v-2.9h2.6c0.1,0,0.1,0,0.1-0.1v-3.6c0,0,0-0.1,0.1-0.2h3.1c0,0,0,0.1,0,0.2v3.7h5.8
			c0,1.4,0,2.4,0,3L258.9,295.4z"/>
		<path id="XMLID_105_" class="st3" d="M272.3,295.5c-2.4,0-4.3,0-5.7,0c-0.1,0-0.1,0.1-0.1,0.1v11.6l-0.1,0.1h-3l-0.1-0.1v-11.7
			h-2.4c-0.1,0-0.1,0-0.1-0.1v-2.9c0-0.1,0-0.1,0.1-0.1h2.4c0,0,0-0.1,0-0.2c0-1.8,0.2-3.2,0.7-4.3s1.2-1.9,2.4-2.5
			c0.8-0.4,1.8-0.6,3.1-0.6c1,0,2,0.1,3,0.4v3.1c0,0.1,0,0.2-0.1,0.2l0,0c0,0,0,0-0.1,0c-0.4-0.2-0.8-0.3-1.2-0.4
			c-0.4-0.1-0.9-0.2-1.3-0.2c-0.7,0-1.3,0.1-1.7,0.4c-0.6,0.4-1,0.9-1.2,1.5c-0.2,0.6-0.3,1.4-0.3,2.5c0,0,0,0.1,0.1,0.1
			c0,0,0.1,0.1,0.2,0.1h5.6l0.1,0.1v2.9C272.4,295.4,272.4,295.5,272.3,295.5z"/>
		<path id="XMLID_107_" class="st3" d="M290.6,299.5c0,0.9-0.1,1.9-0.4,2.7c-0.3,0.9-0.7,1.7-1.3,2.3c-0.8,1-1.7,1.8-2.8,2.3
			c-1.1,0.5-2.3,0.8-3.5,0.8c-0.9,0-1.8-0.1-2.6-0.4c-1.2-0.4-2.3-1.1-3.2-2.1c-0.9-1.1-1.5-2.2-1.8-3.4c-0.1-0.6-0.2-1.2-0.2-1.8
			c0-1.4,0.3-2.6,0.9-3.8s1.5-2.1,2.6-2.9c1.4-0.9,2.9-1.3,4.6-1.3c1.2,0,2.3,0.2,3.3,0.7c0.7,0.3,1.4,0.8,2,1.5
			c0.7,0.6,1.2,1.3,1.6,2C290.4,297.1,290.6,298.2,290.6,299.5z M287.4,299.8c0-0.9-0.2-1.8-0.6-2.5c-0.5-0.8-1.1-1.4-1.8-1.8
			c-0.7-0.4-1.6-0.6-2.4-0.6c-1.4,0-2.7,0.6-3.6,1.9c-0.7,0.9-1,1.9-1,3.1c0,0.9,0.2,1.7,0.7,2.4c0.5,0.7,1.1,1.3,1.8,1.7
			c0.7,0.4,1.5,0.6,2.3,0.6c0.3,0,0.6,0,0.8-0.1c0.7-0.1,1.4-0.4,2-0.9c0.6-0.5,1.1-1,1.4-1.6C287.3,301.4,287.4,300.6,287.4,299.8z
			"/>
		<path id="XMLID_110_" class="st3" d="M299.3,307.7c-1.3,0-2.5-0.4-3.5-1.1c-0.5-0.4-1-1-1.3-1.7c-0.3-0.7-0.5-1.5-0.5-2.3V285
			l0.2-0.1h2.8l0.1,0.1c0,11.7,0,17.5,0,17.6c0.1,0.4,0.3,0.8,0.6,1.3s0.7,0.7,1.2,0.8c0.1,0,0.2,0,0.3,0c0.1,0,0.2,0,0.3,0
			c0.5,0,1-0.1,1.5-0.3c0.5-0.2,0.9-0.5,1.3-0.9c0.1,0,0.1,0.1,0.1,0.1v3.3C301.4,307.4,300.3,307.7,299.3,307.7z"/>
		<path id="XMLID_112_" class="st3" d="M307.6,290.5c-0.3,0.3-0.5,0.5-0.7,0.7h-0.2c-0.1-0.1-0.2-0.2-0.3-0.3
			c-0.1-0.1-0.3-0.3-0.6-0.6l-1-1c0,0-0.1,0-0.1-0.1s0,0,0-0.1l2-2c0,0,0.1-0.1,0.1-0.1c0,0,0,0,0.1,0.1l1.9,2c0,0,0,0.1,0,0.1
			C308.6,289.5,308.1,289.9,307.6,290.5z M308.4,307.1c0,0.1,0,0.1-0.1,0.1h-3c-0.1,0-0.1-0.1-0.1-0.1v-14.8l0.1,0h3l0.1,0.1V307.1z
			"/>
		<path id="XMLID_115_" class="st3" d="M328.2,299.5c0,0.9-0.1,1.9-0.4,2.7c-0.3,0.9-0.7,1.7-1.3,2.3c-0.8,1-1.7,1.8-2.8,2.3
			c-1.1,0.5-2.3,0.8-3.5,0.8c-0.9,0-1.8-0.1-2.6-0.4c-1.2-0.4-2.3-1.1-3.2-2.1c-0.9-1.1-1.5-2.2-1.8-3.4c-0.1-0.6-0.2-1.2-0.2-1.8
			c0-1.4,0.3-2.6,0.9-3.8s1.5-2.1,2.6-2.9c1.4-0.9,2.9-1.3,4.6-1.3c1.2,0,2.3,0.2,3.3,0.7c0.7,0.3,1.4,0.8,2,1.5
			c0.7,0.6,1.2,1.3,1.6,2C327.9,297.1,328.2,298.2,328.2,299.5z M324.9,299.8c0-0.9-0.2-1.8-0.6-2.5c-0.5-0.8-1.1-1.4-1.8-1.8
			c-0.7-0.4-1.6-0.6-2.4-0.6c-1.4,0-2.7,0.6-3.6,1.9c-0.7,0.9-1,1.9-1,3.1c0,0.9,0.2,1.7,0.7,2.4c0.5,0.7,1.1,1.3,1.8,1.7
			c0.7,0.4,1.5,0.6,2.3,0.6c0.3,0,0.6,0,0.8-0.1c0.7-0.1,1.4-0.4,2-0.9c0.6-0.5,1.1-1,1.4-1.6C324.8,301.4,324.9,300.6,324.9,299.8z
			"/>
	</g>
</g>
<g id="Camada_2">
</g>
</svg>
