<?xml version="1.0" encoding="utf-8"?>
<!-- Generator: Adobe Illustrator 19.0.0, SVG Export Plug-In . SVG Version: 6.00 Build 0)  -->
<svg version="1.1" id="Camada_1" xmlns="http://www.w3.org/2000/svg" xmlns:xlink="http://www.w3.org/1999/xlink" x="0px" y="0px"
	 viewBox="0 0 160 160" style="enable-background:new 0 0 160 160;" xml:space="preserve">
<style type="text/css">
	.st0{fill:#F4F4F4;}
	.st1{fill:#F0EFEF;}
	.st2{fill:#C9E2EE;}
	.st3{fill:#FFFFFF;stroke:#D3D2D3;stroke-miterlimit:10;}
	.st4{fill:#D2E7EE;}
	.st5{fill:#FFFFFF;}
	.st6{fill:#E6BD38;}
	.st7{fill:#F1E4A1;}
	.st8{fill:#B53A2F;}
	.st9{fill:#CF734E;}
	.st10{fill:#E1E1E1;}
	.st11{fill:#E1A732;}
</style>
<rect id="XMLID_44_" class="st0" width="160" height="160"/>
<g id="XMLID_57_">
	<path id="XMLID_58_" class="st1" d="M86,62c0,7.2-2.2,13.3-6.6,18.1C75,84.9,69.2,87.9,62,89.2c-2.8,0.5-7.5,0.7-14.2,0.7v18.6
		c0,2.7-1.1,5.1-3.3,7c-2.2,2-4.7,3-7.5,3c-2.7,0-5.2-1-7.4-3c-2.2-2-3.3-4.3-3.3-7V43.8c0-2.1,0.8-4.1,2.5-6.1
		c1.7-2,3.5-3.2,5.6-3.5c1.3-0.2,5.1-0.3,11.5-0.3h3.6c0.5,0,1.2,0,2.1-0.1c0.7,0,1.2,0,1.4,0c8.1,0,15.1,1.8,20.9,5.5
		c2.8,1.8,5.3,4.4,7.6,7.9c2.3,3.5,3.6,6.8,3.9,10C85.9,58.7,86,60.3,86,62z M85,61c-2.3-1.5-5.7-3.7-10.3-6.5
		c2.1,0.7,5.4,1.8,9.7,3.2C81.6,56,77.5,53.4,72,50c0.2,0.1,3.9,1.6,11,4.4c-0.3-0.5-0.8-1-1.5-1.4C72.5,47.4,60.4,41.4,45,35.2
		c3.3,1.9,8.2,4.8,14.8,8.6c-0.2,0.1-0.5,0-1-0.2c-4.2-1.9-10.7-4.7-19.5-8.4c3.2,1.9,7.8,4.6,13.8,8.1c-0.1,0.1-0.2,0.1-0.3,0.1
		c-0.1,0-0.2,0-0.3-0.1c-3.8-1.6-9.3-4.1-16.3-7.3l-0.8,0.3c2.7,1.5,6.7,3.8,12,7c-0.1,0.1-0.2,0.1-0.3,0.1c-0.1,0-0.2,0-0.2-0.1
		c-5-2.3-9.9-4.3-14.8-6c2.8,2,6,4,9.6,6c-0.1,0.1-0.2,0.1-0.3,0.1c-0.1,0-0.2,0-0.2-0.1c-1.2-0.6-5.1-2.1-11.6-4.6
		c1.6,1.2,3.9,2.8,6.9,4.7c-1.4-0.1-2.8-0.4-4.3-1c-1.8-0.7-3.1-1.2-4-1.5c1.9,1.2,4.6,3.1,8.1,5.5c-2-0.6-4.8-1.5-8.5-2.7
		c3.4,2.1,6.2,4,8.5,5.5c-0.2,0-0.5-0.1-0.9-0.3c-0.4-0.2-0.6-0.3-0.6-0.3c-0.7-0.2-3-0.8-6.7-2c1.9,1.2,4.6,3,8.2,5.5
		c-3.6-1.2-6.2-2-8.1-2.5c1.3,0.8,4,2.6,8.1,5.3c-0.2,0-0.5-0.1-0.9-0.3c-0.4-0.2-0.6-0.3-0.6-0.3c-0.7-0.2-3-0.8-6.7-2
		c1.9,1.2,4.6,3,8.2,5.5c-4-1.2-6.9-2.2-8.7-3c3.3,2,6.2,4,8.7,5.8c-0.2,0-0.5-0.1-0.9-0.3c-0.4-0.2-0.6-0.3-0.6-0.3
		c-0.7-0.2-3-0.8-6.7-2c1.9,1.2,4.6,3,8.2,5.5c-3.6-1.2-6.2-2.1-8.1-2.5c1.4,0.8,4,2.6,8.1,5.3c-0.2,0-0.5-0.1-0.9-0.3
		c-0.4-0.2-0.6-0.3-0.6-0.3c-0.7-0.2-3-0.8-6.7-2c1.9,1.2,4.6,3.1,8.2,5.6c-4-1.2-6.9-2.3-8.7-3.1c3.3,2.1,6.2,4,8.7,5.8
		c-0.2,0-0.5-0.1-0.9-0.3c-0.4-0.2-0.6-0.3-0.6-0.3c-0.7-0.2-3-0.8-6.7-2c1.9,1.2,4.6,3,8.2,5.5c-1.8-0.6-4.5-1.4-8.1-2.5
		c1.8,1.1,4.5,2.8,8.1,5.1c-0.2,0-0.5-0.1-0.9-0.3c-0.4-0.2-0.6-0.3-0.8-0.3c-1,0-3.1-0.6-6.5-1.8c2.3,1.3,5.1,3.1,8.2,5.3
		c-4-1.2-6.9-2.3-8.7-3.1c3.3,2.1,6.2,4,8.7,5.8c-0.2,0-0.5-0.1-0.9-0.3c-0.4-0.2-0.6-0.3-0.6-0.3c-0.7-0.2-3-0.8-6.7-2
		c1.9,1.2,4.6,3,8.2,5.5c-3.6-1.2-6.2-2-8.1-2.5c1.3,0.8,4,2.5,8.1,5.3c-0.2,0-0.5-0.1-0.9-0.3c-0.4-0.2-0.6-0.3-0.6-0.3
		c-0.7-0.2-3-0.8-6.7-2c1.9,1.2,4.6,3,8.2,5.5c-4-1.2-6.9-2.2-8.7-3c3.3,2.1,6.2,4,8.7,5.8c-0.2,0-0.5-0.1-0.9-0.3
		c-0.4-0.2-0.6-0.3-0.6-0.3c-0.7-0.2-3-0.8-6.7-2c1.9,1.2,4.6,3,8.2,5.5c-3.6-1.2-6.2-2-8.1-2.5c1.4,0.8,4,2.6,8.1,5.3
		c-0.2,0-0.5-0.1-0.9-0.3c-0.4-0.2-0.6-0.3-0.6-0.3c-0.7-0.2-3-0.8-6.7-2c1.9,1.2,4.6,3,8.2,5.5c-4-1.2-6.9-2.2-8.7-3
		c3.3,2.1,6.2,4,8.7,5.8c-0.2,0-0.5-0.1-0.9-0.3c-0.4-0.2-0.6-0.3-0.8-0.3c-0.3,0-2.5-0.6-6.5-2c0.6,0.3,1.3,0.8,2.1,1.4
		c3.2,2.6,8.3,5,15.4,7.2c-1.7-0.9-4.1-2.5-7.1-4.8h0.3c2,0.6,4.7,1.5,8,2.7c-2-1.4-4.7-3.2-8.2-5.5c0.3-0.1,0.5-0.1,0.5,0
		c1.7,0.6,4.1,1.4,7.3,2.6c-0.9-1-2.1-1.9-3.6-2.9c-1.2-0.7-2.6-1.6-4.2-2.6h0.3c3.2,1,5.8,1.8,8,2.5c-1.8-1.2-4.6-3-8.2-5.3
		c0.3-0.1,0.5-0.1,0.5,0c1.7,0.6,4.1,1.4,7.3,2.6c-0.9-1-2.1-1.9-3.6-2.9c-1.2-0.8-2.6-1.7-4.2-2.6c2,0.6,4.9,1.5,8.7,2.7
		c-2-1.3-4.9-3.1-8.7-5.5c0.3-0.2,0.5-0.2,0.5-0.1c1.7,0.6,4.1,1.4,7.3,2.6c-0.8-0.8-2-1.8-3.6-2.8c-2.1-1.3-3.5-2.2-4.2-2.7h0.3
		l8,2.5c-1.8-1.3-4.6-3.1-8.2-5.3c0.3-0.2,0.5-0.2,0.5-0.1c1.7,0.6,4.1,1.4,7.3,2.6c-1-1-2.2-2-3.5-2.8c-1.3-0.8-2.8-1.8-4.3-2.8
		c0.2-0.1,0.5,0,0.9,0.3c2.3,0.7,5.5,1.9,9.6,3.5c-2.4-1.5-5.9-3.7-10.5-6.4c0.3-0.2,0.5-0.2,0.5-0.1c3.7,1.5,9.1,3.7,16.3,6.8
		c-3.7-2.1-9.3-5.4-16.8-9.7c0.6,0.1,1.3,0.3,2.1,0.6c3.6,1.9,9.8,4.6,18.6,8.1c-4.4-2.6-8.5-5.1-12.2-7.4c2.5,1,5.7,2.3,9.8,4.2
		c1.5,0.7,3.7,1.6,6.8,2.7c0.3,0.1,0.5,0.1,0.5,0.1c-2.8-1.8-6.5-4.1-11.3-7h0.3c6.3,2.6,11.2,4.5,14.5,5.8c-2.3-1.4-5.5-3.4-9.7-6
		c0.3-0.1,0.5-0.1,0.5,0l10.3,4.2c0.1,0,0.2,0.1,0.4,0.3c0.2,0.2,0.4,0.3,0.6,0.3c0.2,0,0.4,0,0.7,0.1h0.5c-2-1.3-4.9-3.1-8.7-5.5
		h0.3c2.5,0.9,6,2.1,10.6,3.7c-2.3-1.6-4.7-3.2-7.4-4.8h0.3c2.3,0.7,5.6,1.9,10.1,3.5c-1.7-1.1-4.1-2.7-7.1-4.8
		c2.1,0.7,5,1.6,8.7,2.7c-2.5-1.8-4.8-3.2-6.7-4.4c0.4,0.1,1.8,0.4,4.2,1.1c0.2,0.1,0.9,0.3,2,0.8c1,0.5,1.5,0.7,1.7,0.7
		c0.2,0,0.4,0,0.6,0.1c0.2,0.1,0.4,0.1,0.4,0.1c-1.6-1.1-4-2.6-7.1-4.7c0.3-0.1,0.5-0.1,0.6,0c2,0.6,4.7,1.6,7.9,2.9
		c-1.5-1.1-3.8-2.8-6.9-5.1c0.9,0.2,2.2,0.7,4,1.3c1.8,0.6,3.1,1,4,1.3c-1.6-1.1-3.9-2.7-6.9-4.8c1.8,0.6,4.5,1.5,8.1,2.7
		c-1.6-1.2-4.1-2.9-7.4-5.2c1.7,0,4.1,0.8,7.2,2.5c0.2,0,0.4,0,0.6,0.1c0.3,0.1,0.4,0.1,0.5,0.1l-7.9-5.3h0.3l7.5,2.3
		c-1.8-1.1-4.4-2.9-7.8-5.3c2.9,0.8,5.7,1.7,8.6,2.7l-9-5.8C76.7,58.1,79.7,59.1,85,61z M41.1,116.4c-4.2-2.8-8.6-5-13.3-6.5
		C31.1,111.9,35.6,114.1,41.1,116.4z M43.7,114.8c-1.1-0.7-2.7-1.8-4.8-3.3c-3.2-2.1-5.5-3.1-6.8-3.1c-0.2,0-0.9-0.2-1.9-0.6
		c-1-0.4-1.8-0.7-2.2-0.7C30.1,108.6,35.3,111.2,43.7,114.8z M35.8,116.6c-2.4-1.6-3.8-2.5-4.2-2.5h-0.8
		C31.9,114.8,33.6,115.7,35.8,116.6z M74.3,62.7c-1.8-0.8-4.6-1.6-8.3-2.5c1.8,1.2,4.4,3,7.8,5.3c-1.7-0.7-4.2-1.6-7.5-2.5h-0.6
		l7.4,4.8c-0.1-0.1-2.8-0.9-8-2.5h-0.3c2,1.5,4.5,3.2,7.4,5.1c-1.8-0.6-4.5-1.6-8.1-2.9c-0.1-0.1-0.3-0.1-0.6,0.1
		c1.6,1.1,4,2.7,7.1,4.8c-1.9-0.6-4.8-1.6-8.6-3.1c-0.1-0.1-0.3-0.1-0.6,0.1c2.9,2.1,5.3,3.8,7.1,4.8c-4.4-1.6-8.3-3.1-11.6-4.5
		c-0.1-0.1-0.2-0.1-0.3,0.1c0.9,0.6,4,2.5,9.2,5.9c-3.2-1.4-8.1-3.4-14.6-6c-0.1-0.1-0.2-0.1-0.3,0.1c5.3,3.2,9.2,5.5,12,7
		c-1.6-0.4-6.9-2.5-15.9-6.4c-0.1-0.1-0.3-0.1-0.4,0.1c2.5,1.6,6.7,4,12.5,7.2l-9.8-3.9c-3.6-1.5-7.3-3.5-10.9-6.1
		c4.5,1.7,7.3,2.5,8.2,2.5c-1.8-1.2-4.5-3-8.2-5.3c1.7,0.5,4.2,1.4,7.6,2.7l0.4-0.3c-1-0.7-3.7-2.5-8.1-5.3c1.7,0.6,4.4,1.5,8.1,2.9
		c0.1,0.1,0.3,0.1,0.6-0.1c-1.9-1.2-4.8-3.1-8.7-5.6c1.7,0.6,4.2,1.5,7.6,2.7l0.4-0.3c-1-0.7-3.6-2.5-8.1-5.3
		c4.1,1.7,6.8,2.5,8.2,2.5c-1.8-1.1-4.5-2.9-8.2-5.3c1.7,0.5,4.2,1.4,7.6,2.6l0.4-0.3c-1-0.7-3.6-2.5-8.1-5.3l8,2.9
		c0.2,0.1,0.6,0.2,1.2,0.2c-2-1.3-5.1-3.2-9.2-5.8c2.4,0.8,7,2.7,13.7,5.6c0.2,0.1,0.6,0.2,1.2,0.2c-3-1.9-7.4-4.5-13.3-7.9
		c5.5,2.4,12.2,5.3,20.1,8.7c0.1,0.1,0.2,0,0.3-0.2c-3.3-2-8.2-4.8-14.7-8.6l13.9,6.1c5.5,2.6,10.4,5.3,14.6,8.1
		c-3.2-1-6.6-2.3-10.2-4.1L63.4,56L74.3,62.7z M53.8,78.1c-1.1-0.5-2.8-1.1-5.2-1.8c-0.4-0.2-1.1-0.5-2.1-0.9
		c-0.4-0.2-3.2-1.8-8.3-4.7c1.4,0.3,3.4,1,5.9,1.9C46.1,73.8,49.3,75.6,53.8,78.1z M48.1,78c-0.6-0.2-2.3-0.8-4.9-1.9
		c-1.6-0.6-3.3-1.5-5-2.7c1.8,0.6,3.5,1.3,5.3,2.3C46.1,77.1,47.7,77.9,48.1,78z M43,78.6c-0.5-0.2-2.1-1-4.8-2.2h1.2
		C39.8,76.4,41,77.1,43,78.6z M64.6,62c0-2.2-1-3.9-2.9-5.2c-1.7-1.1-3.7-1.6-6-1.6h-7.9v13.5h6.7C61.2,68.7,64.6,66.5,64.6,62z
		 M82.1,50.7c-7.9-4.9-18.3-10-31.3-15.5C63.1,42.6,73.5,47.8,82.1,50.7z M73.3,56.5c-3.3-1.1-7-2.7-11.1-4.8
		C61,51,57.4,49,51.3,45.5C60.2,49.2,67.5,52.8,73.3,56.5z M79.5,46.6c-10.5-5.6-18.1-9.4-23-11.4C66.8,41,74.4,44.8,79.5,46.6z
		 M71.1,52.5c-3.1-1.5-7.6-3.7-13.6-6.7C61.7,47.6,66.2,49.8,71.1,52.5z M73.3,40.6c-1.5-0.7-3.6-1.8-6.4-3.1
		C69.7,39,71.8,40.1,73.3,40.6z"/>
	<path id="XMLID_74_" class="st1" d="M142.5,44.3c0,3.6-1.4,6.4-4.3,8.6c-1.8,1.4-3.3,2-4.4,2h-23.4v8.4h16.3c2,0,4,0.8,6,2.5
		c2,1.7,3.1,3.6,3.5,5.6c0.2,1.1,0.3,2,0.3,2.5c0,2.5-1,4.9-3,7.2c-2,2.2-4.3,3.3-6.8,3.3h-16.3v25.4c0,0.4-0.3,1.2-0.8,2.4
		c-1.8,4.2-5.1,6.3-9.8,6.3c-0.5-0.1-2-0.4-4.3-0.8c-1.2-0.2-2.6-1.3-4.1-3.2c-1.5-1.9-2.2-3.5-2.2-4.7V42.3c0,0.8,0.5,0.3,1.4-1.8
		c1.2-2.7,2.2-4.3,2.9-4.8c1.9-1.4,3.5-2,4.8-2h35.1c0.6,0,1.6,0.3,2.8,0.8C140.3,36.2,142.5,39.5,142.5,44.3z M140.8,47.8
		c-3.6-2.7-7.4-4.9-11.4-6.8c-2.7-1.2-6.8-3-12.2-5.4c-0.6-0.3-1-0.3-1.3-0.1c0.6,0.3,4.9,2.8,12.9,7.5c-1.2-0.2-2.7-0.6-4.3-1.4
		c-1.4-0.7-2.7-1.4-4.1-2c-2-0.9-5.4-2.3-10.3-4.2l12.6,7.6c-0.2,0-0.4-0.1-0.8-0.2c-4-1.7-9.9-4.2-17.7-7.5L117,43
		c-2.2-0.8-5.7-2.4-10.6-4.6c-4.3-1.9-6.5-2.9-6.6-2.9H99c2.9,1.8,7,4.3,12.2,7.5c-3.6-1.5-9-3.6-16.2-6.5c3.1,2,6.7,4.2,10.7,6.5
		c-0.8,0-1.8-0.3-3-0.8l-3.4-1.7c-1.6-0.5-3.9-1.4-7-2.5c1.8,1.2,4.2,2.9,7.4,5.1c-2.1-0.6-5.1-1.6-8.8-2.8c2.6,1.8,5.1,3.5,7.6,5.1
		c-1-0.1-3.7-1-8.3-2.6c1.9,1.2,4.6,3.1,8.3,5.5c-1.8-0.6-4.5-1.4-8.1-2.5c2.9,1.9,5.6,3.7,8.1,5.3c-0.5-0.1-1.4-0.3-2.7-0.8
		c-1.3-0.5-2-0.7-2.2-0.7c-0.3,0-1.6-0.5-3.6-1.4c1.9,1.4,4.8,3.3,8.6,5.7c-1.8-0.6-4.5-1.4-8.1-2.4c2.8,1.8,5.5,3.6,8.1,5.3
		c-0.3,0-3.1-0.9-8.6-2.7c1.9,1.3,4.8,3.2,8.6,5.6c-1.8-0.6-4.5-1.4-8.1-2.4c2.9,1.9,5.6,3.6,8.1,5.3c-0.5-0.1-1.4-0.3-2.7-0.8
		c-1.3-0.5-2-0.7-2.2-0.7c-0.3,0-1.6-0.4-3.6-1.3c1.9,1.3,4.8,3.2,8.6,5.7c-1.8-0.6-4.5-1.4-8.1-2.5c2.8,1.8,5.5,3.6,8.1,5.3
		c-0.8-0.1-3.7-1-8.6-2.8c1.9,1.3,4.8,3.2,8.6,5.7c-1.8-0.6-4.5-1.4-8.1-2.5c2.9,1.9,5.6,3.6,8.1,5.3c-0.3-0.1-1.2-0.3-2.6-0.8
		c-1.4-0.5-2.2-0.7-2.3-0.7c-0.3,0-1.6-0.4-3.6-1.3c2,1.4,4.9,3.2,8.6,5.4c-0.8-0.2-3.5-1-8.1-2.2c2.5,1.4,5.2,3.1,8.1,5.1
		c-0.7,0-2-0.4-4-1.1L90,76.9c1.9,1.4,4.8,3.3,8.6,5.7c-1.8-0.6-4.5-1.4-8.1-2.5c2.9,1.9,5.6,3.7,8.1,5.3c-0.5-0.1-1.4-0.3-2.7-0.8
		c-1.3-0.5-2-0.7-2.2-0.7c-0.3,0-1.6-0.5-3.6-1.4c1.9,1.4,4.8,3.3,8.6,5.7C96.7,87.8,94,87,90.5,86c2.8,1.8,5.5,3.6,8.1,5.3
		c-0.3,0-3.1-0.9-8.6-2.7c1.9,1.3,4.8,3.2,8.6,5.6c-1.8-0.6-4.5-1.4-8.1-2.4c2.9,1.9,5.6,3.6,8.1,5.3c-0.5-0.1-1.4-0.3-2.7-0.8
		c-1.3-0.5-2-0.7-2.2-0.7c-0.3,0-1.6-0.4-3.6-1.3c1.9,1.3,4.8,3.2,8.6,5.7c-1.8-0.6-4.5-1.4-8.1-2.5c2.8,1.8,5.5,3.6,8.1,5.3
		c-0.8-0.1-3.7-1-8.6-2.8c1.9,1.3,4.8,3.2,8.6,5.7c-1.8-0.6-4.5-1.4-8.1-2.5c0.8,0.7,2,1.5,3.3,2.4c3.7,2.5,7.3,4.2,10.8,5.3
		c0.2,0.1,0.7,0.3,1.4,0.6c0.6,0.3,1,0.5,1.2,0.5c0.2,0,0.4,0,0.7,0.1h0.5c-1.8-1.1-4.3-2.8-7.6-5c0.6,0.1,3.4,0.9,8.3,2.6
		c-1.8-1.3-4.6-3.1-8.3-5.5c0.2-0.1,0.3-0.1,0.4-0.1c1.6,0.5,4,1.3,7.2,2.3c0.3,0.1,0.5,0.2,0.5,0.2c-1.9-1.2-4.6-3-8.1-5.3h0.3
		c1,0.3,2.5,0.8,4.3,1.5c0.5,0.2,1.7,0.6,3.6,1.1c0.2,0.1,0.4,0.1,0.4,0.1c-1.5-1-4.3-2.9-8.6-5.8c4.8,1.4,7.1,2.1,6.9,2.1
		c0.2,0,0.4,0.1,0.7,0.2c0.3,0.1,0.5,0.2,0.6,0.2c-1.9-1.2-4.6-3-8.1-5.3h0.3c0.7,0.3,2.2,0.8,4.3,1.6c0.5,0.2,1.7,0.6,3.6,1.1
		c0.2,0.1,0.4,0.1,0.4,0.1c-1.9-1.2-4.8-3.1-8.6-5.6c0.2-0.1,0.3-0.1,0.4-0.1c1.7,0.4,4.1,1.1,7.2,2.2c0.3,0.2,0.5,0.3,0.5,0.3
		c-1.9-1.2-4.6-3-8.1-5.3h0.3c0.6,0.2,2.1,0.8,4.3,1.6c0.5,0.2,1.6,0.5,3.6,1.1c0.2,0.1,0.4,0.1,0.4,0.1c-1.5-1.1-4.4-3-8.6-5.8
		c4.8,1.4,7.1,2.1,6.9,2.1c0.2,0,0.4,0.1,0.7,0.2c0.3,0.1,0.5,0.2,0.6,0.2c-1.9-1.2-4.6-3-8.1-5.3h0.3c0.6,0.2,2.1,0.8,4.3,1.6
		c0.5,0.2,1.6,0.5,3.6,1.1c0.2,0.1,0.4,0.1,0.4,0.1c-1.9-1.2-4.8-3.1-8.6-5.6c0.2-0.2,0.3-0.2,0.4-0.1c1.7,0.4,4.1,1.1,7.2,2.2
		c0.3,0.2,0.5,0.3,0.5,0.3c-1.9-1.2-4.6-3-8.1-5.3c1.1,0,3.1,0.6,5.8,1.8c3.3,1.5,5.4,2.3,6.3,2.6c-2.7-1.6-6.7-4-12-7
		c0.5,0,1.2,0.1,2,0.3c6.7,2.9,12,5.2,15.9,6.8l-7.5-4.6c-2.8-1.7-5.5-3-8.1-4c-0.5-0.2-1.2-0.6-2.3-1.4c0.8,0,1.6,0.2,2.4,0.6
		c0.8,0.6,2.2,1.4,4,2.4c0.3,0.1,0.7,0.1,1.1,0.2c4.3,1.9,9.7,4.1,16.1,6.8c-3.1-1.9-7.4-4.4-12.9-7.5c0.3-0.1,0.5-0.1,0.5,0
		c5.8,2.4,11.7,4.8,17.7,7.2c-2.9-1.8-7.1-4.2-12.5-7.2c0.3-0.1,0.5-0.1,0.6,0c3.1,1.4,7.6,3.1,13.5,5.2c-3.3-2.4-6.1-4.1-8.3-5.2
		c0.3-0.1,0.5-0.1,0.6,0c6.3,2.3,9.3,3.4,9,3.4h0.8c0.3,0.1,0.5,0.1,0.5,0.1c-1.5-0.9-3.9-2.4-7.2-4.6l7.2,2
		c-3.3-2.5-7.3-4.7-12-6.7c-6.8-2.8-10.5-4.4-11.3-4.8c3.2,2,8,4.8,14.3,8.4c-0.3,0.1-0.5,0.1-0.6,0.1c-4.1-1.8-8.1-3.5-12.1-5.3
		c-4.6-2.1-8.4-4.4-11.4-6.6h0.3c0.7,0.3,2.2,0.8,4.3,1.6c0.5,0.2,1.7,0.6,3.6,1.1c0.2,0.1,0.4,0.1,0.4,0.1
		c-1.9-1.2-4.8-3.1-8.6-5.6c0.2-0.1,0.3-0.1,0.4-0.1c1.7,0.4,4.1,1.1,7.2,2.2c0.3,0.2,0.5,0.3,0.5,0.3c-1.9-1.2-4.6-3-8.1-5.3h0.3
		c0.6,0.2,2.1,0.8,4.3,1.6c0.5,0.2,1.6,0.5,3.6,1.1c0.2,0.1,0.4,0.1,0.4,0.1c-1.5-1.1-4.4-3-8.6-5.8c4.8,1.4,7.1,2.1,6.9,2.1
		c0.2,0,0.4,0.1,0.7,0.2c0.3,0.1,0.5,0.2,0.6,0.2c-1.9-1.2-4.6-3-8.1-5.3c1.5,0.2,5.4,1.6,11.5,4.2c-5.1-2.9-8.9-5.3-11.5-7
		c0.2-0.2,0.3-0.2,0.4-0.1c3.7,1.5,9.2,3.8,16.5,6.9l-13.4-8c0.2-0.1,0.5,0,1,0.3l18.7,7.9c-3.4-1.9-8-4.6-13.9-8.1
		c0.2-0.1,0.5,0,1,0.3c2.3,1,8.3,3.5,18.1,7.7c-2.9-1.7-7.4-4.3-13.4-7.9h0.3l17.6,7.1c-2.6-1.5-6.6-3.9-12-7.1h0.3
		c3.6,1.5,8.6,3.5,15.2,6c-3.6-2.4-6.8-4.4-9.7-6h0.3c7.3,2.8,10.9,4.2,10.7,4.2c0.2,0,0.5,0,0.8,0.1h0.5c-2.5-1.5-4.9-3.1-7.1-4.8
		h0.3C134.7,45.7,137.3,46.6,140.8,47.8z M106.8,114.4c-1.7-1.2-3.4-2.5-5.1-3.6c-2.1-1.4-4-2.3-5.6-2.7c-1.1-0.3-3.2-1-6.2-2.2
		C94.5,109.1,100.2,111.9,106.8,114.4z M103.9,115.7c-4.1-3.2-8.4-5.3-13-6.4C95.8,112.5,100.1,114.7,103.9,115.7z M100.4,116.8
		l-7.5-4.1h-0.8C95.5,114.7,98.3,116.1,100.4,116.8z M107.5,72.9c-1-0.3-2.5-0.8-4.5-1.6c-0.5-0.4-1.2-0.9-2.2-1.4
		c0.8,0.1,2.1,0.6,3.6,1.4C106.4,72.3,107.5,72.9,107.5,72.9z M119.1,72.9c-5-2-8.2-3.3-9.5-3.9c-3.5-1.6-6.4-3.4-8.7-5.2
		c1.9,0.6,4.7,1.7,8.3,3.3C111.4,68.4,114.7,70.4,119.1,72.9z M113.3,72.9c-1.5-0.6-3.8-1.6-6.9-2.8c-1.8-0.7-3.6-1.8-5.5-3.3
		c0.9,0.2,2.2,0.6,3.8,1.2C106.6,69.1,109.5,70.8,113.3,72.9z M134.8,73.6c-2.1-1.5-5-3.2-8.8-4.9c-3.2-1.4-6.3-2.7-9.4-4.2
		c0.6,0.3,3.5,2,8.8,5.1C129.1,71.7,132.2,73.1,134.8,73.6z M141.5,45.3c-3.2-2.3-6.7-4.3-10.7-6l-9.2-3.9c2.5,1.4,5.2,3,8.1,4.8
		c2,1.2,4,2.3,6.2,3.1L141.5,45.3z M134.8,70.8c-3.1-1.9-7.4-4-12.7-6.4C124.7,66,128.9,68.1,134.8,70.8z M140.8,41.9
		c-3.2-1.9-6.6-3.6-10-5.3c-1-0.5-2.1-0.9-3.4-1.2C132.5,38.6,137,40.8,140.8,41.9z M137.8,37.5c-1.9-0.9-3.3-1.5-4.2-1.9
		C135.6,36.5,136.9,37.1,137.8,37.5z"/>
</g>
<g id="XMLID_12_">
	<g id="XMLID_51_">
		<path id="XMLID_50_" class="st2" d="M127.8,147.2c-1.6-3.1-4.8-5.3-8.8-5c-2.7,0.2-7.9,2.7-8.9,5.5c0.4-2.5,3.4-9.7-0.4-11.3
			c-3.3-1.3-10,4.2-11,7.9c0.6-4,1.8-11.3-4-10.6c-5.3,0.6-11,9.8-10.5,15.2l31.8,20.3c-0.3,0.4,9.9-8.1,12.2-13.7
			C129.4,152.6,129.1,149.6,127.8,147.2z"/>
		<polygon id="XMLID_49_" class="st3" points="74.2,103.6 69.6,172.7 86.7,172.7 83.8,103.7 		"/>
		<g id="XMLID_56_">
			<path id="XMLID_48_" class="st2" d="M68.9,144.3c-2.1-3.6-5.5-9.8-10.5-9c-4,0.6-5.2,6.5-3.9,9.7c-1.4-3.1-4.2-8.9-8.4-7.8
				c-4,1-2.2,5.8-2.5,8.7c-1.4-1-1.9-2.6-3-3.8c-1.5-1.6-3.7-3.3-5.6-4.3c-3.1-1.7-7.3-1.1-10.1,1c-5.3,4-0.8,14,2.3,18.1
				c2.7,3.7,6.4,6,9.7,8.9l36-7.4c-0.3-1.1-0.2-3-0.4-3.9C71.8,150.9,70.6,147.2,68.9,144.3z"/>
			<path id="XMLID_47_" class="st4" d="M73.2,159c0-0.4-0.1-0.7-0.5-0.9l0,0C72.8,158.6,73,158.9,73.2,159z"/>
		</g>
		<path id="XMLID_46_" class="st5" d="M27.9,165.2C40.6,180.9,60.2,191,82.1,191c17.4,0,33.2-6.3,45.4-16.8
			c-1.3-2.1-3.2-4.1-5.3-5.2c0.8-1.5,2.1-4.6,1.8-6.3c-0.6-3.5-5.5-0.7-7.2,1c3.2-3.1,6.3-10.5,0.1-12.6c-4.6-1.5-10.8,4.9-12.8,8.4
			c1-3.2,2.4-14.3-0.6-16.1c-3.3-2-8.8,6.4-10.7,11.9c0-2.9-1.4-5.6-4.7-4.8c-3.7,1-9.3,7.7-10.7,12.4c0.5-4.5-0.1-11.6-4.5-12
			c-2.9-0.3-7.4,2.6-8.6,5.8c-0.2-2.4-1.5-5.3-3.3-5.5c-4.4-0.4-6.2,6.5-6.4,9.8c-1.4-5.5-5.8-15.5-12.8-9.7
			c-3.2,2.7-3.9,6.8-3.2,10.7c-1.7-0.8-3.7-1.1-5.2-0.6C31,162.4,29.2,163.6,27.9,165.2z"/>
		<path id="XMLID_45_" class="st2" d="M121.3,178.9c-0.8-0.9-2.2-1.7-4.3-2.2c-1.2-0.3-2.4-0.4-3.6-0.4c-2.9,0-6,0.6-8.7,1.6
			c-0.8,0.3-6.4,3.2-6.2,3.9c-0.8-2.6,3.1-10.6-0.4-12.5c-1.8-1-7.6,3.1-7.9,5.3c0.3-4.3,2.3-9.5,0.3-13.7
			c-4.1-8.6-13.7,5.8-13.7,10.6c0-4.9-1.1-15.4-7.6-15.9c-4-0.3-6.5,5.6-7,8.8c-0.5,3.3,0.4,7.3,1.9,10.2c-1.6-2.9-6.2-8.6-9.6-4.6
			c-2.1,2.4-0.6,6.6-0.4,9.5c-1.9-4.4-8-13.7-13.8-10.3c-1.8,1-2.3,3.6-2,6.6c11.9,9.6,27.1,15.4,43.7,15.4
			C96.6,191,110.2,186.6,121.3,178.9z"/>
	</g>
	<g id="XMLID_53_">
		<g id="XMLID_28_">
			<path id="XMLID_30_" class="st6" d="M79,145.5c-20.3-29.7-7.5-43.5-7.5-43.5H79h0.1h8.2c0,0,12,13-8.2,42.7v0.1c0,0,0,0,0-0.1
				c0,0,0,0,0,0.1V145.5z"/>
			<path id="XMLID_29_" class="st7" d="M79.2,130.3c-15.7-22.7-3.8-28.2-3.8-28.2h4.2h0c0,0,3.4-0.9,4.2,0
				C94.2,113.1,79.2,130.3,79.2,130.3z"/>
		</g>
		<g id="XMLID_13_">
			<g id="rocket_2_">
				<polygon id="XMLID_27_" class="st8" points="86.7,98.2 68.3,98 68.3,92.2 86.8,92.4 				"/>
				<path id="XMLID_26_" class="st9" d="M78.5,67.5c17.8,0.2,32.1,14.2,31.9,31.2c-0.1,4-0.9,7.7-2.4,11.2
					c-4.5-11.5-16.1-19.8-29.8-20c-13.7-0.2-25.5,7.8-30.4,19.2c-1.4-3.5-2.1-7.3-2.1-11.2C46,80.8,60.6,67.3,78.5,67.5z"/>
				<path id="XMLID_25_" class="st8" d="M69.9,90.8c-10,2.4-18.3,9.2-22.1,18.3c-1.4-3.5-2.1-7.3-2.1-11.2
					c0.2-14.3,10.6-26.2,24.5-29.5L69.9,90.8z"/>
				<path id="XMLID_24_" class="st10" d="M98.6,57.7c-0.2,14.5-3.6,27.7-9.1,38c-3.6-1.1-7.4-1.8-11.4-1.8c-4-0.1-7.8,0.5-11.4,1.5
					c-5.2-10.4-8.2-23.7-8-38.2c0.3-23,8.7-42.9,20.7-52.5C91.1,14.6,98.9,34.7,98.6,57.7z"/>
				<path id="XMLID_2_" class="st5" d="M80,7.9c11.4,10.1,19.5,29.9,19.2,52.6c-0.2,14.5-3.6,27.7-9.1,38c-3.1-1-8.1-1.6-11.4-1.8
					L80,7.9z"/>
				<path id="XMLID_20_" class="st11" d="M93.8,27.2l0.9,2.7c0,0-17-2.1-31.7-0.1l1.4-3C64.3,26.8,84,24.7,93.8,27.2z"/>
				<path id="XMLID_19_" class="st9" d="M81.9,87.6c-0.1,9.6-2,17.9-4.6,21.9c-2.5-4.1-4.1-12.4-4-22c0.1-9.6,2-17.9,4.6-21.9
					C80.5,69.7,82.1,78,81.9,87.6z"/>
				<path id="XMLID_18_" class="st8" d="M77.5,109.3c0,0.1-0.1,0.1-0.1,0.2c-2.5-4.1-4.1-12.4-4-22c0.1-9.6,2-17.9,4.6-21.9
					c0,0.1,0.1,0.1,0.1,0.2L77.5,109.3z"/>
				<path id="XMLID_17_" class="st9" d="M93.8,27.2c-4.8-0.4-9.7-0.6-14.7-0.7c-5-0.1-9.9,0-14.7,0.3c3.7-9.4,8.9-17.1,15-22.1
					C85.4,9.8,90.4,17.6,93.8,27.2z"/>
				<path id="XMLID_16_" class="st8" d="M78.6,26.5c-4.8-0.1-9.6,0-14.2,0.3c3.7-9.4,8.9-17.1,15-22.1c0.1,0.1,0.2,0.2,0.3,0.3
					L78.6,26.5z"/>
				<path id="XMLID_15_" class="st11" d="M78.8,38.4l0.1,0c2.4,0,4.6,0.9,6.2,2.6c1.6,1.6,2.5,3.7,2.5,6c-0.1,4.6-4,8.3-8.8,8.3
					l-0.1,0c-4.9-0.1-8.8-3.9-8.7-8.5C70,42.1,73.9,38.4,78.8,38.4z"/>
				<path id="XMLID_14_" class="st2" d="M78.8,40.4c3.7,0,6.7,3,6.6,6.5c-0.1,3.5-3.1,6.3-6.8,6.3c-3.7,0-6.7-2.9-6.6-6.5
					C72.1,43.2,75.2,40.4,78.8,40.4z"/>
			</g>
		</g>
	</g>
</g>
</svg>
