<?xml version="1.0" encoding="utf-8"?>
<!-- Generator: Adobe Illustrator 19.0.0, SVG Export Plug-In . SVG Version: 6.00 Build 0)  -->
<svg version="1.1" id="Camada_1" xmlns="http://www.w3.org/2000/svg" xmlns:xlink="http://www.w3.org/1999/xlink" x="0px" y="0px"
	 viewBox="-124 126 50 50" style="enable-background:new -124 126 50 50;" xml:space="preserve">
<style type="text/css">
	.st0{fill-rule:evenodd;clip-rule:evenodd;fill:#FFFFFF;}
	.st1{fill-rule:evenodd;clip-rule:evenodd;fill:#F4F4F4;}
</style>
<path class="st0" d="M-77.4,138.2c-0.7-3.3-3.1-5.7-6.5-6.4c-4.3-1.1-9.1,0.3-13,2.1c-3.1,1.5-6.1,3.4-8.8,5.7
	c-4.5,3.8-8.2,8.4-10.6,13.8c-1.7,3.9-3,8.6-1.5,12.8c0.5,1.7,1.5,3.2,3,4.2c1.8,1.3,4.1,1.7,6.2,1.6c2.7-0.1,5.3-0.9,7.8-2.1v-0.1
	l-0.3-0.3h-0.1l0.1,0.1c-1.5,0.5-3,0.9-4.5,1.1c-3.5,0.5-8-0.2-9.5-3.9c-5.3-12.6,24.7-38.6,34.5-31.1h-0.1c0.3,0.3,0.7,0.7,1,1.1
	c0.7,0.9,1.1,2.1,1.3,3.1c0.3,2.2,0,4.5-0.5,6.5c-0.2,0.7-0.4,1.3-0.6,1.9h0.6C-77.7,145.1-76.7,141.6-77.4,138.2L-77.4,138.2z"/>
<path class="st1" d="M-100.2,129.6c-11.5,0-20.9,9.2-20.9,20.5c0,2.4,0.5,4.8,1.3,6.9c0.4-1.5,0.9-3,1.5-4.3v-0.1l0.1-0.1v-0.1
	c1.1-2.5,2.5-4.8,4.1-6.9c0.1-0.6,0.1-1.1,0.1-1.7c0-1.2,1.8-1.5,3.2-2.2c0.4-0.5,0.9-0.9,1.3-1.3c0.3-1.2-0.9-3.3-1.7-4.5
	c3.1-2.3,6.9-3.7,11.1-3.7c0.7,0,1.3,0,1.9,0.1c0.2-0.1,0.4-0.1,0.6-0.2c1.2-0.6,2.4-1.1,3.7-1.5C-96,129.9-98,129.6-100.2,129.6
	L-100.2,129.6z"/>
<path class="st1" d="M-113.1,166.2c1.1,0.8,2.2,1.5,3.3,2.1c1.3,0.3,2.7,0.2,3.8,0.1c0.2-0.1,0.5-0.1,0.7-0.1l-1.1-1h0.6
	c-2.4-0.8-4.6-2.1-6.4-3.7l0,0c1.5,0.8,3.3,1.1,4.9,0.9c3.3-0.5-2.6-3.1,0.3-4.6c2.9-1.4,3.2-5.2,2.3-4.9c-1,0.3-3.3-0.6-5-1.8
	c-0.8,1.2-1.5,2.3-2.1,3.5c-1.3,2.5-2.6,6.2-1.4,9C-113.3,166-113.2,166.2-113.1,166.2L-113.1,166.2z"/>
<path class="st1" d="M-98.8,170.6c10.8-0.7,19.5-9.6,19.5-20.4h-2.6c0,0.9-0.1,1.7-0.3,2.6l0,0c-0.4-1.5-1.1-3.1-2.8-4.2
	c-1.1-0.8-2-4.2-1.3-5.3c0.4-0.7,1.5-1.2,2.3-1.5c1,1.9,1.7,4,2,6.3v-4.7l1.1,1.1c0.1-0.5,0.2-1,0.3-1.5c-1-2.5-2.4-4.7-4.2-6.6
	c-2.1-0.1-4.5,0.6-6.1,1.3c-0.8,0.3-1.6,0.7-2.3,1.1c1.6,1.2,3.1,2.6,3.8,2.9c0.9,0.5,2,4.2,1.8,5.7c-0.3,1.5-2.9,3.3-2.3,4.9
	c0.7,1.5-0.5,3.3-0.5,3.3s-1.1,5.1-1.8,5.7c-0.7,0.7-4.7,2.5-3.8,3.6c0.9,1.1,3.6-0.3,6.3-0.9c0.6-0.1,1.3-0.3,1.9-0.6
	c-3.1,2.9-7.3,4.8-11.9,4.9l0.7,0.7V170.6z"/>
</svg>
