<?xml version="1.0" encoding="utf-8"?>
<!-- Generator: Adobe Illustrator 19.0.0, SVG Export Plug-In . SVG Version: 6.00 Build 0)  -->
<svg version="1.1" id="Camada_1" xmlns="http://www.w3.org/2000/svg" xmlns:xlink="http://www.w3.org/1999/xlink" x="0px" y="0px"
	 viewBox="0 0 50 50" style="enable-background:new 0 0 50 50;" xml:space="preserve">
<style type="text/css">
	.st0{fill-rule:evenodd;clip-rule:evenodd;fill:#67CDFD;}
	.st1{fill-rule:evenodd;clip-rule:evenodd;fill:#727270;}
</style>
<path class="st0" d="M34.9,15.4c0,3.9,0,7.6,0,11.4c5.3-0.7,10.4-1.5,12.1-5.7C39.4,20.5,35.9,18.5,34.9,15.4L34.9,15.4z"/>
<path class="st0" d="M22.1,11.6c2-0.6,4-0.9,5.9-0.8c1.9,0.1,3.7,0.5,5.4,1.2l0.1,0.1v0.1v13v0.2l-0.2-0.1c-1.5-0.9-3.1-1.3-5-1.3
	c-1.8-0.1-3.9,0.3-6.1,0.9L22,24.9v-0.2v-13v-0.1L22.1,11.6z"/>
<path class="st1" d="M18.1,6.7h0.5c1.5,0,2.7,1.2,2.7,2.7l0,0c0,0.8-0.4,1.6-1.1,2.1v25.6c2.4,0.1,4.4,0.5,6.1,1.1
	c2.1,0.8,3.3,2,3.3,3.3c0,1.3-1.2,2.5-3.3,3.3c-2,0.7-4.6,1.2-7.5,1.2c-2.8,0-5.5-0.5-7.4-1.2c-2.1-0.8-3.4-2-3.4-3.3
	c0-1.3,1.3-2.4,3.4-3.3c1.4-0.5,3.1-0.9,5-1.1V11.5c-0.7-0.5-1.1-1.2-1.1-2.1l0,0C15.4,8,16.6,6.8,18.1,6.7L18.1,6.7z M18.9,44.8
	c2.8,0,5.3-0.4,7-1.1c1.6-0.6,2.6-1.4,2.6-2.2c0-0.8-1-1.6-2.6-2.2c-1.5-0.6-3.4-0.9-5.7-1.1V41c0,0.4-0.2,0.8-0.5,1.1
	c-0.2,0.2-0.7,0.4-1.1,0.4h-0.4c-0.5,0-1-0.2-1.4-0.5c-0.4-0.4-0.5-0.8-0.5-1.3v-2.4c-1.8,0.2-3.3,0.5-4.6,1
	c-1.6,0.6-2.6,1.4-2.6,2.2c0,0.8,1,1.6,2.6,2.2C13.7,44.4,16.1,44.8,18.9,44.8L18.9,44.8z"/>
</svg>
