<?xml version="1.0" encoding="utf-8"?>
<!-- Generator: Adobe Illustrator 19.0.0, SVG Export Plug-In . SVG Version: 6.00 Build 0)  -->
<svg version="1.1" id="Camada_1" xmlns="http://www.w3.org/2000/svg" xmlns:xlink="http://www.w3.org/1999/xlink" x="0px" y="0px"
	 viewBox="0 0 50 50" style="enable-background:new 0 0 50 50;" xml:space="preserve">
<style type="text/css">
	.st0{fill-rule:evenodd;clip-rule:evenodd;fill:#69B3DC;}
	.st1{fill-rule:evenodd;clip-rule:evenodd;fill:#737270;}
	.st2{fill-rule:evenodd;clip-rule:evenodd;fill:#FFFFFF;}
</style>
<polygon id="XMLID_2_" class="st0" points="26.8,43.5 17.1,40.4 17.1,14.4 26.8,17.5 "/>
<polygon id="XMLID_1_" class="st0" points="15.8,40.6 6.2,43.7 6.2,17.7 15.8,14.6 "/>
<polygon id="XMLID_5_" class="st0" points="28,17.5 28,43.5 38,40.2 38,14.3 "/>
<path id="XMLID_7_" class="st1" d="M29.4,16.1c0,3.2-5.8,12.4-5.8,12.4s-5.8-9.3-5.8-12.4s2.6-5.7,5.8-5.7S29.4,13,29.4,16.1
	L29.4,16.1z M23.6,11.9c2.5,0,4.6,2,4.6,4.4c0,2.4-2,4.4-4.6,4.4c-2.5,0-4.6-2-4.6-4.4C19,13.8,21.1,11.9,23.6,11.9L23.6,11.9z"/>
<circle id="XMLID_6_" class="st2" cx="23.6" cy="16.3" r="4.8"/>
<path id="XMLID_25_" class="st0" d="M20.7,18.2L20.7,18.2h1.2c0.2,0.5,0.4,0.9,0.7,1.4c-0.5-0.2-1-0.5-1.4-0.8
	C21,18.6,20.8,18.4,20.7,18.2L20.7,18.2z M21.1,13.9L21.1,13.9c0.4-0.4,0.9-0.7,1.4-0.9c-0.3,0.4-0.5,0.9-0.7,1.4h-1.2
	C20.8,14.2,21,14,21.1,13.9L21.1,13.9z M26.5,14.4L26.5,14.4h-1.2c-0.2-0.5-0.4-1-0.7-1.4c0.6,0.2,1.1,0.5,1.5,0.9
	C26.2,14,26.3,14.2,26.5,14.4L26.5,14.4z M25.5,16.2L25.5,16.2c0-0.5-0.1-1.1-0.2-1.6h1.3c0.3,0.5,0.4,1,0.4,1.6H25.5z M25.5,16.4
	L25.5,16.4h1.5c0,0.6-0.2,1.1-0.4,1.6v0h-1.3C25.5,17.5,25.5,17,25.5,16.4L25.5,16.4z M23.7,18L23.7,18v-1.6h1.6
	c0,0.5-0.1,1.1-0.2,1.6H23.7z M23.7,18.2L23.7,18.2H25c-0.2,0.6-0.5,1-0.8,1.5c-0.1,0-0.3,0-0.4,0V18.2z M21.8,16.4L21.8,16.4h1.7
	V18H22C21.9,17.5,21.8,17,21.8,16.4L21.8,16.4z M21.5,16.2L21.5,16.2h-1.4c0-0.6,0.2-1.1,0.4-1.6h1.2C21.6,15.1,21.5,15.6,21.5,16.2
	L21.5,16.2z M23.5,14.6L23.5,14.6v1.6h-1.7c0-0.5,0.1-1.1,0.2-1.6H23.5z M23.5,14.4L23.5,14.4h-1.3c0.2-0.5,0.5-1,0.8-1.4
	c0.2,0,0.3-0.1,0.5-0.1V14.4z M25,14.6L25,14.6c0.2,0.5,0.2,1,0.3,1.6h-1.6v-1.6H25z M23.7,14.4L23.7,14.4v-1.5c0.1,0,0.3,0,0.4,0
	c0.3,0.4,0.6,0.9,0.8,1.5H23.7z M20.1,16.4L20.1,16.4h1.4c0,0.5,0.1,1.1,0.2,1.6h-1.2C20.3,17.5,20.1,17,20.1,16.4L20.1,16.4z
	 M22.9,19.7L22.9,19.7c-0.3-0.4-0.6-0.9-0.8-1.4h1.3v1.5C23.3,19.8,23.1,19.7,22.9,19.7L22.9,19.7z M26,18.8
	c-0.4,0.4-0.9,0.7-1.5,0.9c0.3-0.4,0.5-0.9,0.7-1.4h1.2C26.3,18.4,26.2,18.6,26,18.8L26,18.8z"/>
</svg>
