<?xml version="1.0" encoding="utf-8"?>
<!-- Generator: Adobe Illustrator 19.0.0, SVG Export Plug-In . SVG Version: 6.00 Build 0)  -->
<svg version="1.1" id="Camada_1" xmlns="http://www.w3.org/2000/svg" xmlns:xlink="http://www.w3.org/1999/xlink" x="0px" y="0px"
	 viewBox="-224 226 50 50" style="enable-background:new -224 226 50 50;" xml:space="preserve">
<style type="text/css">
	.st0{fill-rule:evenodd;clip-rule:evenodd;fill:#727270;}
</style>
<path class="st0" d="M-192.5,251.9v-1.2c0-0.8,0.7-1.5,1.6-1.5h5.8c-0.2-1.2-0.4-2.2-0.9-3.2c-0.7-1.7-1.8-3.3-3.1-4.6
	c-1.3-1.3-2.9-2.3-4.6-3c-1-0.4-2.2-0.7-3.3-0.9v5.8c0,0.8-0.7,1.5-1.6,1.5h-1.2c-0.9,0-1.6-0.7-1.6-1.5v-5.8
	c-1.2,0.2-2.2,0.4-3.3,0.9c-1.8,0.7-3.3,1.7-4.7,3c-1.3,1.3-2.4,2.9-3.1,4.6c-0.4,1-0.7,2.1-0.9,3.2h6c0.9,0,1.6,0.7,1.6,1.5v1.2
	c0,0.9-0.7,1.6-1.6,1.6h-6c0.2,1.1,0.5,2.2,0.9,3.2c0.8,1.7,1.8,3.3,3.1,4.5c1.3,1.3,2.9,2.4,4.7,3.1c1,0.4,2.1,0.7,3.3,0.9V259
	c0-0.8,0.7-1.5,1.6-1.5h1.2c0.9,0,1.6,0.7,1.6,1.5v6.3c1.2-0.2,2.3-0.5,3.3-0.9c1.7-0.7,3.3-1.8,4.6-3.1c1.3-1.3,2.4-2.8,3.1-4.5
	c0.4-1,0.7-2.1,0.9-3.2h-5.8C-191.8,253.5-192.5,252.8-192.5,251.9L-192.5,251.9z M-197.1,234c1.7,0.2,3.2,0.6,4.7,1.2
	c2.2,0.8,4.2,2.2,5.8,3.8c1.7,1.6,3,3.5,3.9,5.7c0.6,1.4,1,2.9,1.2,4.5h2c0.8,0,1.6,0.7,1.6,1.5v1.2c0,0.9-0.8,1.6-1.6,1.6h-2
	c-0.2,1.5-0.6,3.1-1.2,4.5c-0.9,2.1-2.2,4-3.9,5.6c-1.6,1.7-3.6,2.9-5.8,3.8c-1.5,0.6-3,1-4.7,1.2v1.3c0,0.8-0.7,1.6-1.6,1.6h-1.2
	c-0.9,0-1.6-0.8-1.6-1.6v-1.3c-1.6-0.2-3.2-0.6-4.7-1.2c-2.2-0.9-4.1-2.2-5.8-3.8c-1.7-1.6-3-3.5-3.9-5.6c-0.6-1.5-1-3-1.2-4.5h-1.7
	c-0.9,0-1.6-0.7-1.6-1.6v-1.2c0-0.8,0.7-1.5,1.6-1.5h1.7c0.2-1.6,0.6-3.1,1.2-4.5c0.9-2.2,2.2-4.1,3.9-5.7c1.7-1.6,3.6-2.9,5.8-3.8
	c1.5-0.6,3.1-1,4.7-1.2v-1.8c0-0.9,0.7-1.6,1.6-1.6h1.2c0.9,0,1.6,0.7,1.6,1.6V234z"/>
</svg>
