<?xml version="1.0" encoding="utf-8"?>
<!-- Generator: Adobe Illustrator 19.0.0, SVG Export Plug-In . SVG Version: 6.00 Build 0)  -->
<svg version="1.1" id="Camada_1" xmlns="http://www.w3.org/2000/svg" xmlns:xlink="http://www.w3.org/1999/xlink" x="0px" y="0px"
	 viewBox="249 -95.2 960 283" style="enable-background:new 249 -95.2 960 283;" xml:space="preserve">
<style type="text/css">
	.st0{fill:none;stroke:#000000;stroke-width:2;stroke-linecap:round;stroke-linejoin:round;stroke-miterlimit:10;}
	.st1{opacity:0.8;fill:#3EBFEF;enable-background:new    ;}
	.st2{opacity:0.1;}
	.st3{fill:#231F20;}
	.st4{opacity:0.8;fill:#B0E4F9;enable-background:new    ;}
	.st5{fill:#FFFFFF;}
	.st6{fill:#FFFFFF;stroke:#000000;stroke-width:2;stroke-linecap:round;stroke-linejoin:round;stroke-miterlimit:10;}
</style>
<g>
	<g>
		<line id="XMLID_164_" class="st0" x1="543.9" y1="-79.4" x2="594.4" y2="-79.4"/>
		<line id="XMLID_163_" class="st0" x1="574.6" y1="-68.7" x2="607.1" y2="-68.7"/>
	</g>
	<g>
		<line id="XMLID_162_" class="st0" x1="863.8" y1="72.8" x2="878.1" y2="72.8"/>
		<line id="XMLID_161_" class="st0" x1="870.9" y1="66.1" x2="870.9" y2="79.4"/>
	</g>
	<g>
		<line id="XMLID_160_" class="st0" x1="304.3" y1="26.9" x2="318.6" y2="26.9"/>
		<line id="XMLID_159_" class="st0" x1="311.5" y1="20.3" x2="311.5" y2="33.6"/>
	</g>
	<g>
		<line id="XMLID_158_" class="st0" x1="413.6" y1="-79.1" x2="427.9" y2="-79.1"/>
		<line id="XMLID_157_" class="st0" x1="420.8" y1="-85.7" x2="420.8" y2="-72.4"/>
	</g>
	<ellipse id="XMLID_156_" class="st0" cx="900.8" cy="26.9" rx="8.2" ry="7.6"/>
	<g>
		<line id="XMLID_155_" class="st0" x1="531.6" y1="112.4" x2="565.5" y2="112.4"/>
	</g>
	<g>
		<polygon id="XMLID_154_" class="st1" points="345.8,-39 899.5,-74 868.4,44.8 335.4,120.6 		"/>
		<g>
			
				<image style="overflow:visible;enable-background:new    ;" width="575" height="206" id="XMLID_153_" xlink:href="4D0DB723.png"  transform="matrix(1 0 0 1 340.4054 -69.4162)">
			</image>
		</g>
	</g>
	<g>
		<g class="st2">
			<g>
				<polygon id="XMLID_151_" class="st3" points="378.8,82.7 378.7,76.7 845.6,72.9 864.6,-40.3 871.6,-39.4 851.7,78.9 				"/>
			</g>
		</g>
		<polygon id="XMLID_150_" class="st4" points="358.8,-61.4 375.7,76.7 845.6,73 865.1,-43.3 		"/>
	</g>
	<polygon id="XMLID_149_" class="st0" points="584.3,100.3 593.1,117.3 604.5,101.6 	"/>
</g>
<g id="XMLID_36_">
	<path id="XMLID_120_" class="st5" d="M544.3,25.9c0,7.5-2,13.4-6.1,17.6c-4.1,4.2-9.5,6.3-16.3,6.3c-6.8,0-12.2-2.1-16.2-6.3
		s-6.1-10.1-6.1-17.6V8c0-7.5,2-13.3,6.1-17.6c4.1-4.3,9.4-6.4,16.2-6.4c6.7,0,12.2,2.1,16.3,6.4c4.1,4.3,6.2,10.1,6.2,17.6v17.9
		H544.3z M531.9,7.8c0-4.6-0.9-8-2.5-10.4c-1.7-2.3-4.2-3.5-7.4-3.5c-3.3,0-5.7,1.2-7.4,3.5c-1.6,2.3-2.5,5.8-2.5,10.4v18.1
		c0,4.6,0.8,8.1,2.5,10.4c1.7,2.3,4.1,3.5,7.4,3.5c3.2,0,5.7-1.2,7.4-3.5c1.7-2.3,2.5-5.8,2.5-10.4V7.8z"/>
	<path id="XMLID_123_" class="st5" d="M586.7,22.3H565v26.6h-12.5v-64h38.1v10h-25.5v17.4h21.7v10H586.7z"/>
	<path id="XMLID_125_" class="st5" d="M631.1,20.8h-21.5v18.1h25.3v10h-37.8v-64h37.7v10h-25.2v16h21.5V20.8z"/>
	<path id="XMLID_127_" class="st5" d="M653.9,23.4v25.4h-12.5v-63.9h20.9c6.3,0,11.2,1.7,14.8,5s5.4,7.9,5.4,13.9
		c0,3.3-0.7,6.2-2.2,8.6s-3.7,4.3-6.5,5.8c3.3,1.1,5.6,3,7.1,5.5c1.4,2.6,2.2,5.8,2.2,9.7v4.5c0,1.8,0.2,3.6,0.6,5.6
		c0.4,2,1.1,3.5,2.2,4.4v0.9H673c-1-0.9-1.7-2.5-1.9-4.6c-0.2-2.1-0.4-4.3-0.4-6.5v-4.4c0-3.2-0.7-5.7-2-7.4
		c-1.3-1.8-3.2-2.6-5.6-2.6L653.9,23.4L653.9,23.4z M653.9,13.4h8.3c2.5,0,4.5-0.8,5.8-2.3c1.3-1.6,2-3.8,2-6.6c0-2.9-0.7-5.3-2-7
		c-1.3-1.7-3.2-2.6-5.8-2.6h-8.4v18.5H653.9z"/>
	<path id="XMLID_130_" class="st5" d="M726.6-5.2h-14.4v54h-12.5v-54h-14.3v-10h41.2L726.6-5.2L726.6-5.2z"/>
	<path id="XMLID_132_" class="st5" d="M757.9,35.2H741l-3.4,13.7H725l18-64h13l18,64h-12.6L757.9,35.2z M743.6,25.2h11.8l-5.8-22.6
		h-0.3L743.6,25.2z"/>
	<path id="XMLID_135_" class="st5" d="M807.4,32.2c0-2.5-0.6-4.5-1.9-5.9s-3.6-2.9-6.8-4.3c-6.7-2.3-11.6-4.9-15-7.9
		c-3.3-2.9-5-7.1-5-12.4c0-5.2,1.9-9.5,5.8-12.8s8.8-4.9,14.8-4.9c6.1,0,11,1.8,14.9,5.5c3.8,3.7,5.7,8.3,5.5,13.9l-0.1,0.3h-12.1
		c0-2.9-0.7-5.3-2.2-7.1c-1.5-1.8-3.5-2.7-6.2-2.7c-2.5,0-4.4,0.8-5.8,2.3s-2.1,3.4-2.1,5.7c0,2.1,0.8,3.8,2.3,5.2s4.2,2.9,8.1,4.5
		c6.1,2.1,10.6,4.7,13.7,7.8c3.1,3.1,4.6,7.4,4.6,12.8c0,5.5-1.8,9.9-5.5,13s-8.6,4.7-14.7,4.7s-11.4-1.8-15.8-5.3
		c-4.5-3.6-6.6-8.7-6.5-15.3l0.1-0.3h12.2c0,4,0.8,6.8,2.5,8.5c1.7,1.7,4.2,2.6,7.6,2.6c2.6,0,4.6-0.7,5.9-2.1
		C806.8,36.5,807.4,34.6,807.4,32.2z"/>
</g>
<g id="XMLID_81_">
	<g id="XMLID_100_">
		<g id="XMLID_101_">
			<g id="XMLID_118_">
				<path id="XMLID_119_" class="st5" d="M482.6-12.4c-0.4,0-0.9-0.2-1.2-0.5c-0.6-0.7-0.6-1.7,0-2.4c1.1-1.1,1.7-2.5,1.7-3.9
					c0-1.5-0.6-2.9-1.7-3.9c-2.3-2.2-6.1-2.2-8.4,0c-0.7,0.6-1.7,0.6-2.4-0.1c-0.6-0.7-0.6-1.7,0.1-2.4c3.6-3.5,9.5-3.5,13.1,0
					c1.8,1.7,2.7,4,2.7,6.4s-1,4.7-2.7,6.4C483.4-12.6,483-12.4,482.6-12.4z"/>
			</g>
			<g id="XMLID_116_">
				<path id="XMLID_117_" class="st6" d="M469.6-22.6"/>
			</g>
			<g id="XMLID_114_">
				<path id="XMLID_115_" class="st6" d="M469.6-22.6"/>
			</g>
			<g id="XMLID_112_">
				<path id="XMLID_113_" class="st5" d="M469.6-20.9c-0.5,0-1-0.2-1.3-0.6c-0.6-0.7-0.5-1.8,0.3-2.4l2.2-1.8
					c0.7-0.6,1.8-0.5,2.4,0.3c0.6,0.7,0.5,1.8-0.3,2.4l-2.2,1.8C470.4-21.1,470-20.9,469.6-20.9z"/>
			</g>
			<g id="XMLID_110_">
				<path id="XMLID_111_" class="st5" d="M456.7-12.4c-0.4,0-0.8-0.2-1.2-0.5c-1.8-1.7-2.7-4-2.7-6.4s1-4.7,2.7-6.4
					c3.6-3.5,9.5-3.5,13.1,0c0.7,0.6,0.7,1.7,0.1,2.4c-0.6,0.7-1.7,0.7-2.4,0.1c-2.3-2.2-6.1-2.2-8.4,0c-1.1,1.1-1.7,2.5-1.7,3.9
					c0,1.5,0.6,2.9,1.7,3.9c0.7,0.6,0.7,1.7,0,2.4C457.6-12.6,457.1-12.4,456.7-12.4z"/>
			</g>
			<g id="XMLID_108_">
				<path id="XMLID_109_" class="st6" d="M469.6-22.6"/>
			</g>
			<g id="XMLID_106_">
				<path id="XMLID_107_" class="st6" d="M469.6-22.6"/>
			</g>
			<g id="XMLID_104_">
				<path id="XMLID_105_" class="st5" d="M469.6-20.9c-0.4,0-0.7-0.1-1.1-0.4l-2.2-1.8c-0.7-0.6-0.8-1.6-0.3-2.4
					c0.6-0.7,1.6-0.8,2.4-0.3l2.2,1.8c0.7,0.6,0.8,1.6,0.3,2.4C470.6-21.2,470.1-20.9,469.6-20.9z"/>
			</g>
			<g id="XMLID_102_">
				<path id="XMLID_103_" class="st5" d="M469.6,0.4c-1,0-1.9-0.4-2.6-1.1l-11.6-12.2c-0.6-0.7-0.6-1.7,0.1-2.4
					c0.7-0.6,1.7-0.6,2.4,0.1L469.5-3h0.2l0,0l11.6-12.2c0.6-0.7,1.7-0.7,2.4-0.1c0.7,0.6,0.7,1.7,0.1,2.4L472.2-0.7
					C471.5,0,470.7,0.4,469.6,0.4z"/>
			</g>
		</g>
	</g>
	<g id="XMLID_92_">
		<g id="XMLID_97_">
			<g id="XMLID_98_">
				<path id="XMLID_99_" class="st5" d="M475.5,52.8h-52.2c-2.4,0-4.3-1.9-4.3-4.3v-67.3c0-2.4,1.9-4.3,4.3-4.3H446
					c0.9,0,1.7,0.8,1.7,1.7c0,0.9-0.8,1.7-1.7,1.7h-22.7c-0.5,0-0.9,0.4-0.9,0.9v67.3c0,0.5,0.4,0.9,0.9,0.9h52.2
					c0.5,0,0.9-0.4,0.9-0.9V5.6c0-0.9,0.8-1.7,1.7-1.7c0.9,0,1.7,0.8,1.7,1.7v42.9C479.8,50.9,477.8,52.8,475.5,52.8z"/>
			</g>
		</g>
		<g id="XMLID_95_">
			<path id="XMLID_96_" class="st5" d="M467.9,14h-20.3c-0.9,0-1.7-0.8-1.7-1.7s0.8-1.7,1.7-1.7h20.3c0.9,0,1.7,0.8,1.7,1.7
				S468.9,14,467.9,14z"/>
		</g>
		<g id="XMLID_93_">
			<path id="XMLID_94_" class="st5" d="M437.6,14h-6.8c-0.9,0-1.7-0.8-1.7-1.7s0.8-1.7,1.7-1.7h6.8c0.9,0,1.7,0.8,1.7,1.7
				S438.5,14,437.6,14z"/>
		</g>
	</g>
	<g id="XMLID_90_">
		<path id="XMLID_91_" class="st5" d="M467.9,25.8h-20.3c-0.9,0-1.7-0.8-1.7-1.7c0-0.9,0.8-1.7,1.7-1.7h20.3c0.9,0,1.7,0.8,1.7,1.7
			C469.6,25.1,468.9,25.8,467.9,25.8z"/>
	</g>
	<g id="XMLID_87_">
		<path id="XMLID_89_" class="st5" d="M437.6,25.8h-6.8c-0.9,0-1.7-0.8-1.7-1.7c0-0.9,0.8-1.7,1.7-1.7h6.8c0.9,0,1.7,0.8,1.7,1.7
			C439.3,25.1,438.5,25.8,437.6,25.8z"/>
	</g>
	<g id="XMLID_84_">
		<path id="XMLID_85_" class="st5" d="M467.9,37.6h-20.3c-0.9,0-1.7-0.8-1.7-1.7s0.8-1.7,1.7-1.7h20.3c0.9,0,1.7,0.8,1.7,1.7
			C469.6,36.9,468.9,37.6,467.9,37.6z"/>
	</g>
	<g id="XMLID_82_">
		<path id="XMLID_83_" class="st5" d="M437.6,37.6h-6.8c-0.9,0-1.7-0.8-1.7-1.7s0.8-1.7,1.7-1.7h6.8c0.9,0,1.7,0.8,1.7,1.7
			C439.3,36.9,438.5,37.6,437.6,37.6z"/>
	</g>
</g>
</svg>
