<?xml version="1.0" encoding="utf-8"?>
<!-- Generator: Adobe Illustrator 19.0.0, SVG Export Plug-In . SVG Version: 6.00 Build 0)  -->
<svg version="1.1" id="Camada_1" xmlns="http://www.w3.org/2000/svg" xmlns:xlink="http://www.w3.org/1999/xlink" x="0px" y="0px"
	 viewBox="-79 186.8 631.1 241.2" style="enable-background:new -79 186.8 631.1 241.2;" xml:space="preserve">
<style type="text/css">
	.st0{fill:none;stroke:#000000;stroke-width:2;stroke-linecap:round;stroke-linejoin:round;stroke-miterlimit:10;}
	.st1{opacity:0.8;
	fill:red;
	}
	.st2{fill:#FFFFFF;}
</style>
<g>
	<g>
		<line class="st0" x1="-43.1" y1="324" x2="-30.5" y2="324"/>
		<line class="st0" x1="-36.8" y1="317.3" x2="-36.8" y2="330.6"/>
	</g>
	<g>
		<line class="st0" x1="479.1" y1="324.9" x2="491.7" y2="324.9"/>
		<line class="st0" x1="485.4" y1="318.2" x2="485.4" y2="331.5"/>
	</g>
	<g>
		<line class="st0" x1="226.5" y1="396.7" x2="239.1" y2="396.7"/>
		<line class="st0" x1="232.8" y1="390" x2="232.8" y2="403.3"/>
	</g>
	<ellipse class="st0" cx="179.4" cy="395.6" rx="7.2" ry="7.6"/>
	<line class="st0" x1="131.9" y1="232.5" x2="178.4" y2="232.5"/>
	<g>
		<g>
			<polygon class="st1" points="1.1,249.4 -19.3,367.7 452.7,395.6 485.4,239.1 			"/>
		</g>
		<g>
			<image style="overflow:visible;" width="513" height="171" xlink:href="E003A7B2.png"  transform="matrix(1 0 0 1 -13 242)">
			</image>
		</g>
	</g>
	<polygon class="st0" points="-31.9,388.6 -15.7,396.6 -17.3,377.8 	"/>
	<line class="st0" x1="352.7" y1="228" x2="388.6" y2="228"/>
	<line class="st0" x1="311.2" y1="216.4" x2="357.6" y2="216.4"/>
</g>
<g>
	<g>
		<g>
			<path class="st2" d="M73.8,351.7h-58c-0.9,0-1.6-0.7-1.6-1.6v-58c0-0.9,0.7-1.6,1.6-1.6s1.6,0.7,1.6,1.6v56.4h54.8v-56.4
				c0-0.9,0.7-1.6,1.6-1.6c0.9,0,1.6,0.7,1.6,1.6v58C75.4,351,74.7,351.7,73.8,351.7z"/>
		</g>
		<g>
			<path class="st2" d="M73.8,351.7c-0.4,0-0.9-0.2-1.2-0.5c-0.6-0.7-0.5-1.7,0.1-2.3l15.6-14v-57.3h-57L17,293.2
				c-0.6,0.7-1.6,0.7-2.3,0.1c-0.7-0.6-0.7-1.6-0.1-2.3l14.8-16.1c0.3-0.3,0.7-0.5,1.2-0.5h59.3c0.9,0,1.6,0.7,1.6,1.6v59.7
				c0,0.5-0.2,0.9-0.5,1.2l-16.1,14.4C74.6,351.6,74.2,351.7,73.8,351.7z"/>
		</g>
		<g>
			<path class="st2" d="M73.8,293.7c-0.4,0-0.8-0.2-1.1-0.5c-0.6-0.6-0.6-1.6,0-2.3l16.1-16.1c0.6-0.6,1.6-0.6,2.3,0
				c0.6,0.6,0.6,1.6,0,2.3L75,293.2C74.7,293.5,74.2,293.7,73.8,293.7z"/>
		</g>
		<g>
			<path class="st2" d="M44.8,293.7c-0.4,0-0.8-0.2-1.1-0.5c-0.6-0.6-0.6-1.6,0-2.3l16.1-16.1c0.6-0.6,1.6-0.6,2.3,0
				c0.6,0.6,0.6,1.6,0,2.3L46,293.2C45.7,293.5,45.2,293.7,44.8,293.7z"/>
		</g>
		<g>
			<path class="st2" d="M54.5,308.2H35.2c-0.9,0-1.6-0.7-1.6-1.6s0.7-1.6,1.6-1.6h19.3c0.9,0,1.6,0.7,1.6,1.6S55.4,308.2,54.5,308.2
				z"/>
		</g>
	</g>
	<g>
		<path class="st2" d="M73.8,293.7H16.6c-0.9,0-1.6-0.7-1.6-1.6c0-0.9,0.7-1.6,1.6-1.6h57.2c0.9,0,1.6,0.7,1.6,1.6
			C75.4,293,74.7,293.7,73.8,293.7z"/>
	</g>
</g>
<g>
	<path class="st2" d="M110.5,337.8c0-0.2,0-1,0-2.6c0-1.6,0-3,0-4.4c0-2.5,0.1-6.9,0.2-13.4c0.1-6.4,0.2-11.6,0.2-15.4
		c0-4.8-0.1-9.7-0.3-14.8c-0.1-1.1-0.1-1.8-0.1-2c0-1.5,0.3-2.6,0.8-3.3c0.5-0.7,1.4-1.1,2.5-1.2c0,0,0.2,0,0.4,0
		c4.2-0.3,9.2-0.5,14.7-0.5c6.1,0,10.6,1.9,13.5,5.6s4.4,9.5,4.4,17.4c0,7.3-1.6,13.1-4.7,17.5c-3.1,4.4-7.2,6.5-12.4,6.5
		c-0.2,0-0.4,0-0.8,0c-0.4,0-0.7,0-0.8,0c-1.6,0-2.7,0.3-3.3,0.8c-0.6,0.5-0.9,1.5-0.9,2.9c0,2.6,0.1,5.3,0.3,8.1
		c0.1,0.7,0.1,1.1,0.1,1.2c0,1.2-0.2,2-0.7,2.5c-0.5,0.5-1.3,0.8-2.5,0.8c-0.3,0-0.8,0-1.5-0.1c-0.7-0.1-1.3-0.1-1.8-0.1
		c-0.6,0-1.4,0.1-2.5,0.2c-1,0.1-1.8,0.2-2.2,0.2c-0.8,0-1.5-0.2-1.9-0.7c-0.4-0.5-0.6-1.2-0.6-2.3c0-0.5,0-1,0-1.6
		C110.5,338.3,110.5,337.9,110.5,337.8z M123.3,298.5c0,3.2,0,6.1,0.1,8.6s0.2,4,0.3,4.7c0.1,0.5,0.5,0.9,1.1,1.3
		c0.6,0.3,1.4,0.5,2.3,0.5c1.9,0,3.2-0.7,3.9-2s1.1-3.8,1.1-7.5c0-4-0.4-6.7-1.1-8.3c-0.8-1.6-2.1-2.4-3.9-2.4
		c-1.3,0-2.3,0.4-2.9,1.3C123.6,295.3,123.3,296.7,123.3,298.5z"/>
	<path class="st2" d="M152.9,337.7V286c0-2.3,0.3-3.7,1-4.4c0.7-0.7,1.9-1,3.8-1c1,0,2.2,0,3.7,0.1c1.5,0.1,2.5,0.1,3.1,0.1
		c0.8,0,2.3,0,4.4-0.1c2.1-0.1,3.8-0.1,5.1-0.1c5.7,0,9.8,1.6,12.2,4.9c2.4,3.3,3.6,8.8,3.6,16.6c0,6-0.5,10.4-1.5,13.3
		c-1,2.9-2.7,4.9-5,6.1l7.9,18.1c0.1,0.3,0.2,0.6,0.3,0.9c0.1,0.3,0.1,0.5,0.1,0.7c0,0.7-0.3,1.3-0.8,1.8c-0.5,0.4-1.3,0.7-2.2,0.7
		c-0.2,0-0.5,0-0.9-0.1s-0.8-0.1-1-0.1h-7.4c-1.7,0-2.9-1.1-3.7-3.3c-0.2-0.6-0.4-1-0.5-1.4l-6.7-17.3h-1.5v18.4
		c0,1.2-0.2,2.2-0.7,2.7c-0.5,0.6-1.2,0.8-2.2,0.8h-7.7c-1.4,0-2.3-0.3-2.7-0.9C153.1,341.8,152.9,340.2,152.9,337.7z M166.7,304.6
		c0,3.3,0.3,5.4,0.9,6.1s1.7,1.1,3.3,1.1c1.5,0,2.6-0.5,3.5-1.6c0.9-1.1,1.3-2.5,1.3-4.2c0-5.4-0.4-8.7-1.1-10.1
		c-0.8-1.4-2.1-2.1-4.2-2.1c-1.3,0-2.3,0.4-2.9,1.2c-0.7,0.8-1,1.9-1,3.5c0,0.3,0,1.2,0.1,2.5C166.6,302.3,166.7,303.5,166.7,304.6z
		"/>
	<path class="st2" d="M196.5,312.6c0-7.4,0.3-12.7,0.8-15.9s1.4-6,2.6-8.3c1.5-2.9,3.7-5.1,6.7-6.6c3-1.5,6.6-2.2,10.9-2.2
		c6.4,0,11.1,1.9,14.1,5.8c3,3.9,4.4,10.1,4.4,18.7v2.8c0,8.9-0.2,15-0.5,18.5c-0.4,3.5-1,6.3-1.8,8.5c-1.4,3.4-3.7,6-6.9,7.8
		c-3.2,1.8-7.1,2.7-11.7,2.7c-6.7,0-11.5-2.4-14.4-7.1C197.9,332.7,196.5,324.4,196.5,312.6z M212,321c0,3.2,0.3,5.4,0.8,6.6
		c0.6,1.2,1.6,1.7,3,1.7c1.8,0,3-0.7,3.7-2.2c0.7-1.4,1-5.2,1-11.4v-1.1v-13.6c0-2.1-0.4-3.7-1.1-4.9c-0.7-1.2-1.8-1.8-3.1-1.8
		c-1.6,0-2.7,0.7-3.4,2c-0.7,1.4-1,3.8-1,7.3V321z"/>
	<path class="st2" d="M257.9,280.8h0.3c6.9,0,11.7,2.6,14.6,7.7c2.9,5.1,4.3,14.2,4.3,27.3c0,9.4-1.3,16.4-3.9,20.9
		c-2.6,4.5-6.7,6.8-12.1,6.8c-0.4,0-0.9,0-1.6-0.1s-1-0.1-1.2-0.1l-5.7,0.1c-0.1,0-0.4,0-0.8,0c-2.2,0.1-4.3,0.1-6.5,0.1
		c-1.8,0-2.9-0.4-3.5-1.1c-0.6-0.8-0.8-3-0.8-6.7V335c0-0.2,0-1,0-2.3c0.2-7.7,0.3-15.5,0.3-23.4c0-7.9-0.1-15.5-0.4-22.9
		c-0.1-1.1-0.1-1.7-0.1-1.8c0-1.4,0.4-2.3,1.1-3c0.8-0.6,2-0.9,3.7-0.9c0.2,0,0.9,0,2.2,0.1c1.3,0,2.5,0.1,3.6,0.1L257.9,280.8z
		 M254.6,324.6c0,0.2,0,0.4,0,0.8c0,0.4,0,0.7,0,0.9c0,1.5,0.2,2.5,0.7,3.1s1.2,0.9,2.4,0.9c1.8,0,2.9-0.7,3.6-2.2s0.9-4.9,0.9-10.4
		v-5.4c0-7.8-0.3-12.7-1-14.6c-0.7-1.9-2-2.8-4-2.8c-0.9,0-1.6,0.2-2,0.7c-0.4,0.5-0.6,1.3-0.6,2.4c0,1,0,2.3,0.1,3.7
		c0.1,1.4,0.1,2.3,0.1,2.6L254.6,324.6z"/>
	<path class="st2" d="M282,320.5v-33.6c0-2.7,0.2-4.4,0.7-5.1c0.5-0.7,1.3-1.1,2.6-1.1h7.1c1.4,0,2.4,0.3,3,0.8
		c0.5,0.6,0.8,1.9,0.8,4v38.2c0,2.1,0.4,3.6,1.1,4.5c0.8,1,1.9,1.4,3.5,1.4c1.6,0,2.7-0.4,3.5-1.2c0.8-0.8,1.2-2,1.2-3.6v-39.3
		c0-1.9,0.3-3.2,0.9-3.9c0.6-0.7,1.7-1.1,3.3-1.1h6.8c1.1,0,1.9,0.4,2.4,1.1c0.5,0.7,0.7,1.9,0.7,3.5v37.9c0,7.4-1.6,12.7-4.8,16.1
		c-3.2,3.4-8.3,5.1-15.3,5.1c-3.3,0-6.2-0.5-8.5-1.5s-4.3-2.5-5.7-4.5c-1.2-1.6-2-3.6-2.5-6C282.3,329.9,282,326,282,320.5z"/>
	<path class="st2" d="M345.8,298.7l0.1,35.3c0,1,0,2.2,0.1,3.4s0.1,2,0.1,2.3c0,1.3-0.2,2.2-0.7,2.8c-0.5,0.6-1.3,0.8-2.4,0.8
		c-0.1,0-0.4,0-0.8,0c-0.5,0-0.9,0-1.3,0c-0.4,0-1.2,0-2.5,0.1c-1.2,0.1-2.2,0.1-3,0.1c-1.4,0-2.4-0.3-3-0.8
		c-0.6-0.5-0.9-1.4-0.9-2.7c0-0.5,0-1.2,0.1-2.3c0.1-1,0.1-1.8,0.1-2.3v-22.6c0-0.5,0-1.2-0.1-2.1c-0.1-1-0.1-1.7-0.1-2.3
		c0-0.2,0-0.8,0-1.7c0.1-3.4,0.2-6.7,0.2-9.8c0-0.6,0-1-0.1-1.2c-0.1-0.2-0.3-0.3-0.5-0.4c-0.7-0.2-1.8-0.3-3.3-0.3
		c-1.6,0-2.7-0.2-3.5-0.5c-0.6-0.3-1-0.9-1.2-2c-0.2-1.1-0.3-3.4-0.3-7.1c0-1.6,0.3-2.7,1-3.5s1.7-1.1,3.1-1.1
		c3.9,0,7.7-0.1,11.5-0.2c0.7,0,1,0,1.1,0c0.9,0,2.1,0,3.6,0.1s2.5,0.1,3,0.1c0.6,0,1.4,0,2.4-0.1c1-0.1,1.8-0.1,2.3-0.1
		c1.7,0,2.8,0.3,3.2,0.8s0.7,1.7,0.7,3.5v1c0,4-0.2,6.5-0.7,7.5c-0.4,1-1.2,1.5-2.4,1.5h-2.9c-1.1,0-1.8,0.1-2.3,0.4
		c-0.4,0.3-0.7,0.9-0.7,1.7v0.8V298.7z"/>
	<path class="st2" d="M359,312.6c0-7.4,0.3-12.7,0.8-15.9s1.4-6,2.6-8.3c1.5-2.9,3.7-5.1,6.7-6.6c3-1.5,6.6-2.2,10.9-2.2
		c6.4,0,11.1,1.9,14.1,5.8c3,3.9,4.4,10.1,4.4,18.7v2.8c0,8.9-0.2,15-0.5,18.5c-0.4,3.5-1,6.3-1.8,8.5c-1.4,3.4-3.7,6-6.9,7.8
		c-3.2,1.8-7.1,2.7-11.7,2.7c-6.7,0-11.5-2.4-14.4-7.1S359,324.4,359,312.6z M374.5,321c0,3.2,0.3,5.4,0.8,6.6
		c0.6,1.2,1.6,1.7,3,1.7c1.8,0,3-0.7,3.7-2.2c0.7-1.4,1-5.2,1-11.4v-1.1v-13.6c0-2.1-0.4-3.7-1.1-4.9s-1.8-1.8-3.1-1.8
		c-1.6,0-2.7,0.7-3.4,2s-1,3.8-1,7.3V321z"/>
	<path class="st2" d="M403.6,338.3l-0.1-6.6v-0.4c0-1.6,0.3-2.7,0.9-3.4c0.6-0.7,1.6-1,3-1c0.3,0,1.2,0.4,2.7,1.1
		c1.6,0.7,3.2,1.1,5,1.1c1.6,0,2.7-0.3,3.4-0.9c0.7-0.6,1-1.6,1-2.9c0-2-1.8-4.4-5.3-7.5c-1.5-1.3-2.6-2.3-3.4-3.1
		c-2.6-2.5-4.4-5-5.6-7.6c-1.1-2.6-1.7-5.6-1.7-8.9c0-5.9,1.6-10.3,4.9-13.2c3.3-3,8.1-4.4,14.7-4.4c4,0,6.5,0.3,7.5,0.8
		c1,0.5,1.5,2.1,1.5,4.8v6.4c0,1.8-0.2,3-0.6,3.5c-0.4,0.5-1.2,0.8-2.4,0.8c-0.7,0-1.8-0.2-3.2-0.6c-1.4-0.4-2.5-0.6-3.2-0.6
		c-1.3,0-2.3,0.3-3,0.9s-1,1.5-1,2.6c0,1.5,1.9,4.1,5.7,7.6c1.9,1.8,3.4,3.2,4.5,4.3c2.2,2.2,3.7,4.3,4.6,6.5c0.9,2.2,1.4,4.9,1.4,8
		c0,6.5-1.5,11.2-4.5,14.3c-3,3.1-7.7,4.6-14,4.6c-2.4,0-4.6-0.2-6.6-0.5s-3.6-0.7-4.6-1.3c-0.6-0.3-1.1-0.7-1.3-1.2
		c-0.2-0.5-0.4-1.3-0.4-2.5V338.3z"/>
</g>
</svg>
